<?xml version="1.0" standalone="no"?>
<!DOCTYPE svg PUBLIC "-//W3C//DTD SVG 1.1//EN" "http://www.w3.org/Graphics/SVG/1.1/DTD/svg11.dtd" >
<svg xmlns="http://www.w3.org/2000/svg" xmlns:xlink="http://www.w3.org/1999/xlink" version="1.1">
<metadata></metadata>
<defs>
<font id="samsungone200" horiz-adv-x="0" >
<font-face units-per-em="2048" ascent="1588" descent="-460" />
<missing-glyph horiz-adv-x="514" />
<glyph unicode="fi" horiz-adv-x="1120" d="M50 992v60h178v194q0 142 80 222t222 80q44 0 74 -8v-62q-40 6 -74 6q-114 0 -173 -61t-59 -179v-192h268v-60h-268v-992h-70v992h-178zM816 1350q0 32 17 50t45 18t45 -17t17 -49t-17 -50t-45 -18t-45 17t-17 49zM842 0v1052h70v-1052h-70z" />
<glyph unicode="fl" horiz-adv-x="1174" d="M50 992v60h178v194q0 142 80 222t222 80q44 0 74 -8v-62q-40 6 -74 6q-114 0 -173 -61t-59 -179v-192h268v-60h-268v-992h-70v992h-178zM834 152v1388h70v-1382q0 -54 25 -80t79 -26q32 0 72 8l10 -58q-48 -12 -94 -12q-80 0 -121 41t-41 121z" />
<glyph />
<glyph />
<glyph horiz-adv-x="520" />
<glyph unicode="&#x9;" horiz-adv-x="1024" />
<glyph horiz-adv-x="514" />
<glyph unicode=" "  horiz-adv-x="514" />
<glyph unicode="&#x09;" horiz-adv-x="514" />
<glyph unicode="&#xa0;" horiz-adv-x="514" />
<glyph unicode="!" horiz-adv-x="644" d="M252 46q0 34 18 53t52 19t52 -18t18 -52t-19 -54t-51 -20q-34 0 -52 19t-18 53zM282 1448h76l-8 -1118h-60z" />
<glyph unicode="&#x22;" horiz-adv-x="664" d="M152 1448h68l-6 -422h-56zM444 1448h68l-6 -422h-56z" />
<glyph unicode="#" horiz-adv-x="1270" d="M98 442v64h272l68 436h-258v64h268l70 442h68l-70 -442h328l70 442h68l-70 -442h260v-64h-270l-68 -436h252v-64h-262l-70 -442h-68l70 442h-328l-70 -442h-68l70 442h-262zM438 506h328l68 436h-328z" />
<glyph unicode="$" horiz-adv-x="1072" d="M110 116l28 58q168 -94 358 -96v626l-60 16q-160 44 -236 129t-76 221q0 164 98 260t274 106v182h68v-182q176 -6 334 -78l-28 -62q-164 66 -306 74v-610l62 -18q158 -44 235 -129t77 -225q0 -164 -98 -261t-276 -113v-184h-68v182q-208 2 -386 104zM194 1080 q0 -114 61 -182t207 -110l34 -10v592q-150 -8 -226 -81t-76 -209zM564 80q148 12 225 89t77 213q0 116 -62 184t-204 108l-36 10v-604z" />
<glyph unicode="%" horiz-adv-x="1772" d="M120 1044q0 208 68 319t192 111t192 -111t68 -319t-68 -319t-192 -111t-192 111t-68 319zM192 1044q0 -180 48 -273t140 -93t140 93t48 273t-48 273t-140 93t-140 -93t-48 -273zM444 0l810 1448h74l-810 -1448h-74zM1132 404q0 208 68 319t192 111t192 -111t68 -319 t-68 -319t-192 -111t-192 111t-68 319zM1204 404q0 -180 48 -273t140 -93t140 93t48 273t-48 273t-140 93t-140 -93t-48 -273z" />
<glyph unicode="&#x26;" horiz-adv-x="1248" d="M140 300q0 96 40 171t134 153l164 136l-92 114q-82 100 -114 169t-32 143q0 138 87 213t247 75t246 -73t86 -201q0 -92 -54 -177t-184 -191l-96 -78l334 -410q10 16 20 38l162 334h66l-172 -360l-32 -64l212 -260l-52 -44l-196 242q-84 -134 -184 -195t-236 -61 q-168 0 -261 85t-93 241zM210 308q0 -130 75 -201t211 -71q118 0 207 58t169 186l-352 430l-146 -118q-92 -76 -128 -140t-36 -144zM308 1190q0 -62 30 -125t104 -153l88 -108l102 84q114 94 160 161t46 143q0 102 -69 161t-195 59t-196 -59t-70 -163z" />
<glyph unicode="'" horiz-adv-x="372" d="M152 1448h68l-6 -422h-56z" />
<glyph unicode="(" horiz-adv-x="586" d="M136 682q0 252 72 487t200 401l46 -34q-122 -168 -184 -385t-62 -469q0 -250 62 -466t184 -384l-46 -34q-128 154 -200 388t-72 496z" />
<glyph unicode=")" horiz-adv-x="586" d="M132 -168q122 168 184 384t62 466q0 252 -62 469t-184 385l46 34q128 -166 200 -401t72 -487q0 -262 -72 -496t-200 -388z" />
<glyph unicode="*" horiz-adv-x="1064" d="M152 1140l20 64l332 -114l-4 358h64l-4 -358l332 114l20 -64l-338 -106l212 -286l-50 -40l-204 288l-204 -288l-50 40l212 286z" />
<glyph unicode="+" horiz-adv-x="1110" d="M132 696v66h388v422h70v-422h388v-66h-388v-422h-70v422h-388z" />
<glyph unicode="," horiz-adv-x="398" d="M44 -316q74 72 103 141t29 169q0 56 -8 120h74q8 -64 8 -118q0 -118 -39 -199t-131 -153z" />
<glyph unicode="-" horiz-adv-x="778" d="M130 552v64h518v-64h-518z" />
<glyph unicode="." horiz-adv-x="436" d="M148 46q0 34 18 53t52 19t52 -18t18 -52t-19 -54t-51 -20q-34 0 -52 19t-18 53z" />
<glyph unicode="/" horiz-adv-x="844" d="M70 -172l638 1646h68l-640 -1646h-66z" />
<glyph unicode="0" horiz-adv-x="1172" d="M140 724q0 384 111 567t335 183t335 -183t111 -567t-111 -567t-335 -183t-335 183t-111 567zM212 724q0 -352 91 -519t283 -167t283 167t91 519t-91 519t-283 167t-283 -167t-91 -519z" />
<glyph unicode="1" horiz-adv-x="850" d="M104 1300l400 148h62v-1448h-70v1376l-370 -130z" />
<glyph unicode="2" horiz-adv-x="1088" d="M130 1344q74 58 180 94t206 36q174 0 277 -98t103 -264q0 -96 -46 -196t-152 -234l-484 -618h698v-64h-780v64l514 658q100 126 140 212t40 174q0 136 -85 217t-227 81q-92 0 -184 -31t-166 -87z" />
<glyph unicode="3" horiz-adv-x="1070" d="M102 82l32 62q76 -50 166 -77t178 -27q170 0 270 101t100 273q0 166 -95 263t-259 97q-80 0 -142 -18l-36 46l468 582h-660v64h750v-64l-456 -554q52 8 96 8q186 0 296 -113t110 -307q0 -202 -120 -323t-322 -121q-96 0 -200 30t-176 78z" />
<glyph unicode="4" horiz-adv-x="1090" d="M68 340v64l630 1044h94v-1044h190v-64h-190v-340h-68v340h-656zM148 404h576v964z" />
<glyph unicode="5" horiz-adv-x="1036" d="M100 74l32 62q66 -46 150 -71t168 -25q172 0 273 106t101 284q0 174 -94 276t-254 102q-70 0 -143 -20t-129 -54l-46 24l44 690h634v-64h-574l-42 -576q52 30 124 47t144 17q186 0 297 -119t111 -319q0 -210 -121 -335t-325 -125q-92 0 -189 28t-161 72z" />
<glyph unicode="6" horiz-adv-x="1070" d="M108 448q0 132 50 259t166 289l342 478l52 -40l-338 -470q-42 -56 -108 -166q58 32 135 51t151 19q190 0 303 -121t113 -323q0 -206 -117 -328t-313 -122q-132 0 -230 58t-152 166t-54 250zM180 448q0 -188 99 -299t267 -111q164 0 260 104t96 282q0 176 -97 279 t-263 103q-82 0 -162 -24t-142 -66q-28 -54 -43 -124t-15 -144z" />
<glyph unicode="7" horiz-adv-x="918" d="M44 1384v64h798v-64l-566 -1404l-64 24l558 1380h-726z" />
<glyph unicode="8" horiz-adv-x="1110" d="M108 352q0 136 94 243t262 161q-138 38 -215 135t-77 231q0 162 103 257t279 95t280 -95t104 -257q0 -130 -77 -226t-215 -138q168 -50 262 -156t94 -248q0 -174 -122 -277t-326 -103t-325 103t-121 275zM180 352q0 -142 103 -228t271 -86q170 0 273 86t103 228 q0 130 -95 224t-281 150q-184 -54 -279 -149t-95 -225zM242 1118q0 -124 80 -208t236 -122q154 40 232 123t78 205q0 132 -87 213t-227 81q-142 0 -227 -80t-85 -212z" />
<glyph unicode="9" horiz-adv-x="1070" d="M96 1024q0 206 117 328t313 122q132 0 230 -58t152 -166t54 -250q0 -132 -50 -259t-166 -289l-342 -478l-52 40l338 470q42 56 108 166q-58 -32 -135 -51t-151 -19q-190 0 -303 121t-113 323zM168 1024q0 -176 97 -279t263 -103q82 0 162 24t142 66q28 54 43 124t15 144 q0 188 -99 299t-267 111q-164 0 -260 -104t-96 -282z" />
<glyph unicode=":" horiz-adv-x="516" d="M188 46q0 34 18 53t52 19t52 -18t18 -52t-19 -54t-51 -20q-34 0 -52 19t-18 53zM188 806q0 34 18 53t52 19t52 -18t18 -52t-19 -54t-51 -20q-34 0 -52 19t-18 53z" />
<glyph unicode=";" horiz-adv-x="516" d="M98 -316q74 72 103 141t29 169q0 56 -8 120h74q8 -64 8 -118q0 -118 -39 -199t-131 -153zM188 806q0 34 18 53t52 19t52 -18t18 -52t-19 -54t-51 -20q-34 0 -52 19t-18 53z" />
<glyph unicode="&#x3c;" horiz-adv-x="792" d="M120 722l504 598l48 -42l-468 -556l468 -556l-48 -42z" />
<glyph unicode="=" horiz-adv-x="1110" d="M178 464v66h754v-66h-754zM178 914v66h754v-66h-754z" />
<glyph unicode="&#x3e;" horiz-adv-x="792" d="M120 166l468 556l-468 556l48 42l504 -598l-504 -598z" />
<glyph unicode="?" horiz-adv-x="996" d="M130 1356q80 56 180 87t194 31q162 0 252 -89t90 -249q0 -104 -45 -179t-161 -161q-104 -80 -138 -145t-34 -183q0 -84 6 -138h-72q-6 60 -6 136q0 94 16 154t58 112t124 116q104 80 141 140t37 146q0 130 -70 201t-200 71q-166 0 -342 -108zM368 46q0 34 18 53t52 19 t52 -18t18 -52t-19 -54t-51 -20q-34 0 -52 19t-18 53z" />
<glyph unicode="@" horiz-adv-x="1578" d="M160 724q0 226 79 396t223 262t336 92q190 0 333 -85t220 -241t77 -366q0 -186 -75 -294t-205 -108q-58 0 -99 22t-59 58q-58 -88 -190 -88q-122 0 -190 93t-68 257q0 166 75 260t209 94q94 0 188 -64v-444q0 -58 35 -91t97 -33q98 0 155 90t57 248q0 194 -67 335 t-194 216t-299 75q-176 0 -304 -82t-196 -236t-68 -366t71 -366t204 -236t315 -82q164 0 296 68l26 -56q-62 -38 -147 -58t-175 -20q-200 0 -349 92t-230 262t-81 396zM612 722q0 -142 52 -214t154 -72q78 0 128 50v492q-58 34 -126 34q-102 0 -155 -74t-53 -216z" />
<glyph unicode="A" horiz-adv-x="1316" d="M80 0l534 1448h88l534 -1448h-76l-158 430h-690l-158 -430h-74zM336 496h642l-320 876z" />
<glyph unicode="B" horiz-adv-x="1272" d="M212 0v1448h72h406q182 0 280 -95t98 -271q0 -128 -53 -212t-153 -114q140 -16 215 -111t75 -257q0 -186 -101 -287t-289 -101h-512h-38zM284 66h486q148 0 228 83t80 239t-81 239t-235 83h-478v-644zM284 776h406q148 0 227 78t79 224t-81 225t-233 79h-398v-606z" />
<glyph unicode="C" horiz-adv-x="1182" d="M120 702q0 234 73 409t208 269t317 94q88 0 182 -24t174 -68l-28 -58q-164 84 -332 84q-156 0 -274 -86t-182 -244t-64 -368q0 -318 143 -492t403 -174q186 0 316 76l30 -56q-62 -42 -154 -65t-194 -23q-300 0 -459 188t-159 538z" />
<glyph unicode="D" horiz-adv-x="1362" d="M212 0v1448h362q308 0 478 -189t170 -531q0 -346 -173 -537t-487 -191h-350zM284 66h290q280 0 427 168t147 488q0 322 -150 491t-436 169h-278v-1316z" />
<glyph unicode="E" horiz-adv-x="1132" d="M212 0v1448h788v-66h-716v-608h548v-66h-548v-642h740v-66h-812z" />
<glyph unicode="F" horiz-adv-x="1056" d="M212 0v1448h776v-66h-704v-634h582v-66h-582v-682h-72z" />
<glyph unicode="G" horiz-adv-x="1320" d="M140 724q0 358 161 554t453 196q98 0 193 -23t167 -65l-26 -58q-156 78 -336 78q-262 0 -400 -175t-138 -507q0 -334 139 -509t401 -175q164 0 322 64v542h-288v66h360v-642q-82 -46 -186 -71t-208 -25q-292 0 -453 196t-161 554z" />
<glyph unicode="H" horiz-adv-x="1384" d="M212 0v1448h72v-680h816v680h72v-1448h-72v702h-816v-702h-72z" />
<glyph unicode="I" horiz-adv-x="504" d="M216 0v1448h72v-1448h-72z" />
<glyph unicode="J" horiz-adv-x="868" d="M36 60l30 56q112 -76 250 -76q136 0 207 79t71 231v1098h72v-1102q0 -176 -92 -274t-258 -98q-78 0 -152 23t-128 63z" />
<glyph unicode="K" horiz-adv-x="1216" d="M212 0v1448h72v-882l788 882h86l-572 -640l586 -808h-86l-548 754l-254 -284v-470h-72z" />
<glyph unicode="L" horiz-adv-x="1038" d="M212 0v1448h72v-1382h678v-66h-750z" />
<glyph unicode="M" horiz-adv-x="1654" d="M212 0v1448h90l524 -1064l524 1064h92v-1448h-70v1336l-506 -1026h-80l-506 1030v-1340h-68z" />
<glyph unicode="N" horiz-adv-x="1428" d="M212 0v1448h68l868 -1328v1328h68v-1448h-68l-868 1328v-1328h-68z" />
<glyph unicode="O" horiz-adv-x="1408" d="M140 724q0 368 146 559t418 191t418 -191t146 -559t-146 -559t-418 -191t-418 191t-146 559zM214 724q0 -338 124 -511t366 -173t366 173t124 511t-124 511t-366 173t-366 -173t-124 -511z" />
<glyph unicode="P" horiz-adv-x="1174" d="M212 0v1448h72h398q202 0 313 -115t111 -327q0 -214 -112 -331t-318 -117h-392v-558h-72zM284 624h398q170 0 260 97t90 281t-92 282t-264 98h-392v-758z" />
<glyph unicode="Q" horiz-adv-x="1408" d="M140 724q0 368 146 559t418 191t418 -191t146 -559q0 -246 -66 -414t-194 -252l266 -308l-50 -46l-274 320q-110 -50 -246 -50q-272 0 -418 191t-146 559zM214 724q0 -338 124 -511t366 -173t366 173t124 511t-124 511t-366 173t-366 -173t-124 -511z" />
<glyph unicode="R" horiz-adv-x="1246" d="M212 0v1448h72h380q202 0 311 -110t109 -312q0 -182 -91 -291t-261 -131l406 -604h-88l-396 600h-370v-600h-72zM284 666h380q168 0 257 91t89 263q0 176 -91 269t-263 93h-372v-716z" />
<glyph unicode="S" horiz-adv-x="1104" d="M100 88l28 58q192 -104 406 -104q182 0 278 80t96 236q0 124 -68 200t-220 118l-164 46q-172 48 -253 139t-81 237q0 178 112 276t316 98q98 0 203 -23t195 -63l-28 -62q-194 82 -376 82q-172 0 -262 -76t-90 -226q0 -126 69 -199t221 -115l164 -46q174 -48 254 -139 t80 -237q0 -186 -117 -289t-329 -103q-114 0 -229 30t-205 82z" />
<glyph unicode="T" horiz-adv-x="1036" d="M80 1382v66h474h402v-66h-402v-1382h-72v1382h-402z" />
<glyph unicode="U" horiz-adv-x="1352" d="M202 500v948h72v-944q0 -226 104 -345t298 -119t298 119t104 345v944h72v-948q0 -250 -124 -388t-350 -138t-350 138t-124 388z" />
<glyph unicode="V" horiz-adv-x="1244" d="M88 1448h76l458 -1372l458 1372h76l-490 -1448h-88z" />
<glyph unicode="W" horiz-adv-x="1772" d="M92 1448h74l342 -1370l334 1368h88l334 -1368l342 1370h74l-372 -1448h-88l-334 1360l-334 -1360h-88z" />
<glyph unicode="X" horiz-adv-x="1196" d="M82 0l474 736l-460 712h80l424 -658l430 658h80l-472 -714l476 -734h-80l-438 676l-434 -676h-80z" />
<glyph unicode="Y" horiz-adv-x="1156" d="M72 1448h76l430 -836l430 836h76l-470 -912v-536h-72v536z" />
<glyph unicode="Z" horiz-adv-x="1086" d="M108 0v66l774 1316h-750v66h834v-66l-774 -1316h782v-66h-866z" />
<glyph unicode="[" horiz-adv-x="660" d="M212 -174v1716h374v-62h-306v-1592h306v-62h-374z" />
<glyph unicode="\" horiz-adv-x="844" d="M68 1474h68l638 -1646h-66z" />
<glyph unicode="]" horiz-adv-x="660" d="M74 -112h306v1592h-306v62h374v-1716h-374v62z" />
<glyph unicode="^" horiz-adv-x="802" d="M72 1062l286 386h84l288 -386h-80l-248 332l-250 -332h-80z" />
<glyph unicode="_" horiz-adv-x="1162" d="M212 -188h738v-64h-738v64z" />
<glyph unicode="`" horiz-adv-x="1000" d="M292 1556v12h78l216 -326v-12h-62z" />
<glyph unicode="a" horiz-adv-x="1024" d="M98 278q0 186 162 274t504 90v96q0 136 -68 205t-202 69q-132 0 -262 -66l-22 62q62 34 137 52t149 18q158 0 248 -86t90 -240v-752h-68v146q-144 -168 -346 -168q-152 0 -237 79t-85 221zM170 278q0 -110 67 -173t185 -63q96 0 179 43t163 131v366q-304 -2 -449 -76 t-145 -228z" />
<glyph unicode="b" horiz-adv-x="1118" d="M204 0v986v554h70v-642q134 180 332 180q184 0 285 -145t101 -409q0 -262 -101 -406t-287 -144q-100 0 -187 45t-145 127v-146h-68zM274 222q58 -86 146 -134t186 -48q152 0 233 123t81 357q0 240 -83 366t-237 126q-94 0 -173 -45t-153 -141v-604z" />
<glyph unicode="c" horiz-adv-x="926" d="M118 546q0 160 52 280t147 186t221 66q72 0 149 -22t141 -62l-28 -56q-140 76 -264 76q-160 0 -253 -124t-93 -340q0 -248 93 -378t269 -130q140 0 258 74l30 -54q-56 -40 -133 -63t-157 -23q-204 0 -318 150t-114 420z" />
<glyph unicode="d" horiz-adv-x="1118" d="M126 530q0 262 101 406t287 144q100 0 186 -44t144 -124v628h70v-1472v-68h-68v158q-134 -182 -334 -182q-184 0 -285 145t-101 409zM198 534q0 -240 83 -366t237 -126q94 0 173 45t153 141v604q-58 86 -146 134t-186 48q-152 0 -233 -123t-81 -357z" />
<glyph unicode="e" horiz-adv-x="1044" d="M122 526q0 262 108 407t304 145q186 0 291 -133t105 -369q0 -24 -4 -52h-732q0 -232 98 -357t274 -125q160 0 284 90l30 -54q-58 -48 -139 -75t-173 -27q-212 0 -329 144t-117 406zM196 584h664v16q0 194 -88 304t-244 110q-152 0 -237 -110t-95 -320z" />
<glyph unicode="f" horiz-adv-x="634" d="M50 992v60h178v194q0 142 80 222t222 80q44 0 74 -8v-62q-40 6 -74 6q-114 0 -173 -61t-59 -179v-192h268v-60h-268v-992h-70v992h-178z" />
<glyph unicode="g" horiz-adv-x="1122" d="M126 548q0 250 104 390t288 140q100 0 187 -45t145 -127v146h68v-1056q0 -202 -113 -311t-319 -109q-72 0 -142 15t-118 41l22 62q108 -52 244 -52q172 0 264 90t92 260v202q-134 -180 -332 -180q-184 0 -287 141t-103 393zM198 552q0 -232 83 -352t241 -120q94 0 173 45 t153 141v564q-58 86 -146 134t-186 48q-156 0 -237 -117t-81 -343z" />
<glyph unicode="h" horiz-adv-x="1132" d="M204 0v1540h70v-624q152 162 352 162q146 0 229 -86t83 -240v-752h-70v740q0 134 -64 203t-186 69q-92 0 -175 -40t-169 -124v-848h-70z" />
<glyph unicode="i" horiz-adv-x="486" d="M182 1350q0 32 17 50t45 18t45 -17t17 -49t-17 -50t-45 -18t-45 17t-17 49zM208 0v1052h70v-1052h-70z" />
<glyph unicode="j" horiz-adv-x="486" d="M-44 -376q100 32 153 80t76 128t23 214v1006h70v-1006q0 -152 -27 -242t-91 -146t-182 -94zM182 1350q0 32 17 50t45 18t45 -17t17 -49t-17 -50t-45 -18t-45 17t-17 49z" />
<glyph unicode="k" horiz-adv-x="1036" d="M204 0v1540h70v-1108l584 620h84l-432 -456l454 -596h-84l-416 546l-190 -200v-346h-70z" />
<glyph unicode="l" horiz-adv-x="540" d="M200 152v1388h70v-1382q0 -54 25 -80t79 -26q32 0 72 8l10 -58q-48 -12 -94 -12q-80 0 -121 41t-41 121z" />
<glyph unicode="m" horiz-adv-x="1742" d="M204 0v1052h68v-138q154 164 344 164q104 0 175 -48t101 -136q160 184 362 184q138 0 216 -86t78 -240v-752h-70v740q0 134 -59 203t-173 69q-86 0 -169 -42t-171 -130q8 -38 8 -88v-752h-70v740q0 134 -60 203t-176 69q-88 0 -169 -40t-165 -124v-848h-70z" />
<glyph unicode="n" horiz-adv-x="1128" d="M204 0v1052h68v-138q74 80 164 122t188 42q146 0 228 -86t82 -240v-752h-70v740q0 134 -63 203t-185 69q-90 0 -173 -40t-169 -124v-848h-70z" />
<glyph unicode="o" horiz-adv-x="1078" d="M126 526q0 270 107 411t307 141q198 0 305 -141t107 -411t-107 -411t-307 -141q-198 0 -305 141t-107 411zM198 526q0 -240 86 -364t254 -124t255 124t87 364t-86 364t-254 124t-255 -124t-87 -364z" />
<glyph unicode="p" horiz-adv-x="1118" d="M204 -414v1400v66h68v-156q134 182 334 182q184 0 285 -145t101 -409q0 -262 -101 -406t-287 -144q-100 0 -186 44t-144 124v-556h-70zM274 222q58 -86 146 -134t186 -48q152 0 233 123t81 357q0 240 -83 366t-237 126q-94 0 -173 -45t-153 -141v-604z" />
<glyph unicode="q" horiz-adv-x="1118" d="M126 528q0 262 101 406t287 144q100 0 187 -45t145 -127v146h68v-986v-480h-70v568q-134 -180 -332 -180q-184 0 -285 145t-101 409zM198 532q0 -240 83 -366t237 -126q94 0 173 45t153 141v604q-58 86 -146 134t-186 48q-152 0 -233 -123t-81 -357z" />
<glyph unicode="r" horiz-adv-x="764" d="M204 0v1052h68v-170q64 98 136 145t158 47q70 0 142 -26l-20 -64q-72 22 -130 22q-80 0 -149 -49t-135 -151v-806h-70z" />
<glyph unicode="s" horiz-adv-x="886" d="M92 72l26 58q142 -90 312 -90q132 0 201 59t69 173q0 94 -49 145t-151 75l-142 34q-126 30 -185 94t-59 172q0 136 85 210t239 74q164 0 308 -80l-28 -58q-138 74 -286 74q-120 0 -185 -55t-65 -159q0 -82 46 -131t148 -75l142 -34q130 -30 191 -98t61 -182 q0 -144 -89 -223t-251 -79q-92 0 -181 25t-157 71z" />
<glyph unicode="t" horiz-adv-x="704" d="M62 992v60h178v308h70v-308h310v-60h-310v-722q0 -106 48 -161t140 -55q52 0 116 16l14 -60q-62 -22 -136 -22q-118 0 -185 70t-67 196v738h-178z" />
<glyph unicode="u" horiz-adv-x="1112" d="M190 300v752h70v-740q0 -134 61 -203t181 -69q92 0 174 43t162 131v838h70v-1052h-68v146q-148 -172 -346 -172q-144 0 -224 86t-80 240z" />
<glyph unicode="v" horiz-adv-x="1006" d="M96 1052h74l334 -984l332 984h74l-364 -1052h-84z" />
<glyph unicode="w" horiz-adv-x="1526" d="M100 1052h72l276 -986l274 986h84l272 -986l276 986h72l-306 -1052h-84l-272 956l-274 -956h-84z" />
<glyph unicode="x" horiz-adv-x="980" d="M88 0l360 538l-346 514h78l312 -462l318 462h78l-358 -518l362 -534h-78l-326 482l-322 -482h-78z" />
<glyph unicode="y" horiz-adv-x="998" d="M96 -370q132 44 223 132t147 230l-370 1060h74l330 -972l328 972h74l-370 -1068q-54 -158 -159 -265t-253 -153z" />
<glyph unicode="z" horiz-adv-x="896" d="M108 0v60l592 932h-576v60h652v-60l-592 -932h600v-60h-676z" />
<glyph unicode="{" horiz-adv-x="704" d="M72 654v60q110 2 167 53t57 135v264q0 134 28 216t90 129t172 71l16 -66q-92 -22 -143 -61t-72 -106t-21 -183v-264q0 -90 -38 -143t-120 -75q82 -22 120 -75t38 -143v-262q0 -116 21 -184t72 -107t143 -61l-16 -64q-110 24 -172 70t-90 128t-28 218v262q0 84 -57 135 t-167 53z" />
<glyph unicode="|" horiz-adv-x="490" d="M212 -500v2132h66v-2132h-66z" />
<glyph unicode="}" horiz-adv-x="704" d="M102 -148q92 22 143 61t72 107t21 184v262q0 90 38 143t120 75q-82 22 -120 75t-38 143v264q0 116 -21 183t-72 106t-143 61l16 66q110 -24 172 -71t90 -129t28 -216v-264q0 -84 57 -135t167 -53v-60q-110 -2 -167 -53t-57 -135v-262q0 -136 -28 -218t-90 -128t-172 -70z " />
<glyph unicode="~" horiz-adv-x="1110" d="M132 666q124 148 268 148q54 0 89 -17t81 -53q40 -32 70 -48t74 -16q106 0 222 124l42 -42q-124 -148 -268 -148q-54 0 -89 17t-81 53q-40 32 -70 48t-74 16q-106 0 -222 -124z" />
<glyph unicode="&#xa1;" horiz-adv-x="644" d="M252 1004q0 34 19 54t51 20q34 0 52 -19t18 -53t-18 -53t-52 -19q-32 0 -51 19t-19 51zM286 -396l8 1118h60l8 -1118h-76z" />
<glyph unicode="&#xa2;" horiz-adv-x="930" d="M118 564q0 218 94 346t268 150v226h68v-222h4q68 0 137 -20t127 -54l-28 -54q-122 66 -240 66v-886h26q104 0 224 72l30 -52q-60 -40 -130 -62t-134 -22h-16v-222h-68v228q-174 26 -268 157t-94 349zM190 576q0 -192 74 -308t216 -144v874q-142 -22 -216 -129t-74 -293z " />
<glyph unicode="&#xa3;" horiz-adv-x="1044" d="M140 698v62h200q-10 42 -25 81t-31 73q-28 58 -42 104t-14 112q0 166 93 255t263 89q90 0 175 -32t145 -92l-38 -56q-114 114 -282 114q-136 0 -210 -71t-74 -203q0 -50 12 -90t38 -90q24 -54 39 -96t25 -98h360v-62h-354q4 -52 4 -82q0 -344 -194 -550h670v-66h-742v66 l68 88q130 170 130 440q0 60 -6 104h-210z" />
<glyph unicode="&#xa4;" horiz-adv-x="1124" d="M126 72l140 174q-128 132 -128 380t126 378l-138 174l54 44l140 -172q102 68 242 68t242 -68l140 172l54 -44l-138 -174q126 -130 126 -378t-128 -380l140 -174l-54 -44l-140 172q-102 -68 -242 -68t-242 68l-140 -172zM210 626q0 -212 89 -320t263 -108t263 108t89 320 q0 210 -89 318t-263 108t-263 -108t-89 -318z" />
<glyph unicode="&#xa5;" horiz-adv-x="1048" d="M64 1448h76l384 -812l386 812h74l-396 -814h270v-62h-300v-224h300v-62h-300v-286h-72v286h-300v62h300v224h-300v62h270z" />
<glyph unicode="&#xa6;" horiz-adv-x="490" d="M212 396h66v-896h-66v896zM212 738v894h66v-894h-66z" />
<glyph unicode="&#xa7;" horiz-adv-x="1054" d="M156 -330l26 58q166 -88 346 -88q146 0 222 69t76 203q0 112 -56 177t-186 103l-124 36q-152 44 -224 124t-72 204q0 184 140 296q-132 90 -132 272q0 164 101 256t281 92q82 0 164 -19t148 -51l-26 -58q-134 62 -290 62q-152 0 -229 -69t-77 -205q0 -112 57 -178 t185 -104l124 -36q148 -44 218 -123t70 -203q0 -178 -138 -294q138 -92 138 -276q0 -162 -98 -253t-272 -91q-90 0 -188 25t-184 71zM234 562q0 -104 59 -165t193 -101l124 -36q46 -14 94 -34q124 106 124 256q0 104 -57 165t-187 99l-124 36q-42 12 -100 38 q-64 -56 -95 -118t-31 -140z" />
<glyph unicode="&#xa8;" horiz-adv-x="1000" d="M260 1350q0 30 16 48t44 18t44 -17t16 -49q0 -30 -16 -48t-44 -18t-44 17t-16 49zM620 1350q0 30 16 48t44 18t44 -17t16 -49q0 -30 -16 -48t-44 -18t-44 17t-16 49z" />
<glyph unicode="&#xa9;" horiz-adv-x="1628" d="M196 724q0 234 74 403t213 258t331 89t331 -89t213 -258t74 -403t-74 -403t-213 -258t-331 -89t-331 89t-213 258t-74 403zM266 724q0 -322 145 -503t403 -181t403 181t145 503t-145 503t-403 181t-403 -181t-145 -503zM554 726q0 170 72 264t200 94q48 0 96 -14t88 -40 l-28 -56q-86 46 -158 46q-98 0 -148 -73t-50 -213q0 -152 54 -229t160 -77q78 0 154 46l22 -54q-34 -26 -83 -41t-101 -15q-130 0 -204 96t-74 266z" />
<glyph unicode="&#xaa;" horiz-adv-x="996" d="M158 826q0 146 131 212t409 64v90q0 104 -60 157t-178 53q-46 0 -88 -13t-114 -45l-18 52q68 36 121 50t113 14q136 0 213 -67t77 -185v-546q-68 -36 -147 -56t-149 -20q-150 0 -230 62t-80 178zM200 284v60h566v-60h-566zM226 828q0 -88 63 -135t179 -47q124 0 230 50 v348q-242 2 -357 -50t-115 -166z" />
<glyph unicode="&#xab;" horiz-adv-x="1058" d="M102 562l388 458l44 -42l-350 -416l350 -418l-44 -42zM514 562l388 458l44 -42l-350 -416l350 -418l-44 -42z" />
<glyph unicode="&#xac;" horiz-adv-x="1110" d="M160 862v66h790v-66v-372h-70v372h-720z" />
<glyph unicode="&#xad;" horiz-adv-x="778" d="M130 552v64h518v-64h-518z" />
<glyph unicode="&#xae;" horiz-adv-x="1628" d="M196 724q0 234 74 403t213 258t331 89t331 -89t213 -258t74 -403t-74 -403t-213 -258t-331 -89t-331 89t-213 258t-74 403zM266 724q0 -322 145 -503t403 -181t403 181t145 503t-145 503t-403 181t-403 -181t-145 -503zM616 368v712h212q92 0 145 -59t53 -165 q0 -84 -34 -139t-98 -75l154 -274h-82l-146 262h-2h-132v-262h-70zM686 692h142q126 0 126 160q0 164 -136 164h-132v-324z" />
<glyph unicode="&#xaf;" horiz-adv-x="1000" d="M244 1310v62h512v-62h-512z" />
<glyph unicode="&#xb0;" horiz-adv-x="864" d="M128 1166q0 136 86 221t220 85t218 -85t84 -221t-84 -223t-218 -87t-220 87t-86 223zM198 1166q0 -108 66 -176t170 -68q102 0 167 68t65 176q0 106 -65 173t-167 67q-104 0 -170 -67t-66 -173z" />
<glyph unicode="&#xb1;" horiz-adv-x="1110" d="M132 208v66h846v-66h-846zM132 848v66h388v370h70v-370h388v-66h-388v-370h-70v370h-388z" />
<glyph unicode="&#xb2;" horiz-adv-x="714" d="M80 1456q116 98 262 98q110 0 170 -58t60 -164q0 -66 -30 -125t-114 -159l-270 -324h432v-62h-508v62l298 364q76 92 100 139t24 97q0 82 -44 125t-126 43q-120 0 -226 -84z" />
<glyph unicode="&#xb3;" horiz-adv-x="762" d="M80 724l24 56q48 -32 104 -50t110 -18q112 0 170 56t58 164q0 86 -56 132t-160 46q-54 0 -96 -12l-28 38l282 342h-390v62h476v-62l-264 -310q28 4 44 4q124 0 193 -63t69 -175q0 -136 -78 -211t-220 -75t-238 76z" />
<glyph unicode="&#xb4;" horiz-adv-x="1000" d="M422 1230v12l232 326h78v-12l-248 -326h-62z" />
<glyph unicode="&#xb5;" horiz-adv-x="1126" d="M204 -414v1094v372h70v-740q0 -134 61 -203t181 -69q92 0 174 43t162 131v838h70v-1052h-68v146q-148 -172 -346 -172q-162 0 -234 108v-496h-70z" />
<glyph unicode="&#xb6;" horiz-adv-x="1128" d="M80 1064q0 182 121 283t335 101h308h72v-1448h-72v1382h-236v-1382h-72v684h-8q-212 0 -330 101t-118 279z" />
<glyph unicode="&#xb7;" horiz-adv-x="436" d="M148 618q0 34 18 53t52 19t52 -18t18 -52t-19 -54t-51 -20q-34 0 -52 19t-18 53z" />
<glyph unicode="&#xb8;" horiz-adv-x="1000" d="M322 -410l20 50q76 -36 154 -36q134 0 134 106q0 98 -122 98q-52 0 -90 -18l-26 24l94 226l48 -34l-74 -150q32 8 54 8q84 0 131 -40t47 -112q0 -78 -52 -122t-144 -44q-98 0 -174 44z" />
<glyph unicode="&#xb9;" horiz-adv-x="634" d="M84 1442l228 98h58v-878h-68v798l-196 -76z" />
<glyph unicode="&#xba;" horiz-adv-x="1008" d="M166 1024q0 214 88 326t252 112q160 0 248 -112t88 -326q0 -216 -88 -328t-250 -112t-250 112t-88 328zM222 284v60h566v-60h-566zM234 1024q0 -188 68 -285t202 -97t202 97t68 285t-68 284t-200 96q-134 0 -203 -96t-69 -284z" />
<glyph unicode="&#xbb;" horiz-adv-x="1058" d="M112 146l350 418l-350 416l44 42l388 -460l-388 -458zM524 146l350 418l-350 416l44 42l388 -460l-388 -458z" />
<glyph unicode="&#xbc;" horiz-adv-x="1592" d="M84 1350l228 98h58v-878h-68v798l-196 -76zM286 12l876 1456l54 -32l-876 -1456zM912 200v62l382 616h90v-616h116v-62h-116v-200h-68v200h-404zM992 262h324v528z" />
<glyph unicode="&#xbd;" horiz-adv-x="1662" d="M84 1350l228 98h58v-878h-68v798l-196 -76zM286 12l876 1456l54 -32l-876 -1456zM1028 794q116 98 262 98q110 0 170 -58t60 -164q0 -66 -30 -125t-114 -159l-270 -324h432v-62h-508v62l298 364q76 92 100 139t24 97q0 82 -44 125t-126 43q-120 0 -226 -84z" />
<glyph unicode="&#xbe;" horiz-adv-x="1760" d="M80 632l24 56q48 -32 104 -50t110 -18q112 0 170 56t58 164q0 86 -56 132t-160 46q-54 0 -96 -12l-28 38l282 342h-390v62h476v-62l-264 -310q28 4 44 4q124 0 193 -63t69 -175q0 -136 -78 -211t-220 -75t-238 76zM454 12l876 1456l54 -32l-876 -1456zM1080 200v62 l382 616h90v-616h116v-62h-116v-200h-68v200h-404zM1160 262h324v528z" />
<glyph unicode="&#xbf;" horiz-adv-x="896" d="M150 -84q0 104 45 179t161 161q104 80 138 145t34 183q0 84 -6 138h72q6 -60 6 -136q0 -94 -16 -154t-58 -112t-124 -116q-104 -80 -141 -140t-37 -146q0 -130 70 -201t200 -71q166 0 342 108l30 -58q-80 -56 -180 -87t-194 -31q-162 0 -252 89t-90 249zM488 1004 q0 34 19 54t51 20q34 0 52 -19t18 -53t-18 -53t-52 -19q-32 0 -51 19t-19 51z" />
<glyph unicode="&#xc0;" horiz-adv-x="1316" d="M80 0l534 1448h88l534 -1448h-76l-158 430h-690l-158 -430h-74zM336 496h642l-320 876zM352 1838v14h86l314 -276v-14h-70z" />
<glyph unicode="&#xc1;" horiz-adv-x="1316" d="M80 0l534 1448h88l534 -1448h-76l-158 430h-690l-158 -430h-74zM336 496h642l-320 876zM562 1562v14l332 276h86v-14l-348 -276h-70z" />
<glyph unicode="&#xc2;" horiz-adv-x="1316" d="M80 0l534 1448h88l534 -1448h-76l-158 430h-690l-158 -430h-74zM336 496h642l-320 876zM376 1562v14l248 276h68l248 -276v-14h-62l-220 234l-220 -234h-62z" />
<glyph unicode="&#xc3;" horiz-adv-x="1316" d="M80 0l534 1448h88l534 -1448h-76l-158 430h-690l-158 -430h-74zM336 496h642l-320 876zM360 1584q2 112 47 173t121 61q52 0 84 -25t66 -71q28 -40 52 -60t60 -20q100 0 112 172h54q-2 -112 -47 -173t-121 -61q-52 0 -84 25t-66 71q-28 40 -52 60t-60 20 q-100 0 -112 -172h-54z" />
<glyph unicode="&#xc4;" horiz-adv-x="1316" d="M80 0l534 1448h88l534 -1448h-76l-158 430h-690l-158 -430h-74zM336 496h642l-320 876zM414 1690q0 30 16 48t44 18t44 -17t16 -49q0 -30 -16 -48t-44 -18t-44 17t-16 49zM782 1690q0 30 16 48t44 18t44 -17t16 -49q0 -30 -16 -48t-44 -18t-44 17t-16 49z" />
<glyph unicode="&#xc5;" horiz-adv-x="1316" d="M80 0l534 1448h88l534 -1448h-76l-158 430h-690l-158 -430h-74zM336 496h642l-320 876zM468 1724q0 88 50 137t140 49t140 -49t50 -137t-50 -137t-140 -49t-140 49t-50 137zM530 1724q0 -64 33 -98t95 -34t95 34t33 98t-33 98t-95 34t-95 -34t-33 -98z" />
<glyph unicode="&#xc6;" horiz-adv-x="1780" d="M12 0l846 1448h80h710v-66h-688v-608h520v-66h-520v-642h712v-66h-784v414h-556l-242 -414h-78zM372 480h516v882z" />
<glyph unicode="&#xc7;" horiz-adv-x="1182" d="M120 702q0 234 73 409t208 269t317 94q88 0 182 -24t174 -68l-28 -58q-164 84 -332 84q-156 0 -274 -86t-182 -244t-64 -368q0 -318 143 -492t403 -174q186 0 316 76l30 -56q-62 -42 -154 -65t-194 -23h-24l-60 -120q32 8 54 8q84 0 131 -40t47 -112q0 -78 -52 -122 t-144 -44q-98 0 -174 44l20 50q76 -36 154 -36q134 0 134 106q0 98 -122 98q-50 0 -90 -18l-26 24l70 166q-260 26 -398 212t-138 510z" />
<glyph unicode="&#xc8;" horiz-adv-x="1132" d="M212 0v1448h788v-66h-716v-608h548v-66h-548v-642h740v-66h-812zM312 1838v14h86l314 -276v-14h-70z" />
<glyph unicode="&#xc9;" horiz-adv-x="1132" d="M212 0v1448h788v-66h-716v-608h548v-66h-548v-642h740v-66h-812zM522 1562v14l332 276h86v-14l-348 -276h-70z" />
<glyph unicode="&#xca;" horiz-adv-x="1132" d="M212 0v1448h788v-66h-716v-608h548v-66h-548v-642h740v-66h-812zM336 1562v14l248 276h68l248 -276v-14h-62l-220 234l-220 -234h-62z" />
<glyph unicode="&#xcb;" horiz-adv-x="1132" d="M212 0v1448h788v-66h-716v-608h548v-66h-548v-642h740v-66h-812zM374 1690q0 30 16 48t44 18t44 -17t16 -49q0 -30 -16 -48t-44 -18t-44 17t-16 49zM742 1690q0 30 16 48t44 18t44 -17t16 -49q0 -30 -16 -48t-44 -18t-44 17t-16 49z" />
<glyph unicode="&#xcc;" horiz-adv-x="504" d="M-54 1838v14h86l314 -276v-14h-70zM216 0v1448h72v-1448h-72z" />
<glyph unicode="&#xcd;" horiz-adv-x="504" d="M156 1562v14l332 276h86v-14l-348 -276h-70zM216 0v1448h72v-1448h-72z" />
<glyph unicode="&#xce;" horiz-adv-x="504" d="M-30 1562v14l248 276h68l248 -276v-14h-62l-220 234l-220 -234h-62zM216 0v1448h72v-1448h-72z" />
<glyph unicode="&#xcf;" horiz-adv-x="504" d="M8 1690q0 30 16 48t44 18t44 -17t16 -49q0 -30 -16 -48t-44 -18t-44 17t-16 49zM216 0v1448h72v-1448h-72zM376 1690q0 30 16 48t44 18t44 -17t16 -49q0 -30 -16 -48t-44 -18t-44 17t-16 49z" />
<glyph unicode="&#xd0;" horiz-adv-x="1362" d="M76 700v66h136v682h362q308 0 478 -189t170 -531q0 -346 -173 -537t-487 -191h-350v700h-136zM284 66h290q280 0 427 168t147 488q0 322 -150 491t-436 169h-278v-616h434v-66h-434v-634z" />
<glyph unicode="&#xd1;" horiz-adv-x="1428" d="M212 0v1448h68l868 -1328v1328h68v-1448h-68l-868 1328v-1328h-68zM416 1584q2 112 47 173t121 61q52 0 84 -25t66 -71q28 -40 52 -60t60 -20q100 0 112 172h54q-2 -112 -47 -173t-121 -61q-52 0 -84 25t-66 71q-28 40 -52 60t-60 20q-100 0 -112 -172h-54z" />
<glyph unicode="&#xd2;" horiz-adv-x="1408" d="M140 724q0 368 146 559t418 191t418 -191t146 -559t-146 -559t-418 -191t-418 191t-146 559zM214 724q0 -338 124 -511t366 -173t366 173t124 511t-124 511t-366 173t-366 -173t-124 -511zM398 1838v14h86l314 -276v-14h-70z" />
<glyph unicode="&#xd3;" horiz-adv-x="1408" d="M140 724q0 368 146 559t418 191t418 -191t146 -559t-146 -559t-418 -191t-418 191t-146 559zM214 724q0 -338 124 -511t366 -173t366 173t124 511t-124 511t-366 173t-366 -173t-124 -511zM608 1562v14l332 276h86v-14l-348 -276h-70z" />
<glyph unicode="&#xd4;" horiz-adv-x="1408" d="M140 724q0 368 146 559t418 191t418 -191t146 -559t-146 -559t-418 -191t-418 191t-146 559zM214 724q0 -338 124 -511t366 -173t366 173t124 511t-124 511t-366 173t-366 -173t-124 -511zM422 1562v14l248 276h68l248 -276v-14h-62l-220 234l-220 -234h-62z" />
<glyph unicode="&#xd5;" horiz-adv-x="1408" d="M140 724q0 368 146 559t418 191t418 -191t146 -559t-146 -559t-418 -191t-418 191t-146 559zM214 724q0 -338 124 -511t366 -173t366 173t124 511t-124 511t-366 173t-366 -173t-124 -511zM406 1584q2 112 47 173t121 61q52 0 84 -25t66 -71q28 -40 52 -60t60 -20 q100 0 112 172h54q-2 -112 -47 -173t-121 -61q-52 0 -84 25t-66 71q-28 40 -52 60t-60 20q-100 0 -112 -172h-54z" />
<glyph unicode="&#xd6;" horiz-adv-x="1408" d="M140 724q0 368 146 559t418 191t418 -191t146 -559t-146 -559t-418 -191t-418 191t-146 559zM214 724q0 -338 124 -511t366 -173t366 173t124 511t-124 511t-366 173t-366 -173t-124 -511zM460 1690q0 30 16 48t44 18t44 -17t16 -49q0 -30 -16 -48t-44 -18t-44 17t-16 49 zM828 1690q0 30 16 48t44 18t44 -17t16 -49q0 -30 -16 -48t-44 -18t-44 17t-16 49z" />
<glyph unicode="&#xd7;" horiz-adv-x="1130" d="M172 366l346 362l-346 362l48 48l346 -360l344 360l48 -48l-346 -362l346 -362l-48 -48l-344 360l-346 -360z" />
<glyph unicode="&#xd8;" horiz-adv-x="1408" d="M80 -6l174 216q-114 192 -114 514q0 368 146 559t418 191q270 0 414 -184l142 178h68v-14l-174 -216q114 -192 114 -514q0 -368 -146 -559t-418 -191q-270 0 -414 184l-142 -178h-68v14zM212 724q0 -284 90 -456l772 966q-128 176 -370 176t-367 -174t-125 -512zM334 214 q128 -176 370 -176t367 174t125 512q0 286 -90 456z" />
<glyph unicode="&#xd9;" horiz-adv-x="1352" d="M202 500v948h72v-944q0 -226 104 -345t298 -119t298 119t104 345v944h72v-948q0 -250 -124 -388t-350 -138t-350 138t-124 388zM370 1838v14h86l314 -276v-14h-70z" />
<glyph unicode="&#xda;" horiz-adv-x="1352" d="M202 500v948h72v-944q0 -226 104 -345t298 -119t298 119t104 345v944h72v-948q0 -250 -124 -388t-350 -138t-350 138t-124 388zM580 1562v14l332 276h86v-14l-348 -276h-70z" />
<glyph unicode="&#xdb;" horiz-adv-x="1352" d="M202 500v948h72v-944q0 -226 104 -345t298 -119t298 119t104 345v944h72v-948q0 -250 -124 -388t-350 -138t-350 138t-124 388zM394 1562v14l248 276h68l248 -276v-14h-62l-220 234l-220 -234h-62z" />
<glyph unicode="&#xdc;" horiz-adv-x="1352" d="M202 500v948h72v-944q0 -226 104 -345t298 -119t298 119t104 345v944h72v-948q0 -250 -124 -388t-350 -138t-350 138t-124 388zM432 1690q0 30 16 48t44 18t44 -17t16 -49q0 -30 -16 -48t-44 -18t-44 17t-16 49zM800 1690q0 30 16 48t44 18t44 -17t16 -49q0 -30 -16 -48 t-44 -18t-44 17t-16 49z" />
<glyph unicode="&#xdd;" horiz-adv-x="1156" d="M72 1448h76l430 -836l430 836h76l-470 -912v-536h-72v536zM480 1562v14l332 276h86v-14l-348 -276h-70z" />
<glyph unicode="&#xde;" horiz-adv-x="1208" d="M212 0v1448h70v-272h392q202 0 313 -113t111 -321q0 -210 -112 -325t-318 -115h-386v-302h-70zM282 368h392q170 0 260 95t90 275t-92 276t-264 96h-386v-742z" />
<glyph unicode="&#xdf;" horiz-adv-x="1160" d="M204 0v1124q0 204 96 315t274 111q158 0 244 -89t86 -253q0 -140 -65 -239t-195 -155q196 -28 303 -145t107 -301q0 -182 -102 -282t-290 -100q-120 0 -222 34l20 62q94 -32 202 -32q154 0 237 80t83 230q0 182 -119 285t-345 119v60q160 54 238 149t78 235 q0 134 -67 206t-191 72q-146 0 -224 -93t-78 -269v-1124h-70z" />
<glyph unicode="&#xe0;" horiz-adv-x="1024" d="M98 278q0 186 162 274t504 90v96q0 136 -68 205t-202 69q-132 0 -262 -66l-22 62q62 34 137 52t149 18q158 0 248 -86t90 -240v-752h-68v146q-144 -168 -346 -168q-152 0 -237 79t-85 221zM170 278q0 -110 67 -173t185 -63q96 0 179 43t163 131v366q-304 -2 -449 -76 t-145 -228zM280 1556v12h78l216 -326v-12h-62z" />
<glyph unicode="&#xe1;" horiz-adv-x="1024" d="M98 278q0 186 162 274t504 90v96q0 136 -68 205t-202 69q-132 0 -262 -66l-22 62q62 34 137 52t149 18q158 0 248 -86t90 -240v-752h-68v146q-144 -168 -346 -168q-152 0 -237 79t-85 221zM170 278q0 -110 67 -173t185 -63q96 0 179 43t163 131v366q-304 -2 -449 -76 t-145 -228zM410 1230v12l232 326h78v-12l-248 -326h-62z" />
<glyph unicode="&#xe2;" horiz-adv-x="1024" d="M98 278q0 186 162 274t504 90v96q0 136 -68 205t-202 69q-132 0 -262 -66l-22 62q62 34 137 52t149 18q158 0 248 -86t90 -240v-752h-68v146q-144 -168 -346 -168q-152 0 -237 79t-85 221zM170 278q0 -110 67 -173t185 -63q96 0 179 43t163 131v366q-304 -2 -449 -76 t-145 -228zM234 1230v12l218 326h68l218 -326v-12h-62l-190 278l-190 -278h-62z" />
<glyph unicode="&#xe3;" horiz-adv-x="1024" d="M98 278q0 186 162 274t504 90v96q0 136 -68 205t-202 69q-132 0 -262 -66l-22 62q62 34 137 52t149 18q158 0 248 -86t90 -240v-752h-68v146q-144 -168 -346 -168q-152 0 -237 79t-85 221zM170 278q0 -110 67 -173t185 -63q96 0 179 43t163 131v366q-304 -2 -449 -76 t-145 -228zM190 1244q2 112 47 173t121 61q52 0 84 -25t66 -71q28 -40 52 -60t60 -20q100 0 112 172h54q-2 -112 -47 -173t-121 -61q-52 0 -84 25t-66 71q-28 40 -52 60t-60 20q-100 0 -112 -172h-54z" />
<glyph unicode="&#xe4;" horiz-adv-x="1024" d="M98 278q0 186 162 274t504 90v96q0 136 -68 205t-202 69q-132 0 -262 -66l-22 62q62 34 137 52t149 18q158 0 248 -86t90 -240v-752h-68v146q-144 -168 -346 -168q-152 0 -237 79t-85 221zM170 278q0 -110 67 -173t185 -63q96 0 179 43t163 131v366q-304 -2 -449 -76 t-145 -228zM248 1350q0 30 16 48t44 18t44 -17t16 -49q0 -30 -16 -48t-44 -18t-44 17t-16 49zM608 1350q0 30 16 48t44 18t44 -17t16 -49q0 -30 -16 -48t-44 -18t-44 17t-16 49z" />
<glyph unicode="&#xe5;" horiz-adv-x="1024" d="M98 278q0 186 162 274t504 90v96q0 136 -68 205t-202 69q-132 0 -262 -66l-22 62q62 34 137 52t149 18q158 0 248 -86t90 -240v-752h-68v146q-144 -168 -346 -168q-152 0 -237 79t-85 221zM170 278q0 -110 67 -173t185 -63q96 0 179 43t163 131v366q-304 -2 -449 -76 t-145 -228zM298 1394q0 88 50 137t140 49t140 -49t50 -137t-50 -137t-140 -49t-140 49t-50 137zM360 1394q0 -128 128 -128t128 128t-128 128t-128 -128z" />
<glyph unicode="&#xe6;" horiz-adv-x="1640" d="M98 270q0 182 156 269t488 89v110q0 136 -65 205t-193 69q-126 0 -252 -66l-22 62q62 34 134 52t142 18q128 0 209 -62t103 -176q44 114 132 176t210 62q182 0 284 -133t102 -369q0 -24 -4 -52h-712q0 -226 96 -354t266 -128q158 0 274 90l30 -54q-56 -48 -136 -75 t-166 -27q-128 0 -222 57t-146 167q-92 -114 -188 -168t-208 -54q-148 0 -230 77t-82 215zM168 270q0 -108 64 -168t180 -60q104 0 190 50t180 166q-40 114 -40 266v44q-296 -2 -435 -74t-139 -224zM812 584h644v16q0 194 -85 304t-237 110q-146 0 -230 -111t-92 -319z" />
<glyph unicode="&#xe7;" horiz-adv-x="926" d="M118 546q0 160 52 280t147 186t221 66q72 0 149 -22t141 -62l-28 -56q-140 76 -264 76q-160 0 -253 -124t-93 -340q0 -248 93 -378t269 -130q140 0 258 74l30 -54q-56 -40 -133 -63t-157 -23h-16l-60 -120q32 8 54 8q84 0 131 -40t47 -112q0 -78 -52 -122t-144 -44 q-98 0 -174 44l20 50q76 -36 154 -36q134 0 134 106q0 98 -122 98q-52 0 -90 -18l-26 24l70 168q-170 28 -264 174t-94 390z" />
<glyph unicode="&#xe8;" horiz-adv-x="1044" d="M122 526q0 262 108 407t304 145q186 0 291 -133t105 -369q0 -24 -4 -52h-732q0 -232 98 -357t274 -125q160 0 284 90l30 -54q-58 -48 -139 -75t-173 -27q-212 0 -329 144t-117 406zM196 584h664v16q0 194 -88 304t-244 110q-152 0 -237 -110t-95 -320zM324 1556v12h78 l216 -326v-12h-62z" />
<glyph unicode="&#xe9;" horiz-adv-x="1044" d="M122 526q0 262 108 407t304 145q186 0 291 -133t105 -369q0 -24 -4 -52h-732q0 -232 98 -357t274 -125q160 0 284 90l30 -54q-58 -48 -139 -75t-173 -27q-212 0 -329 144t-117 406zM196 584h664v16q0 194 -88 304t-244 110q-152 0 -237 -110t-95 -320zM454 1230v12 l232 326h78v-12l-248 -326h-62z" />
<glyph unicode="&#xea;" horiz-adv-x="1044" d="M122 526q0 262 108 407t304 145q186 0 291 -133t105 -369q0 -24 -4 -52h-732q0 -232 98 -357t274 -125q160 0 284 90l30 -54q-58 -48 -139 -75t-173 -27q-212 0 -329 144t-117 406zM196 584h664v16q0 194 -88 304t-244 110q-152 0 -237 -110t-95 -320zM278 1230v12 l218 326h68l218 -326v-12h-62l-190 278l-190 -278h-62z" />
<glyph unicode="&#xeb;" horiz-adv-x="1044" d="M122 526q0 262 108 407t304 145q186 0 291 -133t105 -369q0 -24 -4 -52h-732q0 -232 98 -357t274 -125q160 0 284 90l30 -54q-58 -48 -139 -75t-173 -27q-212 0 -329 144t-117 406zM196 584h664v16q0 194 -88 304t-244 110q-152 0 -237 -110t-95 -320zM292 1350 q0 30 16 48t44 18t44 -17t16 -49q0 -30 -16 -48t-44 -18t-44 17t-16 49zM652 1350q0 30 16 48t44 18t44 -17t16 -49q0 -30 -16 -48t-44 -18t-44 17t-16 49z" />
<glyph unicode="&#xec;" horiz-adv-x="486" d="M36 1556v12h78l216 -326v-12h-62zM208 0v1052h70v-1052h-70z" />
<glyph unicode="&#xed;" horiz-adv-x="486" d="M166 1230v12l232 326h78v-12l-248 -326h-62zM208 0v1052h70v-1052h-70z" />
<glyph unicode="&#xee;" horiz-adv-x="486" d="M-10 1230v12l218 326h68l218 -326v-12h-62l-190 278l-190 -278h-62zM208 0v1052h70v-1052h-70z" />
<glyph unicode="&#xef;" horiz-adv-x="486" d="M32 1350q0 30 16 48t44 18t44 -17t16 -49q0 -30 -16 -48t-44 -18t-44 17t-16 49zM208 0v1052h70v-1052h-70zM336 1350q0 30 16 48t44 18t44 -17t16 -49q0 -30 -16 -48t-44 -18t-44 17t-16 49z" />
<glyph unicode="&#xf0;" horiz-adv-x="1078" d="M116 506q0 270 104 411t296 141q122 0 214 -59t138 -165q-60 328 -292 508l-268 -178l-30 48l250 164q-112 68 -228 102l-40 12l16 58l40 -12q148 -44 270 -122l180 120l30 -48l-162 -106q162 -126 240 -328t78 -490q0 -290 -107 -439t-313 -149q-200 0 -308 136 t-108 396zM188 506q0 -230 87 -349t257 -119q172 0 260 119t88 349t-92 359t-256 129q-170 0 -257 -124t-87 -364z" />
<glyph unicode="&#xf1;" horiz-adv-x="1128" d="M204 0v1052h68v-138q74 80 164 122t188 42q146 0 228 -86t82 -240v-752h-70v740q0 134 -63 203t-185 69q-90 0 -173 -40t-169 -124v-848h-70zM272 1244q2 112 47 173t121 61q52 0 84 -25t66 -71q28 -40 52 -60t60 -20q100 0 112 172h54q-2 -112 -47 -173t-121 -61 q-52 0 -84 25t-66 71q-28 40 -52 60t-60 20q-100 0 -112 -172h-54z" />
<glyph unicode="&#xf2;" horiz-adv-x="1078" d="M126 526q0 270 107 411t307 141q198 0 305 -141t107 -411t-107 -411t-307 -141q-198 0 -305 141t-107 411zM198 526q0 -240 86 -364t254 -124t255 124t87 364t-86 364t-254 124t-255 -124t-87 -364zM332 1556v12h78l216 -326v-12h-62z" />
<glyph unicode="&#xf3;" horiz-adv-x="1078" d="M126 526q0 270 107 411t307 141q198 0 305 -141t107 -411t-107 -411t-307 -141q-198 0 -305 141t-107 411zM198 526q0 -240 86 -364t254 -124t255 124t87 364t-86 364t-254 124t-255 -124t-87 -364zM462 1230v12l232 326h78v-12l-248 -326h-62z" />
<glyph unicode="&#xf4;" horiz-adv-x="1078" d="M126 526q0 270 107 411t307 141q198 0 305 -141t107 -411t-107 -411t-307 -141q-198 0 -305 141t-107 411zM198 526q0 -240 86 -364t254 -124t255 124t87 364t-86 364t-254 124t-255 -124t-87 -364zM286 1230v12l218 326h68l218 -326v-12h-62l-190 278l-190 -278h-62z " />
<glyph unicode="&#xf5;" horiz-adv-x="1078" d="M126 526q0 270 107 411t307 141q198 0 305 -141t107 -411t-107 -411t-307 -141q-198 0 -305 141t-107 411zM198 526q0 -240 86 -364t254 -124t255 124t87 364t-86 364t-254 124t-255 -124t-87 -364zM242 1244q2 112 47 173t121 61q52 0 84 -25t66 -71q28 -40 52 -60 t60 -20q100 0 112 172h54q-2 -112 -47 -173t-121 -61q-52 0 -84 25t-66 71q-28 40 -52 60t-60 20q-100 0 -112 -172h-54z" />
<glyph unicode="&#xf6;" horiz-adv-x="1078" d="M126 526q0 270 107 411t307 141q198 0 305 -141t107 -411t-107 -411t-307 -141q-198 0 -305 141t-107 411zM198 526q0 -240 86 -364t254 -124t255 124t87 364t-86 364t-254 124t-255 -124t-87 -364zM300 1350q0 30 16 48t44 18t44 -17t16 -49q0 -30 -16 -48t-44 -18 t-44 17t-16 49zM660 1350q0 30 16 48t44 18t44 -17t16 -49q0 -30 -16 -48t-44 -18t-44 17t-16 49z" />
<glyph unicode="&#xf7;" horiz-adv-x="1110" d="M160 696v66h790v-66h-790zM486 390q0 32 19 51t51 19t51 -19t19 -51t-19 -51t-51 -19t-51 19t-19 51zM486 1066q0 32 19 51t51 19t51 -19t19 -51t-19 -51t-51 -19t-51 19t-19 51z" />
<glyph unicode="&#xf8;" horiz-adv-x="1078" d="M66 -8l138 170q-78 136 -78 364q0 270 107 411t307 141q190 0 296 -130l110 140h66v-12l-142 -176q82 -136 82 -374q0 -270 -107 -411t-307 -141q-196 0 -302 138l-104 -132h-66v12zM196 526q0 -190 54 -308l542 678q-84 120 -252 120q-170 0 -257 -124t-87 -366z M280 166q88 -130 258 -130t257 124t87 366q0 196 -58 318z" />
<glyph unicode="&#xf9;" horiz-adv-x="1112" d="M190 300v752h70v-740q0 -134 61 -203t181 -69q92 0 174 43t162 131v838h70v-1052h-68v146q-148 -172 -346 -172q-144 0 -224 86t-80 240zM342 1556v12h78l216 -326v-12h-62z" />
<glyph unicode="&#xfa;" horiz-adv-x="1112" d="M190 300v752h70v-740q0 -134 61 -203t181 -69q92 0 174 43t162 131v838h70v-1052h-68v146q-148 -172 -346 -172q-144 0 -224 86t-80 240zM472 1230v12l232 326h78v-12l-248 -326h-62z" />
<glyph unicode="&#xfb;" horiz-adv-x="1112" d="M190 300v752h70v-740q0 -134 61 -203t181 -69q92 0 174 43t162 131v838h70v-1052h-68v146q-148 -172 -346 -172q-144 0 -224 86t-80 240zM296 1230v12l218 326h68l218 -326v-12h-62l-190 278l-190 -278h-62z" />
<glyph unicode="&#xfc;" horiz-adv-x="1112" d="M190 300v752h70v-740q0 -134 61 -203t181 -69q92 0 174 43t162 131v838h70v-1052h-68v146q-148 -172 -346 -172q-144 0 -224 86t-80 240zM310 1350q0 30 16 48t44 18t44 -17t16 -49q0 -30 -16 -48t-44 -18t-44 17t-16 49zM670 1350q0 30 16 48t44 18t44 -17t16 -49 q0 -30 -16 -48t-44 -18t-44 17t-16 49z" />
<glyph unicode="&#xfd;" horiz-adv-x="998" d="M96 -370q132 44 223 132t147 230l-370 1060h74l330 -972l328 972h74l-370 -1068q-54 -158 -159 -265t-253 -153zM426 1230v12l232 326h78v-12l-248 -326h-62z" />
<glyph unicode="&#xfe;" horiz-adv-x="1118" d="M204 -414v1400v554h70v-642q134 180 332 180q184 0 285 -145t101 -409q0 -262 -101 -406t-287 -144q-100 0 -186 44t-144 124v-556h-70zM274 222q58 -86 146 -134t186 -48q152 0 233 123t81 357q0 240 -83 366t-237 126q-94 0 -173 -45t-153 -141v-604z" />
<glyph unicode="&#xff;" horiz-adv-x="998" d="M96 -370q132 44 223 132t147 230l-370 1060h74l330 -972l328 972h74l-370 -1068q-54 -158 -159 -265t-253 -153zM264 1350q0 30 16 48t44 18t44 -17t16 -49q0 -30 -16 -48t-44 -18t-44 17t-16 49zM624 1350q0 30 16 48t44 18t44 -17t16 -49q0 -30 -16 -48t-44 -18t-44 17 t-16 49z" />
<glyph unicode="&#x100;" horiz-adv-x="1316" d="M80 0l534 1448h88l534 -1448h-76l-158 430h-690l-158 -430h-74zM336 496h642l-320 876zM402 1650v62h512v-62h-512z" />
<glyph unicode="&#x101;" horiz-adv-x="1024" d="M98 278q0 186 162 274t504 90v96q0 136 -68 205t-202 69q-132 0 -262 -66l-22 62q62 34 137 52t149 18q158 0 248 -86t90 -240v-752h-68v146q-144 -168 -346 -168q-152 0 -237 79t-85 221zM170 278q0 -110 67 -173t185 -63q96 0 179 43t163 131v366q-304 -2 -449 -76 t-145 -228zM232 1310v62h512v-62h-512z" />
<glyph unicode="&#x102;" horiz-adv-x="1316" d="M80 0l534 1448h88l534 -1448h-76l-158 430h-690l-158 -430h-74zM336 496h642l-320 876zM406 1844h58q12 -90 62 -136t134 -46q82 0 131 46t61 136h58q-6 -116 -73 -180t-179 -64t-179 64t-73 180z" />
<glyph unicode="&#x103;" horiz-adv-x="1024" d="M98 278q0 186 162 274t504 90v96q0 136 -68 205t-202 69q-132 0 -262 -66l-22 62q62 34 137 52t149 18q158 0 248 -86t90 -240v-752h-68v146q-144 -168 -346 -168q-152 0 -237 79t-85 221zM170 278q0 -110 67 -173t185 -63q96 0 179 43t163 131v366q-304 -2 -449 -76 t-145 -228zM236 1504h58q12 -90 62 -136t134 -46q82 0 131 46t61 136h58q-6 -116 -73 -180t-179 -64t-179 64t-73 180z" />
<glyph unicode="&#x104;" horiz-adv-x="1316" d="M80 0l534 1448h88l534 -1448q-90 -58 -138 -125t-48 -135q0 -56 31 -86t89 -30q70 0 138 42l24 -46q-72 -54 -170 -54q-84 0 -130 42t-46 120q0 74 45 145t127 129l-156 428h-690l-158 -430h-74zM336 496h642l-320 876z" />
<glyph unicode="&#x105;" horiz-adv-x="1024" d="M98 278q0 188 162 278t504 92v90q0 136 -68 205t-202 69q-132 0 -262 -66l-22 62q62 34 137 52t149 18q158 0 248 -86t90 -240v-752q-90 -58 -138 -125t-48 -135q0 -56 31 -86t89 -30q70 0 138 42l24 -46q-72 -54 -170 -54q-84 0 -130 42t-46 120q0 76 47 149t135 131 v140q-82 -88 -165 -129t-181 -41q-152 0 -237 79t-85 221zM168 270q0 -112 65 -170t189 -58q96 0 179 43t163 131v372q-306 -2 -451 -79t-145 -239z" />
<glyph unicode="&#x106;" horiz-adv-x="1182" d="M120 702q0 234 73 409t208 269t317 94q88 0 182 -24t174 -68l-28 -58q-164 84 -332 84q-156 0 -274 -86t-182 -244t-64 -368q0 -318 143 -492t403 -174q186 0 316 76l30 -56q-62 -42 -154 -65t-194 -23q-300 0 -459 188t-159 538zM598 1562v14l332 276h86v-14l-348 -276 h-70z" />
<glyph unicode="&#x107;" horiz-adv-x="926" d="M118 546q0 160 52 280t147 186t221 66q72 0 149 -22t141 -62l-28 -56q-140 76 -264 76q-160 0 -253 -124t-93 -340q0 -248 93 -378t269 -130q140 0 258 74l30 -54q-56 -40 -133 -63t-157 -23q-204 0 -318 150t-114 420zM434 1230v12l232 326h78v-12l-248 -326h-62z" />
<glyph unicode="&#x108;" horiz-adv-x="1182" d="M120 702q0 234 73 409t208 269t317 94q88 0 182 -24t174 -68l-28 -58q-164 84 -332 84q-156 0 -274 -86t-182 -244t-64 -368q0 -318 143 -492t403 -174q186 0 316 76l30 -56q-62 -42 -154 -65t-194 -23q-300 0 -459 188t-159 538zM412 1562v14l248 276h68l248 -276v-14 h-62l-220 234l-220 -234h-62z" />
<glyph unicode="&#x109;" horiz-adv-x="926" d="M118 546q0 160 52 280t147 186t221 66q72 0 149 -22t141 -62l-28 -56q-140 76 -264 76q-160 0 -253 -124t-93 -340q0 -248 93 -378t269 -130q140 0 258 74l30 -54q-56 -40 -133 -63t-157 -23q-204 0 -318 150t-114 420zM258 1230v12l218 326h68l218 -326v-12h-62 l-190 278l-190 -278h-62z" />
<glyph unicode="&#x10a;" horiz-adv-x="1182" d="M120 702q0 234 73 409t208 269t317 94q88 0 182 -24t174 -68l-28 -58q-164 84 -332 84q-156 0 -274 -86t-182 -244t-64 -368q0 -318 143 -492t403 -174q186 0 316 76l30 -56q-62 -42 -154 -65t-194 -23q-300 0 -459 188t-159 538zM632 1690q0 32 17 50t45 18t45 -17 t17 -49t-17 -50t-45 -18t-45 17t-17 49z" />
<glyph unicode="&#x10b;" horiz-adv-x="926" d="M118 546q0 160 52 280t147 186t221 66q72 0 149 -22t141 -62l-28 -56q-140 76 -264 76q-160 0 -253 -124t-93 -340q0 -248 93 -378t269 -130q140 0 258 74l30 -54q-56 -40 -133 -63t-157 -23q-204 0 -318 150t-114 420zM450 1350q0 32 17 50t45 18t45 -17t17 -49t-17 -50 t-45 -18t-45 17t-17 49z" />
<glyph unicode="&#x10c;" horiz-adv-x="1182" d="M120 702q0 234 73 409t208 269t317 94q88 0 182 -24t174 -68l-28 -58q-164 84 -332 84q-156 0 -274 -86t-182 -244t-64 -368q0 -318 143 -492t403 -174q186 0 316 76l30 -56q-62 -42 -154 -65t-194 -23q-300 0 -459 188t-159 538zM412 1838v14h62l220 -234l220 234h62 v-14l-248 -276h-68z" />
<glyph unicode="&#x10d;" horiz-adv-x="926" d="M118 546q0 160 52 280t147 186t221 66q72 0 149 -22t141 -62l-28 -56q-140 76 -264 76q-160 0 -253 -124t-93 -340q0 -248 93 -378t269 -130q140 0 258 74l30 -54q-56 -40 -133 -63t-157 -23q-204 0 -318 150t-114 420zM260 1556v12h62l190 -278l190 278h62v-12 l-218 -326h-68z" />
<glyph unicode="&#x10e;" horiz-adv-x="1362" d="M212 0v1448h362q308 0 478 -189t170 -531q0 -346 -173 -537t-487 -191h-350zM284 66h290q280 0 427 168t147 488q0 322 -150 491t-436 169h-278v-1316zM386 1838v14h62l220 -234l220 234h62v-14l-248 -276h-68z" />
<glyph unicode="&#x10f;" horiz-adv-x="1118" d="M126 530q0 262 101 406t287 144q100 0 186 -44t144 -124v628h70v-1472v-68h-68v158q-134 -182 -334 -182q-184 0 -285 145t-101 409zM198 534q0 -240 83 -366t237 -126q94 0 173 45t153 141v604q-58 86 -146 134t-186 48q-152 0 -233 -123t-81 -357zM1108 1120v420h70 v-12l-18 -408h-52z" />
<glyph unicode="&#x110;" horiz-adv-x="1362" d="M76 700v66h136v682h362q308 0 478 -189t170 -531q0 -346 -173 -537t-487 -191h-350v700h-136zM284 66h290q280 0 427 168t147 488q0 322 -150 491t-436 169h-278v-616h434v-66h-434v-634z" />
<glyph unicode="&#x111;" horiz-adv-x="1120" d="M126 522q0 258 101 400t289 142q100 0 186 -44t144 -124v372h-474v58h474v214h70v-214h136v-58h-136v-1268h-68v158q-134 -182 -334 -182q-186 0 -287 142t-101 404zM198 526q0 -234 83 -359t239 -125q94 0 173 45t153 141v588q-58 86 -146 134t-186 48q-154 0 -235 -121 t-81 -351z" />
<glyph unicode="&#x112;" horiz-adv-x="1132" d="M212 0v1448h788v-66h-716v-608h548v-66h-548v-642h740v-66h-812zM362 1650v62h512v-62h-512z" />
<glyph unicode="&#x113;" horiz-adv-x="1044" d="M122 526q0 262 108 407t304 145q186 0 291 -133t105 -369q0 -24 -4 -52h-732q0 -232 98 -357t274 -125q160 0 284 90l30 -54q-58 -48 -139 -75t-173 -27q-212 0 -329 144t-117 406zM196 584h664v16q0 194 -88 304t-244 110q-152 0 -237 -110t-95 -320zM276 1310v62h512 v-62h-512z" />
<glyph unicode="&#x114;" horiz-adv-x="1132" d="M212 0v1448h788v-66h-716v-608h548v-66h-548v-642h740v-66h-812zM366 1844h58q12 -90 62 -136t134 -46q82 0 131 46t61 136h58q-6 -116 -73 -180t-179 -64t-179 64t-73 180z" />
<glyph unicode="&#x115;" horiz-adv-x="1044" d="M122 526q0 262 108 407t304 145q186 0 291 -133t105 -369q0 -24 -4 -52h-732q0 -232 98 -357t274 -125q160 0 284 90l30 -54q-58 -48 -139 -75t-173 -27q-212 0 -329 144t-117 406zM196 584h664v16q0 194 -88 304t-244 110q-152 0 -237 -110t-95 -320zM280 1504h58 q12 -90 62 -136t134 -46q82 0 131 46t61 136h58q-6 -116 -73 -180t-179 -64t-179 64t-73 180z" />
<glyph unicode="&#x116;" horiz-adv-x="1132" d="M212 0v1448h788v-66h-716v-608h548v-66h-548v-642h740v-66h-812zM556 1690q0 32 17 50t45 18t45 -17t17 -49t-17 -50t-45 -18t-45 17t-17 49z" />
<glyph unicode="&#x117;" horiz-adv-x="1044" d="M122 526q0 262 108 407t304 145q186 0 291 -133t105 -369q0 -24 -4 -52h-732q0 -232 98 -357t274 -125q160 0 284 90l30 -54q-58 -48 -139 -75t-173 -27q-212 0 -329 144t-117 406zM196 584h664v16q0 194 -88 304t-244 110q-152 0 -237 -110t-95 -320zM470 1350 q0 32 17 50t45 18t45 -17t17 -49t-17 -50t-45 -18t-45 17t-17 49z" />
<glyph unicode="&#x118;" horiz-adv-x="1132" d="M212 0v1448h788v-66h-716v-608h548v-66h-548v-642h740v-66q-90 -58 -138 -125t-48 -135q0 -56 31 -86t89 -30q70 0 138 42l24 -46q-72 -54 -170 -54q-84 0 -130 42t-46 120q0 74 44 144t126 128h-732z" />
<glyph unicode="&#x119;" horiz-adv-x="1044" d="M122 526q0 262 108 407t304 145q186 0 291 -133t105 -369q0 -24 -4 -52h-732q2 -230 98 -356t274 -126q160 0 284 90l30 -54q-24 -18 -76 -48q-100 -62 -157 -139t-57 -151q0 -56 31 -86t89 -30q68 0 138 42l24 -46q-72 -54 -170 -54q-84 0 -130 42t-46 120 q0 142 136 256q-42 -8 -94 -8q-210 0 -328 145t-118 405zM196 584h664v16q0 194 -88 304t-244 110q-152 0 -237 -111t-95 -319z" />
<glyph unicode="&#x11a;" horiz-adv-x="1132" d="M212 0v1448h788v-66h-716v-608h548v-66h-548v-642h740v-66h-812zM336 1838v14h62l220 -234l220 234h62v-14l-248 -276h-68z" />
<glyph unicode="&#x11b;" horiz-adv-x="1044" d="M122 526q0 262 108 407t304 145q186 0 291 -133t105 -369q0 -24 -4 -52h-732q0 -232 98 -357t274 -125q160 0 284 90l30 -54q-58 -48 -139 -75t-173 -27q-212 0 -329 144t-117 406zM196 584h664v16q0 194 -88 304t-244 110q-152 0 -237 -110t-95 -320zM280 1556v12h62 l190 -278l190 278h62v-12l-218 -326h-68z" />
<glyph unicode="&#x11c;" horiz-adv-x="1320" d="M140 724q0 358 161 554t453 196q98 0 193 -23t167 -65l-26 -58q-156 78 -336 78q-262 0 -400 -175t-138 -507q0 -334 139 -509t401 -175q164 0 322 64v542h-288v66h360v-642q-82 -46 -186 -71t-208 -25q-292 0 -453 196t-161 554zM428 1562v14l248 276h68l248 -276v-14 h-62l-220 234l-220 -234h-62z" />
<glyph unicode="&#x11d;" horiz-adv-x="1122" d="M126 548q0 250 104 390t288 140q100 0 187 -45t145 -127v146h68v-1056q0 -202 -113 -311t-319 -109q-72 0 -142 15t-118 41l22 62q108 -52 244 -52q172 0 264 90t92 260v202q-134 -180 -332 -180q-184 0 -287 141t-103 393zM198 552q0 -232 83 -352t241 -120q94 0 173 45 t153 141v564q-58 86 -146 134t-186 48q-156 0 -237 -117t-81 -343zM300 1230v12l218 326h68l218 -326v-12h-62l-190 278l-190 -278h-62z" />
<glyph unicode="&#x11e;" horiz-adv-x="1320" d="M140 724q0 358 161 554t453 196q98 0 193 -23t167 -65l-26 -58q-156 78 -336 78q-262 0 -400 -175t-138 -507q0 -334 139 -509t401 -175q164 0 322 64v542h-288v66h360v-642q-82 -46 -186 -71t-208 -25q-292 0 -453 196t-161 554zM458 1844h58q12 -90 62 -136t134 -46 q82 0 131 46t61 136h58q-6 -116 -73 -180t-179 -64t-179 64t-73 180z" />
<glyph unicode="&#x11f;" horiz-adv-x="1122" d="M126 548q0 250 104 390t288 140q100 0 187 -45t145 -127v146h68v-1056q0 -202 -113 -311t-319 -109q-72 0 -142 15t-118 41l22 62q108 -52 244 -52q172 0 264 90t92 260v202q-134 -180 -332 -180q-184 0 -287 141t-103 393zM198 552q0 -232 83 -352t241 -120q94 0 173 45 t153 141v564q-58 86 -146 134t-186 48q-156 0 -237 -117t-81 -343zM302 1504h58q12 -90 62 -136t134 -46q82 0 131 46t61 136h58q-6 -116 -73 -180t-179 -64t-179 64t-73 180z" />
<glyph unicode="&#x120;" horiz-adv-x="1320" d="M140 724q0 358 161 554t453 196q98 0 193 -23t167 -65l-26 -58q-156 78 -336 78q-262 0 -400 -175t-138 -507q0 -334 139 -509t401 -175q164 0 322 64v542h-288v66h360v-642q-82 -46 -186 -71t-208 -25q-292 0 -453 196t-161 554zM648 1690q0 32 17 50t45 18t45 -17 t17 -49t-17 -50t-45 -18t-45 17t-17 49z" />
<glyph unicode="&#x121;" horiz-adv-x="1122" d="M126 548q0 250 104 390t288 140q100 0 187 -45t145 -127v146h68v-1056q0 -202 -113 -311t-319 -109q-72 0 -142 15t-118 41l22 62q108 -52 244 -52q172 0 264 90t92 260v202q-134 -180 -332 -180q-184 0 -287 141t-103 393zM198 552q0 -232 83 -352t241 -120q94 0 173 45 t153 141v564q-58 86 -146 134t-186 48q-156 0 -237 -117t-81 -343zM492 1350q0 32 17 50t45 18t45 -17t17 -49t-17 -50t-45 -18t-45 17t-17 49z" />
<glyph unicode="&#x122;" horiz-adv-x="1320" d="M140 724q0 358 161 554t453 196q98 0 193 -23t167 -65l-26 -58q-156 78 -336 78q-262 0 -400 -175t-138 -507q0 -334 139 -509t401 -175q164 0 322 64v542h-288v66h360v-642q-82 -46 -186 -71t-208 -25q-292 0 -453 196t-161 554zM570 -502q58 56 82 112t24 140 q0 32 -4 68h70q4 -36 4 -66q0 -92 -34 -160t-110 -130z" />
<glyph unicode="&#x123;" horiz-adv-x="1122" d="M126 548q0 250 104 390t288 140q100 0 187 -45t145 -127v146h68v-1056q0 -202 -113 -311t-319 -109q-72 0 -142 15t-118 41l22 62q108 -52 244 -52q172 0 264 90t92 260v202q-134 -180 -332 -180q-184 0 -287 141t-103 393zM198 552q0 -232 83 -352t241 -120q94 0 173 45 t153 141v564q-58 86 -146 134t-186 48q-156 0 -237 -117t-81 -343zM514 1316q0 92 34 160t110 130l32 -36q-58 -56 -82 -112t-24 -140q0 -32 4 -68h-70q-4 36 -4 66z" />
<glyph unicode="&#x124;" horiz-adv-x="1384" d="M212 0v1448h72v-680h816v680h72v-1448h-72v702h-816v-702h-72zM410 1562v14l248 276h68l248 -276v-14h-62l-220 234l-220 -234h-62z" />
<glyph unicode="&#x125;" horiz-adv-x="1132" d="M-40 1654v14l248 276h68l248 -276v-14h-62l-220 234l-220 -234h-62zM204 0v1540h70v-624q152 162 352 162q146 0 229 -86t83 -240v-752h-70v740q0 134 -64 203t-186 69q-92 0 -175 -40t-169 -124v-848h-70z" />
<glyph unicode="&#x126;" horiz-adv-x="1384" d="M74 1082v62h138v304h72v-304h816v304h72v-304h138v-62h-138v-1082h-72v702h-816v-702h-72v1082h-138zM284 768h816v314h-816v-314z" />
<glyph unicode="&#x127;" horiz-adv-x="1126" d="M60 1268v58h136v214h70v-214h468v-58h-468v-368q152 162 352 162q148 0 231 -86t83 -240v-736h-70v724q0 134 -64 203t-188 69q-92 0 -175 -40t-169 -124v-832h-70v1268h-136z" />
<glyph unicode="&#x128;" horiz-adv-x="504" d="M-16 1584q0 110 41 172t115 62q50 0 78 -25t60 -73q24 -38 44 -58t50 -20q88 0 94 172h54q0 -110 -41 -172t-115 -62q-50 0 -78 25t-60 73q-24 38 -44 58t-50 20q-88 0 -94 -172h-54zM216 0v1448h72v-1448h-72z" />
<glyph unicode="&#x129;" horiz-adv-x="486" d="M-24 1244q0 110 41 172t115 62q50 0 78 -25t60 -73q24 -38 44 -58t50 -20q88 0 94 172h54q0 -110 -41 -172t-115 -62q-50 0 -78 25t-60 73q-24 38 -44 58t-50 20q-88 0 -94 -172h-54zM208 0v1052h70v-1052h-70z" />
<glyph unicode="&#x12a;" horiz-adv-x="504" d="M-4 1650v62h512v-62h-512zM216 0v1448h72v-1448h-72z" />
<glyph unicode="&#x12b;" horiz-adv-x="486" d="M44 1310v62h400v-62h-400zM208 0v1052h70v-1052h-70z" />
<glyph unicode="&#x12c;" horiz-adv-x="504" d="M0 1844h58q12 -90 62 -136t134 -46q82 0 131 46t61 136h58q-6 -116 -73 -180t-179 -64t-179 64t-73 180zM216 0v1448h72v-1448h-72z" />
<glyph unicode="&#x12d;" horiz-adv-x="486" d="M-8 1504h58q12 -90 62 -136t134 -46q82 0 131 46t61 136h58q-6 -116 -73 -180t-179 -64t-179 64t-73 180zM208 0v1052h70v-1052h-70z" />
<glyph unicode="&#x12e;" horiz-adv-x="504" d="M84 -272q0 68 34 139t98 133v1448h72v-1448q-140 -136 -140 -260q0 -56 31 -86t89 -30q70 0 138 42l24 -46q-72 -54 -170 -54q-84 0 -130 42t-46 120z" />
<glyph unicode="&#x12f;" horiz-adv-x="486" d="M74 -272q0 68 35 140t99 134v1050h70v-1052q-140 -136 -140 -260q0 -56 31 -86t89 -30q70 0 138 42l24 -46q-72 -54 -170 -54q-84 0 -130 42t-46 120zM182 1350q0 32 17 50t45 18t45 -17t17 -49t-17 -50t-45 -18t-45 17t-17 49z" />
<glyph unicode="&#x130;" horiz-adv-x="504" d="M190 1690q0 32 17 50t45 18t45 -17t17 -49t-17 -50t-45 -18t-45 17t-17 49zM216 0v1448h72v-1448h-72z" />
<glyph unicode="&#x131;" horiz-adv-x="486" d="M208 0v1052h70v-1052h-70z" />
<glyph unicode="&#x132;" horiz-adv-x="1202" d="M212 0v1448h72v-1448h-72zM470 34l24 58q114 -52 216 -52q118 0 181 80t63 230v1098h72v-1102q0 -178 -82 -275t-234 -97q-62 0 -126 16t-114 44z" />
<glyph unicode="&#x133;" horiz-adv-x="972" d="M182 1350q0 32 17 50t45 18t45 -17t17 -49t-17 -50t-45 -18t-45 17t-17 49zM208 0v1052h70v-1052h-70zM442 -376q100 32 153 80t76 128t23 214v1006h70v-1006q0 -152 -27 -242t-91 -146t-182 -94zM668 1350q0 32 17 50t45 18t45 -17t17 -49t-17 -50t-45 -18t-45 17 t-17 49z" />
<glyph unicode="&#x134;" horiz-adv-x="868" d="M36 60l30 56q112 -76 250 -76q136 0 207 79t71 231v1098h72v-1102q0 -176 -92 -274t-258 -98q-78 0 -152 23t-128 63zM344 1562v14l248 276h68l248 -276v-14h-62l-220 234l-220 -234h-62z" />
<glyph unicode="&#x135;" horiz-adv-x="486" d="M-44 -376q100 32 153 80t76 128t23 214v1006h70v-1006q0 -152 -27 -242t-91 -146t-182 -94zM-10 1230v12l218 326h68l218 -326v-12h-62l-190 278l-190 -278h-62z" />
<glyph unicode="&#x136;" horiz-adv-x="1216" d="M212 0v1448h72v-882l788 882h86l-572 -640l586 -808h-86l-548 754l-254 -284v-470h-72zM524 -502q58 56 82 112t24 140q0 32 -4 68h70q4 -36 4 -66q0 -92 -34 -160t-110 -130z" />
<glyph unicode="&#x137;" horiz-adv-x="1036" d="M204 0v1540h70v-1108l584 620h84l-432 -456l454 -596h-84l-416 546l-190 -200v-346h-70zM420 -502q58 56 82 112t24 140q0 32 -4 68h70q4 -36 4 -66q0 -92 -34 -160t-110 -130z" />
<glyph unicode="&#x138;" horiz-adv-x="1036" d="M204 0v1052h70v-620l584 620h84l-432 -456l454 -596h-84l-416 546l-190 -200v-346h-70z" />
<glyph unicode="&#x139;" horiz-adv-x="1038" d="M212 0v1448h72v-1382h678v-66h-750zM214 1562v14l332 276h86v-14l-348 -276h-70z" />
<glyph unicode="&#x13a;" horiz-adv-x="540" d="M146 1654v14l332 276h86v-14l-348 -276h-70zM200 152v1388h70v-1382q0 -54 25 -80t79 -26q32 0 72 8l10 -58q-48 -12 -94 -12q-80 0 -121 41t-41 121z" />
<glyph unicode="&#x13b;" horiz-adv-x="1038" d="M212 0v1448h72v-1382h678v-66h-750zM452 -502q58 56 82 112t24 140q0 32 -4 68h70q4 -36 4 -66q0 -92 -34 -160t-110 -130z" />
<glyph unicode="&#x13c;" horiz-adv-x="540" d="M178 -502q58 56 82 112t24 140q0 32 -4 68h70q4 -36 4 -66q0 -92 -34 -160t-110 -130zM200 152v1388h70v-1382q0 -54 25 -80t79 -26q32 0 72 8l10 -58q-48 -12 -94 -12q-80 0 -121 41t-41 121z" />
<glyph unicode="&#x13d;" horiz-adv-x="1038" d="M212 0v1448h72v-1382h678v-66h-750zM586 1120v420h70v-12l-18 -408h-52z" />
<glyph unicode="&#x13e;" horiz-adv-x="544" d="M200 152v1388h70v-1382q0 -54 25 -80t79 -26q32 0 72 8l10 -58q-48 -12 -94 -12q-80 0 -121 41t-41 121zM482 1120v420h70v-12l-18 -408h-52z" />
<glyph unicode="&#x13f;" horiz-adv-x="1038" d="M212 0v1448h72v-1382h678v-66h-750zM692 764q0 32 17 50t45 18t45 -17t17 -49t-17 -50t-45 -18t-45 17t-17 49z" />
<glyph unicode="&#x140;" horiz-adv-x="620" d="M200 152v1388h70v-1382q0 -54 25 -80t79 -26q32 0 72 8l10 -58q-48 -12 -94 -12q-80 0 -121 41t-41 121zM482 768q0 32 17 50t45 18t45 -17t17 -49t-17 -50t-45 -18t-45 17t-17 49z" />
<glyph unicode="&#x141;" horiz-adv-x="1046" d="M84 498v68l136 84v798h72v-752l478 300h14v-68l-492 -306v-556h678v-66h-750v576l-122 -78h-14z" />
<glyph unicode="&#x142;" horiz-adv-x="640" d="M76 628v66l172 136v710h70v-654l204 166h12v-66l-216 -172v-656q0 -54 25 -80t79 -26q32 0 72 8l10 -58q-48 -12 -94 -12q-80 0 -121 41t-41 121v606l-160 -130h-12z" />
<glyph unicode="&#x143;" horiz-adv-x="1428" d="M212 0v1448h68l868 -1328v1328h68v-1448h-68l-868 1328v-1328h-68zM618 1562v14l332 276h86v-14l-348 -276h-70z" />
<glyph unicode="&#x144;" horiz-adv-x="1128" d="M204 0v1052h68v-138q74 80 164 122t188 42q146 0 228 -86t82 -240v-752h-70v740q0 134 -63 203t-185 69q-90 0 -173 -40t-169 -124v-848h-70zM492 1230v12l232 326h78v-12l-248 -326h-62z" />
<glyph unicode="&#x145;" horiz-adv-x="1428" d="M212 0v1448h68l868 -1328v1328h68v-1448h-68l-868 1328v-1328h-68zM574 -502q58 56 82 112t24 140q0 32 -4 68h70q4 -36 4 -66q0 -92 -34 -160t-110 -130z" />
<glyph unicode="&#x146;" horiz-adv-x="1128" d="M204 0v1052h68v-138q74 80 164 122t188 42q146 0 228 -86t82 -240v-752h-70v740q0 134 -63 203t-185 69q-90 0 -173 -40t-169 -124v-848h-70zM432 -502q58 56 82 112t24 140q0 32 -4 68h70q4 -36 4 -66q0 -92 -34 -160t-110 -130z" />
<glyph unicode="&#x147;" horiz-adv-x="1428" d="M212 0v1448h68l868 -1328v1328h68v-1448h-68l-868 1328v-1328h-68zM432 1838v14h62l220 -234l220 234h62v-14l-248 -276h-68z" />
<glyph unicode="&#x148;" horiz-adv-x="1128" d="M204 0v1052h68v-138q74 80 164 122t188 42q146 0 228 -86t82 -240v-752h-70v740q0 134 -63 203t-185 69q-90 0 -173 -40t-169 -124v-848h-70zM318 1556v12h62l190 -278l190 278h62v-12l-218 -326h-68z" />
<glyph unicode="&#x149;" horiz-adv-x="1128" d="M-82 1136q74 72 103 143t29 177q0 40 -4 84h66q4 -44 4 -82q0 -118 -39 -201t-129 -155zM204 0v1052h68v-138q74 80 164 122t188 42q146 0 228 -86t82 -240v-752h-70v740q0 134 -63 203t-185 69q-90 0 -173 -40t-169 -124v-848h-70z" />
<glyph unicode="&#x14a;" horiz-adv-x="1428" d="M212 0v1448h68l868 -1328v1328h68v-1448v-172q0 -122 -69 -195t-185 -73q-60 0 -115 16t-91 44l32 58q30 -24 78 -39t96 -15q86 0 136 53t50 155v168l-868 1328v-1328h-68z" />
<glyph unicode="&#x14b;" horiz-adv-x="1128" d="M204 0v1052h68v-138q74 80 164 122t188 42q146 0 228 -86t82 -240v-752v-154q0 -150 -64 -218t-190 -68q-56 0 -110 17t-94 47l30 56q96 -56 174 -56q98 0 141 57t43 167v386v506q0 134 -63 203t-185 69q-90 0 -173 -40t-169 -124v-848h-70z" />
<glyph unicode="&#x14c;" horiz-adv-x="1408" d="M140 724q0 368 146 559t418 191t418 -191t146 -559t-146 -559t-418 -191t-418 191t-146 559zM214 724q0 -338 124 -511t366 -173t366 173t124 511t-124 511t-366 173t-366 -173t-124 -511zM448 1650v62h512v-62h-512z" />
<glyph unicode="&#x14d;" horiz-adv-x="1078" d="M126 526q0 270 107 411t307 141q198 0 305 -141t107 -411t-107 -411t-307 -141q-198 0 -305 141t-107 411zM198 526q0 -240 86 -364t254 -124t255 124t87 364t-86 364t-254 124t-255 -124t-87 -364zM284 1310v62h512v-62h-512z" />
<glyph unicode="&#x14e;" horiz-adv-x="1408" d="M140 724q0 368 146 559t418 191t418 -191t146 -559t-146 -559t-418 -191t-418 191t-146 559zM214 724q0 -338 124 -511t366 -173t366 173t124 511t-124 511t-366 173t-366 -173t-124 -511zM452 1844h58q12 -90 62 -136t134 -46q82 0 131 46t61 136h58q-6 -116 -73 -180 t-179 -64t-179 64t-73 180z" />
<glyph unicode="&#x14f;" horiz-adv-x="1078" d="M126 526q0 270 107 411t307 141q198 0 305 -141t107 -411t-107 -411t-307 -141q-198 0 -305 141t-107 411zM198 526q0 -240 86 -364t254 -124t255 124t87 364t-86 364t-254 124t-255 -124t-87 -364zM288 1504h58q12 -90 62 -136t134 -46q82 0 131 46t61 136h58 q-6 -116 -73 -180t-179 -64t-179 64t-73 180z" />
<glyph unicode="&#x150;" horiz-adv-x="1408" d="M140 724q0 368 146 559t418 191t418 -191t146 -559t-146 -559t-418 -191t-418 191t-146 559zM214 724q0 -338 124 -511t366 -173t366 173t124 511t-124 511t-366 173t-366 -173t-124 -511zM492 1562v14l228 276h74v-14l-242 -276h-60zM788 1562v14l228 276h74v-14 l-242 -276h-60z" />
<glyph unicode="&#x151;" horiz-adv-x="1078" d="M126 526q0 270 107 411t307 141q198 0 305 -141t107 -411t-107 -411t-307 -141q-198 0 -305 141t-107 411zM198 526q0 -240 86 -364t254 -124t255 124t87 364t-86 364t-254 124t-255 -124t-87 -364zM354 1230v12l150 326h72v-12l-166 -326h-56zM636 1230v12l150 326h72 v-12l-166 -326h-56z" />
<glyph unicode="&#x152;" horiz-adv-x="1904" d="M140 724q0 354 145 539t419 185h352h716v-66h-688v-608h520v-66h-520v-642h712v-66h-784h-308q-274 0 -419 185t-145 539zM214 724q0 -324 124 -491t366 -167h308v1316h-308q-242 0 -366 -167t-124 -491z" />
<glyph unicode="&#x153;" horiz-adv-x="1750" d="M126 526q0 270 104 411t298 141q136 0 228 -75t134 -221q38 142 130 219t230 77q182 0 284 -133t102 -369q0 -24 -4 -52h-712q0 -236 92 -359t270 -123q158 0 274 90l30 -54q-56 -48 -136 -75t-166 -27q-148 0 -248 77t-146 221q-40 -148 -133 -224t-231 -76 q-192 0 -296 141t-104 411zM198 526q0 -240 83 -364t245 -124t246 124t84 364t-83 364t-245 124t-246 -124t-84 -364zM922 584h644v16q0 194 -85 304t-237 110q-146 0 -230 -111t-92 -319z" />
<glyph unicode="&#x154;" horiz-adv-x="1246" d="M212 0v1448h72h380q202 0 311 -110t109 -312q0 -182 -91 -291t-261 -131l406 -604h-88l-396 600h-370v-600h-72zM284 666h380q168 0 257 91t89 263q0 176 -91 269t-263 93h-372v-716zM528 1562v14l332 276h86v-14l-348 -276h-70z" />
<glyph unicode="&#x155;" horiz-adv-x="764" d="M204 0v1052h68v-170q64 98 136 145t158 47q70 0 142 -26l-20 -64q-72 22 -130 22q-80 0 -149 -49t-135 -151v-806h-70zM368 1230v12l232 326h78v-12l-248 -326h-62z" />
<glyph unicode="&#x156;" horiz-adv-x="1246" d="M212 0v1448h72h380q202 0 311 -110t109 -312q0 -182 -91 -291t-261 -131l406 -604h-88l-396 600h-370v-600h-72zM284 666h380q168 0 257 91t89 263q0 176 -91 269t-263 93h-372v-716zM522 -502q58 56 82 112t24 140q0 32 -4 68h70q4 -36 4 -66q0 -92 -34 -160t-110 -130z " />
<glyph unicode="&#x157;" horiz-adv-x="764" d="M100 -502q58 56 82 112t24 140q0 32 -4 68h70q4 -36 4 -66q0 -92 -34 -160t-110 -130zM204 0v1052h68v-170q64 98 136 145t158 47q70 0 142 -26l-20 -64q-72 22 -130 22q-80 0 -149 -49t-135 -151v-806h-70z" />
<glyph unicode="&#x158;" horiz-adv-x="1246" d="M212 0v1448h72h380q202 0 311 -110t109 -312q0 -182 -91 -291t-261 -131l406 -604h-88l-396 600h-370v-600h-72zM284 666h380q168 0 257 91t89 263q0 176 -91 269t-263 93h-372v-716zM342 1838v14h62l220 -234l220 234h62v-14l-248 -276h-68z" />
<glyph unicode="&#x159;" horiz-adv-x="764" d="M194 1556v12h62l190 -278l190 278h62v-12l-218 -326h-68zM204 0v1052h68v-170q64 98 136 145t158 47q70 0 142 -26l-20 -64q-72 22 -130 22q-80 0 -149 -49t-135 -151v-806h-70z" />
<glyph unicode="&#x15a;" horiz-adv-x="1104" d="M100 88l28 58q192 -104 406 -104q182 0 278 80t96 236q0 124 -68 200t-220 118l-164 46q-172 48 -253 139t-81 237q0 178 112 276t316 98q98 0 203 -23t195 -63l-28 -62q-194 82 -376 82q-172 0 -262 -76t-90 -226q0 -126 69 -199t221 -115l164 -46q174 -48 254 -139 t80 -237q0 -186 -117 -289t-329 -103q-114 0 -229 30t-205 82zM432 1562v14l332 276h86v-14l-348 -276h-70z" />
<glyph unicode="&#x15b;" horiz-adv-x="886" d="M92 72l26 58q142 -90 312 -90q132 0 201 59t69 173q0 94 -49 145t-151 75l-142 34q-126 30 -185 94t-59 172q0 136 85 210t239 74q164 0 308 -80l-28 -58q-138 74 -286 74q-120 0 -185 -55t-65 -159q0 -82 46 -131t148 -75l142 -34q130 -30 191 -98t61 -182 q0 -144 -89 -223t-251 -79q-92 0 -181 25t-157 71zM346 1230v12l232 326h78v-12l-248 -326h-62z" />
<glyph unicode="&#x15c;" horiz-adv-x="1104" d="M100 88l28 58q192 -104 406 -104q182 0 278 80t96 236q0 124 -68 200t-220 118l-164 46q-172 48 -253 139t-81 237q0 178 112 276t316 98q98 0 203 -23t195 -63l-28 -62q-194 82 -376 82q-172 0 -262 -76t-90 -226q0 -126 69 -199t221 -115l164 -46q174 -48 254 -139 t80 -237q0 -186 -117 -289t-329 -103q-114 0 -229 30t-205 82zM246 1562v14l248 276h68l248 -276v-14h-62l-220 234l-220 -234h-62z" />
<glyph unicode="&#x15d;" horiz-adv-x="886" d="M92 72l26 58q142 -90 312 -90q132 0 201 59t69 173q0 94 -49 145t-151 75l-142 34q-126 30 -185 94t-59 172q0 136 85 210t239 74q164 0 308 -80l-28 -58q-138 74 -286 74q-120 0 -185 -55t-65 -159q0 -82 46 -131t148 -75l142 -34q130 -30 191 -98t61 -182 q0 -144 -89 -223t-251 -79q-92 0 -181 25t-157 71zM170 1230v12l218 326h68l218 -326v-12h-62l-190 278l-190 -278h-62z" />
<glyph unicode="&#x15e;" horiz-adv-x="1104" d="M100 88l28 58q192 -104 406 -104q182 0 278 80t96 236q0 124 -68 200t-220 118l-164 46q-172 48 -253 139t-81 237q0 178 112 276t316 98q98 0 203 -23t195 -63l-28 -62q-194 82 -376 82q-172 0 -262 -76t-90 -226q0 -126 69 -199t221 -115l164 -46q174 -48 254 -139 t80 -237q0 -180 -109 -282t-307 -110l-60 -120q32 8 54 8q84 0 131 -40t47 -112q0 -78 -52 -122t-144 -44q-98 0 -174 44l20 50q76 -36 154 -36q134 0 134 106q0 98 -122 98q-50 0 -90 -18l-26 24l68 162q-108 4 -214 33t-190 79z" />
<glyph unicode="&#x15f;" horiz-adv-x="886" d="M92 72l26 58q142 -90 312 -90q132 0 201 59t69 173q0 94 -49 145t-151 75l-142 34q-126 30 -185 94t-59 172q0 136 85 210t239 74q164 0 308 -80l-28 -58q-138 74 -286 74q-120 0 -185 -55t-65 -159q0 -82 46 -131t148 -75l142 -34q130 -30 191 -98t61 -182 q0 -140 -83 -218t-235 -84l-60 -120q32 8 54 8q84 0 131 -40t47 -112q0 -78 -52 -122t-144 -44q-98 0 -174 44l20 50q76 -36 154 -36q134 0 134 106q0 98 -122 98q-50 0 -90 -18l-26 24l68 164q-82 4 -161 29t-139 65z" />
<glyph unicode="&#x160;" horiz-adv-x="1104" d="M100 88l28 58q192 -104 406 -104q182 0 278 80t96 236q0 124 -68 200t-220 118l-164 46q-172 48 -253 139t-81 237q0 178 112 276t316 98q98 0 203 -23t195 -63l-28 -62q-194 82 -376 82q-172 0 -262 -76t-90 -226q0 -126 69 -199t221 -115l164 -46q174 -48 254 -139 t80 -237q0 -186 -117 -289t-329 -103q-114 0 -229 30t-205 82zM246 1838v14h62l220 -234l220 234h62v-14l-248 -276h-68z" />
<glyph unicode="&#x161;" horiz-adv-x="886" d="M92 72l26 58q142 -90 312 -90q132 0 201 59t69 173q0 94 -49 145t-151 75l-142 34q-126 30 -185 94t-59 172q0 136 85 210t239 74q164 0 308 -80l-28 -58q-138 74 -286 74q-120 0 -185 -55t-65 -159q0 -82 46 -131t148 -75l142 -34q130 -30 191 -98t61 -182 q0 -144 -89 -223t-251 -79q-92 0 -181 25t-157 71zM172 1556v12h62l190 -278l190 278h62v-12l-218 -326h-68z" />
<glyph unicode="&#x162;" horiz-adv-x="1036" d="M80 1382v66h474h402v-66h-402v-1382h-4l-72 -144q32 8 54 8q84 0 131 -40t47 -112q0 -78 -52 -122t-144 -44q-98 0 -174 44l20 50q76 -36 154 -36q134 0 134 106q0 98 -122 98q-50 0 -90 -18l-26 24l78 186h-6v1382h-402z" />
<glyph unicode="&#x163;" horiz-adv-x="704" d="M62 992v60h178v308h70v-308h310v-60h-310v-722q0 -106 48 -161t140 -55q52 0 116 16l14 -60q-62 -22 -136 -22q-28 0 -42 2l-66 -134q32 8 54 8q84 0 131 -40t47 -112q0 -78 -52 -122t-144 -44q-98 0 -174 44l20 50q76 -36 154 -36q134 0 134 106q0 98 -122 98 q-50 0 -90 -18l-26 24l78 188q-74 26 -114 91t-40 161v738h-178z" />
<glyph unicode="&#x164;" horiz-adv-x="1036" d="M80 1382v66h474h402v-66h-402v-1382h-72v1382h-402zM236 1838v14h62l220 -234l220 234h62v-14l-248 -276h-68z" />
<glyph unicode="&#x165;" horiz-adv-x="704" d="M62 992v60h178v308h70v-308h310v-60h-310v-722q0 -106 48 -161t140 -55q52 0 116 16l14 -60q-62 -22 -136 -22q-118 0 -185 70t-67 196v738h-178zM518 1154v386h70v-12l-16 -374h-54z" />
<glyph unicode="&#x166;" horiz-adv-x="1036" d="M80 1382v66h474h402v-66h-402v-622h254v-64h-254v-696h-72v696h-238v64h238v622h-402z" />
<glyph unicode="&#x167;" horiz-adv-x="704" d="M62 992v60h178v308h70v-308h310v-60h-310v-308h310v-56h-310v-358q0 -106 48 -161t140 -55q52 0 116 16l14 -60q-62 -22 -136 -22q-118 0 -185 70t-67 196v374h-176v56h176v308h-178z" />
<glyph unicode="&#x168;" horiz-adv-x="1352" d="M202 500v948h72v-944q0 -226 104 -345t298 -119t298 119t104 345v944h72v-948q0 -250 -124 -388t-350 -138t-350 138t-124 388zM378 1584q2 112 47 173t121 61q52 0 84 -25t66 -71q28 -40 52 -60t60 -20q100 0 112 172h54q-2 -112 -47 -173t-121 -61q-52 0 -84 25t-66 71 q-28 40 -52 60t-60 20q-100 0 -112 -172h-54z" />
<glyph unicode="&#x169;" horiz-adv-x="1112" d="M190 300v752h70v-740q0 -134 61 -203t181 -69q92 0 174 43t162 131v838h70v-1052h-68v146q-148 -172 -346 -172q-144 0 -224 86t-80 240zM252 1244q2 112 47 173t121 61q52 0 84 -25t66 -71q28 -40 52 -60t60 -20q100 0 112 172h54q-2 -112 -47 -173t-121 -61 q-52 0 -84 25t-66 71q-28 40 -52 60t-60 20q-100 0 -112 -172h-54z" />
<glyph unicode="&#x16a;" horiz-adv-x="1352" d="M202 500v948h72v-944q0 -226 104 -345t298 -119t298 119t104 345v944h72v-948q0 -250 -124 -388t-350 -138t-350 138t-124 388zM420 1650v62h512v-62h-512z" />
<glyph unicode="&#x16b;" horiz-adv-x="1112" d="M190 300v752h70v-740q0 -134 61 -203t181 -69q92 0 174 43t162 131v838h70v-1052h-68v146q-148 -172 -346 -172q-144 0 -224 86t-80 240zM294 1310v62h512v-62h-512z" />
<glyph unicode="&#x16c;" horiz-adv-x="1352" d="M202 500v948h72v-944q0 -226 104 -345t298 -119t298 119t104 345v944h72v-948q0 -250 -124 -388t-350 -138t-350 138t-124 388zM424 1844h58q12 -90 62 -136t134 -46q82 0 131 46t61 136h58q-6 -116 -73 -180t-179 -64t-179 64t-73 180z" />
<glyph unicode="&#x16d;" horiz-adv-x="1112" d="M190 300v752h70v-740q0 -134 61 -203t181 -69q92 0 174 43t162 131v838h70v-1052h-68v146q-148 -172 -346 -172q-144 0 -224 86t-80 240zM298 1504h58q12 -90 62 -136t134 -46q82 0 131 46t61 136h58q-6 -116 -73 -180t-179 -64t-179 64t-73 180z" />
<glyph unicode="&#x16e;" horiz-adv-x="1352" d="M202 500v948h72v-944q0 -226 104 -345t298 -119t298 119t104 345v944h72v-948q0 -250 -124 -388t-350 -138t-350 138t-124 388zM486 1724q0 88 50 137t140 49t140 -49t50 -137t-50 -137t-140 -49t-140 49t-50 137zM548 1724q0 -64 33 -98t95 -34t95 34t33 98t-33 98 t-95 34t-95 -34t-33 -98z" />
<glyph unicode="&#x16f;" horiz-adv-x="1112" d="M190 300v752h70v-740q0 -134 61 -203t181 -69q92 0 174 43t162 131v838h70v-1052h-68v146q-148 -172 -346 -172q-144 0 -224 86t-80 240zM360 1394q0 88 50 137t140 49t140 -49t50 -137t-50 -137t-140 -49t-140 49t-50 137zM422 1394q0 -128 128 -128t128 128t-128 128 t-128 -128z" />
<glyph unicode="&#x170;" horiz-adv-x="1352" d="M202 500v948h72v-944q0 -226 104 -345t298 -119t298 119t104 345v944h72v-948q0 -250 -124 -388t-350 -138t-350 138t-124 388zM464 1562v14l228 276h74v-14l-242 -276h-60zM760 1562v14l228 276h74v-14l-242 -276h-60z" />
<glyph unicode="&#x171;" horiz-adv-x="1112" d="M190 300v752h70v-740q0 -134 61 -203t181 -69q92 0 174 43t162 131v838h70v-1052h-68v146q-148 -172 -346 -172q-144 0 -224 86t-80 240zM364 1230v12l150 326h72v-12l-166 -326h-56zM646 1230v12l150 326h72v-12l-166 -326h-56z" />
<glyph unicode="&#x172;" horiz-adv-x="1352" d="M202 500v948h72v-944q0 -228 102 -346t300 -118t300 118t102 346v944h72v-948v-2q0 -292 -182 -434l-54 -42q-82 -64 -127 -139t-45 -143q0 -56 31 -86t89 -30q70 0 138 42l24 -46q-72 -54 -170 -54q-84 0 -130 42t-46 120q0 66 34 134t96 128q-68 -16 -132 -16 q-224 0 -349 139t-125 387z" />
<glyph unicode="&#x173;" horiz-adv-x="1112" d="M190 300v752h70v-738q0 -134 61 -203t181 -69q92 0 174 43t162 131v836h70v-1052q-90 -58 -138 -125t-48 -135q0 -56 31 -86t89 -30q70 0 138 42l24 -46q-72 -54 -170 -54q-84 0 -130 42t-46 120q0 76 47 149t135 131v140q-82 -88 -166 -131t-180 -43q-144 0 -224 86 t-80 240z" />
<glyph unicode="&#x174;" horiz-adv-x="1772" d="M92 1448h74l342 -1370l334 1368h88l334 -1368l342 1370h74l-372 -1448h-88l-334 1360l-334 -1360h-88zM604 1562v14l248 276h68l248 -276v-14h-62l-220 234l-220 -234h-62z" />
<glyph unicode="&#x175;" horiz-adv-x="1526" d="M100 1052h72l276 -986l274 986h84l272 -986l276 986h72l-306 -1052h-84l-272 956l-274 -956h-84zM510 1230v12l218 326h68l218 -326v-12h-62l-190 278l-190 -278h-62z" />
<glyph unicode="&#x176;" horiz-adv-x="1156" d="M72 1448h76l430 -836l430 836h76l-470 -912v-536h-72v536zM294 1562v14l248 276h68l248 -276v-14h-62l-220 234l-220 -234h-62z" />
<glyph unicode="&#x177;" horiz-adv-x="998" d="M96 -370q132 44 223 132t147 230l-370 1060h74l330 -972l328 972h74l-370 -1068q-54 -158 -159 -265t-253 -153zM250 1230v12l218 326h68l218 -326v-12h-62l-190 278l-190 -278h-62z" />
<glyph unicode="&#x178;" horiz-adv-x="1156" d="M72 1448h76l430 -836l430 836h76l-470 -912v-536h-72v536zM332 1690q0 30 16 48t44 18t44 -17t16 -49q0 -30 -16 -48t-44 -18t-44 17t-16 49zM700 1690q0 30 16 48t44 18t44 -17t16 -49q0 -30 -16 -48t-44 -18t-44 17t-16 49z" />
<glyph unicode="&#x179;" horiz-adv-x="1086" d="M108 0v66l774 1316h-750v66h834v-66l-774 -1316h782v-66h-866zM444 1562v14l332 276h86v-14l-348 -276h-70z" />
<glyph unicode="&#x17a;" horiz-adv-x="896" d="M108 0v60l592 932h-576v60h652v-60l-592 -932h600v-60h-676zM364 1230v12l232 326h78v-12l-248 -326h-62z" />
<glyph unicode="&#x17b;" horiz-adv-x="1086" d="M108 0v66l774 1316h-750v66h834v-66l-774 -1316h782v-66h-866zM478 1690q0 32 17 50t45 18t45 -17t17 -49t-17 -50t-45 -18t-45 17t-17 49z" />
<glyph unicode="&#x17c;" horiz-adv-x="896" d="M108 0v60l592 932h-576v60h652v-60l-592 -932h600v-60h-676zM380 1350q0 32 17 50t45 18t45 -17t17 -49t-17 -50t-45 -18t-45 17t-17 49z" />
<glyph unicode="&#x17d;" horiz-adv-x="1086" d="M108 0v66l774 1316h-750v66h834v-66l-774 -1316h782v-66h-866zM258 1838v14h62l220 -234l220 234h62v-14l-248 -276h-68z" />
<glyph unicode="&#x17e;" horiz-adv-x="896" d="M108 0v60l592 932h-576v60h652v-60l-592 -932h600v-60h-676zM190 1556v12h62l190 -278l190 278h62v-12l-218 -326h-68z" />
<glyph unicode="&#x17f;" horiz-adv-x="542" d="M204 0v1188v56q0 148 77 227t223 79q58 0 98 -10v-62q-60 8 -98 8q-112 0 -171 -61t-59 -181v-76v-1168h-70z" />
<glyph unicode="&#x180;" horiz-adv-x="1104" d="M60 1272v56h128v212h70v-212h446v-56h-446v-390q134 180 332 180q186 0 287 -142t101 -404q0 -258 -101 -400t-289 -142q-100 0 -187 45t-145 127v-146h-68v1272h-128zM258 222q58 -86 146 -134t186 -48q154 0 235 121t81 351q0 234 -83 359t-239 125q-94 0 -173 -45 t-153 -141v-588z" />
<glyph unicode="&#x181;" horiz-adv-x="1394" d="M14 1170q0 130 84 204t236 74h72h406q182 0 280 -95t98 -271q0 -128 -53 -212t-153 -114q140 -16 215 -111t75 -257q0 -186 -101 -287t-289 -101h-512h-38v1382q-116 0 -182 -55t-66 -155q0 -44 6 -92h-72q-6 40 -6 90zM406 66h486q148 0 228 83t80 239t-81 239t-235 83 h-478v-644zM406 776h406q148 0 227 78t79 224t-81 225t-233 79h-398v-606z" />
<glyph unicode="&#x182;" horiz-adv-x="1238" d="M212 0v1448h764v-64h-692v-528h406q206 0 317 -112t111 -318q0 -200 -112 -313t-308 -113h-486zM284 66h406q174 0 264 95t90 265q0 172 -88 268t-258 96h-414v-724z" />
<glyph unicode="&#x183;" horiz-adv-x="1118" d="M204 0v986v554h70h572v-60h-572v-582q134 180 332 180q184 0 285 -145t101 -409q0 -262 -101 -406t-287 -144q-100 0 -187 45t-145 127v-146h-68zM274 222q58 -86 146 -134t186 -48q152 0 233 123t81 357q0 240 -83 366t-237 126q-94 0 -173 -45t-153 -141v-604z" />
<glyph unicode="&#x184;" horiz-adv-x="1172" d="M92 1262v32l140 154h38v-314v-278h406q206 0 317 -112t111 -318q0 -200 -112 -313t-308 -113h-486v1134zM270 66h406q174 0 264 95t90 265q0 172 -88 268t-258 96h-414v-724z" />
<glyph unicode="&#x185;" horiz-adv-x="1106" d="M84 1354v32l140 154h38v-314v-328q134 180 332 180q184 0 285 -145t101 -409q0 -262 -101 -406t-287 -144q-100 0 -187 45t-145 127v-146h-68v986v240zM262 222q58 -86 146 -134t186 -48q152 0 233 123t81 357q0 240 -83 366t-237 126q-94 0 -173 -45t-153 -141v-604z " />
<glyph unicode="&#x186;" horiz-adv-x="1182" d="M96 1384q62 42 154 65t194 23q300 0 459 -188t159 -538q0 -234 -73 -409t-208 -269t-317 -94q-88 0 -182 24t-174 68l28 58q166 -84 332 -84q156 0 274 86t182 244t64 368q0 318 -143 492t-403 174q-186 0 -316 -76z" />
<glyph unicode="&#x187;" horiz-adv-x="1430" d="M120 702q0 234 73 409t208 269t317 94q150 0 292 -62q8 136 80 212t196 76q52 0 88 -4v-68q-48 6 -90 6q-100 0 -155 -66t-55 -184v-60h-28q-164 84 -332 84q-156 0 -274 -86t-182 -244t-64 -368q0 -318 143 -492t403 -174q186 0 316 76l30 -56q-62 -42 -154 -65 t-194 -23q-300 0 -459 188t-159 538z" />
<glyph unicode="&#x188;" horiz-adv-x="1174" d="M118 546q0 160 52 280t147 186t221 66q114 0 226 -50q4 142 77 221t199 79q52 0 88 -4v-68q-48 6 -90 6q-100 0 -155 -66t-55 -184v-74h-28q-140 76 -264 76q-160 0 -253 -124t-93 -340q0 -248 93 -378t269 -130q140 0 258 74l30 -54q-56 -40 -133 -63t-157 -23 q-204 0 -318 150t-114 420z" />
<glyph unicode="&#x189;" horiz-adv-x="1362" d="M76 700v66h136v682h362q308 0 478 -189t170 -531q0 -346 -173 -537t-487 -191h-350v700h-136zM284 66h290q280 0 427 168t147 488q0 322 -150 491t-436 169h-278v-616h434v-66h-434v-634z" />
<glyph unicode="&#x18a;" horiz-adv-x="1486" d="M16 1170q0 130 84 204t236 74h362q308 0 478 -189t170 -531q0 -346 -173 -537t-487 -191h-350v1382q-116 0 -182 -55t-66 -155q0 -44 6 -92h-72q-6 40 -6 90zM408 66h290q280 0 427 168t147 488q0 322 -150 491t-436 169h-278v-1316z" />
<glyph unicode="&#x18b;" horiz-adv-x="1238" d="M120 426q0 206 111 318t317 112h406v528h-692v64h764v-1448h-486q-196 0 -308 113t-112 313zM194 426q0 -170 90 -265t264 -95h406v724h-414q-170 0 -258 -96t-88 -268z" />
<glyph unicode="&#x18c;" horiz-adv-x="1118" d="M126 530q0 262 101 406t287 144q100 0 186 -44t144 -124v568h-572v60h642v-1472v-68h-68v158q-134 -182 -334 -182q-184 0 -285 145t-101 409zM198 534q0 -240 83 -366t237 -126q94 0 173 45t153 141v604q-58 86 -146 134t-186 48q-152 0 -233 -123t-81 -357z" />
<glyph unicode="&#x18d;" horiz-adv-x="1080" d="M126 612q0 124 46 231t141 171t231 64q120 0 213 -56t145 -158t52 -234q0 -188 -103 -312t-283 -188q134 -82 189 -148t55 -156q0 -60 -30 -121t-98 -103t-174 -42q-82 0 -162 24t-126 60l28 56q124 -76 264 -76q112 0 172 60t60 142q0 46 -20 84t-74 83t-160 111 q-112 70 -186 131t-127 155t-53 222zM198 616q0 -116 41 -197t105 -134t164 -111q374 120 374 458q0 182 -94 282t-250 100q-116 0 -192 -60t-112 -152t-36 -186z" />
<glyph unicode="&#x18e;" horiz-adv-x="1132" d="M108 0v66h740v642h-548v66h548v608h-716v66h788v-1448h-812z" />
<glyph unicode="&#x18f;" horiz-adv-x="1354" d="M110 678q0 32 6 62h1030q-4 326 -143 495t-397 169q-198 0 -386 -112l-32 56q84 58 195 91t227 33q292 0 448 -191t156 -559q0 -366 -142 -556t-408 -190q-262 0 -408 185t-146 517zM182 676q-8 -298 120 -465t366 -167q228 0 348 160t130 472h-964z" />
<glyph unicode="&#x190;" horiz-adv-x="1200" d="M140 386q0 156 87 246t217 120q-118 44 -182 130t-64 208q0 118 57 205t155 133t222 46q98 0 191 -27t157 -65l-26 -58q-164 84 -314 84q-166 0 -268 -86t-102 -230q0 -142 96 -228t244 -86h188v-66h-204q-98 0 -185 -35t-141 -109t-54 -184q0 -152 109 -247t313 -95 q196 0 374 94l30 -58q-74 -48 -187 -75t-229 -27q-230 0 -357 110t-127 300z" />
<glyph unicode="&#x191;" horiz-adv-x="1056" d="M-40 -418l18 60q36 -16 84 -16q76 0 113 41t37 127v538v1116h776v-66h-704v-634h582v-66h-582v-682v-210q0 -110 -57 -168t-165 -58q-56 0 -102 18z" />
<glyph unicode="&#x192;" horiz-adv-x="1060" d="M50 -410l12 64q40 -6 66 -6q88 0 146 68t76 198l118 852h-250v66h260l46 332q20 148 92 229t192 81q64 0 123 -20t99 -56l-34 -54q-92 64 -192 64q-84 0 -137 -62t-69 -182l-46 -332h322v-66h-332l-118 -852q-22 -158 -95 -245t-193 -87q-38 0 -86 8z" />
<glyph unicode="&#x193;" horiz-adv-x="1548" d="M140 724q0 358 161 554t453 196q166 0 298 -58q8 134 81 209t195 75q52 0 88 -4v-68q-48 6 -90 6q-100 0 -155 -66t-55 -184v-56h-28q-156 78 -336 78q-262 0 -400 -175t-138 -507q0 -334 139 -509t401 -175q164 0 322 64v542h-288v66h360v-642q-82 -46 -186 -71 t-208 -25q-292 0 -453 196t-161 554z" />
<glyph unicode="&#x194;" horiz-adv-x="1244" d="M88 1448h76l460 -1004l456 1004h76l-494 -1086l128 -280q48 -104 48 -194q0 -98 -57 -153t-157 -55t-156 55t-56 153q0 86 48 194l126 278zM484 -104q0 -74 36 -112t104 -38q142 0 142 150q0 70 -42 164l-100 218l-100 -218q-40 -88 -40 -164z" />
<glyph unicode="&#x195;" horiz-adv-x="1756" d="M204 0v1540h70v-624q152 162 352 162q146 0 229 -86t83 -240v-254v-186q0 -272 252 -272q142 0 217 115t75 337q0 130 -15 260t-59 300h70q44 -172 59 -305t15 -267q0 -242 -95 -374t-267 -132q-156 0 -239 86t-83 240v336v104q0 134 -64 203t-186 69q-92 0 -175 -40 t-169 -124v-848h-70z" />
<glyph unicode="&#x196;" horiz-adv-x="532" d="M212 152v1296h70v-1290q0 -54 25 -80t79 -26q32 0 72 8l10 -58q-48 -12 -94 -12q-80 0 -121 41t-41 121z" />
<glyph unicode="&#x197;" horiz-adv-x="576" d="M76 714v64h176v670h72v-670h176v-64h-176v-714h-72v714h-176z" />
<glyph unicode="&#x198;" horiz-adv-x="1250" d="M212 0v1448h72v-882l646 778q56 68 102 99t98 31q46 0 83 -20t73 -62l-44 -52q-36 36 -59 51t-53 15q-38 0 -75 -27t-83 -83l-396 -476l596 -820h-86l-556 766l-246 -296v-470h-72z" />
<glyph unicode="&#x199;" horiz-adv-x="1036" d="M204 0v1052v292q0 206 200 206q56 0 102 -18l-18 -54q-36 16 -84 16q-68 0 -99 -37t-31 -117v-592v-316l584 620h84l-432 -456l454 -596h-84l-416 546l-190 -200v-346h-70z" />
<glyph unicode="&#x19a;" horiz-adv-x="678" d="M76 776v58h182v706h70v-706h244v-58h-244v-618q0 -54 25 -80t79 -26q32 0 72 8l10 -58q-48 -12 -94 -12q-80 0 -121 41t-41 121v624h-182z" />
<glyph unicode="&#x19b;" horiz-adv-x="998" d="M96 0l370 1060q-36 88 -80 152l-214 -100h-12v60l188 88q-96 110 -252 162l24 64q178 -58 292 -196l262 122h12v-60l-238 -112q50 -74 84 -172l370 -1068h-74l-328 972l-330 -972h-74z" />
<glyph unicode="&#x19c;" horiz-adv-x="1770" d="M212 300v1148h72v-1136q0 -134 58 -202t172 -68q88 0 170 41t170 129q-8 38 -8 88v1148h72v-1136q0 -270 234 -270q88 0 169 39t165 123v1244h72v-1448h-70v138q-154 -164 -344 -164q-104 0 -175 48t-101 136q-160 -184 -362 -184q-138 0 -216 86t-78 240z" />
<glyph unicode="&#x19d;" horiz-adv-x="1428" d="M-44 -418l18 60q36 -16 84 -16q78 0 116 41t38 127v538v1116h68l868 -1328v1328h68v-1448h-68l-868 1328v-1328v-210q0 -110 -57 -168t-165 -58q-56 0 -102 18z" />
<glyph unicode="&#x19e;" horiz-adv-x="1128" d="M204 0v1052h68v-138q74 80 164 122t188 42q146 0 228 -86t82 -240v-752v-416h-70v546v610q0 134 -63 203t-185 69q-90 0 -173 -40t-169 -124v-848h-70z" />
<glyph unicode="&#x19f;" horiz-adv-x="1408" d="M140 724q0 368 146 559t418 191t418 -191t146 -559t-146 -559t-418 -191t-418 191t-146 559zM214 692q6 -322 130 -487t360 -165t360 165t130 487h-980zM214 756h980q-6 322 -130 487t-360 165t-360 -165t-130 -487z" />
<glyph unicode="&#x1a0;" horiz-adv-x="1408" d="M140 724q0 368 146 559t418 191q74 0 190 -24q100 -22 170 -22q118 0 166 39t48 137q0 50 -10 122h64q10 -60 10 -118q0 -128 -65 -183t-215 -55q-18 0 -28 2q234 -182 234 -648q0 -368 -146 -559t-418 -191t-418 191t-146 559zM214 724q0 -338 124 -511t366 -173 t366 173t124 511t-124 511t-366 173t-366 -173t-124 -511z" />
<glyph unicode="&#x1a1;" horiz-adv-x="1098" d="M126 526q0 270 107 411t307 141q54 0 134 -12q70 -14 132 -14q118 0 166 38t48 134q0 50 -10 122h62q10 -60 10 -118q0 -124 -65 -178t-213 -54h-16q164 -136 164 -470q0 -270 -107 -411t-307 -141q-198 0 -305 141t-107 411zM198 526q0 -240 86 -364t254 -124t255 124 t87 364t-86 364t-254 124t-255 -124t-87 -364z" />
<glyph unicode="&#x1a2;" horiz-adv-x="1630" d="M140 724q0 368 146 559t418 191q26 0 126 -8q166 -18 306 -18h282v-1864h-72v1800h-210v-1342q-84 -34 -185 -51t-247 -17q-272 0 -418 191t-146 559zM214 724q0 -338 124 -511t366 -173q216 0 360 46v1298q-78 2 -198 14q-90 8 -130 10h-32q-242 0 -366 -173t-124 -511z " />
<glyph unicode="&#x1a3;" horiz-adv-x="1350" d="M126 526q0 270 107 411t307 141q28 0 68 -4l60 -6q116 -16 204 -16h274v-1464h-70v1406h-202h-2v-964q-126 -28 -194 -40t-140 -12q-198 0 -305 139t-107 409zM198 526q0 -240 86 -363t254 -123q54 0 132 11t132 25v920q-54 2 -128 10q-46 4 -118 8h-16q-168 2 -255 -123 t-87 -365z" />
<glyph unicode="&#x1a4;" horiz-adv-x="1294" d="M12 1170q0 130 84 204t236 74h72h398q202 0 313 -115t111 -327q0 -214 -112 -331t-318 -117h-392v-558h-72v1382q-116 0 -182 -55t-66 -155q0 -44 6 -92h-72q-6 40 -6 90zM404 624h398q170 0 260 97t90 281t-92 282t-264 98h-392v-758z" />
<glyph unicode="&#x1a5;" horiz-adv-x="1118" d="M204 -414v1162v304v292q0 206 200 206q56 0 102 -18l-18 -54q-36 16 -84 16q-68 0 -99 -37t-31 -117v-442q134 180 332 180q184 0 285 -145t101 -409q0 -262 -101 -406t-287 -144q-100 0 -186 44t-144 124v-556h-70zM274 222q58 -86 146 -134t186 -48q152 0 233 123 t81 357q0 240 -83 366t-237 126q-94 0 -173 -45t-153 -141v-604z" />
<glyph unicode="&#x1a6;" horiz-adv-x="1246" d="M212 0v1448h72v-180h380q198 0 309 -103t111 -279q0 -162 -95 -264t-269 -118l486 -724h-88l-478 720h-356v-500h-72zM284 566h380q164 0 255 85t91 229q0 148 -93 235t-261 87h-372v-636z" />
<glyph unicode="&#x1a7;" horiz-adv-x="1104" d="M124 368q0 146 80 237t254 139l164 46q152 42 221 115t69 199q0 150 -90 226t-262 76q-182 0 -376 -82l-28 62q90 40 195 63t203 23q204 0 316 -98t112 -276q0 -146 -81 -237t-253 -139l-164 -46q-152 -42 -220 -118t-68 -200q0 -156 96 -236t278 -80q214 0 406 104 l28 -58q-90 -52 -205 -82t-229 -30q-212 0 -329 103t-117 289z" />
<glyph unicode="&#x1a8;" horiz-adv-x="886" d="M116 278q0 114 61 182t191 98l142 34q102 26 148 75t46 131q0 104 -65 159t-185 55q-148 0 -286 -74l-28 58q144 80 308 80q154 0 239 -74t85 -210q0 -108 -59 -172t-185 -94l-142 -34q-102 -24 -151 -75t-49 -145q0 -114 69 -173t201 -59q172 0 312 90l26 -58 q-68 -46 -157 -71t-181 -25q-162 0 -251 79t-89 223z" />
<glyph unicode="&#x1a9;" horiz-adv-x="1138" d="M128 0v68l530 666l-530 648v66h902v-66h-818l538 -648l-538 -668h818v-66h-902z" />
<glyph unicode="&#x1aa;" horiz-adv-x="516" d="M-104 1362q0 96 59 150t157 54q96 0 148 -55t52 -135v-1352v-152q0 -120 59 -181t171 -61q38 0 98 8v-62q-40 -10 -98 -10q-146 0 -223 79t-77 227v258v1090q-22 -26 -59 -42t-85 -16q-90 0 -146 54t-56 146zM-32 1362q0 -64 36 -100t102 -36t99 40t33 96q0 64 -32 102 t-100 38q-66 0 -102 -38t-36 -102z" />
<glyph unicode="&#x1ab;" horiz-adv-x="704" d="M62 992v60h178v308h70v-308h310v-60h-310v-722q0 -106 48 -161t140 -55q52 0 116 16l14 -60v-220q0 -110 -56 -168t-164 -58q-56 0 -102 18l18 54q36 -16 84 -16q82 0 120 42t38 132v200q-36 -6 -74 -6q-118 0 -185 70t-67 196v738h-178z" />
<glyph unicode="&#x1ac;" horiz-adv-x="1036" d="M40 1186q0 122 74 191t208 71h232h402v-66h-402v-1382h-72v1382h-156q-100 0 -157 -51t-57 -143q0 -36 6 -82h-70q-8 38 -8 80z" />
<glyph unicode="&#x1ad;" horiz-adv-x="704" d="M62 992v60h178v194q0 142 80 222t222 80q44 0 74 -8v-62q-40 6 -74 6q-114 0 -173 -61t-59 -179v-192h310v-60h-310v-722q0 -106 48 -161t140 -55q52 0 116 16l14 -60q-62 -22 -136 -22q-118 0 -185 70t-67 196v738h-178z" />
<glyph unicode="&#x1ae;" horiz-adv-x="1036" d="M80 1382v66h474h402v-66h-402v-1588q0 -86 37 -127t113 -41q48 0 84 16l18 -60q-46 -18 -102 -18q-108 0 -165 58t-57 168v542v1050h-402z" />
<glyph unicode="&#x1af;" horiz-adv-x="1352" d="M202 500v948h72v-944q0 -226 104 -345t298 -119t298 119t104 345v944h32q118 0 166 35t48 121q0 50 -10 122h64q10 -60 10 -118q0 -108 -56 -159t-182 -57v-892q0 -250 -124 -388t-350 -138t-350 138t-124 388z" />
<glyph unicode="&#x1b0;" horiz-adv-x="1112" d="M190 300v752h70v-740q0 -134 61 -203t181 -69q92 0 174 43t162 131v838h28q118 0 166 38t48 134q0 50 -10 122h62q10 -60 10 -118q0 -116 -55 -170t-179 -60v-998h-68v146q-148 -172 -346 -172q-144 0 -224 86t-80 240z" />
<glyph unicode="&#x1b1;" horiz-adv-x="1522" d="M140 1382v66h506v-64q-188 -136 -285 -330t-97 -436q0 -280 127 -429t369 -149t370 149t128 429q0 242 -97 436t-285 330v64h506v-66h-400q164 -122 257 -326t93 -442q0 -304 -150 -472t-422 -168t-421 167t-149 471q0 238 92 442t258 328h-400z" />
<glyph unicode="&#x1b2;" horiz-adv-x="1352" d="M202 500v948h72v-944q0 -226 104 -345t298 -119t298 119t104 345v356v384q0 86 -37 127t-113 41q-48 0 -84 -16l-18 60q46 18 102 18q108 0 165 -58t57 -168v-542v-206q0 -250 -124 -388t-350 -138t-350 138t-124 388z" />
<glyph unicode="&#x1b3;" horiz-adv-x="1240" d="M72 1448h76l430 -836l370 718q38 76 74 110t92 34q64 0 100 -42t54 -150l-64 -12q-12 80 -32 109t-58 29q-32 0 -53 -22t-53 -84l-394 -766v-536h-72v536z" />
<glyph unicode="&#x1b4;" horiz-adv-x="1176" d="M96 -370q132 44 223 132t147 230l-370 1060h74l330 -972l356 1042q50 148 170 148q64 0 100 -42t54 -150l-64 -12q-12 80 -32 109t-58 29q-36 0 -62 -24t-48 -86l-384 -1110q-56 -160 -160 -266t-252 -152z" />
<glyph unicode="&#x1b5;" horiz-adv-x="1086" d="M108 0v66l388 660h-290v62h326l350 594h-750v66h834v-66l-350 -594h284v-62h-320l-388 -660h782v-66h-866z" />
<glyph unicode="&#x1b6;" horiz-adv-x="896" d="M108 0v60l292 460h-240v56h276l264 416h-576v60h652v-60l-264 -416h240v-56h-276l-292 -460h600v-60h-676z" />
<glyph unicode="&#x1b7;" horiz-adv-x="1110" d="M70 86l32 62q212 -104 408 -104q186 0 291 98t105 280q0 342 -466 342h-82v52l464 566h-690v66h778v-68l-454 -548q246 -2 385 -102t139 -308q0 -216 -124 -331t-344 -115q-116 0 -233 29t-209 81z" />
<glyph unicode="&#x1b8;" horiz-adv-x="1110" d="M130 422q0 208 139 308t385 102l-454 548v68h778v-66h-690l464 -566v-52h-82q-466 0 -466 -342q0 -182 105 -280t291 -98q196 0 408 104l32 -62q-92 -52 -209 -81t-233 -29q-220 0 -344 115t-124 331z" />
<glyph unicode="&#x1b9;" horiz-adv-x="956" d="M96 -6q0 210 129 313t361 105l-422 578v62h708v-60h-622l424 -592v-52h-80q-198 0 -312 -88t-114 -268q0 -178 108 -270t274 -92q140 0 318 76l28 -60q-62 -34 -158 -58t-192 -24q-194 0 -322 108t-128 322z" />
<glyph unicode="&#x1ba;" horiz-adv-x="854" d="M20 -148q0 120 95 170t231 58q162 8 251 57t89 173q0 118 -91 175t-309 57h-54v48l374 402h-546v60h634v-64l-366 -386q430 -6 430 -282q0 -114 -51 -178t-138 -90t-221 -34q-260 -14 -260 -164q0 -170 268 -170q82 0 179 24t183 72l24 -58q-202 -102 -396 -102 q-150 0 -238 56t-88 176z" />
<glyph unicode="&#x1bb;" horiz-adv-x="1088" d="M130 1344q74 58 180 94t206 36q174 0 277 -98t103 -264q0 -80 -30 -159t-96 -175h132v-64h-180l-24 -32l-484 -618h698v-64h-780v64l508 650h-424v64h472q76 102 107 177t31 153q0 136 -85 217t-227 81q-92 0 -184 -31t-166 -87z" />
<glyph unicode="&#x1bc;" horiz-adv-x="1026" d="M60 1384v64h222h566v-64h-570v-506l180 -12q216 -14 330 -128t114 -310q0 -124 -48 -227t-148 -165t-248 -62q-108 0 -206 27t-164 73l32 62q144 -96 342 -96q186 0 277 109t91 279q0 164 -97 265t-301 113l-224 14v564h-148z" />
<glyph unicode="&#x1bd;" horiz-adv-x="884" d="M52 992v60h158h518v-60h-474v-346l176 -14q158 -12 248 -97t90 -227q0 -152 -93 -243t-267 -91q-86 0 -173 24t-139 54l28 58q148 -72 284 -72q138 0 213 71t75 199q0 122 -76 188t-212 76l-224 16v404h-132z" />
<glyph unicode="&#x1be;" horiz-adv-x="932" d="M126 72l26 58q142 -90 312 -90q132 0 201 58t69 168q0 76 -41 121t-127 101q-68 44 -110 80t-71 92t-29 138v194h-178v60h178v308h70v-308h310v-60h-310v-184q0 -68 26 -117t64 -81t104 -76q62 -42 99 -74t62 -78t25 -110q0 -140 -90 -218t-252 -78q-92 0 -181 25 t-157 71z" />
<glyph unicode="&#x1bf;" horiz-adv-x="1068" d="M204 -414v1466h68v-172q68 94 162 146t196 52q132 0 222 -94t90 -276q0 -156 -68 -265t-206 -205l-394 -276v-376h-70zM274 38l342 238q134 94 194 190t60 234q0 160 -71 236t-181 76q-96 0 -186 -55t-158 -153v-766z" />
<glyph unicode="&#x1c0;" horiz-adv-x="502" d="M216 0v1540h70v-1540h-70z" />
<glyph unicode="&#x1c1;" horiz-adv-x="720" d="M216 0v1540h70v-1540h-70zM434 0v1540h70v-1540h-70z" />
<glyph unicode="&#x1c2;" horiz-adv-x="682" d="M76 504v64h230v406h-230v64h230v502h70v-502h230v-64h-230v-406h230v-64h-230v-504h-70v504h-230z" />
<glyph unicode="&#x1c3;" horiz-adv-x="644" d="M252 46q0 34 18 53t52 19t52 -18t18 -52t-19 -54t-51 -20q-34 0 -52 19t-18 53zM282 1540h76l-8 -1230h-60z" />
<glyph unicode="&#x1c4;" horiz-adv-x="2364" d="M212 0v1448h362q308 0 478 -189t170 -531q0 -346 -173 -537t-487 -191h-350zM284 66h290q280 0 427 168t147 488q0 322 -150 491t-436 169h-278v-1316zM1386 0v66l774 1316h-750v66h834v-66l-774 -1316h782v-66h-866zM1536 1838v14h62l220 -234l220 234h62v-14l-248 -276 h-68z" />
<glyph unicode="&#x1c5;" horiz-adv-x="2194" d="M212 0v1448h362q308 0 478 -189t170 -531q0 -346 -173 -537t-487 -191h-350zM284 66h290q280 0 427 168t147 488q0 322 -150 491t-436 169h-278v-1316zM1406 0v60l592 932h-576v60h652v-60l-592 -932h600v-60h-676zM1458 1498v14h62l220 -234l220 234h62v-14l-248 -276 h-68z" />
<glyph unicode="&#x1c6;" horiz-adv-x="1884" d="M126 530q0 262 101 406t287 144q100 0 186 -44t144 -124v628h70v-1472v-68h-68v158q-134 -182 -334 -182q-184 0 -285 145t-101 409zM198 534q0 -240 83 -366t237 -126q94 0 173 45t153 141v604q-58 86 -146 134t-186 48q-152 0 -233 -123t-81 -357zM1096 0v60l592 932 h-576v60h652v-60l-592 -932h600v-60h-676zM1178 1556v12h62l190 -278l190 278h62v-12l-218 -326h-68z" />
<glyph unicode="&#x1c7;" horiz-adv-x="1836" d="M212 0v1448h72v-1382h678v-66h-750zM1110 34l24 56q104 -52 202 -52q112 0 171 80t59 232v1098h68v-1102q0 -178 -77 -275t-221 -97q-58 0 -118 16t-108 44z" />
<glyph unicode="&#x1c8;" horiz-adv-x="1504" d="M212 0v1448h72v-1382h678v-66h-750zM974 -376q100 32 153 80t76 128t23 214v1006h70v-1006q0 -152 -27 -242t-91 -146t-182 -94zM1200 1350q0 32 17 50t45 18t45 -17t17 -49t-17 -50t-45 -18t-45 17t-17 49z" />
<glyph unicode="&#x1c9;" horiz-adv-x="974" d="M200 152v1388h70v-1382q0 -54 25 -80t79 -26q32 0 72 8l10 -58q-48 -12 -94 -12q-80 0 -121 41t-41 121zM444 -376q100 32 153 80t76 128t23 214v1006h70v-1006q0 -152 -27 -242t-91 -146t-182 -94zM670 1350q0 32 17 50t45 18t45 -17t17 -49t-17 -50t-45 -18t-45 17 t-17 49z" />
<glyph unicode="&#x1ca;" horiz-adv-x="2126" d="M212 0v1448h68l868 -1328v1328h68v-1448h-68l-868 1328v-1328h-68zM1400 34l24 56q104 -52 202 -52q112 0 171 80t59 232v1098h68v-1102q0 -178 -77 -275t-221 -97q-58 0 -118 16t-108 44z" />
<glyph unicode="&#x1cb;" horiz-adv-x="1810" d="M212 0v1448h68l868 -1328v1328h68v-1448h-68l-868 1328v-1328h-68zM1280 -376q100 32 153 80t76 128t23 214v1006h70v-1006q0 -152 -27 -242t-91 -146t-182 -94zM1506 1350q0 32 17 50t45 18t45 -17t17 -49t-17 -50t-45 -18t-45 17t-17 49z" />
<glyph unicode="&#x1cc;" horiz-adv-x="1606" d="M204 0v1052h68v-138q74 80 164 122t188 42q146 0 228 -86t82 -240v-752h-70v740q0 134 -63 203t-185 69q-90 0 -173 -40t-169 -124v-848h-70zM1076 -376q100 32 153 80t76 128t23 214v1006h70v-1006q0 -152 -27 -242t-91 -146t-182 -94zM1302 1350q0 32 17 50t45 18 t45 -17t17 -49t-17 -50t-45 -18t-45 17t-17 49z" />
<glyph unicode="&#x1cd;" horiz-adv-x="1316" d="M80 0l534 1448h88l534 -1448h-76l-158 430h-690l-158 -430h-74zM336 496h642l-320 876zM376 1838v14h62l220 -234l220 234h62v-14l-248 -276h-68z" />
<glyph unicode="&#x1ce;" horiz-adv-x="1024" d="M98 278q0 186 162 274t504 90v96q0 136 -68 205t-202 69q-132 0 -262 -66l-22 62q62 34 137 52t149 18q158 0 248 -86t90 -240v-752h-68v146q-144 -168 -346 -168q-152 0 -237 79t-85 221zM170 278q0 -110 67 -173t185 -63q96 0 179 43t163 131v366q-304 -2 -449 -76 t-145 -228zM236 1556v12h62l190 -278l190 278h62v-12l-218 -326h-68z" />
<glyph unicode="&#x1cf;" horiz-adv-x="504" d="M-30 1838v14h62l220 -234l220 234h62v-14l-248 -276h-68zM216 0v1448h72v-1448h-72z" />
<glyph unicode="&#x1d0;" horiz-adv-x="486" d="M-8 1556v12h62l190 -278l190 278h62v-12l-218 -326h-68zM208 0v1052h70v-1052h-70z" />
<glyph unicode="&#x1d1;" horiz-adv-x="1408" d="M140 724q0 368 146 559t418 191t418 -191t146 -559t-146 -559t-418 -191t-418 191t-146 559zM214 724q0 -338 124 -511t366 -173t366 173t124 511t-124 511t-366 173t-366 -173t-124 -511zM422 1838v14h62l220 -234l220 234h62v-14l-248 -276h-68z" />
<glyph unicode="&#x1d2;" horiz-adv-x="1078" d="M126 526q0 270 107 411t307 141q198 0 305 -141t107 -411t-107 -411t-307 -141q-198 0 -305 141t-107 411zM198 526q0 -240 86 -364t254 -124t255 124t87 364t-86 364t-254 124t-255 -124t-87 -364zM288 1556v12h62l190 -278l190 278h62v-12l-218 -326h-68z" />
<glyph unicode="&#x1d3;" horiz-adv-x="1352" d="M202 500v948h72v-944q0 -226 104 -345t298 -119t298 119t104 345v944h72v-948q0 -250 -124 -388t-350 -138t-350 138t-124 388zM394 1838v14h62l220 -234l220 234h62v-14l-248 -276h-68z" />
<glyph unicode="&#x1d4;" horiz-adv-x="1112" d="M190 300v752h70v-740q0 -134 61 -203t181 -69q92 0 174 43t162 131v838h70v-1052h-68v146q-148 -172 -346 -172q-144 0 -224 86t-80 240zM298 1556v12h62l190 -278l190 278h62v-12l-218 -326h-68z" />
<glyph unicode="&#x1d5;" horiz-adv-x="1352" d="M202 500v948h72v-944q0 -226 104 -345t298 -119t298 119t104 345v944h72v-948q0 -250 -124 -388t-350 -138t-350 138t-124 388zM422 1886v56h512v-56h-512zM436 1644q0 30 16 48t44 18t44 -17t16 -47t-16 -48t-44 -18t-44 17t-16 47zM796 1644q0 30 16 48t44 18t44 -17 t16 -47t-16 -48t-44 -18t-44 17t-16 47z" />
<glyph unicode="&#x1d6;" horiz-adv-x="1112" d="M190 300v752h70v-740q0 -134 61 -203t181 -69q92 0 174 43t162 131v838h70v-1052h-68v146q-148 -172 -346 -172q-144 0 -224 86t-80 240zM296 1546v56h512v-56h-512zM310 1304q0 30 16 48t44 18t44 -17t16 -47t-16 -48t-44 -18t-44 17t-16 47zM670 1304q0 30 16 48t44 18 t44 -17t16 -47t-16 -48t-44 -18t-44 17t-16 47z" />
<glyph unicode="&#x1d7;" horiz-adv-x="1352" d="M202 500v948h72v-944q0 -226 104 -345t298 -119t298 119t104 345v944h72v-948q0 -250 -124 -388t-350 -138t-350 138t-124 388zM436 1644q0 30 16 48t44 18t44 -17t16 -47t-16 -48t-44 -18t-44 17t-16 47zM638 1808v12l180 262h72v-12l-192 -262h-60zM796 1644 q0 30 16 48t44 18t44 -17t16 -47t-16 -48t-44 -18t-44 17t-16 47z" />
<glyph unicode="&#x1d8;" horiz-adv-x="1112" d="M190 300v752h70v-740q0 -134 61 -203t181 -69q92 0 174 43t162 131v838h70v-1052h-68v146q-148 -172 -346 -172q-144 0 -224 86t-80 240zM310 1304q0 30 16 48t44 18t44 -17t16 -47t-16 -48t-44 -18t-44 17t-16 47zM512 1468v12l180 262h72v-12l-192 -262h-60zM670 1304 q0 30 16 48t44 18t44 -17t16 -47t-16 -48t-44 -18t-44 17t-16 47z" />
<glyph unicode="&#x1d9;" horiz-adv-x="1352" d="M202 500v948h72v-944q0 -226 104 -345t298 -119t298 119t104 345v944h72v-948q0 -250 -124 -388t-350 -138t-350 138t-124 388zM422 2080v12h62l194 -228l194 228h62v-12l-222 -274h-68zM436 1644q0 30 16 48t44 18t44 -17t16 -47t-16 -48t-44 -18t-44 17t-16 47z M796 1644q0 30 16 48t44 18t44 -17t16 -47t-16 -48t-44 -18t-44 17t-16 47z" />
<glyph unicode="&#x1da;" horiz-adv-x="1112" d="M190 300v752h70v-740q0 -134 61 -203t181 -69q92 0 174 43t162 131v838h70v-1052h-68v146q-148 -172 -346 -172q-144 0 -224 86t-80 240zM296 1740v12h62l194 -240l194 240h62v-12l-222 -286h-68zM310 1304q0 30 16 48t44 18t44 -17t16 -47t-16 -48t-44 -18t-44 17 t-16 47zM670 1304q0 30 16 48t44 18t44 -17t16 -47t-16 -48t-44 -18t-44 17t-16 47z" />
<glyph unicode="&#x1db;" horiz-adv-x="1352" d="M202 500v948h72v-944q0 -226 104 -345t298 -119t298 119t104 345v944h72v-948q0 -250 -124 -388t-350 -138t-350 138t-124 388zM436 1644q0 30 16 48t44 18t44 -17t16 -47t-16 -48t-44 -18t-44 17t-16 47zM478 2070v12h72l168 -262v-12h-60zM796 1644q0 30 16 48t44 18 t44 -17t16 -47t-16 -48t-44 -18t-44 17t-16 47z" />
<glyph unicode="&#x1dc;" horiz-adv-x="1112" d="M190 300v752h70v-740q0 -134 61 -203t181 -69q92 0 174 43t162 131v838h70v-1052h-68v146q-148 -172 -346 -172q-144 0 -224 86t-80 240zM310 1304q0 30 16 48t44 18t44 -17t16 -47t-16 -48t-44 -18t-44 17t-16 47zM352 1730v12h72l168 -262v-12h-60zM670 1304 q0 30 16 48t44 18t44 -17t16 -47t-16 -48t-44 -18t-44 17t-16 47z" />
<glyph unicode="&#x1dd;" horiz-adv-x="1044" d="M114 476q0 24 4 52h732q0 232 -98 357t-274 125q-160 0 -284 -90l-30 54q58 48 139 75t173 27q212 0 329 -144t117 -406t-108 -407t-304 -145q-186 0 -291 133t-105 369zM184 452q0 -194 88 -304t244 -110q152 0 237 110t95 320h-664v-16z" />
<glyph unicode="&#x1de;" horiz-adv-x="1316" d="M80 0l534 1448h88l534 -1448h-76l-158 430h-690l-158 -430h-74zM336 496h642l-320 876zM402 1954v62h512v-62h-512zM414 1690q0 30 16 48t44 18t44 -17t16 -49q0 -30 -16 -48t-44 -18t-44 17t-16 49zM782 1690q0 30 16 48t44 18t44 -17t16 -49q0 -30 -16 -48t-44 -18 t-44 17t-16 49z" />
<glyph unicode="&#x1df;" horiz-adv-x="1024" d="M98 278q0 186 162 274t504 90v96q0 136 -68 205t-202 69q-132 0 -262 -66l-22 62q62 34 137 52t149 18q158 0 248 -86t90 -240v-752h-68v146q-144 -168 -346 -168q-152 0 -237 79t-85 221zM170 278q0 -110 67 -173t185 -63q96 0 179 43t163 131v366q-304 -2 -449 -76 t-145 -228zM232 1602v62h512v-62h-512zM248 1350q0 30 16 48t44 18t44 -17t16 -49q0 -30 -16 -48t-44 -18t-44 17t-16 49zM608 1350q0 30 16 48t44 18t44 -17t16 -49q0 -30 -16 -48t-44 -18t-44 17t-16 49z" />
<glyph unicode="&#x1e0;" horiz-adv-x="1316" d="M80 0l534 1448h88l534 -1448h-76l-158 430h-690l-158 -430h-74zM336 496h642l-320 876zM402 1954v62h512v-62h-512zM596 1690q0 32 17 50t45 18t45 -17t17 -49t-17 -50t-45 -18t-45 17t-17 49z" />
<glyph unicode="&#x1e1;" horiz-adv-x="1024" d="M98 278q0 186 162 274t504 90v96q0 136 -68 205t-202 69q-132 0 -262 -66l-22 62q62 34 137 52t149 18q158 0 248 -86t90 -240v-752h-68v146q-144 -168 -346 -168q-152 0 -237 79t-85 221zM170 278q0 -110 67 -173t185 -63q96 0 179 43t163 131v366q-304 -2 -449 -76 t-145 -228zM232 1602v62h512v-62h-512zM426 1350q0 32 17 50t45 18t45 -17t17 -49t-17 -50t-45 -18t-45 17t-17 49z" />
<glyph unicode="&#x1e2;" horiz-adv-x="1780" d="M12 0l846 1448h80h710v-66h-688v-608h520v-66h-520v-642h712v-66h-784v414h-556l-242 -414h-78zM372 480h516v882zM684 1650v62h512v-62h-512z" />
<glyph unicode="&#x1e3;" horiz-adv-x="1640" d="M98 270q0 182 156 269t488 89v110q0 136 -65 205t-193 69q-126 0 -252 -66l-22 62q62 34 134 52t142 18q128 0 209 -62t103 -176q44 114 132 176t210 62q182 0 284 -133t102 -369q0 -24 -4 -52h-712q0 -226 96 -354t266 -128q158 0 274 90l30 -54q-56 -48 -136 -75 t-166 -27q-128 0 -222 57t-146 167q-92 -114 -188 -168t-208 -54q-148 0 -230 77t-82 215zM168 270q0 -108 64 -168t180 -60q104 0 190 50t180 166q-40 114 -40 266v44q-296 -2 -435 -74t-139 -224zM586 1310v62h512v-62h-512zM812 584h644v16q0 194 -85 304t-237 110 q-146 0 -230 -111t-92 -319z" />
<glyph unicode="&#x1e4;" horiz-adv-x="1322" d="M140 724q0 358 161 554t453 196q98 0 193 -23t167 -65l-26 -58q-156 78 -336 78q-262 0 -400 -175t-138 -507q0 -334 139 -509t401 -175q164 0 322 64v272h-288v62h288v208h-288v66h360v-274h142v-62h-142v-306q-82 -46 -186 -71t-208 -25q-292 0 -453 196t-161 554z" />
<glyph unicode="&#x1e5;" horiz-adv-x="1108" d="M86 -90h740q6 38 6 82v202q-134 -180 -332 -180q-184 0 -287 141t-103 393q0 250 104 390t288 140q100 0 187 -45t145 -127v146h68v-1056q0 -44 -6 -86h148v-56h-160q-34 -134 -141 -206t-273 -72q-72 0 -142 15t-118 41l22 62q108 -52 244 -52q134 0 219 54t117 158 h-726v56zM182 552q0 -232 83 -352t241 -120q94 0 173 45t153 141v564q-58 86 -146 134t-186 48q-156 0 -237 -117t-81 -343z" />
<glyph unicode="&#x1e6;" horiz-adv-x="1320" d="M140 724q0 358 161 554t453 196q98 0 193 -23t167 -65l-26 -58q-156 78 -336 78q-262 0 -400 -175t-138 -507q0 -334 139 -509t401 -175q164 0 322 64v542h-288v66h360v-642q-82 -46 -186 -71t-208 -25q-292 0 -453 196t-161 554zM428 1838v14h62l220 -234l220 234h62 v-14l-248 -276h-68z" />
<glyph unicode="&#x1e7;" horiz-adv-x="1122" d="M126 548q0 250 104 390t288 140q100 0 187 -45t145 -127v146h68v-1056q0 -202 -113 -311t-319 -109q-72 0 -142 15t-118 41l22 62q108 -52 244 -52q172 0 264 90t92 260v202q-134 -180 -332 -180q-184 0 -287 141t-103 393zM198 552q0 -232 83 -352t241 -120q94 0 173 45 t153 141v564q-58 86 -146 134t-186 48q-156 0 -237 -117t-81 -343zM302 1556v12h62l190 -278l190 278h62v-12l-218 -326h-68z" />
<glyph unicode="&#x1e8;" horiz-adv-x="1216" d="M212 0v1448h72v-882l788 882h86l-572 -640l586 -808h-86l-548 754l-254 -284v-470h-72zM352 1838v14h62l220 -234l220 234h62v-14l-248 -276h-68z" />
<glyph unicode="&#x1e9;" horiz-adv-x="1036" d="M-42 1930v14h62l220 -234l220 234h62v-14l-248 -276h-68zM204 0v1540h70v-1108l584 620h84l-432 -456l454 -596h-84l-416 546l-190 -200v-346h-70z" />
<glyph unicode="&#x1ea;" horiz-adv-x="1408" d="M140 724q0 368 146 559t418 191t418 -191t146 -559v-4q0 -266 -81 -447t-251 -253q-276 -118 -276 -280q0 -56 31 -86t89 -30q70 0 138 42l24 -46q-72 -54 -170 -54q-84 0 -130 42t-46 120q0 70 39 135t113 113q-14 -2 -44 -2q-272 0 -418 191t-146 559zM214 724 q0 -338 124 -511t366 -173t366 173t124 511t-124 511t-366 173t-366 -173t-124 -511z" />
<glyph unicode="&#x1eb;" horiz-adv-x="1078" d="M126 526q0 270 107 411t307 141q198 0 305 -141t107 -411q0 -200 -52 -318t-176 -192q-234 -140 -234 -276q0 -56 31 -86t89 -30q70 0 138 42l24 -46q-72 -54 -170 -54q-84 0 -130 42t-46 120q0 66 36 130t102 118q-10 -2 -26 -2q-198 0 -305 141t-107 411zM198 526 q0 -240 86 -364t254 -124t255 124t87 364t-86 364t-254 124t-255 -124t-87 -364z" />
<glyph unicode="&#x1ec;" horiz-adv-x="1408" d="M140 724q0 368 146 559t418 191t418 -191t146 -559v-4q0 -266 -81 -447t-251 -253q-276 -118 -276 -280q0 -56 31 -86t89 -30q70 0 138 42l24 -46q-72 -54 -170 -54q-84 0 -130 42t-46 120q0 70 39 135t113 113q-14 -2 -44 -2q-272 0 -418 191t-146 559zM214 724 q0 -338 124 -511t366 -173t366 173t124 511t-124 511t-366 173t-366 -173t-124 -511zM448 1650v62h512v-62h-512z" />
<glyph unicode="&#x1ed;" horiz-adv-x="1078" d="M126 526q0 270 107 411t307 141q198 0 305 -141t107 -411q0 -200 -52 -318t-176 -192q-234 -140 -234 -276q0 -56 31 -86t89 -30q70 0 138 42l24 -46q-72 -54 -170 -54q-84 0 -130 42t-46 120q0 66 36 130t102 118q-10 -2 -26 -2q-198 0 -305 141t-107 411zM198 526 q0 -240 86 -364t254 -124t255 124t87 364t-86 364t-254 124t-255 -124t-87 -364zM284 1310v62h512v-62h-512z" />
<glyph unicode="&#x1ee;" horiz-adv-x="1110" d="M70 86l32 62q212 -104 408 -104q186 0 291 98t105 280q0 342 -466 342h-82v52l464 566h-690v66h778v-68l-454 -548q246 -2 385 -102t139 -308q0 -216 -124 -331t-344 -115q-116 0 -233 29t-209 81zM222 1838v14h62l220 -234l220 234h62v-14l-248 -276h-68z" />
<glyph unicode="&#x1ef;" horiz-adv-x="956" d="M60 -354l28 60q178 -76 318 -76q166 0 274 92t108 270q0 180 -114 268t-312 88h-80v52l424 592h-622v60h708v-62l-422 -578q232 -2 361 -105t129 -313q0 -214 -128 -322t-322 -108q-96 0 -192 24t-158 58zM182 1556v12h62l190 -278l190 278h62v-12l-218 -326h-68z" />
<glyph unicode="&#x1f0;" horiz-adv-x="486" d="M-44 -376q100 32 153 80t76 128t23 214v1006h70v-1006q0 -152 -27 -242t-91 -146t-182 -94zM-8 1556v12h62l190 -278l190 278h62v-12l-218 -326h-68z" />
<glyph unicode="&#x1f1;" horiz-adv-x="2364" d="M212 0v1448h362q308 0 478 -189t170 -531q0 -346 -173 -537t-487 -191h-350zM284 66h290q280 0 427 168t147 488q0 322 -150 491t-436 169h-278v-1316zM1386 0v66l774 1316h-750v66h834v-66l-774 -1316h782v-66h-866z" />
<glyph unicode="&#x1f2;" horiz-adv-x="2194" d="M212 0v1448h362q308 0 478 -189t170 -531q0 -346 -173 -537t-487 -191h-350zM284 66h290q280 0 427 168t147 488q0 322 -150 491t-436 169h-278v-1316zM1406 0v60l592 932h-576v60h652v-60l-592 -932h600v-60h-676z" />
<glyph unicode="&#x1f3;" horiz-adv-x="1884" d="M126 530q0 262 101 406t287 144q100 0 186 -44t144 -124v628h70v-1472v-68h-68v158q-134 -182 -334 -182q-184 0 -285 145t-101 409zM198 534q0 -240 83 -366t237 -126q94 0 173 45t153 141v604q-58 86 -146 134t-186 48q-152 0 -233 -123t-81 -357zM1096 0v60l592 932 h-576v60h652v-60l-592 -932h600v-60h-676z" />
<glyph unicode="&#x1f4;" horiz-adv-x="1320" d="M140 724q0 358 161 554t453 196q98 0 193 -23t167 -65l-26 -58q-156 78 -336 78q-262 0 -400 -175t-138 -507q0 -334 139 -509t401 -175q164 0 322 64v542h-288v66h360v-642q-82 -46 -186 -71t-208 -25q-292 0 -453 196t-161 554zM614 1562v14l332 276h86v-14l-348 -276 h-70z" />
<glyph unicode="&#x1f5;" horiz-adv-x="1122" d="M126 548q0 250 104 390t288 140q100 0 187 -45t145 -127v146h68v-1056q0 -202 -113 -311t-319 -109q-72 0 -142 15t-118 41l22 62q108 -52 244 -52q172 0 264 90t92 260v202q-134 -180 -332 -180q-184 0 -287 141t-103 393zM198 552q0 -232 83 -352t241 -120q94 0 173 45 t153 141v564q-58 86 -146 134t-186 48q-156 0 -237 -117t-81 -343zM476 1230v12l232 326h78v-12l-248 -326h-62z" />
<glyph unicode="&#x1f6;" horiz-adv-x="1988" d="M212 0v1448h72v-680h816v680h72v-1056v-80q0 -272 250 -272q142 0 217 115t75 337q0 130 -15 260t-59 300h70q44 -172 59 -305t15 -267q0 -242 -95 -374t-267 -132q-156 0 -239 86t-83 240v132v270h-816v-702h-72z" />
<glyph unicode="&#x1f7;" horiz-adv-x="1098" d="M212 -414v1862h70v-226q82 134 178 193t212 59q166 0 262 -107t96 -289q0 -198 -113 -369t-315 -309l-318 -220v-594h-72zM284 262l294 202q178 122 278 278t100 318q0 164 -80 255t-220 91q-104 0 -193 -61t-179 -207v-876z" />
<glyph unicode="&#x1f8;" horiz-adv-x="1428" d="M212 0v1448h68l868 -1328v1328h68v-1448h-68l-868 1328v-1328h-68zM408 1838v14h86l314 -276v-14h-70z" />
<glyph unicode="&#x1f9;" horiz-adv-x="1128" d="M204 0v1052h68v-138q74 80 164 122t188 42q146 0 228 -86t82 -240v-752h-70v740q0 134 -63 203t-185 69q-90 0 -173 -40t-169 -124v-848h-70zM362 1556v12h78l216 -326v-12h-62z" />
<glyph unicode="&#x1fa;" horiz-adv-x="1316" d="M80 0l510 1380q-60 16 -92 62t-32 116q0 88 50 137t140 49t140 -49t50 -137q0 -68 -31 -114t-89 -62l510 -1382h-76l-158 430h-690l-158 -430h-74zM336 496h642l-320 876zM528 1558q0 -64 33 -98t95 -34t95 34t33 98t-33 98t-95 34t-95 -34t-33 -98zM582 1818v14l312 260 h86v-14l-328 -260h-70z" />
<glyph unicode="&#x1fb;" horiz-adv-x="1024" d="M98 278q0 186 162 274t504 90v96q0 136 -68 205t-202 69q-132 0 -262 -66l-22 62q62 34 137 52t149 18q158 0 248 -86t90 -240v-752h-68v146q-144 -168 -346 -168q-152 0 -237 79t-85 221zM170 278q0 -110 67 -173t185 -63q96 0 179 43t163 131v366q-304 -2 -449 -76 t-145 -228zM298 1394q0 88 50 137t140 49t140 -49t50 -137t-50 -137t-140 -49t-140 49t-50 137zM360 1394q0 -128 128 -128t128 128t-128 128t-128 -128zM448 1710v12l180 262h72v-12l-192 -262h-60z" />
<glyph unicode="&#x1fc;" horiz-adv-x="1780" d="M12 0l846 1448h80h710v-66h-688v-608h520v-66h-520v-642h712v-66h-784v414h-556l-242 -414h-78zM372 480h516v882zM844 1562v14l332 276h86v-14l-348 -276h-70z" />
<glyph unicode="&#x1fd;" horiz-adv-x="1640" d="M98 270q0 182 156 269t488 89v110q0 136 -65 205t-193 69q-126 0 -252 -66l-22 62q62 34 134 52t142 18q128 0 209 -62t103 -176q44 114 132 176t210 62q182 0 284 -133t102 -369q0 -24 -4 -52h-712q0 -226 96 -354t266 -128q158 0 274 90l30 -54q-56 -48 -136 -75 t-166 -27q-128 0 -222 57t-146 167q-92 -114 -188 -168t-208 -54q-148 0 -230 77t-82 215zM168 270q0 -108 64 -168t180 -60q104 0 190 50t180 166q-40 114 -40 266v44q-296 -2 -435 -74t-139 -224zM764 1230v12l232 326h78v-12l-248 -326h-62zM812 584h644v16 q0 194 -85 304t-237 110q-146 0 -230 -111t-92 -319z" />
<glyph unicode="&#x1fe;" horiz-adv-x="1408" d="M80 -6l174 216q-114 192 -114 514q0 368 146 559t418 191q270 0 414 -184l142 178h68v-14l-174 -216q114 -192 114 -514q0 -368 -146 -559t-418 -191q-270 0 -414 184l-142 -178h-68v14zM212 724q0 -284 90 -456l772 966q-128 176 -370 176t-367 -174t-125 -512zM334 214 q128 -176 370 -176t367 174t125 512q0 286 -90 456zM608 1562v14l332 276h86v-14l-348 -276h-70z" />
<glyph unicode="&#x1ff;" horiz-adv-x="1078" d="M66 -8l138 170q-78 136 -78 364q0 270 107 411t307 141q190 0 296 -130l110 140h66v-12l-142 -176q82 -136 82 -374q0 -270 -107 -411t-307 -141q-196 0 -302 138l-104 -132h-66v12zM196 526q0 -190 54 -308l542 678q-84 120 -252 120q-170 0 -257 -124t-87 -366z M280 166q88 -130 258 -130t257 124t87 366q0 196 -58 318zM466 1230v12l232 326h78v-12l-248 -326h-62z" />
<glyph unicode="&#x200;" horiz-adv-x="1316" d="M80 0l534 1448h88l534 -1448h-76l-158 430h-690l-158 -430h-74zM288 1838v14h74l210 -276v-14h-60zM336 496h642l-320 876zM584 1838v14h74l210 -276v-14h-60z" />
<glyph unicode="&#x201;" horiz-adv-x="1024" d="M98 278q0 186 162 274t504 90v96q0 136 -68 205t-202 69q-132 0 -262 -66l-22 62q62 34 137 52t149 18q158 0 248 -86t90 -240v-752h-68v146q-144 -168 -346 -168q-152 0 -237 79t-85 221zM170 278q0 -110 67 -173t185 -63q96 0 179 43t163 131v366q-304 -2 -449 -76 t-145 -228zM194 1556v12h72l134 -326v-12h-56zM476 1556v12h72l134 -326v-12h-56z" />
<glyph unicode="&#x202;" horiz-adv-x="1316" d="M80 0l534 1448h88l534 -1448h-76l-158 430h-690l-158 -430h-74zM336 496h642l-320 876zM408 1598q6 116 73 180t179 64t179 -64t73 -180h-58q-12 90 -62 136t-134 46q-82 0 -131 -46t-61 -136h-58z" />
<glyph unicode="&#x203;" horiz-adv-x="1024" d="M98 278q0 186 162 274t504 90v96q0 136 -68 205t-202 69q-132 0 -262 -66l-22 62q62 34 137 52t149 18q158 0 248 -86t90 -240v-752h-68v146q-144 -168 -346 -168q-152 0 -237 79t-85 221zM170 278q0 -110 67 -173t185 -63q96 0 179 43t163 131v366q-304 -2 -449 -76 t-145 -228zM236 1258q6 116 73 180t179 64t179 -64t73 -180h-58q-12 90 -62 136t-134 46q-82 0 -131 -46t-61 -136h-58z" />
<glyph unicode="&#x204;" horiz-adv-x="1132" d="M212 0v1448h788v-66h-716v-608h548v-66h-548v-642h740v-66h-812zM248 1838v14h74l210 -276v-14h-60zM544 1838v14h74l210 -276v-14h-60z" />
<glyph unicode="&#x205;" horiz-adv-x="1044" d="M122 526q0 262 108 407t304 145q186 0 291 -133t105 -369q0 -24 -4 -52h-732q0 -232 98 -357t274 -125q160 0 284 90l30 -54q-58 -48 -139 -75t-173 -27q-212 0 -329 144t-117 406zM196 584h664v16q0 194 -88 304t-244 110q-152 0 -237 -110t-95 -320zM238 1556v12h72 l134 -326v-12h-56zM520 1556v12h72l134 -326v-12h-56z" />
<glyph unicode="&#x206;" horiz-adv-x="1132" d="M212 0v1448h788v-66h-716v-608h548v-66h-548v-642h740v-66h-812zM368 1598q6 116 73 180t179 64t179 -64t73 -180h-58q-12 90 -62 136t-134 46q-82 0 -131 -46t-61 -136h-58z" />
<glyph unicode="&#x207;" horiz-adv-x="1044" d="M122 526q0 262 108 407t304 145q186 0 291 -133t105 -369q0 -24 -4 -52h-732q0 -232 98 -357t274 -125q160 0 284 90l30 -54q-58 -48 -139 -75t-173 -27q-212 0 -329 144t-117 406zM196 584h664v16q0 194 -88 304t-244 110q-152 0 -237 -110t-95 -320zM280 1258 q6 116 73 180t179 64t179 -64t73 -180h-58q-12 90 -62 136t-134 46q-82 0 -131 -46t-61 -136h-58z" />
<glyph unicode="&#x208;" horiz-adv-x="504" d="M-118 1838v14h74l210 -276v-14h-60zM178 1838v14h74l210 -276v-14h-60zM216 0v1448h72v-1448h-72z" />
<glyph unicode="&#x209;" horiz-adv-x="486" d="M-50 1556v12h72l134 -326v-12h-56zM208 0v1052h70v-1052h-70zM232 1556v12h72l134 -326v-12h-56z" />
<glyph unicode="&#x20a;" horiz-adv-x="504" d="M2 1598q6 116 73 180t179 64t179 -64t73 -180h-58q-12 90 -62 136t-134 46q-82 0 -131 -46t-61 -136h-58zM216 0v1448h72v-1448h-72z" />
<glyph unicode="&#x20b;" horiz-adv-x="486" d="M-8 1258q6 116 73 180t179 64t179 -64t73 -180h-58q-12 90 -62 136t-134 46q-82 0 -131 -46t-61 -136h-58zM208 0v1052h70v-1052h-70z" />
<glyph unicode="&#x20c;" horiz-adv-x="1408" d="M140 724q0 368 146 559t418 191t418 -191t146 -559t-146 -559t-418 -191t-418 191t-146 559zM214 724q0 -338 124 -511t366 -173t366 173t124 511t-124 511t-366 173t-366 -173t-124 -511zM334 1838v14h74l210 -276v-14h-60zM630 1838v14h74l210 -276v-14h-60z" />
<glyph unicode="&#x20d;" horiz-adv-x="1078" d="M126 526q0 270 107 411t307 141q198 0 305 -141t107 -411t-107 -411t-307 -141q-198 0 -305 141t-107 411zM198 526q0 -240 86 -364t254 -124t255 124t87 364t-86 364t-254 124t-255 -124t-87 -364zM246 1556v12h72l134 -326v-12h-56zM528 1556v12h72l134 -326v-12h-56z " />
<glyph unicode="&#x20e;" horiz-adv-x="1408" d="M140 724q0 368 146 559t418 191t418 -191t146 -559t-146 -559t-418 -191t-418 191t-146 559zM214 724q0 -338 124 -511t366 -173t366 173t124 511t-124 511t-366 173t-366 -173t-124 -511zM454 1598q6 116 73 180t179 64t179 -64t73 -180h-58q-12 90 -62 136t-134 46 q-82 0 -131 -46t-61 -136h-58z" />
<glyph unicode="&#x20f;" horiz-adv-x="1078" d="M126 526q0 270 107 411t307 141q198 0 305 -141t107 -411t-107 -411t-307 -141q-198 0 -305 141t-107 411zM198 526q0 -240 86 -364t254 -124t255 124t87 364t-86 364t-254 124t-255 -124t-87 -364zM288 1258q6 116 73 180t179 64t179 -64t73 -180h-58q-12 90 -62 136 t-134 46q-82 0 -131 -46t-61 -136h-58z" />
<glyph unicode="&#x210;" horiz-adv-x="1246" d="M212 0v1448h72h380q202 0 311 -110t109 -312q0 -182 -91 -291t-261 -131l406 -604h-88l-396 600h-370v-600h-72zM254 1838v14h74l210 -276v-14h-60zM284 666h380q168 0 257 91t89 263q0 176 -91 269t-263 93h-372v-716zM550 1838v14h74l210 -276v-14h-60z" />
<glyph unicode="&#x211;" horiz-adv-x="764" d="M152 1556v12h72l134 -326v-12h-56zM204 0v1052h68v-170q64 98 136 145t158 47q70 0 142 -26l-20 -64q-72 22 -130 22q-80 0 -149 -49t-135 -151v-806h-70zM434 1556v12h72l134 -326v-12h-56z" />
<glyph unicode="&#x212;" horiz-adv-x="1246" d="M212 0v1448h72h380q202 0 311 -110t109 -312q0 -182 -91 -291t-261 -131l406 -604h-88l-396 600h-370v-600h-72zM284 666h380q168 0 257 91t89 263q0 176 -91 269t-263 93h-372v-716zM374 1598q6 116 73 180t179 64t179 -64t73 -180h-58q-12 90 -62 136t-134 46 q-82 0 -131 -46t-61 -136h-58z" />
<glyph unicode="&#x213;" horiz-adv-x="764" d="M194 1258q6 116 73 180t179 64t179 -64t73 -180h-58q-12 90 -62 136t-134 46q-82 0 -131 -46t-61 -136h-58zM204 0v1052h68v-170q64 98 136 145t158 47q70 0 142 -26l-20 -64q-72 22 -130 22q-80 0 -149 -49t-135 -151v-806h-70z" />
<glyph unicode="&#x214;" horiz-adv-x="1352" d="M202 500v948h72v-944q0 -226 104 -345t298 -119t298 119t104 345v944h72v-948q0 -250 -124 -388t-350 -138t-350 138t-124 388zM306 1838v14h74l210 -276v-14h-60zM602 1838v14h74l210 -276v-14h-60z" />
<glyph unicode="&#x215;" horiz-adv-x="1112" d="M190 300v752h70v-740q0 -134 61 -203t181 -69q92 0 174 43t162 131v838h70v-1052h-68v146q-148 -172 -346 -172q-144 0 -224 86t-80 240zM256 1556v12h72l134 -326v-12h-56zM538 1556v12h72l134 -326v-12h-56z" />
<glyph unicode="&#x216;" horiz-adv-x="1352" d="M202 500v948h72v-944q0 -226 104 -345t298 -119t298 119t104 345v944h72v-948q0 -250 -124 -388t-350 -138t-350 138t-124 388zM426 1598q6 116 73 180t179 64t179 -64t73 -180h-58q-12 90 -62 136t-134 46q-82 0 -131 -46t-61 -136h-58z" />
<glyph unicode="&#x217;" horiz-adv-x="1112" d="M190 300v752h70v-740q0 -134 61 -203t181 -69q92 0 174 43t162 131v838h70v-1052h-68v146q-148 -172 -346 -172q-144 0 -224 86t-80 240zM298 1258q6 116 73 180t179 64t179 -64t73 -180h-58q-12 90 -62 136t-134 46q-82 0 -131 -46t-61 -136h-58z" />
<glyph unicode="&#x218;" horiz-adv-x="1104" d="M100 88l28 58q192 -104 406 -104q182 0 278 80t96 236q0 124 -68 200t-220 118l-164 46q-172 48 -253 139t-81 237q0 178 112 276t316 98q98 0 203 -23t195 -63l-28 -62q-194 82 -376 82q-172 0 -262 -76t-90 -226q0 -126 69 -199t221 -115l164 -46q174 -48 254 -139 t80 -237q0 -186 -117 -289t-329 -103q-114 0 -229 30t-205 82zM404 -502q58 56 82 112t24 140q0 32 -4 68h70q4 -36 4 -66q0 -92 -34 -160t-110 -130z" />
<glyph unicode="&#x219;" horiz-adv-x="886" d="M92 72l26 58q142 -90 312 -90q132 0 201 59t69 173q0 94 -49 145t-151 75l-142 34q-126 30 -185 94t-59 172q0 136 85 210t239 74q164 0 308 -80l-28 -58q-138 74 -286 74q-120 0 -185 -55t-65 -159q0 -82 46 -131t148 -75l142 -34q130 -30 191 -98t61 -182 q0 -144 -89 -223t-251 -79q-92 0 -181 25t-157 71zM292 -502q58 56 82 112t24 140q0 32 -4 68h70q4 -36 4 -66q0 -92 -34 -160t-110 -130z" />
<glyph unicode="&#x21a;" horiz-adv-x="1036" d="M80 1382v66h474h402v-66h-402v-1382h-72v1382h-402zM378 -502q58 56 82 112t24 140q0 32 -4 68h70q4 -36 4 -66q0 -92 -34 -160t-110 -130z" />
<glyph unicode="&#x21b;" horiz-adv-x="704" d="M62 992v60h178v308h70v-308h310v-60h-310v-722q0 -106 48 -161t140 -55q52 0 116 16l14 -60q-62 -22 -136 -22q-118 0 -185 70t-67 196v738h-178zM284 -502q58 56 82 112t24 140q0 32 -4 68h70q4 -36 4 -66q0 -92 -34 -160t-110 -130z" />
<glyph unicode="&#x21c;" horiz-adv-x="1092" d="M160 -116q338 50 528 158t190 328q0 248 -284 374q-96 -54 -258 -116l-24 64q192 74 297 141t146 136t41 157q0 134 -80 208t-214 74q-96 0 -163 -22t-147 -68l-30 60q78 46 159 71t193 25q162 0 259 -89t97 -243q0 -116 -47 -200t-165 -160q136 -60 215 -168t79 -244 q0 -248 -201 -375t-577 -183z" />
<glyph unicode="&#x21d;" horiz-adv-x="926" d="M96 -368q308 58 470 159t162 295q0 110 -72 196t-186 146q-78 -44 -222 -100l-22 60q246 94 338 185t92 203q0 108 -69 173t-189 65q-70 0 -129 -18t-135 -54l-26 60q144 76 296 76q148 0 235 -81t87 -215q0 -98 -44 -174t-150 -144q120 -62 194 -159t74 -219 q0 -162 -86 -264t-235 -160t-369 -98z" />
<glyph unicode="&#x21e;" horiz-adv-x="1384" d="M212 0v1448h72v-680h816v680h72v-1448h-72v702h-816v-702h-72zM410 1838v14h62l220 -234l220 234h62v-14l-248 -276h-68z" />
<glyph unicode="&#x21f;" horiz-adv-x="1132" d="M-40 1930v14h62l220 -234l220 234h62v-14l-248 -276h-68zM204 0v1540h70v-624q152 162 352 162q146 0 229 -86t83 -240v-752h-70v740q0 134 -64 203t-186 69q-92 0 -175 -40t-169 -124v-848h-70z" />
<glyph unicode="&#x220;" horiz-adv-x="1306" d="M212 0v1448h70v-176q110 102 217 152t227 50q178 0 278 -105t100 -293v-1336h-72v1320q0 168 -82 257t-234 89q-108 0 -213 -51t-219 -155v-1200h-72z" />
<glyph unicode="&#x221;" horiz-adv-x="1118" d="M126 530q0 262 101 406t287 144q100 0 186 -44t144 -124v628h70v-1356v-182q66 30 134 30q94 0 145 -50t51 -136q0 -84 -51 -136t-139 -52q-94 0 -152 57t-58 155v16q-52 -42 -122 -110l-62 -62l-46 48l62 60q96 92 168 140v194q-134 -180 -332 -180q-184 0 -285 145 t-101 409zM198 534q0 -240 83 -366t237 -126q94 0 173 45t153 141v604q-58 86 -146 134t-186 48q-152 0 -233 -123t-81 -357zM914 -66v-54q0 -76 37 -118t103 -42q62 0 93 34t31 92t-33 91t-103 33q-66 0 -128 -36z" />
<glyph unicode="&#x222;" horiz-adv-x="1204" d="M108 378q0 122 74 232t238 150q-146 44 -210 138t-64 206q0 264 286 370l26 -60q-240 -90 -240 -308q0 -82 43 -155t129 -118t212 -45t212 45t129 118t43 155q0 218 -240 308l26 60q286 -106 286 -370q0 -112 -64 -206t-210 -138q164 -40 238 -150t74 -232 q0 -116 -57 -208t-168 -144t-269 -52t-269 52t-168 144t-57 208zM182 380q0 -152 112 -246t308 -94t308 94t112 246q0 156 -111 248t-309 92q-196 0 -308 -92t-112 -248z" />
<glyph unicode="&#x223;" horiz-adv-x="1144" d="M126 402q0 134 66 248t216 156q-132 48 -190 147t-58 219q0 278 252 392l28 -60q-106 -48 -158 -129t-52 -201q0 -88 37 -165t114 -126t191 -49t191 49t114 126t37 165q0 120 -52 201t-158 129l28 60q252 -114 252 -392q0 -120 -58 -219t-190 -147q150 -42 216 -156 t66 -248q0 -194 -116 -311t-330 -117t-330 117t-116 311zM198 404q0 -164 99 -265t275 -101t275 101t99 265q0 166 -99 265t-275 99t-275 -99t-99 -265z" />
<glyph unicode="&#x224;" horiz-adv-x="1086" d="M108 0v66l774 1316h-750v66h834v-66l-774 -1316h536q134 0 210 -69t76 -193q0 -42 -8 -80h-70q6 44 6 82q0 92 -57 143t-157 51h-620z" />
<glyph unicode="&#x225;" horiz-adv-x="954" d="M108 0v60l592 932h-576v60h652v-60l-592 -932h376q134 -2 208 -71t74 -191q0 -48 -6 -80h-68q6 48 6 82q0 94 -58 147t-160 53h-22h-426z" />
<glyph unicode="&#x226;" horiz-adv-x="1316" d="M80 0l534 1448h88l534 -1448h-76l-158 430h-690l-158 -430h-74zM336 496h642l-320 876zM596 1690q0 32 17 50t45 18t45 -17t17 -49t-17 -50t-45 -18t-45 17t-17 49z" />
<glyph unicode="&#x227;" horiz-adv-x="1024" d="M98 278q0 186 162 274t504 90v96q0 136 -68 205t-202 69q-132 0 -262 -66l-22 62q62 34 137 52t149 18q158 0 248 -86t90 -240v-752h-68v146q-144 -168 -346 -168q-152 0 -237 79t-85 221zM170 278q0 -110 67 -173t185 -63q96 0 179 43t163 131v366q-304 -2 -449 -76 t-145 -228zM426 1350q0 32 17 50t45 18t45 -17t17 -49t-17 -50t-45 -18t-45 17t-17 49z" />
<glyph unicode="&#x228;" horiz-adv-x="1132" d="M212 0v1448h788v-66h-716v-608h548v-66h-548v-642h740v-66h-368l-72 -144q32 8 54 8q84 0 131 -40t47 -112q0 -78 -52 -122t-144 -44q-98 0 -174 44l20 50q74 -36 154 -36q134 0 134 106q0 98 -122 98q-50 0 -90 -18l-26 24l78 186h-382z" />
<glyph unicode="&#x229;" horiz-adv-x="1044" d="M122 526q0 262 108 407t304 145q186 0 291 -133t105 -369q0 -24 -4 -52h-732q0 -232 98 -357t274 -125q160 0 284 90l30 -54q-58 -48 -139 -75t-173 -27h-12l-60 -120q32 8 54 8q84 0 131 -40t47 -112q0 -78 -52 -122t-144 -44q-98 0 -174 44l20 50q76 -36 154 -36 q134 0 134 106q0 98 -122 98q-50 0 -90 -18l-26 24l70 166q-180 24 -278 165t-98 381zM196 584h664v16q0 194 -88 304t-244 110q-152 0 -237 -110t-95 -320z" />
<glyph unicode="&#x22a;" horiz-adv-x="1408" d="M140 724q0 368 146 559t418 191t418 -191t146 -559t-146 -559t-418 -191t-418 191t-146 559zM214 724q0 -338 124 -511t366 -173t366 173t124 511t-124 511t-366 173t-366 -173t-124 -511zM448 1954v62h512v-62h-512zM460 1690q0 30 16 48t44 18t44 -17t16 -49 q0 -30 -16 -48t-44 -18t-44 17t-16 49zM828 1690q0 30 16 48t44 18t44 -17t16 -49q0 -30 -16 -48t-44 -18t-44 17t-16 49z" />
<glyph unicode="&#x22b;" horiz-adv-x="1078" d="M126 526q0 270 107 411t307 141q198 0 305 -141t107 -411t-107 -411t-307 -141q-198 0 -305 141t-107 411zM198 526q0 -240 86 -364t254 -124t255 124t87 364t-86 364t-254 124t-255 -124t-87 -364zM284 1602v62h512v-62h-512zM300 1350q0 30 16 48t44 18t44 -17t16 -49 q0 -30 -16 -48t-44 -18t-44 17t-16 49zM660 1350q0 30 16 48t44 18t44 -17t16 -49q0 -30 -16 -48t-44 -18t-44 17t-16 49z" />
<glyph unicode="&#x22c;" horiz-adv-x="1408" d="M140 724q0 368 146 559t418 191t418 -191t146 -559t-146 -559t-418 -191t-418 191t-146 559zM214 724q0 -338 124 -511t366 -173t366 173t124 511t-124 511t-366 173t-366 -173t-124 -511zM436 1632q0 94 42 148t116 54q50 0 76 -20t56 -60q22 -32 41 -49t53 -17 q90 0 100 142h52q0 -94 -42 -148t-116 -54q-50 0 -76 20t-56 60q-22 32 -41 49t-53 17q-90 0 -100 -142h-52zM448 1960v62h512v-62h-512z" />
<glyph unicode="&#x22d;" horiz-adv-x="1078" d="M126 526q0 270 107 411t307 141q198 0 305 -141t107 -411t-107 -411t-307 -141q-198 0 -305 141t-107 411zM198 526q0 -240 86 -364t254 -124t255 124t87 364t-86 364t-254 124t-255 -124t-87 -364zM242 1244q2 112 47 173t121 61q52 0 84 -25t66 -71q28 -40 52 -60 t60 -20q100 0 112 172h54q-2 -112 -47 -173t-121 -61q-52 0 -84 25t-66 71q-28 40 -52 60t-60 20q-100 0 -112 -172h-54zM284 1660v62h512v-62h-512z" />
<glyph unicode="&#x22e;" horiz-adv-x="1408" d="M140 724q0 368 146 559t418 191t418 -191t146 -559t-146 -559t-418 -191t-418 191t-146 559zM214 724q0 -338 124 -511t366 -173t366 173t124 511t-124 511t-366 173t-366 -173t-124 -511zM642 1690q0 32 17 50t45 18t45 -17t17 -49t-17 -50t-45 -18t-45 17t-17 49z" />
<glyph unicode="&#x22f;" horiz-adv-x="1078" d="M126 526q0 270 107 411t307 141q198 0 305 -141t107 -411t-107 -411t-307 -141q-198 0 -305 141t-107 411zM198 526q0 -240 86 -364t254 -124t255 124t87 364t-86 364t-254 124t-255 -124t-87 -364zM478 1350q0 32 17 50t45 18t45 -17t17 -49t-17 -50t-45 -18t-45 17 t-17 49z" />
<glyph unicode="&#x230;" horiz-adv-x="1408" d="M140 724q0 368 146 559t418 191t418 -191t146 -559t-146 -559t-418 -191t-418 191t-146 559zM214 724q0 -338 124 -511t366 -173t366 173t124 511t-124 511t-366 173t-366 -173t-124 -511zM448 1954v62h512v-62h-512zM642 1690q0 32 17 50t45 18t45 -17t17 -49t-17 -50 t-45 -18t-45 17t-17 49z" />
<glyph unicode="&#x231;" horiz-adv-x="1078" d="M126 526q0 270 107 411t307 141q198 0 305 -141t107 -411t-107 -411t-307 -141q-198 0 -305 141t-107 411zM198 526q0 -240 86 -364t254 -124t255 124t87 364t-86 364t-254 124t-255 -124t-87 -364zM284 1602v62h512v-62h-512zM478 1350q0 32 17 50t45 18t45 -17t17 -49 t-17 -50t-45 -18t-45 17t-17 49z" />
<glyph unicode="&#x232;" horiz-adv-x="1156" d="M72 1448h76l430 -836l430 836h76l-470 -912v-536h-72v536zM320 1650v62h512v-62h-512z" />
<glyph unicode="&#x233;" horiz-adv-x="998" d="M96 -370q132 44 223 132t147 230l-370 1060h74l330 -972l328 972h74l-370 -1068q-54 -158 -159 -265t-253 -153zM248 1310v62h512v-62h-512z" />
<glyph unicode="&#x234;" horiz-adv-x="528" d="M-62 -326l62 60q96 92 168 140v224v1442h70v-1626q64 30 134 30q94 0 145 -50t51 -136q0 -84 -51 -136t-139 -52q-94 0 -152 57t-58 155v16q-52 -42 -122 -110l-62 -62zM238 -154v-54q0 -76 37 -118t103 -42q62 0 93 34t31 92t-33 91t-103 33q-66 0 -128 -36z" />
<glyph unicode="&#x235;" horiz-adv-x="1318" d="M204 0v1052h68v-138q74 80 164 122t188 42q146 0 228 -86t82 -240v-316v-118q66 30 134 30q94 0 145 -50t51 -136q0 -84 -51 -136t-139 -52q-94 0 -152 58t-58 154v16q-52 -42 -122 -110l-62 -62l-46 48l62 60q96 92 168 140v224v238q0 134 -63 203t-185 69 q-90 0 -173 -40t-169 -124v-848h-70zM934 196q0 -76 37 -118t103 -42q62 0 93 34t31 92t-33 91t-103 33q-66 0 -128 -36v-54z" />
<glyph unicode="&#x236;" horiz-adv-x="708" d="M2 78l62 60q96 92 168 140v224v490h-178v60h178v308h70v-308h310v-60h-310v-602v-72q66 30 134 30q94 0 145 -50t51 -136q0 -84 -51 -136t-139 -52q-94 0 -152 58t-58 154v16q-52 -42 -122 -110l-62 -62zM302 196q0 -76 37 -118t103 -42q62 0 93 34t31 92t-33 91t-103 33 q-66 0 -128 -36v-54z" />
<glyph unicode="&#x237;" horiz-adv-x="486" d="M-44 -376q100 32 153 80t76 128t23 214v1006h70v-1006q0 -152 -27 -242t-91 -146t-182 -94z" />
<glyph unicode="&#x238;" horiz-adv-x="1758" d="M126 530q0 262 101 406t287 144q100 0 186 -44t144 -124v628h70v-642q134 180 332 180q184 0 285 -145t101 -409q0 -262 -101 -406t-287 -144q-100 0 -187 45t-145 127v-146h-66v158q-134 -182 -334 -182q-184 0 -285 145t-101 409zM198 534q0 -240 83 -366t237 -126 q94 0 173 45t153 141v604q-58 86 -146 134t-186 48q-152 0 -233 -123t-81 -357zM914 222q58 -86 146 -134t186 -48q152 0 233 123t81 357q0 240 -83 366t-237 126q-94 0 -173 -45t-153 -141v-604z" />
<glyph unicode="&#x239;" horiz-adv-x="1758" d="M126 528q0 262 101 406t287 144q100 0 187 -45t145 -127v146h66v-156q134 182 334 182q184 0 285 -145t101 -409q0 -262 -101 -406t-287 -144q-100 0 -186 44t-144 124v-556h-70v568q-134 -180 -332 -180q-184 0 -285 145t-101 409zM198 532q0 -240 83 -366t237 -126 q94 0 173 45t153 141v604q-58 86 -146 134t-186 48q-152 0 -233 -123t-81 -357zM914 222q58 -86 146 -134t186 -48q152 0 233 123t81 357q0 240 -83 366t-237 126q-94 0 -173 -45t-153 -141v-604z" />
<glyph unicode="&#x23a;" horiz-adv-x="1316" d="M80 0l534 1448h88l126 -344l196 516h70l-230 -608l372 -1012h-76l-158 430h-360l-244 -644h-70l244 644h-260l-158 -430h-74zM336 496h262l194 510l-134 366zM668 496h310l-152 416z" />
<glyph unicode="&#x23b;" horiz-adv-x="1182" d="M120 702q0 234 73 409t208 269t317 94q80 0 172 -22l64 168h70l-70 -186q58 -20 120 -52l-28 -58q-54 28 -116 48l-476 -1256q118 -72 286 -72q186 0 316 76l30 -56q-62 -42 -154 -65t-194 -23q-178 0 -312 70l-98 -260h-70l112 296q-124 88 -187 245t-63 375zM194 710 q0 -190 52 -330t152 -224l468 1234q-76 18 -152 18q-156 0 -274 -86t-182 -244t-64 -368z" />
<glyph unicode="&#x23c;" horiz-adv-x="926" d="M118 546q0 160 52 280t147 186t221 66q66 0 134 -18l88 222h68l-96 -242q46 -16 96 -46l-28 -56q-68 34 -92 42l-352 -880q80 -58 196 -58q140 0 258 74l30 -54q-56 -40 -133 -63t-157 -23q-126 0 -220 60l-102 -256h-68l118 296q-78 72 -119 192t-41 278zM190 550 q0 -274 116 -406l342 856q-56 14 -112 14q-160 0 -253 -124t-93 -340z" />
<glyph unicode="&#x23d;" horiz-adv-x="1032" d="M74 706v62h132v680h72v-680h422v-62h-422v-640h678v-66h-750v706h-132z" />
<glyph unicode="&#x23e;" horiz-adv-x="1036" d="M80 1382v66h474h208l62 172h70l-62 -172h124v-66h-148l-254 -712v-670h-72v468l-244 -682h-70l314 878v718h-402zM554 868l184 514h-184v-514z" />
<glyph unicode="&#x23f;" horiz-adv-x="886" d="M92 72l26 58q142 -90 312 -90q132 0 201 59t69 173q0 94 -49 145t-151 75l-142 34q-126 30 -185 94t-59 172q0 136 85 210t239 74q164 0 308 -80l-28 -58q-138 74 -286 74q-120 0 -185 -55t-65 -159q0 -82 46 -131t148 -75l142 -34q130 -30 191 -98t61 -182 q0 -144 -89 -223t-251 -79q-78 0 -154 18q52 -56 104 -154q40 -68 68 -105t69 -62t99 -25q62 0 112 26l16 -56q-56 -32 -130 -32q-78 0 -131 30t-87 76t-76 124q-44 80 -82 134t-94 92q-14 6 -52 30z" />
<glyph unicode="&#x240;" horiz-adv-x="896" d="M108 0v60l592 932h-576v60h652v-60l-592 -932h84q84 0 141 -32t91 -79t72 -119q52 -92 95 -137t117 -45q62 0 112 26l16 -56q-56 -32 -130 -32q-72 0 -121 29t-80 70t-71 113q-36 68 -66 108t-76 67t-112 27h-148z" />
<glyph unicode="&#x241;" horiz-adv-x="1028" d="M100 1304q94 86 195 128t225 42q184 0 286 -113t102 -315q0 -168 -104 -302t-292 -210v-534h-72v582q184 62 288 183t104 271q0 176 -82 273t-230 97q-96 0 -192 -39t-184 -119z" />
<glyph unicode="&#x242;" horiz-adv-x="924" d="M122 956q150 122 342 122q150 0 234 -82t84 -228q0 -130 -84 -231t-236 -153l2 -384h-70l-2 436q150 40 232 125t82 199q0 118 -64 183t-180 65q-154 0 -298 -108z" />
<glyph unicode="&#x243;" horiz-adv-x="1270" d="M74 376v62h136v1010h72h406q182 0 280 -95t98 -271q0 -128 -53 -212t-153 -114q140 -16 215 -111t75 -257q0 -186 -101 -287t-289 -101h-512h-38v376h-136zM282 66h486q148 0 228 83t80 239t-81 239t-235 83h-478v-272h354v-62h-354v-310zM282 776h406q148 0 227 78 t79 224t-81 225t-233 79h-398v-606z" />
<glyph unicode="&#x244;" horiz-adv-x="1384" d="M62 726v64h156v658h72v-658h804v658h72v-658h156v-64h-156v-226q0 -250 -124 -388t-350 -138t-350 138t-124 388v226h-156zM290 504q0 -226 104 -345t298 -119t298 119t104 345v222h-804v-222z" />
<glyph unicode="&#x245;" horiz-adv-x="1244" d="M88 0l490 1448h88l490 -1448h-76l-458 1372l-458 -1372h-76z" />
<glyph unicode="&#x246;" horiz-adv-x="1132" d="M212 0v1448h610l62 172h70l-62 -172h108v-66h-132l-216 -608h180v-66h-204l-230 -642h626v-66h-650l-76 -214h-70l76 214h-92zM284 66h44l230 642h-274v-642zM284 774h298l216 608h-514v-608z" />
<glyph unicode="&#x247;" horiz-adv-x="1044" d="M122 526q0 262 108 407t304 145q70 0 136 -22l90 226h68l-100 -252q96 -56 149 -173t53 -281q0 -24 -4 -52h-400l-168 -420q86 -62 208 -62q160 0 284 90l30 -54q-58 -48 -139 -75t-173 -27q-136 0 -238 62l-102 -258h-68l118 298q-156 140 -156 448zM194 524 q0 -250 114 -376l150 376h-264zM196 584h286l164 410q-52 20 -118 20q-152 0 -237 -110t-95 -320zM550 584h310v16q0 132 -41 226t-117 142z" />
<glyph unicode="&#x248;" horiz-adv-x="904" d="M36 60l30 56q112 -76 250 -76q136 0 207 79t71 231v364h-234v64h234v670h72v-670h176v-64h-176v-368q0 -176 -92 -274t-258 -98q-78 0 -152 23t-128 63z" />
<glyph unicode="&#x249;" horiz-adv-x="512" d="M-44 -376q100 32 153 80t76 128t23 214v582h-160v56h160v368h70v-368h158v-56h-158v-582q0 -152 -27 -242t-91 -146t-182 -94zM182 1350q0 32 17 50t45 18t45 -17t17 -49t-17 -50t-45 -18t-45 17t-17 49z" />
<glyph unicode="&#x24a;" horiz-adv-x="1302" d="M140 718q0 366 135 561t371 195q106 0 205 -52t167 -134v160h72v-1448v-206q0 -86 37 -127t113 -41q48 0 84 16l18 -60q-46 -18 -102 -18q-108 0 -165 58t-57 168v372q-64 -78 -166 -133t-214 -55q-236 0 -367 196t-131 548zM214 732q0 -326 114 -505t324 -179 q192 0 366 200v950q-168 208 -376 208q-132 0 -228 -81t-148 -233t-52 -360z" />
<glyph unicode="&#x24b;" horiz-adv-x="1118" d="M126 528q0 262 101 406t287 144q100 0 186 -44t144 -124v142h70v-1052v-206q0 -88 37 -130t115 -42q48 0 84 16l18 -56q-46 -18 -102 -18q-108 0 -165 58t-57 168v364q-134 -180 -332 -180q-184 0 -285 145t-101 409zM198 532q0 -240 83 -366t237 -126q94 0 173 45 t153 141v604q-58 86 -146 134t-186 48q-152 0 -233 -123t-81 -357z" />
<glyph unicode="&#x24c;" horiz-adv-x="1282" d="M72 600v66h176v782h72h380q202 0 311 -110t109 -312q0 -182 -91 -291t-261 -131l406 -604h-88l-396 600h-370v-600h-72v600h-176zM320 666h380q168 0 257 91t89 263q0 176 -91 269t-263 93h-372v-716z" />
<glyph unicode="&#x24d;" horiz-adv-x="780" d="M84 524v56h136v472h68v-170q64 98 136 145t158 47q70 0 142 -26l-20 -64q-72 22 -130 22q-80 0 -149 -49t-135 -151v-226h386v-56h-386v-524h-70v524h-136z" />
<glyph unicode="&#x24e;" horiz-adv-x="1156" d="M72 1448h76l154 -298h552l154 298h76l-154 -298h146v-62h-178l-284 -552v-536h-72v536l-284 552h-176v62h144zM334 1088l244 -476l246 476h-490z" />
<glyph unicode="&#x24f;" horiz-adv-x="1052" d="M96 626v56h156l-128 370h74l126 -370h408l124 370h74l-128 -370h154v-56h-174l-222 -642q-54 -158 -159 -265t-253 -153l-24 64q132 44 223 132t147 230l-222 634h-176zM342 626l186 -546l184 546h-370z" />
<glyph unicode="&#x250;" horiz-adv-x="1024" d="M190 300v752h68v-146q144 168 346 168q152 0 237 -79t85 -221q0 -186 -162 -274t-504 -90v-96q0 -136 68 -205t202 -69t262 66l22 -62q-62 -34 -137 -52t-149 -18q-158 0 -248 86t-90 240zM260 470q304 2 449 76t145 228q0 110 -67 173t-185 63q-96 0 -179 -43t-163 -131 v-366z" />
<glyph unicode="&#x251;" horiz-adv-x="1118" d="M126 528q0 262 101 406t287 144q100 0 186 -44t144 -124v142h70v-1052h-68v156q-134 -182 -334 -182q-184 0 -285 145t-101 409zM198 532q0 -240 83 -366t237 -126q94 0 173 45t153 141v604q-58 86 -146 134t-186 48q-152 0 -233 -123t-81 -357z" />
<glyph unicode="&#x252;" horiz-adv-x="1118" d="M204 0v1052h68v-156q134 182 334 182q184 0 285 -145t101 -409q0 -262 -101 -406t-287 -144q-100 0 -186 44t-144 124v-142h-70zM274 222q58 -86 146 -134t186 -48q152 0 233 123t81 357q0 240 -83 366t-237 126q-94 0 -173 -45t-153 -141v-604z" />
<glyph unicode="&#x253;" horiz-adv-x="1118" d="M204 0v782v270v292q0 206 200 206q56 0 102 -18l-18 -54q-36 16 -84 16q-68 0 -99 -37t-31 -117v-442q134 180 332 180q184 0 285 -145t101 -409q0 -262 -101 -406t-287 -144q-100 0 -187 45t-145 127v-146h-68zM274 222q58 -86 146 -134t186 -48q152 0 233 123t81 357 q0 240 -83 366t-237 126q-94 0 -173 -45t-153 -141v-604z" />
<glyph unicode="&#x254;" horiz-adv-x="926" d="M86 990q56 40 133 63t157 23q204 0 318 -150t114 -420q0 -160 -52 -280t-147 -186t-221 -66q-72 0 -149 22t-141 62l28 56q140 -76 264 -76q160 0 253 124t93 340q0 248 -93 378t-269 130q-140 0 -258 -74z" />
<glyph unicode="&#x255;" horiz-adv-x="968" d="M118 546q0 160 52 280t147 186t221 66q72 0 149 -22t141 -62l-28 -56q-140 76 -264 76q-160 0 -253 -124t-93 -340q0 -260 104 -392l102 148q72 102 139 141t151 39q104 0 160 -57t56 -167q0 -140 -96 -213t-256 -73q-142 0 -248 78l-102 -150l-56 38l110 158 q-136 152 -136 446zM340 110q86 -70 212 -70q130 0 205 60t75 166q0 82 -41 120t-109 38t-124 -38t-110 -118z" />
<glyph unicode="&#x256;" horiz-adv-x="1118" d="M126 530q0 262 101 406t287 144q100 0 186 -44t144 -124v628h70v-1202v-338v-220q0 -80 31 -117t99 -37q48 0 84 16l18 -54q-46 -18 -102 -18q-200 0 -200 206v380q-134 -180 -332 -180q-184 0 -285 145t-101 409zM198 534q0 -240 83 -366t237 -126q94 0 173 45t153 141 v604q-58 86 -146 134t-186 48q-152 0 -233 -123t-81 -357z" />
<glyph unicode="&#x257;" horiz-adv-x="1170" d="M126 544q0 262 101 406t287 144q100 0 186 -44t144 -124v418q0 206 200 206q56 0 102 -18l-18 -54q-36 16 -84 16q-68 0 -99 -37t-31 -117v-398v-860v-82h-68v172q-136 -182 -334 -182q-184 0 -285 145t-101 409zM198 548q0 -240 83 -366t237 -126q94 0 173 45t153 141 v604q-58 86 -146 134t-186 48q-152 0 -233 -123t-81 -357z" />
<glyph unicode="&#x258;" horiz-adv-x="1044" d="M114 576q0 236 105 369t291 133q196 0 304 -145t108 -407t-117 -406t-329 -144q-92 0 -173 27t-139 75l30 54q124 -90 284 -90q176 0 274 125t98 357h-732q-4 28 -4 52zM184 584h664q-10 210 -95 320t-237 110q-156 0 -244 -110t-88 -304v-16z" />
<glyph unicode="&#x259;" horiz-adv-x="1044" d="M114 476q0 24 4 52h732q0 232 -98 357t-274 125q-160 0 -284 -90l-30 54q58 48 139 75t173 27q212 0 329 -144t117 -406t-108 -407t-304 -145q-186 0 -291 133t-105 369zM184 452q0 -194 88 -304t244 -110q152 0 237 110t95 320h-664v-16z" />
<glyph unicode="&#x25a;" horiz-adv-x="1326" d="M114 456q0 18 4 46l726 122q-20 186 -115 286t-251 100q-160 0 -284 -90l-30 54q58 48 139 75t173 27q188 0 302 -114t138 -324l188 34l-12 -84q-4 -48 -4 -64q0 -92 57 -144t159 -52h22l-22 -64q-134 0 -210 69t-76 193q0 38 6 70l-104 -18q2 -18 2 -52 q0 -262 -108 -407t-304 -145q-186 0 -291 129t-105 353zM184 432q0 -182 89 -288t243 -106q164 0 249 125t85 363v40l-666 -112v-22z" />
<glyph unicode="&#x25b;" horiz-adv-x="844" d="M88 288q0 112 67 178t177 86q-94 26 -149 84t-55 162q0 136 98 208t252 72t290 -64l-26 -60q-64 28 -125 44t-129 16q-136 0 -214 -56t-78 -164q0 -110 83 -164t187 -54h182v-60h-184q-136 0 -221 -55t-85 -165q0 -126 86 -191t252 -65q140 0 280 62l28 -60 q-52 -30 -141 -49t-179 -19q-190 0 -293 80t-103 234z" />
<glyph unicode="&#x25c;" horiz-adv-x="844" d="M40 42l28 60q140 -62 280 -62q160 0 248 66t88 190q0 110 -84 165t-220 55h-184v60h182q104 0 187 54t83 164q0 108 -78 164t-214 56q-68 0 -129 -16t-125 -44l-26 60q136 64 290 64t252 -72t98 -208q0 -104 -55 -162t-149 -84q110 -20 177 -86t67 -178q0 -154 -103 -234 t-293 -80q-90 0 -179 19t-141 49z" />
<glyph unicode="&#x25d;" horiz-adv-x="1124" d="M40 42l28 60q140 -62 280 -62q160 0 248 66t88 190q0 110 -84 165t-220 55h-184v60h182q104 0 187 54t83 164q0 108 -78 164t-214 56q-68 0 -129 -16t-125 -44l-26 60q136 64 290 64q138 0 233 -58t113 -170l190 34l-12 -84q-4 -48 -4 -64q0 -92 57 -144t159 -52h22 l-22 -64q-134 0 -210 69t-76 193q0 38 6 70l-106 -20q-6 -182 -204 -236q110 -20 177 -86t67 -178q0 -154 -103 -234t-293 -80q-90 0 -179 19t-141 49z" />
<glyph unicode="&#x25e;" horiz-adv-x="1016" d="M126 534q0 296 119 420t333 124q80 0 151 -32t115 -95t44 -153q0 -104 -55 -162t-149 -84q110 -20 177 -86t67 -178q0 -152 -96 -233t-260 -81q-214 0 -330 128t-116 432zM196 532q0 -492 364 -492q132 0 214 67t82 189q0 110 -84 165t-220 55h-144v60h142q104 0 187 54 t83 164q0 104 -72 162t-180 58q-372 0 -372 -482z" />
<glyph unicode="&#x25f;" horiz-adv-x="512" d="M-44 -376q100 32 153 80t76 128t23 214v582h-160v56h160v368h70v-368h158v-56h-158v-582q0 -152 -27 -242t-91 -146t-182 -94z" />
<glyph unicode="&#x260;" horiz-adv-x="1122" d="M126 548q0 250 104 390t288 140q100 0 187 -45t145 -127v438q0 206 200 206q56 0 102 -18l-18 -54q-36 16 -84 16q-68 0 -100 -37t-32 -117v-606v-738q0 -202 -113 -311t-319 -109q-72 0 -142 15t-118 41l22 62q108 -52 244 -52q172 0 264 90t92 260v202 q-134 -180 -332 -180q-184 0 -287 141t-103 393zM198 552q0 -232 83 -352t241 -120q94 0 173 45t153 141v564q-58 86 -146 134t-186 48q-156 0 -237 -117t-81 -343z" />
<glyph unicode="&#x261;" horiz-adv-x="1122" d="M126 548q0 250 104 390t288 140q100 0 187 -45t145 -127v146h68v-1056q0 -202 -113 -311t-319 -109q-72 0 -142 15t-118 41l22 62q108 -52 244 -52q172 0 264 90t92 260v202q-134 -180 -332 -180q-184 0 -287 141t-103 393zM198 552q0 -232 83 -352t241 -120q94 0 173 45 t153 141v564q-58 86 -146 134t-186 48q-156 0 -237 -117t-81 -343z" />
<glyph unicode="&#x262;" horiz-adv-x="1110" d="M126 526q0 258 131 401t369 143q80 0 158 -17t136 -47l-26 -60q-128 58 -270 58q-208 0 -316 -122t-108 -356t109 -357t317 -123q124 0 248 40v376h-228v66h300v-476q-64 -34 -149 -52t-171 -18q-238 0 -369 143t-131 401z" />
<glyph unicode="&#x263;" horiz-adv-x="1006" d="M96 1052h74l336 -744l330 744h74l-368 -824l120 -266q50 -112 50 -198q0 -96 -54 -150t-152 -54q-96 0 -150 54t-54 150q0 84 50 198l118 264zM372 -228q0 -148 134 -148q136 0 136 148q0 68 -44 168l-92 206l-92 -206q-42 -96 -42 -168z" />
<glyph unicode="&#x264;" horiz-adv-x="1132" d="M60 994q42 44 80 64t84 20q66 0 108 -36t84 -112l150 -266l150 266q42 76 84 112t108 36q46 0 84 -20t80 -64l-44 -46q-40 38 -66 52t-54 14q-40 0 -67 -24t-65 -88l-172 -304l122 -216q54 -96 54 -192q0 -102 -61 -159t-153 -57t-153 57t-61 159q0 96 54 192l122 216 l-172 304q-36 64 -63 88t-69 24q-28 0 -54 -14t-66 -52zM424 192q0 -70 39 -112t103 -42t103 42t39 112q0 88 -46 170l-96 170l-96 -170q-46 -82 -46 -170z" />
<glyph unicode="&#x265;" horiz-adv-x="1112" d="M190 300v752h70v-740q0 -134 61 -203t181 -69q92 0 174 43t162 131v838h70v-1466h-70v558q-148 -170 -344 -170q-144 0 -224 86t-80 240z" />
<glyph unicode="&#x266;" horiz-adv-x="1132" d="M204 0v1150v194q0 206 200 206q56 0 102 -18l-18 -54q-36 16 -84 16q-68 0 -99 -37t-31 -117v-424q152 162 352 162q146 0 229 -86t83 -240v-752h-70v740q0 134 -64 203t-186 69q-92 0 -175 -40t-169 -124v-848h-70z" />
<glyph unicode="&#x267;" horiz-adv-x="1132" d="M204 0v1150v194q0 206 200 206q56 0 102 -18l-18 -54q-36 16 -84 16q-68 0 -99 -37t-31 -117v-424q152 162 352 162q146 0 229 -86t83 -240v-752v-154q0 -150 -64 -218t-190 -68q-56 0 -110 17t-94 47l30 56q96 -56 174 -56q98 0 141 57t43 167v386v506q0 134 -64 203 t-186 69q-92 0 -175 -40t-169 -124v-848h-70z" />
<glyph unicode="&#x268;" horiz-adv-x="540" d="M76 628v56h160v368h70v-368h158v-56h-158v-628h-70v628h-160zM210 1350q0 32 17 50t45 18t45 -17t17 -49t-17 -50t-45 -18t-45 17t-17 49z" />
<glyph unicode="&#x269;" horiz-adv-x="692" d="M200 300v752h70v-744q0 -134 50 -196t152 -62q58 0 118 22l18 -60q-66 -26 -148 -26q-126 0 -193 78t-67 236z" />
<glyph unicode="&#x26a;" horiz-adv-x="488" d="M208 0v1052h72v-1052h-72z" />
<glyph unicode="&#x26b;" horiz-adv-x="738" d="M56 694q2 112 47 173t121 61q54 0 92 -32v644h70v-724q24 -30 46 -47t54 -17q100 0 112 172h54q-2 -112 -47 -173t-121 -61q-58 0 -98 36v-568q0 -54 25 -80t79 -26q32 0 72 8l10 -58q-48 -12 -94 -12q-80 0 -121 41t-41 121v658q-42 56 -94 56q-100 0 -112 -172h-54z " />
<glyph unicode="&#x26c;" horiz-adv-x="826" d="M46 778q0 104 58 164t170 60q58 0 102 -16v554h70v-904q60 18 84 28l210 76l22 -58l-190 -70q-80 -28 -126 -40v-414q0 -54 25 -80t79 -26q32 0 72 8l10 -58q-48 -12 -94 -12q-80 0 -121 41t-41 121v404q-48 -8 -96 -8q-110 0 -172 63t-62 167zM114 776q0 -76 45 -120 t121 -44q50 0 96 8v298q-46 20 -98 20q-164 0 -164 -162z" />
<glyph unicode="&#x26d;" horiz-adv-x="478" d="M204 -272v1388v420h70v-1536v-266q0 -54 25 -80t79 -26q32 0 72 8l10 -58q-48 -12 -94 -12q-80 0 -121 41t-41 121z" />
<glyph unicode="&#x26e;" horiz-adv-x="1150" d="M204 0v1540h70v-488h128h584v-62l-422 -578q232 -2 361 -105t129 -313q0 -214 -128 -322t-322 -108q-96 0 -192 24t-158 58l28 60q178 -76 318 -76q166 0 274 92t108 270q0 180 -114 268t-312 88h-80v52l424 592h-622h-4v-992h-70z" />
<glyph unicode="&#x26f;" horiz-adv-x="1738" d="M190 300v752h70v-740q0 -134 59 -203t173 -69q86 0 169 42t171 130q-8 38 -8 88v752h70v-740q0 -134 60 -203t176 -69q88 0 169 40t165 124v848h70v-1052h-68v138q-154 -164 -344 -164q-104 0 -175 48t-101 136q-160 -184 -362 -184q-138 0 -216 86t-78 240z" />
<glyph unicode="&#x270;" horiz-adv-x="1738" d="M190 300v752h70v-740q0 -134 59 -203t173 -69q86 0 169 42t171 130q-8 38 -8 88v752h70v-740q0 -134 60 -203t176 -69q88 0 169 40t165 124v848h70v-1466h-70v550q-152 -162 -342 -162q-104 0 -175 48t-101 136q-160 -184 -362 -184q-138 0 -216 86t-78 240z" />
<glyph unicode="&#x271;" horiz-adv-x="1742" d="M204 0v1052h68v-138q154 164 344 164q104 0 175 -48t101 -136q160 184 362 184q138 0 216 -86t78 -240v-752v-224q0 -206 -200 -206q-56 0 -102 18l18 54q36 -16 84 -16q68 0 99 37t31 117v558v402q0 134 -59 203t-173 69q-86 0 -169 -42t-171 -130q8 -38 8 -88v-752h-70 v740q0 134 -60 203t-176 69q-88 0 -169 -40t-165 -124v-848h-70z" />
<glyph unicode="&#x272;" horiz-adv-x="1128" d="M-28 -412l18 54q36 -16 84 -16q68 0 99 37t31 117v558v714h68v-138q74 80 164 122t188 42q146 0 228 -86t82 -240v-752h-70v740q0 134 -63 203t-185 69q-90 0 -173 -40t-169 -124v-848v-224q0 -206 -200 -206q-56 0 -102 18z" />
<glyph unicode="&#x273;" horiz-adv-x="1128" d="M204 0v1052h68v-138q74 80 164 122t188 42q146 0 228 -86t82 -240v-752v-220q0 -80 31 -117t99 -37q48 0 84 16l18 -54q-46 -18 -102 -18q-200 0 -200 206v562v402q0 134 -63 203t-185 69q-90 0 -173 -40t-169 -124v-848h-70z" />
<glyph unicode="&#x274;" horiz-adv-x="1226" d="M204 0v1052h68l682 -932v932h68v-1052h-68l-682 932v-932h-68z" />
<glyph unicode="&#x275;" horiz-adv-x="1078" d="M126 526q0 270 107 411t307 141q198 0 305 -141t107 -411t-107 -411t-307 -141q-198 0 -305 141t-107 411zM198 514q2 -234 88 -355t252 -121t253 121t89 355h-682zM198 570h682q-10 220 -95 332t-245 112t-246 -112t-96 -332z" />
<glyph unicode="&#x276;" horiz-adv-x="1584" d="M126 526q0 258 118 392t340 134h286h580v-66h-550v-416h414v-66h-414v-438h568v-66h-640h-244q-222 0 -340 134t-118 392zM200 526q0 -226 97 -343t287 -117h244v920h-244q-190 0 -287 -117t-97 -343z" />
<glyph unicode="&#x277;" horiz-adv-x="1476" d="M146 436q0 302 156 472t436 170t436 -170t156 -474q0 -214 -81 -337t-241 -123q-208 0 -270 216q-60 -216 -270 -216q-160 0 -241 124t-81 338zM218 434q0 -172 59 -284t191 -112q112 0 174 78t62 196v182h70v-180q0 -136 67 -206t169 -70q132 0 190 111t58 283 q0 274 -136 428t-384 154t-384 -154t-136 -426z" />
<glyph unicode="&#x278;" horiz-adv-x="1118" d="M126 526q0 260 101 400t297 150v406h70v-404q196 -12 297 -152t101 -400t-101 -400t-297 -150v-390h-70v388q-196 12 -297 152t-101 400zM198 526q0 -466 326 -486v972q-326 -24 -326 -486zM594 40q326 24 326 486q0 466 -326 486v-972z" />
<glyph unicode="&#x279;" horiz-adv-x="764" d="M56 4l20 64q72 -22 130 -22q80 0 149 49t135 151v806h70v-1052h-68v170q-64 -98 -136 -145t-158 -47q-70 0 -142 26z" />
<glyph unicode="&#x27a;" horiz-adv-x="764" d="M56 4l20 64q72 -22 130 -22q80 0 149 49t135 151v806v396h70v-980v-468h-68v170q-64 -98 -136 -145t-158 -47q-70 0 -142 26z" />
<glyph unicode="&#x27b;" horiz-adv-x="764" d="M56 4l20 64q72 -22 130 -22q80 0 149 49t135 151v806h70v-1052v-206q0 -88 37 -130t115 -42q48 0 84 16l18 -56q-46 -18 -102 -18q-108 0 -165 58t-57 168v376q-62 -96 -134 -142t-158 -46q-70 0 -142 26z" />
<glyph unicode="&#x27c;" horiz-adv-x="764" d="M204 -414v980v486h68v-170q64 98 136 145t158 47q70 0 142 -26l-20 -64q-72 22 -130 22q-80 0 -149 -49t-135 -151v-806v-414h-70z" />
<glyph unicode="&#x27d;" horiz-adv-x="764" d="M204 -210v582v680h68v-170q64 98 136 145t158 47q70 0 142 -26l-20 -64q-72 22 -130 22q-80 0 -149 -49t-135 -151v-806v-206q0 -88 37 -130t115 -42q48 0 84 16l18 -56q-46 -18 -102 -18q-108 0 -165 58t-57 168z" />
<glyph unicode="&#x27e;" horiz-adv-x="604" d="M204 0v524v328q0 110 57 168t165 58q56 0 102 -18l-18 -54q-36 16 -84 16q-78 0 -115 -42t-37 -132v-572v-276h-70z" />
<glyph unicode="&#x27f;" horiz-adv-x="604" d="M76 1060q46 18 102 18q108 0 165 -58t57 -168v-576v-276h-70v524v324q0 90 -37 132t-115 42q-48 0 -84 -16z" />
<glyph unicode="&#x280;" horiz-adv-x="1062" d="M204 0v1052h72h296q164 0 254 -82t90 -230q0 -130 -72 -211t-202 -99l320 -430h-88l-314 426h-284v-426h-72zM276 492h296q132 0 200 63t68 181q0 122 -70 186t-204 64h-290v-494z" />
<glyph unicode="&#x281;" horiz-adv-x="1062" d="M204 0v1052h72v-426h284l314 426h88l-320 -430q130 -18 202 -99t72 -211q0 -148 -90 -230t-254 -82h-318h-50zM276 66h290q134 0 204 64t70 186q0 118 -68 181t-200 63h-296v-494z" />
<glyph unicode="&#x282;" horiz-adv-x="886" d="M92 72l26 58q142 -90 312 -90q132 0 201 59t69 173q0 94 -49 145t-151 75l-142 34q-126 30 -185 94t-59 172q0 136 85 210t239 74q164 0 308 -80l-28 -58q-138 74 -286 74q-120 0 -185 -55t-65 -159q0 -82 46 -131t148 -75l142 -34q130 -30 191 -98t61 -182 q0 -144 -89 -223t-251 -79q-148 0 -276 62v-244q0 -90 38 -132t120 -42q48 0 84 16l18 -54q-46 -18 -102 -18q-108 0 -164 58t-56 168v282z" />
<glyph unicode="&#x283;" horiz-adv-x="542" d="M-124 -362q60 -8 98 -8q112 0 171 61t59 181v258v1058v56q0 148 77 227t223 79q58 0 98 -10v-62q-60 8 -98 8q-112 0 -171 -61t-59 -181v-76v-1168v-128q0 -148 -77 -227t-223 -79q-58 0 -98 10v62z" />
<glyph unicode="&#x284;" horiz-adv-x="546" d="M-44 -376q100 32 153 80t76 128t23 214v582h-160v56h160v368v192q0 148 77 227t223 79q58 0 98 -10v-62q-60 8 -98 8q-112 0 -171 -61t-59 -181v-436v-124h158v-56h-158v-582q0 -152 -27 -242t-91 -146t-182 -94z" />
<glyph unicode="&#x285;" horiz-adv-x="564" d="M-38 1020v62q40 10 98 10q146 0 223 -79t77 -227v-180v-606v-128q0 -120 59 -181t171 -61q38 0 98 8v-62q-40 -10 -98 -10q-146 0 -223 79t-77 227v198v608v108q0 120 -59 181t-171 61q-38 0 -98 -8z" />
<glyph unicode="&#x286;" horiz-adv-x="734" d="M-44 -188q0 102 64 165t166 63t210 -68v210v1006v56q0 148 77 227t223 79q58 0 98 -10v-62q-60 8 -98 8q-112 0 -171 -61t-59 -181v-76v-1242l282 -184l-38 -52l-246 158q-10 -134 -76 -208t-186 -74q-106 0 -176 68t-70 178zM28 -188q0 -78 49 -129t125 -51 q190 0 194 260l-36 22q-50 32 -90 47t-84 15q-74 0 -116 -48t-42 -116z" />
<glyph unicode="&#x287;" horiz-adv-x="704" d="M76 1350q62 22 136 22q118 0 185 -70t67 -196v-738h178v-60h-178v-308h-70v308h-310v60h310v722q0 106 -48 161t-140 55q-52 0 -116 -16z" />
<glyph unicode="&#x288;" horiz-adv-x="696" d="M62 992v60h178v308h70v-308h310v-60h-310v-1198q0 -90 37 -132t115 -42q48 0 84 16l18 -54q-46 -18 -102 -18q-108 0 -165 58t-57 168v542v660h-178z" />
<glyph unicode="&#x289;" horiz-adv-x="1168" d="M58 514v56h160v482h70v-482h578v482h70v-482h160v-56h-160v-514h-68v146q-148 -172 -346 -172q-144 0 -224 86t-80 240v214h-160zM288 312q0 -134 61 -203t181 -69q92 0 174 43t162 131v300h-578v-202z" />
<glyph unicode="&#x28a;" horiz-adv-x="1154" d="M126 992v60h378v-54q-134 -86 -202 -225t-68 -299q0 -204 88 -319t260 -115q168 0 253 116t85 318q0 160 -68 299t-202 225v54h378v-60h-278q118 -88 180 -230t62 -294q0 -234 -106 -363t-308 -129q-204 0 -310 128t-106 364q0 152 62 294t180 230h-278z" />
<glyph unicode="&#x28b;" horiz-adv-x="1080" d="M190 332v720h70v-706q0 -154 67 -231t195 -77q342 0 342 456v246q0 274 -150 274q-36 0 -90 -16l-14 60q58 20 110 20q114 0 164 -87t50 -249v-244q0 -272 -111 -398t-303 -126q-156 0 -243 92t-87 266z" />
<glyph unicode="&#x28c;" horiz-adv-x="1006" d="M96 0l364 1052h84l366 -1052h-74l-334 984l-332 -984h-74z" />
<glyph unicode="&#x28d;" horiz-adv-x="1526" d="M100 0l306 1052h84l272 -956l274 956h84l306 -1052h-72l-276 986l-274 -986h-84l-272 986l-276 -986h-72z" />
<glyph unicode="&#x28e;" horiz-adv-x="998" d="M96 0l370 1068q54 158 159 265t253 153l24 -64q-132 -44 -223 -132t-147 -230l370 -1060h-74l-330 972l-328 -972h-74z" />
<glyph unicode="&#x28f;" horiz-adv-x="936" d="M56 1052h78l334 -592l336 592h76l-376 -668v-384h-72v384z" />
<glyph unicode="&#x290;" horiz-adv-x="896" d="M108 0v60l592 932h-576v60h652v-60l-592 -932h600v-4h2v-282q0 -78 33 -115t101 -37q48 0 84 16l18 -56q-46 -18 -102 -18q-198 0 -198 206v230h-614z" />
<glyph unicode="&#x291;" horiz-adv-x="1052" d="M108 0v60l592 932h-576v60h652v-60l-592 -932h292l90 170q60 114 122 163t152 49q86 0 133 -53t47 -135q0 -118 -76 -186t-220 -68h-202l-98 -188l-64 28l84 160h-336zM554 60h170q106 0 168 49t62 145q0 62 -32 94t-92 32q-70 0 -112 -43t-96 -147z" />
<glyph unicode="&#x292;" horiz-adv-x="956" d="M60 -354l28 60q178 -76 318 -76q166 0 274 92t108 270q0 180 -114 268t-312 88h-80v52l424 592h-622v60h708v-62l-422 -578q232 -2 361 -105t129 -313q0 -214 -128 -322t-322 -108q-96 0 -192 24t-158 58z" />
<glyph unicode="&#x293;" horiz-adv-x="974" d="M60 -150q0 108 63 166t167 58q86 0 162 -41t146 -143l112 -162q96 96 96 266q0 178 -115 266t-311 88h-80v52l424 592h-622v60h708v-62l-422 -578q234 -2 362 -104t128 -312t-130 -324l110 -158l-58 -36l-104 154q-112 -68 -270 -68q-162 0 -264 73t-102 213zM126 -146 q0 -106 82 -167t214 -61q144 0 236 60l-114 170q-106 158 -250 158q-70 0 -119 -40t-49 -120z" />
<glyph unicode="&#x294;" horiz-adv-x="1088" d="M130 1380q94 86 195 128t225 42q184 0 286 -113t102 -315q0 -168 -104 -302t-292 -210v-610h-70v658q184 62 288 183t104 271q0 176 -83 274t-231 98q-96 0 -192 -39t-184 -119z" />
<glyph unicode="&#x295;" horiz-adv-x="1088" d="M150 1110q0 208 108 324t300 116q110 0 208 -43t192 -127l-44 -54q-86 78 -180 118t-176 40q-158 0 -246 -98t-88 -274q0 -152 104 -271t288 -183v-658h-70v608q-188 70 -292 202t-104 300z" />
<glyph unicode="&#x296;" horiz-adv-x="1088" d="M130 160l44 54q86 -78 180 -118t176 -40q158 0 246 98t88 274q0 152 -104 271t-288 183v658h70v-608q188 -70 292 -202t104 -300q0 -208 -108 -324t-300 -116q-110 0 -208 43t-192 127z" />
<glyph unicode="&#x297;" horiz-adv-x="934" d="M118 338q0 382 113 561t315 179q72 0 149 -22t141 -62l-28 -56q-140 76 -264 76q-170 0 -262 -158t-92 -514q0 -388 93 -552t277 -164q140 0 258 74l30 -54q-56 -40 -133 -63t-157 -23q-212 0 -326 184t-114 594z" />
<glyph unicode="&#x298;" horiz-adv-x="1680" d="M140 762q0 242 84 420t242 273t374 95t374 -95t242 -273t84 -420t-84 -420t-242 -273t-374 -95t-374 95t-242 273t-84 420zM214 762q0 -224 76 -387t217 -249t333 -86t333 86t217 249t76 387t-76 387t-217 249t-333 86t-333 -86t-217 -249t-76 -387zM770 760q0 34 18 53 t52 19t52 -18t18 -52t-19 -54t-51 -20q-34 0 -52 19t-18 53z" />
<glyph unicode="&#x299;" horiz-adv-x="1082" d="M204 0v1052h72h312q150 0 232 -72t82 -202q0 -90 -41 -148t-117 -78q110 -16 168 -85t58 -181q0 -136 -85 -211t-239 -75h-404h-38zM276 66h378q118 0 180 57t62 163q0 108 -64 165t-186 57h-370v-442zM276 572h312q118 0 180 53t62 151q0 102 -64 156t-184 54h-306v-414 z" />
<glyph unicode="&#x29a;" horiz-adv-x="1016" d="M88 288q0 112 67 178t177 86q-94 26 -149 84t-55 162q0 90 44 153t115 95t151 32q214 0 333 -124t119 -420q0 -304 -116 -432t-330 -128q-164 0 -260 81t-96 233zM160 296q0 -122 82 -189t214 -67q364 0 364 492q0 482 -372 482q-108 0 -180 -58t-72 -162q0 -110 83 -164 t187 -54h142v-60h-144q-136 0 -220 -55t-84 -165z" />
<glyph unicode="&#x29b;" horiz-adv-x="1158" d="M132 526q0 258 131 401t369 143q122 0 230 -38q6 140 79 218t197 78q52 0 88 -4v-68q-48 6 -90 6q-100 0 -155 -66t-55 -184v-66h-26q-128 58 -270 58q-208 0 -316 -122t-108 -356t109 -357t317 -123q124 0 248 40v376h-228v66h300v-476q-64 -34 -149 -52t-171 -18 q-238 0 -369 143t-131 401z" />
<glyph unicode="&#x29c;" horiz-adv-x="1190" d="M204 0v1052h72v-486h638v486h72v-1052h-72v500h-638v-500h-72z" />
<glyph unicode="&#x29d;" horiz-adv-x="678" d="M-44 -188q0 102 64 165t166 63t210 -68v210v870h70v-1052v-74l282 -184l-38 -52l-246 158q-10 -134 -76 -208t-186 -74q-106 0 -176 68t-70 178zM28 -188q0 -78 49 -129t125 -51q190 0 194 260l-36 22q-50 32 -90 47t-84 15q-74 0 -116 -48t-42 -116zM370 1350 q0 32 17 50t45 18t45 -17t17 -49t-17 -50t-45 -18t-45 17t-17 49z" />
<glyph unicode="&#x29e;" horiz-adv-x="1036" d="M72 1052h84l416 -546l190 200v346h70v-1466h-70v1034l-584 -620h-84l432 456z" />
<glyph unicode="&#x29f;" horiz-adv-x="876" d="M204 0v1052h72v-986h542v-66h-614z" />
<glyph unicode="&#x2a0;" horiz-adv-x="1118" d="M126 528q0 262 101 406t287 144q100 0 186 -44t144 -124v434q0 206 200 206q56 0 102 -18l-18 -54q-36 16 -84 16q-68 0 -99 -37t-31 -117v-414v-860v-480h-70v568q-134 -180 -332 -180q-184 0 -285 145t-101 409zM198 532q0 -240 83 -366t237 -126q94 0 173 45t153 141 v604q-58 86 -146 134t-186 48q-152 0 -233 -123t-81 -357z" />
<glyph unicode="&#x2a1;" horiz-adv-x="1088" d="M130 1380q94 86 195 128t225 42q184 0 286 -113t102 -315q0 -168 -104 -302t-292 -210v-206h254v-56h-254v-348h-70v348h-246v56h246v254q184 62 288 183t104 271q0 176 -83 274t-231 98q-96 0 -192 -39t-184 -119z" />
<glyph unicode="&#x2a2;" horiz-adv-x="1088" d="M150 1110q0 208 108 324t300 116q110 0 208 -43t192 -127l-44 -54q-86 78 -180 118t-176 40q-158 0 -246 -98t-88 -274q0 -152 104 -271t288 -183v-254h246v-56h-246v-348h-70v348h-254v56h254v204q-188 70 -292 202t-104 300z" />
<glyph unicode="&#x2a3;" horiz-adv-x="1700" d="M126 530q0 262 101 406t287 144q100 0 186 -44t144 -124v628h70v-488h138h528v-60l-592 -932h600v-60h-676h-66v158q-134 -182 -334 -182q-184 0 -285 145t-101 409zM198 534q0 -240 83 -366t237 -126q94 0 173 45t153 141v604q-58 86 -146 134t-186 48q-152 0 -233 -123 t-81 -357zM914 64l590 928h-576h-14v-928z" />
<glyph unicode="&#x2a4;" horiz-adv-x="1790" d="M126 530q0 262 101 406t287 144q100 0 186 -44t144 -124v628h70v-488h138h574v-62l-422 -578q232 -2 361 -105t129 -313q0 -214 -128 -322t-322 -108q-96 0 -192 24t-158 58l28 60q178 -76 318 -76q166 0 274 92t108 270q0 180 -114 268t-312 88h-80v52l424 592h-622h-4 v-924v-68h-68v158q-134 -182 -334 -182q-184 0 -285 145t-101 409zM198 534q0 -240 83 -366t237 -126q94 0 173 45t153 141v604q-58 86 -146 134t-186 48q-152 0 -233 -123t-81 -357z" />
<glyph unicode="&#x2a5;" horiz-adv-x="1856" d="M126 530q0 262 101 406t287 144q100 0 186 -44t144 -124v628h70v-488h128h538v-60l-592 -932h292l90 170q60 114 122 163t152 49q86 0 133 -53t47 -135q0 -118 -76 -186t-220 -68h-202l-98 -188l-64 28l84 160h-336h-66v158q-134 -182 -334 -182q-184 0 -285 145 t-101 409zM198 534q0 -240 83 -366t237 -126q94 0 173 45t153 141v604q-58 86 -146 134t-186 48q-152 0 -233 -123t-81 -357zM914 64l590 928h-576h-14v-928zM1358 60h170q106 0 168 49t62 145q0 62 -32 94t-92 32q-70 0 -112 -43t-96 -147z" />
<glyph unicode="&#x2a6;" horiz-adv-x="1402" d="M62 992v60h178v308h70v-308h492q66 24 152 24q164 0 308 -80l-28 -58q-138 74 -286 74q-120 0 -185 -55t-65 -159q0 -82 46 -131t148 -75l142 -34q130 -30 191 -98t61 -182q0 -152 -137 -227t-365 -75q-252 0 -398 97t-146 313v606h-178zM310 388q0 -350 474 -350 q194 0 313 59t119 175q0 94 -49 145t-151 75l-142 34q-126 30 -185 94t-59 172q0 126 74 200h-394v-604z" />
<glyph unicode="&#x2a7;" horiz-adv-x="1120" d="M62 992v60h178v308h70v-308h310h162v136v56q0 148 77 227t223 79q58 0 98 -10v-62q-60 8 -98 8q-112 0 -171 -61t-59 -181v-76v-1168v-128q0 -148 -77 -227t-223 -79q-58 0 -98 10v62q60 -8 98 -8q112 0 171 61t59 181v258v862h-216h-256v-722q0 -106 48 -161t140 -55 q52 0 116 16l14 -60q-62 -22 -136 -22q-118 0 -185 70t-67 196v738h-178z" />
<glyph unicode="&#x2a8;" horiz-adv-x="1444" d="M62 992v60h178v308h70v-308h558q64 26 146 26q72 0 149 -22t141 -62l-28 -56q-140 76 -264 76q-160 0 -253 -124t-93 -340q0 -250 96 -380q50 52 110 136q70 96 139 138t151 42q104 0 160 -57t56 -167q0 -136 -97 -211t-243 -75q-176 0 -286 104q-112 -92 -260 -92 q-118 0 -185 70t-67 196v738h-178zM310 270q0 -106 48 -162t140 -56q118 0 212 72q-116 150 -116 422q0 150 45 264t127 182h-456v-722zM802 126q88 -86 238 -86q124 0 198 60t74 166q0 82 -42 119t-112 37q-68 0 -130 -41t-112 -113q-62 -92 -114 -142z" />
<glyph unicode="&#x2a9;" horiz-adv-x="1650" d="M50 992v60h178v194q0 142 80 222t222 80q44 0 74 -8v-62q-40 6 -74 6q-114 0 -173 -61t-59 -179v-192h268h202h26v-138q74 80 164 122t188 42q146 0 228 -86t82 -240v-752v-154q0 -150 -64 -218t-190 -68q-56 0 -110 17t-94 47l30 56q96 -56 174 -56q98 0 141 57t43 167 v386v506q0 134 -63 203t-185 69q-90 0 -173 -40t-169 -124v-848h-70v992h-202h-226v-992h-70v992h-178z" />
<glyph unicode="&#x2aa;" horiz-adv-x="1302" d="M200 386v1154h70v-1152q0 -186 123 -268t321 -82q174 0 288 62t114 186q0 84 -49 133t-151 73l-142 34q-126 30 -185 94t-59 172q0 136 85 210t239 74q164 0 308 -80l-28 -58q-138 74 -286 74q-120 0 -185 -55t-65 -159q0 -82 46 -131t148 -75l142 -34q128 -30 190 -96 t62 -170q0 -160 -132 -238t-340 -78q-232 0 -373 98t-141 312z" />
<glyph unicode="&#x2ab;" horiz-adv-x="1060" d="M204 0v1540h70v-488h128h538v-60l-592 -932h600v-60h-676h-68zM274 64l590 928h-576h-14v-928z" />
<glyph unicode="&#x2ac;" horiz-adv-x="1082" d="M92 624h70l176 -556l164 556h80l162 -556l176 556h70l-210 -624h-74l-164 542l-166 -542h-74zM92 1448h70l176 -556l164 556h80l162 -556l176 556h70l-210 -624h-74l-164 542l-166 -542h-74z" />
<glyph unicode="&#x2ad;" horiz-adv-x="1056" d="M172 0h64v528h584v-528h64v594h-712v-594zM172 854h64v528h584v-528h64v594h-712v-594z" />
<glyph unicode="&#x2ae;" horiz-adv-x="1208" d="M16 1052q46 18 102 18q108 0 165 -58t57 -168v-424v-108q0 -134 64 -203t186 -69q92 0 175 40t169 124v848h70v-1466h-70v550q-152 -162 -352 -162q-146 0 -229 86t-83 240v260v280q0 90 -37 132t-115 42q-48 0 -84 -16z" />
<glyph unicode="&#x2af;" horiz-adv-x="1188" d="M16 1062q46 18 102 18q108 0 165 -58t57 -168v-424v-118q0 -134 64 -203t186 -69q92 0 175 40t169 124v848h70v-1052v-220q0 -80 31 -117t99 -37q48 0 84 16l18 -54q-46 -18 -102 -18q-200 0 -200 206v360q-152 -162 -352 -162q-146 0 -229 86t-83 240v260v290 q0 90 -37 132t-115 42q-48 0 -84 -16z" />
<glyph unicode="&#x2b0;" horiz-adv-x="1018" d="M224 696v1094h70v-430q116 106 264 106q116 0 181 -62t65 -172v-536h-70v528q0 86 -48 130t-140 44q-70 0 -130 -24t-122 -74v-604h-70z" />
<glyph unicode="&#x2b1;" horiz-adv-x="1018" d="M224 696v824v106q0 170 170 170q50 0 86 -14l-14 -58q-40 12 -72 12q-100 0 -100 -110v-266q116 106 264 106q116 0 181 -62t65 -172v-536h-70v528q0 86 -48 130t-140 44q-70 0 -130 -24t-122 -74v-604h-70z" />
<glyph unicode="&#x2b2;" horiz-adv-x="516" d="M24 444q114 36 156 97t42 189v718h70v-718q0 -106 -22 -169t-74 -104t-148 -71zM202 1658q0 28 15 44t41 16q28 0 43 -15t15 -43q0 -26 -15 -42t-43 -16q-26 0 -41 15t-15 41z" />
<glyph unicode="&#x2b3;" horiz-adv-x="698" d="M224 688v752h66v-114q96 128 226 128q60 0 106 -18l-18 -66q-58 16 -102 16q-62 0 -112 -31t-96 -95v-572h-70z" />
<glyph unicode="&#x2b4;" horiz-adv-x="700" d="M76 698l18 68q58 -16 102 -16q122 0 210 126v572h70v-752h-66v114q-94 -130 -226 -130q-50 0 -108 18z" />
<glyph unicode="&#x2b5;" horiz-adv-x="644" d="M76 690l18 68q58 -16 102 -16q62 0 112 31t96 95v572h70v-752v-124q0 -64 28 -94t86 -30q42 0 72 12l14 -60q-46 -14 -86 -14q-90 0 -137 47t-47 139v232q-92 -124 -222 -124q-52 0 -106 18z" />
<glyph unicode="&#x2b6;" horiz-adv-x="956" d="M232 688v752h72v-294h204l232 294h88l-242 -300q98 -16 151 -74t53 -150q0 -108 -71 -168t-199 -60h-240h-48zM304 752h212q98 0 148 42t50 124q0 164 -194 164h-216v-330z" />
<glyph unicode="&#x2b7;" horiz-adv-x="1282" d="M120 1448h74l204 -682l204 682h80l202 -682l204 682h74l-238 -752h-82l-200 658l-202 -658h-82z" />
<glyph unicode="&#x2b8;" horiz-adv-x="872" d="M116 1440h76l244 -672l244 672h76l-286 -764q-80 -218 -328 -298l-24 64q102 32 171 90t113 150z" />
<glyph unicode="&#x2b9;" horiz-adv-x="346" d="M120 1034v12l74 450h72v-12l-90 -450h-56z" />
<glyph unicode="&#x2ba;" horiz-adv-x="592" d="M100 1034v12l74 450h72v-12l-90 -450h-56zM386 1034v12l74 450h72v-12l-90 -450h-56z" />
<glyph unicode="&#x2bb;" horiz-adv-x="336" d="M108 1202q0 118 39 201t129 155l30 -34q-74 -72 -103 -143t-29 -177q0 -40 4 -84h-66q-4 44 -4 82z" />
<glyph unicode="&#x2bc;" horiz-adv-x="336" d="M30 1136q74 72 103 143t29 177q0 40 -4 84h66q4 -44 4 -82q0 -118 -39 -201t-129 -155z" />
<glyph unicode="&#x2bd;" horiz-adv-x="336" d="M108 1458q0 38 4 82h66q-4 -44 -4 -84q0 -106 29 -177t103 -143l-30 -34q-90 72 -129 155t-39 201z" />
<glyph unicode="&#x2be;" horiz-adv-x="324" d="M84 1208v58q128 0 128 128t-128 128v58q90 0 140 -49t50 -137t-50 -137t-140 -49z" />
<glyph unicode="&#x2bf;" horiz-adv-x="324" d="M56 1394q0 88 50 137t140 49v-58q-128 0 -128 -128t128 -128v-58q-90 0 -140 49t-50 137z" />
<glyph unicode="&#x2c0;" horiz-adv-x="950" d="M150 1674q142 118 326 118q142 0 223 -80t81 -222q0 -128 -80 -225t-224 -149v-428h-70v478q142 40 220 122t78 194q0 116 -60 179t-170 63q-150 0 -282 -106z" />
<glyph unicode="&#x2c1;" horiz-adv-x="950" d="M170 1478q0 148 85 231t237 83q170 0 308 -120l-44 -54q-124 106 -264 106q-118 0 -182 -63t-64 -179q0 -112 78 -194t220 -122v-478h-70v424q-144 46 -224 142t-80 224z" />
<glyph unicode="&#x2c2;" horiz-adv-x="700" d="M140 1196l372 392l48 -48l-332 -344l332 -344l-48 -48z" />
<glyph unicode="&#x2c3;" horiz-adv-x="700" d="M140 852l332 344l-332 344l48 48l372 -392l-372 -392z" />
<glyph unicode="&#x2c4;" horiz-adv-x="960" d="M116 908l364 680l364 -680l-60 -32l-304 582l-304 -582z" />
<glyph unicode="&#x2c5;" horiz-adv-x="960" d="M116 1548l60 32l304 -582l304 582l60 -32l-364 -680z" />
<glyph unicode="&#x2c6;" horiz-adv-x="1000" d="M248 1230v12l218 326h68l218 -326v-12h-62l-190 278l-190 -278h-62z" />
<glyph unicode="&#x2c7;" horiz-adv-x="1000" d="M248 1556v12h62l190 -278l190 278h62v-12l-218 -326h-68z" />
<glyph unicode="&#x2c8;" horiz-adv-x="352" d="M164 1228v448h56v-448h-56z" />
<glyph unicode="&#x2c9;" horiz-adv-x="1000" d="M244 1310v62h512v-62h-512z" />
<glyph unicode="&#x2ca;" horiz-adv-x="1000" d="M422 1230v12l232 326h78v-12l-248 -326h-62z" />
<glyph unicode="&#x2cb;" horiz-adv-x="1000" d="M292 1556v12h78l216 -326v-12h-62z" />
<glyph unicode="&#x2cc;" horiz-adv-x="352" d="M164 -158h56v-448h-56v448z" />
<glyph unicode="&#x2cd;" horiz-adv-x="764" d="M126 -242h512v-62h-512v62z" />
<glyph unicode="&#x2ce;" horiz-adv-x="652" d="M126 -168h86l314 -276v-14h-70l-330 276v14z" />
<glyph unicode="&#x2cf;" horiz-adv-x="670" d="M126 -444l332 276h86v-14l-348 -276h-70v14z" />
<glyph unicode="&#x2d0;" horiz-adv-x="532" d="M126 0l120 236h40l120 -236h-280zM126 1052h280l-120 -236h-40z" />
<glyph unicode="&#x2d1;" horiz-adv-x="532" d="M126 1052h280l-120 -236h-40z" />
<glyph unicode="&#x2d2;" horiz-adv-x="584" d="M178 348v58q128 0 128 128t-128 128v58q90 0 140 -49t50 -137t-50 -137t-140 -49z" />
<glyph unicode="&#x2d3;" horiz-adv-x="584" d="M216 534q0 88 50 137t140 49v-58q-128 0 -128 -128t128 -128v-58q-90 0 -140 49t-50 137z" />
<glyph unicode="&#x2d4;" horiz-adv-x="860" d="M186 624v52h488v-52h-216v-254h-56v254h-216z" />
<glyph unicode="&#x2d5;" horiz-adv-x="860" d="M186 416v52h216v254h56v-254h216v-52h-488z" />
<glyph unicode="&#x2d6;" horiz-adv-x="990" d="M152 574v60h312v312h62v-312h312v-60h-312v-312h-62v312h-312z" />
<glyph unicode="&#x2d7;" horiz-adv-x="990" d="M152 572v62h686v-62h-686z" />
<glyph unicode="&#x2d8;" horiz-adv-x="1000" d="M248 1504h58q12 -90 62 -136t134 -46q82 0 131 46t61 136h58q-6 -116 -73 -180t-179 -64t-179 64t-73 180z" />
<glyph unicode="&#x2d9;" horiz-adv-x="1000" d="M438 1350q0 32 17 50t45 18t45 -17t17 -49t-17 -50t-45 -18t-45 17t-17 49z" />
<glyph unicode="&#x2da;" horiz-adv-x="1000" d="M310 1394q0 88 50 137t140 49t140 -49t50 -137t-50 -137t-140 -49t-140 49t-50 137zM372 1394q0 -128 128 -128t128 128t-128 128t-128 -128z" />
<glyph unicode="&#x2db;" horiz-adv-x="1000" d="M182 -272q0 80 53 157t149 137l48 -22q-90 -58 -138 -125t-48 -135q0 -56 31 -86t89 -30q70 0 138 42l24 -46q-72 -54 -170 -54q-84 0 -130 42t-46 120z" />
<glyph unicode="&#x2dc;" horiz-adv-x="1000" d="M202 1244q2 112 47 173t121 61q52 0 84 -25t66 -71q28 -40 52 -60t60 -20q100 0 112 172h54q-2 -112 -47 -173t-121 -61q-52 0 -84 25t-66 71q-28 40 -52 60t-60 20q-100 0 -112 -172h-54z" />
<glyph unicode="&#x2dd;" horiz-adv-x="1000" d="M314 1230v12l150 326h72v-12l-166 -326h-56zM596 1230v12l150 326h72v-12l-166 -326h-56z" />
<glyph unicode="&#x2de;" horiz-adv-x="376" d="M-84 902l238 42l-12 -84q-4 -48 -4 -64q0 -92 57 -144t159 -52h22l-22 -64q-134 0 -210 69t-76 193q0 38 6 70l-156 -28z" />
<glyph unicode="&#x2df;" horiz-adv-x="810" d="M186 1330l176 158l-176 156l42 42l178 -160l178 160l40 -42l-176 -156l176 -158l-40 -40l-178 158l-178 -158z" />
<glyph unicode="&#x2e0;" horiz-adv-x="880" d="M116 1448h76l252 -522l246 522h74l-286 -596l86 -178q40 -82 40 -144q0 -68 -42 -107t-118 -39t-118 39t-42 107q0 62 40 144l82 174zM352 534q0 -90 92 -90t92 90q0 46 -38 124l-56 116l-56 -116q-34 -74 -34 -124z" />
<glyph unicode="&#x2e1;" horiz-adv-x="540" d="M220 822v968h70v-964q0 -38 19 -56t61 -18q34 0 58 4l8 -58q-44 -10 -78 -10q-68 0 -103 34t-35 100z" />
<glyph unicode="&#x2e2;" horiz-adv-x="780" d="M112 738l26 60q110 -64 236 -64q98 0 149 38t51 112q0 58 -35 92t-109 50l-106 24q-102 22 -149 70t-47 128q0 98 67 153t189 55q134 0 240 -56l-28 -60q-104 52 -216 52q-88 0 -136 -35t-48 -103q0 -54 33 -86t107 -48l110 -24q102 -22 150 -73t48 -133q0 -104 -71 -162 t-199 -58q-70 0 -140 18t-122 50z" />
<glyph unicode="&#x2e3;" horiz-adv-x="846" d="M108 696l274 382l-264 370h82l224 -316l230 316h80l-270 -368l274 -384h-82l-236 330l-232 -330h-80z" />
<glyph unicode="&#x2e4;" horiz-adv-x="954" d="M170 1486q0 148 85 231t239 83q172 0 310 -120l-44 -54q-126 106 -266 106q-118 0 -183 -63t-65 -179q0 -112 79 -194t221 -122v-478h-70v424q-146 44 -226 140t-80 226z" />
<glyph unicode="&#x2e5;" horiz-adv-x="812" d="M76 1478v62h532v-1540h-66v1478h-466z" />
<glyph unicode="&#x2e6;" horiz-adv-x="812" d="M76 1054v62h466v424h66v-486v-1054h-66v1054h-466z" />
<glyph unicode="&#x2e7;" horiz-adv-x="812" d="M76 740v62h466v738h66v-800v-740h-66v740h-466z" />
<glyph unicode="&#x2e8;" horiz-adv-x="812" d="M76 426v62h466v1052h66v-1114v-426h-66v426h-466z" />
<glyph unicode="&#x2e9;" horiz-adv-x="812" d="M76 0v62h466v1478h66v-1540h-532z" />
<glyph unicode="&#x2ea;" horiz-adv-x="852" d="M204 0v1052h66v-990h506v-62h-572z" />
<glyph unicode="&#x2eb;" horiz-adv-x="818" d="M204 0v1052h66v-494h472v-60h-472v-498h-66z" />
<glyph unicode="&#x2ec;" horiz-adv-x="1000" d="M248 -120h62l190 -278l190 278h62v-12l-218 -326h-68l-218 326v12z" />
<glyph unicode="&#x2ed;" horiz-adv-x="1030" d="M198 1008v60h634v-60h-634zM198 1362v60h634v-60h-634z" />
<glyph unicode="&#x2ee;" horiz-adv-x="600" d="M30 1136q74 72 103 143t29 177q0 40 -4 84h66q4 -44 4 -82q0 -118 -39 -201t-129 -155zM294 1136q74 72 103 143t29 177q0 40 -4 84h66q4 -44 4 -82q0 -118 -39 -201t-129 -155z" />
<glyph unicode="&#x2ef;" horiz-adv-x="960" d="M116 178l60 32l304 -582l304 582l60 -32l-364 -680z" />
<glyph unicode="&#x2f0;" horiz-adv-x="960" d="M116 -462l364 680l364 -680l-60 -32l-304 582l-304 -582z" />
<glyph unicode="&#x2f1;" horiz-adv-x="700" d="M140 -174l372 392l48 -48l-332 -344l332 -344l-48 -48z" />
<glyph unicode="&#x2f2;" horiz-adv-x="700" d="M140 170l48 48l372 -392l-372 -392l-48 48l332 344z" />
<glyph unicode="&#x2f3;" horiz-adv-x="900" d="M260 -380q0 88 50 137t140 49t140 -49t50 -137t-50 -137t-140 -49t-140 49t-50 137zM322 -380q0 -128 128 -128t128 128t-128 128t-128 -128z" />
<glyph unicode="&#x2f4;" horiz-adv-x="674" d="M180 716v12h78l216 -326v-12h-62z" />
<glyph unicode="&#x2f5;" horiz-adv-x="868" d="M180 716v12h72l134 -326v-12h-56zM462 716v12h72l134 -326v-12h-56z" />
<glyph unicode="&#x2f6;" horiz-adv-x="884" d="M200 390v12l150 326h72v-12l-166 -326h-56zM482 390v12l150 326h72v-12l-166 -326h-56z" />
<glyph unicode="&#x2f7;" horiz-adv-x="848" d="M126 -450q2 112 47 173t121 61q52 0 84 -25t66 -71q28 -40 52 -60t60 -20q100 0 112 172h54q-2 -112 -47 -173t-121 -61q-52 0 -84 25t-66 71q-28 40 -52 60t-60 20q-100 0 -112 -172h-54z" />
<glyph unicode="&#x2f8;" horiz-adv-x="556" d="M208 814q0 34 18 53t52 19t52 -18t18 -52t-19 -54t-51 -20q-34 0 -52 19t-18 53zM208 1300q0 34 18 53t52 19t52 -18t18 -52t-19 -54t-51 -20q-34 0 -52 19t-18 53z" />
<glyph unicode="&#x2f9;" horiz-adv-x="756" d="M224 1024v408v16h318v-52h-262v-372h-56z" />
<glyph unicode="&#x2fa;" horiz-adv-x="756" d="M214 1396v52h318v-52v-372h-56v372h-262z" />
<glyph unicode="&#x2fb;" horiz-adv-x="756" d="M224 0v52v372h56v-372h262v-52h-318z" />
<glyph unicode="&#x2fc;" horiz-adv-x="756" d="M214 0v52h262v372h56v-408v-16h-318z" />
<glyph unicode="&#x2fd;" horiz-adv-x="986" d="M132 -60h66v-288h590v288h66v-352h-656h-66v352z" />
<glyph unicode="&#x2fe;" horiz-adv-x="926" d="M132 -60h66v-288h636v-64h-702v352z" />
<glyph unicode="&#x2ff;" horiz-adv-x="1092" d="M140 -354l222 192h68v-20l-182 -154h696v-56h-696l182 -154v-20h-68l-222 192v20z" />
<glyph unicode="&#x300;" d="M-768 1556v12h78l216 -326v-12h-62z" />
<glyph unicode="&#x301;" d="M-638 1230v12l232 326h78v-12l-248 -326h-62z" />
<glyph unicode="&#x302;" d="M-814 1230v12l218 326h68l218 -326v-12h-62l-190 278l-190 -278h-62z" />
<glyph unicode="&#x303;" d="M-858 1244q2 112 47 173t121 61q52 0 84 -25t66 -71q28 -40 52 -60t60 -20q100 0 112 172h54q-2 -112 -47 -173t-121 -61q-52 0 -84 25t-66 71q-28 40 -52 60t-60 20q-100 0 -112 -172h-54z" />
<glyph unicode="&#x304;" d="M-816 1310v62h512v-62h-512z" />
<glyph unicode="&#x305;" d="M-914 1690v64h738v-64h-738z" />
<glyph unicode="&#x306;" d="M-812 1504h58q12 -90 62 -136t134 -46q82 0 131 46t61 136h58q-6 -116 -73 -180t-179 -64t-179 64t-73 180z" />
<glyph unicode="&#x307;" d="M-622 1350q0 32 17 50t45 18t45 -17t17 -49t-17 -50t-45 -18t-45 17t-17 49z" />
<glyph unicode="&#x308;" d="M-800 1350q0 30 16 48t44 18t44 -17t16 -49q0 -30 -16 -48t-44 -18t-44 17t-16 49zM-440 1350q0 30 16 48t44 18t44 -17t16 -49q0 -30 -16 -48t-44 -18t-44 17t-16 49z" />
<glyph unicode="&#x309;" d="M-706 1546q76 50 158 50q62 0 98 -34t36 -94q0 -46 -18 -71t-54 -49q-28 -20 -42 -36t-14 -42q0 -16 4 -40h-60q-4 24 -4 46q0 44 18 66t52 42q28 18 43 35t15 49q0 70 -84 70q-64 0 -124 -42z" />
<glyph unicode="&#x30a;" d="M-750 1394q0 88 50 137t140 49t140 -49t50 -137t-50 -137t-140 -49t-140 49t-50 137zM-688 1394q0 -128 128 -128t128 128t-128 128t-128 -128z" />
<glyph unicode="&#x30b;" d="M-746 1230v12l150 326h72v-12l-166 -326h-56zM-464 1230v12l150 326h72v-12l-166 -326h-56z" />
<glyph unicode="&#x30c;" d="M-812 1556v12h62l190 -278l190 278h62v-12l-218 -326h-68z" />
<glyph unicode="&#x30d;" d="M-588 1228v448h56v-448h-56z" />
<glyph unicode="&#x30e;" d="M-708 1228v448h56v-448h-56zM-468 1228v448h56v-448h-56z" />
<glyph unicode="&#x30f;" d="M-804 1556v12h72l134 -326v-12h-56zM-522 1556v12h72l134 -326v-12h-56z" />
<glyph unicode="&#x310;" d="M-818 1504h58q12 -90 64 -136t140 -46q176 0 200 182h58q-6 -116 -74 -180t-186 -64t-186 64t-74 180zM-620 1530q0 32 17 50t45 18t45 -17t17 -49t-17 -50t-45 -18t-45 17t-17 49z" />
<glyph unicode="&#x311;" d="M-812 1258q6 116 73 180t179 64t179 -64t73 -180h-58q-12 90 -62 136t-134 46q-82 0 -131 -46t-61 -136h-58z" />
<glyph unicode="&#x312;" d="M-600 1316q0 92 34 160t110 130l32 -36q-58 -56 -82 -112t-24 -140q0 -32 4 -68h-70q-4 36 -4 66z" />
<glyph unicode="&#x313;" d="M-704 1246q58 56 82 112t24 140q0 32 -4 68h70q4 -36 4 -66q0 -92 -34 -160t-110 -130z" />
<glyph unicode="&#x314;" d="M-592 1500q0 30 4 66h70q-4 -36 -4 -68q0 -84 24 -140t82 -112l-32 -36q-76 62 -110 130t-34 160z" />
<glyph unicode="&#x315;" d="M-192 1266q44 54 61 104t17 124q0 56 -6 88h70q6 -32 6 -76q0 -86 -23 -146t-89 -126z" />
<glyph unicode="&#x316;" d="M-758 -168h86l314 -276v-14h-70l-330 276v14z" />
<glyph unicode="&#x317;" d="M-776 -444l332 276h86v-14l-348 -276h-70v14z" />
<glyph unicode="&#x318;" d="M-764 -328h354v178h56v-408h-56v178h-354v52z" />
<glyph unicode="&#x319;" d="M-766 -150h56v-178h354v-52h-354v-178h-56v408z" />
<glyph unicode="&#x31a;" d="M-766 1486v52h388v-288h-56v236h-332z" />
<glyph unicode="&#x31b;" d="M-310 996l2 56q118 0 166 38t48 134q0 50 -10 122h62q10 -60 10 -118q0 -124 -65 -178t-213 -54z" />
<glyph unicode="&#x31c;" d="M-666 -332q0 88 50 137t142 49v-58q-64 0 -97 -33t-33 -95t33 -95t97 -33v-58q-92 0 -142 49t-50 137z" />
<glyph unicode="&#x31d;" d="M-804 -404h216v254h56v-254h216v-52h-488v52z" />
<glyph unicode="&#x31e;" d="M-804 -252h488v-52h-216v-254h-56v254h-216v52z" />
<glyph unicode="&#x31f;" d="M-764 -328h176v178h56v-178h176v-52h-176v-178h-56v178h-176v52z" />
<glyph unicode="&#x320;" d="M-756 -326h392v-56h-392v56z" />
<glyph unicode="&#x321;" d="M-292 -418l18 60q36 -16 84 -16q76 0 113 41t37 127v274h70v-278q0 -110 -56 -168t-164 -58q-56 0 -102 18z" />
<glyph unicode="&#x322;" d="M-30 68h70v-284q0 -82 34 -120t106 -38q48 0 84 16l18 -60q-46 -18 -102 -18q-104 0 -157 55t-53 161v288z" />
<glyph unicode="&#x323;" d="M-622 -318q0 32 17 50t45 18t45 -17t17 -49t-17 -50t-45 -18t-45 17t-17 49z" />
<glyph unicode="&#x324;" d="M-800 -308q0 30 16 48t44 18t44 -17t16 -49q0 -30 -16 -48t-44 -18t-44 17t-16 49zM-440 -308q0 30 16 48t44 18t44 -17t16 -49q0 -30 -16 -48t-44 -18t-44 17t-16 49z" />
<glyph unicode="&#x325;" d="M-750 -380q0 88 50 137t140 49t140 -49t50 -137t-50 -137t-140 -49t-140 49t-50 137zM-688 -380q0 -128 128 -128t128 128t-128 128t-128 -128z" />
<glyph unicode="&#x326;" d="M-700 -502q58 56 82 112t24 140q0 32 -4 68h70q4 -36 4 -66q0 -92 -34 -160t-110 -130z" />
<glyph unicode="&#x327;" d="M-738 -410l20 50q74 -36 154 -36q134 0 134 106q0 98 -122 98q-52 0 -90 -18l-26 24l94 226l48 -34l-74 -150q32 8 54 8q84 0 131 -40t47 -112q0 -78 -52 -122t-144 -44q-98 0 -174 44z" />
<glyph unicode="&#x328;" d="M-878 -272q0 80 53 157t149 137l48 -22q-90 -58 -138 -125t-48 -135q0 -56 31 -86t89 -30q68 0 138 42l24 -46q-72 -54 -170 -54q-84 0 -130 42t-46 120z" />
<glyph unicode="&#x329;" d="M-588 -158h56v-448h-56v448z" />
<glyph unicode="&#x32a;" d="M-778 -232h448v-52v-274h-56v274h-336v-274h-56v302v24z" />
<glyph unicode="&#x32b;" d="M-850 -236h48q6 -118 108 -118t108 118h40h10q6 -118 112 -118q96 0 102 118h48q0 -80 -40 -124t-112 -44q-100 0 -134 84q-34 -84 -132 -84q-74 0 -116 44t-42 124z" />
<glyph unicode="&#x32c;" d="M-842 -168h62l220 -234l220 234h62v-14l-248 -276h-68l-248 276v14z" />
<glyph unicode="&#x32d;" d="M-842 -444l248 276h68l248 -276v-14h-62l-220 234l-220 -234h-62v14z" />
<glyph unicode="&#x32e;" d="M-812 -170h58q12 -90 62 -136t134 -46q82 0 131 46t61 136h58q-6 -116 -73 -180t-179 -64t-179 64t-73 180z" />
<glyph unicode="&#x32f;" d="M-812 -436q6 116 73 180t179 64t179 -64t73 -180h-58q-12 90 -62 136t-134 46q-82 0 -131 -46t-61 -136h-58z" />
<glyph unicode="&#x330;" d="M-850 -450q2 112 47 173t121 61q52 0 84 -25t66 -71q28 -40 52 -60t60 -20q100 0 112 172h54q-2 -112 -47 -173t-121 -61q-52 0 -84 25t-66 71q-28 40 -52 60t-60 20q-100 0 -112 -172h-54z" />
<glyph unicode="&#x331;" d="M-786 -242h512v-62h-512v62z" />
<glyph unicode="&#x332;" d="M-930 -282h738v-64h-738v64z" />
<glyph unicode="&#x333;" d="M-944 -282h736v-64h-736v64zM-944 -522h736v-64h-736v64z" />
<glyph unicode="&#x334;" d="M-858 388q2 112 47 173t121 61q52 0 84 -25t66 -71q28 -40 52 -60t60 -20q100 0 112 172h54q-2 -112 -47 -173t-121 -61q-52 0 -84 25t-66 71q-28 40 -52 60t-60 20q-100 0 -112 -172h-54z" />
<glyph unicode="&#x335;" d="M-898 520v62h664v-62h-664z" />
<glyph unicode="&#x336;" d="M-1194 518v64h1268v-64h-1268z" />
<glyph unicode="&#x337;" d="M-1032 -8l880 1096h66v-12l-880 -1096h-66v12z" />
<glyph unicode="&#x338;" d="M-1328 -6l1180 1474h68v-14l-1180 -1474h-68v14z" />
<glyph unicode="&#x339;" d="M-656 -146q92 0 142 -49t50 -137t-50 -137t-142 -49v58q64 0 97 33t33 95t-33 95t-97 33v58z" />
<glyph unicode="&#x33a;" d="M-774 -150h56v-274h336v274h56v-302v-24h-448v52v274z" />
<glyph unicode="&#x33b;" d="M-744 -172h368v-312v-52h-312h-56v312v52zM-688 -224v-260h256v260h-256z" />
<glyph unicode="&#x33c;" d="M-848 -406q0 80 40 124t112 44q100 0 134 -84q34 84 132 84q74 0 116 -44t42 -124h-48q-6 118 -108 118t-108 -118h-40h-10q-6 118 -112 118q-96 0 -102 -118h-48z" />
<glyph unicode="&#x33d;" d="M-780 1330l176 158l-176 156l42 42l178 -160l178 160l40 -42l-176 -156l176 -158l-40 -40l-178 158l-178 -158z" />
<glyph unicode="&#x33e;" d="M-676 1668q0 76 61 121t173 47v-54q-172 -12 -172 -112q0 -36 20 -60t60 -52q46 -34 71 -66t25 -84q0 -76 -61 -121t-173 -47v54q172 12 172 112q0 36 -20 60t-60 52q-46 34 -71 66t-25 84z" />
<glyph unicode="&#x33f;" d="M-944 1670v64h736v-64h-736zM-944 1910v64h736v-64h-736z" />
<glyph unicode="&#x340;" d="M-768 1556v12h78l216 -326v-12h-62z" />
<glyph unicode="&#x341;" d="M-638 1230v12l232 326h78v-12l-248 -326h-62z" />
<glyph unicode="&#x342;" d="M-298 1244q2 112 47 173t121 61q52 0 84 -25t66 -71q28 -40 52 -60t60 -20q100 0 112 172h54q-2 -112 -47 -173t-121 -61q-52 0 -84 25t-66 71q-28 40 -52 60t-60 20q-100 0 -112 -172h-54z" />
<glyph unicode="&#x344;" d="M-806 1362q0 32 17 50t45 18t45 -17t17 -49t-17 -50t-45 -18t-45 17t-17 49zM-596 1230v16l132 322h80v-14l-154 -324h-58zM-334 1362q0 32 17 50t45 18t45 -17t17 -49t-17 -50t-45 -18t-45 17t-17 49z" />
<glyph unicode="&#x346;" d="M-774 1242v302v24h448v-52v-274h-56v274h-336v-274h-56z" />
<glyph unicode="&#x347;" d="M-758 -226h396v-54h-396v54zM-758 -426h396v-54h-396v54z" />
<glyph unicode="&#x348;" d="M-708 -158h56v-448h-56v448zM-468 -158h56v-448h-56v448z" />
<glyph unicode="&#x349;" d="M-756 -170h388v-288h-56v236h-332v52z" />
<glyph unicode="&#x34a;" d="M-870 1248q2 108 49 168t125 60q76 0 130 -62l96 160l48 -28l-106 -178q26 -32 49 -48t57 -16q104 0 116 168h56q-2 -108 -49 -168t-125 -60q-46 0 -77 18t-61 52l-86 -144l-48 28l98 162q-22 28 -45 42t-55 14q-50 0 -80 -43t-36 -125h-56z" />
<glyph unicode="&#x34b;" d="M-870 1418q2 104 49 162t125 58q54 0 87 -23t69 -67q30 -38 55 -57t63 -19q104 0 116 162h56q-2 -106 -49 -163t-125 -57q-54 0 -87 23t-69 67q-30 38 -55 57t-63 19q-50 0 -80 -41t-36 -121h-56zM-618 1284q0 28 16 45t42 17q28 0 43 -16t15 -44t-16 -45t-42 -17 q-28 0 -43 16t-15 44zM-618 1758q0 28 16 45t42 17q28 0 43 -16t15 -44t-16 -45t-42 -17q-28 0 -43 16t-15 44z" />
<glyph unicode="&#x34c;" d="M-870 1246q2 104 49 162t125 58q54 0 87 -23t69 -67q30 -38 55 -57t63 -19q104 0 116 162h56q-2 -106 -49 -163t-125 -57q-54 0 -87 23t-69 67q-30 38 -55 57t-63 19q-50 0 -80 -41t-36 -121h-56zM-870 1506q2 104 49 162t125 58q54 0 87 -23t69 -67q30 -38 55 -57 t63 -19q104 0 116 162h56q-2 -106 -49 -163t-125 -57q-54 0 -87 23t-69 67q-30 38 -55 57t-63 19q-50 0 -80 -41t-36 -121h-56z" />
<glyph unicode="&#x34d;" d="M-982 -356l222 192h62v-20l-188 -156l648 2l-184 154v20h62l222 -192v-20l-224 -192h-62v20l192 158l-654 -2l190 -156v-20h-62l-224 192v20z" />
<glyph unicode="&#x34e;" d="M-760 -372l192 224h20l192 -222v-62h-20l-154 182l2 -356h-56l-2 356l-154 -184h-20v62z" />
<glyph unicode="&#x34f;" />
<glyph unicode="&#x350;" d="M-676 1222v20l214 182l-214 182v20h62l222 -192v-20l-222 -192h-62z" />
<glyph unicode="&#x351;" d="M-684 1442q0 88 50 137t142 49v-58q-64 0 -97 -33t-33 -95t33 -95t97 -33v-58q-92 0 -142 49t-50 137z" />
<glyph unicode="&#x352;" d="M-822 1392q6 116 74 180t186 64t186 -64t74 -180h-58q-12 90 -64 136t-140 46q-176 0 -200 -182h-58zM-624 1364q0 32 17 50t45 18t45 -17t17 -49t-17 -50t-45 -18t-45 17t-17 49z" />
<glyph unicode="&#x353;" d="M-780 -196l42 42l178 -160l178 160l40 -42l-176 -156l176 -158l-40 -40l-178 158l-178 -158l-42 40l176 158z" />
<glyph unicode="&#x354;" d="M-728 -346l222 192h62v-20l-214 -182l214 -182v-20h-62l-222 192v20z" />
<glyph unicode="&#x355;" d="M-676 -170h62l222 -192v-20l-222 -192h-62v20l214 182l-214 182v20z" />
<glyph unicode="&#x356;" d="M-924 -170h62l222 -192v-20l-222 -192h-62v20l214 182l-214 182v20zM-550 -438l192 222h20l192 -222v-62h-20l-182 214l-182 -214h-20v62z" />
<glyph unicode="&#x357;" d="M-600 1212v58q64 0 97 33t33 95t-33 95t-97 33v58q92 0 142 -49t50 -137t-50 -137t-142 -49z" />
<glyph unicode="&#x358;" d="M-622 1350q0 32 17 50t45 18t45 -17t17 -49t-17 -50t-45 -18t-45 17t-17 49z" />
<glyph unicode="&#x359;" d="M-780 -338l20 56l180 -64l-8 192h56l-6 -192l178 64l20 -56l-186 -54l118 -154l-44 -34l-108 162l-108 -162l-44 34l118 154z" />
<glyph unicode="&#x35a;" d="M-908 -380q0 88 50 137t140 49q112 0 158 -72q50 72 160 72q90 0 140 -49t50 -137t-50 -137t-140 -49q-110 0 -160 72q-46 -72 -158 -72q-90 0 -140 49t-50 137zM-846 -380q0 -128 128 -128t128 128t-128 128t-128 -128zM-528 -380q0 -128 128 -128t128 128t-128 128 t-128 -128z" />
<glyph unicode="&#x35b;" d="M-738 1402l118 274h62l-92 -216h270l-112 -258h-62l86 200h-270z" />
<glyph unicode="&#x35c;" d="M-546 -198l42 34q74 -98 212 -153t292 -55t292 55t212 153l42 -34q-188 -238 -546 -238t-546 238z" />
<glyph unicode="&#x35d;" d="M-546 1480l42 34q74 -98 212 -153t292 -55t292 55t212 153l42 -34q-188 -238 -546 -238t-546 238z" />
<glyph unicode="&#x35e;" d="M-604 1308v64h1208v-64h-1208z" />
<glyph unicode="&#x35f;" d="M-604 -242h1208v-64h-1208v64z" />
<glyph unicode="&#x360;" d="M-574 1262q8 106 81 166t183 60q68 0 141 -21t179 -63q102 -40 173 -61t137 -21q82 0 133 46t59 116h62q-8 -106 -81 -166t-183 -60q-68 0 -141 21t-179 63q-102 40 -173 61t-137 21q-82 0 -133 -46t-59 -116h-62z" />
<glyph unicode="&#x361;" d="M-546 1286q188 238 546 238t546 -238l-42 -34q-74 98 -212 153t-292 55t-292 -55t-212 -153z" />
<glyph unicode="&#x362;" d="M-1020 -336h860l-182 154v20h68l222 -192v-20l-222 -192h-68v20l182 154h-860v56z" />
<glyph unicode="&#x363;" d="M-716 1350q0 78 68 115t214 37v32q0 46 -29 70t-83 24q-56 0 -110 -24l-14 44q56 28 128 28t115 -35t43 -101v-310h-48v54q-52 -64 -142 -64q-68 0 -105 34t-37 96zM-664 1352q0 -84 100 -84q74 0 130 58v134q-118 0 -174 -26t-56 -82z" />
<glyph unicode="&#x364;" d="M-752 1448q0 108 48 168t136 60q84 0 131 -55t47 -153q0 -22 -2 -32h-310q2 -82 41 -125t109 -43q64 0 120 34l20 -40q-54 -42 -142 -42q-94 0 -146 60t-52 168zM-700 1480h258q0 70 -34 110t-94 40t-93 -38t-37 -112z" />
<glyph unicode="&#x365;" d="M-598 1788q0 40 38 40t38 -38q0 -40 -38 -40t-38 38zM-586 1230v436h52v-436h-52z" />
<glyph unicode="&#x366;" d="M-746 1448q0 112 48 170t138 58t137 -58t47 -170t-48 -170t-138 -58t-137 58t-47 170zM-694 1448q0 -90 34 -136t98 -46q134 0 134 182q0 90 -34 136t-98 46q-134 0 -134 -182z" />
<glyph unicode="&#x367;" d="M-726 1356v310h50v-306q0 -92 98 -92q38 0 69 14t59 44v340h50v-436h-48v52q-56 -62 -142 -62q-64 0 -100 36t-36 100z" />
<glyph unicode="&#x368;" d="M-742 1452q0 102 52 163t140 61q72 0 128 -34l-18 -42q-58 30 -110 30q-66 0 -103 -46t-37 -128q0 -92 38 -140t112 -48q54 0 104 28l20 -40q-52 -36 -128 -36q-94 0 -146 61t-52 171z" />
<glyph unicode="&#x369;" d="M-754 1450q0 106 46 166t130 60q70 0 128 -54v240h50v-632h-46v60q-54 -70 -138 -70q-80 0 -125 60t-45 170zM-702 1452q0 -90 33 -137t95 -47q36 0 64 14t60 46v244q-54 58 -128 58q-62 0 -93 -45t-31 -133z" />
<glyph unicode="&#x36a;" d="M-726 1230v632h50v-244q58 58 144 58q66 0 103 -36t37 -100v-310h-52v306q0 92 -100 92q-70 0 -132 -50v-348h-50z" />
<glyph unicode="&#x36b;" d="M-856 1230v436h48v-50q60 60 140 60q92 0 122 -68q62 68 150 68q64 0 99 -36t35 -100v-310h-52v306q0 92 -94 92q-64 0 -128 -52q4 -24 4 -36v-310h-52v306q0 92 -94 92q-66 0 -128 -50v-348h-50z" />
<glyph unicode="&#x36c;" d="M-628 1230v436h48v-62q54 72 126 72q28 0 58 -12l-12 -48q-40 8 -58 8q-36 0 -62 -16t-50 -50v-328h-50z" />
<glyph unicode="&#x36d;" d="M-742 1624v42h78v130h52v-130h136v-42h-136v-256q0 -98 84 -98q26 0 48 8l10 -44q-34 -10 -64 -10q-64 0 -97 35t-33 101v264h-78z" />
<glyph unicode="&#x36e;" d="M-752 1666h56l132 -382l134 382h54l-158 -436h-58z" />
<glyph unicode="&#x36f;" d="M-716 1230l152 222l-146 214h60l116 -174l120 174h60l-152 -214l154 -222h-60l-124 182l-120 -182h-60z" />
<glyph unicode="&#x370;" horiz-adv-x="1178" d="M212 0v1448h72v-680h814v-66h-814v-702h-72z" />
<glyph unicode="&#x371;" horiz-adv-x="1068" d="M204 0v1054h70v-468h718v-60h-718v-526h-70z" />
<glyph unicode="&#x372;" horiz-adv-x="1036" d="M80 1382v66h474h402v-66h-402v-1382h-72v1382h-402z" />
<glyph unicode="&#x373;" horiz-adv-x="636" d="M80 1382v66h476v-66h-202v-1382h-72v1382h-202z" />
<glyph unicode="&#x374;" horiz-adv-x="6" d="M-10 1190v12l94 366h104v-12l-136 -366h-62z" />
<glyph unicode="&#x375;" horiz-adv-x="6" d="M-10 -310l136 366h62v-12l-94 -366h-104v12z" />
<glyph unicode="&#x376;" horiz-adv-x="1428" d="M212 0v1448h68v-1328l868 1328h68v-1448h-68v1328l-868 -1328h-68z" />
<glyph unicode="&#x377;" horiz-adv-x="1138" d="M204 0v1052h70v-932l592 932h68v-1052h-70v934l-594 -934h-66z" />
<glyph unicode="&#x37a;" d="M-34 -112h70v-130q0 -60 21 -86t75 -26q40 0 70 14l14 -62q-42 -16 -92 -16q-80 0 -119 40t-39 128v138z" />
<glyph unicode="&#x37b;" horiz-adv-x="926" d="M86 62l30 54q118 -74 258 -74q176 0 269 130t93 378q0 216 -93 340t-253 124q-124 0 -264 -76l-28 56q64 40 141 62t149 22q126 0 221 -66t147 -186t52 -280q0 -270 -114 -420t-318 -150q-80 0 -157 23t-133 63z" />
<glyph unicode="&#x37c;" horiz-adv-x="926" d="M118 546q0 160 52 280t147 186t221 66q72 0 149 -22t141 -62l-28 -56q-140 76 -264 76q-160 0 -253 -124t-93 -340q0 -248 93 -378t269 -130q140 0 258 74l30 -54q-56 -40 -133 -63t-157 -23q-204 0 -318 150t-114 420zM476 554q0 32 17 50t45 18t45 -17t17 -49t-17 -50 t-45 -18t-45 17t-17 49z" />
<glyph unicode="&#x37d;" horiz-adv-x="926" d="M86 62l30 54q118 -74 258 -74q176 0 269 130t93 378q0 216 -93 340t-253 124q-124 0 -264 -76l-28 56q64 40 141 62t149 22q126 0 221 -66t147 -186t52 -280q0 -270 -114 -420t-318 -150q-80 0 -157 23t-133 63zM326 556q0 32 17 49t45 17t45 -18t17 -50t-17 -49t-45 -17 t-45 18t-17 50z" />
<glyph unicode="&#x37e;" horiz-adv-x="516" d="M98 -316q74 72 103 141t29 169q0 56 -8 120h74q8 -64 8 -118q0 -118 -39 -199t-131 -153zM188 806q0 34 18 53t52 19t52 -18t18 -52t-19 -54t-51 -20q-34 0 -52 19t-18 53z" />
<glyph unicode="&#x384;" d="M-30 1230v12l114 326h78v-12l-130 -326h-62z" />
<glyph unicode="&#x385;" d="M-194 1350q0 30 16 48t44 18t45 -17t17 -49q0 -30 -17 -48t-45 -18t-44 17t-16 49zM-22 1230v12l60 326h78v-12l-76 -326h-62zM146 1350q0 30 16 48t44 18t44 -17t16 -49q0 -30 -16 -48t-44 -18t-44 17t-16 49z" />
<glyph unicode="&#x386;" horiz-adv-x="1316" d="M80 0l534 1448h88l534 -1448h-76l-158 430h-690l-158 -430h-74zM168 1110v12l114 326h78v-12l-130 -326h-62zM336 496h642l-320 876z" />
<glyph unicode="&#x387;" horiz-adv-x="436" d="M148 980q0 34 18 53t52 19t52 -18t18 -52t-19 -54t-51 -20q-34 0 -52 19t-18 53z" />
<glyph unicode="&#x388;" horiz-adv-x="1132" d="M-136 1110v12l114 326h78v-12l-130 -326h-62zM212 0v1448h788v-66h-716v-608h548v-66h-548v-642h740v-66h-812z" />
<glyph unicode="&#x389;" horiz-adv-x="1384" d="M-136 1110v12l114 326h78v-12l-130 -326h-62zM212 0v1448h72v-680h816v680h72v-1448h-72v702h-816v-702h-72z" />
<glyph unicode="&#x38a;" horiz-adv-x="504" d="M-136 1110v12l114 326h78v-12l-130 -326h-62zM216 0v1448h72v-1448h-72z" />
<glyph unicode="&#x38c;" horiz-adv-x="1408" d="M-90 1110v12l114 326h78v-12l-130 -326h-62zM140 724q0 368 146 559t418 191t418 -191t146 -559t-146 -559t-418 -191t-418 191t-146 559zM214 724q0 -338 124 -511t366 -173t366 173t124 511t-124 511t-366 173t-366 -173t-124 -511z" />
<glyph unicode="&#x38e;" horiz-adv-x="1156" d="M-252 1110v12l114 326h78v-12l-130 -326h-62zM72 1448h76l430 -836l430 836h76l-470 -912v-536h-72v536z" />
<glyph unicode="&#x38f;" horiz-adv-x="1476" d="M-90 1110v12l114 326h78v-12l-130 -326h-62zM140 0v66h366q-156 120 -246 313t-90 437q0 202 67 350t196 228t307 80q270 0 419 -176t149 -482q0 -240 -87 -430t-247 -320h362v-66h-464v64q184 132 273 317t89 429q0 284 -127 441t-367 157t-368 -157t-128 -441 q0 -244 94 -434t266 -312v-64h-464z" />
<glyph unicode="&#x390;" horiz-adv-x="668" d="M26 1350q0 30 16 48t44 18t45 -17t17 -49q0 -30 -17 -48t-45 -18t-44 17t-16 49zM198 1230v12l60 326h78v-12l-76 -326h-62zM204 254v798h70v-782q0 -106 48 -161t140 -55q52 0 116 16l14 -60q-62 -22 -136 -22q-118 0 -185 70t-67 196zM366 1350q0 30 16 48t44 18 t44 -17t16 -49q0 -30 -16 -48t-44 -18t-44 17t-16 49z" />
<glyph unicode="&#x391;" horiz-adv-x="1316" d="M80 0l534 1448h88l534 -1448h-76l-158 430h-690l-158 -430h-74zM336 496h642l-320 876z" />
<glyph unicode="&#x392;" horiz-adv-x="1272" d="M212 0v1448h72h406q182 0 280 -95t98 -271q0 -128 -53 -212t-153 -114q140 -16 215 -111t75 -257q0 -186 -101 -287t-289 -101h-512h-38zM284 66h486q148 0 228 83t80 239t-81 239t-235 83h-478v-644zM284 776h406q148 0 227 78t79 224t-81 225t-233 79h-398v-606z" />
<glyph unicode="&#x393;" horiz-adv-x="1056" d="M212 0v1448h776v-66h-704v-1382h-72z" />
<glyph unicode="&#x394;" horiz-adv-x="1360" d="M80 0v46l556 1402h88l556 -1400v-48h-1200zM158 64h1040l-518 1308z" />
<glyph unicode="&#x395;" horiz-adv-x="1132" d="M212 0v1448h788v-66h-716v-608h548v-66h-548v-642h740v-66h-812z" />
<glyph unicode="&#x396;" horiz-adv-x="1086" d="M108 0v66l774 1316h-750v66h834v-66l-774 -1316h782v-66h-866z" />
<glyph unicode="&#x397;" horiz-adv-x="1384" d="M212 0v1448h72v-680h816v680h72v-1448h-72v702h-816v-702h-72z" />
<glyph unicode="&#x398;" horiz-adv-x="1408" d="M140 724q0 368 146 559t418 191t418 -191t146 -559t-146 -559t-418 -191t-418 191t-146 559zM214 724q0 -338 124 -511t366 -173t366 173t124 511t-124 511t-366 173t-366 -173t-124 -511zM390 700v64h628v-64h-628z" />
<glyph unicode="&#x399;" horiz-adv-x="504" d="M216 0v1448h72v-1448h-72z" />
<glyph unicode="&#x39a;" horiz-adv-x="1216" d="M212 0v1448h72v-882l788 882h86l-572 -640l586 -808h-86l-548 754l-254 -284v-470h-72z" />
<glyph unicode="&#x39b;" horiz-adv-x="1236" d="M80 0l494 1448h88l494 -1448h-76l-462 1370l-464 -1370h-74z" />
<glyph unicode="&#x39c;" horiz-adv-x="1654" d="M212 0v1448h90l524 -1064l524 1064h92v-1448h-70v1336l-506 -1026h-80l-506 1030v-1340h-68z" />
<glyph unicode="&#x39d;" horiz-adv-x="1428" d="M212 0v1448h68l868 -1328v1328h68v-1448h-68l-868 1328v-1328h-68z" />
<glyph unicode="&#x39e;" horiz-adv-x="1172" d="M108 0v72h956v-72h-956zM132 1376v72h910v-72h-910zM240 704v72h696v-72h-696z" />
<glyph unicode="&#x39f;" horiz-adv-x="1408" d="M140 724q0 368 146 559t418 191t418 -191t146 -559t-146 -559t-418 -191t-418 191t-146 559zM214 724q0 -338 124 -511t366 -173t366 173t124 511t-124 511t-366 173t-366 -173t-124 -511z" />
<glyph unicode="&#x3a0;" horiz-adv-x="1364" d="M212 0v1448h940v-1448h-72v1382h-796v-1382h-72z" />
<glyph unicode="&#x3a1;" horiz-adv-x="1174" d="M212 0v1448h72h398q202 0 313 -115t111 -327q0 -214 -112 -331t-318 -117h-392v-558h-72zM284 624h398q170 0 260 97t90 281t-92 282t-264 98h-392v-758z" />
<glyph unicode="&#x3a3;" horiz-adv-x="1100" d="M108 0v56l422 632l-408 694v66h860l-2 -66h-774l398 -676v-20l-414 -620h798v-66h-880z" />
<glyph unicode="&#x3a4;" horiz-adv-x="1036" d="M80 1382v66h474h402v-66h-402v-1382h-72v1382h-402z" />
<glyph unicode="&#x3a5;" horiz-adv-x="1156" d="M72 1448h76l430 -836l430 836h76l-470 -912v-536h-72v536z" />
<glyph unicode="&#x3a6;" horiz-adv-x="1460" d="M120 724q0 222 88 359t218 195t268 62v108h72v-108q158 -4 288 -71t208 -204t78 -341q0 -286 -154 -446t-420 -170v-114h-72v114q-152 4 -282 68t-211 202t-81 346zM192 724q0 -180 65 -303t178 -185t259 -62v1100q-126 0 -239 -52t-188 -175t-75 -323zM766 174 q232 2 367 144t135 406q0 184 -67 307t-180 183t-255 60v-1100z" />
<glyph unicode="&#x3a7;" horiz-adv-x="1196" d="M82 0l474 736l-460 712h80l424 -658l430 658h80l-472 -714l476 -734h-80l-438 676l-434 -676h-80z" />
<glyph unicode="&#x3a8;" horiz-adv-x="1436" d="M192 898v550h72v-550q0 -236 111 -330t307 -104v984h72v-984q204 10 311 108t107 326v550h72v-550q0 -248 -126 -371t-364 -129v-398h-72v398q-490 14 -490 500z" />
<glyph unicode="&#x3a9;" horiz-adv-x="1476" d="M140 0v66h366q-156 120 -246 313t-90 437q0 202 67 350t196 228t307 80q270 0 419 -176t149 -482q0 -240 -87 -430t-247 -320h362v-66h-464v64q184 132 273 317t89 429q0 284 -127 441t-367 157t-368 -157t-128 -441q0 -244 94 -434t266 -312v-64h-464z" />
<glyph unicode="&#x3aa;" horiz-adv-x="504" d="M8 1690q0 30 16 48t44 18t44 -17t16 -49q0 -30 -16 -48t-44 -18t-44 17t-16 49zM216 0v1448h72v-1448h-72zM376 1690q0 30 16 48t44 18t44 -17t16 -49q0 -30 -16 -48t-44 -18t-44 17t-16 49z" />
<glyph unicode="&#x3ab;" horiz-adv-x="1156" d="M72 1448h76l430 -836l430 836h76l-470 -912v-536h-72v536zM332 1690q0 30 16 48t44 18t44 -17t16 -49q0 -30 -16 -48t-44 -18t-44 17t-16 49zM700 1690q0 30 16 48t44 18t44 -17t16 -49q0 -30 -16 -48t-44 -18t-44 17t-16 49z" />
<glyph unicode="&#x3ac;" horiz-adv-x="1230" d="M126 522q0 300 112 428t280 128q132 0 225 -78t117 -232q18 94 48 181t54 131l64 -28q-44 -64 -86 -220t-42 -328q0 -240 40 -346t142 -106q40 0 70 8l10 -58q-36 -12 -86 -12q-192 0 -228 282q-38 -124 -116 -211t-212 -87q-198 0 -295 151t-97 397zM198 522 q0 -218 78 -350t242 -132q170 0 240 155t70 347q0 196 -71 333t-237 137q-322 0 -322 -490zM474 1250v12l114 326h78v-12l-130 -326h-62z" />
<glyph unicode="&#x3ad;" horiz-adv-x="964" d="M138 278q0 120 72 184t160 78q-84 24 -143 87t-59 161q0 122 88 206t276 84q94 0 178 -24t138 -60l-28 -56q-126 76 -296 76q-140 0 -212 -60t-72 -162q0 -116 91 -169t225 -53h106v-60h-106q-178 0 -262 -62t-84 -170q0 -114 78 -175t238 -61q194 0 312 74l30 -54 q-60 -40 -156 -63t-192 -23q-208 0 -295 90t-87 212zM484 1250v12l114 326h78v-12l-130 -326h-62z" />
<glyph unicode="&#x3ae;" horiz-adv-x="1168" d="M164 1056l68 22q22 -26 43 -76t27 -94q88 94 174 132t188 38q146 0 228 -86t82 -238v-1168h-70v1166q0 116 -60 188t-186 72q-182 0 -344 -156v-856h-70v730q0 226 -80 326zM476 1230v12l114 326h78v-12l-130 -326h-62z" />
<glyph unicode="&#x3af;" horiz-adv-x="668" d="M190 1230v12l114 326h78v-12l-130 -326h-62zM204 254v798h70v-782q0 -106 48 -161t140 -55q52 0 116 16l14 -60q-62 -22 -136 -22q-118 0 -185 70t-67 196z" />
<glyph unicode="&#x3b0;" horiz-adv-x="1060" d="M190 356v696h70v-672q0 -188 70 -264t194 -76q168 0 243 131t75 401q0 162 -15 270t-45 210h72q60 -184 60 -480q0 -274 -83 -436t-307 -162q-334 0 -334 382zM288 1350q0 30 16 48t44 18t45 -17t17 -49q0 -30 -17 -48t-45 -18t-44 17t-16 49zM460 1230v12l60 326h78v-12 l-76 -326h-62zM628 1350q0 30 16 48t44 18t44 -17t16 -49q0 -30 -16 -48t-44 -18t-44 17t-16 49z" />
<glyph unicode="&#x3b1;" horiz-adv-x="1230" d="M126 522q0 300 112 428t280 128q132 0 225 -78t117 -232q18 94 48 181t54 131l64 -28q-44 -64 -86 -220t-42 -328q0 -240 40 -346t142 -106q40 0 70 8l10 -58q-36 -12 -86 -12q-192 0 -228 282q-38 -124 -116 -211t-212 -87q-198 0 -295 151t-97 397zM198 522 q0 -218 78 -350t242 -132q170 0 240 155t70 347q0 196 -71 333t-237 137q-322 0 -322 -490z" />
<glyph unicode="&#x3b2;" horiz-adv-x="1118" d="M204 -414v1544q0 208 93 313t265 105q178 0 264 -98t86 -248q0 -152 -73 -248t-185 -118q156 -10 247 -124t91 -290q0 -174 -86 -311t-308 -137q-74 0 -162 35t-162 133v-556h-70zM274 222q54 -82 142 -132t184 -50q162 0 241 104t79 262q0 396 -410 396h-100v60h92 q172 0 255 95t83 237t-69 216t-207 74q-156 0 -223 -95t-67 -263v-904z" />
<glyph unicode="&#x3b3;" horiz-adv-x="990" d="M116 1052h74l330 -1002q170 306 234 557t64 445h66q0 -194 -75 -478t-253 -578v-330h-70v308z" />
<glyph unicode="&#x3b4;" horiz-adv-x="1070" d="M116 444q0 206 103 338t283 196q-128 78 -176 144t-48 160q0 60 32 121t104 103t186 42q82 0 162 -24t126 -60l-28 -56q-124 76 -264 76q-124 0 -188 -60t-64 -142q0 -48 15 -85t66 -83t153 -110q108 -66 184 -132t129 -168t53 -242q0 -132 -46 -243t-140 -178t-232 -67 q-120 0 -213 58t-145 165t-52 247zM188 442q0 -192 94 -298t250 -106q116 0 192 62t112 159t36 199q0 128 -41 217t-106 146t-163 113q-374 -120 -374 -492z" />
<glyph unicode="&#x3b5;" horiz-adv-x="964" d="M138 278q0 120 72 184t160 78q-84 24 -143 87t-59 161q0 122 88 206t276 84q94 0 178 -24t138 -60l-28 -56q-126 76 -296 76q-140 0 -212 -60t-72 -162q0 -116 91 -169t225 -53h106v-60h-106q-178 0 -262 -62t-84 -170q0 -114 78 -175t238 -61q194 0 312 74l30 -54 q-60 -40 -156 -63t-192 -23q-208 0 -295 90t-87 212z" />
<glyph unicode="&#x3b6;" horiz-adv-x="814" d="M106 540q0 184 91 368t226 332t267 240h-536v60h626v-62q-244 -184 -424 -430t-178 -514q-2 -86 25 -146t91 -111t184 -107q130 -60 195 -104t90 -89t25 -111q0 -34 -12 -87t-40 -113h-64q46 120 46 182q0 56 -24 95t-79 75t-159 88q-144 70 -217 127t-103 127t-30 180z " />
</font>
</defs>
</svg>
