<?xml version="1.0" standalone="no"?>
<!DOCTYPE svg PUBLIC "-//W3C//DTD SVG 1.1//EN" "http://www.w3.org/Graphics/SVG/1.1/DTD/svg11.dtd" >
<svg>
<metadata>
Created by FontForge 20090914 at Tue Aug 13 05:28:46 2013
 By www-data
(c) Copyright 2005 by Tong Duc Thinh. All Rights Reserved
</metadata>
<defs>
<font id="SFUHelveticaCondensedBold" horiz-adv-x="500" >
  <font-face 
    font-family="SFU Helvetica"
    font-weight="400"
    font-stretch="normal"
    units-per-em="1000"
    panose-1="0 0 4 0 0 0 0 0 0 0"
    ascent="800"
    descent="-200"
    x-height="564"
    cap-height="750"
    bbox="-169 -229.004 1091 1196"
    underline-thickness="58"
    underline-position="-61"
    unicode-range="U+0020-U+F002"
  />
<missing-glyph 
d="M63 0v802h375v-802h-375zM125 63h250v677h-250v-677z" />
    <glyph glyph-name=".notdef" 
d="M63 0v802h375v-802h-375zM125 63h250v677h-250v-677z" />
    <glyph glyph-name="space" unicode=" " horiz-adv-x="250" 
 />
    <glyph glyph-name="exclam" unicode="!" horiz-adv-x="333" 
d="M101 540v210h130v-210c0 -68.667 -2 -126.334 -6 -173.001l-15 -173h-85c-1.33301 23.333 -6.33301 81 -15 173c-6.66699 70.667 -9.66699 128.334 -9 173.001zM232 0h-130v132h130v-132z" />
    <glyph glyph-name="quotedbl" unicode="&#x22;" horiz-adv-x="333" 
d="M318 468h-119v271h119v-271zM135 468h-119v271h119v-271z" />
    <glyph glyph-name="numbersign" unicode="#" 
d="M445 331v-98h-86l-29 -233h-85l28 233h-72l-29 -233h-84l28 233h-85v98h98l11 92h-84v98h95l27 217h83l-26 -217h73l26 217h86l-27 -217h76v-98h-88l-11 -92h75zM296 423h-72l-11 -92h71z" />
    <glyph glyph-name="dollar" unicode="$" 
d="M278 287v-202c40 12 60 43.333 60 94c0 22.667 -7 45 -21 67c-11.333 18 -24.333 31.667 -39 41zM217 85l0.000976562 223.001c-64 42 -105 74 -123 96c-33.333 38.667 -50 88.667 -50 150c0 48 13 88 39 120c30 36.667 73.667 58.667 131 66v63h68v-63
c117.333 -14 173 -81 167 -201h-116c0 28 -2.66699 48.667 -8 62c-8 19.333 -23.667 32.333 -47 39v-199c123.333 -62.667 185.666 -139.667 186.999 -231c0.666992 -69.333 -13.333 -121.833 -42 -157.5s-75.667 -58.167 -141 -67.5v-109h-68v106
c-128 10.667 -188 90.667 -180 240h120c0.666992 -44.667 3 -73.334 7 -86.001c8 -26.667 26.667 -43.667 56 -51zM217.001 461.001v179c-35.333 -5.33301 -53 -30.333 -53 -75c0 -22 5.33301 -42 16 -60c6 -9.33301 18.333 -24 37 -44z" />
    <glyph glyph-name="percent" unicode="%" horiz-adv-x="833" 
d="M184 736c65.333 0 109.333 -18.665 132 -55.998c15.333 -24.667 23 -67 23 -127s-7.66699 -102.333 -23 -127c-22.667 -37.333 -66.667 -56 -132 -56c-64.667 0 -108 18.667 -130 56c-15.333 25.333 -23 67.666 -23 126.999s7.66699 101.666 23 126.999
c22 37.333 65.333 56 130 56zM186 663.002c-26.667 0 -43.667 -10.002 -51 -30.002c-5.33301 -13.333 -8 -40 -8 -80s2.66699 -66.667 8 -80c7.33301 -20 24.333 -30 51 -30c26 0 42.667 10 50 30c4.66699 12.667 7 39.334 7 80.001s-2.33301 67.334 -7 80.001
c-7.33301 20 -24 30 -50 30zM280 -15h-71l336 765h70zM649 366c65.333 0 109.333 -18.665 132 -55.998c14.667 -24.667 22 -67 22 -127s-7.33301 -102.333 -22 -127c-22.667 -37.333 -66.667 -56 -132 -56c-64.667 0 -108 18.667 -130 56
c-15.333 25.333 -23 67.666 -23 126.999s7.66699 101.666 23 126.999c22 37.333 65.333 56 130 56zM650 293.002c-26 0 -43 -10 -51 -30c-4.66699 -12.667 -7 -39.334 -7 -80.001s2.33301 -67.334 7 -80.001c8 -20 25 -30 51 -30s42.667 10 50 30
c4.66699 12.667 7 39.334 7 80.001s-2.33301 67.334 -7 80.001c-7.33301 20 -24 30 -50 30z" />
    <glyph glyph-name="ampersand" unicode="&#x26;" horiz-adv-x="667" 
d="M306 518c38.667 30.667 58 61 58 91c0 16.667 -5 30.5 -15 41.5s-21.667 16.833 -35 17.5c-32 1.33301 -48 -15 -48 -49c0 -14.667 5 -32 15 -52c8 -16.667 16.333 -33 25 -49zM363 425l94.001 -163.001c13.333 41.333 21 87 23 137h111c0 -92.667 -22 -176.667 -66 -252
l90 -150h-150l-27 50c-45.333 -43.333 -103.666 -65 -174.999 -65c-57.333 0 -105 21.667 -143 65s-57 97 -57 161c0 52 13 97.667 39 137c21.333 32.667 55.666 65.667 102.999 99c-39.333 68 -59 122 -59 162c0 54.667 18.333 96.334 55 125.001
c31.333 24.667 70.666 37 117.999 37c42 0 78.333 -13.667 109 -41c32.667 -30 49 -68.333 49 -115c0 -78 -38 -140.333 -114 -187zM385.001 135.999l-121 207.001c-14.667 -6 -29.667 -19 -45 -39c-17.333 -24.667 -26 -50.667 -26 -78c0 -30.667 9 -59.334 27 -86.001
c20 -30 44.667 -45 74 -45c30 0 60.333 13.667 91 41z" />
    <glyph glyph-name="quotesingle" unicode="'" horiz-adv-x="250" 
d="M185 468h-119v271h119v-271z" />
    <glyph glyph-name="parenleft" unicode="(" horiz-adv-x="333" 
d="M198 768l80.999 -0.000976562c-33.333 -64.667 -56.666 -129.667 -69.999 -195c-16.667 -80 -25 -183.333 -25 -310c0 -93.333 6.66699 -172.333 20 -237c14 -68 39.667 -142.667 77 -224h-83c-56 94.667 -93.667 174.334 -113 239.001c-22 72 -33 159.667 -33 263
c0 176 48.667 330.667 146 464z" />
    <glyph glyph-name="parenright" unicode=")" horiz-adv-x="333" 
d="M135 -198l-80.999 0.000976562c33.333 64.667 56.666 129.667 69.999 195c16.667 80 25 183.333 25 310c0 93.333 -6.66699 172.333 -20 237c-14 68 -39.667 142.667 -77 224h83c56 -94.667 93.667 -174.334 113 -239.001c22 -72 33 -159.667 33 -263
c0 -176 -48.667 -330.667 -146 -464z" />
    <glyph glyph-name="asterisk" unicode="*" 
d="M382 461l-66 -48l-54 77c-3.33301 4.66699 -6.33301 9.66699 -9 15c-2 -4 -6 -10.333 -12 -19l-54 -74l-66 47l55 76c2 3.33301 5.66699 8 11 14c-7.33301 2 -14 4 -20 6l-88 28l24 76l89 -28c4 -0.666992 10 -2.66699 18 -6c-0.666992 4 -1 10.667 -1 20v93h80v-93
c0 -8 -0.333008 -14 -1 -18l21 7l86 29l27 -78l-90 -27c-8.66699 -2.66699 -14.667 -4 -18 -4c6 -6 10.667 -12 14 -18z" />
    <glyph glyph-name="plus" unicode="+" 
d="M195 304v188h110v-188h170v-110h-170v-194h-110v194h-169v110h169z" />
    <glyph glyph-name="comma" unicode="," horiz-adv-x="333" 
d="M101 -145l0.000976562 43.999c23.333 2.66699 41.166 13.334 53.499 32.001s17.833 41.667 16.5 69h-70v132h132v-129c0 -88 -44 -137.333 -132 -148z" />
    <glyph glyph-name="hyphen" unicode="-" horiz-adv-x="333" 
d="M286 255h-238v115h238v-115z" />
    <glyph glyph-name="hyphen" unicode="&#x2010;" horiz-adv-x="333" 
d="M286 255h-238v115h238v-115z" />
    <glyph glyph-name="period" unicode="." horiz-adv-x="333" 
d="M233 0h-132v132h132v-132z" />
    <glyph glyph-name="slash" unicode="/" horiz-adv-x="278" 
d="M-11 -94l236 844h87l-236 -844h-87z" />
    <glyph glyph-name="zero" unicode="0" 
d="M188 538v-337c0 -70.667 20.333 -106 61 -106c42.667 0 64 35.333 64 106v337c0 70 -21.333 105 -64 105c-40.667 0 -61 -35 -61 -105zM48 201v337c0 143.333 67.667 215 203 215c134.667 0 202 -71.667 202 -215v-337c0 -144 -67.667 -216 -203 -216
c-134.667 0 -202 72 -202 216z" />
    <glyph glyph-name="one" unicode="1" 
d="M213 0v520.001h-169v100c114 1.33301 182.667 44.666 206 129.999h103v-750h-140z" />
    <glyph glyph-name="two" unicode="2" 
d="M442 0l-410 0.000976562c1.33301 45.333 5.33301 87.666 12 126.999c10 58 54 128.333 132 211l68 72c26.667 28 44 49.333 52 64c11.333 20.667 17 47.334 17 80.001c0 59.333 -22.333 89 -67 89c-33.333 0 -55 -12.333 -65 -37c-6 -14.667 -9.66699 -50 -11 -106h-131
v21c0 62 8.66699 109 26 141c32 61.333 94.333 91.666 187 90.999c60 -0.666992 108.5 -18.334 145.5 -53.001s55.5 -81.667 55.5 -141c0 -75.333 -29.667 -143.666 -89 -204.999l-110 -114c-48 -50 -72.333 -93.333 -73 -130h261v-110z" />
    <glyph glyph-name="three" unicode="3" 
d="M171 346l0.000976562 109.998c14.667 0.666992 30.167 1.33398 46.5 2.00098s30.166 3.66699 41.499 9c28.667 13.333 43 44 43 92c0 56 -22.333 84 -67 84s-67 -19.667 -67 -59v-53h-131c-8.66699 148 57 222 197 222c136 0 204 -64.333 204 -193
c0 -38 -7.33301 -70.667 -22 -98c-17.333 -32.667 -42.666 -51.667 -75.999 -57v-2c34.667 -4 62 -21 82 -51c21.333 -32 31.666 -75.667 30.999 -131c-1.33301 -157.333 -74 -236 -218 -236c-138 0 -207 73.333 -207 220v44h131c2.66699 -59.333 5 -92.666 7 -99.999
c10 -36 34 -54 72 -54c34 0 56 15 66 45c6 16.667 9 49 9 97c0 40 -5.33301 66.333 -16 79c-16.667 20 -58.667 30 -126 30z" />
    <glyph glyph-name="four" unicode="4" 
d="M126 262h140v304h-2zM250 738h156v-476h64v-110h-64v-152h-140v152h-243v110z" />
    <glyph glyph-name="five" unicode="5" 
d="M168 345l-124.001 0.000976562l19 393h361v-110h-253l-9 -160c28.667 28 65 42 109 42c124.667 0 187 -86.333 187 -259c0 -89.333 -14.667 -155 -44 -197c-32.667 -46 -87 -69 -163 -69c-82 0 -139 20.333 -171 61c-29.333 36.667 -43.666 100 -42.999 190h131
c2 -48.667 4.33301 -78.334 7 -89.001c9.33301 -32.667 30.333 -50 63 -52c36 -2 59.333 14.333 70 49c4.66699 14.667 8 50.667 10 108c2 56 -4.33301 95.667 -19 119c-12.667 19.333 -33 29 -61 29c-18 0 -33.667 -5.16699 -47 -15.5s-21 -23.5 -23 -39.5z" />
    <glyph glyph-name="six" unicode="6" 
d="M182 260c-0.666992 -60.667 2.00195 -100.334 8.00195 -119.001c9.33301 -32.667 30.666 -48 63.999 -46c32.667 2 52.667 18 60 48c3.33301 14 5 53 5 117c0 44.667 -2 74 -6 88c-8.66699 31.333 -29.334 47 -62.001 47c-30.667 0 -50.667 -14.667 -60 -44
c-6 -17.333 -9 -47.666 -9 -90.999zM42.002 270l-0.000976562 180.001c0 115.333 17.667 195.666 53 240.999c32 41.333 86.667 62 164 62c58 0 103 -13.333 135 -40c35.333 -29.333 52 -72.333 50 -129h-130c-2 42 -22 61.667 -60 59c-34 -2.66699 -56.333 -21 -67 -55
c-4.66699 -16.667 -7 -45 -7 -85v-48c16 16.667 29 28 39 34c18.667 10.667 42.334 16 71.001 16c112.667 0 169 -78.333 169 -235c0 -98.667 -14.333 -169.667 -43 -213c-31.333 -48 -86 -72 -164 -72c-79.333 0 -135.333 25.333 -168 76c-28 44 -42 113.667 -42 209z" />
    <glyph glyph-name="seven" unicode="7" 
d="M32 628l-0.00195312 110h422v-101c-58 -102.667 -104.667 -223.667 -140 -363c-26 -102 -40.667 -193.333 -44 -274h-144c8.66699 127.333 48.334 280 119.001 458c26.667 67.333 55.334 124 86.001 170h-299z" />
    <glyph glyph-name="eight" unicode="8" 
d="M181 208c0 -38.667 3.33496 -65.001 10.002 -79.001c9.33301 -22 29.666 -33.333 60.999 -34c30.667 2 50.667 15.667 60 41c5.33301 15.333 8 43.333 8 84c0 44.667 -3.33301 75.667 -10 93c-10 26 -30 39 -60 39c-32.667 0 -53.334 -13.667 -62.001 -41
c-4.66699 -15.333 -7 -49.666 -7 -102.999zM251.002 451.999c26.667 0 44.667 12.333 54 37c5.33301 14.667 8 38 8 70c0 56 -20 84 -60 84c-43.333 0 -65 -31.333 -65 -94c0 -64.667 21 -97 63 -97zM146.002 405.999c-32 17.333 -54.001 36.9971 -66.001 58.9971
c-14.667 26 -22 64.333 -22 115c0 46 14.667 85 44 117c34.667 37.333 84.667 56 150 56c68 0 117.333 -16.333 148 -49c28.667 -30.667 43 -78.667 43 -144c0 -42 -6.33301 -74 -19 -96c-14 -25.333 -39.333 -45.666 -76 -60.999
c41.333 -9.33301 70.333 -29.166 87 -59.499s25 -73.833 25 -130.5c0 -152 -68.333 -228 -205 -228c-77.333 0 -133 19 -167 57c-31.333 35.333 -47 92 -47 170c0 54.667 7.83301 96.334 23.5 125.001s42.834 51.667 81.501 69z" />
    <glyph glyph-name="nine" unicode="9" 
d="M319 478c0.666992 60.667 -2.00195 100.334 -8.00195 119.001c-9.33301 32.667 -30.666 48 -63.999 46c-32.667 -2 -52.667 -18 -60 -48c-3.33301 -14 -5 -53 -5 -117c0 -44.667 2 -74 6 -88c8.66699 -31.333 29.334 -47 62.001 -47c30.667 0 50.667 14.667 60 44
c6 17.333 9 47.666 9 90.999zM458.998 468l0.000976562 -180.001c0 -115.333 -17.333 -195.666 -52 -240.999c-32 -41.333 -86.667 -62 -164 -62c-58 0 -103 13.333 -135 40c-35.333 29.333 -52 72.333 -50 129h130c1.33301 -40 21.666 -59.667 60.999 -59
c34 0.666992 56 18.667 66 54c4.66699 16 7 44.667 7 86v48c-16 -16.667 -29 -28 -39 -34c-18.667 -10.667 -42.334 -16 -71.001 -16c-113.333 0 -170 78.333 -170 235c0 98.667 14.333 169.667 43 213c32 48 87 72 165 72c78.667 0 134.334 -25.333 167.001 -76
c28 -44 42 -113.667 42 -209z" />
    <glyph glyph-name="colon" unicode=":" horiz-adv-x="278" 
d="M205 424h-132v132h132v-132zM205 0h-132v132h132v-132z" />
    <glyph glyph-name="semicolon" unicode=";" horiz-adv-x="278" 
d="M73 -145l0.000976562 43.999c23.333 2.66699 41.166 13.334 53.499 32.001s17.833 41.667 16.5 69h-70v132h132v-129c0 -88 -44 -137.333 -132 -148zM205.001 423.999h-132v132h132v-132z" />
    <glyph glyph-name="less" unicode="&#x3c;" 
d="M162 249l297 -162v-111l-417 225v99l417 227v-111z" />
    <glyph glyph-name="equal" unicode="=" 
d="M475 401v-110h-449v110h449zM475 206v-110h-449v110h449z" />
    <glyph glyph-name="greater" unicode="&#x3e;" 
d="M42 87l297 162l-297 167v111l417 -227v-99l-417 -225v111z" />
    <glyph glyph-name="question" unicode="?" 
d="M176 553l-123.999 -0.000976562c-8 143.333 57 215 195 215c59.333 0 106.333 -16.667 141 -50s52 -78.666 52 -135.999c0 -35.333 -5.66699 -66.333 -17 -93c-9.33301 -21.333 -26.666 -48 -51.999 -80c-19.333 -20 -42.333 -45.333 -69 -76
c-24 -27.333 -36 -71.333 -36 -132h-117c-0.666992 12.667 0.333008 35.667 3 69c3.33301 40 16.333 76.667 39 110l72 91c15.333 20.667 25.666 38.167 30.999 52.5s8 34.166 8 59.499c0 54 -19 81 -57 81c-28.667 0 -47.334 -7.66699 -56.001 -23
c-6 -11.333 -9.5 -25.166 -10.5 -41.499s-1.83301 -31.833 -2.5 -46.5zM147.001 129.999h127v-130h-127v130z" />
    <glyph glyph-name="at" unicode="@" horiz-adv-x="833" 
d="M654 148l96.002 -0.00195312c-80 -110.667 -183 -166 -309 -166c-112.667 0 -208 37.833 -286 113.5s-117 169.834 -117 282.501c0 110.667 38.333 203.334 115 278.001s170.667 112 282 112c96.667 0 178 -28 244 -84c77.333 -65.333 116 -142.666 116 -231.999
c0 -87.333 -26.667 -158.333 -80 -213c-21.333 -22 -49 -41.667 -83 -59c-36.667 -19.333 -69 -29 -97 -29c-11.333 0 -21.5 4.5 -30.5 13.5s-13.5 21.167 -13.5 36.5c0 4.66699 0.666992 9.66699 2 15c-44.667 -40.667 -86.334 -61 -125.001 -61
c-51.333 0 -92.666 18 -123.999 54c-30 34 -45 77.333 -45 130c0 64 19.333 119 58 165c40.667 48.667 92 73 154 73c56 0 98.333 -20.333 127 -61l11 53h98l-53 -308c-1.33301 -8.66699 0 -14.834 4 -18.501s9.33301 -4.5 16 -2.5c20 6 42.667 27.333 68 64
c22 31.333 33.667 71 35 119c2 83.333 -23.5 149.333 -76.5 198s-122.5 73 -208.5 73c-92 0 -167.667 -29.667 -227 -89s-89 -135 -89 -227c0 -95.333 31.667 -172.833 95 -232.5s142.666 -89.5 237.999 -89.5c69.333 0 137.666 30.667 204.999 92zM504.002 369.998
c2.66699 32.667 -2.33398 59.6689 -15.001 81.002c-15.333 24.667 -37.666 35.667 -66.999 33c-30.667 -2.66699 -56.667 -16.334 -78 -41.001s-33 -53.334 -35 -86.001c-2 -30.667 4 -56 18 -76c15.333 -22.667 37.666 -34 66.999 -34c30.667 0 56.667 14 78 42
c18.667 24 29.334 51 32.001 81z" />
    <glyph glyph-name="A" unicode="A" horiz-adv-x="556" 
d="M159 0h-150l179 750h189l170 -750h-150l-37 190h-164zM260 513l-41.999 -213.001h120l-38 213c-6 32.667 -10.667 67.334 -14 104.001c-0.666992 11.333 -2.33398 28 -5.00098 50h-2c-2.66699 -34 -9 -85.333 -19 -154z" />
    <glyph glyph-name="B" unicode="B" horiz-adv-x="556" 
d="M205 110l30 -0.000976562c44 0 72 2.66699 84 8c28.667 12.667 43 47.334 43 104.001c0 42.667 -6.33301 72 -19 88c-14.667 18 -42.667 27 -84 27h-54v-227zM205 446.999h26c54 0 87.333 8.66699 100 26c10 13.333 15 40.333 15 81c0 30.667 -4.66699 52 -14 64
c-11.333 14.667 -32 22 -62 22h-65v-193zM312 -0.000976562l-247 -0.000976562v750h226c77.333 0 130.333 -18.333 159 -55c24.667 -31.333 37 -76.333 37 -135c0 -82.667 -30 -135 -90 -157v-2c72.667 -10 109 -68 109 -174c0 -39.333 -3.33301 -70 -10 -92
c-14.667 -47.333 -36.5 -81.666 -65.5 -102.999s-68.5 -32 -118.5 -32z" />
    <glyph glyph-name="C" unicode="C" horiz-adv-x="556" 
d="M371 267l141.002 0.00195312l-3 -43c-4 -76 -20.333 -133.333 -49 -172c-34 -46.667 -87.333 -70 -160 -70c-104.667 0 -174.334 32.667 -209.001 98c-24 46 -36 128.667 -36 248v107c0 113.333 13 193 39 239c35.333 63.333 104 94.666 206 93.999
c126 -0.666992 194.333 -65.334 205 -194.001c2.66699 -30 3.66699 -49 3 -57h-138c-6.66699 56 -10.334 85 -11.001 87c-10 34 -29.667 51 -59 51c-47.333 0 -78 -24.333 -92 -73c-6 -21.333 -9 -60 -9 -116v-208c0 -108.667 33.667 -163 101 -163
c32.667 0 53.667 22.667 63 68c1.33301 6 4 40.667 8 104z" />
    <glyph glyph-name="D" unicode="D" horiz-adv-x="611" 
d="M212 110h61.001c59.333 0 97 20 113 60c13.333 32.667 20 107 20 223c0 92 -6.33301 155.333 -19 190c-14.667 38 -42.334 57 -83.001 57h-92v-530zM331.001 0l-258.998 -0.000976562v750h292c39.333 0 74 -12.667 104 -38s50.667 -57.333 62 -96
c13.333 -44.667 20 -114.667 20 -210c0 -102.667 -4.66699 -177 -14 -223c-16.667 -79.333 -50.334 -133.666 -101.001 -162.999c-22.667 -13.333 -57.334 -20 -104.001 -20z" />
    <glyph glyph-name="E" unicode="E" 
d="M458 0h-394v750h394v-110h-254v-189h234v-110h-234v-231h254v-110z" />
    <glyph glyph-name="F" unicode="F" 
d="M213 0h-140v750h397v-110h-257v-190h241v-110h-241v-340z" />
    <glyph glyph-name="G" unicode="G" horiz-adv-x="611" 
d="M55 328l0.000976562 107.001c0 113.333 13 192.666 39 237.999c34.667 63.333 103.334 95 206.001 95c64.667 0 115 -10.667 151 -32c41.333 -25.333 69.333 -68.666 84 -129.999c3.33301 -12.667 5.66602 -43 6.99902 -91h-140c-1.33301 47.333 -6.66602 80 -15.999 98
c-14.667 27.333 -43.334 41.333 -86.001 42c-47.333 0.666992 -78 -23.333 -92 -72c-6 -21.333 -9 -60.333 -9 -117v-208c0 -108.667 33.667 -163 101 -163c72 0 106.333 66 103 198h-97v110h233v-403h-105v86h-2c-24.667 -68.667 -68.667 -103.334 -132 -104.001
c-104.667 -1.33301 -174.334 31 -209.001 97c-24 46 -36 129 -36 249z" />
    <glyph glyph-name="H" unicode="H" horiz-adv-x="611" 
d="M208 0h-140v750h140v-297h196v297h140v-750h-140v343h-196v-343z" />
    <glyph glyph-name="I" unicode="I" horiz-adv-x="278" 
d="M209 0h-140v750h140v-750z" />
    <glyph glyph-name="J" unicode="J" horiz-adv-x="444" 
d="M8 238h139.998v-93c0 -33.333 15 -50 45 -50c22.667 0 37.334 8 44.001 24c4.66699 10 7 28.333 7 55v576h140v-547c0 -42 -1.33301 -71 -4 -87c-5.33301 -36 -17.666 -64.333 -36.999 -85c-30.667 -32.667 -87.667 -49 -171 -49c-62.667 0 -110.667 25.667 -144 77
c-14 22 -21 68.667 -21 140c0 13.333 0.333008 26.333 1 39z" />
    <glyph glyph-name="K" unicode="K" horiz-adv-x="556" 
d="M208 0h-140v750h140v-333h2c12.667 34.667 42 94.667 88 180l82 153h158l-185 -322l194 -428h-158l-132 296l-49 -81v-215z" />
    <glyph glyph-name="L" unicode="L" 
d="M468 0h-400v750h140v-640h260v-110z" />
    <glyph glyph-name="M" unicode="M" horiz-adv-x="778" 
d="M207 236l-0.000976562 -236h-140v750h223l75 -348c10.667 -48 19.334 -105.667 26.001 -173h2c4 41.333 11.333 99 22 173l75 348h222v-750h-140v236c0 165.333 4 314.333 12 447h-2l-150 -683h-85l-147 683h-5c8 -132.667 12 -281.667 12 -447z" />
    <glyph glyph-name="N" unicode="N" horiz-adv-x="611" 
d="M403 603v147h140v-750h-146l-109 267c-35.333 86.667 -68.666 186 -99.999 298h-2c14.667 -182 22 -323.333 22 -424v-141h-140v750h145l109 -273c37.333 -94 70.666 -193.333 99.999 -298h2c-14 190.667 -21 332 -21 424z" />
    <glyph glyph-name="O" unicode="O" horiz-adv-x="611" 
d="M61 328l0.00195312 107c0 112.667 13 192 39 238c35.333 63.333 104 95 206 95s171 -31.667 207 -95c25.333 -46 38 -125.333 38 -238v-107c0 -119.333 -12 -202 -36 -248c-34.667 -65.333 -104.334 -98 -209.001 -98s-174.334 32.667 -209.001 98
c-24 46 -36 128.667 -36 248zM205.002 466v-208c0 -108.667 33.667 -163 101 -163c44 0 73.333 20.333 88 61c8.66699 23.333 13 61.333 13 114v192c0 54 -3.66699 93.667 -11 119c-15.333 49.333 -45.333 74 -90 74c-47.333 0 -78 -24.333 -92 -73
c-6 -21.333 -9 -60 -9 -116z" />
    <glyph glyph-name="P" unicode="P" horiz-adv-x="556" 
d="M208 640v-216h75c68 0 102 39 102 117c0 40.667 -9 68 -27 82c-15.333 11.333 -44 17 -86 17h-64zM208 0h-140v750h286c62 0 108 -22.333 138 -67c24.667 -36.667 37 -85.334 37 -146.001c0 -81.333 -23.333 -140.666 -70 -177.999c-38 -30 -90.333 -45 -157 -45h-94
v-314z" />
    <glyph glyph-name="Q" unicode="Q" horiz-adv-x="611" 
d="M587 -5l-70.999 -66l-78 76c-30.667 -15.333 -74.667 -23 -132 -23c-104.667 0 -174.334 32.667 -209.001 98c-24 46 -36 128.667 -36 248v107c0 112.667 13 192 39 238c35.333 63.333 104 95 206 95s171 -31.667 207 -95c25.333 -46 38 -125.333 38 -238v-107
c0 -126.667 -13.667 -212 -41 -256zM315.001 126l76 64l7 -7c5.33301 24 8 49 8 75l1 208c0 55.333 -3 94 -9 116c-14 48.667 -44.667 73 -92 73s-78 -24.333 -92 -73c-6 -21.333 -9 -60 -9 -116v-208c0 -108.667 33.667 -163 101 -163c12.667 0 24.667 1.66699 36 5z" />
    <glyph glyph-name="R" unicode="R" horiz-adv-x="611" 
d="M231 323l-24.999 -0.000976562v-323h-140v750h265c142 0 213 -60 213 -180c0 -110 -38.333 -170.333 -115 -181v-2c72 -9.33301 108 -54.666 108 -135.999c0 -145.333 10 -224.333 30 -237v-14h-154c-8 22 -13 85.333 -15 190c-0.666992 35.333 -2.66699 60 -6 74
c-7.33301 26.667 -21.333 43 -42 49c-22.667 6.66699 -62.334 10 -119.001 10zM206.001 639.999l-0.000976562 -207h110c54.667 0 82 36 82 108c0 39.333 -8 66.333 -24 81c-13.333 12 -34.666 18 -63.999 18h-104z" />
    <glyph glyph-name="S" unicode="S" horiz-adv-x="556" 
d="M489 522l-135 -0.00390625c0.666992 40.667 -3 70.334 -11 89.001c-12 29.333 -35.667 44 -71 44c-51.333 0 -77 -23.333 -77 -70c0 -25.333 7.66699 -46.666 23 -63.999c10 -10.667 29 -25 57 -43c83.333 -52.667 140 -93.667 170 -123
c42 -41.333 63 -93.666 63 -156.999c0 -69.333 -20.833 -122.666 -62.5 -159.999s-97.834 -56 -168.501 -56c-152 0 -228 76 -228 228v55h140v-44c0 -84 29.333 -126 88 -126c58 0 87 29.333 87 88c0 38 -18.667 71 -56 99l-117 79c-46.667 32 -81.667 63.833 -105 95.5
s-35 69.5 -35 113.5c0 132 73.333 198 220 198c96 0 160 -31.667 192 -95c16.667 -32 25.334 -82.333 26.001 -151z" />
    <glyph glyph-name="T" unicode="T" 
d="M17 640v110h467v-110h-163v-640h-140v640h-164z" />
    <glyph glyph-name="U" unicode="U" horiz-adv-x="611" 
d="M404 239l-0.000976562 511h140v-523c0 -86 -16.667 -147.667 -50 -185c-36 -40 -98.333 -60 -187 -60c-89.333 0 -152.333 20 -189 60c-33.333 37.333 -50 99 -50 185v523h140v-511c0 -46 4.66699 -79 14 -99c14.667 -30 43.334 -45 86.001 -45c40.667 0 68 15 82 45
c9.33301 20 14 53 14 99z" />
    <glyph glyph-name="V" unicode="V" horiz-adv-x="556" 
d="M307 269l78.999 481h150l-162 -750h-187l-166 750h150l88 -481c6.66699 -36.667 12.334 -79.334 17.001 -128.001c4 -42 6 -62.667 6 -62h2c0 -0.666992 2 20 6 62c4 38.667 9.66699 81.334 17 128.001z" />
    <glyph glyph-name="W" unicode="W" horiz-adv-x="833" 
d="M475 750l74.999 -388c4.66699 -24 15 -113 31 -267h2c4.66699 54.667 13.334 136.667 26.001 246l56 409h145l-139 -750h-168l-56 296c-6 31.333 -11.667 71 -17 119c-4 40 -8.33301 80 -13 120h-2c-5.33301 -53.333 -15.333 -133 -30 -239l-50 -296h-168l-143 750h145
l63 -409c12 -76.667 20.333 -158.667 25 -246h2c6 64 16.667 153 32 267l68 388h116z" />
    <glyph glyph-name="X" unicode="X" horiz-adv-x="556" 
d="M359 380l186 -380.001h-160l-80 183c-13.333 30.667 -23 62.334 -29 95.001h-2c-3.33301 -30 -19.333 -76.667 -48 -140l-62 -138h-153l184 380l-177 370h157l76 -170c17.333 -38.667 26.333 -70 27 -94h3c2 24 17.333 69.667 46 137l54 127h158z" />
    <glyph glyph-name="Y" unicode="Y" horiz-adv-x="556" 
d="M165 750l79.001 -197c16.667 -42 27.667 -80.333 33 -115h2c5.33301 30 20.666 77.333 45.999 142l67 170h153l-198 -431v-319h-140v319l-195 431h153z" />
    <glyph glyph-name="Z" unicode="Z" 
d="M33 0v112l241 465c7.33301 15.333 20.333 37.333 39 66c-12 -2 -30 -3 -54 -3h-210v110h410v-112l-241 -465c-7.33301 -14.667 -20.333 -36.667 -39 -66c12 2 30 3 54 3h235v-110h-435z" />
    <glyph glyph-name="bracketleft" unicode="[" horiz-adv-x="333" 
d="M280 -94h-199v844h199v-76h-89v-692h89v-76z" />
    <glyph glyph-name="backslash" unicode="\" horiz-adv-x="250" 
d="M-89 750h106l323 -750h-106z" />
    <glyph glyph-name="bracketright" unicode="]" horiz-adv-x="333" 
d="M53 750h199v-844h-199v76h89v692h-89v76z" />
    <glyph glyph-name="asciicircum" unicode="^" 
d="M114 326l-104 47l180 377h120l180 -377l-104 -47l-136 279z" />
    <glyph glyph-name="underscore" unicode="_" 
d="M500 -119h-500v58h500v-58z" />
    <glyph glyph-name="grave" unicode="`" horiz-adv-x="333" 
d="M1 775h155l94 -146h-101z" />
    <glyph glyph-name="a" unicode="a" 
d="M440 0l-122.999 -0.000976562c-7.33301 15.333 -10 34.666 -8 57.999h-2c-31.333 -48.667 -69.333 -73 -114 -73c-52 0 -90.167 13.667 -114.5 41s-36.5 70 -36.5 128c0 57.333 19.333 102 58 134c21.333 16.667 66.333 39.334 135 68.001c44.667 18.667 67 42.667 67 72
c0 6.66699 -1 14 -3 22c-4.66699 19.333 -25 29 -61 29c-27.333 0 -46 -7.33301 -56 -22c-8.66699 -12 -12.667 -32 -12 -60h-124c-0.666992 59.333 11.666 103 36.999 131c30.667 34 84 51 160 51c78.667 0 131.667 -18.667 159 -56c18 -23.333 27 -60.333 27 -111v-333
c0 -25.333 3.66699 -51.666 11 -78.999zM299.001 235.999v61c-24 -14.667 -59 -38.667 -105 -72c-14.667 -12 -22 -34.667 -22 -68c0 -48 20.333 -72 61 -72c33.333 0 54 18.333 62 55c2.66699 12.667 4 44.667 4 96z" />
    <glyph glyph-name="b" unicode="b" 
d="M194 354l-0.000976562 -169c0 -66.667 21 -100 63 -100c38 0 57 32.333 57 97v188c0 38 -2.33301 63.333 -7 76c-7.33301 22 -24.666 33 -51.999 33c-40.667 0 -61 -41.667 -61 -125zM63.999 0v749.999h130v-180c0 -6.66699 -0.333008 -16 -1 -28
c-1.33301 -16 -2 -27.667 -2 -35h2c24 49.333 62.667 73.333 116 72c45.333 -0.666992 78.333 -15 99 -43c24 -31.333 36 -83.666 36 -156.999v-204c0 -128 -45 -191.333 -135 -190c-54 0.666992 -93.667 25.667 -119 75h-2v-60h-124z" />
    <glyph glyph-name="c" unicode="c" horiz-adv-x="444" 
d="M402 368h-130v63c0 32 -15 48 -45 48c-22.667 0 -37 -12.333 -43 -37c-4 -14.667 -6 -44.334 -6 -89.001v-133c0 -45.333 0.666992 -72.333 2 -81c6 -32.667 21.667 -50.667 47 -54c18 0.666992 30 9 36 25c3.33301 8.66699 6.33301 28 9 58v52h130v-52
c0 -122 -59.333 -183 -178 -183c-117.333 0 -176 70.333 -176 211v183c0 133.333 58.667 200 176 200c60.667 0 106.667 -17 138 -51c26.667 -29.333 40 -67.666 40 -114.999v-45z" />
    <glyph glyph-name="d" unicode="d" 
d="M303 185l-0.000976562 169c0 83.333 -20.333 125 -61 125c-27.333 0 -44.666 -11 -51.999 -33c-4.66699 -12.667 -7 -38 -7 -76v-188c0 -64.667 19 -97 57 -97c42 0 63 33.333 63 100zM302.999 0v60.001h-2c-21.333 -49.333 -58.666 -74.333 -111.999 -75
c-90.667 -2 -136 61.333 -136 190v204c0 73.333 12 125.666 36 156.999c21.333 28 54.666 42.333 99.999 43c53.333 1.33301 92 -22.667 116 -72h2c-2.66699 15.333 -4 32 -4 50v193h130v-750h-130z" />
    <glyph glyph-name="e" unicode="e" 
d="M52 222v148.001c0 139.333 63.333 209 190 209c83.333 0 139.333 -22 168 -66c21.333 -33.333 32 -94 32 -182v-76h-260v-82c0 -58.667 22.667 -88 68 -88c23.333 0 39.5 8.5 48.5 25.5s12.833 43.833 11.5 80.5h130c5.33301 -137.333 -54.667 -206 -180 -206
c-74.667 0 -128 18.667 -160 56s-48 97.666 -48 180.999zM182 355.001l130 -0.00195312v49c0 28.667 -4.83301 48.334 -14.5 59.001s-27.5 16 -53.5 16c-28.667 0 -47 -10.333 -55 -31c-4.66699 -11.333 -7 -34.666 -7 -69.999v-23z" />
    <glyph glyph-name="f" unicode="f" horiz-adv-x="278" 
d="M71 469l-50 0.000976562v95h50v56c0 49.333 11 83.666 33 102.999c20 18 54.667 27 104 27h49v-104c-13.333 4 -23 6 -29 6c-18 0 -27 -7.33301 -27 -22v-66h56v-95h-56v-469h-130v469z" />
    <glyph glyph-name="g" unicode="g" 
d="M303 354c0 83.333 -20.334 125 -61.001 125c-27.333 0 -44.666 -11 -51.999 -33c-4.66699 -12.667 -7 -38 -7 -76v-188c0 -64.667 19 -97 57 -97c42 0 63 33.333 63 100v169zM58.999 -63h130c0 -22 18.333 -33 55 -33c43.333 0 65 29.333 65 88v65l-2 2
c-23.333 -48 -63 -72.667 -119 -74c-90 -1.33301 -135 61.667 -135 189v204c0 74 12 126.667 36 158c21.333 28 54.333 42.333 99 43c58 1.33301 95.667 -23 113 -73h2v58h130v-547c0 -66 -12.667 -115 -38 -147c-32.667 -40 -90 -60 -172 -60
c-103.333 0 -158 42.333 -164 127z" />
    <glyph glyph-name="h" unicode="h" 
d="M191 0h-130v750h130v-244h2c27.333 48.667 66.333 73 117 73c39.333 0 70.333 -11.333 93 -34c24.667 -25.333 37 -62 37 -110v-435h-130v386c0 31.333 -3 53.333 -9 66c-8 17.333 -23.333 26.333 -46 27c-42.667 2 -64 -32.667 -64 -104v-375z" />
    <glyph glyph-name="i" unicode="i" horiz-adv-x="278" 
d="M204 0h-130v564h130v-564zM204 632h-130v118h130v-118z" />
    <glyph glyph-name="j" unicode="j" horiz-adv-x="278" 
d="M31 -190v100c32 -2 48 8 48 30v624h130v-567c0 -56 -1 -89.333 -3 -100c-6 -39.333 -22.667 -65.333 -50 -78c-23.333 -11.333 -65 -14.333 -125 -9zM209 632h-130v118h130v-118z" />
    <glyph glyph-name="k" unicode="k" horiz-adv-x="444" 
d="M178 0h-130v750h130v-339c0 -15.333 -0.666992 -39 -2 -71h2l123 224h142l-142 -227l138 -337h-145l-81 230l-35 -58v-172z" />
    <glyph glyph-name="l" unicode="l" horiz-adv-x="278" 
d="M204 0h-130v750h130v-750z" />
    <glyph glyph-name="m" unicode="m" horiz-adv-x="778" 
d="M196 564l-0.00195312 -58.0039h2c22 46.667 63.333 71 124 73c27.333 0.666992 52.333 -4.66602 75 -15.999c26.667 -13.333 42 -32.333 46 -57c26 48.667 69.667 73 131 73c45.333 0 80.333 -12.333 105 -37c22 -22 33 -49.667 33 -83v-459h-130v381
c0 32 -3.33301 55 -10 69c-9.33301 20.667 -26.666 30.334 -51.999 29.001c-28.667 -1.33301 -47.667 -13.666 -57 -36.999c-6 -14 -9 -37.667 -9 -71v-371h-130v388c0 30.667 -3 52.334 -9 65.001c-9.33301 18 -27.666 26.667 -54.999 26
c-28 -0.666992 -46.333 -11 -55 -31c-6 -14 -9 -39.667 -9 -77v-371h-130v564h130z" />
    <glyph glyph-name="n" unicode="n" 
d="M191 564v-58h2c22 48.667 61 73 117 73c39.333 0 70.333 -11.333 93 -34c24.667 -25.333 37 -62 37 -110v-435h-130v376c0 31.333 -3 53.333 -9 66c-8 17.333 -23.333 26.333 -46 27c-42.667 2 -64 -32.667 -64 -104v-365h-130v564h130z" />
    <glyph glyph-name="o" unicode="o" 
d="M183 372l0.000976562 -188c0 -38 3.66699 -63 11 -75c9.33301 -16 28.666 -24 57.999 -24c28 0 46.333 8 55 24c6.66699 12 10 37 10 75v188c0 35.333 -2.66699 59.666 -8 72.999c-9.33301 22.667 -28.333 34 -57 34c-30.667 0 -50.667 -11.333 -60 -34
c-6 -13.333 -9 -37.666 -9 -72.999zM252.001 -15c-82 0 -136.67 21.667 -164.003 65c-24 37.333 -35.667 108 -35 212c0.666992 116.667 9.33398 193.667 26.001 231c26.667 57.333 84.334 86 173.001 86c87.333 0 144 -28.667 170 -86c16 -36.667 24.333 -113.667 25 -231
c0.666992 -104 -10.666 -174.667 -33.999 -212c-27.333 -43.333 -81 -65 -161 -65z" />
    <glyph glyph-name="p" unicode="p" 
d="M188 354l-0.000976562 -169c0 -66.667 21 -100 63 -100c38 0 57 32.333 57 97v188c0 38 -2.33301 63.333 -7 76c-7.33301 22 -24.666 33 -51.999 33c-40.667 0 -61 -41.667 -61 -125zM187.999 564l0.000976562 -59h2c22 50.667 59.667 75.334 113 74.001
c44.667 -0.666992 77.667 -15.334 99 -44.001c24 -31.333 36 -84 36 -158v-204c0 -127.333 -45 -190 -135 -188c-52.667 0.666992 -92.334 25 -119.001 73h-2v-247h-124v753h130z" />
    <glyph glyph-name="q" unicode="q" 
d="M300 185l-0.000976562 169c0 83.333 -20.333 125 -61 125c-27.333 0 -44.666 -11 -51.999 -33c-4.66699 -12.667 -7 -38 -7 -76v-188c0 -64.667 19 -97 57 -97c42 0 63 33.333 63 100zM429.999 564v-751.999h-130v248h-2c-22 -49.333 -59.667 -74.333 -113 -75
c-90 -1.33301 -135 62 -135 190v204c0 73.333 12 125.666 36 156.999c20.667 28 53.667 42.333 99 43c54 1.33301 91.667 -22.667 113 -72h2v57h130z" />
    <glyph glyph-name="r" unicode="r" horiz-adv-x="333" 
d="M185 564v-100.001h2c14.667 36.667 31.667 63.334 51 80.001c22 18 49 28 81 30v-154c-9.33301 0.666992 -18.333 1 -27 1c-68 0 -102 -31.667 -102 -95v-326h-130v564h125z" />
    <glyph glyph-name="s" unicode="s" horiz-adv-x="444" 
d="M28 186h130.002c-1.33301 -10.667 -2 -20.667 -2 -30c0 -32 7 -53 21 -63c7.33301 -5.33301 21 -8 41 -8c16 0 29.333 4.66699 40 14s16 21 16 35c0 4.66699 -0.666992 9.33398 -2 14.001c-0.666992 13.333 -8.33398 26.333 -23.001 39l-41 28l-71 49
c-71.333 49.333 -107 108.666 -107 177.999c0 43.333 16.833 77 50.5 101s81.5 36 143.5 36c124 0 184.333 -62.333 181 -187h-130c2.66699 58 -17.333 87 -60 87c-36.667 0 -55 -15.333 -55 -46c0 -21.333 16.333 -43 49 -65l106 -72c19.333 -12.667 37.666 -29 54.999 -49
c20.667 -24 32 -44.667 34 -62c1.33301 -13.333 2 -25.666 2 -36.999c0 -108.667 -65 -163 -195 -163c-46 0 -85 10.667 -117 32c-44.667 29.333 -67 76.666 -67 141.999c0 8.66699 0.333008 17.667 1 27z" />
    <glyph glyph-name="t" unicode="t" horiz-adv-x="278" 
d="M252 100v-102c-26.667 -3.33301 -48.667 -5 -66 -5c-79.333 0 -119 31.333 -119 94v382h-53v95h52v155h131v-155h55v-95h-55v-350c2 -16.667 20.333 -23 55 -19z" />
    <glyph glyph-name="u" unicode="u" 
d="M307 0l-0.000976562 84h-2c-19.333 -65.333 -59.666 -98.333 -120.999 -99c-48.667 0 -82.667 12.667 -102 38c-16 22 -24 58.333 -24 109v432h130v-386c0 -36.667 4.33301 -61.667 13 -75c11.333 -12 24.666 -18 39.999 -18c26.667 0 44.334 13.333 53.001 40
c4.66699 14.667 7 39 7 73v366h130v-564h-124z" />
    <glyph glyph-name="v" unicode="v" horiz-adv-x="444" 
d="M142 0l-132 563.999h140l55 -316c6.66699 -37.333 12.667 -93 18 -167h2c5.33301 74.667 11.333 130.334 18 167.001l56 316h135l-130 -564h-162z" />
    <glyph glyph-name="w" unicode="w" horiz-adv-x="667" 
d="M381 564l63 -346c6.66699 -35.333 11 -75.666 13 -120.999h3c0 25.333 3.66699 67 11 125l43 342h131l-114 -564h-142l-43 228c-6 32.667 -11.667 80 -17 142h-4c-2 -52 -6.33301 -96.667 -13 -134l-40 -236h-145l-116 564h137l46 -344
c7.33301 -54.667 11 -96.334 11 -125.001h2c2 36 6.33301 76.333 13 121l54 348h107z" />
    <glyph glyph-name="x" unicode="x" horiz-adv-x="444" 
d="M157 288l-142 276h153l43 -102c4 -11.333 8.66699 -28.333 14 -51h2c2 10 7.33301 27.667 16 53l46 100h144l-141 -273l144 -291h-146l-39 91c-14 33.333 -22.667 61 -26 83h-2c-4 -24.667 -13.667 -54.667 -29 -90l-37 -84h-149z" />
    <glyph glyph-name="y" unicode="y" horiz-adv-x="444" 
d="M5 564l137.001 -0.00195312l57 -299c5.33301 -29.333 11.666 -79.333 18.999 -150h2c4 46.667 10.667 95.334 20 146.001l57 303h132l-137 -572c-17.333 -73.333 -31.333 -118.666 -42 -135.999c-21.333 -34 -59 -51 -113 -51c-18 0 -38.333 1.66699 -61 5v101
c2 0 7 -0.333008 15 -1s14.333 -1 19 -1c28.667 0 43 9 43 27c0 15.333 -4 39.333 -12 72z" />
    <glyph glyph-name="z" unicode="z" horiz-adv-x="389" 
d="M367 471l-206 -371h206v-100h-344v102l198 362h-194v100h340v-93z" />
    <glyph glyph-name="braceleft" unicode="{" horiz-adv-x="274" 
d="M43 436l-0.00195312 184c0 44.667 9.33301 77.5 28 98.5s50.334 31.5 95.001 31.5h74v-2c-28.667 -6.66699 -49 -19.667 -61 -39c-9.33301 -16.667 -14 -40.334 -14 -71.001v-184c0 -38 -5 -66 -15 -84c-12.667 -20.667 -35 -34.667 -67 -42v-2c54.667 -8 82 -53 82 -135
v-172c0 -60 25 -96.333 75 -109v-2h-65c-51.333 0 -86.666 12.333 -105.999 37c-17.333 21.333 -26 58.333 -26 111v162c0 58.667 -25 94.334 -75 107.001v2c50 6.66699 75 43 75 109z" />
    <glyph glyph-name="bar" unicode="|" horiz-adv-x="250" 
d="M75 0v750h100v-750h-100z" />
    <glyph glyph-name="braceright" unicode="}" horiz-adv-x="274" 
d="M231 618v-183.001c0 -66 25 -102.333 75 -109v-2c-30.667 -4 -51.667 -16 -63 -36c-8 -15.333 -12 -39.333 -12 -72v-162c0 -53.333 -8.33301 -90.666 -25 -111.999c-18.667 -24 -53.334 -36 -104.001 -36h-68v2c50 11.333 75 48 75 110v171c0 38 4.33301 66 13 84
c12 24 35 41 69 51v2c-32 7.33301 -54 21.666 -66 42.999c-10.667 18 -16 45.667 -16 83v185c0 63.333 -25 100 -75 110v3h68c46.667 0 79.834 -10.167 99.501 -30.5s29.5 -54.166 29.5 -101.499z" />
    <glyph glyph-name="asciitilde" unicode="~" 
d="M418 359l57.001 -73c-22.667 -40 -39.667 -66.333 -51 -79c-23.333 -25.333 -49.333 -38 -78 -38c-22 0 -56.333 11 -103 33s-74.334 33 -83.001 33c-17.333 0 -33 -9.33301 -47 -28c-3.33301 -4.66699 -13.333 -22.667 -30 -54l-57 74c40.667 82.667 85 124 133 124
c23.333 0 57.333 -11 102 -33s73 -33 85 -33c16 0 30.333 8.66699 43 26z" />
    <glyph glyph-name="euro" horiz-adv-x="498" 
d="M522 633l-22.999 -156.001l-48 6c0 104.667 -31.333 157 -94 157c-68.667 0 -122.334 -70.333 -161.001 -211h172l-21 -48h-164c-4 -16 -9.33301 -40.333 -16 -73h147l-21 -47h-134c-4 -27.333 -6 -52 -6 -74c0 -37.333 7 -67.666 21 -90.999
c17.333 -28.667 43.333 -43 78 -43c38.667 0 72.334 22.667 101.001 68c16 25.333 33 65 51 119l55 -10l-54 -188c-51.333 -35.333 -104.333 -53 -159 -53c-74 0 -129.333 28 -166 84c-31.333 47.333 -47 110 -47 188h-74l21 47h56c2 16.667 6 41 12 73h-66l21 48h59
c27.333 74.667 63.333 135.667 108 183c55.333 58.667 117.666 88 186.999 88c62.667 0 117.667 -22.333 165 -67z" />
    <glyph glyph-name="exclamdown" unicode="&#xa1;" horiz-adv-x="333" 
d="M232 -170l-130 -0.000976562v210c0 68.667 2 126.334 6 173.001c4 38.667 9 96.334 15 173.001h88c0.666992 -24.667 5 -82.334 13 -173.001c5.33301 -62 8 -119.667 8 -173v-210zM102 446.999v132h130v-132h-130z" />
    <glyph glyph-name="cent" unicode="&#xa2;" 
d="M194 346v-209h2l56 332l-9 1c-22.667 0 -37 -12 -43 -36c-4 -14.667 -6 -44 -6 -88zM298 218l130 0.000976562c0.666992 -24 -0.333008 -51 -3 -81c-4.66699 -48 -21.667 -85.833 -51 -113.5s-66.333 -41.5 -111 -41.5c-14.667 0 -29.334 1.33301 -44.001 4l-20 -108h-69
l24 126c-54.667 28 -82 91.333 -82 190v183c0 67.333 17.333 119.666 52 156.999c29.333 31.333 65 47 107 47c14.667 0 28.334 -2 41.001 -6l17 96h70l-21 -110c60 -26.667 90 -76.667 90 -150v-45h-130v79h-3l-61 -343c12 -12 28.667 -12.667 50 -2
c9.33301 12 14 34 14 66v52z" />
    <glyph glyph-name="sterling" unicode="&#xa3;" 
d="M123 337l-85.999 0.000976562v59h63c-30.667 48.667 -46 104 -46 166c0 65.333 21.667 116.666 65 153.999c40.667 34.667 93.667 52 159 52c84 0 143 -31.667 177 -95c13.333 -24.667 20 -71.667 20 -141h-128c-0.666992 43.333 -4 72.333 -10 87
c-10.667 26 -33.667 39 -69 39c-55.333 0 -83 -35.333 -83 -106c0 -30.667 15.333 -82.667 46 -156h146v-59h-124c6 -15.333 9 -35 9 -59c0 -74 -40.333 -137.333 -121 -190l1 -1l2 -1c36 20 68.333 30.333 97 31c15.333 0.666992 37 -1.66602 65 -6.99902
c18 -4 36.333 -7.66699 55 -11c29.333 -4.66699 62 5.66602 98 30.999l28 -109c-35.333 -24 -77.333 -36 -126 -36c-21.333 0 -52 5.33301 -92 16s-70.333 16 -91 16c-30.667 0 -66.334 -10.667 -107.001 -32l-36 94c32.667 18 58.167 44 76.5 78s27.5 70.667 27.5 110
c0 28 -5.33301 51.333 -16 70z" />
    <glyph glyph-name="currency" unicode="&#xa4;" 
d="M9 137l42 44c-23.333 43.333 -35 86 -35 128c0 46 11.667 89 35 129l-42 42l76 80l42 -43c41.333 25.333 82.333 38 123 38c44.667 0 87 -12.667 127 -38l43 43l72 -80l-41 -42c24 -40 36 -82.667 36 -128c0 -50.667 -12 -93.667 -36 -129l41 -44l-72 -79l-43 43
c-42 -25.333 -83 -38 -123 -38c-46 0 -88.333 12.667 -127 38l-42 -43zM252 437c-32.667 0 -60.5 -12.833 -83.5 -38.5s-34.5 -55.167 -34.5 -88.5s11.667 -63.166 35 -89.499s51 -39.5 83 -39.5c32.667 0 60.334 13.167 83.001 39.5s34 56.166 34 89.499
s-11.333 62.833 -34 88.5s-50.334 38.5 -83.001 38.5z" />
    <glyph glyph-name="yen" unicode="&#xa5;" 
d="M518 750l-198 -431v-60h108v-50h-108v-61h108v-50h-108v-98h-140v98h-112v50h112v61h-112v50h112v60l-198 431h156l79 -197c16.667 -40.667 28 -79 34 -115h2c6 36 17.333 74.333 34 115l79 197h152z" />
    <glyph glyph-name="brokenbar" unicode="&#xa6;" horiz-adv-x="250" 
d="M75 0v300h100v-300h-100zM175 750v-300h-100v300h100z" />
    <glyph glyph-name="section" unicode="&#xa7;" 
d="M305 320l-114 93c-26.667 -12 -40 -32 -40 -60c0 -24 11 -45 33 -63l123 -100c25.333 14 38 35 38 63c0 22.667 -13.333 45 -40 67zM54 12l125 0.00195312c-1.33301 -62 23 -93 73 -93c17.333 0 31.833 6.33301 43.5 19s17.5 27.667 17.5 45
c0 27.333 -20 56.666 -60 87.999l-119 93c-36 28 -60.333 52 -73 72c-16 25.333 -24 58.666 -24 99.999c0 65.333 28.667 113.666 86 144.999c-34 24.667 -51 66.334 -51 125.001c0 43.333 15.333 80 46 110c34.667 34.667 82.667 52 144 52c56 0 100.167 -15.667 132.5 -47
s46.833 -74.333 43.5 -129h-123c4.66699 50.667 -16.333 76 -63 76c-38.667 0 -58 -18.333 -58 -55c0 -27.333 15.333 -53 46 -77l137 -108c57.333 -45.333 86 -97 86 -155c0 -64 -27.667 -113 -83 -147c15.333 -10.667 28.666 -29.667 39.999 -57s17 -53 17 -77
c0 -50.667 -19.667 -92.5 -59 -125.5s-85 -49.5 -137 -49.5c-96 0 -156 41 -180 123c-3.33301 10.667 -5.66602 34.667 -6.99902 72z" />
    <glyph glyph-name="dieresis" unicode="&#xa8;" horiz-adv-x="333" 
d="M132 644h-127v115h127v-115zM328 644h-128v115h128v-115z" />
    <glyph glyph-name="copyright" unicode="&#xa9;" horiz-adv-x="830" 
d="M416 768c108.667 0 201.167 -38 277.5 -114s114.5 -168.333 114.5 -277c0 -109.333 -38.167 -202.5 -114.5 -279.5s-168.833 -115.5 -277.5 -115.5c-109.333 0 -202.333 38.5 -279 115.5s-115 170.167 -115 279.5c0 108.667 38.333 201 115 277s169.667 114 279 114z
M416 57c87.333 0 162.166 31.333 224.499 94s93.5 138 93.5 226c0 87.333 -31.167 162 -93.5 224s-137.166 93 -224.499 93c-88.667 0 -164.167 -31 -226.5 -93s-93.5 -136.667 -93.5 -224c0 -88.667 31.167 -164.167 93.5 -226.5s137.833 -93.5 226.5 -93.5zM527 306
l88.9971 0.00195312c-5.33301 -46 -25.5 -83 -60.5 -111s-76.167 -42 -123.5 -42c-64.667 0 -117 21.667 -157 65s-60 97.333 -60 162c0 66 19.5 120.167 58.5 162.5s91.167 63.5 156.5 63.5c48 0 88.833 -13.167 122.5 -39.5s54.834 -62.833 63.501 -109.5h-89
c-9.33301 51.333 -42 77 -98 77c-40 0 -71.333 -15.667 -94 -47c-21.333 -28 -32 -63 -32 -105c0 -40.667 11.333 -76.334 34 -107.001c24.667 -33.333 56.334 -50 95.001 -50c24.667 0 46.334 7.66699 65.001 23s28.667 34.666 30 57.999z" />
    <glyph glyph-name="ordfeminine" unicode="&#xaa;" horiz-adv-x="300" 
d="M189 562l0.000976562 37l-65 -40c-11.333 -9.33301 -17 -24 -17 -44c0 -29.333 13 -44 39 -44c21.333 0 34.666 11 39.999 33c2 8 3 27.333 3 58zM20.001 291v63h260v-63h-260zM105.001 659l-80.002 0.00195312c-0.666992 35.333 7.33301 61.666 24 78.999
c20 20 54.667 30 104 30c50.667 0 85.334 -11 104.001 -33c11.333 -14.667 17 -37 17 -67v-200c0 -17.333 2.33301 -33 7 -47h-80c-5.33301 9.33301 -7 20.666 -5 33.999h-2c-16 -28.667 -40.667 -43 -74 -43c-65.333 0 -98 33.667 -98 101c0 34 12.667 60.667 38 80
c13.333 10 42.333 23.667 87 41c29.333 11.333 44 25.666 44 42.999c0 4.66699 -0.666992 9.33398 -2 14.001c-3.33301 14 -16.666 21 -39.999 21c-29.333 0 -44 -17.667 -44 -53z" />
    <glyph glyph-name="guillemotleft" unicode="&#xab;" 
d="M231 62l-157 142v102l157 141v-112l-94 -79l94 -81v-113zM419 62l-159 142v102l159 141v-112l-96 -79l96 -81v-113z" />
    <glyph glyph-name="logicalnot" unicode="&#xac;" 
d="M365 105v186h-339v110h449v-296h-110z" />
    <glyph glyph-name="sfthyphen" unicode="&#xad;" horiz-adv-x="338" 
d="M8 174l33 122h246l-33 -122h-246z" />
    <glyph glyph-name="registered" unicode="&#xae;" horiz-adv-x="830" 
d="M416 -18c-108.667 0 -201.5 38.5 -278.5 115.5s-115.5 169.833 -115.5 278.5c0 108 38.5 200.333 115.5 277s169.833 115 278.5 115c108 0 200.333 -38.333 277 -115s115 -169 115 -277c0 -108.667 -38.333 -201.5 -115 -278.5s-169 -115.5 -277 -115.5zM416 56
c88 0 163 31.167 225 93.5s93 137.833 93 226.5c0 88 -31 163 -93 225s-137 93 -225 93c-88.667 0 -164.167 -31 -226.5 -93s-93.5 -137 -93.5 -225c0 -88.667 31.167 -164.167 93.5 -226.5s137.833 -93.5 226.5 -93.5zM508 341l103 -180h-97l-94 180h-83v-180h-83v425h205
c54.667 0 93 -7 115 -21c33.333 -21.333 50 -58 50 -110c0 -70.667 -38.667 -108.667 -116 -114zM337 404h124c26 0 45 3.66699 57 11c15.333 10 23 27.667 23 53c0 24 -11.667 40 -35 48c-13.333 4.66699 -35.333 7 -66 7h-103v-119z" />
    <glyph glyph-name="macron" unicode="&#xaf;" horiz-adv-x="333" 
d="M340 666h-346v74h346v-74z" />
    <glyph glyph-name="macron" unicode="&#x2c9;" horiz-adv-x="333" 
d="M340 666h-346v74h346v-74z" />
    <glyph glyph-name="degree" unicode="&#xb0;" horiz-adv-x="400" 
d="M350 600c0 -41.333 -14.667 -76.666 -44 -105.999s-64.666 -44 -105.999 -44s-76.666 14.667 -105.999 44s-44 64.666 -44 105.999s14.667 76.666 44 105.999s64.666 44 105.999 44s76.666 -14.667 105.999 -44s44 -64.666 44 -105.999zM129 600
c0 -20 7 -36.833 21 -50.5s31 -20.5 51 -20.5c19.333 0 35.833 6.83301 49.5 20.5s20.5 30.5 20.5 50.5c0 19.333 -6.83301 36 -20.5 50s-30.5 21 -50.5 21c-19.333 0 -36 -7 -50 -21s-21 -30.667 -21 -50z" />
    <glyph glyph-name="plusminus" unicode="&#xb1;" 
d="M195 379v134h110v-134h170v-110h-170v-134h-110v134h-169v110h169zM26 -15v110h449v-110h-449z" />
    <glyph glyph-name="twosuperior" unicode="&#xb2;" horiz-adv-x="300" 
d="M229 512l-72 -68c-30.667 -28.667 -46.334 -54.667 -47.001 -78h170v-66h-267c1.33301 31.333 4 56.666 8 75.999c6.66699 35.333 35.334 77.666 86.001 126.999l44 43c17.333 16.667 28.333 29.334 33 38.001c8 12.667 12 28.667 12 48c0 36 -14.667 54 -44 54
c-22 0 -36 -7.33301 -42 -22c-4.66699 -11.333 -7 -32.666 -7 -63.999h-85v13c0 36.667 5.33301 65 16 85c21.333 36.667 62 54.667 122 54c39.333 -0.666992 71 -11.5 95 -32.5s36 -49.167 36 -84.5c0 -45.333 -19.333 -86.333 -58 -123z" />
    <glyph glyph-name="threesuperior" unicode="&#xb3;" horiz-adv-x="300" 
d="M105 507l-0.000976562 66.001c13.333 -0.666992 32.333 1.33301 57 6c18.667 8 28 26.333 28 55c0 34 -14.333 51 -43 51c-29.333 0 -44 -12 -44 -36v-31h-85c-4 88.667 38.667 133 128 133c88 0 132 -38.667 132 -116c0 -56 -21 -87 -63 -93v-2
c49.333 -4.66699 73.666 -40.667 72.999 -108c-1.33301 -94.667 -48.333 -142 -141 -142c-90 0 -135 44 -135 132v26h85c2 -35.333 3.66699 -55.333 5 -60c6 -21.333 21.333 -32 46 -32c22.667 0 37.334 9 44.001 27c3.33301 9.33301 5 28.666 5 57.999
c0 24.667 -3.33301 40.667 -10 48c-11.333 12 -38.666 18 -81.999 18z" />
    <glyph glyph-name="acute" unicode="&#xb4;" horiz-adv-x="333" 
d="M83 629l94 146h155l-148 -146h-101z" />
    <glyph glyph-name="mu" unicode="&#xb5;" 
d="M431 0h-124.001v84h-2c-17.333 -56 -46 -84 -86 -84c-9.33301 0 -19.666 1.66699 -30.999 5v-194h-130v753h130v-386c0 -36.667 4.33301 -61.667 13 -75c11.333 -12 24.666 -18 39.999 -18c26.667 0 44.334 13.333 53.001 40c4.66699 14.667 7 39 7 73v366h130v-564z" />
    <glyph glyph-name="mu" unicode="&#x3bc;" 
d="M431 0h-124.001v84h-2c-17.333 -56 -46 -84 -86 -84c-9.33301 0 -19.666 1.66699 -30.999 5v-194h-130v753h130v-386c0 -36.667 4.33301 -61.667 13 -75c11.333 -12 24.666 -18 39.999 -18c26.667 0 44.334 13.333 53.001 40c4.66699 14.667 7 39 7 73v366h130v-564z" />
    <glyph glyph-name="paragraph" unicode="&#xb6;" horiz-adv-x="550" 
d="M366 -116v748h-68v-748h-118v517c-50.667 0 -89.5 15.667 -116.5 47s-40.5 72.666 -40.5 123.999c0 64.667 17.667 111.334 53 140.001c32 25.333 81 38 147 38h303v-118h-42v-748h-118z" />
    <glyph glyph-name="ch270" unicode="&#xb7;" horiz-adv-x="249" 
d="M38 348c0 22.667 7.66699 41.667 23 57s34.333 23 57 23s41.834 -7.66699 57.501 -23s23.5 -34.333 23.5 -57s-7.83301 -41.834 -23.5 -57.501s-34.834 -23.5 -57.501 -23.5s-41.667 7.83301 -57 23.5s-23 34.834 -23 57.501z" />
    <glyph glyph-name="ch270" unicode="&#x2219;" horiz-adv-x="249" 
d="M38 348c0 22.667 7.66699 41.667 23 57s34.333 23 57 23s41.834 -7.66699 57.501 -23s23.5 -34.333 23.5 -57s-7.83301 -41.834 -23.5 -57.501s-34.834 -23.5 -57.501 -23.5s-41.667 7.83301 -57 23.5s-23 34.834 -23 57.501z" />
    <glyph glyph-name="cedilla" unicode="&#xb8;" horiz-adv-x="333" 
d="M39 -203l19 42c34 -10.667 62.667 -16 86 -16c12 0 22.833 4.66699 32.5 14s13.5 20 11.5 32c-3.33301 12.667 -10 20.667 -20 24c-15.333 8 -37 7 -65 -3l-21 20l59 90h53l-42 -63c10 4 21 6 33 6c29.333 0 52 -8 68 -24c14.667 -11.333 22 -29 22 -53
c0 -14 -4.33301 -29.333 -13 -46c-25.333 -32.667 -63 -49 -113 -49c-19.333 0 -56 8.66699 -110 26z" />
    <glyph glyph-name="onesuperior" unicode="&#xb9;" horiz-adv-x="300" 
d="M160 300v312h-110v60c74 1.33301 118.667 27.333 134 78h67v-450h-91z" />
    <glyph glyph-name="ordmasculine" unicode="&#xba;" horiz-adv-x="300" 
d="M106 648v-113.002c0 -20.667 1.66699 -35 5 -43c6 -13.333 18.667 -20 38 -20s32.333 6.66699 39 20c3.33301 8 5 22.333 5 43v113c0 22.667 -2.66699 38.334 -8 47.001s-17.333 13 -36 13s-30.5 -4.16699 -35.5 -12.5s-7.5 -24.166 -7.5 -47.499zM150 767.998
c57.333 0 94.333 -17 111 -51c11.333 -22.667 17 -69 17 -139c0 -62 -7.33301 -104.333 -22 -127c-18 -26 -53 -39 -105 -39c-52.667 0 -88 13 -106 39c-15.333 22.667 -23 65 -23 127c0 70 5.66699 116.333 17 139c16.667 34 53.667 51 111 51zM22 290.998v63h255v-63h-255
z" />
    <glyph glyph-name="guillemotright" unicode="&#xbb;" 
d="M81 62v113l96 85l-96 75v112l159 -141v-102zM269 62v113l95 85l-95 75v112l157 -141v-102z" />
    <glyph glyph-name="onequarter" unicode="&#xbc;" horiz-adv-x="750" 
d="M505 157h91v183h-2zM586 443h101v-286h42v-66h-42v-91h-91v91h-158v66zM206 0h-75l425 738h75zM130 300v312h-110v60c74 1.33301 118.667 27.333 134 78h67v-450h-91z" />
    <glyph glyph-name="onehalf" unicode="&#xbd;" horiz-adv-x="750" 
d="M183 0h-75l425 738h75zM122 300v312h-110v60c74 1.33301 118.667 27.333 134 78h67v-450h-91zM681 212l-72 -68c-30.667 -28.667 -46.334 -54.667 -47.001 -78h170v-66h-267c1.33301 31.333 4 56.666 8 75.999c6.66699 35.333 35.334 77.666 86.001 126.999l44 43
c17.333 16.667 28.333 29.334 33 38.001c8 12.667 12 28.667 12 48c0 36 -14.667 54 -44 54c-22 0 -36 -7.33301 -42 -22c-4.66699 -11.333 -7 -32.666 -7 -63.999h-85v13c0 36.667 5.33301 65 16 85c21.333 36.667 62 54.667 122 54c39.333 -0.666992 71 -11.5 95 -32.5
s36 -49.167 36 -84.5c0 -45.333 -19.333 -86.333 -58 -123z" />
    <glyph glyph-name="threequarters" unicode="&#xbe;" horiz-adv-x="750" 
d="M515 157h91v183h-2zM596 443h101v-286h42v-66h-42v-91h-91v91h-158v66zM234 0h-75l425 738h75zM105 507l-0.000976562 66.001c13.333 -0.666992 32.333 1.33301 57 6c18.667 8 28 26.333 28 55c0 34 -14.333 51 -43 51c-29.333 0 -44 -12 -44 -36v-31h-85
c-4 88.667 38.667 133 128 133c88 0 132 -38.667 132 -116c0 -56 -21 -87 -63 -93v-2c49.333 -4.66699 73.666 -40.667 72.999 -108c-1.33301 -94.667 -48.333 -142 -141 -142c-90 0 -135 44 -135 132v26h85c2 -35.333 3.66699 -55.333 5 -60c6 -21.333 21.333 -32 46 -32
c22.667 0 37.334 9 44.001 27c3.33301 9.33301 5 28.666 5 57.999c0 24.667 -3.33301 40.667 -10 48c-11.333 12 -38.666 18 -81.999 18z" />
    <glyph glyph-name="questiondown" unicode="&#xbf;" 
d="M324 25l124 0.000976562c8 -143.333 -57 -215 -195 -215c-59.333 0 -106.333 16.667 -141 50s-52 78.666 -52 135.999c0 36 5.66699 67 17 93c9.33301 21.333 26.666 48 51.999 80c19.333 20 42.333 45.333 69 76c24 27.333 36 71.333 36 132h117
c0.666992 -12.667 -0.333008 -35.667 -3 -69c-3.33301 -40 -16.333 -76.667 -39 -110l-72 -91c-15.333 -20.667 -25.333 -37.667 -30 -51c-6 -15.333 -9 -35.666 -9 -60.999c0 -54 19 -81 57 -81c28.667 0 47.334 7.66699 56.001 23c6 11.333 9.66699 25.666 11 42.999z
M353 450.001h-128v129h128v-129z" />
    <glyph glyph-name="Agrave" unicode="&#xc0;" horiz-adv-x="556" 
d="M159 0h-150l179 750h189l170 -750h-150l-37 190h-164zM260 513l-41.999 -213.001h120l-38 213c-6.66699 37.333 -11.334 72 -14.001 104c-1.33301 18.667 -3 35.334 -5 50.001h-2c-2 -28.667 -8.33301 -80 -19 -154zM102.001 943.999h139l75 -142h-71z" />
    <glyph glyph-name="Aacute" unicode="&#xc1;" horiz-adv-x="556" 
d="M159 0h-150l179 750h189l170 -750h-150l-37 190h-164zM260 513l-41.999 -213.001h120l-38 213c-6.66699 37.333 -11.334 72 -14.001 104c-1.33301 18.667 -3 35.334 -5 50.001h-2c-2 -28.667 -8.33301 -80 -19 -154zM241.001 800.999l75 142h139l-143 -142h-71z" />
    <glyph glyph-name="Acircumflex" unicode="&#xc2;" horiz-adv-x="556" 
d="M159 0h-150l179 750h189l170 -750h-150l-37 190h-164zM260 513l-41.999 -213.001h120l-38 213c-6.66699 37.333 -11.334 72 -14.001 104c-1.33301 18.667 -3 35.334 -5 50.001h-2c-2 -28.667 -8.33301 -80 -19 -154zM225.001 899.999h107l97 -124h-97l-53 70l-55 -70h-95
z" />
    <glyph glyph-name="Atilde" unicode="&#xc3;" horiz-adv-x="556" 
d="M159 0h-150l179 750h189l170 -750h-150l-37 190h-164zM260 513l-41.999 -213.001h120l-38 213c-6.66699 37.333 -11.334 72 -14.001 104c-1.33301 18.667 -3 35.334 -5 50.001h-2c-2 -28.667 -8.33301 -80 -19 -154zM410.001 911.999l54.001 -0.000976562
c-48.667 -69.333 -99.334 -104 -152.001 -104c-8.66699 0 -29.667 6 -63 18c-14 8 -26.333 12 -37 12c-14.667 0 -34 -12 -58 -36h-51c15.333 26.667 36.333 50.334 63 71.001c30.667 23.333 59.667 35 87 35c15.333 0 33.333 -5 54 -15c12 -6 26.333 -11.333 43 -16
c22 -0.666992 42 11 60 35z" />
    <glyph glyph-name="Adieresis" unicode="&#xc4;" horiz-adv-x="556" 
d="M159 0h-150l179 750h189l170 -750h-150l-37 190h-164zM260 513l-41.999 -213.001h120l-38 213c-6 32.667 -10.667 67.334 -14 104.001c-0.666992 11.333 -2.33398 28 -5.00098 50h-2c-2.66699 -34 -9 -85.333 -19 -154zM244.001 829.999h-127v115h127v-115z
M440.001 829.999h-128v115h128v-115z" />
    <glyph glyph-name="Aring" unicode="&#xc5;" horiz-adv-x="556" 
d="M159 0h-150l179 750h189l170 -750h-150l-37 190h-164zM260 513l-41.999 -213.001h120l-38 213c-6 32.667 -10.667 67.334 -14 104.001c-0.666992 11.333 -2.33398 28 -5.00098 50h-2c-2.66699 -34 -9 -85.333 -19 -154zM279.001 757.999c-29.333 0 -54.5 10.5 -75.5 31.5
s-31.5 45.833 -31.5 74.5c0 29.333 10.667 54.5 32 75.5s46.333 31.5 75 31.5c29.333 0 54.333 -10.5 75 -31.5s31 -46.167 31 -75.5s-10.333 -54.333 -31 -75s-45.667 -31 -75 -31zM279.001 921.999c-16 0 -29.667 -5.66895 -41 -17.002s-17 -25 -17 -41
c0 -15.333 5.83301 -28.666 17.5 -39.999s25.167 -17 40.5 -17s28.833 5.83301 40.5 17.5s17.5 24.834 17.5 39.501c0 15.333 -5.83301 28.833 -17.5 40.5s-25.167 17.5 -40.5 17.5z" />
    <glyph glyph-name="AE" unicode="&#xc6;" horiz-adv-x="778" 
d="M365 0v192h-172l-65 -192h-150l288 750h484v-110h-245v-190h229v-110h-229v-230h245v-110h-385zM365 611h-27l-107 -309h134v309z" />
    <glyph glyph-name="Ccedilla" unicode="&#xc7;" horiz-adv-x="556" 
d="M371 267l141.002 0.00195312l-3 -43c-4 -76 -20.333 -133.333 -49 -172c-34 -46.667 -87.333 -70 -160 -70c-104.667 0 -174.334 32.667 -209.001 98c-24 46 -36 128.667 -36 248v107c0 113.333 13 193 39 239c35.333 63.333 104 94.666 206 93.999
c126 -0.666992 194.333 -65.334 205 -194.001c2.66699 -30 3.66699 -49 3 -57h-138c-6.66699 56 -10.334 85 -11.001 87c-10 34 -29.667 51 -59 51c-47.333 0 -78 -24.333 -92 -73c-6 -21.333 -9 -60 -9 -116v-208c0 -108.667 33.667 -163 101 -163
c32.667 0 53.667 22.667 63 68c1.33301 6 4 40.667 8 104zM151.002 -202.998l19 42c34 -10.667 62.667 -16 86 -16c12 0 22.833 4.66699 32.5 14s13.5 20 11.5 32c-3.33301 12.667 -10 20.667 -20 24c-15.333 8 -37 7 -65 -3l-21 20l59 90h53l-42 -63c10 4 21 6 33 6
c29.333 0 52 -8 68 -24c14.667 -11.333 22 -29 22 -53c0 -14 -4.33301 -29.333 -13 -46c-25.333 -32.667 -63 -49 -113 -49c-19.333 0 -56 8.66699 -110 26z" />
    <glyph glyph-name="Egrave" unicode="&#xc8;" 
d="M458 0h-394v750h394v-110h-254v-189h234v-110h-234v-231h254v-110zM82 944h139l75 -142h-71z" />
    <glyph glyph-name="Eacute" unicode="&#xc9;" 
d="M458 0h-394v750h394v-110h-254v-189h234v-110h-234v-231h254v-110zM224 802l75 142h139l-143 -142h-71z" />
    <glyph glyph-name="Ecircumflex" unicode="&#xca;" 
d="M458 0h-394v750h394v-110h-254v-189h234v-110h-234v-231h254v-110zM206 910h107l97 -124h-97l-53 70l-55 -70h-95z" />
    <glyph glyph-name="Edieresis" unicode="&#xcb;" 
d="M458 0h-394v750h394v-110h-254v-189h234v-110h-234v-231h254v-110zM216 830h-127v115h127v-115zM412 830h-128v115h128v-115z" />
    <glyph glyph-name="Igrave" unicode="&#xcc;" horiz-adv-x="278" 
d="M209 0h-140v750h140v-750zM-38 944h139l75 -142h-71z" />
    <glyph glyph-name="Iacute" unicode="&#xcd;" horiz-adv-x="278" 
d="M209 0h-140v750h140v-750zM103 802l75 142h139l-143 -142h-71z" />
    <glyph glyph-name="Icircumflex" unicode="&#xce;" horiz-adv-x="278" 
d="M209 0h-140v750h140v-750zM76 956h125l115 -146h-114l-63 82l-64 -82h-112z" />
    <glyph glyph-name="Idieresis" unicode="&#xcf;" horiz-adv-x="278" 
d="M209 0h-140v750h140v-750zM105 830h-127v115h127v-115zM301 830h-128v115h128v-115z" />
    <glyph glyph-name="Eth" unicode="&#xd0;" horiz-adv-x="611" 
d="M72 426l0.00195312 323.999h292c39.333 0 74 -12.667 104 -38s50.667 -57.333 62 -96c13.333 -44.667 20 -114.667 20 -210c0 -102.667 -4.66699 -177 -14 -223c-16.667 -79.333 -50.334 -133.666 -101.001 -162.999c-22.667 -13.333 -57.334 -20 -104.001 -20h-259v331
h-78v95h78zM212.002 639.999l0.000976562 -214h68v-95h-68v-221h61c59.333 0 97 20 113 60c13.333 32.667 20 107 20 223c0 92 -6.33301 155.333 -19 190c-14.667 38 -42.334 57 -83.001 57h-92z" />
    <glyph glyph-name="Ntilde" unicode="&#xd1;" horiz-adv-x="611" 
d="M403 603v147h140v-750h-146l-109 267c-35.333 86.667 -68.666 186 -99.999 298h-2c14.667 -182 22 -323.333 22 -424v-141h-140v750h145l109 -273c37.333 -94 70.666 -193.333 99.999 -298h2c-14 190.667 -21 332 -21 424zM424 930l65 0.000976562
c-14.667 -80.667 -53.667 -121 -117 -121c-16 0 -45.333 7.33301 -88 22c-24.667 8.66699 -42 13 -52 13c-8 0 -15.167 -1.83301 -21.5 -5.5s-14.833 -15.834 -25.5 -36.501h-62c2.66699 38 17 69 43 93c22 20 45.667 30 71 30c18.667 0 44.5 -6.16699 77.5 -18.5
s52.833 -18.5 59.5 -18.5c26 0 42.667 14 50 42z" />
    <glyph glyph-name="Ograve" unicode="&#xd2;" horiz-adv-x="611" 
d="M61 328l0.00195312 106.999c0 112 13 191.333 39 238c35.333 63.333 104 95 206 95c102.667 0 171.667 -31.667 207 -95c25.333 -45.333 38 -124.666 38 -237.999v-107c0 -120 -12 -202.667 -36 -248c-34.667 -65.333 -104.334 -98 -209.001 -98
s-174.334 32.667 -209.001 98c-24 45.333 -36 128 -36 248zM205.002 465.999v-208c0 -108.667 33.667 -163 101 -163c44 0 73.333 20.333 88 61c8.66699 24 13 62 13 114v192c0 55.333 -3.66699 95 -11 119c-14.667 49.333 -44.667 74 -90 74c-47.333 0 -78 -24.333 -92 -73
c-6 -21.333 -9 -60 -9 -116zM127.002 963.999h139l75 -142h-71z" />
    <glyph glyph-name="Oacute" unicode="&#xd3;" horiz-adv-x="611" 
d="M61 328l0.00195312 106.999c0 112 13 191.333 39 238c35.333 63.333 104 95 206 95c102.667 0 171.667 -31.667 207 -95c25.333 -45.333 38 -124.666 38 -237.999v-107c0 -120 -12 -202.667 -36 -248c-34.667 -65.333 -104.334 -98 -209.001 -98
s-174.334 32.667 -209.001 98c-24 45.333 -36 128 -36 248zM205.002 465.999v-208c0 -108.667 33.667 -163 101 -163c44 0 73.333 20.333 88 61c8.66699 24 13 62 13 114v192c0 55.333 -3.66699 95 -11 119c-14.667 49.333 -44.667 74 -90 74c-47.333 0 -78 -24.333 -92 -73
c-6 -21.333 -9 -60 -9 -116zM269.002 821.999l75 142h139l-143 -142h-71z" />
    <glyph glyph-name="Ocircumflex" unicode="&#xd4;" horiz-adv-x="611" 
d="M61 328l0.00195312 106.999c0 112 13 191.333 39 238c35.333 63.333 104 95 206 95c102.667 0 171.667 -31.667 207 -95c25.333 -45.333 38 -124.666 38 -237.999v-107c0 -120 -12 -202.667 -36 -248c-34.667 -65.333 -104.334 -98 -209.001 -98
s-174.334 32.667 -209.001 98c-24 45.333 -36 128 -36 248zM205.002 465.999v-208c0 -108.667 33.667 -163 101 -163c44 0 73.333 20.333 88 61c8.66699 24 13 62 13 114v192c0 55.333 -3.66699 95 -11 119c-14.667 49.333 -44.667 74 -90 74c-47.333 0 -78 -24.333 -92 -73
c-6 -21.333 -9 -60 -9 -116zM252.002 918.999h107l97 -124h-97l-53 70l-55 -70h-95z" />
    <glyph glyph-name="Otilde" unicode="&#xd5;" horiz-adv-x="611" 
d="M61 328l0.00195312 106.999c0 112 13 191.333 39 238c35.333 63.333 104 95 206 95c102.667 0 171.667 -31.667 207 -95c25.333 -45.333 38 -124.666 38 -237.999v-107c0 -120 -12 -202.667 -36 -248c-34.667 -65.333 -104.334 -98 -209.001 -98
s-174.334 32.667 -209.001 98c-24 45.333 -36 128 -36 248zM205.002 465.999v-208c0 -108.667 33.667 -163 101 -163c44 0 73.333 20.333 88 61c8.66699 24 13 62 13 114v192c0 55.333 -3.66699 95 -11 119c-14.667 49.333 -44.667 74 -90 74c-47.333 0 -78 -24.333 -92 -73
c-6 -21.333 -9 -60 -9 -116zM437.002 930.999l54.001 -0.000976562c-48.667 -69.333 -99.334 -104 -152.001 -104c-8.66699 0 -29.667 6 -63 18c-14 8 -26.333 12 -37 12c-14.667 0 -34 -12 -58 -36h-51c15.333 26.667 36.333 50.334 63 71.001
c30.667 23.333 59.667 35 87 35c15.333 0 33.333 -5 54 -15c12 -6 26.333 -11.333 43 -16c22 -0.666992 42 11 60 35z" />
    <glyph glyph-name="Odieresis" unicode="&#xd6;" horiz-adv-x="611" 
d="M61 328l0.00195312 107c0 112.667 13 192 39 238c35.333 63.333 104 95 206 95s171 -31.667 207 -95c25.333 -46 38 -125.333 38 -238v-107c0 -119.333 -12 -202 -36 -248c-34.667 -65.333 -104.334 -98 -209.001 -98s-174.334 32.667 -209.001 98
c-24 46 -36 128.667 -36 248zM205.002 466v-208c0 -108.667 33.667 -163 101 -163c44 0 73.333 20.333 88 61c8.66699 23.333 13 61.333 13 114v192c0 54 -3.66699 93.667 -11 119c-15.333 49.333 -45.333 74 -90 74c-47.333 0 -78 -24.333 -92 -73
c-6 -21.333 -9 -60 -9 -116zM271.002 830h-127v115h127v-115zM467.002 830h-128v115h128v-115z" />
    <glyph glyph-name="multiply" unicode="&#xd7;" 
d="M170 249l-144 144l78 78l144 -144l149 149l78 -78l-149 -149l149 -149l-78 -78l-149 149l-144 -144l-78 78z" />
    <glyph glyph-name="Oslash" unicode="&#xd8;" horiz-adv-x="611" 
d="M578 745l-57.999 -93.001c20.667 -42 31 -114.333 31 -217v-107c0 -119.333 -12 -202 -36 -248c-34.667 -65.333 -104.334 -98 -209.001 -98c-44 0 -79 3.83301 -105 11.5s-49.333 21.834 -70 42.501l-46 -74l-49 30l59 94c-22.667 45.333 -34 126 -34 242v107
c0 112.667 13 192 39 238c35.333 63.333 104 95 206 95c41.333 0 73.333 -3 96 -9c30.667 -8.66699 58 -25.667 82 -51l44 71zM205.001 274.999l187.999 300c-4 53.333 -33 80 -87 80c-47.333 0 -77.666 -25.333 -90.999 -76c-6.66699 -26 -10 -81 -10 -165v-139z
M406 477.999l-191 -306c10 -51.333 40.333 -77 91 -77c46.667 0 77 24.333 91 73c6.66699 24 10 68.333 10 133c0 104.667 -0.333008 163.667 -1 177z" />
    <glyph glyph-name="Ugrave" unicode="&#xd9;" horiz-adv-x="611" 
d="M404 239v510.999h140v-523c0 -87.333 -17.333 -149.666 -52 -186.999c-36.667 -38.667 -98.334 -58 -185.001 -58c-88 0 -149.833 18.833 -185.5 56.5s-53.5 100.5 -53.5 188.5v523h140v-511c0 -46.667 4.66699 -79.667 14 -99c14.667 -30 43.334 -45 86.001 -45
c40.667 0 68 15 82 45c9.33301 20 14 53 14 99zM127 933.999h139l75 -142h-71z" />
    <glyph glyph-name="Uacute" unicode="&#xda;" horiz-adv-x="611" 
d="M404 239v510.999h140v-523c0 -87.333 -17.333 -149.666 -52 -186.999c-36.667 -38.667 -98.334 -58 -185.001 -58c-88 0 -149.833 18.833 -185.5 56.5s-53.5 100.5 -53.5 188.5v523h140v-511c0 -46.667 4.66699 -79.667 14 -99c14.667 -30 43.334 -45 86.001 -45
c40.667 0 68 15 82 45c9.33301 20 14 53 14 99zM269 791.999l75 142h139l-143 -142h-71z" />
    <glyph glyph-name="Ucircumflex" unicode="&#xdb;" horiz-adv-x="611" 
d="M404 239l-0.000976562 511h140v-523c0 -86 -16.667 -147.667 -50 -185c-36 -40 -98.333 -60 -187 -60c-89.333 0 -152.333 20 -189 60c-33.333 37.333 -50 99 -50 185v523h140v-511c0 -46 4.66699 -79 14 -99c14.667 -30 43.334 -45 86.001 -45c40.667 0 68 15 82 45
c9.33301 20 14 53 14 99zM241.999 956h125l115 -146h-114l-63 82l-64 -82h-112z" />
    <glyph glyph-name="Udieresis" unicode="&#xdc;" horiz-adv-x="611" 
d="M404 239l-0.000976562 511h140v-523c0 -86 -16.667 -147.667 -50 -185c-36 -40 -98.333 -60 -187 -60c-89.333 0 -152.333 20 -189 60c-33.333 37.333 -50 99 -50 185v523h140v-511c0 -46 4.66699 -79 14 -99c14.667 -30 43.334 -45 86.001 -45c40.667 0 68 15 82 45
c9.33301 20 14 53 14 99zM270.999 830h-127v115h127v-115zM466.999 830h-128v115h128v-115z" />
    <glyph glyph-name="Yacute" unicode="&#xdd;" horiz-adv-x="556" 
d="M165 750l79.001 -197.001c16.667 -41.333 27.667 -79.666 33 -114.999h2c5.33301 30.667 20.666 78 45.999 142l67 170h153l-198 -431v-319h-140v319l-195 431h153zM244.001 791.999l75 142h139l-143 -142h-71z" />
    <glyph glyph-name="Thorn" unicode="&#xde;" horiz-adv-x="556" 
d="M208 483v-216h75c68 0 102 39 102 117c0 40.667 -9 68 -27 82c-15.333 11.333 -44 17 -86 17h-64zM208 0h-140v750h140v-157h146c62 0 108 -22.333 138 -67c24.667 -36.667 37 -85.334 37 -146.001c0 -81.333 -23.333 -140.666 -70 -177.999
c-38 -30 -90.333 -45 -157 -45h-94v-157z" />
    <glyph glyph-name="germandbls" unicode="&#xdf;" 
d="M354 436l0.000976562 -1.99902c59.333 -15.333 89.666 -85.333 90.999 -210c0.666992 -62 -7 -113 -23 -153c-22 -57.333 -59.667 -86 -113 -86c-22 0 -46.333 5 -73 15v92c9.33301 -4 19 -6 29 -6c34 0.666992 50.667 34 50 100l-1 117
c-0.666992 49.333 -23.667 75 -69 77v95c24 2 39.333 6.33301 46 13c10 8.66699 15 27.667 15 57v61c0 41.333 -19.333 62 -58 62s-58 -38 -58 -114v-554h-130v533c0 67.333 8.33301 117.666 25 150.999c28.667 56 83.667 84 165 84c62 0 109.333 -20.333 142 -61
c27.333 -34 41 -76.667 41 -128c0 -79.333 -26.333 -127 -79 -143z" />
    <glyph glyph-name="agrave" unicode="&#xe0;" 
d="M440 0h-122.999c-7.33301 15.333 -10 34.666 -8 57.999h-2c-31.333 -48.667 -69.333 -73 -114 -73c-100.667 0 -151 56.333 -151 169c0 58 19.333 102.667 58 134c20 16 65 38.667 135 68c44.667 18.667 67 42.667 67 72c0 6.66699 -1 14 -3 22
c-4.66699 19.333 -25 29 -61 29c-26.667 0 -45.334 -7.33301 -56.001 -22c-8.66699 -12 -12.667 -32 -12 -60h-124c-0.666992 66 15.333 113.333 48 142c31.333 26.667 81 40 149 40c78 0 131 -18.667 159 -56c18 -24 27 -61 27 -111v-333
c0 -25.333 3.66699 -51.666 11 -78.999zM299.001 236v61.001c-31.333 -19.333 -66.333 -43.333 -105 -72c-14.667 -10.667 -22 -33.334 -22 -68.001c0 -48 20.333 -72 61 -72c33.333 0 54 18.333 62 55c2.66699 12.667 4 44.667 4 96zM75.001 769.001h132l71 -134h-67z" />
    <glyph glyph-name="aacute" unicode="&#xe1;" 
d="M440 0h-122.999c-7.33301 15.333 -10 34.666 -8 57.999h-2c-31.333 -48.667 -69.333 -73 -114 -73c-100.667 0 -151 56.333 -151 169c0 58 19.333 102.667 58 134c20 16 65 38.667 135 68c44.667 18.667 67 42.667 67 72c0 6.66699 -1 14 -3 22
c-4.66699 19.333 -25 29 -61 29c-26.667 0 -45.334 -7.33301 -56.001 -22c-8.66699 -12 -12.667 -32 -12 -60h-124c-0.666992 66 15.333 113.333 48 142c31.333 26.667 81 40 149 40c78 0 131 -18.667 159 -56c18 -24 27 -61 27 -111v-333
c0 -25.333 3.66699 -51.666 11 -78.999zM299.001 236v61.001c-31.333 -19.333 -66.333 -43.333 -105 -72c-14.667 -10.667 -22 -33.334 -22 -68.001c0 -48 20.333 -72 61 -72c33.333 0 54 18.333 62 55c2.66699 12.667 4 44.667 4 96zM209.001 635.001l71 134h132l-136 -134
h-67z" />
    <glyph glyph-name="acircumflex" unicode="&#xe2;" 
d="M440 0h-122.999c-7.33301 15.333 -10 34.666 -8 57.999h-2c-31.333 -48.667 -69.333 -73 -114 -73c-100.667 0 -151 56.333 -151 169c0 58 19.333 102.667 58 134c20 16 65 38.667 135 68c44.667 18.667 67 42.667 67 72c0 6.66699 -1 14 -3 22
c-4.66699 19.333 -25 29 -61 29c-26.667 0 -45.334 -7.33301 -56.001 -22c-8.66699 -12 -12.667 -32 -12 -60h-124c-0.666992 66 15.333 113.333 48 142c31.333 26.667 81 40 149 40c78 0 131 -18.667 159 -56c18 -24 27 -61 27 -111v-333
c0 -25.333 3.66699 -51.666 11 -78.999zM299.001 236v61.001c-31.333 -19.333 -66.333 -43.333 -105 -72c-14.667 -10.667 -22 -33.334 -22 -68.001c0 -48 20.333 -72 61 -72c33.333 0 54 18.333 62 55c2.66699 12.667 4 44.667 4 96zM193.001 724.001h102l92 -118h-92
l-51 67l-52 -67h-90z" />
    <glyph glyph-name="atilde" unicode="&#xe3;" 
d="M440 0h-122.999c-7.33301 15.333 -10 34.666 -8 57.999h-2c-31.333 -48.667 -69.333 -73 -114 -73c-100.667 0 -151 56.333 -151 169c0 58 19.333 102.667 58 134c20 16 65 38.667 135 68c44.667 18.667 67 42.667 67 72c0 6.66699 -1 14 -3 22
c-4.66699 19.333 -25 29 -61 29c-26.667 0 -45.334 -7.33301 -56.001 -22c-8.66699 -12 -12.667 -32 -12 -60h-124c-0.666992 66 15.333 113.333 48 142c31.333 26.667 81 40 149 40c78 0 131 -18.667 159 -56c18 -24 27 -61 27 -111v-333
c0 -25.333 3.66699 -51.666 11 -78.999zM299.001 236v61.001c-31.333 -19.333 -66.333 -43.333 -105 -72c-14.667 -10.667 -22 -33.334 -22 -68.001c0 -48 20.333 -72 61 -72c33.333 0 54 18.333 62 55c2.66699 12.667 4 44.667 4 96zM367.001 741.001h52
c-46 -66 -94.333 -99 -145 -99c-10 0 -29.667 5.66699 -59 17c-14 8 -26 12 -36 12c-13.333 0 -31.666 -11.667 -54.999 -35h-48c14.667 24.667 34.667 47 60 67c29.333 22.667 56.666 34 81.999 34c14.667 0 32 -4.66699 52 -14c10 -4.66699 23.333 -9.66699 40 -15
c21.333 -0.666992 40.333 10.333 57 33z" />
    <glyph glyph-name="adieresis" unicode="&#xe4;" 
d="M440 0l-122.999 -0.000976562c-7.33301 15.333 -10 34.666 -8 57.999h-2c-31.333 -48.667 -69.333 -73 -114 -73c-52 0 -90.167 13.667 -114.5 41s-36.5 70 -36.5 128c0 57.333 19.333 102 58 134c21.333 16.667 66.333 39.334 135 68.001c44.667 18.667 67 42.667 67 72
c0 6.66699 -1 14 -3 22c-4.66699 19.333 -25 29 -61 29c-27.333 0 -46 -7.33301 -56 -22c-8.66699 -12 -12.667 -32 -12 -60h-124c-0.666992 59.333 11.666 103 36.999 131c30.667 34 84 51 160 51c78.667 0 131.667 -18.667 159 -56c18 -23.333 27 -60.333 27 -111v-333
c0 -25.333 3.66699 -51.666 11 -78.999zM299.001 235.999v61c-24 -14.667 -59 -38.667 -105 -72c-14.667 -12 -22 -34.667 -22 -68c0 -48 20.333 -72 61 -72c33.333 0 54 18.333 62 55c2.66699 12.667 4 44.667 4 96zM216.001 643.999h-127v115h127v-115zM412.001 643.999
h-128v115h128v-115z" />
    <glyph glyph-name="aring" unicode="&#xe5;" 
d="M440 0l-122.999 -0.000976562c-7.33301 15.333 -10 34.666 -8 57.999h-2c-31.333 -48.667 -69.333 -73 -114 -73c-52 0 -90.167 13.667 -114.5 41s-36.5 70 -36.5 128c0 57.333 19.333 102 58 134c21.333 16.667 66.333 39.334 135 68.001c44.667 18.667 67 42.667 67 72
c0 6.66699 -1 14 -3 22c-4.66699 19.333 -25 29 -61 29c-27.333 0 -46 -7.33301 -56 -22c-8.66699 -12 -12.667 -32 -12 -60h-124c-0.666992 59.333 11.666 103 36.999 131c30.667 34 84 51 160 51c78.667 0 131.667 -18.667 159 -56c18 -23.333 27 -60.333 27 -111v-333
c0 -25.333 3.66699 -51.666 11 -78.999zM299.001 235.999v61c-24 -14.667 -59 -38.667 -105 -72c-14.667 -12 -22 -34.667 -22 -68c0 -48 20.333 -72 61 -72c33.333 0 54 18.333 62 55c2.66699 12.667 4 44.667 4 96zM251.001 631.999c-29.333 0 -54.5 10.5 -75.5 31.5
s-31.5 45.833 -31.5 74.5c0 29.333 10.667 54.5 32 75.5s46.333 31.5 75 31.5c29.333 0 54.333 -10.5 75 -31.5s31 -46.167 31 -75.5s-10.333 -54.333 -31 -75s-45.667 -31 -75 -31zM251.001 795.999c-16 0 -29.667 -5.66895 -41 -17.002s-17 -25 -17 -41
c0 -15.333 5.83301 -28.666 17.5 -39.999s25.167 -17 40.5 -17s28.833 5.83301 40.5 17.5s17.5 24.834 17.5 39.501c0 15.333 -5.83301 28.833 -17.5 40.5s-25.167 17.5 -40.5 17.5z" />
    <glyph glyph-name="ae" unicode="&#xe6;" horiz-adv-x="722" 
d="M176 400h-129.999c-0.666992 27.333 3.66602 56.333 12.999 87c19.333 61.333 81 92 185 92c50.667 0 94 -12 130 -36c30 24 69 36 117 36c120 0 180 -58.333 180 -175v-145h-245v-50c0 -40 1.66699 -66.667 5 -80c8 -29.333 26.333 -44 55 -44
c33.333 0 51.666 18 54.999 54v53h131c4 -138 -58 -207 -186 -207c-58.667 0 -104 19.667 -136 59c-25.333 -39.333 -69 -59 -131 -59c-58 0 -101 11.333 -129 34c-30.667 25.333 -46 66.666 -46 123.999c0 46 7.16699 80.833 21.5 104.5s41.833 46.834 82.5 69.501l105 48
c31.333 16 47 37.667 47 65c0 32.667 -20 49 -60 49c-27.333 0 -45.333 -7 -54 -21c-5.33301 -10 -8.66602 -29.333 -9.99902 -58zM296.001 182v114l-81 -52c-27.333 -21.333 -41 -49.333 -41 -84c0 -50 17.333 -75 52 -75c46.667 0 70 32.333 70 97zM426.001 359h115v56
c0 42.667 -19 64 -57 64c-34 0 -53.333 -21.333 -58 -64v-56z" />
    <glyph glyph-name="ccedilla" unicode="&#xe7;" horiz-adv-x="444" 
d="M402 368h-130v63c0 32 -15 48 -45 48c-22.667 0 -37 -12.333 -43 -37c-4 -14.667 -6 -44.334 -6 -89.001v-133c0 -45.333 0.666992 -72.333 2 -81c6 -32.667 21.667 -50.667 47 -54c18 0.666992 30 9 36 25c3.33301 8.66699 6.33301 28 9 58v52h130v-52
c0 -122 -59.333 -183 -178 -183c-117.333 0 -176 70.333 -176 211v183c0 133.333 58.667 200 176 200c60.667 0 106.667 -17 138 -51c26.667 -29.333 40 -67.666 40 -114.999v-45zM95 -203l19 42c34 -10.667 62.667 -16 86 -16c12 0 22.833 4.66699 32.5 14s13.5 20 11.5 32
c-3.33301 12.667 -10 20.667 -20 24c-15.333 8 -37 7 -65 -3l-21 20l59 90h53l-42 -63c10 4 21 6 33 6c29.333 0 52 -8 68 -24c14.667 -11.333 22 -29 22 -53c0 -14 -4.33301 -29.333 -13 -46c-25.333 -32.667 -63 -49 -113 -49c-19.333 0 -56 8.66699 -110 26z" />
    <glyph glyph-name="egrave" unicode="&#xe8;" 
d="M52 222v148.001c0 139.333 63.333 209 190 209c83.333 0 139.333 -22 168 -66c21.333 -32.667 32 -93.334 32 -182.001v-76h-260v-82c0 -58.667 22.667 -88 68 -88c42.667 0 62.667 35.333 60 106h130c5.33301 -137.333 -54.667 -206 -180 -206
c-77.333 0 -132.333 20.667 -165 62c-28.667 36.667 -43 95 -43 175zM182 355.001l130 0.000976562v49c0 27.333 -4.66699 46.666 -14 57.999s-27.333 17 -54 17c-28.667 0 -47 -10.333 -55 -31c-4.66699 -12 -7 -35.333 -7 -70v-23zM73 769.002h132l71 -134h-67z" />
    <glyph glyph-name="eacute" unicode="&#xe9;" 
d="M52 222v148.001c0 139.333 63.333 209 190 209c83.333 0 139.333 -22 168 -66c21.333 -32.667 32 -93.334 32 -182.001v-76h-260v-82c0 -58.667 22.667 -88 68 -88c42.667 0 62.667 35.333 60 106h130c5.33301 -137.333 -54.667 -206 -180 -206
c-77.333 0 -132.333 20.667 -165 62c-28.667 36.667 -43 95 -43 175zM182 355.001l130 0.000976562v49c0 27.333 -4.66699 46.666 -14 57.999s-27.333 17 -54 17c-28.667 0 -47 -10.333 -55 -31c-4.66699 -12 -7 -35.333 -7 -70v-23zM207 635.002l71 134h132l-136 -134h-67z
" />
    <glyph glyph-name="ecircumflex" unicode="&#xea;" 
d="M52 222v148.001c0 139.333 63.333 209 190 209c83.333 0 139.333 -22 168 -66c21.333 -32.667 32 -93.334 32 -182.001v-76h-260v-82c0 -58.667 22.667 -88 68 -88c42.667 0 62.667 35.333 60 106h130c5.33301 -137.333 -54.667 -206 -180 -206
c-77.333 0 -132.333 20.667 -165 62c-28.667 36.667 -43 95 -43 175zM182 355.001l130 0.000976562v49c0 27.333 -4.66699 46.666 -14 57.999s-27.333 17 -54 17c-28.667 0 -47 -10.333 -55 -31c-4.66699 -12 -7 -35.333 -7 -70v-23zM191 724.002h102l92 -118h-92l-51 67
l-52 -67h-90z" />
    <glyph glyph-name="edieresis" unicode="&#xeb;" 
d="M52 222v148.001c0 139.333 63.333 209 190 209c83.333 0 139.333 -22 168 -66c21.333 -33.333 32 -94 32 -182v-76h-260v-82c0 -58.667 22.667 -88 68 -88c23.333 0 39.5 8.5 48.5 25.5s12.833 43.833 11.5 80.5h130c5.33301 -137.333 -54.667 -206 -180 -206
c-74.667 0 -128 18.667 -160 56s-48 97.666 -48 180.999zM182 355.001l130 -0.00195312v49c0 28.667 -4.83301 48.334 -14.5 59.001s-27.5 16 -53.5 16c-28.667 0 -47 -10.333 -55 -31c-4.66699 -11.333 -7 -34.666 -7 -69.999v-23zM216 643.999h-127v115h127v-115z
M412 643.999h-128v115h128v-115z" />
    <glyph glyph-name="igrave" unicode="&#xec;" horiz-adv-x="278" 
d="M204 0h-130v564h130v-564zM-31 754h132l71 -134h-67z" />
    <glyph glyph-name="iacute" unicode="&#xed;" horiz-adv-x="278" 
d="M204 0h-130v564h130v-564zM104 620l71 134h132l-136 -134h-67z" />
    <glyph glyph-name="icircumflex" unicode="&#xee;" horiz-adv-x="278" 
d="M204 0h-130v564h130v-564zM66 770h125l115 -146h-114l-63 82l-64 -82h-112z" />
    <glyph glyph-name="idieresis" unicode="&#xef;" horiz-adv-x="278" 
d="M204 0h-130v564h130v-564zM105 644h-127v115h127v-115zM301 644h-128v115h128v-115z" />
    <glyph glyph-name="eth" unicode="&#xf0;" 
d="M176 372l0.000976562 -188c0 -38 3.66699 -63 11 -75c9.33301 -16 28.666 -24 57.999 -24c28 0 46.333 8 55 24c6.66699 12 10 37 10 75v188c0 35.333 -2.66699 59.666 -8 72.999c-9.33301 22.667 -28.333 34 -57 34c-30.667 0 -50.667 -11.333 -60 -34
c-6 -13.333 -9 -37.666 -9 -72.999zM336.001 776l43.998 -46.001l-40 -28c34.667 -24.667 60 -67 76 -127c19.333 -71.333 28.333 -176 27 -314c-0.666992 -103.333 -13 -173.666 -37 -210.999c-27.333 -43.333 -81 -65 -161 -65c-82 0 -136.667 21.667 -164 65
c-24 37.333 -35.667 108 -35 212c0.666992 116.667 9.33398 193.667 26.001 231c26.667 57.333 84.334 86 173.001 86c21.333 0 38.666 -1.33301 51.999 -4c-10.667 32 -26.667 53.333 -48 64l-65 -45l-44 46l28 20c-20 4 -47.667 7 -83 9v80
c80.667 -1.33301 142.334 -7.33301 185.001 -18z" />
    <glyph glyph-name="ntilde" unicode="&#xf1;" 
d="M191 564v-58h2c22 48.667 61 73 117 73c39.333 0 70.333 -11.333 93 -34c24.667 -25.333 37 -62 37 -110v-435h-130v376c0 31.333 -3 53.333 -9 66c-8 17.333 -23.333 26.333 -46 27c-42.667 2 -64 -32.667 -64 -104v-365h-130v564h130zM369 744l65 0.000976562
c-14.667 -80.667 -53.667 -121 -117 -121c-16 0 -45.333 7.33301 -88 22c-24.667 8.66699 -42 13 -52 13c-8 0 -15.167 -1.83301 -21.5 -5.5s-14.833 -15.834 -25.5 -36.501h-62c2.66699 38 17 69 43 93c22 20 45.667 30 71 30c18.667 0 44.5 -6.16699 77.5 -18.5
s52.833 -18.5 59.5 -18.5c26 0 42.667 14 50 42z" />
    <glyph glyph-name="ograve" unicode="&#xf2;" 
d="M183 372l0.000976562 -187.999c0 -38 3.66699 -63 11 -75c9.33301 -16 28.666 -24 57.999 -24c28 0 46.333 8 55 24c6.66699 12 10 37 10 75v188c0 35.333 -2.66699 59.666 -8 72.999c-9.33301 22.667 -28.333 34 -57 34c-30.667 0 -50.667 -11.333 -60 -34
c-6 -14 -9 -38.333 -9 -73zM252.001 -14.999c-82 0 -136.669 21.667 -164.002 65c-24 37.333 -35.667 108 -35 212c0.666992 118 9.33398 195 26.001 231c26 57.333 83.667 86 173 86c88 0 144.667 -28.667 170 -86c16 -36 24.333 -113 25 -231
c0.666992 -104 -10.666 -174.667 -33.999 -212c-27.333 -43.333 -81 -65 -161 -65zM82.999 769.001h132l71 -134h-67z" />
    <glyph glyph-name="oacute" unicode="&#xf3;" 
d="M183 372l0.000976562 -187.999c0 -38 3.66699 -63 11 -75c9.33301 -16 28.666 -24 57.999 -24c28 0 46.333 8 55 24c6.66699 12 10 37 10 75v188c0 35.333 -2.66699 59.666 -8 72.999c-9.33301 22.667 -28.333 34 -57 34c-30.667 0 -50.667 -11.333 -60 -34
c-6 -14 -9 -38.333 -9 -73zM252.001 -14.999c-82 0 -136.669 21.667 -164.002 65c-24 37.333 -35.667 108 -35 212c0.666992 118 9.33398 195 26.001 231c26 57.333 83.667 86 173 86c88 0 144.667 -28.667 170 -86c16 -36 24.333 -113 25 -231
c0.666992 -104 -10.666 -174.667 -33.999 -212c-27.333 -43.333 -81 -65 -161 -65zM216.999 635.001l71 134h132l-136 -134h-67z" />
    <glyph glyph-name="ocircumflex" unicode="&#xf4;" 
d="M183 372l0.000976562 -187.999c0 -38 3.66699 -63 11 -75c9.33301 -16 28.666 -24 57.999 -24c28 0 46.333 8 55 24c6.66699 12 10 37 10 75v188c0 35.333 -2.66699 59.666 -8 72.999c-9.33301 22.667 -28.333 34 -57 34c-30.667 0 -50.667 -11.333 -60 -34
c-6 -14 -9 -38.333 -9 -73zM252.001 -14.999c-82 0 -136.669 21.667 -164.002 65c-24 37.333 -35.667 108 -35 212c0.666992 118 9.33398 195 26.001 231c26 57.333 83.667 86 173 86c88 0 144.667 -28.667 170 -86c16 -36 24.333 -113 25 -231
c0.666992 -104 -10.666 -174.667 -33.999 -212c-27.333 -43.333 -81 -65 -161 -65zM200.999 724.001h102l92 -118h-92l-51 67l-52 -67h-90z" />
    <glyph glyph-name="otilde" unicode="&#xf5;" 
d="M183 372l0.000976562 -187.999c0 -38 3.66699 -63 11 -75c9.33301 -16 28.666 -24 57.999 -24c28 0 46.333 8 55 24c6.66699 12 10 37 10 75v188c0 35.333 -2.66699 59.666 -8 72.999c-9.33301 22.667 -28.333 34 -57 34c-30.667 0 -50.667 -11.333 -60 -34
c-6 -14 -9 -38.333 -9 -73zM252.001 -14.999c-82 0 -136.669 21.667 -164.002 65c-24 37.333 -35.667 108 -35 212c0.666992 118 9.33398 195 26.001 231c26 57.333 83.667 86 173 86c88 0 144.667 -28.667 170 -86c16 -36 24.333 -113 25 -231
c0.666992 -104 -10.666 -174.667 -33.999 -212c-27.333 -43.333 -81 -65 -161 -65zM375.999 740.001h52c-46 -66 -94.333 -99 -145 -99c-10 0 -29.667 5.66699 -59 17c-14 8 -26 12 -36 12c-13.333 0 -31.666 -11.667 -54.999 -35h-48c14.667 24.667 34.667 47 60 67
c29.333 22.667 56.666 34 81.999 34c14.667 0 32 -4.66699 52 -14c10 -4.66699 23.333 -9.66699 40 -15c21.333 -0.666992 40.333 10.333 57 33z" />
    <glyph glyph-name="odieresis" unicode="&#xf6;" 
d="M183 372l0.000976562 -188c0 -38 3.66699 -63 11 -75c9.33301 -16 28.666 -24 57.999 -24c28 0 46.333 8 55 24c6.66699 12 10 37 10 75v188c0 35.333 -2.66699 59.666 -8 72.999c-9.33301 22.667 -28.333 34 -57 34c-30.667 0 -50.667 -11.333 -60 -34
c-6 -13.333 -9 -37.666 -9 -72.999zM252.001 -15c-82 0 -136.67 21.667 -164.003 65c-24 37.333 -35.667 108 -35 212c0.666992 116.667 9.33398 193.667 26.001 231c26.667 57.333 84.334 86 173.001 86c87.333 0 144 -28.667 170 -86c16 -36.667 24.333 -113.667 25 -231
c0.666992 -104 -10.666 -174.667 -33.999 -212c-27.333 -43.333 -81 -65 -161 -65zM215.998 644h-127v115h127v-115zM411.998 644h-128v115h128v-115z" />
    <glyph glyph-name="divide" unicode="&#xf7;" 
d="M26 194v110h449v-110h-449zM313 377h-127v115h127v-115zM313 6h-127v115h127v-115z" />
    <glyph glyph-name="oslash" unicode="&#xf8;" 
d="M317 338l-132 -195.999c2 -20.667 7.83301 -35.334 17.5 -44.001s26.167 -13 49.5 -13c28 0 46.333 8 55 24c6.66699 12 10 37 10 75v154zM390 539.001l53 77.998l49 -35l-66 -99c14 -35.333 21 -109 21 -221c0 -105.333 -11.333 -176.333 -34 -213
c-26.667 -43.333 -80 -64.666 -160 -63.999c-64.667 0.666992 -111 12.334 -139 35.001l-54 -78l-53 34l69 99c-16 40 -23.667 102.333 -23 187c0.666992 116.667 9.66699 193.667 27 231c26 57.333 83.333 86 172 86c62 0 108 -13.333 138 -40zM183 218.999l132 194.999
c-3.33301 43.333 -24.333 65 -63 65c-30.667 0 -50.667 -11.333 -60 -34c-6 -13.333 -9 -37.666 -9 -72.999v-153z" />
    <glyph glyph-name="ugrave" unicode="&#xf9;" 
d="M307 0l-0.000976562 84h-2c-19.333 -65.333 -59.666 -98.333 -120.999 -99c-48.667 0 -82.667 12.667 -102 38c-16 22 -24 58.333 -24 109v432h130v-386c0 -36.667 4.33301 -61.667 13 -75c11.333 -12 24.666 -18 39.999 -18c26.667 0 44.334 13.333 53.001 40
c4.66699 14.667 7 39 7 73v366h130v-564h-124zM74.999 754h132l71 -134h-67z" />
    <glyph glyph-name="uacute" unicode="&#xfa;" 
d="M307 0l-0.000976562 84h-2c-19.333 -65.333 -59.666 -98.333 -120.999 -99c-48.667 0 -82.667 12.667 -102 38c-16 22 -24 58.333 -24 109v432h130v-386c0 -36.667 4.33301 -61.667 13 -75c11.333 -12 24.666 -18 39.999 -18c26.667 0 44.334 13.333 53.001 40
c4.66699 14.667 7 39 7 73v366h130v-564h-124zM208.999 620l71 134h132l-136 -134h-67z" />
    <glyph glyph-name="ucircumflex" unicode="&#xfb;" 
d="M307 0l-0.000976562 84h-2c-19.333 -65.333 -59.666 -98.333 -120.999 -99c-48.667 0 -82.667 12.667 -102 38c-16 22 -24 58.333 -24 109v432h130v-386c0 -36.667 4.33301 -61.667 13 -75c11.333 -12 24.666 -18 39.999 -18c26.667 0 44.334 13.333 53.001 40
c4.66699 14.667 7 39 7 73v366h130v-564h-124zM186.999 780h125l115 -146h-114l-63 82l-64 -82h-112z" />
    <glyph glyph-name="udieresis" unicode="&#xfc;" 
d="M307 0l-0.000976562 84h-2c-19.333 -65.333 -59.666 -98.333 -120.999 -99c-48.667 0 -82.667 12.667 -102 38c-16 22 -24 58.333 -24 109v432h130v-386c0 -36.667 4.33301 -61.667 13 -75c11.333 -12 24.666 -18 39.999 -18c26.667 0 44.334 13.333 53.001 40
c4.66699 14.667 7 39 7 73v366h130v-564h-124zM215.999 644h-127v115h127v-115zM411.999 644h-128v115h128v-115z" />
    <glyph glyph-name="yacute" unicode="&#xfd;" horiz-adv-x="444" 
d="M5 564l137.001 -0.000976562l57 -299c5.33301 -26.667 11.666 -76.667 18.999 -150h2c4 48.667 10.667 97.334 20 146.001l57 303h132l-137 -572c-18 -74 -32 -119.333 -42 -136c-21.333 -34 -59 -51 -113 -51c-18 0 -38.333 1.66699 -61 5v101
c4 0 9.66699 -0.333008 17 -1s13 -1 17 -1c28.667 0 43 9 43 27c0 15.333 -4 39.333 -12 72zM187.001 619.999l71 134h132l-136 -134h-67z" />
    <glyph glyph-name="thorn" unicode="&#xfe;" 
d="M188 354l-0.000976562 -169c0 -66.667 21 -100 63 -100c38 0 57 32.333 57 97v188c0 38 -2.33301 63.333 -7 76c-7.33301 22 -24.666 33 -51.999 33c-40.667 0 -61 -41.667 -61 -125zM437.999 377l0.000976562 -204c0 -127.333 -45 -190 -135 -188
c-52.667 0.666992 -92.334 25 -119.001 73h-2v-247h-124v939h130v-245h2c22 50.667 59.667 75.334 113 74.001c44.667 -0.666992 77.667 -15.334 99 -44.001c24 -31.333 36 -84 36 -158z" />
    <glyph glyph-name="ydieresis" unicode="&#xff;" horiz-adv-x="444" 
d="M5 564l137.001 -0.00195312l57 -299c5.33301 -29.333 11.666 -79.333 18.999 -150h2c4 46.667 10.667 95.334 20 146.001l57 303h132l-137 -572c-17.333 -73.333 -31.333 -118.666 -42 -135.999c-21.333 -34 -59 -51 -113 -51c-18 0 -38.333 1.66699 -61 5v101
c2 0 7 -0.333008 15 -1s14.333 -1 19 -1c28.667 0 43 9 43 27c0 15.333 -4 39.333 -12 72zM188.001 643.998h-127v115h127v-115zM384.001 643.998h-128v115h128v-115z" />
    <glyph glyph-name="glyph271" unicode="&#x102;" horiz-adv-x="556" 
d="M159 0h-150l179 750h189l170 -750h-150l-37 190h-164zM260 513l-41.999 -213.001h120l-38 213c-6.66699 37.333 -11.334 72 -14.001 104c-1.33301 18.667 -3 35.334 -5 50.001h-2c-2 -28.667 -8.33301 -80 -19 -154zM364.001 901.999h52.999
c-11.333 -78 -56.666 -117 -135.999 -117c-39.333 0 -71.333 9.33301 -96 28c-28 21.333 -41.333 51 -40 89h52c5.33301 -38 32 -57 80 -57c52 0 81 19 87 57z" />
    <glyph glyph-name="glyph272" unicode="&#x103;" 
d="M440 0h-122.999c-7.33301 15.333 -10 34.666 -8 57.999h-2c-31.333 -48.667 -69.333 -73 -114 -73c-100.667 0 -151 56.333 -151 169c0 58 19.333 102.667 58 134c20 16 65 38.667 135 68c44.667 18.667 67 42.667 67 72c0 6.66699 -1 14 -3 22
c-4.66699 19.333 -25 29 -61 29c-26.667 0 -45.334 -7.33301 -56.001 -22c-8.66699 -12 -12.667 -32 -12 -60h-124c-0.666992 66 15.333 113.333 48 142c31.333 26.667 81 40 149 40c78 0 131 -18.667 159 -56c18 -24 27 -61 27 -111v-333
c0 -25.333 3.66699 -51.666 11 -78.999zM299.001 236v61.001c-31.333 -19.333 -66.333 -43.333 -105 -72c-14.667 -10.667 -22 -33.334 -22 -68.001c0 -48 20.333 -72 61 -72c33.333 0 54 18.333 62 55c2.66699 12.667 4 44.667 4 96zM323.001 732.001h50.001
c-10 -74 -53 -111 -129 -111c-37.333 0 -67.666 9 -90.999 27c-26.667 20 -39.334 48 -38.001 84h49c5.33301 -36 30.666 -54 75.999 -54c49.333 0 77 18 83 54z" />
    <glyph glyph-name="Cacute" unicode="&#x106;" horiz-adv-x="711" 
d="M371 267l141.002 0.00195312l-3 -43c-4 -76 -20.333 -133.333 -49 -172c-34 -46.667 -87.333 -70 -160 -70c-104.667 0 -174.334 32.667 -209.001 98c-24 46 -36 128.667 -36 248v107c0 113.333 13 193 39 239c35.333 63.333 104 94.666 206 93.999
c126 -0.666992 194.333 -65.334 205 -194.001c2.66699 -30 3.66699 -49 3 -57h-138c-6.66699 56 -10.334 85 -11.001 87c-10 34 -29.667 51 -59 51c-47.333 0 -78 -24.333 -92 -73c-6 -21.333 -9 -60 -9 -116v-208c0 -108.667 33.667 -163 101 -163
c32.667 0 53.667 22.667 63 68c1.33301 6 4 40.667 8 104zM260.002 884.002l94 146h155l-148 -146h-101z" />
    <glyph glyph-name="cacute" unicode="&#x107;" horiz-adv-x="441" 
d="M402 368h-130v63c0 32 -15 48 -45 48c-22.667 0 -37 -12.333 -43 -37c-4 -14.667 -6 -44.334 -6 -89.001v-133c0 -45.333 0.666992 -72.333 2 -81c6 -32.667 21.667 -50.667 47 -54c18 0.666992 30 9 36 25c3.33301 8.66699 6.33301 28 9 58v52h130v-52
c0 -122 -59.333 -183 -178 -183c-117.333 0 -176 70.333 -176 211v183c0 133.333 58.667 200 176 200c60.667 0 106.667 -17 138 -51c26.667 -29.333 40 -67.666 40 -114.999v-45zM61 629l94 146h155l-148 -146h-101z" />
    <glyph glyph-name="Ccaron" unicode="&#x10c;" horiz-adv-x="711" 
d="M371 267l141.002 0.00195312l-3 -43c-4 -76 -20.333 -133.333 -49 -172c-34 -46.667 -87.333 -70 -160 -70c-104.667 0 -174.334 32.667 -209.001 98c-24 46 -36 128.667 -36 248v107c0 113.333 13 193 39 239c35.333 63.333 104 94.666 206 93.999
c126 -0.666992 194.333 -65.334 205 -194.001c2.66699 -30 3.66699 -49 3 -57h-138c-6.66699 56 -10.334 85 -11.001 87c-10 34 -29.667 51 -59 51c-47.333 0 -78 -24.333 -92 -73c-6 -21.333 -9 -60 -9 -116v-208c0 -108.667 33.667 -163 101 -163
c32.667 0 53.667 22.667 63 68c1.33301 6 4 40.667 8 104zM520.002 1035l-115 -146h-125l-113 146h112l64 -82l63 82h114z" />
    <glyph glyph-name="ccaron" unicode="&#x10d;" horiz-adv-x="441" 
d="M402 368h-130v63c0 32 -15 48 -45 48c-22.667 0 -37 -12.333 -43 -37c-4 -14.667 -6 -44.334 -6 -89.001v-133c0 -45.333 0.666992 -72.333 2 -81c6 -32.667 21.667 -50.667 47 -54c18 0.666992 30 9 36 25c3.33301 8.66699 6.33301 28 9 58v52h130v-52
c0 -122 -59.333 -183 -178 -183c-117.333 0 -176 70.333 -176 211v183c0 133.333 58.667 200 176 200c60.667 0 106.667 -17 138 -51c26.667 -29.333 40 -67.666 40 -114.999v-45zM321 780l-115 -146h-125l-113 146h112l64 -82l63 82h114z" />
    <glyph glyph-name="Dslash" unicode="&#x110;" horiz-adv-x="611" 
d="M72 426l0.00195312 323.999h292c39.333 0 74 -12.5 104 -37.5s50.667 -57.167 62 -96.5c13.333 -45.333 20 -115.333 20 -210c0 -104 -4.66699 -178.333 -14 -223c-16.667 -79.333 -50.334 -133.666 -101.001 -162.999c-22.667 -13.333 -57.334 -20 -104.001 -20h-259
v331h-78v95h78zM212.002 639.999l-0.000976562 -213.999h68v-95h-68v-221h61c59.333 0 97 20 113 60c13.333 33.333 20 107.666 20 222.999c0 76.667 -2.66699 127.667 -8 153c-13.333 62.667 -44.666 94 -93.999 94h-92z" />
    <glyph glyph-name="dcroat" unicode="&#x111;" 
d="M303 185l-0.000976562 168.999c0 83.333 -20.333 125 -61 125c-27.333 0 -44.666 -11 -51.999 -33c-4.66699 -13.333 -7 -38.666 -7 -75.999v-188c0 -64.667 19 -97 57 -97c42 0 63 33.333 63 100zM302.999 620.999l-114.001 -0.000976562v58h114v71h130v-71h47v-58h-47
v-621h-130v60h-2c-21.333 -49.333 -58.666 -74.333 -111.999 -75c-90.667 -2 -136 61.333 -136 190v204c0 60.667 7.66699 106.334 23 137.001c21.333 40.667 59 61.667 113 63c53.333 1.33301 92 -22.667 116 -72h2c-2.66699 15.333 -4 32 -4 50v64z" />
    <glyph glyph-name="Gbreve" unicode="&#x11e;" horiz-adv-x="767" 
d="M55 328l0.000976562 107.001c0 113.333 13 192.666 39 237.999c34.667 63.333 103.334 95 206.001 95c64.667 0 115 -10.667 151 -32c41.333 -25.333 69.333 -68.666 84 -129.999c3.33301 -12.667 5.66602 -43 6.99902 -91h-140c-1.33301 47.333 -6.66602 80 -15.999 98
c-14.667 27.333 -43.334 41.333 -86.001 42c-47.333 0.666992 -78 -23.333 -92 -72c-6 -21.333 -9 -60.333 -9 -117v-208c0 -108.667 33.667 -163 101 -163c72 0 106.333 66 103 198h-97v110h233v-403h-105v86h-2c-24.667 -68.667 -68.667 -103.334 -132 -104.001
c-104.667 -1.33301 -174.334 31 -209.001 97c-24 46 -36 129 -36 249zM466.001 1035h64.998c-6 -46.667 -23.667 -82.5 -53 -107.5s-67.666 -37.5 -114.999 -37.5c-52.667 0 -94.167 13.5 -124.5 40.5s-44.833 61.833 -43.5 104.5h65c4.66699 -46.667 37.334 -70 98.001 -70
c65.333 0 101.333 23.333 108 70z" />
    <glyph glyph-name="gbreve" unicode="&#x11f;" horiz-adv-x="492" 
d="M303 354c0 83.333 -20.334 125 -61.001 125c-27.333 0 -44.666 -11 -51.999 -33c-4.66699 -12.667 -7 -38 -7 -76v-188c0 -64.667 19 -97 57 -97c42 0 63 33.333 63 100v169zM58.999 -63h130c0 -22 18.333 -33 55 -33c43.333 0 65 29.333 65 88v65l-2 2
c-23.333 -48 -63 -72.667 -119 -74c-90 -1.33301 -135 61.667 -135 189v204c0 74 12 126.667 36 158c21.333 28 54.333 42.333 99 43c58 1.33301 95.667 -23 113 -73h2v58h130v-547c0 -66 -12.667 -115 -38 -147c-32.667 -40 -90 -60 -172 -60
c-103.333 0 -158 42.333 -164 127zM265.999 780h64.998c-6 -46.667 -23.667 -82.5 -53 -107.5s-67.666 -37.5 -114.999 -37.5c-52.667 0 -94.167 13.5 -124.5 40.5s-44.833 61.833 -43.5 104.5h65c4.66699 -46.667 37.334 -70 98.001 -70c65.333 0 101.333 23.333 108 70z
" />
    <glyph glyph-name="glyph273" unicode="&#x128;" horiz-adv-x="278" 
d="M209 0h-140v750h140v-750zM271 912l54.001 -0.000976562c-48.667 -69.333 -99.334 -104 -152.001 -104c-8.66699 0 -29.667 6 -63 18c-14 8 -26.333 12 -37 12c-14.667 0 -34 -12 -58 -36h-51c15.333 26.667 36.333 50.334 63 71.001c30.667 23.333 59.667 35 87 35
c15.333 0 33.333 -5 54 -15c12 -6 26.333 -11.333 43 -16c22 -0.666992 42 11 60 35z" />
    <glyph glyph-name="glyph274" unicode="&#x129;" horiz-adv-x="278" 
d="M204 0h-130v564h130v-564zM262 726h52c-46 -66 -94.333 -99 -145 -99c-10 0 -29.667 5.66699 -59 17c-14 8 -26 12 -36 12c-13.333 0 -31.666 -11.667 -54.999 -35h-48c14.667 24.667 34.667 47 60 67c29.333 22.667 56.666 34 81.999 34c14.667 0 32 -4.66699 52 -14
c10 -4.66699 23.333 -9.66699 40 -15c21.333 -0.666992 40.333 10.333 57 33z" />
    <glyph glyph-name="Idotaccent" unicode="&#x130;" horiz-adv-x="429" 
d="M209 0h-140v750h140v-750zM257 899h-127v115h127v-115z" />
    <glyph glyph-name="dotlessi" unicode="&#x131;" horiz-adv-x="278" 
d="M204 0h-130v564h130v-564z" />
    <glyph glyph-name="Lslash" unicode="&#x141;" 
d="M474 0h-400v290l-74 -59v127l74 59v333h140v-226l103 88v-128l-103 -88v-286h260v-110z" />
    <glyph glyph-name="lslash" unicode="&#x142;" horiz-adv-x="278" 
d="M74 0v362l-72 -50v95l72 51v292h130v-238l68 48v-96l-68 -48v-416h-130z" />
    <glyph glyph-name="OE" unicode="&#x152;" horiz-adv-x="833" 
d="M404 226l-0.000976562 308.999c0 84.667 -32.333 124.667 -97 120c-51.333 -3.33301 -84 -42 -98 -116c-5.33301 -28 -8 -84 -8 -168c0 -83.333 2.66699 -138.666 8 -165.999c13.333 -73.333 45 -110 95 -110c40.667 0 68.334 12.667 83.001 38
c11.333 18.667 17 49.667 17 93zM543.999 109.999h246.999v-110h-379v73h-2c-16 -27.333 -39 -50 -69 -68c-24.667 -15.333 -45.334 -23 -62.001 -23c-72.667 0 -127 26.667 -163 80c-27.333 41.333 -44.666 101.333 -51.999 180c-2 24 -3.33301 88.333 -4 193
c-0.666992 90 13 163.667 41 221c36.667 74.667 95.334 112 176.001 112c64 0 109 -25.667 135 -77h2v2l2 -2v59h375v-110h-247v-190h229v-110h-229v-230z" />
    <glyph glyph-name="oe" unicode="&#x153;" horiz-adv-x="722" 
d="M429 358h119v35c0 30.667 -4.5 52.667 -13.5 66s-24.833 20 -47.5 20c-25.333 0 -42 -11.667 -50 -35c-5.33301 -14 -8 -36 -8 -66v-20zM678 363l-0.000976562 -104.997h-247v-58c0 -45.333 4 -75.833 12 -91.5s22.333 -23.5 43 -23.5c41.333 0 62 21.667 62 65v42h130
c0.666992 -74 -14.333 -127 -45 -159s-83.334 -48 -158.001 -48c-45.333 0 -82 17.667 -110 53c-32.667 -34.667 -72.667 -52.334 -120 -53.001c-81.333 -1.33301 -136 20 -164 64c-24 38 -35.667 109 -35 213c0.666992 117.333 9.33398 194.666 26.001 231.999
c26.667 58 84.334 86.333 173.001 85c43.333 -0.666992 83.333 -19.667 120 -57c26.667 38 72.667 57 138 57c60 0 102.333 -17.333 127 -52c32 -44.667 48 -99.334 48 -164.001zM175.999 372.003l0.000976562 -157c0 -54.667 5 -91 15 -109
c7.33301 -14 22.666 -21 45.999 -21s39.333 8 48 24c10.667 20 16 58 16 114v165c0 34 -4.5 57.667 -13.5 71s-25.833 20 -50.5 20c-22.667 0 -38.5 -8.16699 -47.5 -24.5s-13.5 -43.833 -13.5 -82.5z" />
    <glyph glyph-name="Scedilla" unicode="&#x15e;" horiz-adv-x="656" 
d="M489 522l-135 -0.00390625c0.666992 40.667 -3 70.334 -11 89.001c-12 29.333 -35.667 44 -71 44c-51.333 0 -77 -23.333 -77 -70c0 -25.333 7.66699 -46.666 23 -63.999c10 -10.667 29 -25 57 -43c83.333 -52.667 140 -93.667 170 -123
c42 -41.333 63 -93.666 63 -156.999c0 -69.333 -20.833 -122.666 -62.5 -159.999s-97.834 -56 -168.501 -56c-152 0 -228 76 -228 228v55h140v-44c0 -84 29.333 -126 88 -126c58 0 87 29.333 87 88c0 38 -18.667 71 -56 99l-117 79c-46.667 32 -81.667 63.833 -105 95.5
s-35 69.5 -35 113.5c0 132 73.333 198 220 198c96 0 160 -31.667 192 -95c16.667 -32 25.334 -82.333 26.001 -151zM78 -203.004l19 42c34 -10.667 62.667 -16 86 -16c12 0 22.833 4.66699 32.5 14s13.5 20 11.5 32c-3.33301 12.667 -10 20.667 -20 24
c-15.333 8 -37 7 -65 -3l-21 20l59 90h53l-42 -63c10 4 21 6 33 6c29.333 0 52 -8 68 -24c14.667 -11.333 22 -29 22 -53c0 -14 -4.33301 -29.333 -13 -46c-25.333 -32.667 -63 -49 -113 -49c-19.333 0 -56 8.66699 -110 26z" />
    <glyph glyph-name="scedilla" unicode="&#x15f;" horiz-adv-x="383" 
d="M28 186h130.002c-1.33301 -10.667 -2 -20.667 -2 -30c0 -32 7 -53 21 -63c7.33301 -5.33301 21 -8 41 -8c16 0 29.333 4.66699 40 14s16 21 16 35c0 4.66699 -0.666992 9.33398 -2 14.001c-0.666992 13.333 -8.33398 26.333 -23.001 39l-41 28l-71 49
c-71.333 49.333 -107 108.666 -107 177.999c0 43.333 16.833 77 50.5 101s81.5 36 143.5 36c124 0 184.333 -62.333 181 -187h-130c2.66699 58 -17.333 87 -60 87c-36.667 0 -55 -15.333 -55 -46c0 -21.333 16.333 -43 49 -65l106 -72c19.333 -12.667 37.666 -29 54.999 -49
c20.667 -24 32 -44.667 34 -62c1.33301 -13.333 2 -25.666 2 -36.999c0 -108.667 -65 -163 -195 -163c-46 0 -85 10.667 -117 32c-44.667 29.333 -67 76.666 -67 141.999c0 8.66699 0.333008 17.667 1 27zM-18.998 -203l19 42c34 -10.667 62.667 -16 86 -16
c12 0 22.833 4.66699 32.5 14s13.5 20 11.5 32c-3.33301 12.667 -10 20.667 -20 24c-15.333 8 -37 7 -65 -3l-21 20l59 90h53l-42 -63c10 4 21 6 33 6c29.333 0 52 -8 68 -24c14.667 -11.333 22 -29 22 -53c0 -14 -4.33301 -29.333 -13 -46
c-25.333 -32.667 -63 -49 -113 -49c-19.333 0 -56 8.66699 -110 26z" />
    <glyph glyph-name="Scaron" unicode="&#x160;" horiz-adv-x="556" 
d="M489 522l-135 -0.00390625c0.666992 40.667 -3 70.334 -11 89.001c-12 29.333 -35.667 44 -71 44c-51.333 0 -77 -23.333 -77 -70c0 -25.333 7.66699 -46.666 23 -63.999c10 -10.667 29 -25 57 -43c83.333 -52.667 140 -93.667 170 -123
c42 -41.333 63 -93.666 63 -156.999c0 -69.333 -20.833 -122.666 -62.5 -159.999s-97.834 -56 -168.501 -56c-152 0 -228 76 -228 228v55h140v-44c0 -84 29.333 -126 88 -126c58 0 87 29.333 87 88c0 38 -18.667 71 -56 99l-117 79c-46.667 32 -81.667 63.833 -105 95.5
s-35 69.5 -35 113.5c0 132 73.333 198 220 198c96 0 160 -31.667 192 -95c16.667 -32 25.334 -82.333 26.001 -151zM455 945.996l-115 -146h-125l-113 146h112l64 -82l63 82h114z" />
    <glyph glyph-name="scaron" unicode="&#x161;" horiz-adv-x="444" 
d="M28 186h130.002c-1.33301 -10.667 -2 -20.667 -2 -30c0 -32 7 -53 21 -63c7.33301 -5.33301 21 -8 41 -8c16 0 29.333 4.66699 40 14s16 21 16 35c0 4.66699 -0.666992 9.33398 -2 14.001c-0.666992 13.333 -8.33398 26.333 -23.001 39l-41 28l-71 49
c-71.333 49.333 -107 108.666 -107 177.999c0 43.333 16.833 77 50.5 101s81.5 36 143.5 36c124 0 184.333 -62.333 181 -187h-130c2.66699 58 -17.333 87 -60 87c-36.667 0 -55 -15.333 -55 -46c0 -21.333 16.333 -43 49 -65l106 -72c19.333 -12.667 37.666 -29 54.999 -49
c20.667 -24 32 -44.667 34 -62c1.33301 -13.333 2 -25.666 2 -36.999c0 -108.667 -65 -163 -195 -163c-46 0 -85 10.667 -117 32c-44.667 29.333 -67 76.666 -67 141.999c0 8.66699 0.333008 17.667 1 27zM389.002 760l-115 -146h-125l-113 146h112l64 -82l63 82h114z" />
    <glyph glyph-name="ch903" unicode="&#x168;" horiz-adv-x="611" 
d="M404 239v510.999h140v-523c0 -87.333 -17.333 -149.666 -52 -186.999c-36.667 -38.667 -98.334 -58 -185.001 -58c-88 0 -149.833 18.833 -185.5 56.5s-53.5 100.5 -53.5 188.5v523h140v-511c0 -46.667 4.66699 -79.667 14 -99c14.667 -30 43.334 -45 86.001 -45
c40.667 0 68 15 82 45c9.33301 20 14 53 14 99zM437 910.999l54.001 -0.000976562c-48.667 -69.333 -99.334 -104 -152.001 -104c-8.66699 0 -29.667 6 -63 18c-14 8 -26.333 12 -37 12c-14.667 0 -34 -12 -58 -36h-51c15.333 26.667 36.333 50.334 63 71.001
c30.667 23.333 59.667 35 87 35c15.333 0 33.333 -5 54 -15c12 -6 26.333 -11.333 43 -16c22 -0.666992 42 11 60 35z" />
    <glyph glyph-name="ch904" unicode="&#x169;" 
d="M307 0l-0.000976562 84h-2c-19.333 -65.333 -59.666 -98.333 -120.999 -99c-48.667 0 -82.667 12.667 -102 38c-16 22 -24 58.333 -24 109v432h130v-386c0 -36.667 4.33301 -61.667 13 -75c11.333 -12 24.666 -18 39.999 -18c26.667 0 44.334 13.333 53.001 40
c4.66699 14.667 7 39 7 73v366h130v-564h-124zM366.999 726h52c-46 -66 -94.333 -99 -145 -99c-10 0 -29.667 5.66699 -59 17c-14 8 -26 12 -36 12c-13.333 0 -31.666 -11.667 -54.999 -35h-48c14.667 24.667 34.667 47 60 67c29.333 22.667 56.666 34 81.999 34
c14.667 0 32 -4.66699 52 -14c10 -4.66699 23.333 -9.66699 40 -15c21.333 -0.666992 40.333 10.333 57 33z" />
    <glyph glyph-name="Ydieresis" unicode="&#x178;" horiz-adv-x="556" 
d="M165 750l79.001 -197c16.667 -42 27.667 -80.333 33 -115h2c5.33301 30 20.666 77.333 45.999 142l67 170h153l-198 -431v-319h-140v319l-195 431h153zM244.001 830h-127v115h127v-115zM440.001 830h-128v115h128v-115z" />
    <glyph glyph-name="Zcaron" unicode="&#x17d;" 
d="M33 0v112l241 465c7.33301 15.333 20.333 37.333 39 66c-12 -2 -30 -3 -54 -3h-210v110h410v-112l-241 -465c-7.33301 -14.667 -20.333 -36.667 -39 -66c12 2 30 3 54 3h235v-110h-435zM427 946l-115 -146h-125l-113 146h112l64 -82l63 82h114z" />
    <glyph glyph-name="zcaron" unicode="&#x17e;" horiz-adv-x="389" 
d="M367 471l-206 -371h206v-100h-344v102l198 362h-194v100h340v-93zM371 760l-115 -146h-125l-113 146h112l64 -82l63 82h114z" />
    <glyph glyph-name="florin" unicode="&#x192;" 
d="M492 747l-22.001 -102.999c-14.667 8 -28.667 12 -42 12c-31.333 0 -52.333 -14.333 -63 -43c-2.66699 -6.66699 -8 -34.334 -16 -83.001l-5 -31h111v-95h-124l-48 -295c-16.667 -104 -37 -178.667 -61 -224c-11.333 -22 -29.333 -39.333 -54 -52
c-22 -12 -46 -18 -72 -18c-24.667 0 -53.667 4 -87 12l17 108c12.667 -10 27 -15 43 -15c19.333 0 33.333 8.5 42 25.5s16 43.833 22 80.5l65 378h-111v95h126l16 78c25.333 124 84.666 186 177.999 186c18.667 0 44.667 -4.66699 78 -14
c0.666992 0 1.83398 -0.166992 3.50098 -0.5s2.83398 -0.833008 3.50098 -1.5z" />
    <glyph glyph-name="glyph277" unicode="&#x1a0;" horiz-adv-x="611" 
d="M205 466v-208c0 -108.667 33.667 -163 101 -163c44 0 73.333 20.333 88 61c8.66699 24 13 62 13 114v192c0 55.333 -3.66699 95 -11 119c-14.667 49.333 -44.667 74 -90 74c-47.333 0 -78 -24.333 -92 -73c-6 -21.333 -9 -60 -9 -116zM428 747l64.002 -2v-1
c13.333 4 20 13 20 27c0 10.667 -6.66699 17 -20 19c-2.66699 0.666992 -13.334 -1 -32.001 -5l12 47c12.667 3.33301 27 3.66602 43 0.999023c33.333 -5.33301 50 -21.666 50 -48.999c0 -28 -25.667 -54.333 -77 -79c42 -47.333 63 -137.333 63 -270v-107
c0 -120 -12 -202.667 -36 -248c-34.667 -65.333 -104.334 -98 -209.001 -98s-174.334 32.667 -209.001 98c-24 45.333 -36 128 -36 248v107c0 112 13 191.333 39 238c35.333 63.333 104 95 206 95c50.667 0 91.334 -7 122.001 -21z" />
    <glyph glyph-name="glyph278" unicode="&#x1a1;" 
d="M183 372l0.000976562 -187.999c0 -38 3.66699 -63 11 -75c9.33301 -16 28.666 -24 57.999 -24c28 0 46.333 8 55 24c6.66699 12 10 37 10 75v188c0 35.333 -2.66699 59.666 -8 72.999c-9.33301 22.667 -28.333 34 -57 34c-30.667 0 -50.667 -11.333 -60 -34
c-6 -14 -9 -38.333 -9 -73zM367.001 554.001l41 -0.998047v-1c13.333 4 20 13 20 27c0 10.667 -6.66699 17 -20 19c-2.66699 0.666992 -13.334 -1 -32.001 -5l12 47c12.667 3.33301 27 3.66602 43 0.999023c33.333 -5.33301 50 -21.666 50 -48.999
c0 -28.667 -24.333 -53.334 -73 -74.001h-1c17.333 -24.667 28.666 -60.334 33.999 -107.001c3.33301 -30 5.33301 -79.667 6 -149c0.666992 -104 -10.666 -174.667 -33.999 -212c-27.333 -43.333 -81 -65 -161 -65c-82 0 -136.667 21.667 -164 65
c-24 37.333 -35.667 108 -35 212c0.666992 118 9.33398 195 26.001 231c26 57.333 83.667 86 173 86c48.667 0 87 -8.33301 115 -25z" />
    <glyph glyph-name="glyph279" unicode="&#x1af;" horiz-adv-x="611" 
d="M544 710l0.000976562 -483c0 -87.333 -17.333 -149.666 -52 -186.999c-36.667 -38.667 -98.334 -58 -185.001 -58c-88 0 -149.833 18.833 -185.5 56.5s-53.5 100.5 -53.5 188.5v523h140v-511c0 -46.667 4.66699 -79.667 14 -99c14.667 -30 43.334 -45 86.001 -45
c40.667 0 68 15 82 45c9.33301 20 14 53 14 99v511l140 -5v-1c13.333 4 20 13 20 27c0 10.667 -6.66699 17 -20 19c-2.66699 0.666992 -13.334 -1 -32.001 -5l12 47c12.667 3.33301 27 3.66602 43 0.999023c33.333 -5.33301 50 -21.666 50 -48.999
c0 -28.667 -24.333 -53.334 -73 -74.001z" />
    <glyph glyph-name="glyph280" unicode="&#x1b0;" 
d="M431 557c5.33301 1.33301 11.667 5.33496 19 12.002c0.666992 3.33301 1 6.66602 1 9.99902c0 10.667 -6.66699 17 -20 19c-2.66699 0.666992 -13.334 -1 -32.001 -5l12 47c12.667 3.33301 27 3.66602 43 0.999023c33.333 -5.33301 50 -21.666 50 -48.999
c0 -28.667 -24.333 -53.334 -73 -74.001v-518h-124v84h-2c-19.333 -65.333 -59.666 -98.333 -120.999 -99c-48.667 0 -82.667 12.667 -102 38c-16 22 -24 58.333 -24 109v432h130v-386c0 -36.667 4.33301 -61.667 13 -75c11.333 -12 24.666 -18 39.999 -18
c26.667 0 44.334 13.333 53.001 40c4.66699 14.667 7 39 7 73v366l130 -5v-2z" />
    <glyph glyph-name="circumflex" unicode="&#x2c6;" horiz-adv-x="333" 
d="M103 790h125l115 -146h-114l-63 82l-64 -82h-112z" />
    <glyph glyph-name="caron" unicode="&#x2c7;" horiz-adv-x="333" 
d="M343 780l-115 -146h-125l-113 146h112l64 -82l63 82h114z" />
    <glyph glyph-name="breve" unicode="&#x2d8;" horiz-adv-x="333" 
d="M270 780h64.998c-6 -46.667 -23.667 -82.5 -53 -107.5s-67.666 -37.5 -114.999 -37.5c-52.667 0 -94.167 13.5 -124.5 40.5s-44.833 61.833 -43.5 104.5h65c4.66699 -46.667 37.334 -70 98.001 -70c65.333 0 101.333 23.333 108 70z" />
    <glyph glyph-name="dotaccent" unicode="&#x2d9;" horiz-adv-x="333" 
d="M230 644h-127v115h127v-115z" />
    <glyph glyph-name="ring" unicode="&#x2da;" horiz-adv-x="333" 
d="M167 632c-29.333 0 -54.5 10.5 -75.5 31.5s-31.5 45.833 -31.5 74.5c0 29.333 10.667 54.5 32 75.5s46.333 31.5 75 31.5c29.333 0 54.333 -10.5 75 -31.5s31 -46.167 31 -75.5s-10.333 -54.333 -31 -75s-45.667 -31 -75 -31zM167 796
c-16 0 -29.667 -5.66895 -41 -17.002s-17 -25 -17 -41c0 -15.333 5.83301 -28.666 17.5 -39.999s25.167 -17 40.5 -17s28.833 5.83301 40.5 17.5s17.5 24.834 17.5 39.501c0 15.333 -5.83301 28.833 -17.5 40.5s-25.167 17.5 -40.5 17.5z" />
    <glyph glyph-name="ogonek" unicode="&#x2db;" horiz-adv-x="333" 
d="M278 -104l0.000976562 -85.998c-20 -10 -44.667 -15 -74 -15c-32.667 0 -59.667 8 -81 24c-23.333 18 -35 43 -35 75s27.667 67.333 83 106h68v-2c-16.667 -8.66699 -31.334 -20.334 -44.001 -35.001s-19 -28.334 -19 -41.001s4.5 -23.167 13.5 -31.5
s19.833 -12.5 32.5 -12.5c3.33301 0 22 6 56 18z" />
    <glyph glyph-name="tilde" unicode="&#x2dc;" horiz-adv-x="333" 
d="M285 764l65 0.000976562c-14.667 -80.667 -53.667 -121 -117 -121c-16 0 -45.333 7.33301 -88 22c-24.667 8.66699 -42 13 -52 13c-8 0 -15.167 -1.83301 -21.5 -5.5s-14.833 -15.834 -25.5 -36.501h-62c2.66699 38 17 69 43 93c22 20 45.667 30 71 30
c18.667 0 44.5 -6.16699 77.5 -18.5s52.833 -18.5 59.5 -18.5c26 0 42.667 14 50 42z" />
    <glyph glyph-name="hungarumlaut" unicode="&#x2dd;" horiz-adv-x="333" 
d="M-17 634l94 146h155l-148 -146h-101zM198 634l94 146h155l-148 -146h-101z" />
    <glyph glyph-name="glyph281" unicode="&#x1ea0;" horiz-adv-x="556" 
d="M159 0h-150l179 750h189l170 -750h-150l-37 190h-164zM260 513l-41.999 -213.001h120l-38 213c-6.66699 37.333 -11.334 72 -14.001 104c-1.33301 18.667 -3 35.334 -5 50.001h-2c-2 -28.667 -8.33301 -80 -19 -154zM331.001 -132.001h-112v102h112v-102z" />
    <glyph glyph-name="glyph282" unicode="&#x1ea1;" 
d="M440 0h-122.999c-7.33301 15.333 -10 34.666 -8 57.999h-2c-31.333 -48.667 -69.333 -73 -114 -73c-100.667 0 -151 56.333 -151 169c0 58 19.333 102.667 58 134c20 16 65 38.667 135 68c44.667 18.667 67 42.667 67 72c0 6.66699 -1 14 -3 22
c-4.66699 19.333 -25 29 -61 29c-26.667 0 -45.334 -7.33301 -56.001 -22c-8.66699 -12 -12.667 -32 -12 -60h-124c-0.666992 66 15.333 113.333 48 142c31.333 26.667 81 40 149 40c78 0 131 -18.667 159 -56c18 -24 27 -61 27 -111v-333
c0 -25.333 3.66699 -51.666 11 -78.999zM299.001 236v61.001c-31.333 -19.333 -66.333 -43.333 -105 -72c-14.667 -10.667 -22 -33.334 -22 -68.001c0 -48 20.333 -72 61 -72c33.333 0 54 18.333 62 55c2.66699 12.667 4 44.667 4 96zM292.001 -139.999h-106v96h106v-96z
" />
    <glyph glyph-name="glyph283" unicode="&#x1ea2;" horiz-adv-x="556" 
d="M159 0h-150l179 750h189l170 -750h-150l-37 190h-164zM260 513l-41.999 -213.001h120l-38 213c-6.66699 37.333 -11.334 72 -14.001 104c-1.33301 18.667 -3 35.334 -5 50.001h-2c-2 -28.667 -8.33301 -80 -19 -154zM265.001 935.999l-45.001 5.00195
c-3.33301 58.667 23.667 88 81 88c23.333 0 41.833 -7.5 55.5 -22.5s20.5 -34.167 20.5 -57.5c0 -19.333 -9.66699 -41.333 -29 -66c-3.33301 -3.33301 -8 -8.33301 -14 -15s-10.667 -11.667 -14 -15c-9.33301 -12.667 -14 -30.334 -14 -53.001l-52 -5
c-4 26 1.66699 49.667 17 71l29 38c10 15.333 15 30 15 44c0 21.333 -7.66699 32 -23 32c-11.333 0 -18.666 -3 -21.999 -9c-1.33301 -2.66699 -3 -14.334 -5 -35.001z" />
    <glyph glyph-name="glyph284" unicode="&#x1ea3;" 
d="M440 0h-122.999c-7.33301 15.333 -10 34.666 -8 57.999h-2c-31.333 -48.667 -69.333 -73 -114 -73c-100.667 0 -151 56.333 -151 169c0 58 19.333 102.667 58 134c20 16 65 38.667 135 68c44.667 18.667 67 42.667 67 72c0 6.66699 -1 14 -3 22
c-4.66699 19.333 -25 29 -61 29c-26.667 0 -45.334 -7.33301 -56.001 -22c-8.66699 -12 -12.667 -32 -12 -60h-124c-0.666992 66 15.333 113.333 48 142c31.333 26.667 81 40 149 40c78 0 131 -18.667 159 -56c18 -24 27 -61 27 -111v-333
c0 -25.333 3.66699 -51.666 11 -78.999zM299.001 236v61.001c-31.333 -19.333 -66.333 -43.333 -105 -72c-14.667 -10.667 -22 -33.334 -22 -68.001c0 -48 20.333 -72 61 -72c33.333 0 54 18.333 62 55c2.66699 12.667 4 44.667 4 96zM228.001 759.001l-43.001 4.99805
c-3.33301 56 22.334 84 77.001 84c22 0 39.5 -7.16699 52.5 -21.5s19.5 -32.5 19.5 -54.5c0 -18.667 -9 -39.667 -27 -63c-3.33301 -3.33301 -7.83301 -8.16602 -13.5 -14.499s-10.167 -11.166 -13.5 -14.499c-8.66699 -12 -13 -28.667 -13 -50l-49 -5
c0 30 5.33301 52.667 16 68l27 36c10 15.333 15 29.333 15 42c0 20 -7.33301 30 -22 30c-10.667 0 -17.667 -3 -21 -9c-1.33301 -2.66699 -3 -13.667 -5 -33z" />
    <glyph glyph-name="glyph285" unicode="&#x1ea4;" horiz-adv-x="556" 
d="M159 0h-150l179 750h189l170 -750h-150l-37 190h-164zM260 513l-41.999 -213.001h120l-38 213c-6.66699 37.333 -11.334 72 -14.001 104c-1.33301 18.667 -3 35.334 -5 50.001h-2c-2 -28.667 -8.33301 -80 -19 -154zM225.001 899.999h107l97 -124h-97l-53 70l-55 -70h-95
zM433.001 845.999l75 142h139l-143 -142h-71z" />
    <glyph glyph-name="glyph286" unicode="&#x1ea5;" 
d="M440 0h-122.999c-7.33301 15.333 -10 34.666 -8 57.999h-2c-31.333 -48.667 -69.333 -73 -114 -73c-100.667 0 -151 56.333 -151 169c0 58 19.333 102.667 58 134c20 16 65 38.667 135 68c44.667 18.667 67 42.667 67 72c0 6.66699 -1 14 -3 22
c-4.66699 19.333 -25 29 -61 29c-26.667 0 -45.334 -7.33301 -56.001 -22c-8.66699 -12 -12.667 -32 -12 -60h-124c-0.666992 66 15.333 113.333 48 142c31.333 26.667 81 40 149 40c78 0 131 -18.667 159 -56c18 -24 27 -61 27 -111v-333
c0 -25.333 3.66699 -51.666 11 -78.999zM299.001 236v61.001c-31.333 -19.333 -66.333 -43.333 -105 -72c-14.667 -10.667 -22 -33.334 -22 -68.001c0 -48 20.333 -72 61 -72c33.333 0 54 18.333 62 55c2.66699 12.667 4 44.667 4 96zM193.001 724.001h102l92 -118h-92
l-51 67l-52 -67h-90zM391.001 673.001l71 134h132l-136 -134h-67z" />
    <glyph glyph-name="glyph287" unicode="&#x1ea6;" horiz-adv-x="556" 
d="M159 0h-150l179 750h189l170 -750h-150l-37 190h-164zM260 513l-41.999 -213.001h120l-38 213c-6.66699 37.333 -11.334 72 -14.001 104c-1.33301 18.667 -3 35.334 -5 50.001h-2c-2 -28.667 -8.33301 -80 -19 -154zM225.001 899.999h107l97 -124h-97l-53 70l-55 -70h-95
zM-86.999 987.999h139l75 -142h-71z" />
    <glyph glyph-name="glyph288" unicode="&#x1ea7;" 
d="M440 0h-122.999c-7.33301 15.333 -10 34.666 -8 57.999h-2c-31.333 -48.667 -69.333 -73 -114 -73c-100.667 0 -151 56.333 -151 169c0 58 19.333 102.667 58 134c20 16 65 38.667 135 68c44.667 18.667 67 42.667 67 72c0 6.66699 -1 14 -3 22
c-4.66699 19.333 -25 29 -61 29c-26.667 0 -45.334 -7.33301 -56.001 -22c-8.66699 -12 -12.667 -32 -12 -60h-124c-0.666992 66 15.333 113.333 48 142c31.333 26.667 81 40 149 40c78 0 131 -18.667 159 -56c18 -24 27 -61 27 -111v-333
c0 -25.333 3.66699 -51.666 11 -78.999zM299.001 236v61.001c-31.333 -19.333 -66.333 -43.333 -105 -72c-14.667 -10.667 -22 -33.334 -22 -68.001c0 -48 20.333 -72 61 -72c33.333 0 54 18.333 62 55c2.66699 12.667 4 44.667 4 96zM192.001 724.001h102l92 -118h-92
l-50 67l-53 -67h-90zM-103.999 807.001h132l71 -134h-67z" />
    <glyph glyph-name="glyph289" unicode="&#x1ea8;" horiz-adv-x="556" 
d="M159 0h-150l179 750h189l170 -750h-150l-37 190h-164zM260 513l-41.999 -213.001h120l-38 213c-6.66699 37.333 -11.334 72 -14.001 104c-1.33301 18.667 -3 35.334 -5 50.001h-2c-2 -28.667 -8.33301 -80 -19 -154zM225.001 899.999h107l97 -124h-97l-53 70l-55 -70h-95
zM443.001 986.999l-45.001 5.00195c-3.33301 58.667 23.667 88 81 88c23.333 0 41.833 -7.5 55.5 -22.5s20.5 -34.167 20.5 -57.5c0 -19.333 -9.66699 -41.333 -29 -66c-3.33301 -3.33301 -8 -8.33301 -14 -15s-10.667 -11.667 -14 -15
c-9.33301 -12.667 -14 -30.334 -14 -53.001l-52 -5c-4 26 1.66699 49.667 17 71l29 38c10 15.333 15 30 15 44c0 21.333 -7.66699 32 -23 32c-11.333 0 -18.666 -3 -21.999 -9c-1.33301 -2.66699 -3 -14.334 -5 -35.001z" />
    <glyph glyph-name="glyph290" unicode="&#x1ea9;" 
d="M440 0h-122.999c-7.33301 15.333 -10 34.666 -8 57.999h-2c-31.333 -48.667 -69.333 -73 -114 -73c-100.667 0 -151 56.333 -151 169c0 58 19.333 102.667 58 134c20 16 65 38.667 135 68c44.667 18.667 67 42.667 67 72c0 6.66699 -1 14 -3 22
c-4.66699 19.333 -25 29 -61 29c-26.667 0 -45.334 -7.33301 -56.001 -22c-8.66699 -12 -12.667 -32 -12 -60h-124c-0.666992 66 15.333 113.333 48 142c31.333 26.667 81 40 149 40c78 0 131 -18.667 159 -56c18 -24 27 -61 27 -111v-333
c0 -25.333 3.66699 -51.666 11 -78.999zM299.001 236v61.001c-31.333 -19.333 -66.333 -43.333 -105 -72c-14.667 -10.667 -22 -33.334 -22 -68.001c0 -48 20.333 -72 61 -72c33.333 0 54 18.333 62 55c2.66699 12.667 4 44.667 4 96zM192.001 724.001h102l92 -118h-92
l-51 66l-52 -66h-90zM399.001 806.001l-43.001 4.99805c-3.33301 56 22.334 84 77.001 84c22 0 39.5 -7.16699 52.5 -21.5s19.5 -32.5 19.5 -54.5c0 -18.667 -9 -39.667 -27 -63c-3.33301 -3.33301 -7.83301 -8.16602 -13.5 -14.499s-10.167 -11.166 -13.5 -14.499
c-8.66699 -12 -13 -28.667 -13 -50l-49 -5c0 30 5.33301 52.667 16 68l27 36c10 15.333 15 29.333 15 42c0 20 -7.33301 30 -22 30c-10.667 0 -17.667 -3 -21 -9c-1.33301 -2.66699 -3 -13.667 -5 -33z" />
    <glyph glyph-name="glyph291" unicode="&#x1eaa;" horiz-adv-x="556" 
d="M159 0h-150l179 750h189l170 -750h-150l-37 190h-164zM260 513l-41.999 -213.001h120l-38 213c-6.66699 37.333 -11.334 72 -14.001 104c-1.33301 18.667 -3 35.334 -5 50.001h-2c-2 -28.667 -8.33301 -80 -19 -154zM225.001 899.999h107l97 -124h-97l-53 70l-55 -70h-95
zM410.001 1037l54.001 -0.000976562c-48.667 -69.333 -99.334 -104 -152.001 -104c-8.66699 0 -29.667 6 -63 18c-14 8 -26.333 12 -37 12c-14.667 0 -34 -12 -58 -36h-51c15.333 26.667 36.333 50.334 63 71.001c30.667 23.333 59.667 35 87 35c15.333 0 33.333 -5 54 -15
c12 -6 26.333 -11.333 43 -16c22 -0.666992 42 11 60 35z" />
    <glyph glyph-name="glyph292" unicode="&#x1eab;" 
d="M440 0h-122.999c-7.33301 15.333 -10 34.666 -8 57.999h-2c-31.333 -48.667 -69.333 -73 -114 -73c-100.667 0 -151 56.333 -151 169c0 58 19.333 102.667 58 134c20 16 65 38.667 135 68c44.667 18.667 67 42.667 67 72c0 6.66699 -1 14 -3 22
c-4.66699 19.333 -25 29 -61 29c-26.667 0 -45.334 -7.33301 -56.001 -22c-8.66699 -12 -12.667 -32 -12 -60h-124c-0.666992 66 15.333 113.333 48 142c31.333 26.667 81 40 149 40c78 0 131 -18.667 159 -56c18 -24 27 -61 27 -111v-333
c0 -25.333 3.66699 -51.666 11 -78.999zM299.001 236v61.001c-31.333 -19.333 -66.333 -43.333 -105 -72c-14.667 -10.667 -22 -33.334 -22 -68.001c0 -48 20.333 -72 61 -72c33.333 0 54 18.333 62 55c2.66699 12.667 4 44.667 4 96zM192.001 724.001h101l92 -118h-92
l-50 67l-52 -67h-90zM367.001 854.001h52c-46 -66 -94.333 -99 -145 -99c-10 0 -29.667 5.66699 -59 17c-14 8 -26 12 -36 12c-13.333 0 -31.666 -11.667 -54.999 -35h-48c14.667 24.667 34.667 47 60 67c29.333 22.667 56.666 34 81.999 34c14.667 0 32 -4.66699 52 -14
c10 -4.66699 23.333 -9.66699 40 -15c21.333 -0.666992 40.333 10.333 57 33z" />
    <glyph glyph-name="glyph293" unicode="&#x1eac;" horiz-adv-x="556" 
d="M159 0h-150l179 750h189l170 -750h-150l-37 190h-164zM260 513l-41.999 -213.001h120l-38 213c-6.66699 37.333 -11.334 72 -14.001 104c-1.33301 18.667 -3 35.334 -5 50.001h-2c-2 -28.667 -8.33301 -80 -19 -154zM225.001 899.999h107l97 -124h-97l-53 70l-55 -70h-95
zM331.001 -132.001h-112v102h112v-102z" />
    <glyph glyph-name="glyph294" unicode="&#x1ead;" 
d="M440 0h-122.999c-7.33301 15.333 -10 34.666 -8 57.999h-2c-31.333 -48.667 -69.333 -73 -114 -73c-100.667 0 -151 56.333 -151 169c0 58 19.333 102.667 58 134c20 16 65 38.667 135 68c44.667 18.667 67 42.667 67 72c0 6.66699 -1 14 -3 22
c-4.66699 19.333 -25 29 -61 29c-26.667 0 -45.334 -7.33301 -56.001 -22c-8.66699 -12 -12.667 -32 -12 -60h-124c-0.666992 66 15.333 113.333 48 142c31.333 26.667 81 40 149 40c78 0 131 -18.667 159 -56c18 -24 27 -61 27 -111v-333
c0 -25.333 3.66699 -51.666 11 -78.999zM299.001 236v61.001c-31.333 -19.333 -66.333 -43.333 -105 -72c-14.667 -10.667 -22 -33.334 -22 -68.001c0 -48 20.333 -72 61 -72c33.333 0 54 18.333 62 55c2.66699 12.667 4 44.667 4 96zM193.001 724.001h102l92 -118h-92
l-51 67l-52 -67h-90zM292.001 -139.999h-106v96h106v-96z" />
    <glyph glyph-name="glyph295" unicode="&#x1eae;" horiz-adv-x="556" 
d="M159 0h-150l179 750h189l170 -750h-150l-37 190h-164zM260 513l-41.999 -213.001h120l-38 213c-6.66699 37.333 -11.334 72 -14.001 104c-1.33301 18.667 -3 35.334 -5 50.001h-2c-2 -28.667 -8.33301 -80 -19 -154zM241.001 911.999l75 142h139l-143 -142h-71z
M364.001 901.999h52.999c-11.333 -78 -56.666 -117 -135.999 -117c-39.333 0 -71.333 9.33301 -96 28c-28 21.333 -41.333 51 -40 89h52c5.33301 -38 32 -57 80 -57c52 0 81 19 87 57z" />
    <glyph glyph-name="glyph296" unicode="&#x1eaf;" 
d="M440 0h-122.999c-7.33301 15.333 -10 34.666 -8 57.999h-2c-31.333 -48.667 -69.333 -73 -114 -73c-100.667 0 -151 56.333 -151 169c0 58 19.333 102.667 58 134c20 16 65 38.667 135 68c44.667 18.667 67 42.667 67 72c0 6.66699 -1 14 -3 22
c-4.66699 19.333 -25 29 -61 29c-26.667 0 -45.334 -7.33301 -56.001 -22c-8.66699 -12 -12.667 -32 -12 -60h-124c-0.666992 66 15.333 113.333 48 142c31.333 26.667 81 40 149 40c78 0 131 -18.667 159 -56c18 -24 27 -61 27 -111v-333
c0 -25.333 3.66699 -51.666 11 -78.999zM299.001 236v61.001c-31.333 -19.333 -66.333 -43.333 -105 -72c-14.667 -10.667 -22 -33.334 -22 -68.001c0 -48 20.333 -72 61 -72c33.333 0 54 18.333 62 55c2.66699 12.667 4 44.667 4 96zM206.001 741.001l71 135h132l-136 -135
h-67zM323.001 732.001h50.001c-10 -74 -53 -111 -129 -111c-37.333 0 -67.666 9 -90.999 27c-26.667 20 -39.334 48 -38.001 84h49c5.33301 -36 30.666 -54 75.999 -54c49.333 0 77 18 83 54z" />
    <glyph glyph-name="glyph297" unicode="&#x1eb0;" horiz-adv-x="556" 
d="M159 0h-150l179 750h189l170 -750h-150l-37 190h-164zM260 513l-41.999 -213.001h120l-38 213c-6.66699 37.333 -11.334 72 -14.001 104c-1.33301 18.667 -3 35.334 -5 50.001h-2c-2 -28.667 -8.33301 -80 -19 -154zM102.001 1054h139l75 -142h-71zM364.001 901.999
h52.999c-11.333 -78 -56.666 -117 -135.999 -117c-39.333 0 -71.333 9.33301 -96 28c-28 21.333 -41.333 51 -40 89h52c5.33301 -38 32 -57 80 -57c52 0 81 19 87 57z" />
    <glyph glyph-name="glyph298" unicode="&#x1eb1;" 
d="M440 0h-122.999c-7.33301 15.333 -10 34.666 -8 57.999h-2c-31.333 -48.667 -69.333 -73 -114 -73c-100.667 0 -151 56.333 -151 169c0 58 19.333 102.667 58 134c20 16 65 38.667 135 68c44.667 18.667 67 42.667 67 72c0 6.66699 -1 14 -3 22
c-4.66699 19.333 -25 29 -61 29c-26.667 0 -45.334 -7.33301 -56.001 -22c-8.66699 -12 -12.667 -32 -12 -60h-124c-0.666992 66 15.333 113.333 48 142c31.333 26.667 81 40 149 40c78 0 131 -18.667 159 -56c18 -24 27 -61 27 -111v-333
c0 -25.333 3.66699 -51.666 11 -78.999zM299.001 236v61.001c-31.333 -19.333 -66.333 -43.333 -105 -72c-14.667 -10.667 -22 -33.334 -22 -68.001c0 -48 20.333 -72 61 -72c33.333 0 54 18.333 62 55c2.66699 12.667 4 44.667 4 96zM74.001 876.001h132l71 -135h-67z
M323.001 732.001h50.001c-10 -74 -53 -111 -129 -111c-37.333 0 -67.666 9 -90.999 27c-26.667 20 -39.334 48 -38.001 84h49c5.33301 -36 30.666 -54 75.999 -54c49.333 0 77 18 83 54z" />
    <glyph glyph-name="glyph299" unicode="&#x1eb2;" horiz-adv-x="556" 
d="M159 0h-150l179 750h189l170 -750h-150l-37 190h-164zM260 513l-41.999 -213.001h120l-38 213c-6.66699 37.333 -11.334 72 -14.001 104c-1.33301 18.667 -3 35.334 -5 50.001h-2c-2 -28.667 -8.33301 -80 -19 -154zM364.001 901.999h52.999
c-11.333 -78 -56.666 -117 -135.999 -117c-39.333 0 -71.333 9.33301 -96 28c-28 21.333 -41.333 51 -40 89h52c5.33301 -38 32 -57 80 -57c52 0 81 19 87 57zM267 1024l-40.999 -0.000976562c-2 52.667 22.333 79 73 79c21.333 0 38.166 -6.66699 50.499 -20
s18.5 -30.666 18.5 -51.999c0 -17.333 -8.66699 -37 -26 -59l-13 -13.5l-13 -13.5c-8 -12 -12 -28 -12 -48h-47c-3.33301 22 1.66699 43.667 15 65c26.667 32.667 40 57 40 73c0 19.333 -7 29 -21 29c-10 0 -16.667 -2.66699 -20 -8c-0.666992 -1.33301 -2 -12 -4 -32z" />
    <glyph glyph-name="glyph300" unicode="&#x1eb3;" 
d="M440 0h-122.999c-7.33301 15.333 -10 34.666 -8 57.999h-2c-31.333 -48.667 -69.333 -73 -114 -73c-100.667 0 -151 56.333 -151 169c0 58 19.333 102.667 58 134c20 16 65 38.667 135 68c44.667 18.667 67 42.667 67 72c0 6.66699 -1 14 -3 22
c-4.66699 19.333 -25 29 -61 29c-26.667 0 -45.334 -7.33301 -56.001 -22c-8.66699 -12 -12.667 -32 -12 -60h-124c-0.666992 66 15.333 113.333 48 142c31.333 26.667 81 40 149 40c78 0 131 -18.667 159 -56c18 -24 27 -61 27 -111v-333
c0 -25.333 3.66699 -51.666 11 -78.999zM299.001 236v61.001c-31.333 -19.333 -66.333 -43.333 -105 -72c-14.667 -10.667 -22 -33.334 -22 -68.001c0 -48 20.333 -72 61 -72c33.333 0 54 18.333 62 55c2.66699 12.667 4 44.667 4 96zM322.001 733.001h50
c-10 -74.667 -53 -112 -129 -112c-37.333 0 -68 9 -92 27c-26 20.667 -38.333 49 -37 85h49c4.66699 -36.667 30 -55 76 -55c49.333 0 77 18.333 83 55zM229.001 856.001l-40.999 -0.000976562c-2 52.667 22.333 79 73 79c21.333 0 38.166 -6.66699 50.499 -20
s18.5 -30.666 18.5 -51.999c0 -17.333 -8.66699 -37 -26 -59l-13 -13.5l-13 -13.5c-8 -12 -12 -28 -12 -48h-47c-3.33301 22 1.66699 43.667 15 65c26.667 32.667 40 57 40 73c0 19.333 -7 29 -21 29c-10 0 -16.667 -2.66699 -20 -8c-0.666992 -1.33301 -2 -12 -4 -32z" />
    <glyph glyph-name="glyph301" unicode="&#x1eb4;" horiz-adv-x="556" 
d="M159 0h-150l179 750h189l170 -750h-150l-37 190h-164zM260 513l-41.999 -213.001h120l-38 213c-6.66699 37.333 -11.334 72 -14.001 104c-1.33301 18.667 -3 35.334 -5 50.001h-2c-2 -28.667 -8.33301 -80 -19 -154zM364.001 901.999h52.999
c-11.333 -78 -56.666 -117 -135.999 -117c-39.333 0 -71.333 9.33301 -96 28c-28 21.333 -41.333 51 -40 89h52c5.33301 -38 32 -57 80 -57c52 0 81 19 87 57zM556 1037l54.001 -0.000976562c-48.667 -69.333 -99.334 -104 -152.001 -104c-8.66699 0 -29.667 6 -63 18
c-14 8 -26.333 12 -37 12c-14.667 0 -34 -12 -58 -36h-51c15.333 26.667 36.333 50.334 63 71.001c30.667 23.333 59.667 35 87 35c15.333 0 33.333 -5 54 -15c12 -6 26.333 -11.333 43 -16c22 -0.666992 42 11 60 35z" />
    <glyph glyph-name="glyph302" unicode="&#x1eb5;" 
d="M440 0h-122.999c-7.33301 15.333 -10 34.666 -8 57.999h-2c-31.333 -48.667 -69.333 -73 -114 -73c-100.667 0 -151 56.333 -151 169c0 58 19.333 102.667 58 134c20 16 65 38.667 135 68c44.667 18.667 67 42.667 67 72c0 6.66699 -1 14 -3 22
c-4.66699 19.333 -25 29 -61 29c-26.667 0 -45.334 -7.33301 -56.001 -22c-8.66699 -12 -12.667 -32 -12 -60h-124c-0.666992 66 15.333 113.333 48 142c31.333 26.667 81 40 149 40c78 0 131 -18.667 159 -56c18 -24 27 -61 27 -111v-333
c0 -25.333 3.66699 -51.666 11 -78.999zM299.001 236v61.001c-31.333 -19.333 -66.333 -43.333 -105 -72c-14.667 -10.667 -22 -33.334 -22 -68.001c0 -48 20.333 -72 61 -72c33.333 0 54 18.333 62 55c2.66699 12.667 4 44.667 4 96zM322.001 731.001h51.001
c-11.333 -74 -54.333 -111 -129 -111c-37.333 0 -68 9 -92 27c-26.667 20 -39.334 48 -38.001 84h50c4 -36 29.333 -54 76 -54c50 0 77.333 18 82 54zM505.002 859.001h51.001c-46.667 -66 -94.667 -99 -144 -99c-3.33301 0 -23.333 5.66699 -60 17c-14 8 -25.667 12 -35 12
c-14 0 -32.333 -11.333 -55 -34h-49c15.333 26 35.333 48.333 60 67c28.667 22 56.334 33 83.001 33c13.333 0 30.166 -4.83301 50.499 -14.5s34.166 -14.5 41.499 -14.5c21.333 -0.666992 40.333 10.333 57 33z" />
    <glyph glyph-name="glyph303" unicode="&#x1eb6;" horiz-adv-x="556" 
d="M159 0h-150l179 750h189l170 -750h-150l-37 190h-164zM260 513l-41.999 -213.001h120l-38 213c-6.66699 37.333 -11.334 72 -14.001 104c-1.33301 18.667 -3 35.334 -5 50.001h-2c-2 -28.667 -8.33301 -80 -19 -154zM364.001 901.999h52.999
c-11.333 -78 -56.666 -117 -135.999 -117c-39.333 0 -71.333 9.33301 -96 28c-28 21.333 -41.333 51 -40 89h52c5.33301 -38 32 -57 80 -57c52 0 81 19 87 57zM331 -132.001h-112v102h112v-102z" />
    <glyph glyph-name="glyph304" unicode="&#x1eb7;" 
d="M440 0h-122.999c-7.33301 15.333 -10 34.666 -8 57.999h-2c-31.333 -48.667 -69.333 -73 -114 -73c-100.667 0 -151 56.333 -151 169c0 58 19.333 102.667 58 134c20 16 65 38.667 135 68c44.667 18.667 67 42.667 67 72c0 6.66699 -1 14 -3 22
c-4.66699 19.333 -25 29 -61 29c-26.667 0 -45.334 -7.33301 -56.001 -22c-8.66699 -12 -12.667 -32 -12 -60h-124c-0.666992 66 15.333 113.333 48 142c31.333 26.667 81 40 149 40c78 0 131 -18.667 159 -56c18 -24 27 -61 27 -111v-333
c0 -25.333 3.66699 -51.666 11 -78.999zM299.001 236v61.001c-31.333 -19.333 -66.333 -43.333 -105 -72c-14.667 -10.667 -22 -33.334 -22 -68.001c0 -48 20.333 -72 61 -72c33.333 0 54 18.333 62 55c2.66699 12.667 4 44.667 4 96zM292.001 -139.999h-106v96h106v-96z
M323.001 732.001h50.001c-10 -74 -53 -111 -129 -111c-37.333 0 -67.666 9 -90.999 27c-26.667 20 -39.334 48 -38.001 84h49c5.33301 -36 30.666 -54 75.999 -54c49.333 0 77 18 83 54z" />
    <glyph glyph-name="glyph305" unicode="&#x1eb8;" 
d="M458 0h-394v750h394v-110h-254v-189h234v-110h-234v-231h254v-110zM315 -142h-112v102h112v-102z" />
    <glyph glyph-name="glyph306" unicode="&#x1eb9;" 
d="M52 222v148.001c0 139.333 63.333 209 190 209c83.333 0 139.333 -22 168 -66c21.333 -32.667 32 -93.334 32 -182.001v-76h-260v-82c0 -58.667 22.667 -88 68 -88c42.667 0 62.667 35.333 60 106h130c5.33301 -137.333 -54.667 -206 -180 -206
c-77.333 0 -132.333 20.667 -165 62c-28.667 36.667 -43 95 -43 175zM182 355.001l130 0.000976562v49c0 27.333 -4.66699 46.666 -14 57.999s-27.333 17 -54 17c-28.667 0 -47 -10.333 -55 -31c-4.66699 -12 -7 -35.333 -7 -70v-23zM312 -144.998h-106v96h106v-96z" />
    <glyph glyph-name="glyph307" unicode="&#x1eba;" 
d="M458 0h-394v750h394v-110h-254v-189h234v-110h-234v-231h254v-110zM244 933l-45.001 5.00195c-3.33301 58.667 23.667 88 81 88c23.333 0 41.833 -7.5 55.5 -22.5s20.5 -34.167 20.5 -57.5c0 -19.333 -9.66699 -41.333 -29 -66c-3.33301 -3.33301 -8 -8.33301 -14 -15
s-10.667 -11.667 -14 -15c-9.33301 -12.667 -14 -30.334 -14 -53.001l-52 -5c-4 26 1.66699 49.667 17 71l29 38c10 15.333 15 30 15 44c0 21.333 -7.66699 32 -23 32c-11.333 0 -18.666 -3 -21.999 -9c-1.33301 -2.66699 -3 -14.334 -5 -35.001z" />
    <glyph glyph-name="glyph308" unicode="&#x1ebb;" 
d="M52 222v148.001c0 139.333 63.333 209 190 209c83.333 0 139.333 -22 168 -66c21.333 -32.667 32 -93.334 32 -182.001v-76h-260v-82c0 -58.667 22.667 -88 68 -88c42.667 0 62.667 35.333 60 106h130c5.33301 -137.333 -54.667 -206 -180 -206
c-77.333 0 -132.333 20.667 -165 62c-28.667 36.667 -43 95 -43 175zM182 355.001l130 0.000976562v49c0 27.333 -4.66699 46.666 -14 57.999s-27.333 17 -54 17c-28.667 0 -47 -10.333 -55 -31c-4.66699 -12 -7 -35.333 -7 -70v-23zM226 759.002l-43.001 4.99805
c-3.33301 56 22.334 84 77.001 84c22 0 39.5 -7.16699 52.5 -21.5s19.5 -32.5 19.5 -54.5c0 -18.667 -9 -39.667 -27 -63c-3.33301 -3.33301 -7.83301 -8.16602 -13.5 -14.499s-10.167 -11.166 -13.5 -14.499c-8.66699 -12 -13 -28.667 -13 -50l-49 -5
c0 30 5.33301 52.667 16 68l27 36c10 15.333 15 29.333 15 42c0 20 -7.33301 30 -22 30c-10.667 0 -17.667 -3 -21 -9c-1.33301 -2.66699 -3 -13.667 -5 -33z" />
    <glyph glyph-name="glyph309" unicode="&#x1ebc;" 
d="M458 0h-394v750h394v-110h-254v-189h234v-110h-234v-231h254v-110zM391 922l54.001 -0.000976562c-48.667 -69.333 -99.334 -104 -152.001 -104c-8.66699 0 -29.667 6 -63 18c-14 8 -26.333 12 -37 12c-14.667 0 -34 -12 -58 -36h-51
c15.333 26.667 36.333 50.334 63 71.001c30.667 23.333 59.667 35 87 35c15.333 0 33.333 -5 54 -15c12 -6 26.333 -11.333 43 -16c22 -0.666992 42 11 60 35z" />
    <glyph glyph-name="glyph310" unicode="&#x1ebd;" 
d="M52 222v148.001c0 139.333 63.333 209 190 209c83.333 0 139.333 -22 168 -66c21.333 -32.667 32 -93.334 32 -182.001v-76h-260v-82c0 -58.667 22.667 -88 68 -88c42.667 0 62.667 35.333 60 106h130c5.33301 -137.333 -54.667 -206 -180 -206
c-77.333 0 -132.333 20.667 -165 62c-28.667 36.667 -43 95 -43 175zM182 355.001l130 0.000976562v49c0 27.333 -4.66699 46.666 -14 57.999s-27.333 17 -54 17c-28.667 0 -47 -10.333 -55 -31c-4.66699 -12 -7 -35.333 -7 -70v-23zM366 740.002h52
c-46 -66 -94.333 -99 -145 -99c-10 0 -29.667 5.66699 -59 17c-14 8 -26 12 -36 12c-13.333 0 -31.666 -11.667 -54.999 -35h-48c14.667 24.667 34.667 47 60 67c29.333 22.667 56.666 34 81.999 34c14.667 0 32 -4.66699 52 -14c10 -4.66699 23.333 -9.66699 40 -15
c21.333 -0.666992 40.333 10.333 57 33z" />
    <glyph glyph-name="glyph311" unicode="&#x1ebe;" 
d="M458 0h-394v750h394v-110h-254v-189h234v-110h-234v-231h254v-110zM206 910h107l97 -124h-97l-53 70l-55 -70h-95zM414 856l75 142h139l-143 -142h-71z" />
    <glyph glyph-name="glyph312" unicode="&#x1ebf;" 
d="M52 222v148.001c0 139.333 63.333 209 190 209c83.333 0 139.333 -22 168 -66c21.333 -32.667 32 -93.334 32 -182.001v-76h-260v-82c0 -58.667 22.667 -88 68 -88c42.667 0 62.667 35.333 60 106h130c5.33301 -137.333 -54.667 -206 -180 -206
c-77.333 0 -132.333 20.667 -165 62c-28.667 36.667 -43 95 -43 175zM182 355.001l130 0.000976562v49c0 27.333 -4.66699 46.666 -14 57.999s-27.333 17 -54 17c-28.667 0 -47 -10.333 -55 -31c-4.66699 -12 -7 -35.333 -7 -70v-23zM191 724.002h102l92 -118h-92l-51 67
l-52 -67h-90zM389 673.002l71 134h132l-136 -134h-67z" />
    <glyph glyph-name="glyph313" unicode="&#x1ec0;" 
d="M458 0h-394v750h394v-110h-254v-189h234v-110h-234v-231h254v-110zM206 910h107l97 -124h-97l-53 70l-55 -70h-95zM-106 998h139l75 -142h-71z" />
    <glyph glyph-name="glyph314" unicode="&#x1ec1;" 
d="M52 222v148.001c0 139.333 63.333 209 190 209c83.333 0 139.333 -22 168 -66c21.333 -32.667 32 -93.334 32 -182.001v-76h-260v-82c0 -58.667 22.667 -88 68 -88c42.667 0 62.667 35.333 60 106h130c5.33301 -137.333 -54.667 -206 -180 -206
c-77.333 0 -132.333 20.667 -165 62c-28.667 36.667 -43 95 -43 175zM182 355.001l130 0.000976562v49c0 27.333 -4.66699 46.666 -14 57.999s-27.333 17 -54 17c-28.667 0 -47 -10.333 -55 -31c-4.66699 -12 -7 -35.333 -7 -70v-23zM190 724.002h102l92 -118h-92l-50 67
l-53 -67h-90zM-106 807.002h132l71 -134h-67z" />
    <glyph glyph-name="glyph315" unicode="&#x1ec2;" 
d="M458 0h-394v750h394v-110h-254v-189h234v-110h-234v-231h254v-110zM206 910h107l97 -124h-97l-53 70l-55 -70h-95zM424 997l-45.001 5.00195c-3.33301 58.667 23.667 88 81 88c23.333 0 41.833 -7.5 55.5 -22.5s20.5 -34.167 20.5 -57.5
c0 -19.333 -9.66699 -41.333 -29 -66c-3.33301 -3.33301 -8 -8.33301 -14 -15s-10.667 -11.667 -14 -15c-9.33301 -12.667 -14 -30.334 -14 -53.001l-52 -5c-4 26 1.66699 49.667 17 71l29 38c10 15.333 15 30 15 44c0 21.333 -7.66699 32 -23 32
c-11.333 0 -18.666 -3 -21.999 -9c-1.33301 -2.66699 -3 -14.334 -5 -35.001z" />
    <glyph glyph-name="glyph316" unicode="&#x1ec3;" 
d="M52 222v148.001c0 139.333 63.333 209 190 209c83.333 0 139.333 -22 168 -66c21.333 -32.667 32 -93.334 32 -182.001v-76h-260v-82c0 -58.667 22.667 -88 68 -88c42.667 0 62.667 35.333 60 106h130c5.33301 -137.333 -54.667 -206 -180 -206
c-77.333 0 -132.333 20.667 -165 62c-28.667 36.667 -43 95 -43 175zM182 355.001l130 0.000976562v49c0 27.333 -4.66699 46.666 -14 57.999s-27.333 17 -54 17c-28.667 0 -47 -10.333 -55 -31c-4.66699 -12 -7 -35.333 -7 -70v-23zM190 724.002h102l92 -118h-92l-51 66
l-52 -66h-90zM397 806.002l-43.001 4.99805c-3.33301 56 22.334 84 77.001 84c22 0 39.5 -7.16699 52.5 -21.5s19.5 -32.5 19.5 -54.5c0 -18.667 -9 -39.667 -27 -63c-3.33301 -3.33301 -7.83301 -8.16602 -13.5 -14.499s-10.167 -11.166 -13.5 -14.499
c-8.66699 -12 -13 -28.667 -13 -50l-49 -5c0 30 5.33301 52.667 16 68l27 36c10 15.333 15 29.333 15 42c0 20 -7.33301 30 -22 30c-10.667 0 -17.667 -3 -21 -9c-1.33301 -2.66699 -3 -13.667 -5 -33z" />
    <glyph glyph-name="glyph317" unicode="&#x1ec4;" 
d="M458 0h-394v750h394v-110h-254v-189h234v-110h-234v-231h254v-110zM206 910h107l97 -124h-97l-53 70l-55 -70h-95zM391 1047l54.001 -0.000976562c-48.667 -69.333 -99.334 -104 -152.001 -104c-8.66699 0 -29.667 6 -63 18c-14 8 -26.333 12 -37 12
c-14.667 0 -34 -12 -58 -36h-51c15.333 26.667 36.333 50.334 63 71.001c30.667 23.333 59.667 35 87 35c15.333 0 33.333 -5 54 -15c12 -6 26.333 -11.333 43 -16c22 -0.666992 42 11 60 35z" />
    <glyph glyph-name="glyph318" unicode="&#x1ec5;" 
d="M52 222v148.001c0 139.333 63.333 209 190 209c83.333 0 139.333 -22 168 -66c21.333 -32.667 32 -93.334 32 -182.001v-76h-260v-82c0 -58.667 22.667 -88 68 -88c42.667 0 62.667 35.333 60 106h130c5.33301 -137.333 -54.667 -206 -180 -206
c-77.333 0 -132.333 20.667 -165 62c-28.667 36.667 -43 95 -43 175zM182 355.001l130 0.000976562v49c0 27.333 -4.66699 46.666 -14 57.999s-27.333 17 -54 17c-28.667 0 -47 -10.333 -55 -31c-4.66699 -12 -7 -35.333 -7 -70v-23zM191 724.002h101l92 -118h-92l-50 67
l-52 -67h-90zM366 854.002h52c-46 -66 -94.333 -99 -145 -99c-10 0 -29.667 5.66699 -59 17c-14 8 -26 12 -36 12c-13.333 0 -31.666 -11.667 -54.999 -35h-48c14.667 24.667 34.667 47 60 67c29.333 22.667 56.666 34 81.999 34c14.667 0 32 -4.66699 52 -14
c10 -4.66699 23.333 -9.66699 40 -15c21.333 -0.666992 40.333 10.333 57 33z" />
    <glyph glyph-name="glyph319" unicode="&#x1ec6;" 
d="M458 0h-394v750h394v-110h-254v-189h234v-110h-234v-231h254v-110zM206 910h107l97 -124h-97l-53 70l-55 -70h-95zM315 -142h-112v102h112v-102z" />
    <glyph glyph-name="glyph320" unicode="&#x1ec7;" 
d="M52 222v148.001c0 139.333 63.333 209 190 209c83.333 0 139.333 -22 168 -66c21.333 -32.667 32 -93.334 32 -182.001v-76h-260v-82c0 -58.667 22.667 -88 68 -88c42.667 0 62.667 35.333 60 106h130c5.33301 -137.333 -54.667 -206 -180 -206
c-77.333 0 -132.333 20.667 -165 62c-28.667 36.667 -43 95 -43 175zM182 355.001l130 0.000976562v49c0 27.333 -4.66699 46.666 -14 57.999s-27.333 17 -54 17c-28.667 0 -47 -10.333 -55 -31c-4.66699 -12 -7 -35.333 -7 -70v-23zM191 724.002h102l92 -118h-92l-51 67
l-52 -67h-90zM312 -144.998h-106v96h106v-96z" />
    <glyph glyph-name="glyph321" unicode="&#x1ec8;" horiz-adv-x="278" 
d="M209 0h-140v750h140v-750zM125 933l-45.001 5.00195c-3.33301 58.667 23.667 88 81 88c23.333 0 41.833 -7.5 55.5 -22.5s20.5 -34.167 20.5 -57.5c0 -19.333 -9.66699 -41.333 -29 -66c-3.33301 -3.33301 -8 -8.33301 -14 -15s-10.667 -11.667 -14 -15
c-9.33301 -12.667 -14 -30.334 -14 -53.001l-52 -5c-4 26 1.66699 49.667 17 71l29 38c10 15.333 15 30 15 44c0 21.333 -7.66699 32 -23 32c-11.333 0 -18.666 -3 -21.999 -9c-1.33301 -2.66699 -3 -14.334 -5 -35.001z" />
    <glyph glyph-name="glyph322" unicode="&#x1ec9;" horiz-adv-x="278" 
d="M204 0h-130v564h130v-564zM122 749l-43.001 4.99805c-3.33301 56 22.334 84 77.001 84c22 0 39.5 -7.16699 52.5 -21.5s19.5 -32.5 19.5 -54.5c0 -18.667 -9 -39.667 -27 -63c-3.33301 -3.33301 -7.83301 -8.16602 -13.5 -14.499s-10.167 -11.166 -13.5 -14.499
c-8.66699 -12 -13 -28.667 -13 -50l-49 -5c0 30 5.33301 52.667 16 68l27 36c10 15.333 15 29.333 15 42c0 20 -7.33301 30 -22 30c-10.667 0 -17.667 -3 -21 -9c-1.33301 -2.66699 -3 -13.667 -5 -33z" />
    <glyph glyph-name="glyph323" unicode="&#x1eca;" horiz-adv-x="278" 
d="M209 0h-140v750h140v-750zM196 -141h-112v102h112v-102z" />
    <glyph glyph-name="glyph324" unicode="&#x1ecb;" horiz-adv-x="278" 
d="M204 0h-130v564h130v-564zM191 -135h-106v96h106v-96zM191 621h-104v94h104v-94z" />
    <glyph glyph-name="glyph325" unicode="&#x1ecc;" horiz-adv-x="611" 
d="M61 328l0.00195312 106.999c0 112 13 191.333 39 238c35.333 63.333 104 95 206 95c102.667 0 171.667 -31.667 207 -95c25.333 -45.333 38 -124.666 38 -237.999v-107c0 -120 -12 -202.667 -36 -248c-34.667 -65.333 -104.334 -98 -209.001 -98
s-174.334 32.667 -209.001 98c-24 45.333 -36 128 -36 248zM205.002 465.999v-208c0 -108.667 33.667 -163 101 -163c44 0 73.333 20.333 88 61c8.66699 24 13 62 13 114v192c0 55.333 -3.66699 95 -11 119c-14.667 49.333 -44.667 74 -90 74c-47.333 0 -78 -24.333 -92 -73
c-6 -21.333 -9 -60 -9 -116zM362.002 -157.001h-112v102h112v-102z" />
    <glyph glyph-name="glyph326" unicode="&#x1ecd;" 
d="M183 372l0.000976562 -187.999c0 -38 3.66699 -63 11 -75c9.33301 -16 28.666 -24 57.999 -24c28 0 46.333 8 55 24c6.66699 12 10 37 10 75v188c0 35.333 -2.66699 59.666 -8 72.999c-9.33301 22.667 -28.333 34 -57 34c-30.667 0 -50.667 -11.333 -60 -34
c-6 -14 -9 -38.333 -9 -73zM252.001 -14.999c-82 0 -136.669 21.667 -164.002 65c-24 37.333 -35.667 108 -35 212c0.666992 118 9.33398 195 26.001 231c26 57.333 83.667 86 173 86c88 0 144.667 -28.667 170 -86c16 -36 24.333 -113 25 -231
c0.666992 -104 -10.666 -174.667 -33.999 -212c-27.333 -43.333 -81 -65 -161 -65zM302.999 -144.999h-106v96h106v-96z" />
    <glyph glyph-name="glyph327" unicode="&#x1ece;" horiz-adv-x="611" 
d="M61 328l0.00195312 106.999c0 112 13 191.333 39 238c35.333 63.333 104 95 206 95c102.667 0 171.667 -31.667 207 -95c25.333 -45.333 38 -124.666 38 -237.999v-107c0 -120 -12 -202.667 -36 -248c-34.667 -65.333 -104.334 -98 -209.001 -98
s-174.334 32.667 -209.001 98c-24 45.333 -36 128 -36 248zM205.002 465.999v-208c0 -108.667 33.667 -163 101 -163c44 0 73.333 20.333 88 61c8.66699 24 13 62 13 114v192c0 55.333 -3.66699 95 -11 119c-14.667 49.333 -44.667 74 -90 74c-47.333 0 -78 -24.333 -92 -73
c-6 -21.333 -9 -60 -9 -116zM289.002 951.999l-45.001 5.00195c-3.33301 58.667 23.667 88 81 88c23.333 0 41.833 -7.5 55.5 -22.5s20.5 -34.167 20.5 -57.5c0 -19.333 -9.66699 -41.333 -29 -66c-3.33301 -3.33301 -8 -8.33301 -14 -15s-10.667 -11.667 -14 -15
c-9.33301 -12.667 -14 -30.334 -14 -53.001l-52 -5c-4 26 1.66699 49.667 17 71l29 38c10 15.333 15 30 15 44c0 21.333 -7.66699 32 -23 32c-11.333 0 -18.666 -3 -21.999 -9c-1.33301 -2.66699 -3 -14.334 -5 -35.001z" />
    <glyph glyph-name="glyph328" unicode="&#x1ecf;" 
d="M183 372l0.000976562 -187.999c0 -38 3.66699 -63 11 -75c9.33301 -16 28.666 -24 57.999 -24c28 0 46.333 8 55 24c6.66699 12 10 37 10 75v188c0 35.333 -2.66699 59.666 -8 72.999c-9.33301 22.667 -28.333 34 -57 34c-30.667 0 -50.667 -11.333 -60 -34
c-6 -14 -9 -38.333 -9 -73zM252.001 -14.999c-82 0 -136.669 21.667 -164.002 65c-24 37.333 -35.667 108 -35 212c0.666992 118 9.33398 195 26.001 231c26 57.333 83.667 86 173 86c88 0 144.667 -28.667 170 -86c16 -36 24.333 -113 25 -231
c0.666992 -104 -10.666 -174.667 -33.999 -212c-27.333 -43.333 -81 -65 -161 -65zM235.999 759.001l-43.001 4.99805c-3.33301 56 22.334 84 77.001 84c22 0 39.5 -7.16699 52.5 -21.5s19.5 -32.5 19.5 -54.5c0 -18.667 -9 -39.667 -27 -63
c-3.33301 -3.33301 -7.83301 -8.16602 -13.5 -14.499s-10.167 -11.166 -13.5 -14.499c-8.66699 -12 -13 -28.667 -13 -50l-49 -5c0 30 5.33301 52.667 16 68l27 36c10 15.333 15 29.333 15 42c0 20 -7.33301 30 -22 30c-10.667 0 -17.667 -3 -21 -9
c-1.33301 -2.66699 -3 -13.667 -5 -33z" />
    <glyph glyph-name="glyph329" unicode="&#x1ed0;" horiz-adv-x="611" 
d="M61 328l0.00195312 106.999c0 112 13 191.333 39 238c35.333 63.333 104 95 206 95c102.667 0 171.667 -31.667 207 -95c25.333 -45.333 38 -124.666 38 -237.999v-107c0 -120 -12 -202.667 -36 -248c-34.667 -65.333 -104.334 -98 -209.001 -98
s-174.334 32.667 -209.001 98c-24 45.333 -36 128 -36 248zM205.002 465.999v-208c0 -108.667 33.667 -163 101 -163c44 0 73.333 20.333 88 61c8.66699 24 13 62 13 114v192c0 55.333 -3.66699 95 -11 119c-14.667 49.333 -44.667 74 -90 74c-47.333 0 -78 -24.333 -92 -73
c-6 -21.333 -9 -60 -9 -116zM252.002 918.999h107l97 -124h-97l-53 70l-55 -70h-95zM460.002 864.999l75 142h139l-143 -142h-71z" />
    <glyph glyph-name="glyph330" unicode="&#x1ed1;" 
d="M183 372l0.000976562 -187.999c0 -38 3.66699 -63 11 -75c9.33301 -16 28.666 -24 57.999 -24c28 0 46.333 8 55 24c6.66699 12 10 37 10 75v188c0 35.333 -2.66699 59.666 -8 72.999c-9.33301 22.667 -28.333 34 -57 34c-30.667 0 -50.667 -11.333 -60 -34
c-6 -14 -9 -38.333 -9 -73zM252.001 -14.999c-82 0 -136.669 21.667 -164.002 65c-24 37.333 -35.667 108 -35 212c0.666992 118 9.33398 195 26.001 231c26 57.333 83.667 86 173 86c88 0 144.667 -28.667 170 -86c16 -36 24.333 -113 25 -231
c0.666992 -104 -10.666 -174.667 -33.999 -212c-27.333 -43.333 -81 -65 -161 -65zM200.999 724.001h102l92 -118h-92l-51 67l-52 -67h-90zM398.999 673.001l71 134h132l-136 -134h-67z" />
    <glyph glyph-name="glyph331" unicode="&#x1ed2;" horiz-adv-x="611" 
d="M61 328l0.00195312 106.999c0 112 13 191.333 39 238c35.333 63.333 104 95 206 95c102.667 0 171.667 -31.667 207 -95c25.333 -45.333 38 -124.666 38 -237.999v-107c0 -120 -12 -202.667 -36 -248c-34.667 -65.333 -104.334 -98 -209.001 -98
s-174.334 32.667 -209.001 98c-24 45.333 -36 128 -36 248zM205.002 465.999v-208c0 -108.667 33.667 -163 101 -163c44 0 73.333 20.333 88 61c8.66699 24 13 62 13 114v192c0 55.333 -3.66699 95 -11 119c-14.667 49.333 -44.667 74 -90 74c-47.333 0 -78 -24.333 -92 -73
c-6 -21.333 -9 -60 -9 -116zM252.002 919.999h107l97 -124h-97l-53 70l-55 -70h-95zM-59.998 1008h139l75 -142h-71z" />
    <glyph glyph-name="glyph332" unicode="&#x1ed3;" 
d="M183 372l0.000976562 -187.999c0 -38 3.66699 -63 11 -75c9.33301 -16 28.666 -24 57.999 -24c28 0 46.333 8 55 24c6.66699 12 10 37 10 75v188c0 35.333 -2.66699 59.666 -8 72.999c-9.33301 22.667 -28.333 34 -57 34c-30.667 0 -50.667 -11.333 -60 -34
c-6 -14 -9 -38.333 -9 -73zM252.001 -14.999c-82 0 -136.669 21.667 -164.002 65c-24 37.333 -35.667 108 -35 212c0.666992 118 9.33398 195 26.001 231c26 57.333 83.667 86 173 86c88 0 144.667 -28.667 170 -86c16 -36 24.333 -113 25 -231
c0.666992 -104 -10.666 -174.667 -33.999 -212c-27.333 -43.333 -81 -65 -161 -65zM199.999 724.001h102l92 -118h-92l-50 67l-53 -67h-90zM-96.001 807.001h132l71 -134h-67z" />
    <glyph glyph-name="glyph333" unicode="&#x1ed4;" horiz-adv-x="611" 
d="M61 328l0.00195312 106.999c0 112 13 191.333 39 238c35.333 63.333 104 95 206 95c102.667 0 171.667 -31.667 207 -95c25.333 -45.333 38 -124.666 38 -237.999v-107c0 -120 -12 -202.667 -36 -248c-34.667 -65.333 -104.334 -98 -209.001 -98
s-174.334 32.667 -209.001 98c-24 45.333 -36 128 -36 248zM205.002 465.999v-208c0 -108.667 33.667 -163 101 -163c44 0 73.333 20.333 88 61c8.66699 24 13 62 13 114v192c0 55.333 -3.66699 95 -11 119c-14.667 49.333 -44.667 74 -90 74c-47.333 0 -78 -24.333 -92 -73
c-6 -21.333 -9 -60 -9 -116zM252.002 919.999h107l97 -124h-97l-53 70l-55 -70h-95zM470.002 1007l-45.001 5.00195c-3.33301 58.667 23.667 88 81 88c23.333 0 41.833 -7.5 55.5 -22.5s20.5 -34.167 20.5 -57.5c0 -19.333 -9.66699 -41.333 -29 -66
c-3.33301 -3.33301 -8 -8.33301 -14 -15s-10.667 -11.667 -14 -15c-9.33301 -12.667 -14 -30.334 -14 -53.001l-52 -5c-4 26 1.66699 49.667 17 71l29 38c10 15.333 15 30 15 44c0 21.333 -7.66699 32 -23 32c-11.333 0 -18.666 -3 -21.999 -9
c-1.33301 -2.66699 -3 -14.334 -5 -35.001z" />
    <glyph glyph-name="glyph334" unicode="&#x1ed5;" 
d="M183 372l0.000976562 -187.999c0 -38 3.66699 -63 11 -75c9.33301 -16 28.666 -24 57.999 -24c28 0 46.333 8 55 24c6.66699 12 10 37 10 75v188c0 35.333 -2.66699 59.666 -8 72.999c-9.33301 22.667 -28.333 34 -57 34c-30.667 0 -50.667 -11.333 -60 -34
c-6 -14 -9 -38.333 -9 -73zM252.001 -14.999c-82 0 -136.669 21.667 -164.002 65c-24 37.333 -35.667 108 -35 212c0.666992 118 9.33398 195 26.001 231c26 57.333 83.667 86 173 86c88 0 144.667 -28.667 170 -86c16 -36 24.333 -113 25 -231
c0.666992 -104 -10.666 -174.667 -33.999 -212c-27.333 -43.333 -81 -65 -161 -65zM199.999 724.001h102l92 -118h-92l-51 66l-52 -66h-90zM406.999 806.001l-43.001 4.99805c-3.33301 56 22.334 84 77.001 84c22 0 39.5 -7.16699 52.5 -21.5s19.5 -32.5 19.5 -54.5
c0 -18.667 -9 -39.667 -27 -63c-3.33301 -3.33301 -7.83301 -8.16602 -13.5 -14.499s-10.167 -11.166 -13.5 -14.499c-8.66699 -12 -13 -28.667 -13 -50l-49 -5c0 30 5.33301 52.667 16 68l27 36c10 15.333 15 29.333 15 42c0 20 -7.33301 30 -22 30
c-10.667 0 -17.667 -3 -21 -9c-1.33301 -2.66699 -3 -13.667 -5 -33z" />
    <glyph glyph-name="glyph335" unicode="&#x1ed6;" horiz-adv-x="611" 
d="M61 328l0.00195312 106.999c0 112 13 191.333 39 238c35.333 63.333 104 95 206 95c102.667 0 171.667 -31.667 207 -95c25.333 -45.333 38 -124.666 38 -237.999v-107c0 -120 -12 -202.667 -36 -248c-34.667 -65.333 -104.334 -98 -209.001 -98
s-174.334 32.667 -209.001 98c-24 45.333 -36 128 -36 248zM205.002 465.999v-208c0 -108.667 33.667 -163 101 -163c44 0 73.333 20.333 88 61c8.66699 24 13 62 13 114v192c0 55.333 -3.66699 95 -11 119c-14.667 49.333 -44.667 74 -90 74c-47.333 0 -78 -24.333 -92 -73
c-6 -21.333 -9 -60 -9 -116zM252.002 918.999h107l97 -124h-97l-53 70l-55 -70h-95zM437.002 1056l54.001 -0.000976562c-48.667 -69.333 -99.334 -104 -152.001 -104c-8.66699 0 -29.667 6 -63 18c-14 8 -26.333 12 -37 12c-14.667 0 -34 -12 -58 -36h-51
c15.333 26.667 36.333 50.334 63 71.001c30.667 23.333 59.667 35 87 35c15.333 0 33.333 -5 54 -15c12 -6 26.333 -11.333 43 -16c22 -0.666992 42 11 60 35z" />
    <glyph glyph-name="glyph336" unicode="&#x1ed7;" 
d="M183 372l0.000976562 -187.999c0 -38 3.66699 -63 11 -75c9.33301 -16 28.666 -24 57.999 -24c28 0 46.333 8 55 24c6.66699 12 10 37 10 75v188c0 35.333 -2.66699 59.666 -8 72.999c-9.33301 22.667 -28.333 34 -57 34c-30.667 0 -50.667 -11.333 -60 -34
c-6 -14 -9 -38.333 -9 -73zM252.001 -14.999c-82 0 -136.669 21.667 -164.002 65c-24 37.333 -35.667 108 -35 212c0.666992 118 9.33398 195 26.001 231c26 57.333 83.667 86 173 86c88 0 144.667 -28.667 170 -86c16 -36 24.333 -113 25 -231
c0.666992 -104 -10.666 -174.667 -33.999 -212c-27.333 -43.333 -81 -65 -161 -65zM200.999 724.001h101l92 -118h-92l-50 67l-52 -67h-90zM375.999 854.001h52c-46 -66 -94.333 -99 -145 -99c-10 0 -29.667 5.66699 -59 17c-14 8 -26 12 -36 12
c-13.333 0 -31.666 -11.667 -54.999 -35h-48c14.667 24.667 34.667 47 60 67c29.333 22.667 56.666 34 81.999 34c14.667 0 32 -4.66699 52 -14c10 -4.66699 23.333 -9.66699 40 -15c21.333 -0.666992 40.333 10.333 57 33z" />
    <glyph glyph-name="glyph337" unicode="&#x1ed8;" horiz-adv-x="611" 
d="M61 328l0.00195312 106.999c0 112 13 191.333 39 238c35.333 63.333 104 95 206 95c102.667 0 171.667 -31.667 207 -95c25.333 -45.333 38 -124.666 38 -237.999v-107c0 -120 -12 -202.667 -36 -248c-34.667 -65.333 -104.334 -98 -209.001 -98
s-174.334 32.667 -209.001 98c-24 45.333 -36 128 -36 248zM205.002 465.999v-208c0 -108.667 33.667 -163 101 -163c44 0 73.333 20.333 88 61c8.66699 24 13 62 13 114v192c0 55.333 -3.66699 95 -11 119c-14.667 49.333 -44.667 74 -90 74c-47.333 0 -78 -24.333 -92 -73
c-6 -21.333 -9 -60 -9 -116zM252.002 918.999h107l97 -124h-97l-53 70l-55 -70h-95zM362.002 -157.001h-112v102h112v-102z" />
    <glyph glyph-name="glyph338" unicode="&#x1ed9;" 
d="M183 372l0.000976562 -187.999c0 -38 3.66699 -63 11 -75c9.33301 -16 28.666 -24 57.999 -24c28 0 46.333 8 55 24c6.66699 12 10 37 10 75v188c0 35.333 -2.66699 59.666 -8 72.999c-9.33301 22.667 -28.333 34 -57 34c-30.667 0 -50.667 -11.333 -60 -34
c-6 -14 -9 -38.333 -9 -73zM252.001 -14.999c-82 0 -136.669 21.667 -164.002 65c-24 37.333 -35.667 108 -35 212c0.666992 118 9.33398 195 26.001 231c26 57.333 83.667 86 173 86c88 0 144.667 -28.667 170 -86c16 -36 24.333 -113 25 -231
c0.666992 -104 -10.666 -174.667 -33.999 -212c-27.333 -43.333 -81 -65 -161 -65zM200.999 724.001h102l92 -118h-92l-51 67l-52 -67h-90zM302.999 -144.999h-106v96h106v-96z" />
    <glyph glyph-name="glyph339" unicode="&#x1eda;" horiz-adv-x="611" 
d="M205 466v-208c0 -108.667 33.667 -163 101 -163c44 0 73.333 20.333 88 61c8.66699 24 13 62 13 114v192c0 55.333 -3.66699 95 -11 119c-14.667 49.333 -44.667 74 -90 74c-47.333 0 -78 -24.333 -92 -73c-6 -21.333 -9 -60 -9 -116zM428 747l64.002 -2v-1
c13.333 4 20 13 20 27c0 10.667 -6.66699 17 -20 19c-2.66699 0.666992 -13.334 -1 -32.001 -5l12 47c12.667 3.33301 27 3.66602 43 0.999023c33.333 -5.33301 50 -21.666 50 -48.999c0 -28 -25.667 -54.333 -77 -79c42 -47.333 63 -137.333 63 -270v-107
c0 -120 -12 -202.667 -36 -248c-34.667 -65.333 -104.334 -98 -209.001 -98s-174.334 32.667 -209.001 98c-24 45.333 -36 128 -36 248v107c0 112 13 191.333 39 238c35.333 63.333 104 95 206 95c50.667 0 91.334 -7 122.001 -21zM269.002 822l75 142h139l-143 -142h-71z
" />
    <glyph glyph-name="glyph340" unicode="&#x1edb;" 
d="M183 372l0.000976562 -187.999c0 -38 3.66699 -63 11 -75c9.33301 -16 28.666 -24 57.999 -24c28 0 46.333 8 55 24c6.66699 12 10 37 10 75v188c0 35.333 -2.66699 59.666 -8 72.999c-9.33301 22.667 -28.333 34 -57 34c-30.667 0 -50.667 -11.333 -60 -34
c-6 -14 -9 -38.333 -9 -73zM367.001 554.001l41 -0.998047v-1c13.333 4 20 13 20 27c0 10.667 -6.66699 17 -20 19c-2.66699 0.666992 -13.334 -1 -32.001 -5l12 47c12.667 3.33301 27 3.66602 43 0.999023c33.333 -5.33301 50 -21.666 50 -48.999
c0 -28.667 -24.333 -53.334 -73 -74.001h-1c17.333 -24.667 28.666 -60.334 33.999 -107.001c3.33301 -30 5.33301 -79.667 6 -149c0.666992 -104 -10.666 -174.667 -33.999 -212c-27.333 -43.333 -81 -65 -161 -65c-82 0 -136.667 21.667 -164 65
c-24 37.333 -35.667 108 -35 212c0.666992 118 9.33398 195 26.001 231c26 57.333 83.667 86 173 86c48.667 0 87 -8.33301 115 -25zM217.001 635.003l71 134h132l-136 -134h-67z" />
    <glyph glyph-name="glyph341" unicode="&#x1edc;" horiz-adv-x="611" 
d="M205 466v-208c0 -108.667 33.667 -163 101 -163c44 0 73.333 20.333 88 61c8.66699 24 13 62 13 114v192c0 55.333 -3.66699 95 -11 119c-14.667 49.333 -44.667 74 -90 74c-47.333 0 -78 -24.333 -92 -73c-6 -21.333 -9 -60 -9 -116zM428 747l64.002 -2v-1
c13.333 4 20 13 20 27c0 10.667 -6.66699 17 -20 19c-2.66699 0.666992 -13.334 -1 -32.001 -5l12 47c12.667 3.33301 27 3.66602 43 0.999023c33.333 -5.33301 50 -21.666 50 -48.999c0 -28 -25.667 -54.333 -77 -79c42 -47.333 63 -137.333 63 -270v-107
c0 -120 -12 -202.667 -36 -248c-34.667 -65.333 -104.334 -98 -209.001 -98s-174.334 32.667 -209.001 98c-24 45.333 -36 128 -36 248v107c0 112 13 191.333 39 238c35.333 63.333 104 95 206 95c50.667 0 91.334 -7 122.001 -21zM127.002 964h139l75 -142h-71z" />
    <glyph glyph-name="glyph342" unicode="&#x1edd;" 
d="M183 372l0.000976562 -187.999c0 -38 3.66699 -63 11 -75c9.33301 -16 28.666 -24 57.999 -24c28 0 46.333 8 55 24c6.66699 12 10 37 10 75v188c0 35.333 -2.66699 59.666 -8 72.999c-9.33301 22.667 -28.333 34 -57 34c-30.667 0 -50.667 -11.333 -60 -34
c-6 -14 -9 -38.333 -9 -73zM367.001 554.001l41 -0.998047v-1c13.333 4 20 13 20 27c0 10.667 -6.66699 17 -20 19c-2.66699 0.666992 -13.334 -1 -32.001 -5l12 47c12.667 3.33301 27 3.66602 43 0.999023c33.333 -5.33301 50 -21.666 50 -48.999
c0 -28.667 -24.333 -53.334 -73 -74.001h-1c17.333 -24.667 28.666 -60.334 33.999 -107.001c3.33301 -30 5.33301 -79.667 6 -149c0.666992 -104 -10.666 -174.667 -33.999 -212c-27.333 -43.333 -81 -65 -161 -65c-82 0 -136.667 21.667 -164 65
c-24 37.333 -35.667 108 -35 212c0.666992 118 9.33398 195 26.001 231c26 57.333 83.667 86 173 86c48.667 0 87 -8.33301 115 -25zM83.001 769.003h132l71 -134h-67z" />
    <glyph glyph-name="glyph343" unicode="&#x1ede;" horiz-adv-x="611" 
d="M205 466v-208c0 -108.667 33.667 -163 101 -163c44 0 73.333 20.333 88 61c8.66699 24 13 62 13 114v192c0 55.333 -3.66699 95 -11 119c-14.667 49.333 -44.667 74 -90 74c-47.333 0 -78 -24.333 -92 -73c-6 -21.333 -9 -60 -9 -116zM428 747l64.002 -2v-1
c13.333 4 20 13 20 27c0 10.667 -6.66699 17 -20 19c-2.66699 0.666992 -13.334 -1 -32.001 -5l12 47c12.667 3.33301 27 3.66602 43 0.999023c33.333 -5.33301 50 -21.666 50 -48.999c0 -28 -25.667 -54.333 -77 -79c42 -47.333 63 -137.333 63 -270v-107
c0 -120 -12 -202.667 -36 -248c-34.667 -65.333 -104.334 -98 -209.001 -98s-174.334 32.667 -209.001 98c-24 45.333 -36 128 -36 248v107c0 112 13 191.333 39 238c35.333 63.333 104 95 206 95c50.667 0 91.334 -7 122.001 -21zM289.002 952l-45.001 5.00195
c-3.33301 58.667 23.667 88 81 88c23.333 0 41.833 -7.5 55.5 -22.5s20.5 -34.167 20.5 -57.5c0 -19.333 -9.66699 -41.333 -29 -66c-3.33301 -3.33301 -8 -8.33301 -14 -15s-10.667 -11.667 -14 -15c-9.33301 -12.667 -14 -30.334 -14 -53.001l-52 -5
c-4 26 1.66699 49.667 17 71l29 38c10 15.333 15 30 15 44c0 21.333 -7.66699 32 -23 32c-11.333 0 -18.666 -3 -21.999 -9c-1.33301 -2.66699 -3 -14.334 -5 -35.001z" />
    <glyph glyph-name="glyph344" unicode="&#x1edf;" 
d="M183 372l0.000976562 -187.999c0 -38 3.66699 -63 11 -75c9.33301 -16 28.666 -24 57.999 -24c28 0 46.333 8 55 24c6.66699 12 10 37 10 75v188c0 35.333 -2.66699 59.666 -8 72.999c-9.33301 22.667 -28.333 34 -57 34c-30.667 0 -50.667 -11.333 -60 -34
c-6 -14 -9 -38.333 -9 -73zM367.001 554.001l41 -0.998047v-1c13.333 4 20 13 20 27c0 10.667 -6.66699 17 -20 19c-2.66699 0.666992 -13.334 -1 -32.001 -5l12 47c12.667 3.33301 27 3.66602 43 0.999023c33.333 -5.33301 50 -21.666 50 -48.999
c0 -28.667 -24.333 -53.334 -73 -74.001h-1c17.333 -24.667 28.666 -60.334 33.999 -107.001c3.33301 -30 5.33301 -79.667 6 -149c0.666992 -104 -10.666 -174.667 -33.999 -212c-27.333 -43.333 -81 -65 -161 -65c-82 0 -136.667 21.667 -164 65
c-24 37.333 -35.667 108 -35 212c0.666992 118 9.33398 195 26.001 231c26 57.333 83.667 86 173 86c48.667 0 87 -8.33301 115 -25zM236.001 759.003l-43.001 4.99805c-3.33301 56 22.334 84 77.001 84c22 0 39.5 -7.16699 52.5 -21.5s19.5 -32.5 19.5 -54.5
c0 -18.667 -9 -39.667 -27 -63c-3.33301 -3.33301 -7.83301 -8.16602 -13.5 -14.499s-10.167 -11.166 -13.5 -14.499c-8.66699 -12 -13 -28.667 -13 -50l-49 -5c0 30 5.33301 52.667 16 68l27 36c10 15.333 15 29.333 15 42c0 20 -7.33301 30 -22 30
c-10.667 0 -17.667 -3 -21 -9c-1.33301 -2.66699 -3 -13.667 -5 -33z" />
    <glyph glyph-name="glyph345" unicode="&#x1ee0;" horiz-adv-x="611" 
d="M205 466v-208c0 -108.667 33.667 -163 101 -163c44 0 73.333 20.333 88 61c8.66699 24 13 62 13 114v192c0 55.333 -3.66699 95 -11 119c-14.667 49.333 -44.667 74 -90 74c-47.333 0 -78 -24.333 -92 -73c-6 -21.333 -9 -60 -9 -116zM428 747l64.002 -2v-1
c13.333 4 20 13 20 27c0 10.667 -6.66699 17 -20 19c-2.66699 0.666992 -13.334 -1 -32.001 -5l12 47c12.667 3.33301 27 3.66602 43 0.999023c33.333 -5.33301 50 -21.666 50 -48.999c0 -28 -25.667 -54.333 -77 -79c42 -47.333 63 -137.333 63 -270v-107
c0 -120 -12 -202.667 -36 -248c-34.667 -65.333 -104.334 -98 -209.001 -98s-174.334 32.667 -209.001 98c-24 45.333 -36 128 -36 248v107c0 112 13 191.333 39 238c35.333 63.333 104 95 206 95c50.667 0 91.334 -7 122.001 -21zM437.002 931l54.001 -0.000976562
c-48.667 -69.333 -99.334 -104 -152.001 -104c-8.66699 0 -29.667 6 -63 18c-14 8 -26.333 12 -37 12c-14.667 0 -34 -12 -58 -36h-51c15.333 26.667 36.333 50.334 63 71.001c30.667 23.333 59.667 35 87 35c15.333 0 33.333 -5 54 -15c12 -6 26.333 -11.333 43 -16
c22 -0.666992 42 11 60 35z" />
    <glyph glyph-name="glyph346" unicode="&#x1ee1;" 
d="M183 372l0.000976562 -187.999c0 -38 3.66699 -63 11 -75c9.33301 -16 28.666 -24 57.999 -24c28 0 46.333 8 55 24c6.66699 12 10 37 10 75v188c0 35.333 -2.66699 59.666 -8 72.999c-9.33301 22.667 -28.333 34 -57 34c-30.667 0 -50.667 -11.333 -60 -34
c-6 -14 -9 -38.333 -9 -73zM367.001 554.001l41 -0.998047v-1c13.333 4 20 13 20 27c0 10.667 -6.66699 17 -20 19c-2.66699 0.666992 -13.334 -1 -32.001 -5l12 47c12.667 3.33301 27 3.66602 43 0.999023c33.333 -5.33301 50 -21.666 50 -48.999
c0 -28.667 -24.333 -53.334 -73 -74.001h-1c17.333 -24.667 28.666 -60.334 33.999 -107.001c3.33301 -30 5.33301 -79.667 6 -149c0.666992 -104 -10.666 -174.667 -33.999 -212c-27.333 -43.333 -81 -65 -161 -65c-82 0 -136.667 21.667 -164 65
c-24 37.333 -35.667 108 -35 212c0.666992 118 9.33398 195 26.001 231c26 57.333 83.667 86 173 86c48.667 0 87 -8.33301 115 -25zM376.001 740.003h52c-46 -66 -94.333 -99 -145 -99c-10 0 -29.667 5.66699 -59 17c-14 8 -26 12 -36 12
c-13.333 0 -31.666 -11.667 -54.999 -35h-48c14.667 24.667 34.667 47 60 67c29.333 22.667 56.666 34 81.999 34c14.667 0 32 -4.66699 52 -14c10 -4.66699 23.333 -9.66699 40 -15c21.333 -0.666992 40.333 10.333 57 33z" />
    <glyph glyph-name="glyph347" unicode="&#x1ee2;" horiz-adv-x="611" 
d="M205 466v-208c0 -108.667 33.667 -163 101 -163c44 0 73.333 20.333 88 61c8.66699 24 13 62 13 114v192c0 55.333 -3.66699 95 -11 119c-14.667 49.333 -44.667 74 -90 74c-47.333 0 -78 -24.333 -92 -73c-6 -21.333 -9 -60 -9 -116zM428 747l64.002 -2v-1
c13.333 4 20 13 20 27c0 10.667 -6.66699 17 -20 19c-2.66699 0.666992 -13.334 -1 -32.001 -5l12 47c12.667 3.33301 27 3.66602 43 0.999023c33.333 -5.33301 50 -21.666 50 -48.999c0 -28 -25.667 -54.333 -77 -79c42 -47.333 63 -137.333 63 -270v-107
c0 -120 -12 -202.667 -36 -248c-34.667 -65.333 -104.334 -98 -209.001 -98s-174.334 32.667 -209.001 98c-24 45.333 -36 128 -36 248v107c0 112 13 191.333 39 238c35.333 63.333 104 95 206 95c50.667 0 91.334 -7 122.001 -21zM362.002 -157h-112v102h112v-102z" />
    <glyph glyph-name="glyph348" unicode="&#x1ee3;" 
d="M183 372l0.000976562 -187.999c0 -38 3.66699 -63 11 -75c9.33301 -16 28.666 -24 57.999 -24c28 0 46.333 8 55 24c6.66699 12 10 37 10 75v188c0 35.333 -2.66699 59.666 -8 72.999c-9.33301 22.667 -28.333 34 -57 34c-30.667 0 -50.667 -11.333 -60 -34
c-6 -14 -9 -38.333 -9 -73zM367.001 554.001l41 -0.998047v-1c13.333 4 20 13 20 27c0 10.667 -6.66699 17 -20 19c-2.66699 0.666992 -13.334 -1 -32.001 -5l12 47c12.667 3.33301 27 3.66602 43 0.999023c33.333 -5.33301 50 -21.666 50 -48.999
c0 -28.667 -24.333 -53.334 -73 -74.001h-1c17.333 -24.667 28.666 -60.334 33.999 -107.001c3.33301 -30 5.33301 -79.667 6 -149c0.666992 -104 -10.666 -174.667 -33.999 -212c-27.333 -43.333 -81 -65 -161 -65c-82 0 -136.667 21.667 -164 65
c-24 37.333 -35.667 108 -35 212c0.666992 118 9.33398 195 26.001 231c26 57.333 83.667 86 173 86c48.667 0 87 -8.33301 115 -25zM303.001 -144.997h-106v96h106v-96z" />
    <glyph glyph-name="glyph349" unicode="&#x1ee4;" horiz-adv-x="611" 
d="M404 239v510.999h140v-523c0 -87.333 -17.333 -149.666 -52 -186.999c-36.667 -38.667 -98.334 -58 -185.001 -58c-88 0 -149.833 18.833 -185.5 56.5s-53.5 100.5 -53.5 188.5v523h140v-511c0 -46.667 4.66699 -79.667 14 -99c14.667 -30 43.334 -45 86.001 -45
c40.667 0 68 15 82 45c9.33301 20 14 53 14 99zM362 -157.001h-112v102h112v-102z" />
    <glyph glyph-name="glyph350" unicode="&#x1ee5;" 
d="M307 0l-0.000976562 84h-2c-19.333 -65.333 -59.666 -98.333 -120.999 -99c-48.667 0 -82.667 12.667 -102 38c-16 22 -24 58.333 -24 109v432h130v-386c0 -36.667 4.33301 -61.667 13 -75c11.333 -12 24.666 -18 39.999 -18c26.667 0 44.334 13.333 53.001 40
c4.66699 14.667 7 39 7 73v366h130v-564h-124zM296.999 -140h-106v96h106v-96z" />
    <glyph glyph-name="glyph351" unicode="&#x1ee6;" horiz-adv-x="611" 
d="M404 239v510.999h140v-523c0 -87.333 -17.333 -149.666 -52 -186.999c-36.667 -38.667 -98.334 -58 -185.001 -58c-88 0 -149.833 18.833 -185.5 56.5s-53.5 100.5 -53.5 188.5v523h140v-511c0 -46.667 4.66699 -79.667 14 -99c14.667 -30 43.334 -45 86.001 -45
c40.667 0 68 15 82 45c9.33301 20 14 53 14 99zM289 925.999l-45.001 5.00195c-3.33301 58.667 23.667 88 81 88c23.333 0 41.833 -7.5 55.5 -22.5s20.5 -34.167 20.5 -57.5c0 -19.333 -9.66699 -41.333 -29 -66c-3.33301 -3.33301 -8 -8.33301 -14 -15
s-10.667 -11.667 -14 -15c-9.33301 -12.667 -14 -30.334 -14 -53.001l-52 -5c-4 26 1.66699 49.667 17 71l29 38c10 15.333 15 30 15 44c0 21.333 -7.66699 32 -23 32c-11.333 0 -18.666 -3 -21.999 -9c-1.33301 -2.66699 -3 -14.334 -5 -35.001z" />
    <glyph glyph-name="glyph352" unicode="&#x1ee7;" 
d="M307 0l-0.000976562 84h-2c-19.333 -65.333 -59.666 -98.333 -120.999 -99c-48.667 0 -82.667 12.667 -102 38c-16 22 -24 58.333 -24 109v432h130v-386c0 -36.667 4.33301 -61.667 13 -75c11.333 -12 24.666 -18 39.999 -18c26.667 0 44.334 13.333 53.001 40
c4.66699 14.667 7 39 7 73v366h130v-564h-124zM227.999 749l-43.001 4.99805c-3.33301 56 22.334 84 77.001 84c22 0 39.5 -7.16699 52.5 -21.5s19.5 -32.5 19.5 -54.5c0 -18.667 -9 -39.667 -27 -63c-3.33301 -3.33301 -7.83301 -8.16602 -13.5 -14.499
s-10.167 -11.166 -13.5 -14.499c-8.66699 -12 -13 -28.667 -13 -50l-49 -5c0 30 5.33301 52.667 16 68l27 36c10 15.333 15 29.333 15 42c0 20 -7.33301 30 -22 30c-10.667 0 -17.667 -3 -21 -9c-1.33301 -2.66699 -3 -13.667 -5 -33z" />
    <glyph glyph-name="glyph353" unicode="&#x1ee8;" horiz-adv-x="611" 
d="M544 710l0.000976562 -483c0 -87.333 -17.333 -149.666 -52 -186.999c-36.667 -38.667 -98.334 -58 -185.001 -58c-88 0 -149.833 18.833 -185.5 56.5s-53.5 100.5 -53.5 188.5v523h140v-511c0 -46.667 4.66699 -79.667 14 -99c14.667 -30 43.334 -45 86.001 -45
c40.667 0 68 15 82 45c9.33301 20 14 53 14 99v511l140 -5v-1c13.333 4 20 13 20 27c0 10.667 -6.66699 17 -20 19c-2.66699 0.666992 -13.334 -1 -32.001 -5l12 47c12.667 3.33301 27 3.66602 43 0.999023c33.333 -5.33301 50 -21.666 50 -48.999
c0 -28.667 -24.333 -53.334 -73 -74.001zM269.001 792l75 142h139l-143 -142h-71z" />
    <glyph glyph-name="glyph354" unicode="&#x1ee9;" 
d="M431 557c5.33301 1.33301 11.667 5.33496 19 12.002c0.666992 3.33301 1 6.66602 1 9.99902c0 10.667 -6.66699 17 -20 19c-2.66699 0.666992 -13.334 -1 -32.001 -5l12 47c12.667 3.33301 27 3.66602 43 0.999023c33.333 -5.33301 50 -21.666 50 -48.999
c0 -28.667 -24.333 -53.334 -73 -74.001v-518h-124v84h-2c-19.333 -65.333 -59.666 -98.333 -120.999 -99c-48.667 0 -82.667 12.667 -102 38c-16 22 -24 58.333 -24 109v432h130v-386c0 -36.667 4.33301 -61.667 13 -75c11.333 -12 24.666 -18 39.999 -18
c26.667 0 44.334 13.333 53.001 40c4.66699 14.667 7 39 7 73v366l130 -5v-2zM209.001 620.002l71 134h132l-136 -134h-67z" />
    <glyph glyph-name="glyph355" unicode="&#x1eea;" horiz-adv-x="611" 
d="M544 710l0.000976562 -483c0 -87.333 -17.333 -149.666 -52 -186.999c-36.667 -38.667 -98.334 -58 -185.001 -58c-88 0 -149.833 18.833 -185.5 56.5s-53.5 100.5 -53.5 188.5v523h140v-511c0 -46.667 4.66699 -79.667 14 -99c14.667 -30 43.334 -45 86.001 -45
c40.667 0 68 15 82 45c9.33301 20 14 53 14 99v511l140 -5v-1c13.333 4 20 13 20 27c0 10.667 -6.66699 17 -20 19c-2.66699 0.666992 -13.334 -1 -32.001 -5l12 47c12.667 3.33301 27 3.66602 43 0.999023c33.333 -5.33301 50 -21.666 50 -48.999
c0 -28.667 -24.333 -53.334 -73 -74.001zM127.001 934h139l75 -142h-71z" />
    <glyph glyph-name="glyph356" unicode="&#x1eeb;" 
d="M431 557c5.33301 1.33301 11.667 5.33496 19 12.002c0.666992 3.33301 1 6.66602 1 9.99902c0 10.667 -6.66699 17 -20 19c-2.66699 0.666992 -13.334 -1 -32.001 -5l12 47c12.667 3.33301 27 3.66602 43 0.999023c33.333 -5.33301 50 -21.666 50 -48.999
c0 -28.667 -24.333 -53.334 -73 -74.001v-518h-124v84h-2c-19.333 -65.333 -59.666 -98.333 -120.999 -99c-48.667 0 -82.667 12.667 -102 38c-16 22 -24 58.333 -24 109v432h130v-386c0 -36.667 4.33301 -61.667 13 -75c11.333 -12 24.666 -18 39.999 -18
c26.667 0 44.334 13.333 53.001 40c4.66699 14.667 7 39 7 73v366l130 -5v-2zM75.001 754.002h132l71 -134h-67z" />
    <glyph glyph-name="glyph357" unicode="&#x1eec;" horiz-adv-x="611" 
d="M544 710l0.000976562 -483c0 -87.333 -17.333 -149.666 -52 -186.999c-36.667 -38.667 -98.334 -58 -185.001 -58c-88 0 -149.833 18.833 -185.5 56.5s-53.5 100.5 -53.5 188.5v523h140v-511c0 -46.667 4.66699 -79.667 14 -99c14.667 -30 43.334 -45 86.001 -45
c40.667 0 68 15 82 45c9.33301 20 14 53 14 99v511l140 -5v-1c13.333 4 20 13 20 27c0 10.667 -6.66699 17 -20 19c-2.66699 0.666992 -13.334 -1 -32.001 -5l12 47c12.667 3.33301 27 3.66602 43 0.999023c33.333 -5.33301 50 -21.666 50 -48.999
c0 -28.667 -24.333 -53.334 -73 -74.001zM289.001 926l-45.001 5.00195c-3.33301 58.667 23.667 88 81 88c23.333 0 41.833 -7.5 55.5 -22.5s20.5 -34.167 20.5 -57.5c0 -19.333 -9.66699 -41.333 -29 -66c-3.33301 -3.33301 -8 -8.33301 -14 -15s-10.667 -11.667 -14 -15
c-9.33301 -12.667 -14 -30.334 -14 -53.001l-52 -5c-4 26 1.66699 49.667 17 71l29 38c10 15.333 15 30 15 44c0 21.333 -7.66699 32 -23 32c-11.333 0 -18.666 -3 -21.999 -9c-1.33301 -2.66699 -3 -14.334 -5 -35.001z" />
    <glyph glyph-name="glyph358" unicode="&#x1eed;" 
d="M431 557c5.33301 1.33301 11.667 5.33496 19 12.002c0.666992 3.33301 1 6.66602 1 9.99902c0 10.667 -6.66699 17 -20 19c-2.66699 0.666992 -13.334 -1 -32.001 -5l12 47c12.667 3.33301 27 3.66602 43 0.999023c33.333 -5.33301 50 -21.666 50 -48.999
c0 -28.667 -24.333 -53.334 -73 -74.001v-518h-124v84h-2c-19.333 -65.333 -59.666 -98.333 -120.999 -99c-48.667 0 -82.667 12.667 -102 38c-16 22 -24 58.333 -24 109v432h130v-386c0 -36.667 4.33301 -61.667 13 -75c11.333 -12 24.666 -18 39.999 -18
c26.667 0 44.334 13.333 53.001 40c4.66699 14.667 7 39 7 73v366l130 -5v-2zM228.001 749.002l-43.001 4.99805c-3.33301 56 22.334 84 77.001 84c22 0 39.5 -7.16699 52.5 -21.5s19.5 -32.5 19.5 -54.5c0 -18.667 -9 -39.667 -27 -63
c-3.33301 -3.33301 -7.83301 -8.16602 -13.5 -14.499s-10.167 -11.166 -13.5 -14.499c-8.66699 -12 -13 -28.667 -13 -50l-49 -5c0 30 5.33301 52.667 16 68l27 36c10 15.333 15 29.333 15 42c0 20 -7.33301 30 -22 30c-10.667 0 -17.667 -3 -21 -9
c-1.33301 -2.66699 -3 -13.667 -5 -33z" />
    <glyph glyph-name="glyph359" unicode="&#x1eee;" horiz-adv-x="611" 
d="M544 710l0.000976562 -483c0 -87.333 -17.333 -149.666 -52 -186.999c-36.667 -38.667 -98.334 -58 -185.001 -58c-88 0 -149.833 18.833 -185.5 56.5s-53.5 100.5 -53.5 188.5v523h140v-511c0 -46.667 4.66699 -79.667 14 -99c14.667 -30 43.334 -45 86.001 -45
c40.667 0 68 15 82 45c9.33301 20 14 53 14 99v511l140 -5v-1c13.333 4 20 13 20 27c0 10.667 -6.66699 17 -20 19c-2.66699 0.666992 -13.334 -1 -32.001 -5l12 47c12.667 3.33301 27 3.66602 43 0.999023c33.333 -5.33301 50 -21.666 50 -48.999
c0 -28.667 -24.333 -53.334 -73 -74.001zM437.001 911l54.001 -0.000976562c-48.667 -69.333 -99.334 -104 -152.001 -104c-8.66699 0 -29.667 6 -63 18c-14 8 -26.333 12 -37 12c-14.667 0 -34 -12 -58 -36h-51c15.333 26.667 36.333 50.334 63 71.001
c30.667 23.333 59.667 35 87 35c15.333 0 33.333 -5 54 -15c12 -6 26.333 -11.333 43 -16c22 -0.666992 42 11 60 35z" />
    <glyph glyph-name="glyph360" unicode="&#x1eef;" 
d="M431 557c5.33301 1.33301 11.667 5.33496 19 12.002c0.666992 3.33301 1 6.66602 1 9.99902c0 10.667 -6.66699 17 -20 19c-2.66699 0.666992 -13.334 -1 -32.001 -5l12 47c12.667 3.33301 27 3.66602 43 0.999023c33.333 -5.33301 50 -21.666 50 -48.999
c0 -28.667 -24.333 -53.334 -73 -74.001v-518h-124v84h-2c-19.333 -65.333 -59.666 -98.333 -120.999 -99c-48.667 0 -82.667 12.667 -102 38c-16 22 -24 58.333 -24 109v432h130v-386c0 -36.667 4.33301 -61.667 13 -75c11.333 -12 24.666 -18 39.999 -18
c26.667 0 44.334 13.333 53.001 40c4.66699 14.667 7 39 7 73v366l130 -5v-2zM367.001 726.002h52c-46 -66 -94.333 -99 -145 -99c-10 0 -29.667 5.66699 -59 17c-14 8 -26 12 -36 12c-13.333 0 -31.666 -11.667 -54.999 -35h-48c14.667 24.667 34.667 47 60 67
c29.333 22.667 56.666 34 81.999 34c14.667 0 32 -4.66699 52 -14c10 -4.66699 23.333 -9.66699 40 -15c21.333 -0.666992 40.333 10.333 57 33z" />
    <glyph glyph-name="glyph361" unicode="&#x1ef0;" horiz-adv-x="611" 
d="M544 710l0.000976562 -483c0 -87.333 -17.333 -149.666 -52 -186.999c-36.667 -38.667 -98.334 -58 -185.001 -58c-88 0 -149.833 18.833 -185.5 56.5s-53.5 100.5 -53.5 188.5v523h140v-511c0 -46.667 4.66699 -79.667 14 -99c14.667 -30 43.334 -45 86.001 -45
c40.667 0 68 15 82 45c9.33301 20 14 53 14 99v511l140 -5v-1c13.333 4 20 13 20 27c0 10.667 -6.66699 17 -20 19c-2.66699 0.666992 -13.334 -1 -32.001 -5l12 47c12.667 3.33301 27 3.66602 43 0.999023c33.333 -5.33301 50 -21.666 50 -48.999
c0 -28.667 -24.333 -53.334 -73 -74.001zM362.001 -157h-112v102h112v-102z" />
    <glyph glyph-name="glyph362" unicode="&#x1ef1;" 
d="M431 557c5.33301 1.33301 11.667 5.33496 19 12.002c0.666992 3.33301 1 6.66602 1 9.99902c0 10.667 -6.66699 17 -20 19c-2.66699 0.666992 -13.334 -1 -32.001 -5l12 47c12.667 3.33301 27 3.66602 43 0.999023c33.333 -5.33301 50 -21.666 50 -48.999
c0 -28.667 -24.333 -53.334 -73 -74.001v-518h-124v84h-2c-19.333 -65.333 -59.666 -98.333 -120.999 -99c-48.667 0 -82.667 12.667 -102 38c-16 22 -24 58.333 -24 109v432h130v-386c0 -36.667 4.33301 -61.667 13 -75c11.333 -12 24.666 -18 39.999 -18
c26.667 0 44.334 13.333 53.001 40c4.66699 14.667 7 39 7 73v366l130 -5v-2zM297.001 -139.998h-106v96h106v-96z" />
    <glyph glyph-name="glyph363" unicode="&#x1ef2;" horiz-adv-x="556" 
d="M165 750l79.001 -197.001c16.667 -41.333 27.667 -79.666 33 -114.999h2c5.33301 30.667 20.666 78 45.999 142l67 170h153l-198 -431v-319h-140v319l-195 431h153zM101.001 933.999h139l75 -142h-71z" />
    <glyph glyph-name="glyph364" unicode="&#x1ef3;" horiz-adv-x="444" 
d="M5 564l137.001 -0.000976562l57 -299c5.33301 -26.667 11.666 -76.667 18.999 -150h2c4 48.667 10.667 97.334 20 146.001l57 303h132l-137 -572c-18 -74 -32 -119.333 -42 -136c-21.333 -34 -59 -51 -113 -51c-18 0 -38.333 1.66699 -61 5v101
c4 0 9.66699 -0.333008 17 -1s13 -1 17 -1c28.667 0 43 9 43 27c0 15.333 -4 39.333 -12 72zM51.001 753.999h132l71 -134h-67z" />
    <glyph glyph-name="glyph365" unicode="&#x1ef4;" horiz-adv-x="556" 
d="M165 750l79.001 -197.001c16.667 -41.333 27.667 -79.666 33 -114.999h2c5.33301 30.667 20.666 78 45.999 142l67 170h153l-198 -431v-319h-140v319l-195 431h153zM333.001 -141.001h-112v102h112v-102z" />
    <glyph glyph-name="glyph366" unicode="&#x1ef5;" horiz-adv-x="444" 
d="M5 564l137.001 -0.000976562l57 -299c5.33301 -26.667 11.666 -76.667 18.999 -150h2c4 48.667 10.667 97.334 20 146.001l57 303h132l-137 -572c-18 -74 -32 -119.333 -42 -136c-21.333 -34 -59 -51 -113 -51c-18 0 -38.333 1.66699 -61 5v101
c4 0 9.66699 -0.333008 17 -1s13 -1 17 -1c28.667 0 43 9 43 27c0 15.333 -4 39.333 -12 72zM421.001 -136.001h-106v96h106v-96z" />
    <glyph glyph-name="glyph367" unicode="&#x1ef6;" horiz-adv-x="556" 
d="M165 750l79.001 -197.001c16.667 -41.333 27.667 -79.666 33 -114.999h2c5.33301 30.667 20.666 78 45.999 142l67 170h153l-198 -431v-319h-140v319l-195 431h153zM264.001 922.999l-45.001 5.00195c-3.33301 58.667 23.667 88 81 88c23.333 0 41.833 -7.5 55.5 -22.5
s20.5 -34.167 20.5 -57.5c0 -19.333 -9.66699 -41.333 -29 -66c-3.33301 -3.33301 -8 -8.33301 -14 -15s-10.667 -11.667 -14 -15c-9.33301 -12.667 -14 -30.334 -14 -53.001l-52 -5c-4 26 1.66699 49.667 17 71l29 38c10 15.333 15 30 15 44c0 21.333 -7.66699 32 -23 32
c-11.333 0 -18.666 -3 -21.999 -9c-1.33301 -2.66699 -3 -14.334 -5 -35.001z" />
    <glyph glyph-name="glyph368" unicode="&#x1ef7;" horiz-adv-x="444" 
d="M5 564l137.001 -0.000976562l57 -299c5.33301 -26.667 11.666 -76.667 18.999 -150h2c4 48.667 10.667 97.334 20 146.001l57 303h132l-137 -572c-18 -74 -32 -119.333 -42 -136c-21.333 -34 -59 -51 -113 -51c-18 0 -38.333 1.66699 -61 5v101
c4 0 9.66699 -0.333008 17 -1s13 -1 17 -1c28.667 0 43 9 43 27c0 15.333 -4 39.333 -12 72zM206.001 748.999l-43.001 4.99805c-3.33301 56 22.334 84 77.001 84c22 0 39.5 -7.16699 52.5 -21.5s19.5 -32.5 19.5 -54.5c0 -18.667 -9 -39.667 -27 -63
c-3.33301 -3.33301 -7.83301 -8.16602 -13.5 -14.499s-10.167 -11.166 -13.5 -14.499c-8.66699 -12 -13 -28.667 -13 -50l-49 -5c0 30 5.33301 52.667 16 68l27 36c10 15.333 15 29.333 15 42c0 20 -7.33301 30 -22 30c-10.667 0 -17.667 -3 -21 -9
c-1.33301 -2.66699 -3 -13.667 -5 -33z" />
    <glyph glyph-name="glyph369" unicode="&#x1ef8;" horiz-adv-x="556" 
d="M165 750l79.001 -197.001c16.667 -41.333 27.667 -79.666 33 -114.999h2c5.33301 30.667 20.666 78 45.999 142l67 170h153l-198 -431v-319h-140v319l-195 431h153zM417.001 911.999l54.001 -0.000976562c-48.667 -69.333 -99.334 -104 -152.001 -104
c-8.66699 0 -29.667 6 -63 18c-14 8 -26.333 12 -37 12c-14.667 0 -34 -12 -58 -36h-51c15.333 26.667 36.333 50.334 63 71.001c30.667 23.333 59.667 35 87 35c15.333 0 33.333 -5 54 -15c12 -6 26.333 -11.333 43 -16c22 -0.666992 42 11 60 35z" />
    <glyph glyph-name="glyph370" unicode="&#x1ef9;" horiz-adv-x="444" 
d="M5 564l137.001 -0.000976562l57 -299c5.33301 -26.667 11.666 -76.667 18.999 -150h2c4 48.667 10.667 97.334 20 146.001l57 303h132l-137 -572c-18 -74 -32 -119.333 -42 -136c-21.333 -34 -59 -51 -113 -51c-18 0 -38.333 1.66699 -61 5v101
c4 0 9.66699 -0.333008 17 -1s13 -1 17 -1c28.667 0 43 9 43 27c0 15.333 -4 39.333 -12 72zM344.001 725.999h52c-46 -66 -94.333 -99 -145 -99c-10 0 -29.667 5.66699 -59 17c-14 8 -26 12 -36 12c-13.333 0 -31.666 -11.667 -54.999 -35h-48
c14.667 24.667 34.667 47 60 67c29.333 22.667 56.666 34 81.999 34c14.667 0 32 -4.66699 52 -14c10 -4.66699 23.333 -9.66699 40 -15c21.333 -0.666992 40.333 10.333 57 33z" />
    <glyph glyph-name="endash" unicode="&#x2013;" 
d="M500 259h-500v110h500v-110z" />
    <glyph glyph-name="emdash" unicode="&#x2014;" horiz-adv-x="1000" 
d="M1000 259h-1000v110h1000v-110z" />
    <glyph glyph-name="quoteleft" unicode="&#x2018;" horiz-adv-x="278" 
d="M197 766l-0.000976562 -45.999c-45.333 -6.66699 -66.666 -38.334 -63.999 -95.001h64v-130h-121v119c0 46 8.83301 81 26.5 105s49.167 39.667 94.5 47z" />
    <glyph glyph-name="quoteright" unicode="&#x2019;" horiz-adv-x="278" 
d="M81 479l0.000976562 45.999c45.333 6.66699 66.666 38.334 63.999 95.001h-64v130h121v-119c0 -46 -8.83301 -81 -26.5 -105s-49.167 -39.667 -94.5 -47z" />
    <glyph glyph-name="quotesinglbase" unicode="&#x201a;" horiz-adv-x="278" 
d="M87 -138l-0.000976562 45.999c25.333 5.33301 43 16 53 32c8 13.333 11.333 34 10 62h-63v130h120v-119c0 -46.667 -8.66699 -81.167 -26 -103.5s-48.666 -38.166 -93.999 -47.499z" />
    <glyph glyph-name="quotedblleft" unicode="&#x201c;" 
d="M208 766l-0.000976562 -45.999c-45.333 -6.66699 -66.666 -38.334 -63.999 -95.001h64v-130h-121v119c0 46 8.83301 81 26.5 105s49.167 39.667 94.5 47zM404.999 766.001l-0.000976562 -45.999c-45.333 -6.66699 -66.666 -38.334 -63.999 -95.001h64v-130h-121v119
c0 46 8.83301 81 26.5 105s49.167 39.667 94.5 47z" />
    <glyph glyph-name="quotedblright" unicode="&#x201d;" 
d="M292 479l0.000976562 45.999c45.333 6.66699 66.666 38.334 63.999 95.001h-64v130h121v-119c0 -46 -8.83301 -81 -26.5 -105s-49.167 -39.667 -94.5 -47zM95.001 478.999l0.000976562 45.999c45.333 6.66699 66.666 38.334 63.999 95.001h-64v130h121v-119
c0 -46 -8.83301 -81 -26.5 -105s-49.167 -39.667 -94.5 -47z" />
    <glyph glyph-name="quotedblbase" unicode="&#x201e;" 
d="M293 -138l-0.000976562 46c24.667 6 42 16 52 30c7.33301 13.333 11 34.666 11 63.999h-63v130h120v-119c0 -46.667 -8.66699 -81.167 -26 -103.5s-48.666 -38.166 -93.999 -47.499zM95.999 -138l-0.000976562 45.999c25.333 5.33301 43 16 53 32
c8 13.333 11.333 34 10 62h-63v130h120v-119c0 -46.667 -8.66699 -81.167 -26 -103.5s-48.666 -38.166 -93.999 -47.499z" />
    <glyph glyph-name="dagger" unicode="&#x2020;" 
d="M188 422h-151v112h151v234h128v-234h147v-112h-147v-577h-128v577z" />
    <glyph glyph-name="daggerdbl" unicode="&#x2021;" 
d="M188 77h-153v113h153v230h-153v113h153v235h128v-235h150v-113h-150v-230h150v-113h-150v-238h-128v238z" />
    <glyph glyph-name="bullet" unicode="&#x2022;" horiz-adv-x="420" 
d="M398 375c0 -52 -18.5 -96.5 -55.5 -133.5s-81.5 -55.5 -133.5 -55.5s-96.167 18.5 -132.5 55.5s-54.5 81.5 -54.5 133.5c0 51.333 18.167 95.333 54.5 132s80.5 55 132.5 55s96.5 -18.333 133.5 -55s55.5 -80.667 55.5 -132z" />
    <glyph glyph-name="ellipsis" unicode="&#x2026;" horiz-adv-x="1000" 
d="M233 0h-132v132h132v-132zM566 0h-132v132h132v-132zM899 0h-132v132h132v-132z" />
    <glyph glyph-name="perthousand" unicode="&#x2030;" horiz-adv-x="1111" 
d="M579 366c65.333 0 109.333 -18.665 132 -55.998c14.667 -24.667 22 -67 22 -127s-7.33301 -102.333 -22 -127c-22.667 -37.333 -66.667 -56 -132 -56c-64.667 0 -108 18.667 -130 56c-15.333 25.333 -23 67.666 -23 126.999s7.66699 101.666 23 126.999
c22 37.333 65.333 56 130 56zM580 293.002c-26 0 -43 -10 -51 -30c-4.66699 -12.667 -7 -39.334 -7 -80.001s2.33301 -67.334 7 -80.001c8 -20 25 -30 51 -30s42.667 10 50 30c4.66699 12.667 7 39.334 7 80.001s-2.33301 67.334 -7 80.001c-7.33301 20 -24 30 -50 30z
M937 366.002c65.333 0 109.333 -18.665 132 -55.998c14.667 -24.667 22 -67 22 -127s-7.33301 -102.333 -22 -127c-22.667 -37.333 -66.667 -56 -132 -56c-64.667 0 -108 18.667 -130 56c-15.333 25.333 -23 67.666 -23 126.999s7.66699 101.666 23 126.999
c22 37.333 65.333 56 130 56zM938 293.004c-26 0 -43 -10 -51 -30c-4.66699 -12.667 -7 -39.334 -7 -80.001s2.33301 -67.334 7 -80.001c8 -20 25 -30 51 -30s42.667 10 50 30c4.66699 12.667 7 39.334 7 80.001s-2.33301 67.334 -7 80.001c-7.33301 20 -24 30 -50 30z
M174 736.004c65.333 0 109.333 -18.665 132 -55.998c14.667 -24.667 22 -67 22 -127s-7.33301 -102.333 -22 -127c-22.667 -37.333 -66.667 -56 -132 -56c-64.667 0 -108 18.667 -130 56c-15.333 25.333 -23 67.666 -23 126.999s7.66699 101.666 23 126.999
c22 37.333 65.333 56 130 56zM175 663.006c-26 0 -43 -10 -51 -30c-4.66699 -12.667 -7 -39.334 -7 -80.001s2.33301 -67.334 7 -80.001c8 -20 25 -30 51 -30s42.667 10 50 30c4.66699 12.667 7 39.334 7 80.001s-2.33301 67.334 -7 80.001c-7.33301 20 -24 30 -50 30z
M246 -17.9941h-73l339 766h72z" />
    <glyph glyph-name="guilsinglleft" unicode="&#x2039;" horiz-adv-x="278" 
d="M215 62l-157 142v102l157 141v-112l-95 -75l95 -85v-113z" />
    <glyph glyph-name="guilsinglright" unicode="&#x203a;" horiz-adv-x="278" 
d="M63 62v113l94 81l-94 79v112l157 -141v-102z" />
    <glyph glyph-name="fraction" unicode="&#x2044;" horiz-adv-x="167" 
d="M-94 0h-75l425 738h75z" />
    <glyph glyph-name="franc" unicode="&#x20a3;" horiz-adv-x="1035" 
d="M213 0h-140v750h397v-110h-257v-190h241v-110h-241v-340zM837 564v-100.001h2c14.667 36.667 31.667 63.334 51 80.001c22 18 49 28 81 30v-154c-9.33301 0.666992 -18.333 1 -27 1c-68 0 -102 -31.667 -102 -95v-326h-130v564h125z" />
    <glyph glyph-name="u20AB" unicode="&#x20ab;" horiz-adv-x="393" 
d="M197 501c-32 0 -60 -29.333 -84 -88c-13.333 -32.667 -20 -62.667 -20 -90c0 -34 13 -51 39 -51c27.333 0 52 23.667 74 71c18.667 40 28 75.667 28 107c0 34 -12.333 51 -37 51zM200 267c-35.333 -41.333 -70.666 -62.002 -105.999 -62.002
c-30 0 -52.667 9.33301 -68 28s-23 43.334 -23 74.001c0 53.333 18.333 104.333 55 153c39.333 52 84.666 78 135.999 78c22.667 0 43 -8 61 -24l20 75h-100l10 36h100l2 16c0 20.667 -16 31.334 -48 32.001l7 33c44.667 1.33301 87.334 6 128.001 14l15 3c4 0 6 -3 6 -9
l-3 -12l-19 -77h65l-10 -36h-65l-69 -280c-3.33301 -13.333 -5 -22.333 -5 -27c0 -10 4 -15 12 -15c4 0 20.333 14 49 42l20 -18c-46.667 -57.333 -85.667 -86 -117 -86c-28.667 0 -46.334 20.667 -53.001 62zM9 159.998h221v-56h-221v56z" />
    <glyph glyph-name="trademark" unicode="&#x2122;" horiz-adv-x="860" 
d="M774 750v-404h-80v326h-2l-105 -326h-47l-105 326h-2v-326h-80v404h129l82 -239l81 239h129zM310 750v-78h-115v-326h-80v326h-114v78h309z" />
    <glyph glyph-name="minus" unicode="&#x2212;" 
d="M26 194v110h449v-110h-449z" />
    <glyph glyph-name="SF370000" unicode="&#x255f;" horiz-adv-x="718" 
d="M159 0h-150l179 750h189l170 -750h-150l-37 190h-164zM260 513l-41.999 -213.001h120l-38 213c-6 32.667 -10.667 67.334 -14 104.001c-0.666992 11.333 -2.33398 28 -5.00098 50h-2c-2.66699 -34 -9 -85.333 -19 -154z" />
    <glyph glyph-name="SF420000" unicode="&#x2560;" horiz-adv-x="681" 
d="M458 0h-394v750h394v-110h-254v-189h234v-110h-234v-231h254v-110z" />
    <glyph glyph-name="SF190000" unicode="&#x2561;" horiz-adv-x="429" 
d="M209 0h-140v750h140v-750z" />
    <glyph glyph-name="SF200000" unicode="&#x2562;" horiz-adv-x="773" 
d="M61 328l0.00195312 107c0 112.667 13 192 39 238c35.333 63.333 104 95 206 95s171 -31.667 207 -95c25.333 -46 38 -125.333 38 -238v-107c0 -119.333 -12 -202 -36 -248c-34.667 -65.333 -104.334 -98 -209.001 -98s-174.334 32.667 -209.001 98
c-24 46 -36 128.667 -36 248zM205.002 466v-208c0 -108.667 33.667 -163 101 -163c44 0 73.333 20.333 88 61c8.66699 23.333 13 61.333 13 114v192c0 54 -3.66699 93.667 -11 119c-15.333 49.333 -45.333 74 -90 74c-47.333 0 -78 -24.333 -92 -73
c-6 -21.333 -9 -60 -9 -116z" />
    <glyph glyph-name="SF230000" unicode="&#x2563;" horiz-adv-x="811" 
d="M404 239l-0.000976562 511h140v-523c0 -86 -16.667 -147.667 -50 -185c-36 -40 -98.333 -60 -187 -60c-89.333 0 -152.333 20 -189 60c-33.333 37.333 -50 99 -50 185v523h140v-511c0 -46 4.66699 -79 14 -99c14.667 -30 43.334 -45 86.001 -45c40.667 0 68 15 82 45
c9.33301 20 14 53 14 99z" />
    <glyph glyph-name="SF470000" unicode="&#x2564;" horiz-adv-x="699" 
d="M165 750l79.001 -197c16.667 -42 27.667 -80.333 33 -115h2c5.33301 30 20.666 77.333 45.999 142l67 170h153l-198 -431v-319h-140v319l-195 431h153z" />
    <glyph glyph-name="SF480000" unicode="&#x2565;" horiz-adv-x="541" 
d="M440 0l-122.999 -0.000976562c-7.33301 15.333 -10 34.666 -8 57.999h-2c-31.333 -48.667 -69.333 -73 -114 -73c-52 0 -90.167 13.667 -114.5 41s-36.5 70 -36.5 128c0 57.333 19.333 102 58 134c21.333 16.667 66.333 39.334 135 68.001c44.667 18.667 67 42.667 67 72
c0 6.66699 -1 14 -3 22c-4.66699 19.333 -25 29 -61 29c-27.333 0 -46 -7.33301 -56 -22c-8.66699 -12 -12.667 -32 -12 -60h-124c-0.666992 59.333 11.666 103 36.999 131c30.667 34 84 51 160 51c78.667 0 131.667 -18.667 159 -56c18 -23.333 27 -60.333 27 -111v-333
c0 -25.333 3.66699 -51.666 11 -78.999zM299.001 235.999v61c-24 -14.667 -59 -38.667 -105 -72c-14.667 -12 -22 -34.667 -22 -68c0 -48 20.333 -72 61 -72c33.333 0 54 18.333 62 55c2.66699 12.667 4 44.667 4 96z" />
    <glyph glyph-name="SF410000" unicode="&#x2566;" horiz-adv-x="431" 
d="M52 222v148.001c0 139.333 63.333 209 190 209c83.333 0 139.333 -22 168 -66c21.333 -33.333 32 -94 32 -182v-76h-260v-82c0 -58.667 22.667 -88 68 -88c23.333 0 39.5 8.5 48.5 25.5s12.833 43.833 11.5 80.5h130c5.33301 -137.333 -54.667 -206 -180 -206
c-74.667 0 -128 18.667 -160 56s-48 97.666 -48 180.999zM182 355.001l130 -0.00195312v49c0 28.667 -4.83301 48.334 -14.5 59.001s-27.5 16 -53.5 16c-28.667 0 -47 -10.333 -55 -31c-4.66699 -11.333 -7 -34.666 -7 -69.999v-23z" />
    <glyph glyph-name="SF450000" unicode="&#x2567;" horiz-adv-x="314" 
d="M204 0h-130v564h130v-564zM204 632h-130v118h130v-118z" />
    <glyph glyph-name="SF460000" unicode="&#x2568;" horiz-adv-x="314" 
d="M204 0h-130v564h130v-564z" />
    <glyph glyph-name="SF400000" unicode="&#x2569;" horiz-adv-x="498" 
d="M183 372l0.000976562 -188c0 -38 3.66699 -63 11 -75c9.33301 -16 28.666 -24 57.999 -24c28 0 46.333 8 55 24c6.66699 12 10 37 10 75v188c0 35.333 -2.66699 59.666 -8 72.999c-9.33301 22.667 -28.333 34 -57 34c-30.667 0 -50.667 -11.333 -60 -34
c-6 -13.333 -9 -37.666 -9 -72.999zM252.001 -15c-82 0 -136.67 21.667 -164.003 65c-24 37.333 -35.667 108 -35 212c0.666992 116.667 9.33398 193.667 26.001 231c26.667 57.333 84.334 86 173.001 86c87.333 0 144 -28.667 170 -86c16 -36.667 24.333 -113.667 25 -231
c0.666992 -104 -10.666 -174.667 -33.999 -212c-27.333 -43.333 -81 -65 -161 -65z" />
    <glyph glyph-name="SF540000" unicode="&#x256a;" horiz-adv-x="557" 
d="M307 0l-0.000976562 84h-2c-19.333 -65.333 -59.666 -98.333 -120.999 -99c-48.667 0 -82.667 12.667 -102 38c-16 22 -24 58.333 -24 109v432h130v-386c0 -36.667 4.33301 -61.667 13 -75c11.333 -12 24.666 -18 39.999 -18c26.667 0 44.334 13.333 53.001 40
c4.66699 14.667 7 39 7 73v366h130v-564h-124z" />
    <glyph glyph-name="SF530000" unicode="&#x256b;" horiz-adv-x="497" 
d="M5 564l137.001 -0.00195312l57 -299c5.33301 -29.333 11.666 -79.333 18.999 -150h2c4 46.667 10.667 95.334 20 146.001l57 303h132l-137 -572c-17.333 -73.333 -31.333 -118.666 -42 -135.999c-21.333 -34 -59 -51 -113 -51c-18 0 -38.333 1.66699 -61 5v101
c2 0 7 -0.333008 15 -1s14.333 -1 19 -1c28.667 0 43 9 43 27c0 15.333 -4 39.333 -12 72z" />
    <glyph glyph-name="circle" unicode="&#x25cb;" horiz-adv-x="718" 
d="M331 1022h125l115 -146h-114l-63 82l-64 -82h-112zM285 1049l94 146h155l-148 -146h-101z" />
    <glyph glyph-name="H18533" unicode="&#x25cf;" horiz-adv-x="718" 
d="M331 1022h125l115 -146h-114l-63 82l-64 -82h-112zM312 1196h155l94 -146h-101z" />
    <glyph glyph-name="invbullet" unicode="&#x25d8;" horiz-adv-x="718" 
d="M331 1022h125l115 -146h-114l-63 82l-64 -82h-112zM614 903c6 19.333 9.66602 40.668 10.999 64.001c0.666992 7.33301 3.33398 11.666 8.00098 12.999c2 0 4.66699 0.333008 8 1c44.667 7.33301 67 25.333 67 54c0 23.333 -9.33301 35 -28 35
c-3.33301 0 -8 -0.333008 -14 -1s-10.667 -1 -14 -1c-14 0 -21 6 -21 18c0 18.667 10.667 28 32 28c30.667 0 56 -8.5 76 -25.5s28.667 -40.5 26 -70.5c-4 -39.333 -33 -66.333 -87 -81c-16.667 -4.66699 -27 -16 -31 -34h-33z" />
    <glyph glyph-name="invcircle" unicode="&#x25d9;" horiz-adv-x="718" 
d="M331 1022h125l115 -146h-114l-63 82l-64 -82h-112zM560 1184l65 0.000976562c-14.667 -80.667 -53.667 -121 -117 -121c-16 0 -45.333 7.33301 -88 22c-24.667 8.66699 -42 13 -52 13c-8 0 -15.167 -1.83301 -21.5 -5.5s-14.833 -15.834 -25.5 -36.501h-62
c2.66699 38 17 69 43 93c22 20 45.667 30 71 30c18.667 0 44.5 -6.16699 77.5 -18.5s52.833 -18.5 59.5 -18.5c26 0 42.667 14 50 42z" />
    <glyph glyph-name="fi" unicode="&#xf001;" 
d="M446 564v-564h-130v564h130zM446 750v-118h-130v118h130zM246 750v-103.999c-13.333 4 -23 6 -29 6c-18 0 -27 -7.33301 -27 -22v-66h56v-95h-56v-469h-130v469h-50v95h50v56c0 49.333 11 83.666 33 102.999c20 18 54.667 27 104 27h49z" />
    <glyph glyph-name="fl" unicode="&#xf002;" 
d="M443 750v-750h-130v750h130zM60 469l-50 0.000976562v95h50v56c0 49.333 11 83.666 33 102.999c20 18 54.667 27 104 27h49v-104c-13.333 4 -23 6 -29 6c-18 0 -27 -7.33301 -27 -22v-66h56v-95h-56v-469h-130v469z" />
    <glyph glyph-name=".null" horiz-adv-x="0" 
 />
    <glyph glyph-name="nonmarkingreturn" horiz-adv-x="250" 
 />
    <glyph glyph-name="periodcentered" horiz-adv-x="333" 
d="M233 315h-132v-132h132v132z" />
    <glyph glyph-name="glyph231" horiz-adv-x="278" 
 />
    <glyph glyph-name="glyph232" horiz-adv-x="278" 
 />
    <glyph glyph-name="glyph275" horiz-adv-x="249" 
 />
    <glyph glyph-name="glyph276" horiz-adv-x="249" 
 />
    <glyph glyph-name="glyph261" 
d="M253 522c6 19.333 9.66602 40.668 10.999 64.001c0.666992 7.33301 3.33398 11.666 8.00098 12.999c2 0 4.66699 0.333008 8 1c44.667 7.33301 67 25.333 67 54c0 23.333 -9.33301 35 -28 35c-3.33301 0 -8 -0.333008 -14 -1s-10.667 -1 -14 -1c-14 0 -21 6 -21 18
c0 18.667 10.667 28 32 28c30.667 0 56 -8.5 76 -25.5s28.667 -40.5 26 -70.5c-4 -39.333 -33 -66.333 -87 -81c-16.667 -4.66699 -27 -16 -31 -34h-33z" />
    <glyph glyph-name="glyph262" horiz-adv-x="541" 
d="M128 790h125l115 -146h-114l-63 82l-64 -82h-112zM81 818l94 146h155l-148 -146h-101z" />
    <glyph glyph-name="glyph263" horiz-adv-x="541" 
d="M128 790h125l115 -146h-114l-63 82l-64 -82h-112zM109 964h155l94 -146h-101z" />
    <glyph glyph-name="glyph264" horiz-adv-x="541" 
d="M128 790h125l115 -146h-114l-63 82l-64 -82h-112zM411 671c6 19.333 9.66602 40.668 10.999 64.001c0.666992 7.33301 3.33398 11.666 8.00098 12.999c2 0 4.66699 0.333008 8 1c44.667 7.33301 67 25.333 67 54c0 23.333 -9.33301 35 -28 35
c-3.33301 0 -8 -0.333008 -14 -1s-10.667 -1 -14 -1c-14 0 -21 6 -21 18c0 18.667 10.667 28 32 28c30.667 0 56 -8.5 76 -25.5s28.667 -40.5 26 -70.5c-4 -39.333 -33 -66.333 -87 -81c-16.667 -4.66699 -27 -16 -31 -34h-33z" />
    <glyph glyph-name="glyph265" horiz-adv-x="541" 
d="M128 790h125l115 -146h-114l-63 82l-64 -82h-112zM357 952l65 0.000976562c-14.667 -80.667 -53.667 -121 -117 -121c-16 0 -45.333 7.33301 -88 22c-24.667 8.66699 -42 13 -52 13c-8 0 -15.167 -1.83301 -21.5 -5.5s-14.833 -15.834 -25.5 -36.501h-62
c2.66699 38 17 69 43 93c22 20 45.667 30 71 30c18.667 0 44.5 -6.16699 77.5 -18.5s52.833 -18.5 59.5 -18.5c26 0 42.667 14 50 42z" />
    <glyph glyph-name="glyph266" horiz-adv-x="541" 
d="M300 779h64.998c-6 -46.667 -23.667 -82.5 -53 -107.5s-67.666 -37.5 -114.999 -37.5c-52.667 0 -94.167 13.5 -124.5 40.5s-44.833 61.833 -43.5 104.5h65c4.66699 -46.667 37.334 -70 98.001 -70c65.333 0 101.333 23.333 108 70zM159.998 818l94 146h155l-148 -146
h-101z" />
    <glyph glyph-name="glyph267" horiz-adv-x="541" 
d="M300 779h64.998c-6 -46.667 -23.667 -82.5 -53 -107.5s-67.666 -37.5 -114.999 -37.5c-52.667 0 -94.167 13.5 -124.5 40.5s-44.833 61.833 -43.5 104.5h65c4.66699 -46.667 37.334 -70 98.001 -70c65.333 0 101.333 23.333 108 70zM55.998 964h155l94 -146h-101z" />
    <glyph glyph-name="glyph268" horiz-adv-x="541" 
d="M300 779h64.998c-6 -46.667 -23.667 -82.5 -53 -107.5s-67.666 -37.5 -114.999 -37.5c-52.667 0 -94.167 13.5 -124.5 40.5s-44.833 61.833 -43.5 104.5h65c4.66699 -46.667 37.334 -70 98.001 -70c65.333 0 101.333 23.333 108 70zM305.998 671
c6 19.333 9.66602 40.668 10.999 64.001c0.666992 7.33301 3.33398 11.666 8.00098 12.999c2 0 4.66699 0.333008 8 1c44.667 7.33301 67 25.333 67 54c0 23.333 -9.33301 35 -28 35c-3.33301 0 -8 -0.333008 -14 -1s-10.667 -1 -14 -1c-14 0 -21 6 -21 18
c0 18.667 10.667 28 32 28c30.667 0 56 -8.5 76 -25.5s28.667 -40.5 26 -70.5c-4 -39.333 -33 -66.333 -87 -81c-16.667 -4.66699 -27 -16 -31 -34h-33z" />
    <glyph glyph-name="glyph269" horiz-adv-x="541" 
d="M300 779h64.998c-6 -46.667 -23.667 -82.5 -53 -107.5s-67.666 -37.5 -114.999 -37.5c-52.667 0 -94.167 13.5 -124.5 40.5s-44.833 61.833 -43.5 104.5h65c4.66699 -46.667 37.334 -70 98.001 -70c65.333 0 101.333 23.333 108 70zM356.998 952l65 0.000976562
c-14.667 -80.667 -53.667 -121 -117 -121c-16 0 -45.333 7.33301 -88 22c-24.667 8.66699 -42 13 -52 13c-8 0 -15.167 -1.83301 -21.5 -5.5s-14.833 -15.834 -25.5 -36.501h-62c2.66699 38 17 69 43 93c22 20 45.667 30 71 30c18.667 0 44.5 -6.16699 77.5 -18.5
s52.833 -18.5 59.5 -18.5c26 0 42.667 14 50 42z" />
    <glyph glyph-name="glyph270" horiz-adv-x="249" 
 />
  </font>
</defs>
</svg>
