<?xml version="1.0" standalone="no"?>
<!DOCTYPE svg PUBLIC "-//W3C//DTD SVG 1.1//EN" "http://www.w3.org/Graphics/SVG/1.1/DTD/svg11.dtd" >
<svg xmlns="http://www.w3.org/2000/svg" xmlns:xlink="http://www.w3.org/1999/xlink" version="1.1">
<metadata></metadata>
<defs>
<font id="samsungone800" horiz-adv-x="0" >
<font-face units-per-em="2048" ascent="1588" descent="-460" />
<missing-glyph horiz-adv-x="408" />
<glyph unicode="fi" horiz-adv-x="1312" d="M10 858v234h168v82q0 190 115 295t327 105q68 0 122 -10v-236q-58 8 -122 8q-172 0 -172 -162v-82h256v-234h-256v-858h-272v858h-166zM866 1388q0 74 43 115t119 41t119 -41t43 -113q0 -74 -43 -115t-119 -41t-119 41t-43 113zM892 0v1092h272v-1092h-272z" />
<glyph unicode="fl" horiz-adv-x="1396" d="M10 858v234h168v82q0 190 115 295t327 105q68 0 122 -10v-236q-58 8 -122 8q-172 0 -172 -162v-82h256v-234h-256v-858h-272v858h-166zM884 278v1262h272v-1202q0 -58 22 -84t74 -26q32 0 70 6l18 -230q-78 -18 -162 -18q-148 0 -221 72t-73 220z" />
<glyph />
<glyph />
<glyph horiz-adv-x="520" />
<glyph unicode="&#x9;" horiz-adv-x="1024" />
<glyph horiz-adv-x="408" />
<glyph unicode=" "  horiz-adv-x="408" />
<glyph unicode="&#x09;" horiz-adv-x="408" />
<glyph unicode="&#xa0;" horiz-adv-x="408" />
<glyph unicode="!" horiz-adv-x="728" d="M196 134q0 76 44 118t124 42q78 0 123 -43t45 -115q0 -76 -44 -119t-124 -43q-78 0 -123 43t-45 117zM214 1448h300l-42 -1010h-216z" />
<glyph unicode="&#x22;" horiz-adv-x="820" d="M112 1448h254l-42 -542h-170zM454 1448h254l-42 -542h-170z" />
<glyph unicode="#" horiz-adv-x="1410" d="M42 358v194h296l58 344h-268v194h300l60 358h218l-60 -358h246l60 358h216l-60 -358h260v-194h-292l-58 -344h260v-194h-292l-60 -358h-218l60 358h-246l-60 -358h-216l60 358h-264zM556 552h246l56 344h-246z" />
<glyph unicode="$" horiz-adv-x="1116" d="M68 136l84 208q160 -88 318 -100l2 372l-50 14q-178 50 -257 141t-79 245q0 178 99 285t281 129v188h180v-186q180 -18 346 -88l-86 -208q-154 52 -264 64l-2 -352l52 -14q178 -50 257 -141t79 -249q0 -178 -99 -288t-283 -136v-190h-180v184q-110 8 -213 39t-185 83z M342 1058q0 -58 30 -96t100 -64l-2 302q-66 -10 -97 -45t-31 -97zM640 566l2 -314q68 14 99 50t31 100q0 62 -30 100t-102 64z" />
<glyph unicode="%" horiz-adv-x="1908" d="M94 1026q0 448 338 448t338 -448t-338 -448t-338 448zM318 1026q0 -138 27 -200t87 -62t87 62t27 200t-27 200t-87 62t-87 -62t-27 -200zM502 0l682 1448h222l-682 -1448h-222zM1138 422q0 448 338 448t338 -448t-338 -448t-338 448zM1362 422q0 -138 27 -200t87 -62 t87 62t27 200t-27 200t-87 62t-87 -62t-27 -200z" />
<glyph unicode="&#x26;" horiz-adv-x="1336" d="M96 338q0 106 46 188t150 160l90 68l-60 64q-68 78 -97 146t-29 152q0 174 107 266t307 92q192 0 298 -86t106 -244q0 -100 -50 -179t-174 -173l-62 -46l196 -216l100 226h258l-168 -372q-12 -28 -20 -42l196 -214l-188 -164l-152 166q-78 -80 -179 -118t-231 -38 q-212 0 -328 95t-116 269zM376 380q0 -160 198 -160q136 0 218 82l-264 290l-56 -42q-52 -40 -74 -79t-22 -91zM462 1116q0 -46 24 -89t96 -121l64 48q70 54 94 87t24 77q0 64 -37 94t-115 30q-76 0 -113 -31t-37 -95z" />
<glyph unicode="'" horiz-adv-x="478" d="M112 1448h254l-42 -542h-170z" />
<glyph unicode="(" horiz-adv-x="672" d="M88 682q0 514 340 956l184 -138q-264 -350 -264 -816q0 -464 264 -816l-184 -138q-340 442 -340 952z" />
<glyph unicode=")" horiz-adv-x="672" d="M60 -132q264 352 264 816q0 466 -264 816l184 138q340 -442 340 -956q0 -510 -340 -952z" />
<glyph unicode="*" horiz-adv-x="1080" d="M96 1036l72 216l280 -112l-22 308h228l-22 -308l280 112l72 -216l-296 -76l196 -240l-178 -142l-166 262l-166 -262l-178 142l196 240z" />
<glyph unicode="+" horiz-adv-x="1158" d="M80 618v238h376v412h246v-412h376v-238h-376v-412h-246v412h-376z" />
<glyph unicode="," horiz-adv-x="500" d="M-4 -256q78 84 110 165t32 197q0 74 -12 158h264q12 -78 12 -154q0 -144 -70 -260t-224 -226z" />
<glyph unicode="-" horiz-adv-x="826" d="M78 498v210h670v-210h-670z" />
<glyph unicode="." horiz-adv-x="532" d="M98 134q0 76 44 118t124 42q78 0 123 -43t45 -115q0 -76 -44 -119t-124 -43q-78 0 -123 43t-45 117z" />
<glyph unicode="/" horiz-adv-x="914" d="M26 -172l650 1670h224l-650 -1670h-224z" />
<glyph unicode="0" horiz-adv-x="1256" d="M114 724q0 390 127 570t385 180q260 0 388 -180t128 -570q0 -388 -128 -569t-386 -181t-386 181t-128 569zM394 724q0 -266 56 -386t178 -120t178 120t56 386t-56 386t-180 120q-122 0 -177 -120t-55 -386z" />
<glyph unicode="1" horiz-adv-x="934" d="M44 1286l422 162h238v-1448h-274v1170l-308 -106z" />
<glyph unicode="2" horiz-adv-x="1074" d="M40 1324q90 68 220 109t256 41q136 0 240 -50t160 -141t56 -211q0 -106 -54 -208t-184 -244l-350 -382h596v-238h-924v240l476 536q94 106 129 165t35 113q0 80 -54 125t-152 45q-80 0 -165 -28t-163 -78z" />
<glyph unicode="3" horiz-adv-x="1132" d="M40 110l100 220q92 -50 184 -77t172 -27q116 0 181 61t65 173q0 106 -61 166t-169 60q-56 0 -126 -16l-106 138l396 402h-598v238h896v-238l-312 -306q166 -30 263 -149t97 -295q0 -144 -65 -255t-184 -171t-277 -60q-128 0 -252 37t-204 99z" />
<glyph unicode="4" horiz-adv-x="1170" d="M34 272v234l508 942h384v-942h170v-234h-170v-272h-266v272h-626zM314 506h346v694z" />
<glyph unicode="5" horiz-adv-x="1116" d="M54 102l100 218q84 -46 171 -71t159 -25q118 0 184 65t66 179q0 110 -60 170t-166 60t-220 -52l-166 90l36 712h788v-238h-544l-24 -288q78 22 164 22q142 0 249 -58t165 -165t58 -247q0 -150 -66 -263t-186 -175t-278 -62q-122 0 -239 35t-191 93z" />
<glyph unicode="6" horiz-adv-x="1142" d="M82 482q0 178 63 328t223 334l286 330l214 -166l-292 -314l-68 -76q70 16 138 16q128 0 226 -58t151 -163t53 -245q0 -148 -61 -260t-172 -173t-259 -61q-150 0 -264 63t-176 178t-62 267zM328 652l10 6zM356 482q0 -128 60 -199t168 -71q102 0 159 66t57 184 q0 122 -61 189t-171 67q-78 0 -168 -34q-20 -40 -32 -94t-12 -108z" />
<glyph unicode="7" horiz-adv-x="998" d="M14 1210v238h938v-238l-554 -1230l-258 106l524 1124h-650z" />
<glyph unicode="8" horiz-adv-x="1182" d="M82 386q0 118 79 219t209 149q-108 38 -173 132t-65 206q0 114 57 201t160 134t241 47t242 -47t161 -134t57 -201q0 -112 -66 -203t-176 -129q132 -40 212 -142t80 -232q0 -122 -63 -216t-179 -145t-268 -51t-267 51t-178 145t-63 216zM354 404q0 -94 63 -147t173 -53 t174 53t64 147q0 76 -65 143t-181 109q-108 -36 -168 -102t-60 -150zM402 1066q0 -68 53 -123t145 -85q86 28 133 83t47 125q0 84 -50 132t-140 48q-88 0 -138 -48t-50 -132z" />
<glyph unicode="9" horiz-adv-x="1142" d="M66 980q0 148 61 260t172 173t259 61q150 0 264 -63t176 -178t62 -267q0 -178 -63 -328t-223 -334l-286 -330l-214 166l292 314l68 76q-70 -16 -138 -16q-128 0 -226 58t-151 163t-53 245zM342 986q0 -122 61 -189t171 -67q78 0 168 34q20 40 32 94t12 108q0 128 -60 199 t-168 71q-102 0 -159 -66t-57 -184zM804 790l10 6z" />
<glyph unicode=":" horiz-adv-x="612" d="M138 134q0 76 44 118t124 42q78 0 123 -43t45 -115q0 -76 -44 -119t-124 -43q-78 0 -123 43t-45 117zM138 794q0 76 44 118t124 42q78 0 123 -43t45 -115q0 -76 -44 -119t-124 -43q-78 0 -123 43t-45 117z" />
<glyph unicode=";" horiz-adv-x="612" d="M46 -256q78 84 110 165t32 197q0 74 -12 158h264q12 -78 12 -154q0 -144 -70 -260t-224 -226zM138 794q0 76 44 118t124 42q78 0 123 -43t45 -115q0 -76 -44 -119t-124 -43q-78 0 -123 43t-45 117z" />
<glyph unicode="&#x3c;" horiz-adv-x="870" d="M64 730l544 598l198 -184l-388 -414l388 -414l-198 -184z" />
<glyph unicode="=" horiz-adv-x="1158" d="M126 372v242h906v-242h-906zM126 846v242h906v-242h-906z" />
<glyph unicode="&#x3e;" horiz-adv-x="870" d="M64 316l388 414l-388 414l198 184l544 -598l-544 -598z" />
<glyph unicode="?" horiz-adv-x="1044" d="M72 1344q92 62 209 96t239 34q206 0 319 -99t113 -281q0 -100 -44 -170t-160 -160q-100 -78 -134 -125t-34 -109q0 -22 6 -92h-246q-6 76 -6 98q0 120 42 198t154 166q82 66 110 104t28 84q0 132 -174 132q-144 0 -314 -98zM296 134q0 76 44 118t124 42q78 0 123 -43 t45 -115q0 -76 -44 -119t-124 -43q-78 0 -123 43t-45 117z" />
<glyph unicode="@" horiz-adv-x="1626" d="M116 724q0 230 88 404t249 270t373 96q206 0 364 -86t244 -244t86 -364q0 -132 -39 -233t-111 -156t-166 -55q-118 0 -172 82q-68 -94 -210 -94q-152 0 -235 101t-83 283q0 180 90 278t256 98q144 0 250 -76v-396q0 -114 86 -114q70 0 108 74t38 208q0 244 -132 377 t-374 133q-244 0 -379 -154t-135 -432q0 -282 139 -436t395 -154q182 0 318 80l72 -156q-70 -50 -172 -77t-218 -27q-224 0 -389 95t-253 269t-88 406zM688 728q0 -216 154 -216q38 0 80 14v398q-40 12 -78 12q-156 0 -156 -208z" />
<glyph unicode="A" horiz-adv-x="1340" d="M30 0l490 1448h300l490 -1448h-290l-94 312h-516l-92 -312h-288zM482 552h374l-188 630z" />
<glyph unicode="B" horiz-adv-x="1296" d="M156 0v1448h274h248q220 0 340 -108t120 -306q0 -200 -186 -270q268 -80 268 -328q0 -208 -125 -322t-351 -114h-438h-150zM430 244h328q180 0 180 186q0 192 -194 192h-314v-378zM430 858h248q180 0 180 170q0 176 -194 176h-234v-346z" />
<glyph unicode="C" horiz-adv-x="1206" d="M76 694q0 240 80 416t229 270t351 94q112 0 220 -30t186 -86l-94 -210q-156 78 -316 78q-178 0 -275 -134t-97 -378q0 -486 398 -486q184 0 302 70l94 -208q-66 -54 -174 -84t-234 -30q-318 0 -494 188t-176 530z" />
<glyph unicode="D" horiz-adv-x="1386" d="M156 0v1448h480q320 0 487 -182t167 -540q0 -362 -167 -544t-487 -182h-480zM432 246h196q378 0 378 480q0 476 -376 476h-198v-956z" />
<glyph unicode="E" horiz-adv-x="1156" d="M156 0v1448h912v-246h-636v-338h468v-248h-468v-370h664v-246h-940z" />
<glyph unicode="F" horiz-adv-x="1080" d="M156 0v1448h896v-246h-620v-378h504v-248h-504v-576h-276z" />
<glyph unicode="G" horiz-adv-x="1336" d="M96 724q0 358 178 554t504 196q128 0 240 -30t188 -84l-80 -220q-188 88 -352 88q-394 0 -394 -504t398 -504q80 0 166 20v346h-238v244h514v-740q-82 -56 -199 -86t-243 -30q-326 0 -504 196t-178 554z" />
<glyph unicode="H" horiz-adv-x="1408" d="M156 0v1448h276v-590h544v590h276v-1448h-276v612h-544v-612h-276z" />
<glyph unicode="I" horiz-adv-x="596" d="M160 0v1448h276v-1448h-276z" />
<glyph unicode="J" horiz-adv-x="944" d="M0 86l98 210q136 -74 248 -74q176 0 176 172v1054h276v-1074q0 -190 -115 -295t-323 -105q-108 0 -202 29t-158 83z" />
<glyph unicode="K" horiz-adv-x="1272" d="M156 0v1448h276v-682l510 682h326l-508 -630l540 -818h-326l-388 602l-154 -192v-410h-276z" />
<glyph unicode="L" horiz-adv-x="1062" d="M156 0v1448h276v-1200h582v-248h-858z" />
<glyph unicode="M" horiz-adv-x="1710" d="M156 0v1448h332l368 -912l362 912h336v-1448h-268v1006l-288 -724h-288l-290 724v-1006h-264z" />
<glyph unicode="N" horiz-adv-x="1452" d="M156 0v1448h266l602 -978v978h272v-1448h-266l-602 982v-982h-272z" />
<glyph unicode="O" horiz-adv-x="1432" d="M96 724q0 372 159 561t461 189t461 -189t159 -561t-159 -561t-461 -189t-461 189t-159 561zM380 724q0 -504 336 -504t336 504t-336 504t-336 -504z" />
<glyph unicode="P" horiz-adv-x="1198" d="M156 0v1448h276h262q232 0 358 -130t126 -366q0 -238 -130 -369t-368 -131h-248v-452h-276zM432 698h262q200 0 200 248q0 256 -214 256h-248v-504z" />
<glyph unicode="Q" horiz-adv-x="1432" d="M96 724q0 372 159 561t461 189t461 -189t159 -561q0 -436 -216 -618l244 -260l-176 -176l-280 326q-92 -22 -192 -22q-302 0 -461 189t-159 561zM380 724q0 -504 336 -504t336 504t-336 504t-336 -504z" />
<glyph unicode="R" horiz-adv-x="1270" d="M156 0v1448h276h244q230 0 355 -123t125 -349q0 -166 -69 -278t-199 -162l358 -536h-330l-310 500h-174v-500h-276zM432 736h244q196 0 196 234q0 236 -204 236h-236v-470z" />
<glyph unicode="S" horiz-adv-x="1128" d="M58 108l88 216q190 -110 390 -110q250 0 250 172q0 72 -46 118t-148 74l-164 46q-186 52 -269 148t-83 258q0 210 128 326t358 116q110 0 228 -26t224 -74l-90 -216q-210 78 -366 78q-218 0 -218 -158q0 -72 46 -117t148 -73l164 -46q188 -52 270 -148t82 -260 q0 -218 -135 -337t-379 -119q-132 0 -257 35t-221 97z" />
<glyph unicode="T" horiz-adv-x="1060" d="M32 1200v248h636h360v-248h-360v-1200h-276v1200h-360z" />
<glyph unicode="U" horiz-adv-x="1376" d="M146 498v950h276v-930q0 -298 264 -298q268 0 268 298v930h276v-950q0 -250 -142 -387t-402 -137q-258 0 -399 137t-141 387z" />
<glyph unicode="V" horiz-adv-x="1268" d="M38 1448h290l308 -1158l306 1158h288l-446 -1448h-300z" />
<glyph unicode="W" horiz-adv-x="1796" d="M42 1448h284l212 -1122l212 1120h296l216 -1122l210 1124h282l-344 -1448h-300l-214 1072l-212 -1072h-300z" />
<glyph unicode="X" horiz-adv-x="1220" d="M32 0l426 734l-410 714h308l260 -484l264 484h304l-422 -714l426 -734h-308l-274 504l-270 -504h-304z" />
<glyph unicode="Y" horiz-adv-x="1180" d="M22 1448h294l276 -670l274 670h292l-432 -970v-478h-276v478z" />
<glyph unicode="Z" horiz-adv-x="1110" d="M66 0v244l650 962h-622v242h934v-242l-650 -964h662v-242h-974z" />
<glyph unicode="[" horiz-adv-x="716" d="M156 -242v1852h526v-208h-278v-1436h278v-208h-526z" />
<glyph unicode="\" horiz-adv-x="914" d="M14 1498h224l650 -1670h-224z" />
<glyph unicode="]" horiz-adv-x="716" d="M34 -34h278v1436h-278v208h526v-1852h-526v208z" />
<glyph unicode="^" horiz-adv-x="898" d="M14 1002l320 446h228l322 -446h-254l-180 278l-184 -278h-252z" />
<glyph unicode="_" horiz-adv-x="1202" d="M156 -112h890v-220h-890v220z" />
<glyph unicode="`" horiz-adv-x="1000" d="M200 1548v20h282l174 -318v-20h-208z" />
<glyph unicode="a" horiz-adv-x="1072" d="M52 306q0 196 147 287t475 95v40q0 150 -204 150q-124 0 -254 -56l-68 208q186 88 372 88q202 0 312 -94t110 -264v-760h-242v160q-98 -182 -322 -182q-156 0 -241 86t-85 242zM310 328q0 -122 138 -122q130 0 226 106v196q-192 -2 -278 -45t-86 -135z" />
<glyph unicode="b" horiz-adv-x="1162" d="M144 0v1026v514h272v-562q98 140 274 140q188 0 291 -149t103 -421q0 -274 -104 -424t-292 -150q-96 0 -174 39t-124 113v-126h-246zM416 308q38 -44 88 -67t106 -23q196 0 196 320q0 328 -204 328q-52 0 -96 -22t-90 -70v-466z" />
<glyph unicode="c" horiz-adv-x="966" d="M70 530q0 176 64 309t181 206t271 73q92 0 179 -26t151 -72l-96 -210q-142 62 -238 62q-112 0 -173 -86t-61 -242q0 -320 260 -320q114 0 228 60l92 -208q-130 -100 -332 -100q-250 0 -388 145t-138 409z" />
<glyph unicode="d" horiz-adv-x="1162" d="M78 544q0 274 104 424t292 150q84 0 154 -30t118 -86v538h272v-1474v-66h-246v156q-102 -182 -300 -182q-188 0 -291 149t-103 421zM356 554q0 -328 204 -328q52 0 96 22t90 70v466q-38 44 -88 67t-106 23q-196 0 -196 -320z" />
<glyph unicode="e" horiz-adv-x="1092" d="M74 546q0 274 127 423t357 149q224 0 346 -138t122 -388q0 -74 -12 -132h-664q34 -240 272 -240q132 0 264 64l96 -202q-80 -50 -182 -78t-208 -28q-248 0 -383 149t-135 421zM348 642h408q-4 114 -57 176t-147 62q-178 0 -204 -238z" />
<glyph unicode="f" horiz-adv-x="744" d="M10 858v234h168v82q0 190 115 295t327 105q68 0 122 -10v-236q-58 8 -122 8q-172 0 -172 -162v-82h256v-234h-256v-858h-272v858h-166z" />
<glyph unicode="g" horiz-adv-x="1166" d="M78 574q0 260 105 402t295 142q96 0 174 -39t124 -113v126h246v-1048q0 -232 -131 -358t-371 -126q-98 0 -193 21t-171 61l76 214q134 -58 258 -58q260 0 260 246v130q-98 -140 -274 -140q-190 0 -294 141t-104 399zM356 584q0 -298 208 -298q52 0 96 22t90 70v406 q-38 44 -88 67t-106 23q-200 0 -200 -290z" />
<glyph unicode="h" horiz-adv-x="1180" d="M144 0v1540h272v-556q122 134 304 134q156 0 241 -93t85 -265v-760h-272v720q0 146 -160 146q-56 0 -102 -18t-96 -56v-792h-272z" />
<glyph unicode="i" horiz-adv-x="568" d="M122 1388q0 74 43 115t119 41t119 -41t43 -113q0 -74 -43 -115t-119 -41t-119 41t-43 113zM148 0v1092h272v-1092h-272z" />
<glyph unicode="j" horiz-adv-x="568" d="M-138 -224q118 40 179 81t84 97t23 152v986h272v-994q0 -154 -42 -252t-142 -165t-284 -127zM122 1388q0 74 43 115t119 41t119 -41t43 -113q0 -74 -43 -115t-119 -41t-119 41t-43 113z" />
<glyph unicode="k" horiz-adv-x="1130" d="M144 0v1540h272v-900l362 452h310l-386 -458l416 -634h-310l-278 430l-114 -136v-294h-272z" />
<glyph unicode="l" horiz-adv-x="652" d="M140 278v1262h272v-1202q0 -58 22 -84t74 -26q32 0 70 6l18 -230q-78 -18 -162 -18q-148 0 -221 72t-73 220z" />
<glyph unicode="m" horiz-adv-x="1774" d="M144 0v1092h246v-138q128 164 322 164q102 0 175 -44t109 -128q136 172 328 172q150 0 233 -94t83 -264v-760h-272v720q0 146 -150 146q-50 0 -95 -18t-93 -56v-32v-760h-272v720q0 146 -152 146q-96 0 -190 -74v-792h-272z" />
<glyph unicode="n" horiz-adv-x="1176" d="M144 0v1092h246v-138q128 164 328 164q154 0 239 -94t85 -264v-760h-272v720q0 146 -158 146q-54 0 -100 -18t-96 -56v-792h-272z" />
<glyph unicode="o" horiz-adv-x="1126" d="M78 546q0 282 126 427t360 145t359 -144t125 -428q0 -282 -126 -427t-360 -145t-359 144t-125 428zM356 546q0 -330 206 -330q208 0 208 330t-206 330q-208 0 -208 -330z" />
<glyph unicode="p" horiz-adv-x="1162" d="M144 -414v1440v66h246v-156q102 182 300 182q188 0 291 -149t103 -421q0 -274 -104 -424t-292 -150q-84 0 -154 30t-118 86v-504h-272zM416 308q38 -44 88 -67t106 -23q196 0 196 320q0 328 -204 328q-52 0 -96 -22t-90 -70v-466z" />
<glyph unicode="q" horiz-adv-x="1162" d="M78 544q0 274 104 424t292 150q96 0 174 -39t124 -113v126h246v-1026v-480h-272v528q-98 -140 -274 -140q-188 0 -291 149t-103 421zM356 554q0 -328 204 -328q52 0 96 22t90 70v466q-38 44 -88 67t-106 23q-196 0 -196 -320z" />
<glyph unicode="r" horiz-adv-x="812" d="M144 0v1092h246v-172q92 194 282 194q68 0 120 -26l-52 -254q-60 18 -128 18t-115 -23t-81 -75v-754h-272z" />
<glyph unicode="s" horiz-adv-x="942" d="M40 86l94 220q148 -92 314 -92q174 0 174 98q0 40 -31 66t-101 42l-142 34q-154 36 -222 110t-68 202q0 166 109 258t307 92q100 0 200 -25t180 -69l-100 -216q-148 72 -284 72q-152 0 -152 -86q0 -38 32 -63t100 -41l142 -34q152 -36 221 -111t69 -205q0 -172 -114 -267 t-320 -95q-114 0 -221 29t-187 81z" />
<glyph unicode="t" horiz-adv-x="808" d="M22 858v234h168v296h270v-296h298v-234h-298v-472q0 -84 37 -122t117 -38q56 0 116 16l42 -230q-100 -28 -202 -28q-382 0 -382 352v522h-166z" />
<glyph unicode="u" horiz-adv-x="1160" d="M130 332v760h272v-720q0 -146 152 -146q56 0 100 21t90 67v778h272v-1092h-246v154q-120 -180 -322 -180q-152 0 -235 94t-83 264z" />
<glyph unicode="v" horiz-adv-x="1054" d="M28 1092h274l228 -818l224 818h272l-352 -1092h-292z" />
<glyph unicode="w" horiz-adv-x="1582" d="M32 1092h272l176 -806l174 806h276l180 -806l170 806h270l-296 -1092h-292l-172 766l-168 -766h-292z" />
<glyph unicode="x" horiz-adv-x="1028" d="M24 0l344 556l-328 536h294l186 -326l190 326h290l-340 -536l344 -556h-294l-200 346l-196 -346h-290z" />
<glyph unicode="y" horiz-adv-x="1046" d="M28 1092h274l224 -804l220 804h272l-330 -1030q-60 -190 -193 -309t-369 -193l-92 228q138 48 218 98t130 116z" />
<glyph unicode="z" horiz-adv-x="944" d="M56 0v230l512 632h-492v230h796v-230l-512 -632h524v-230h-828z" />
<glyph unicode="{" horiz-adv-x="762" d="M16 580v208q114 2 169 40t55 118v208q0 148 40 237t132 145t262 94l56 -196q-100 -24 -152 -55t-72 -82t-20 -143v-208q0 -212 -174 -260q174 -48 174 -264v-206q0 -92 20 -144t72 -83t152 -55l-56 -196q-170 38 -262 94t-132 146t-40 238v206q0 80 -55 118t-169 40z" />
<glyph unicode="|" horiz-adv-x="514" d="M156 -500v2132h202v-2132h-202z" />
<glyph unicode="}" horiz-adv-x="762" d="M32 -66q100 24 152 55t72 83t20 144v206q0 216 174 264q-174 48 -174 260v208q0 92 -20 143t-72 82t-152 55l56 196q170 -38 262 -94t132 -145t40 -237v-208q0 -80 55 -118t169 -40v-208q-114 -2 -169 -40t-55 -118v-206q0 -148 -40 -238t-132 -146t-262 -94z" />
<glyph unicode="~" horiz-adv-x="1158" d="M80 714q152 188 326 188q58 0 100 -17t94 -49q42 -28 73 -41t69 -13q46 0 88 26t90 84l158 -162q-152 -188 -326 -188q-58 0 -100 17t-94 49q-42 28 -73 41t-69 13q-46 0 -88 -26t-90 -84z" />
<glyph unicode="&#xa1;" horiz-adv-x="728" d="M196 932q0 76 44 119t124 43q78 0 123 -43t45 -117q0 -76 -44 -118t-124 -42q-78 0 -123 43t-45 115zM214 -380l42 1010h216l42 -1010h-300z" />
<glyph unicode="&#xa2;" horiz-adv-x="976" d="M70 566q0 210 113 348t305 166v230h180v-228q138 -16 242 -86l-94 -202q-78 36 -148 48v-548q94 10 166 50l88 -198q-102 -76 -254 -90v-226h-180v228q-202 28 -310 159t-108 349zM340 568q0 -110 36 -174t112 -88v532q-148 -46 -148 -270z" />
<glyph unicode="&#xa3;" horiz-adv-x="1068" d="M84 614v228h148q-32 70 -48 124t-16 128q0 182 112 281t316 99q118 0 219 -33t169 -93l-132 -220q-134 92 -256 92q-156 0 -156 -144q0 -44 12 -84t40 -110l16 -40h344v-228h-296q-2 -106 -49 -196t-149 -176h622v-242h-878v240l58 56q74 72 105 138t31 154v26h-212z" />
<glyph unicode="&#xa4;" horiz-adv-x="1196" d="M78 118l136 170q-96 130 -96 338q0 206 96 336l-136 170l140 110l136 -166q106 50 244 50t244 -50l136 166l140 -110l-136 -170q96 -130 96 -336q0 -208 -96 -338l136 -170l-140 -110l-136 166q-106 -50 -244 -50t-244 50l-136 -166zM382 626q0 -264 216 -264t216 264 q0 262 -216 262t-216 -262z" />
<glyph unicode="&#xa5;" horiz-adv-x="1072" d="M14 1448h290l238 -692l228 692h288l-316 -766h196v-176h-268v-128h268v-176h-268v-202h-272v202h-268v176h268v128h-268v176h196z" />
<glyph unicode="&#xa6;" horiz-adv-x="514" d="M156 396h202v-896h-202v896zM156 738v894h202v-894h-202z" />
<glyph unicode="&#xa7;" horiz-adv-x="1070" d="M104 -320l92 226q206 -94 334 -94q172 0 172 154q0 62 -34 99t-120 61l-124 34q-166 46 -243 133t-77 233q0 164 96 284q-84 94 -84 246q0 198 115 307t325 109q94 0 191 -22t183 -62l-96 -216q-172 62 -282 62q-176 0 -176 -158q0 -64 34 -100t116 -58l124 -34 q164 -46 240 -133t76 -235q0 -164 -94 -282q90 -90 90 -252q0 -194 -113 -301t-319 -107q-106 0 -218 28t-208 78zM350 576q0 -74 40 -116t140 -72l124 -36l32 -10q34 56 34 128q0 74 -39 116t-137 70l-124 36l-34 10q-36 -56 -36 -126z" />
<glyph unicode="&#xa8;" horiz-adv-x="1000" d="M160 1368q0 68 38 106t106 38t107 -38t39 -104q0 -68 -38 -105t-108 -37q-68 0 -106 38t-38 102zM550 1368q0 68 38 106t106 38t107 -38t39 -104q0 -68 -38 -105t-108 -37q-68 0 -106 38t-38 102z" />
<glyph unicode="&#xa9;" horiz-adv-x="1676" d="M152 724q0 236 84 404t238 257t364 89t364 -89t238 -257t84 -404t-84 -404t-238 -257t-364 -89t-364 89t-238 257t-84 404zM316 724q0 -282 136 -436t386 -154t386 154t136 436t-136 436t-386 154t-386 -154t-136 -436zM534 714q0 180 87 279t245 99q134 0 218 -62 l-70 -146q-92 40 -150 40q-140 0 -140 -200t156 -200q68 0 148 40l64 -144q-38 -30 -95 -47t-125 -17q-160 0 -249 94t-89 264z" />
<glyph unicode="&#xaa;" horiz-adv-x="1036" d="M112 842q0 150 125 217t403 65v30q0 54 -38 79t-118 25q-116 0 -240 -46l-60 174q76 36 165 55t173 19q164 0 254 -68t90 -192v-556q-74 -38 -171 -58t-203 -20q-182 0 -281 72t-99 204zM172 208v188h670v-188h-670zM338 852q0 -96 154 -96q94 0 148 18v202 q-160 2 -231 -27t-71 -97z" />
<glyph unicode="&#xab;" horiz-adv-x="1218" d="M34 582l480 552l162 -156l-348 -394l348 -398l-164 -156zM538 582l480 552l162 -156l-348 -394l348 -398l-164 -156z" />
<glyph unicode="&#xac;" horiz-adv-x="1158" d="M108 784v242h942v-242v-340h-246v340h-696z" />
<glyph unicode="&#xad;" horiz-adv-x="826" d="M78 498v210h670v-210h-670z" />
<glyph unicode="&#xae;" horiz-adv-x="1676" d="M152 724q0 236 84 404t238 257t364 89t364 -89t238 -257t84 -404t-84 -404t-238 -257t-364 -89t-364 89t-238 257t-84 404zM316 724q0 -282 136 -436t386 -154t386 154t136 436t-136 436t-386 154t-386 -154t-136 -436zM592 368v712h264q118 0 184 -66t66 -184 q0 -154 -108 -216l138 -246h-194l-110 214h-70v-214h-170zM762 726h84q82 0 82 102t-82 102h-84v-204z" />
<glyph unicode="&#xaf;" horiz-adv-x="1000" d="M172 1272v184h656v-184h-656z" />
<glyph unicode="&#xb0;" horiz-adv-x="912" d="M76 1092q0 112 48 198t134 134t198 48t198 -48t134 -134t48 -198t-48 -198t-134 -134t-198 -48t-198 48t-134 134t-48 198zM300 1092q0 -74 43 -119t113 -45t113 45t43 119t-43 119t-113 45t-113 -45t-43 -119z" />
<glyph unicode="&#xb1;" horiz-adv-x="1158" d="M80 108v234h998v-234h-998zM80 804v238h376v356h246v-356h376v-238h-376v-356h-246v356h-376z" />
<glyph unicode="&#xb2;" horiz-adv-x="766" d="M28 1440q168 114 342 114q146 0 225 -70t79 -200q0 -76 -34 -136t-128 -146l-192 -178h364v-182h-638v182l312 300q58 54 77 83t19 63q0 90 -106 90q-102 0 -226 -80z" />
<glyph unicode="&#xb3;" horiz-adv-x="814" d="M28 720l76 166q132 -64 242 -64q146 0 146 108q0 52 -33 78t-103 26q-48 0 -100 -12l-82 112l250 224h-362v182h620v-184l-198 -160q112 -22 172 -92t60 -180q0 -142 -96 -219t-274 -77q-182 0 -318 92z" />
<glyph unicode="&#xb4;" horiz-adv-x="1000" d="M352 1230v20l190 318h282v-20l-264 -318h-208z" />
<glyph unicode="&#xb5;" horiz-adv-x="1184" d="M144 -414v906v600h272v-720q0 -72 41 -110t115 -38q58 0 104 22t92 68v778h272v-1092h-246v154q-108 -164 -284 -164q-54 0 -94 14v-418h-272z" />
<glyph unicode="&#xb6;" horiz-adv-x="1152" d="M36 1026q0 202 125 312t355 110h480v-1448h-192v1270h-140v-1270h-184v608q-212 8 -328 116t-116 302z" />
<glyph unicode="&#xb7;" horiz-adv-x="532" d="M98 678q0 76 44 118t124 42q78 0 123 -43t45 -115q0 -76 -44 -119t-124 -43q-78 0 -123 43t-45 117z" />
<glyph unicode="&#xb8;" horiz-adv-x="1000" d="M244 -428l42 124q106 -34 172 -34q98 0 98 62q0 58 -86 58q-42 0 -78 -14l-60 68l84 204l176 -12l-96 -130q28 4 42 4q108 0 167 -45t59 -127q0 -100 -72 -155t-204 -55q-136 0 -244 52z" />
<glyph unicode="&#xb9;" horiz-adv-x="720" d="M32 1430l284 110h186v-898h-216v688l-196 -68z" />
<glyph unicode="&#xba;" horiz-adv-x="1048" d="M118 1014q0 222 106 335t302 113q194 0 299 -113t105 -335t-106 -336t-300 -114t-300 114t-106 336zM190 208v188h670v-188h-670zM350 1014q0 -252 174 -252t174 252q0 250 -172 250q-176 0 -176 -250z" />
<glyph unicode="&#xbb;" horiz-adv-x="1218" d="M38 186l348 394l-348 398l164 156l478 -552l-480 -552zM542 186l348 394l-348 398l164 156l478 -552l-480 -552z" />
<glyph unicode="&#xbc;" horiz-adv-x="1902" d="M32 1338l284 110h186v-898h-216v688l-196 -68zM444 46l804 1454l174 -98l-804 -1454zM1140 146v178l322 574h300v-574h102v-178h-102v-146h-210v146h-412zM1360 324h192v386z" />
<glyph unicode="&#xbd;" horiz-adv-x="1988" d="M32 1338l284 110h186v-898h-216v688l-196 -68zM444 46l804 1454l174 -98l-804 -1454zM1254 798q168 114 342 114q146 0 225 -70t79 -200q0 -76 -34 -136t-128 -146l-192 -178h364v-182h-638v182l312 300q58 54 77 83t19 63q0 90 -106 90q-102 0 -226 -80z" />
<glyph unicode="&#xbe;" horiz-adv-x="2032" d="M28 628l76 166q132 -64 242 -64q146 0 146 108q0 52 -33 78t-103 26q-48 0 -100 -12l-82 112l250 224h-362v182h620v-184l-198 -160q112 -22 172 -92t60 -180q0 -142 -96 -219t-274 -77q-182 0 -318 92zM574 46l804 1454l174 -98l-804 -1454zM1270 146v178l322 574h300 v-574h102v-178h-102v-146h-210v146h-412zM1490 324h192v386z" />
<glyph unicode="&#xbf;" horiz-adv-x="944" d="M92 -26q0 100 44 170t160 160q100 78 134 125t34 109q0 24 -6 92h246q6 -74 6 -98q0 -120 -42 -198t-154 -166q-82 -66 -110 -104t-28 -84q0 -132 174 -132q144 0 314 98l108 -222q-92 -62 -209 -96t-239 -34q-206 0 -319 99t-113 281zM412 932q0 76 44 119t124 43 q78 0 123 -43t45 -117q0 -76 -44 -118t-124 -42q-78 0 -123 43t-45 115z" />
<glyph unicode="&#xc0;" horiz-adv-x="1340" d="M30 0l490 1448h300l490 -1448h-290l-94 312h-516l-92 -312h-288zM266 1828v24h302l272 -266v-24h-228zM482 552h374l-188 630z" />
<glyph unicode="&#xc1;" horiz-adv-x="1340" d="M30 0l490 1448h300l490 -1448h-290l-94 312h-516l-92 -312h-288zM482 552h374l-188 630zM498 1562v24l290 266h302v-24l-364 -266h-228z" />
<glyph unicode="&#xc2;" horiz-adv-x="1340" d="M30 0l490 1448h300l490 -1448h-290l-94 312h-516l-92 -312h-288zM306 1562v24l234 266h260l234 -266v-24h-202l-166 152l-164 -152h-196zM482 552h374l-188 630z" />
<glyph unicode="&#xc3;" horiz-adv-x="1340" d="M30 0l490 1448h300l490 -1448h-290l-94 312h-516l-92 -312h-288zM300 1574q2 142 62 221t166 79q54 0 93 -18t91 -52q30 -22 53 -33t47 -11q66 0 78 110h150q-2 -142 -62 -221t-166 -79q-54 0 -93 18t-91 52q-30 22 -53 33t-47 11q-66 0 -78 -110h-150zM482 552h374 l-188 630z" />
<glyph unicode="&#xc4;" horiz-adv-x="1340" d="M30 0l490 1448h300l490 -1448h-290l-94 312h-516l-92 -312h-288zM318 1684q0 68 38 106t106 38t107 -38t39 -104q0 -68 -38 -105t-108 -37q-68 0 -106 38t-38 102zM482 552h374l-188 630zM732 1684q0 68 38 106t106 38t107 -38t39 -104q0 -68 -38 -105t-108 -37 q-68 0 -106 38t-38 102z" />
<glyph unicode="&#xc5;" horiz-adv-x="1340" d="M30 0l490 1448h300l490 -1448h-290l-94 312h-516l-92 -312h-288zM396 1770q0 114 72 177t202 63t202 -63t72 -177t-72 -177t-202 -63t-202 63t-72 177zM482 552h374l-188 630zM564 1770q0 -108 106 -108t106 108t-106 108t-106 -108z" />
<glyph unicode="&#xc6;" horiz-adv-x="1864" d="M-12 0l738 1448h276h774v-246h-608v-338h440v-248h-440v-370h636v-246h-904v294h-474l-146 -294h-292zM546 534h354v710z" />
<glyph unicode="&#xc7;" horiz-adv-x="1206" d="M76 694q0 240 80 416t229 270t351 94q112 0 220 -30t186 -86l-94 -210q-156 78 -316 78q-178 0 -275 -134t-97 -378q0 -486 398 -486q184 0 302 70l94 -208q-64 -52 -168 -82t-228 -32l-58 -78q28 4 42 4q108 0 167 -45t59 -127q0 -100 -72 -155t-204 -55q-136 0 -244 52 l42 124q106 -34 172 -34q98 0 98 62q0 58 -86 58q-42 0 -78 -14l-60 68l62 152q-250 42 -386 225t-136 481z" />
<glyph unicode="&#xc8;" horiz-adv-x="1156" d="M156 0v1448h912v-246h-636v-338h468v-248h-468v-370h664v-246h-940zM206 1828v24h302l272 -266v-24h-228z" />
<glyph unicode="&#xc9;" horiz-adv-x="1156" d="M156 0v1448h912v-246h-636v-338h468v-248h-468v-370h664v-246h-940zM438 1562v24l290 266h302v-24l-364 -266h-228z" />
<glyph unicode="&#xca;" horiz-adv-x="1156" d="M156 0v1448h912v-246h-636v-338h468v-248h-468v-370h664v-246h-940zM246 1562v24l234 266h260l234 -266v-24h-202l-166 152l-164 -152h-196z" />
<glyph unicode="&#xcb;" horiz-adv-x="1156" d="M156 0v1448h912v-246h-636v-338h468v-248h-468v-370h664v-246h-940zM258 1684q0 68 38 106t106 38t107 -38t39 -104q0 -68 -38 -105t-108 -37q-68 0 -106 38t-38 102zM672 1684q0 68 38 106t106 38t107 -38t39 -104q0 -68 -38 -105t-108 -37q-68 0 -106 38t-38 102z" />
<glyph unicode="&#xcc;" horiz-adv-x="596" d="M-106 1828v24h302l272 -266v-24h-228zM160 0v1448h276v-1448h-276z" />
<glyph unicode="&#xcd;" horiz-adv-x="596" d="M126 1562v24l290 266h302v-24l-364 -266h-228zM160 0v1448h276v-1448h-276z" />
<glyph unicode="&#xce;" horiz-adv-x="596" d="M-66 1562v24l234 266h260l234 -266v-24h-202l-166 152l-164 -152h-196zM160 0v1448h276v-1448h-276z" />
<glyph unicode="&#xcf;" horiz-adv-x="596" d="M-54 1684q0 68 38 106t106 38t107 -38t39 -104q0 -68 -38 -105t-108 -37q-68 0 -106 38t-38 102zM160 0v1448h276v-1448h-276zM360 1684q0 68 38 106t106 38t107 -38t39 -104q0 -68 -38 -105t-108 -37q-68 0 -106 38t-38 102z" />
<glyph unicode="&#xd0;" horiz-adv-x="1388" d="M30 628v210h128v610h480q320 0 487 -182t167 -540q0 -362 -167 -544t-487 -182h-480v628h-128zM434 246h196q378 0 378 480q0 476 -376 476h-198v-364h306v-210h-306v-382z" />
<glyph unicode="&#xd1;" horiz-adv-x="1452" d="M156 0v1448h266l602 -978v978h272v-1448h-266l-602 982v-982h-272zM356 1574q2 142 62 221t166 79q54 0 93 -18t91 -52q30 -22 53 -33t47 -11q66 0 78 110h150q-2 -142 -62 -221t-166 -79q-54 0 -93 18t-91 52q-30 22 -53 33t-47 11q-66 0 -78 -110h-150z" />
<glyph unicode="&#xd2;" horiz-adv-x="1432" d="M96 724q0 372 159 561t461 189t461 -189t159 -561t-159 -561t-461 -189t-461 189t-159 561zM312 1828v24h302l272 -266v-24h-228zM380 724q0 -504 336 -504t336 504t-336 504t-336 -504z" />
<glyph unicode="&#xd3;" horiz-adv-x="1432" d="M96 724q0 372 159 561t461 189t461 -189t159 -561t-159 -561t-461 -189t-461 189t-159 561zM380 724q0 -504 336 -504t336 504t-336 504t-336 -504zM544 1562v24l290 266h302v-24l-364 -266h-228z" />
<glyph unicode="&#xd4;" horiz-adv-x="1432" d="M96 724q0 372 159 561t461 189t461 -189t159 -561t-159 -561t-461 -189t-461 189t-159 561zM352 1562v24l234 266h260l234 -266v-24h-202l-166 152l-164 -152h-196zM380 724q0 -504 336 -504t336 504t-336 504t-336 -504z" />
<glyph unicode="&#xd5;" horiz-adv-x="1432" d="M96 724q0 372 159 561t461 189t461 -189t159 -561t-159 -561t-461 -189t-461 189t-159 561zM346 1574q2 142 62 221t166 79q54 0 93 -18t91 -52q30 -22 53 -33t47 -11q66 0 78 110h150q-2 -142 -62 -221t-166 -79q-54 0 -93 18t-91 52q-30 22 -53 33t-47 11 q-66 0 -78 -110h-150zM380 724q0 -504 336 -504t336 504t-336 504t-336 -504z" />
<glyph unicode="&#xd6;" horiz-adv-x="1432" d="M96 724q0 372 159 561t461 189t461 -189t159 -561t-159 -561t-461 -189t-461 189t-159 561zM364 1684q0 68 38 106t106 38t107 -38t39 -104q0 -68 -38 -105t-108 -37q-68 0 -106 38t-38 102zM380 724q0 -504 336 -504t336 504t-336 504t-336 -504zM778 1684q0 68 38 106 t106 38t107 -38t39 -104q0 -68 -38 -105t-108 -37q-68 0 -106 38t-38 102z" />
<glyph unicode="&#xd7;" horiz-adv-x="1158" d="M116 426l296 310l-296 310l170 174l294 -308l292 308l170 -174l-296 -310l296 -310l-170 -174l-292 308l-294 -308z" />
<glyph unicode="&#xd8;" horiz-adv-x="1432" d="M36 0l182 226q-122 190 -122 498q0 372 159 561t461 189q226 0 380 -120l84 114h216v-20l-182 -226q122 -190 122 -498q0 -372 -159 -561t-461 -189q-226 0 -380 120l-84 -114h-216v20zM372 724q0 -166 28 -266l544 698q-80 80 -228 80q-344 0 -344 -512zM488 292 q80 -80 228 -80q344 0 344 512q0 166 -28 266z" />
<glyph unicode="&#xd9;" horiz-adv-x="1376" d="M146 498v950h276v-930q0 -298 264 -298q268 0 268 298v930h276v-950q0 -250 -142 -387t-402 -137q-258 0 -399 137t-141 387zM284 1828v24h302l272 -266v-24h-228z" />
<glyph unicode="&#xda;" horiz-adv-x="1376" d="M146 498v950h276v-930q0 -298 264 -298q268 0 268 298v930h276v-950q0 -250 -142 -387t-402 -137q-258 0 -399 137t-141 387zM516 1562v24l290 266h302v-24l-364 -266h-228z" />
<glyph unicode="&#xdb;" horiz-adv-x="1376" d="M146 498v950h276v-930q0 -298 264 -298q268 0 268 298v930h276v-950q0 -250 -142 -387t-402 -137q-258 0 -399 137t-141 387zM324 1562v24l234 266h260l234 -266v-24h-202l-166 152l-164 -152h-196z" />
<glyph unicode="&#xdc;" horiz-adv-x="1376" d="M146 498v950h276v-930q0 -298 264 -298q268 0 268 298v930h276v-950q0 -250 -142 -387t-402 -137q-258 0 -399 137t-141 387zM336 1684q0 68 38 106t106 38t107 -38t39 -104q0 -68 -38 -105t-108 -37q-68 0 -106 38t-38 102zM750 1684q0 68 38 106t106 38t107 -38 t39 -104q0 -68 -38 -105t-108 -37q-68 0 -106 38t-38 102z" />
<glyph unicode="&#xdd;" horiz-adv-x="1180" d="M22 1448h294l276 -670l274 670h292l-432 -970v-478h-276v478zM416 1562v24l290 266h302v-24l-364 -266h-228z" />
<glyph unicode="&#xde;" horiz-adv-x="1234" d="M156 0v1448h276v-218h252q230 0 357 -128t127 -360q0 -236 -131 -365t-367 -127h-238v-250h-276zM432 496h252q200 0 200 240q0 248 -214 248h-238v-488z" />
<glyph unicode="&#xdf;" horiz-adv-x="1208" d="M144 0v1094q0 230 116 355t330 125q196 0 303 -98t107 -278q0 -222 -180 -342q330 -80 330 -424q0 -212 -119 -329t-337 -117q-92 0 -180 26l44 218q70 -18 136 -18q200 0 200 196q0 264 -346 284v204q104 48 152 113t48 159q0 168 -150 168q-182 0 -182 -242v-1094h-272 z" />
<glyph unicode="&#xe0;" horiz-adv-x="1072" d="M52 306q0 196 147 287t475 95v40q0 150 -204 150q-124 0 -254 -56l-68 208q186 88 372 88q202 0 312 -94t110 -264v-760h-242v160q-98 -182 -322 -182q-156 0 -241 86t-85 242zM214 1548v20h282l174 -318v-20h-208zM310 328q0 -122 138 -122q130 0 226 106v196 q-192 -2 -278 -45t-86 -135z" />
<glyph unicode="&#xe1;" horiz-adv-x="1072" d="M52 306q0 196 147 287t475 95v40q0 150 -204 150q-124 0 -254 -56l-68 208q186 88 372 88q202 0 312 -94t110 -264v-760h-242v160q-98 -182 -322 -182q-156 0 -241 86t-85 242zM310 328q0 -122 138 -122q130 0 226 106v196q-192 -2 -278 -45t-86 -135zM366 1230v20 l190 318h282v-20l-264 -318h-208z" />
<glyph unicode="&#xe2;" horiz-adv-x="1072" d="M52 306q0 196 147 287t475 95v40q0 150 -204 150q-124 0 -254 -56l-68 208q186 88 372 88q202 0 312 -94t110 -264v-760h-242v160q-98 -182 -322 -182q-156 0 -241 86t-85 242zM186 1230v20l204 318h248l204 -318v-20h-190l-142 176l-140 -176h-184zM310 328 q0 -122 138 -122q130 0 226 106v196q-192 -2 -278 -45t-86 -135z" />
<glyph unicode="&#xe3;" horiz-adv-x="1072" d="M52 306q0 196 147 287t475 95v40q0 150 -204 150q-124 0 -254 -56l-68 208q186 88 372 88q202 0 312 -94t110 -264v-760h-242v160q-98 -182 -322 -182q-156 0 -241 86t-85 242zM144 1234q2 142 62 221t166 79q54 0 93 -18t91 -52q30 -22 53 -33t47 -11q66 0 78 110h150 q-2 -142 -62 -221t-166 -79q-54 0 -93 18t-91 52q-30 22 -53 33t-47 11q-66 0 -78 -110h-150zM310 328q0 -122 138 -122q130 0 226 106v196q-192 -2 -278 -45t-86 -135z" />
<glyph unicode="&#xe4;" horiz-adv-x="1072" d="M52 306q0 196 147 287t475 95v40q0 150 -204 150q-124 0 -254 -56l-68 208q186 88 372 88q202 0 312 -94t110 -264v-760h-242v160q-98 -182 -322 -182q-156 0 -241 86t-85 242zM174 1368q0 68 38 106t106 38t107 -38t39 -104q0 -68 -38 -105t-108 -37q-68 0 -106 38 t-38 102zM310 328q0 -122 138 -122q130 0 226 106v196q-192 -2 -278 -45t-86 -135zM564 1368q0 68 38 106t106 38t107 -38t39 -104q0 -68 -38 -105t-108 -37q-68 0 -106 38t-38 102z" />
<glyph unicode="&#xe5;" horiz-adv-x="1072" d="M52 306q0 196 147 287t475 95v40q0 150 -204 150q-124 0 -254 -56l-68 208q186 88 372 88q202 0 312 -94t110 -264v-760h-242v160q-98 -182 -322 -182q-156 0 -241 86t-85 242zM242 1440q0 114 71 177t201 63t201 -63t71 -177t-71 -177t-201 -63t-201 63t-71 177z M310 328q0 -122 138 -122q130 0 226 106v196q-192 -2 -278 -45t-86 -135zM408 1440q0 -110 106 -110t106 110t-106 110t-106 -110z" />
<glyph unicode="&#xe6;" horiz-adv-x="1656" d="M52 300q0 192 145 281t465 93v54q0 150 -198 150q-122 0 -248 -56l-68 208q186 88 366 88q210 0 304 -128q54 62 134 95t176 33q220 0 341 -138t121 -388q0 -74 -12 -132h-652q34 -240 266 -240q124 0 258 64l96 -202q-80 -50 -180 -78t-204 -28q-140 0 -244 52t-168 152 q-84 -106 -175 -154t-203 -48q-152 0 -236 84t-84 238zM310 320q0 -114 132 -114q136 0 240 130q-20 76 -22 158q-184 -2 -267 -44t-83 -130zM924 642h396q-2 114 -54 176t-144 62q-172 0 -198 -238z" />
<glyph unicode="&#xe7;" horiz-adv-x="966" d="M70 530q0 176 64 309t181 206t271 73q92 0 179 -26t151 -72l-96 -210q-142 62 -238 62q-112 0 -173 -86t-61 -242q0 -320 260 -320q114 0 228 60l92 -208q-130 -100 -332 -100h-6l-58 -78q28 4 42 4q108 0 167 -45t59 -127q0 -100 -72 -155t-204 -55q-136 0 -244 52 l42 124q106 -34 172 -34q98 0 98 62q0 58 -86 58q-42 0 -78 -14l-60 68l66 158q-176 44 -270 182t-94 354z" />
<glyph unicode="&#xe8;" horiz-adv-x="1092" d="M74 546q0 274 127 423t357 149q224 0 346 -138t122 -388q0 -74 -12 -132h-664q34 -240 272 -240q132 0 264 64l96 -202q-80 -50 -182 -78t-208 -28q-248 0 -383 149t-135 421zM256 1548v20h282l174 -318v-20h-208zM348 642h408q-4 114 -57 176t-147 62q-178 0 -204 -238z " />
<glyph unicode="&#xe9;" horiz-adv-x="1092" d="M74 546q0 274 127 423t357 149q224 0 346 -138t122 -388q0 -74 -12 -132h-664q34 -240 272 -240q132 0 264 64l96 -202q-80 -50 -182 -78t-208 -28q-248 0 -383 149t-135 421zM348 642h408q-4 114 -57 176t-147 62q-178 0 -204 -238zM408 1230v20l190 318h282v-20 l-264 -318h-208z" />
<glyph unicode="&#xea;" horiz-adv-x="1092" d="M74 546q0 274 127 423t357 149q224 0 346 -138t122 -388q0 -74 -12 -132h-664q34 -240 272 -240q132 0 264 64l96 -202q-80 -50 -182 -78t-208 -28q-248 0 -383 149t-135 421zM228 1230v20l204 318h248l204 -318v-20h-190l-142 176l-140 -176h-184zM348 642h408 q-4 114 -57 176t-147 62q-178 0 -204 -238z" />
<glyph unicode="&#xeb;" horiz-adv-x="1092" d="M74 546q0 274 127 423t357 149q224 0 346 -138t122 -388q0 -74 -12 -132h-664q34 -240 272 -240q132 0 264 64l96 -202q-80 -50 -182 -78t-208 -28q-248 0 -383 149t-135 421zM216 1368q0 68 38 106t106 38t107 -38t39 -104q0 -68 -38 -105t-108 -37q-68 0 -106 38 t-38 102zM348 642h408q-4 114 -57 176t-147 62q-178 0 -204 -238zM606 1368q0 68 38 106t106 38t107 -38t39 -104q0 -68 -38 -105t-108 -37q-68 0 -106 38t-38 102z" />
<glyph unicode="&#xec;" horiz-adv-x="568" d="M-16 1548v20h282l174 -318v-20h-208zM148 0v1092h272v-1092h-272z" />
<glyph unicode="&#xed;" horiz-adv-x="568" d="M136 1230v20l190 318h282v-20l-264 -318h-208zM148 0v1092h272v-1092h-272z" />
<glyph unicode="&#xee;" horiz-adv-x="568" d="M-44 1230v20l204 318h248l204 -318v-20h-190l-142 176l-140 -176h-184zM148 0v1092h272v-1092h-272z" />
<glyph unicode="&#xef;" horiz-adv-x="568" d="M-48 1368q0 68 37 106t105 38q66 0 103 -38t37 -104q0 -68 -37 -105t-103 -37t-104 38t-38 102zM148 0v1092h272v-1092h-272zM334 1368q0 68 37 106t105 38q66 0 103 -38t37 -104q0 -68 -37 -105t-103 -37t-104 38t-38 102z" />
<glyph unicode="&#xf0;" horiz-adv-x="1126" d="M68 528q0 258 119 400t337 142q130 0 210 -74q-66 142 -202 250l-236 -142l-80 140l178 90q-68 34 -140 60l-56 20l60 170l56 -20q154 -54 272 -122l208 128l80 -140l-152 -80q168 -134 247 -319t79 -439q0 -310 -122 -464t-368 -154q-236 0 -363 140t-127 414zM346 528 q0 -312 212 -312q214 0 214 330q0 140 -56 217t-156 77q-214 0 -214 -312z" />
<glyph unicode="&#xf1;" horiz-adv-x="1176" d="M144 0v1092h246v-138q128 164 328 164q154 0 239 -94t85 -264v-760h-272v720q0 146 -158 146q-54 0 -100 -18t-96 -56v-792h-272zM224 1234q2 142 62 221t166 79q54 0 93 -18t91 -52q30 -22 53 -33t47 -11q66 0 78 110h150q-2 -142 -62 -221t-166 -79q-54 0 -93 18 t-91 52q-30 22 -53 33t-47 11q-66 0 -78 -110h-150z" />
<glyph unicode="&#xf2;" horiz-adv-x="1126" d="M78 546q0 282 126 427t360 145t359 -144t125 -428q0 -282 -126 -427t-360 -145t-359 144t-125 428zM264 1548v20h282l174 -318v-20h-208zM356 546q0 -330 206 -330q208 0 208 330t-206 330q-208 0 -208 -330z" />
<glyph unicode="&#xf3;" horiz-adv-x="1126" d="M78 546q0 282 126 427t360 145t359 -144t125 -428q0 -282 -126 -427t-360 -145t-359 144t-125 428zM356 546q0 -330 206 -330q208 0 208 330t-206 330q-208 0 -208 -330zM416 1230v20l190 318h282v-20l-264 -318h-208z" />
<glyph unicode="&#xf4;" horiz-adv-x="1126" d="M78 546q0 282 126 427t360 145t359 -144t125 -428q0 -282 -126 -427t-360 -145t-359 144t-125 428zM236 1230v20l204 318h248l204 -318v-20h-190l-142 176l-140 -176h-184zM356 546q0 -330 206 -330q208 0 208 330t-206 330q-208 0 -208 -330z" />
<glyph unicode="&#xf5;" horiz-adv-x="1126" d="M78 546q0 282 126 427t360 145t359 -144t125 -428q0 -282 -126 -427t-360 -145t-359 144t-125 428zM194 1234q2 142 62 221t166 79q54 0 93 -18t91 -52q30 -22 53 -33t47 -11q66 0 78 110h150q-2 -142 -62 -221t-166 -79q-54 0 -93 18t-91 52q-30 22 -53 33t-47 11 q-66 0 -78 -110h-150zM356 546q0 -330 206 -330q208 0 208 330t-206 330q-208 0 -208 -330z" />
<glyph unicode="&#xf6;" horiz-adv-x="1126" d="M78 546q0 282 126 427t360 145t359 -144t125 -428q0 -282 -126 -427t-360 -145t-359 144t-125 428zM224 1368q0 68 38 106t106 38t107 -38t39 -104q0 -68 -38 -105t-108 -37q-68 0 -106 38t-38 102zM356 546q0 -330 206 -330q208 0 208 330t-206 330q-208 0 -208 -330z M614 1368q0 68 38 106t106 38t107 -38t39 -104q0 -68 -38 -105t-108 -37q-68 0 -106 38t-38 102z" />
<glyph unicode="&#xf7;" horiz-adv-x="1158" d="M108 620v234h942v-234h-942zM428 344q0 68 43 110t109 42t109 -42t43 -110t-43 -110t-109 -42t-109 42t-43 110zM428 1128q0 68 43 110t109 42t109 -42t43 -110t-43 -110t-109 -42t-109 42t-43 110z" />
<glyph unicode="&#xf8;" horiz-adv-x="1126" d="M18 0l148 176q-88 142 -88 370q0 282 126 427t360 145q168 0 284 -82l54 76h206v-20l-148 -176q88 -142 88 -370q0 -282 -126 -427t-360 -145q-168 0 -284 82l-54 -76h-206v20zM344 546q0 -72 10 -138l346 434q-48 46 -136 46q-220 0 -220 -342zM426 250q48 -46 136 -46 q220 0 220 342q0 72 -10 138z" />
<glyph unicode="&#xf9;" horiz-adv-x="1160" d="M130 332v760h272v-720q0 -146 152 -146q56 0 100 21t90 67v778h272v-1092h-246v154q-120 -180 -322 -180q-152 0 -235 94t-83 264zM274 1548v20h282l174 -318v-20h-208z" />
<glyph unicode="&#xfa;" horiz-adv-x="1160" d="M130 332v760h272v-720q0 -146 152 -146q56 0 100 21t90 67v778h272v-1092h-246v154q-120 -180 -322 -180q-152 0 -235 94t-83 264zM426 1230v20l190 318h282v-20l-264 -318h-208z" />
<glyph unicode="&#xfb;" horiz-adv-x="1160" d="M130 332v760h272v-720q0 -146 152 -146q56 0 100 21t90 67v778h272v-1092h-246v154q-120 -180 -322 -180q-152 0 -235 94t-83 264zM246 1230v20l204 318h248l204 -318v-20h-190l-142 176l-140 -176h-184z" />
<glyph unicode="&#xfc;" horiz-adv-x="1160" d="M130 332v760h272v-720q0 -146 152 -146q56 0 100 21t90 67v778h272v-1092h-246v154q-120 -180 -322 -180q-152 0 -235 94t-83 264zM234 1368q0 68 38 106t106 38t107 -38t39 -104q0 -68 -38 -105t-108 -37q-68 0 -106 38t-38 102zM624 1368q0 68 38 106t106 38t107 -38 t39 -104q0 -68 -38 -105t-108 -37q-68 0 -106 38t-38 102z" />
<glyph unicode="&#xfd;" horiz-adv-x="1046" d="M28 1092h274l224 -804l220 804h272l-330 -1030q-60 -190 -193 -309t-369 -193l-92 228q138 48 218 98t130 116zM378 1230v20l190 318h282v-20l-264 -318h-208z" />
<glyph unicode="&#xfe;" horiz-adv-x="1162" d="M144 -414v1440v514h272v-562q98 140 274 140q188 0 291 -149t103 -421q0 -274 -104 -424t-292 -150q-84 0 -154 30t-118 86v-504h-272zM416 308q38 -44 88 -67t106 -23q196 0 196 320q0 328 -204 328q-52 0 -96 -22t-90 -70v-466z" />
<glyph unicode="&#xff;" horiz-adv-x="1046" d="M28 1092h274l224 -804l220 804h272l-330 -1030q-60 -190 -193 -309t-369 -193l-92 228q138 48 218 98t130 116zM186 1368q0 68 38 106t106 38t107 -38t39 -104q0 -68 -38 -105t-108 -37q-68 0 -106 38t-38 102zM576 1368q0 68 38 106t106 38t107 -38t39 -104 q0 -68 -38 -105t-108 -37q-68 0 -106 38t-38 102z" />
<glyph unicode="&#x100;" horiz-adv-x="1340" d="M30 0l490 1448h300l490 -1448h-290l-94 312h-516l-92 -312h-288zM342 1612v184h656v-184h-656zM482 552h374l-188 630z" />
<glyph unicode="&#x101;" horiz-adv-x="1072" d="M52 306q0 196 147 287t475 95v40q0 150 -204 150q-124 0 -254 -56l-68 208q186 88 372 88q202 0 312 -94t110 -264v-760h-242v160q-98 -182 -322 -182q-156 0 -241 86t-85 242zM186 1272v184h656v-184h-656zM310 328q0 -122 138 -122q130 0 226 106v196q-192 -2 -278 -45 t-86 -135z" />
<glyph unicode="&#x102;" horiz-adv-x="1340" d="M30 0l490 1448h300l490 -1448h-290l-94 312h-516l-92 -312h-288zM346 1900h156q20 -146 170 -146q152 0 172 146h150q-6 -166 -90 -253t-234 -87t-234 87t-90 253zM482 552h374l-188 630z" />
<glyph unicode="&#x103;" horiz-adv-x="1072" d="M52 306q0 196 147 287t475 95v40q0 150 -204 150q-124 0 -254 -56l-68 208q186 88 372 88q202 0 312 -94t110 -264v-760h-242v160q-98 -182 -322 -182q-156 0 -241 86t-85 242zM190 1560h156q20 -146 170 -146q152 0 172 146h150q-6 -166 -90 -253t-234 -87t-234 87 t-90 253zM310 328q0 -122 138 -122q130 0 226 106v196q-192 -2 -278 -45t-86 -135z" />
<glyph unicode="&#x104;" horiz-adv-x="1340" d="M30 0l490 1448h300l490 -1448q-162 -96 -162 -204q0 -80 92 -80q54 0 112 26l60 -140q-48 -30 -110 -46t-126 -16q-118 0 -184 54t-66 152q0 80 45 146t127 108h-78l-94 312h-516l-92 -312h-288zM482 552h374l-188 630z" />
<glyph unicode="&#x105;" horiz-adv-x="1072" d="M52 306q0 196 147 287t475 95v40q0 150 -204 150q-124 0 -254 -56l-68 208q186 88 372 88q202 0 312 -94t110 -264v-760q-162 -96 -162 -204q0 -80 92 -80q54 0 112 26l60 -140q-48 -30 -110 -46t-126 -16q-118 0 -184 54t-66 152q0 80 45 146t127 108h-26v168 q-64 -100 -141 -145t-185 -45q-156 0 -241 86t-85 242zM310 328q0 -122 138 -122q130 0 226 106v196q-190 -2 -277 -45t-87 -135z" />
<glyph unicode="&#x106;" horiz-adv-x="1206" d="M76 694q0 240 80 416t229 270t351 94q112 0 220 -30t186 -86l-94 -210q-156 78 -316 78q-178 0 -275 -134t-97 -378q0 -486 398 -486q184 0 302 70l94 -208q-66 -54 -174 -84t-234 -30q-318 0 -494 188t-176 530zM532 1562v24l290 266h302v-24l-364 -266h-228z" />
<glyph unicode="&#x107;" horiz-adv-x="966" d="M70 530q0 176 64 309t181 206t271 73q92 0 179 -26t151 -72l-96 -210q-142 62 -238 62q-112 0 -173 -86t-61 -242q0 -320 260 -320q114 0 228 60l92 -208q-130 -100 -332 -100q-250 0 -388 145t-138 409zM386 1230v20l190 318h282v-20l-264 -318h-208z" />
<glyph unicode="&#x108;" horiz-adv-x="1206" d="M76 694q0 240 80 416t229 270t351 94q112 0 220 -30t186 -86l-94 -210q-156 78 -316 78q-178 0 -275 -134t-97 -378q0 -486 398 -486q184 0 302 70l94 -208q-66 -54 -174 -84t-234 -30q-318 0 -494 188t-176 530zM340 1562v24l234 266h260l234 -266v-24h-202l-166 152 l-164 -152h-196z" />
<glyph unicode="&#x109;" horiz-adv-x="966" d="M70 530q0 176 64 309t181 206t271 73q92 0 179 -26t151 -72l-96 -210q-142 62 -238 62q-112 0 -173 -86t-61 -242q0 -320 260 -320q114 0 228 60l92 -208q-130 -100 -332 -100q-250 0 -388 145t-138 409zM206 1230v20l204 318h248l204 -318v-20h-190l-142 176l-140 -176 h-184z" />
<glyph unicode="&#x10a;" horiz-adv-x="1206" d="M76 694q0 240 80 416t229 270t351 94q112 0 220 -30t186 -86l-94 -210q-156 78 -316 78q-178 0 -275 -134t-97 -378q0 -486 398 -486q184 0 302 70l94 -208q-66 -54 -174 -84t-234 -30q-318 0 -494 188t-176 530zM542 1706q0 74 43 115t119 41t119 -41t43 -113 q0 -74 -43 -115t-119 -41t-119 41t-43 113z" />
<glyph unicode="&#x10b;" horiz-adv-x="966" d="M70 530q0 176 64 309t181 206t271 73q92 0 179 -26t151 -72l-96 -210q-142 62 -238 62q-112 0 -173 -86t-61 -242q0 -320 260 -320q114 0 228 60l92 -208q-130 -100 -332 -100q-250 0 -388 145t-138 409zM372 1388q0 74 43 115t119 41t119 -41t43 -113q0 -74 -43 -115 t-119 -41t-119 41t-43 113z" />
<glyph unicode="&#x10c;" horiz-adv-x="1206" d="M76 694q0 240 80 416t229 270t351 94q112 0 220 -30t186 -86l-94 -210q-156 78 -316 78q-178 0 -275 -134t-97 -378q0 -486 398 -486q184 0 302 70l94 -208q-66 -54 -174 -84t-234 -30q-318 0 -494 188t-176 530zM340 1828v24h202l166 -152l164 152h196v-24l-234 -266 h-260z" />
<glyph unicode="&#x10d;" horiz-adv-x="966" d="M70 530q0 176 64 309t181 206t271 73q92 0 179 -26t151 -72l-96 -210q-142 62 -238 62q-112 0 -173 -86t-61 -242q0 -320 260 -320q114 0 228 60l92 -208q-130 -100 -332 -100q-250 0 -388 145t-138 409zM206 1548v20h190l140 -176l142 176h184v-20l-204 -318h-248z" />
<glyph unicode="&#x10e;" horiz-adv-x="1386" d="M156 0v1448h480q320 0 487 -182t167 -540q0 -362 -167 -544t-487 -182h-480zM316 1828v24h202l166 -152l164 152h196v-24l-234 -266h-260zM432 246h196q378 0 378 480q0 476 -376 476h-198v-956z" />
<glyph unicode="&#x10f;" horiz-adv-x="1162" d="M78 544q0 274 104 424t292 150q84 0 154 -30t118 -86v538h272v-1474v-66h-246v156q-102 -182 -300 -182q-188 0 -291 149t-103 421zM356 554q0 -328 204 -328q52 0 96 22t90 70v466q-38 44 -88 67t-106 23q-196 0 -196 -320zM1118 1080v460h224v-20l-68 -440h-156z" />
<glyph unicode="&#x110;" horiz-adv-x="1388" d="M30 628v210h128v610h480q320 0 487 -182t167 -540q0 -362 -167 -544t-487 -182h-480v628h-128zM434 246h196q378 0 378 480q0 476 -376 476h-198v-364h306v-210h-306v-382z" />
<glyph unicode="&#x111;" horiz-adv-x="1166" d="M78 528q0 266 105 412t295 146q84 0 154 -30t118 -86v244h-386v170h386v156h272v-156h124v-170h-124v-1214h-246v156q-102 -182 -300 -182q-190 0 -294 145t-104 409zM356 538q0 -312 208 -312q52 0 96 22t90 70v434q-38 44 -88 67t-106 23q-200 0 -200 -304z" />
<glyph unicode="&#x112;" horiz-adv-x="1156" d="M156 0v1448h912v-246h-636v-338h468v-248h-468v-370h664v-246h-940zM282 1612v184h656v-184h-656z" />
<glyph unicode="&#x113;" horiz-adv-x="1092" d="M74 546q0 274 127 423t357 149q224 0 346 -138t122 -388q0 -74 -12 -132h-664q34 -240 272 -240q132 0 264 64l96 -202q-80 -50 -182 -78t-208 -28q-248 0 -383 149t-135 421zM228 1272v184h656v-184h-656zM348 642h408q-4 114 -57 176t-147 62q-178 0 -204 -238z" />
<glyph unicode="&#x114;" horiz-adv-x="1156" d="M156 0v1448h912v-246h-636v-338h468v-248h-468v-370h664v-246h-940zM286 1900h156q20 -146 170 -146q152 0 172 146h150q-6 -166 -90 -253t-234 -87t-234 87t-90 253z" />
<glyph unicode="&#x115;" horiz-adv-x="1092" d="M74 546q0 274 127 423t357 149q224 0 346 -138t122 -388q0 -74 -12 -132h-664q34 -240 272 -240q132 0 264 64l96 -202q-80 -50 -182 -78t-208 -28q-248 0 -383 149t-135 421zM232 1560h156q20 -146 170 -146q152 0 172 146h150q-6 -166 -90 -253t-234 -87t-234 87 t-90 253zM348 642h408q-4 114 -57 176t-147 62q-178 0 -204 -238z" />
<glyph unicode="&#x116;" horiz-adv-x="1156" d="M156 0v1448h912v-246h-636v-338h468v-248h-468v-370h664v-246h-940zM448 1706q0 74 43 115t119 41t119 -41t43 -113q0 -74 -43 -115t-119 -41t-119 41t-43 113z" />
<glyph unicode="&#x117;" horiz-adv-x="1092" d="M74 546q0 274 127 423t357 149q224 0 346 -138t122 -388q0 -74 -12 -132h-664q34 -240 272 -240q132 0 264 64l96 -202q-80 -50 -182 -78t-208 -28q-248 0 -383 149t-135 421zM348 642h408q-4 114 -57 176t-147 62q-178 0 -204 -238zM394 1388q0 74 43 115t119 41 t119 -41t43 -113q0 -74 -43 -115t-119 -41t-119 41t-43 113z" />
<glyph unicode="&#x118;" horiz-adv-x="1156" d="M156 0v1448h912v-246h-636v-338h468v-248h-468v-370h664v-246q-162 -96 -162 -204q0 -80 92 -80q54 0 112 26l60 -140q-48 -30 -110 -46t-126 -16q-118 0 -184 54t-66 152q0 80 45 146t127 108h-728z" />
<glyph unicode="&#x119;" horiz-adv-x="1092" d="M74 546q0 274 127 423t357 149q224 0 346 -138t122 -388q0 -74 -12 -132h-664q34 -240 272 -240q132 0 264 64l96 -202q-50 -28 -72 -38q-84 -40 -139 -111t-55 -137q0 -80 92 -80q54 0 112 26l60 -140q-48 -30 -110 -46t-126 -16q-118 0 -184 54t-66 152q0 66 32 125 t90 105h-24q-248 0 -383 149t-135 421zM348 642h408q-4 114 -57 176t-147 62q-178 0 -204 -238z" />
<glyph unicode="&#x11a;" horiz-adv-x="1156" d="M156 0v1448h912v-246h-636v-338h468v-248h-468v-370h664v-246h-940zM246 1828v24h202l166 -152l164 152h196v-24l-234 -266h-260z" />
<glyph unicode="&#x11b;" horiz-adv-x="1092" d="M74 546q0 274 127 423t357 149q224 0 346 -138t122 -388q0 -74 -12 -132h-664q34 -240 272 -240q132 0 264 64l96 -202q-80 -50 -182 -78t-208 -28q-248 0 -383 149t-135 421zM228 1548v20h190l140 -176l142 176h184v-20l-204 -318h-248zM348 642h408q-4 114 -57 176 t-147 62q-178 0 -204 -238z" />
<glyph unicode="&#x11c;" horiz-adv-x="1336" d="M96 724q0 358 178 554t504 196q128 0 240 -30t188 -84l-80 -220q-188 88 -352 88q-394 0 -394 -504t398 -504q80 0 166 20v346h-238v244h514v-740q-82 -56 -199 -86t-243 -30q-326 0 -504 196t-178 554zM358 1562v24l234 266h260l234 -266v-24h-202l-166 152l-164 -152 h-196z" />
<glyph unicode="&#x11d;" horiz-adv-x="1166" d="M78 574q0 260 105 402t295 142q96 0 174 -39t124 -113v126h246v-1048q0 -232 -131 -358t-371 -126q-98 0 -193 21t-171 61l76 214q134 -58 258 -58q260 0 260 246v130q-98 -140 -274 -140q-190 0 -294 141t-104 399zM248 1230v20l204 318h248l204 -318v-20h-190l-142 176 l-140 -176h-184zM356 584q0 -298 208 -298q52 0 96 22t90 70v406q-38 44 -88 67t-106 23q-200 0 -200 -290z" />
<glyph unicode="&#x11e;" horiz-adv-x="1336" d="M96 724q0 358 178 554t504 196q128 0 240 -30t188 -84l-80 -220q-188 88 -352 88q-394 0 -394 -504t398 -504q80 0 166 20v346h-238v244h514v-740q-82 -56 -199 -86t-243 -30q-326 0 -504 196t-178 554zM398 1900h156q20 -146 170 -146q152 0 172 146h150 q-6 -166 -90 -253t-234 -87t-234 87t-90 253z" />
<glyph unicode="&#x11f;" horiz-adv-x="1166" d="M78 574q0 260 105 402t295 142q96 0 174 -39t124 -113v126h246v-1048q0 -232 -131 -358t-371 -126q-98 0 -193 21t-171 61l76 214q134 -58 258 -58q260 0 260 246v130q-98 -140 -274 -140q-190 0 -294 141t-104 399zM252 1560h156q20 -146 170 -146q152 0 172 146h150 q-6 -166 -90 -253t-234 -87t-234 87t-90 253zM356 584q0 -298 208 -298q52 0 96 22t90 70v406q-38 44 -88 67t-106 23q-200 0 -200 -290z" />
<glyph unicode="&#x120;" horiz-adv-x="1336" d="M96 724q0 358 178 554t504 196q128 0 240 -30t188 -84l-80 -220q-188 88 -352 88q-394 0 -394 -504t398 -504q80 0 166 20v346h-238v244h514v-740q-82 -56 -199 -86t-243 -30q-326 0 -504 196t-178 554zM560 1706q0 74 43 115t119 41t119 -41t43 -113q0 -74 -43 -115 t-119 -41t-119 41t-43 113z" />
<glyph unicode="&#x121;" horiz-adv-x="1166" d="M78 574q0 260 105 402t295 142q96 0 174 -39t124 -113v126h246v-1048q0 -232 -131 -358t-371 -126q-98 0 -193 21t-171 61l76 214q134 -58 258 -58q260 0 260 246v130q-98 -140 -274 -140q-190 0 -294 141t-104 399zM356 584q0 -298 208 -298q52 0 96 22t90 70v406 q-38 44 -88 67t-106 23q-200 0 -200 -290zM414 1388q0 74 43 115t119 41t119 -41t43 -113q0 -74 -43 -115t-119 -41t-119 41t-43 113z" />
<glyph unicode="&#x122;" horiz-adv-x="1336" d="M96 724q0 358 178 554t504 196q128 0 240 -30t188 -84l-80 -220q-188 88 -352 88q-394 0 -394 -504t398 -504q80 0 166 20v346h-238v244h514v-740q-82 -56 -199 -86t-243 -30q-326 0 -504 196t-178 554zM512 -476q50 54 70 109t20 135q0 48 -8 100h248q8 -52 8 -98 q0 -96 -57 -180t-183 -172z" />
<glyph unicode="&#x123;" horiz-adv-x="1166" d="M78 574q0 260 105 402t295 142q96 0 174 -39t124 -113v126h246v-1048q0 -232 -131 -358t-371 -126q-98 0 -193 21t-171 61l76 214q134 -58 258 -58q260 0 260 246v130q-98 -140 -274 -140q-190 0 -294 141t-104 399zM356 584q0 -298 208 -298q52 0 96 22t90 70v406 q-38 44 -88 67t-106 23q-200 0 -200 -290zM438 1306q0 96 57 180t183 172l98 -106q-50 -54 -70 -109t-20 -135q0 -48 8 -100h-248q-8 52 -8 98z" />
<glyph unicode="&#x124;" horiz-adv-x="1408" d="M156 0v1448h276v-590h544v590h276v-1448h-276v612h-544v-612h-276zM340 1562v24l234 266h260l234 -266v-24h-202l-166 152l-164 -152h-196z" />
<glyph unicode="&#x125;" horiz-adv-x="1180" d="M-84 1654v24l234 266h260l234 -266v-24h-202l-166 152l-164 -152h-196zM144 0v1540h272v-556q122 134 304 134q156 0 241 -93t85 -265v-760h-272v720q0 146 -160 146q-56 0 -102 -18t-96 -56v-792h-272z" />
<glyph unicode="&#x126;" horiz-adv-x="1408" d="M30 1040v204h126v204h276v-204h544v204h276v-204h126v-204h-126v-1040h-276v612h-544v-612h-276v1040h-126zM432 858h544v182h-544v-182z" />
<glyph unicode="&#x127;" horiz-adv-x="1184" d="M20 1206v186h124v148h272v-148h396v-186h-396v-258q122 134 306 134q158 0 243 -93t85 -265v-724h-272v684q0 146 -162 146q-58 0 -104 -18t-96 -56v-756h-272v1206h-124z" />
<glyph unicode="&#x128;" horiz-adv-x="596" d="M-46 1574q0 142 60 221t168 79q56 0 89 -19t65 -53q20 -22 37 -33t39 -11q70 0 82 112h148q0 -142 -60 -221t-168 -79q-56 0 -89 19t-65 53q-20 22 -37 33t-39 11q-70 0 -82 -112h-148zM160 0v1448h276v-1448h-276z" />
<glyph unicode="&#x129;" horiz-adv-x="568" d="M-60 1234q0 142 60 221t168 79q56 0 89 -19t65 -53q20 -22 37 -33t39 -11q70 0 82 112h148q0 -142 -60 -221t-168 -79q-56 0 -89 19t-65 53q-20 22 -37 33t-39 11q-70 0 -82 -112h-148zM148 0v1092h272v-1092h-272z" />
<glyph unicode="&#x12a;" horiz-adv-x="596" d="M-30 1612v184h656v-184h-656zM160 0v1448h276v-1448h-276z" />
<glyph unicode="&#x12b;" horiz-adv-x="568" d="M24 1272v184h520v-184h-520zM148 0v1092h272v-1092h-272z" />
<glyph unicode="&#x12c;" horiz-adv-x="596" d="M-26 1900h156q20 -146 170 -146q152 0 172 146h150q-6 -166 -90 -253t-234 -87t-234 87t-90 253zM160 0v1448h276v-1448h-276z" />
<glyph unicode="&#x12d;" horiz-adv-x="568" d="M-40 1560h156q20 -146 170 -146q152 0 172 146h150q-6 -166 -90 -253t-234 -87t-234 87t-90 253zM148 0v1092h272v-1092h-272z" />
<glyph unicode="&#x12e;" horiz-adv-x="596" d="M78 -254q0 76 40 142t114 112h-72v1448h276v-1448q-136 -100 -136 -204q0 -80 92 -80q54 0 112 26l60 -140q-48 -30 -110 -46t-126 -16q-118 0 -184 54t-66 152z" />
<glyph unicode="&#x12f;" horiz-adv-x="568" d="M62 -254q0 76 40 142t114 112h-68v1092h272v-1092q-136 -100 -136 -204q0 -80 92 -80q54 0 112 26l60 -140q-48 -30 -110 -46t-126 -16q-118 0 -184 54t-66 152zM122 1388q0 74 43 115t119 41t119 -41t43 -113q0 -74 -43 -115t-119 -41t-119 41t-43 113z" />
<glyph unicode="&#x130;" horiz-adv-x="596" d="M136 1706q0 74 43 115t119 41t119 -41t43 -113q0 -74 -43 -115t-119 -41t-119 41t-43 113zM160 0v1448h276v-1448h-276z" />
<glyph unicode="&#x131;" horiz-adv-x="568" d="M148 0v1092h272v-1092h-272z" />
<glyph unicode="&#x132;" horiz-adv-x="1382" d="M156 0v1448h276v-1448h-276zM566 42l86 228q114 -48 190 -48q144 0 144 172v1054h276v-1074q0 -190 -106 -295t-300 -105q-78 0 -154 18t-136 50z" />
<glyph unicode="&#x133;" horiz-adv-x="1136" d="M122 1388q0 74 43 115t119 41t119 -41t43 -113q0 -74 -43 -115t-119 -41t-119 41t-43 113zM148 0v1092h272v-1092h-272zM430 -224q118 40 179 81t84 97t23 152v986h272v-994q0 -154 -42 -252t-142 -165t-284 -127zM690 1388q0 74 43 115t119 41t119 -41t43 -113 q0 -74 -43 -115t-119 -41t-119 41t-43 113z" />
<glyph unicode="&#x134;" horiz-adv-x="944" d="M0 86l98 210q136 -74 248 -74q176 0 176 172v1054h276v-1074q0 -190 -115 -295t-323 -105q-108 0 -202 29t-158 83zM296 1562v24l234 266h260l234 -266v-24h-202l-166 152l-164 -152h-196z" />
<glyph unicode="&#x135;" horiz-adv-x="568" d="M-138 -224q118 40 179 81t84 97t23 152v986h272v-994q0 -154 -42 -252t-142 -165t-284 -127zM-44 1230v20l204 318h248l204 -318v-20h-190l-142 176l-140 -176h-184z" />
<glyph unicode="&#x136;" horiz-adv-x="1272" d="M156 0v1448h276v-682l510 682h326l-508 -630l540 -818h-326l-388 602l-154 -192v-410h-276zM482 -476q50 54 70 109t20 135q0 48 -8 100h248q8 -52 8 -98q0 -96 -57 -180t-183 -172z" />
<glyph unicode="&#x137;" horiz-adv-x="1130" d="M144 0v1540h272v-900l362 452h310l-386 -458l416 -634h-310l-278 430l-114 -136v-294h-272zM380 -476q50 54 70 109t20 135q0 48 -8 100h248q8 -52 8 -98q0 -96 -57 -180t-183 -172z" />
<glyph unicode="&#x138;" horiz-adv-x="1130" d="M144 0v1092h272v-452l362 452h310l-386 -458l416 -634h-310l-278 430l-114 -136v-294h-272z" />
<glyph unicode="&#x139;" horiz-adv-x="1062" d="M156 0v1448h276v-1200h582v-248h-858zM182 1562v24l290 266h302v-24l-364 -266h-228z" />
<glyph unicode="&#x13a;" horiz-adv-x="652" d="M104 1654v24l290 266h302v-24l-364 -266h-228zM140 278v1262h272v-1202q0 -58 22 -84t74 -26q32 0 70 6l18 -230q-78 -18 -162 -18q-148 0 -221 72t-73 220z" />
<glyph unicode="&#x13b;" horiz-adv-x="1062" d="M156 0v1448h276v-1200h582v-248h-858zM392 -476q50 54 70 109t20 135q0 48 -8 100h248q8 -52 8 -98q0 -96 -57 -180t-183 -172z" />
<glyph unicode="&#x13c;" horiz-adv-x="652" d="M140 278v1262h272v-1202q0 -58 22 -84t74 -26q32 0 70 6l18 -230q-78 -18 -162 -18q-148 0 -221 72t-73 220zM146 -476q50 54 70 109t20 135q0 48 -8 100h248q8 -52 8 -98q0 -96 -57 -180t-183 -172z" />
<glyph unicode="&#x13d;" horiz-adv-x="1062" d="M156 0v1448h276v-1200h582v-248h-858zM642 1080v460h224v-20l-68 -440h-156z" />
<glyph unicode="&#x13e;" horiz-adv-x="656" d="M140 278v1262h272v-1202q0 -58 22 -84t74 -26q32 0 70 6l18 -230q-78 -18 -162 -18q-148 0 -221 72t-73 220zM530 1080v460h224v-20l-68 -440h-156z" />
<glyph unicode="&#x13f;" horiz-adv-x="1062" d="M156 0v1448h276v-1200h582v-248h-858zM650 824q0 74 43 115t119 41t119 -41t43 -113q0 -74 -43 -115t-119 -41t-119 41t-43 113z" />
<glyph unicode="&#x140;" horiz-adv-x="794" d="M140 278v1262h272v-1202q0 -58 22 -84t74 -26q32 0 70 6l18 -230q-78 -18 -162 -18q-148 0 -221 72t-73 220zM510 800q0 74 43 115t119 41t119 -41t43 -113q0 -74 -43 -115t-119 -41t-119 41t-43 113z" />
<glyph unicode="&#x141;" horiz-adv-x="1070" d="M48 406v216l116 64v762h276v-608l364 212h20v-216l-384 -214v-374h582v-248h-858v464l-96 -58h-20z" />
<glyph unicode="&#x142;" horiz-adv-x="724" d="M36 522v212l152 90v716h272v-554l174 106h20v-212l-194 -114v-428q0 -58 22 -84t74 -26q32 0 70 6l18 -230q-78 -18 -162 -18q-148 0 -221 72t-73 220v326l-132 -82h-20z" />
<glyph unicode="&#x143;" horiz-adv-x="1452" d="M156 0v1448h266l602 -978v978h272v-1448h-266l-602 982v-982h-272zM554 1562v24l290 266h302v-24l-364 -266h-228z" />
<glyph unicode="&#x144;" horiz-adv-x="1176" d="M144 0v1092h246v-138q128 164 328 164q154 0 239 -94t85 -264v-760h-272v720q0 146 -158 146q-54 0 -100 -18t-96 -56v-792h-272zM446 1230v20l190 318h282v-20l-264 -318h-208z" />
<glyph unicode="&#x145;" horiz-adv-x="1452" d="M156 0v1448h266l602 -978v978h272v-1448h-266l-602 982v-982h-272zM516 -476q50 54 70 109t20 135q0 48 -8 100h248q8 -52 8 -98q0 -96 -57 -180t-183 -172z" />
<glyph unicode="&#x146;" horiz-adv-x="1176" d="M144 0v1092h246v-138q128 164 328 164q154 0 239 -94t85 -264v-760h-272v720q0 146 -158 146q-54 0 -100 -18t-96 -56v-792h-272zM386 -476q50 54 70 109t20 135q0 48 -8 100h248q8 -52 8 -98q0 -96 -57 -180t-183 -172z" />
<glyph unicode="&#x147;" horiz-adv-x="1452" d="M156 0v1448h266l602 -978v978h272v-1448h-266l-602 982v-982h-272zM362 1828v24h202l166 -152l164 152h196v-24l-234 -266h-260z" />
<glyph unicode="&#x148;" horiz-adv-x="1176" d="M144 0v1092h246v-138q128 164 328 164q154 0 239 -94t85 -264v-760h-272v720q0 146 -158 146q-54 0 -100 -18t-96 -56v-792h-272zM266 1548v20h190l140 -176l142 176h184v-20l-204 -318h-248z" />
<glyph unicode="&#x149;" horiz-adv-x="1176" d="M-192 1128q64 68 90 134t26 162q0 72 -4 116h244q4 -44 4 -114q0 -112 -62 -208t-202 -194zM144 0v1092h246v-138q128 164 328 164q154 0 239 -94t85 -264v-760h-272v720q0 146 -158 146q-54 0 -100 -18t-96 -56v-792h-272z" />
<glyph unicode="&#x14a;" horiz-adv-x="1454" d="M156 0v1448h266l602 -978v978h272v-1448v-60q0 -182 -104 -281t-294 -99q-192 0 -320 104l96 204q120 -66 210 -66q140 0 140 158v50l-596 972v-982h-272z" />
<glyph unicode="&#x14b;" horiz-adv-x="1176" d="M144 0v1092h246v-138q128 164 328 164q154 0 239 -94t85 -264v-760v-100q0 -162 -89 -251t-251 -89q-146 0 -258 78l86 200q96 -40 150 -40q46 0 68 29t22 93v514v286q0 146 -158 146q-54 0 -100 -18t-96 -56v-792h-272z" />
<glyph unicode="&#x14c;" horiz-adv-x="1432" d="M96 724q0 372 159 561t461 189t461 -189t159 -561t-159 -561t-461 -189t-461 189t-159 561zM380 724q0 -504 336 -504t336 504t-336 504t-336 -504zM388 1612v184h656v-184h-656z" />
<glyph unicode="&#x14d;" horiz-adv-x="1126" d="M78 546q0 282 126 427t360 145t359 -144t125 -428q0 -282 -126 -427t-360 -145t-359 144t-125 428zM236 1272v184h656v-184h-656zM356 546q0 -330 206 -330q208 0 208 330t-206 330q-208 0 -208 -330z" />
<glyph unicode="&#x14e;" horiz-adv-x="1432" d="M96 724q0 372 159 561t461 189t461 -189t159 -561t-159 -561t-461 -189t-461 189t-159 561zM380 724q0 -504 336 -504t336 504t-336 504t-336 -504zM392 1900h156q20 -146 170 -146q152 0 172 146h150q-6 -166 -90 -253t-234 -87t-234 87t-90 253z" />
<glyph unicode="&#x14f;" horiz-adv-x="1126" d="M78 546q0 282 126 427t360 145t359 -144t125 -428q0 -282 -126 -427t-360 -145t-359 144t-125 428zM240 1560h156q20 -146 170 -146q152 0 172 146h150q-6 -166 -90 -253t-234 -87t-234 87t-90 253zM356 546q0 -330 206 -330q208 0 208 330t-206 330q-208 0 -208 -330z " />
<glyph unicode="&#x150;" horiz-adv-x="1432" d="M96 724q0 372 159 561t461 189t461 -189t159 -561t-159 -561t-461 -189t-461 189t-159 561zM380 724q0 -504 336 -504t336 504t-336 504t-336 -504zM412 1562v24l186 266h250v-24l-256 -266h-180zM752 1562v24l188 266h254v-24l-258 -266h-184z" />
<glyph unicode="&#x151;" horiz-adv-x="1126" d="M78 546q0 282 126 427t360 145t359 -144t125 -428q0 -282 -126 -427t-360 -145t-359 144t-125 428zM298 1230v20l108 318h242v-20l-178 -318h-172zM356 546q0 -330 206 -330q208 0 208 330t-206 330q-208 0 -208 -330zM608 1230v20l112 318h242v-20l-182 -318h-172z" />
<glyph unicode="&#x152;" horiz-adv-x="1928" d="M96 724q0 360 159 542t461 182h326h798v-246h-608v-338h440v-248h-440v-370h636v-246h-904h-248q-302 0 -461 182t-159 542zM380 724q0 -478 336 -478h248v956h-248q-336 0 -336 -478z" />
<glyph unicode="&#x153;" horiz-adv-x="1762" d="M78 546q0 282 127 427t353 145q224 0 344 -156q52 76 138 116t194 40q220 0 341 -138t121 -388q0 -74 -12 -132h-652q34 -240 266 -240q124 0 258 64l96 -202q-80 -50 -180 -78t-204 -28q-240 0 -372 148q-120 -150 -340 -150q-226 0 -352 145t-126 427zM356 546 q0 -330 200 -330q202 0 202 330t-200 330q-202 0 -202 -330zM1030 642h396q-2 114 -54 176t-144 62q-172 0 -198 -238z" />
<glyph unicode="&#x154;" horiz-adv-x="1270" d="M156 0v1448h276h244q230 0 355 -123t125 -349q0 -166 -69 -278t-199 -162l358 -536h-330l-310 500h-174v-500h-276zM432 736h244q196 0 196 234q0 236 -204 236h-236v-470zM464 1562v24l290 266h302v-24l-364 -266h-228z" />
<glyph unicode="&#x155;" horiz-adv-x="812" d="M144 0v1092h246v-172q92 194 282 194q68 0 120 -26l-52 -254q-60 18 -128 18t-115 -23t-81 -75v-754h-272zM322 1230v20l190 318h282v-20l-264 -318h-208z" />
<glyph unicode="&#x156;" horiz-adv-x="1270" d="M156 0v1448h276h244q230 0 355 -123t125 -349q0 -166 -69 -278t-199 -162l358 -536h-330l-310 500h-174v-500h-276zM432 736h244q196 0 196 234q0 236 -204 236h-236v-470zM464 -476q50 54 70 109t20 135q0 48 -8 100h248q8 -52 8 -98q0 -96 -57 -180t-183 -172z" />
<glyph unicode="&#x157;" horiz-adv-x="812" d="M70 -476q50 54 70 109t20 135q0 48 -8 100h248q8 -52 8 -98q0 -96 -57 -180t-183 -172zM144 0v1092h246v-172q92 194 282 194q68 0 120 -26l-52 -254q-60 18 -128 18t-115 -23t-81 -75v-754h-272z" />
<glyph unicode="&#x158;" horiz-adv-x="1270" d="M156 0v1448h276h244q230 0 355 -123t125 -349q0 -166 -69 -278t-199 -162l358 -536h-330l-310 500h-174v-500h-276zM272 1828v24h202l166 -152l164 152h196v-24l-234 -266h-260zM432 736h244q196 0 196 234q0 236 -204 236h-236v-470z" />
<glyph unicode="&#x159;" horiz-adv-x="812" d="M142 1548v20h190l140 -176l142 176h184v-20l-204 -318h-248zM144 0v1092h246v-172q92 194 282 194q68 0 120 -26l-52 -254q-60 18 -128 18t-115 -23t-81 -75v-754h-272z" />
<glyph unicode="&#x15a;" horiz-adv-x="1128" d="M58 108l88 216q190 -110 390 -110q250 0 250 172q0 72 -46 118t-148 74l-164 46q-186 52 -269 148t-83 258q0 210 128 326t358 116q110 0 228 -26t224 -74l-90 -216q-210 78 -366 78q-218 0 -218 -158q0 -72 46 -117t148 -73l164 -46q188 -52 270 -148t82 -260 q0 -218 -135 -337t-379 -119q-132 0 -257 35t-221 97zM368 1562v24l290 266h302v-24l-364 -266h-228z" />
<glyph unicode="&#x15b;" horiz-adv-x="942" d="M40 86l94 220q148 -92 314 -92q174 0 174 98q0 40 -31 66t-101 42l-142 34q-154 36 -222 110t-68 202q0 166 109 258t307 92q100 0 200 -25t180 -69l-100 -216q-148 72 -284 72q-152 0 -152 -86q0 -38 32 -63t100 -41l142 -34q152 -36 221 -111t69 -205q0 -172 -114 -267 t-320 -95q-114 0 -221 29t-187 81zM308 1230v20l190 318h282v-20l-264 -318h-208z" />
<glyph unicode="&#x15c;" horiz-adv-x="1128" d="M58 108l88 216q190 -110 390 -110q250 0 250 172q0 72 -46 118t-148 74l-164 46q-186 52 -269 148t-83 258q0 210 128 326t358 116q110 0 228 -26t224 -74l-90 -216q-210 78 -366 78q-218 0 -218 -158q0 -72 46 -117t148 -73l164 -46q188 -52 270 -148t82 -260 q0 -218 -135 -337t-379 -119q-132 0 -257 35t-221 97zM176 1562v24l234 266h260l234 -266v-24h-202l-166 152l-164 -152h-196z" />
<glyph unicode="&#x15d;" horiz-adv-x="942" d="M40 86l94 220q148 -92 314 -92q174 0 174 98q0 40 -31 66t-101 42l-142 34q-154 36 -222 110t-68 202q0 166 109 258t307 92q100 0 200 -25t180 -69l-100 -216q-148 72 -284 72q-152 0 -152 -86q0 -38 32 -63t100 -41l142 -34q152 -36 221 -111t69 -205q0 -172 -114 -267 t-320 -95q-114 0 -221 29t-187 81zM128 1230v20l204 318h248l204 -318v-20h-190l-142 176l-140 -176h-184z" />
<glyph unicode="&#x15e;" horiz-adv-x="1128" d="M58 108l88 216q190 -110 390 -110q250 0 250 172q0 72 -46 118t-148 74l-164 46q-186 52 -269 148t-83 258q0 210 128 326t358 116q110 0 228 -26t224 -74l-90 -216q-210 78 -366 78q-218 0 -218 -158q0 -72 46 -117t148 -73l164 -46q188 -52 270 -148t82 -260 q0 -200 -114 -317t-324 -135l-60 -82q28 4 42 4q108 0 167 -45t59 -127q0 -100 -72 -155t-204 -55q-136 0 -244 52l42 124q106 -34 172 -34q98 0 98 62q0 58 -86 58q-42 0 -78 -14l-60 68l60 144q-230 22 -390 128z" />
<glyph unicode="&#x15f;" horiz-adv-x="942" d="M40 86l94 220q148 -92 314 -92q174 0 174 98q0 40 -31 66t-101 42l-142 34q-154 36 -222 110t-68 202q0 166 109 258t307 92q100 0 200 -25t180 -69l-100 -216q-148 72 -284 72q-152 0 -152 -86q0 -38 32 -63t100 -41l142 -34q152 -36 221 -111t69 -205q0 -158 -94 -250 t-268 -108l-60 -82q28 4 42 4q108 0 167 -45t59 -127q0 -100 -72 -155t-204 -55q-136 0 -244 52l42 124q106 -34 172 -34q98 0 98 62q0 58 -86 58q-42 0 -78 -14l-60 68l60 144q-190 22 -316 106z" />
<glyph unicode="&#x160;" horiz-adv-x="1128" d="M58 108l88 216q190 -110 390 -110q250 0 250 172q0 72 -46 118t-148 74l-164 46q-186 52 -269 148t-83 258q0 210 128 326t358 116q110 0 228 -26t224 -74l-90 -216q-210 78 -366 78q-218 0 -218 -158q0 -72 46 -117t148 -73l164 -46q188 -52 270 -148t82 -260 q0 -218 -135 -337t-379 -119q-132 0 -257 35t-221 97zM176 1828v24h202l166 -152l164 152h196v-24l-234 -266h-260z" />
<glyph unicode="&#x161;" horiz-adv-x="942" d="M40 86l94 220q148 -92 314 -92q174 0 174 98q0 40 -31 66t-101 42l-142 34q-154 36 -222 110t-68 202q0 166 109 258t307 92q100 0 200 -25t180 -69l-100 -216q-148 72 -284 72q-152 0 -152 -86q0 -38 32 -63t100 -41l142 -34q152 -36 221 -111t69 -205q0 -172 -114 -267 t-320 -95q-114 0 -221 29t-187 81zM128 1548v20h190l140 -176l142 176h184v-20l-204 -318h-248z" />
<glyph unicode="&#x162;" horiz-adv-x="1060" d="M32 1200v248h636h360v-248h-360v-1200h-66l-76 -102q28 4 42 4q108 0 167 -45t59 -127q0 -100 -72 -155t-204 -55q-136 0 -244 52l42 124q106 -34 172 -34q98 0 98 62q0 58 -86 58q-42 0 -78 -14l-60 68l68 164h-38v1200h-360z" />
<glyph unicode="&#x163;" horiz-adv-x="808" d="M22 858v234h168v296h270v-296h298v-234h-298v-472q0 -84 37 -122t117 -38q56 0 116 16l42 -230q-100 -28 -202 -28h-40l-64 -86q28 4 42 4q108 0 167 -45t59 -127q0 -100 -72 -155t-204 -55q-136 0 -244 52l42 124q106 -34 172 -34q98 0 98 62q0 58 -86 58q-42 0 -78 -14 l-60 68l74 180q-188 72 -188 320v522h-166z" />
<glyph unicode="&#x164;" horiz-adv-x="1060" d="M32 1200v248h636h360v-248h-360v-1200h-276v1200h-360zM166 1828v24h202l166 -152l164 152h196v-24l-234 -266h-260z" />
<glyph unicode="&#x165;" horiz-adv-x="808" d="M22 858v234h168v296h270v-296h298v-234h-298v-472q0 -84 37 -122t117 -38q56 0 116 16l42 -230q-100 -28 -202 -28q-382 0 -382 352v522h-166zM542 1194v346h224v-20l-50 -326h-174z" />
<glyph unicode="&#x166;" horiz-adv-x="1060" d="M32 1200v248h636h360v-248h-360v-422h240v-210h-240v-568h-276v568h-240v210h240v422h-360z" />
<glyph unicode="&#x167;" horiz-adv-x="808" d="M22 508v190h166v160h-166v234h168v296h270v-296h298v-234h-298v-160h298v-190h-298v-122q0 -84 37 -122t117 -38q56 0 116 16l42 -230q-100 -28 -202 -28q-382 0 -382 352v172h-166z" />
<glyph unicode="&#x168;" horiz-adv-x="1376" d="M146 498v950h276v-930q0 -298 264 -298q268 0 268 298v930h276v-950q0 -250 -142 -387t-402 -137q-258 0 -399 137t-141 387zM318 1574q2 142 62 221t166 79q54 0 93 -18t91 -52q30 -22 53 -33t47 -11q66 0 78 110h150q-2 -142 -62 -221t-166 -79q-54 0 -93 18t-91 52 q-30 22 -53 33t-47 11q-66 0 -78 -110h-150z" />
<glyph unicode="&#x169;" horiz-adv-x="1160" d="M130 332v760h272v-720q0 -146 152 -146q56 0 100 21t90 67v778h272v-1092h-246v154q-120 -180 -322 -180q-152 0 -235 94t-83 264zM204 1234q2 142 62 221t166 79q54 0 93 -18t91 -52q30 -22 53 -33t47 -11q66 0 78 110h150q-2 -142 -62 -221t-166 -79q-54 0 -93 18 t-91 52q-30 22 -53 33t-47 11q-66 0 -78 -110h-150z" />
<glyph unicode="&#x16a;" horiz-adv-x="1376" d="M146 498v950h276v-930q0 -298 264 -298q268 0 268 298v930h276v-950q0 -250 -142 -387t-402 -137q-258 0 -399 137t-141 387zM360 1612v184h656v-184h-656z" />
<glyph unicode="&#x16b;" horiz-adv-x="1160" d="M130 332v760h272v-720q0 -146 152 -146q56 0 100 21t90 67v778h272v-1092h-246v154q-120 -180 -322 -180q-152 0 -235 94t-83 264zM246 1272v184h656v-184h-656z" />
<glyph unicode="&#x16c;" horiz-adv-x="1376" d="M146 498v950h276v-930q0 -298 264 -298q268 0 268 298v930h276v-950q0 -250 -142 -387t-402 -137q-258 0 -399 137t-141 387zM364 1900h156q20 -146 170 -146q152 0 172 146h150q-6 -166 -90 -253t-234 -87t-234 87t-90 253z" />
<glyph unicode="&#x16d;" horiz-adv-x="1160" d="M130 332v760h272v-720q0 -146 152 -146q56 0 100 21t90 67v778h272v-1092h-246v154q-120 -180 -322 -180q-152 0 -235 94t-83 264zM250 1560h156q20 -146 170 -146q152 0 172 146h150q-6 -166 -90 -253t-234 -87t-234 87t-90 253z" />
<glyph unicode="&#x16e;" horiz-adv-x="1376" d="M146 498v950h276v-930q0 -298 264 -298q268 0 268 298v930h276v-950q0 -250 -142 -387t-402 -137q-258 0 -399 137t-141 387zM414 1770q0 114 72 177t202 63t202 -63t72 -177t-72 -177t-202 -63t-202 63t-72 177zM582 1770q0 -108 106 -108t106 108t-106 108t-106 -108z " />
<glyph unicode="&#x16f;" horiz-adv-x="1160" d="M130 332v760h272v-720q0 -146 152 -146q56 0 100 21t90 67v778h272v-1092h-246v154q-120 -180 -322 -180q-152 0 -235 94t-83 264zM302 1440q0 114 71 177t201 63t201 -63t71 -177t-71 -177t-201 -63t-201 63t-71 177zM468 1440q0 -110 106 -110t106 110t-106 110 t-106 -110z" />
<glyph unicode="&#x170;" horiz-adv-x="1376" d="M146 498v950h276v-930q0 -298 264 -298q268 0 268 298v930h276v-950q0 -250 -142 -387t-402 -137q-258 0 -399 137t-141 387zM384 1562v24l186 266h250v-24l-256 -266h-180zM724 1562v24l188 266h254v-24l-258 -266h-184z" />
<glyph unicode="&#x171;" horiz-adv-x="1160" d="M130 332v760h272v-720q0 -146 152 -146q56 0 100 21t90 67v778h272v-1092h-246v154q-120 -180 -322 -180q-152 0 -235 94t-83 264zM308 1230v20l108 318h242v-20l-178 -318h-172zM618 1230v20l112 318h242v-20l-182 -318h-172z" />
<glyph unicode="&#x172;" horiz-adv-x="1376" d="M146 498v950h276v-930q0 -298 264 -298q268 0 268 298v930h276v-950q0 -148 -46 -244t-158 -186l-54 -44q-66 -54 -103 -114t-37 -114q0 -80 92 -80q54 0 112 26l60 -140q-48 -30 -110 -46t-126 -16q-118 0 -184 54t-66 152q0 126 106 228h-30q-258 0 -399 137t-141 387z " />
<glyph unicode="&#x173;" horiz-adv-x="1160" d="M130 332v760h272v-720q0 -146 152 -146q56 0 100 21t90 67v778h272v-1092q-162 -96 -162 -204q0 -80 92 -80q54 0 112 26l60 -140q-48 -30 -110 -46t-126 -16q-118 0 -184 54t-66 152q0 78 43 143t123 107h-24v166q-68 -98 -146 -143t-180 -45q-152 0 -235 94t-83 264z " />
<glyph unicode="&#x174;" horiz-adv-x="1796" d="M42 1448h284l212 -1122l212 1120h296l216 -1122l210 1124h282l-344 -1448h-300l-214 1072l-212 -1072h-300zM530 1562v24l234 266h260l234 -266v-24h-202l-166 152l-164 -152h-196z" />
<glyph unicode="&#x175;" horiz-adv-x="1582" d="M32 1092h272l176 -806l174 806h276l180 -806l170 806h270l-296 -1092h-292l-172 766l-168 -766h-292zM466 1230v20l204 318h248l204 -318v-20h-190l-142 176l-140 -176h-184z" />
<glyph unicode="&#x176;" horiz-adv-x="1180" d="M22 1448h294l276 -670l274 670h292l-432 -970v-478h-276v478zM224 1562v24l234 266h260l234 -266v-24h-202l-166 152l-164 -152h-196z" />
<glyph unicode="&#x177;" horiz-adv-x="1046" d="M28 1092h274l224 -804l220 804h272l-330 -1030q-60 -190 -193 -309t-369 -193l-92 228q138 48 218 98t130 116zM198 1230v20l204 318h248l204 -318v-20h-190l-142 176l-140 -176h-184z" />
<glyph unicode="&#x178;" horiz-adv-x="1180" d="M22 1448h294l276 -670l274 670h292l-432 -970v-478h-276v478zM236 1684q0 68 38 106t106 38t107 -38t39 -104q0 -68 -38 -105t-108 -37q-68 0 -106 38t-38 102zM650 1684q0 68 38 106t106 38t107 -38t39 -104q0 -68 -38 -105t-108 -37q-68 0 -106 38t-38 102z" />
<glyph unicode="&#x179;" horiz-adv-x="1110" d="M66 0v244l650 962h-622v242h934v-242l-650 -964h662v-242h-974zM380 1562v24l290 266h302v-24l-364 -266h-228z" />
<glyph unicode="&#x17a;" horiz-adv-x="944" d="M56 0v230l512 632h-492v230h796v-230l-512 -632h524v-230h-828zM318 1230v20l190 318h282v-20l-264 -318h-208z" />
<glyph unicode="&#x17b;" horiz-adv-x="1110" d="M66 0v244l650 962h-622v242h934v-242l-650 -964h662v-242h-974zM390 1706q0 74 43 115t119 41t119 -41t43 -113q0 -74 -43 -115t-119 -41t-119 41t-43 113z" />
<glyph unicode="&#x17c;" horiz-adv-x="944" d="M56 0v230l512 632h-492v230h796v-230l-512 -632h524v-230h-828zM304 1388q0 74 43 115t119 41t119 -41t43 -113q0 -74 -43 -115t-119 -41t-119 41t-43 113z" />
<glyph unicode="&#x17d;" horiz-adv-x="1110" d="M66 0v244l650 962h-622v242h934v-242l-650 -964h662v-242h-974zM188 1828v24h202l166 -152l164 152h196v-24l-234 -266h-260z" />
<glyph unicode="&#x17e;" horiz-adv-x="944" d="M56 0v230l512 632h-492v230h796v-230l-512 -632h524v-230h-828zM138 1548v20h190l140 -176l142 176h184v-20l-204 -318h-248z" />
<glyph unicode="&#x17f;" horiz-adv-x="598" d="M144 0v1128v46q0 190 111 295t311 105q68 0 122 -10v-236q-58 8 -122 8q-152 0 -152 -162v-82v-1092h-270z" />
<glyph unicode="&#x180;" horiz-adv-x="1166" d="M20 1206v186h124v148h272v-148h396v-186h-396v-260q98 140 274 140q190 0 294 -145t104 -409q0 -266 -105 -412t-295 -146q-96 0 -174 39t-124 113v-126h-246v1206h-124zM416 308q38 -44 88 -67t106 -23q200 0 200 304q0 312 -208 312q-52 0 -96 -22t-90 -70v-434z" />
<glyph unicode="&#x181;" horiz-adv-x="1458" d="M-44 1080q0 176 95 272t267 96h274h248q220 0 340 -108t120 -306q0 -200 -186 -270q268 -80 268 -328q0 -208 -125 -322t-351 -114h-438h-150v1200q-58 0 -87 -28t-29 -90q0 -30 6 -96h-244q-8 42 -8 94zM592 244h328q180 0 180 186q0 192 -194 192h-314v-378zM592 858 h248q180 0 180 170q0 176 -194 176h-234v-346z" />
<glyph unicode="&#x182;" horiz-adv-x="1254" d="M156 0v1448h276h632v-210h-632v-282h238q246 0 377 -120t131 -358q0 -236 -129 -357t-369 -121h-524zM432 246h234q228 0 228 238q0 234 -210 234h-252v-472z" />
<glyph unicode="&#x183;" horiz-adv-x="1162" d="M144 0v1026v514h272h528v-216h-528v-346q98 140 274 140q188 0 291 -149t103 -421q0 -274 -104 -424t-292 -150q-96 0 -174 39t-124 113v-126h-246zM416 308q38 -44 88 -67t106 -23q196 0 196 320q0 328 -204 328q-52 0 -96 -22t-90 -70v-466z" />
<glyph unicode="&#x184;" horiz-adv-x="1216" d="M36 1090v106l220 252h194v-398v-90h238q242 0 375 -127t133 -357q0 -226 -131 -351t-367 -125h-524v964zM450 246h234q228 0 228 236q0 232 -210 232h-252v-468z" />
<glyph unicode="&#x185;" horiz-adv-x="1166" d="M24 1198v90l206 252h190v-386v-176q98 140 274 140q188 0 291 -149t103 -421q0 -274 -104 -424t-292 -150q-96 0 -174 39t-124 113v-126h-246v1026v36zM420 308q38 -44 88 -67t106 -23q196 0 196 320q0 328 -204 328q-52 0 -96 -22t-90 -70v-466z" />
<glyph unicode="&#x186;" horiz-adv-x="1206" d="M52 1358q66 54 174 84t234 30q318 0 494 -188t176 -530q0 -240 -80 -416t-229 -270t-351 -94q-112 0 -220 30t-186 86l94 210q156 -78 316 -78q178 0 275 134t97 378q0 486 -398 486q-184 0 -302 -70z" />
<glyph unicode="&#x187;" horiz-adv-x="1386" d="M76 694q0 240 80 416t229 270t351 94q90 0 184 -22q22 132 115 203t245 71q52 0 94 -8v-222q-66 6 -96 6q-70 0 -103 -34t-33 -104v-42v-174h-94q-156 78 -316 78q-178 0 -275 -134t-97 -378q0 -486 398 -486q184 0 302 70l94 -208q-66 -54 -174 -84t-234 -30 q-318 0 -494 188t-176 530z" />
<glyph unicode="&#x188;" horiz-adv-x="1148" d="M70 530q0 176 64 309t181 206t271 73q50 0 110 -10q24 130 117 200t243 70q52 0 94 -8v-218q-66 6 -96 6q-70 0 -104 -35t-34 -107v-206h-96q-142 62 -238 62q-112 0 -173 -86t-61 -242q0 -320 260 -320q114 0 228 60l92 -208q-130 -100 -332 -100q-250 0 -388 145 t-138 409z" />
<glyph unicode="&#x189;" horiz-adv-x="1388" d="M30 628v210h128v610h480q320 0 487 -182t167 -540q0 -362 -167 -544t-487 -182h-480v628h-128zM434 246h196q378 0 378 480q0 476 -376 476h-198v-364h306v-210h-306v-382z" />
<glyph unicode="&#x18a;" horiz-adv-x="1548" d="M-44 1080q0 176 95 272t267 96h480q320 0 487 -182t167 -540q0 -362 -167 -544t-487 -182h-480v1200q-58 0 -87 -28t-29 -90q0 -30 6 -96h-244q-8 42 -8 94zM594 246h196q378 0 378 480q0 476 -376 476h-198v-956z" />
<glyph unicode="&#x18b;" horiz-adv-x="1254" d="M76 478q0 238 131 358t377 120h238v282h-632v210h908v-1448h-524q-240 0 -369 121t-129 357zM360 484q0 -238 228 -238h234v472h-252q-210 0 -210 -234z" />
<glyph unicode="&#x18c;" horiz-adv-x="1162" d="M78 544q0 274 104 424t292 150q84 0 154 -30t118 -86v322h-528v216h800v-1474v-66h-246v156q-102 -182 -300 -182q-188 0 -291 149t-103 421zM356 554q0 -328 204 -328q52 0 96 22t90 70v466q-38 44 -88 67t-106 23q-196 0 -196 -320z" />
<glyph unicode="&#x18d;" horiz-adv-x="1126" d="M78 628q0 110 48 222t158 189t284 77q160 0 268 -68t160 -179t52 -237q0 -162 -67 -297t-239 -205q90 -60 127 -117t37 -135q0 -152 -108 -235t-306 -83q-200 0 -336 94l90 206q136 -66 254 -66q136 0 136 92q0 34 -24 57t-98 71l-72 48q-132 90 -203 153t-116 162 t-45 251zM356 608q0 -124 50 -203t156 -137q84 28 145 115t61 225q0 120 -49 204t-155 84q-98 0 -153 -82t-55 -206z" />
<glyph unicode="&#x18e;" horiz-adv-x="1156" d="M60 0v246h664v370h-468v248h468v338h-636v246h912v-1448h-940z" />
<glyph unicode="&#x18f;" horiz-adv-x="1378" d="M66 678q0 98 14 154h920q-22 184 -121 282t-261 98q-174 0 -378 -86l-102 218q96 62 222 95t262 33q322 0 491 -188t169 -562q0 -370 -155 -558t-451 -188q-290 0 -450 184t-160 518zM348 592q16 -176 101 -270t231 -94q282 0 320 364h-652z" />
<glyph unicode="&#x190;" horiz-adv-x="1152" d="M56 428q0 260 272 342q-216 92 -216 314q0 194 139 292t379 98q242 0 448 -106l-90 -216q-168 84 -330 84q-124 0 -194 -47t-70 -145q0 -82 61 -133t177 -51h242v-228h-258q-132 0 -204 -41t-72 -149q0 -112 78 -166t234 -54q92 0 195 23t185 63l100 -216 q-96 -58 -231 -87t-271 -29q-260 0 -417 112t-157 340z" />
<glyph unicode="&#x191;" horiz-adv-x="1080" d="M-64 -406l40 230q54 -14 106 -14q38 0 56 22t18 72v428v1116h896v-246h-620v-378h504v-248h-504v-576v-116q0 -320 -332 -320q-90 0 -164 30z" />
<glyph unicode="&#x192;" horiz-adv-x="1158" d="M10 -402l40 268q52 -14 114 -14q138 0 156 158l62 588h-204v234h228l24 234q20 194 134 301t304 107q86 0 162 -23t126 -63l-138 -230q-70 40 -142 40q-158 0 -176 -178l-20 -188h308v-234h-332l-66 -634q-18 -184 -130 -286t-298 -102q-76 0 -152 22z" />
<glyph unicode="&#x193;" horiz-adv-x="1518" d="M96 724q0 358 178 554t504 196q106 0 206 -22q22 132 115 203t245 71q52 0 94 -8v-222q-66 6 -96 6q-70 0 -103 -34t-33 -104v-42v-182h-80q-188 88 -352 88q-394 0 -394 -504t398 -504q80 0 166 20v346h-238v244h514v-740q-82 -56 -199 -86t-243 -30q-326 0 -504 196 t-178 554z" />
<glyph unicode="&#x194;" horiz-adv-x="1268" d="M38 1448h290l308 -770l306 770h288l-476 -1064l108 -270q30 -76 42 -125t12 -93q0 -122 -73 -189t-207 -67q-132 0 -205 67t-73 189q0 46 12 95t42 123l104 264zM578 -80q0 -86 58 -86q54 0 54 86q0 68 -38 154l-18 40l-18 -40q-38 -84 -38 -154z" />
<glyph unicode="&#x195;" horiz-adv-x="1816" d="M144 0v1540h272v-556q122 134 304 134q156 0 241 -93t85 -265v-338q0 -206 166 -206q190 0 190 322q0 148 -17 261t-63 293h274q76 -286 76 -548q0 -272 -120 -421t-340 -149q-208 0 -323 111t-115 311v324q0 146 -160 146q-56 0 -102 -18t-96 -56v-792h-272z" />
<glyph unicode="&#x196;" horiz-adv-x="632" d="M156 270v1178h276v-1118q0 -52 18 -75t58 -23q32 0 70 6l18 -236q-78 -18 -162 -18q-278 0 -278 286z" />
<glyph unicode="&#x197;" horiz-adv-x="660" d="M20 640v210h172v598h276v-598h172v-210h-172v-640h-276v640h-172z" />
<glyph unicode="&#x198;" horiz-adv-x="1270" d="M156 0v1448h276v-680l356 496q86 120 163 169t181 49q82 0 140 -29t106 -91l-146 -178q-50 48 -102 48q-32 0 -59 -20t-69 -74l-246 -314l544 -824h-326l-390 604l-152 -192v-412h-276z" />
<glyph unicode="&#x199;" horiz-adv-x="1130" d="M144 0v1092v194q0 288 310 288q92 0 166 -30l-38 -214q-54 10 -94 10q-38 0 -55 -17t-17 -57v-508v-118l362 452h310l-386 -458l416 -634h-310l-278 430l-114 -136v-294h-272z" />
<glyph unicode="&#x19a;" horiz-adv-x="726" d="M36 712v190h164v638h272v-638h184v-190h-184v-374q0 -58 22 -84t74 -26q32 0 70 6l18 -230q-78 -18 -162 -18q-148 0 -221 72t-73 220v434h-164z" />
<glyph unicode="&#x19b;" horiz-adv-x="1046" d="M28 0l354 1090q-2 2 -22 28l-256 -120h-20v150l150 70q-82 46 -200 86l92 228q234 -74 370 -192l238 110h20v-150l-160 -74q58 -84 94 -196l330 -1030h-272l-220 804l-224 -804h-274z" />
<glyph unicode="&#x19c;" horiz-adv-x="1792" d="M156 332v1116h276v-1076q0 -146 142 -146q46 0 89 18t91 56v32v1116h276v-1076q0 -146 146 -146q92 0 184 72v1150h276v-1448h-248v138q-128 -164 -318 -164q-102 0 -174 44t-108 128q-136 -172 -320 -172q-146 0 -229 94t-83 264z" />
<glyph unicode="&#x19d;" horiz-adv-x="1452" d="M-68 -406l40 230q54 -14 108 -14q40 0 58 22t18 72v428v1116h266l602 -978v978h272v-1448h-266l-602 982v-982v-116q0 -320 -330 -320q-92 0 -166 30z" />
<glyph unicode="&#x19e;" horiz-adv-x="1176" d="M144 0v1092h246v-138q128 164 328 164q154 0 239 -94t85 -264v-760v-414h-272v544v590q0 146 -158 146q-54 0 -100 -18t-96 -56v-792h-272z" />
<glyph unicode="&#x19f;" horiz-adv-x="1432" d="M96 724q0 372 159 561t461 189t461 -189t159 -561t-159 -561t-461 -189t-461 189t-159 561zM380 610q36 -390 336 -390t336 390h-672zM382 850h668q-38 378 -334 378q-294 0 -334 -378z" />
<glyph unicode="&#x1a0;" horiz-adv-x="1432" d="M96 724q0 372 159 561t461 189q110 0 210 -28q68 -18 114 -18q88 0 121 37t33 139q0 50 -10 122h234q10 -60 10 -118q0 -150 -58 -225t-194 -95q160 -194 160 -564q0 -372 -159 -561t-461 -189t-461 189t-159 561zM380 724q0 -504 336 -504t336 504t-336 504t-336 -504z " />
<glyph unicode="&#x1a1;" horiz-adv-x="1146" d="M78 546q0 282 126 427t360 145q74 0 134 -14q68 -12 116 -12q88 0 121 33t33 123q0 50 -10 122h226q10 -60 10 -118q0 -138 -60 -207t-200 -87q114 -144 114 -412q0 -282 -126 -427t-360 -145t-359 144t-125 428zM356 546q0 -330 206 -330q208 0 208 330t-206 330 q-208 0 -208 -330z" />
<glyph unicode="&#x1a2;" horiz-adv-x="1826" d="M96 724q0 370 159 558t461 188q42 0 114 -6q230 -16 402 -16h438v-1864h-276v1618h-162v-1114q-108 -52 -243 -81t-273 -29q-302 0 -461 188t-159 558zM380 724q0 -500 336 -500q132 0 240 24v964q-148 12 -240 12q-336 0 -336 -500z" />
<glyph unicode="&#x1a3;" horiz-adv-x="1528" d="M78 546q0 282 126 425t360 143q28 0 120 -8q164 -14 294 -14h406v-1504h-272v1262h-134v-808q-94 -30 -203 -47t-213 -17q-234 0 -359 143t-125 425zM356 546q0 -326 206 -326q78 0 144 12v632l-80 6l-62 2q-208 6 -208 -326z" />
<glyph unicode="&#x1a4;" horiz-adv-x="1360" d="M-44 1080q0 176 95 272t267 96h276h262q232 0 358 -130t126 -366q0 -238 -130 -369t-368 -131h-248v-452h-276v1200q-58 0 -87 -28t-29 -90q0 -30 6 -96h-244q-8 42 -8 94zM594 698h262q200 0 200 248q0 256 -214 256h-248v-504z" />
<glyph unicode="&#x1a5;" horiz-adv-x="1162" d="M144 -414v1220v286v194q0 288 310 288q92 0 166 -30l-38 -216q-64 12 -94 12q-38 0 -55 -17t-17 -57v-288q98 140 274 140q188 0 291 -149t103 -421q0 -274 -104 -424t-292 -150q-84 0 -154 30t-118 86v-504h-272zM416 308q38 -44 88 -67t106 -23q196 0 196 320 q0 328 -204 328q-52 0 -96 -22t-90 -70v-466z" />
<glyph unicode="&#x1a6;" horiz-adv-x="1200" d="M156 0v1448h276v-162h242q226 0 350 -113t124 -321q0 -140 -58 -238t-168 -150l458 -684h-340l-392 634h-216v-414h-276zM432 650h242q190 0 190 194q0 200 -198 200h-234v-394z" />
<glyph unicode="&#x1a7;" horiz-adv-x="1128" d="M78 432q0 164 82 260t270 148l164 46q102 28 148 73t46 117q0 158 -218 158q-156 0 -366 -78l-90 216q106 48 224 74t228 26q230 0 358 -116t128 -326q0 -162 -83 -258t-269 -148l-164 -46q-102 -28 -148 -74t-46 -118q0 -172 250 -172q200 0 390 110l88 -216 q-96 -62 -221 -97t-257 -35q-244 0 -379 119t-135 337z" />
<glyph unicode="&#x1a8;" horiz-adv-x="942" d="M60 338q0 130 69 205t221 111l142 34q68 16 100 41t32 63q0 86 -152 86q-138 0 -284 -72l-100 216q80 44 180 69t200 25q198 0 307 -92t109 -258q0 -128 -68 -202t-222 -110l-142 -34q-70 -16 -101 -42t-31 -66q0 -98 174 -98q166 0 314 92l94 -220q-80 -52 -187 -81 t-221 -29q-206 0 -320 95t-114 267z" />
<glyph unicode="&#x1a9;" horiz-adv-x="1186" d="M84 0v242l418 492l-418 472v242h1038v-242h-698l424 -472l-424 -492h698v-242h-1038z" />
<glyph unicode="&#x1aa;" horiz-adv-x="710" d="M-110 1266q0 146 89 227t251 81q160 0 248 -79t88 -221v-1274v-58q0 -162 152 -162q64 0 122 8v-236q-54 -10 -122 -10q-200 0 -311 105t-111 295v82v1010q-44 -40 -142 -40q-126 0 -195 71t-69 201zM128 1278q0 -94 88 -94q46 0 74 28t28 74q0 44 -24 66t-70 22 q-96 0 -96 -96z" />
<glyph unicode="&#x1ab;" horiz-adv-x="808" d="M22 858v234h168v296h270v-296h298v-234h-298v-472q0 -84 37 -122t117 -38q56 0 116 16l42 -228v-158q0 -290 -302 -290q-92 0 -174 30l38 216q56 -10 102 -10q44 0 63 17t19 57v110q-330 24 -330 350v522h-166z" />
<glyph unicode="&#x1ac;" horiz-adv-x="1060" d="M-40 1080q0 172 92 269t260 99h356h360v-248h-360v-1200h-276v1200h-70q-58 0 -87 -28t-29 -90q0 -30 6 -96h-244q-8 42 -8 94z" />
<glyph unicode="&#x1ad;" horiz-adv-x="808" d="M22 858v234h168v82q0 190 115 295t327 105q68 0 122 -10v-236q-58 8 -122 8q-172 0 -172 -162v-82h298v-234h-298v-472q0 -84 37 -122t117 -38q56 0 116 16l42 -230q-100 -28 -202 -28q-382 0 -382 352v522h-166z" />
<glyph unicode="&#x1ae;" horiz-adv-x="1060" d="M32 1200v248h636h360v-248h-360v-1296q0 -50 18 -72t56 -22q52 0 106 14l40 -230q-74 -30 -164 -30q-332 0 -332 320v448v868h-360z" />
<glyph unicode="&#x1af;" horiz-adv-x="1376" d="M146 498v950h276v-930q0 -298 264 -298q268 0 268 298v930h130q88 0 121 33t33 123q0 50 -10 122h234q10 -60 10 -118q0 -140 -56 -212t-186 -92v-806q0 -250 -142 -387t-402 -137q-258 0 -399 137t-141 387z" />
<glyph unicode="&#x1b0;" horiz-adv-x="1160" d="M130 332v760h272v-720q0 -146 152 -146q56 0 100 21t90 67v778h130q88 0 121 33t33 123q0 50 -10 122h226q10 -60 10 -118q0 -140 -55 -211t-183 -91v-950h-246v154q-120 -180 -322 -180q-152 0 -235 94t-83 264z" />
<glyph unicode="&#x1b1;" horiz-adv-x="1472" d="M96 1230v218h524v-246q-114 -104 -165 -230t-51 -300q0 -454 332 -454t332 454q0 174 -51 300t-165 230v246h524v-218h-260q236 -222 236 -574q0 -210 -72 -363t-211 -235t-333 -82t-333 82t-211 235t-72 363q0 352 236 574h-260z" />
<glyph unicode="&#x1b2;" horiz-adv-x="1376" d="M146 498v950h276v-930q0 -298 264 -298q268 0 268 298v530v86q0 50 -18 72t-56 22q-52 0 -106 -14l-40 230q74 30 164 30q332 0 332 -320v-448v-208q0 -250 -142 -387t-402 -137q-258 0 -399 137t-141 387z" />
<glyph unicode="&#x1b3;" horiz-adv-x="1310" d="M22 1448h294l276 -670l178 434q60 144 138 209t194 65q262 0 286 -324l-222 -40q-8 58 -23 84t-41 26q-22 0 -39 -18t-37 -62l-300 -674v-478h-276v478z" />
<glyph unicode="&#x1b4;" horiz-adv-x="1264" d="M28 1092h274l224 -804l204 746q80 296 326 296q256 0 280 -314l-218 -40q-8 56 -22 81t-40 25q-22 0 -39 -26t-39 -90l-290 -904q-62 -190 -195 -309t-367 -193l-92 228q138 48 218 98t130 116z" />
<glyph unicode="&#x1b5;" horiz-adv-x="1110" d="M66 0v244l276 410h-192v206h332l234 346h-622v242h934v-242l-234 -346h162v-206h-300l-278 -412h662v-242h-974z" />
<glyph unicode="&#x1b6;" horiz-adv-x="944" d="M56 0v230l188 232h-142v186h292l174 214h-492v230h796v-230l-174 -214h148v-186h-298l-188 -232h524v-230h-828z" />
<glyph unicode="&#x1b7;" horiz-adv-x="1194" d="M20 86l98 220q198 -84 386 -84q158 0 246 63t88 175q0 128 -106 174t-318 46h-86v202l364 324h-602v242h940v-248l-364 -322q456 -52 456 -422q0 -160 -83 -268t-222 -161t-307 -53q-284 0 -490 112z" />
<glyph unicode="&#x1b8;" horiz-adv-x="1194" d="M72 456q0 370 456 422l-364 322v248h940v-242h-602l364 -324v-202h-86q-212 0 -318 -46t-106 -174q0 -112 88 -175t246 -63q188 0 386 84l98 -220q-206 -112 -490 -112q-168 0 -307 53t-222 161t-83 268z" />
<glyph unicode="&#x1b9;" horiz-adv-x="1006" d="M48 32q0 204 113 303t311 123l-344 404v230h818v-230h-510l334 -394v-192h-100q-344 0 -344 -238q0 -124 78 -187t216 -63q148 0 284 66l94 -210q-90 -46 -188 -65t-212 -19q-150 0 -275 53t-200 160t-75 259z" />
<glyph unicode="&#x1ba;" horiz-adv-x="934" d="M-32 -100q0 170 102 233t280 69q102 2 180 28t78 110q0 68 -73 97t-243 29h-74v190l266 206h-476v230h796v-232l-288 -204q370 -36 370 -320q0 -156 -90 -235t-200 -101t-240 -26q-64 -2 -97 -18t-33 -68q0 -100 146 -100q142 0 348 94l90 -218q-106 -48 -222 -74 t-222 -26q-192 0 -295 88t-103 248z" />
<glyph unicode="&#x1bb;" horiz-adv-x="1074" d="M40 1324q90 68 220 109t256 41q136 0 240 -50t160 -141t56 -211q0 -68 -21 -132t-69 -136h98v-206h-266l-330 -360h596v-238h-924v240l318 358h-278v206h460q78 90 109 145t31 105q0 80 -54 125t-152 45q-80 0 -165 -28t-163 -78z" />
<glyph unicode="&#x1bc;" horiz-adv-x="1108" d="M18 1210v238h312h632v-238h-516v-268l72 -6q244 -20 378 -141t134 -321q0 -150 -66 -263t-186 -175t-278 -62q-122 0 -239 35t-191 93l100 218q84 -46 171 -71t159 -25q118 0 184 65t66 179q0 214 -282 234l-294 20v488h-156z" />
<glyph unicode="&#x1bd;" horiz-adv-x="954" d="M0 858v234h272h570v-234h-444v-170l42 -2q454 -30 454 -350q0 -172 -122 -267t-342 -95q-114 0 -217 25t-175 71l94 212q72 -32 149 -50t149 -18q186 0 186 124q0 62 -50 93t-160 39l-272 18v370h-134z" />
<glyph unicode="&#x1be;" horiz-adv-x="1006" d="M78 90l94 220q154 -96 322 -96q174 0 174 98q0 44 -34 70t-106 58q-74 34 -123 65t-84 90t-35 149v114h-166v234h168v296h270v-296h298v-234h-298v-106q0 -44 34 -71t106 -61q70 -32 117 -63t80 -85t33 -134q0 -172 -114 -267t-320 -95q-114 0 -225 31t-191 83z" />
<glyph unicode="&#x1bf;" horiz-adv-x="1138" d="M144 -414v1506h246v-172q112 198 324 198q166 0 256 -114t90 -320q0 -130 -43 -231t-145 -200t-288 -225l-168 -112v-330h-272zM416 208l128 88q136 94 187 171t51 187q0 212 -156 212q-54 0 -105 -27t-105 -87v-544z" />
<glyph unicode="&#x1c0;" horiz-adv-x="556" d="M160 0v1540h236v-1540h-236z" />
<glyph unicode="&#x1c1;" horiz-adv-x="894" d="M160 0v1540h236v-1540h-236zM498 0v1540h236v-1540h-236z" />
<glyph unicode="&#x1c2;" horiz-adv-x="708" d="M20 424v230h210v234h-210v230h210v422h236v-422h222v-230h-222v-234h222v-230h-222v-424h-236v424h-210z" />
<glyph unicode="&#x1c3;" horiz-adv-x="728" d="M196 134q0 76 44 118t124 42q78 0 123 -43t45 -115q0 -76 -44 -119t-124 -43q-78 0 -123 43t-45 117zM212 1540h300l-40 -1122h-216z" />
<glyph unicode="&#x1c4;" horiz-adv-x="2456" d="M156 0v1448h480q320 0 487 -182t167 -540q0 -362 -167 -544t-487 -182h-480zM432 246h196q378 0 378 480q0 476 -376 476h-198v-956zM1412 0v244l650 962h-622v242h934v-242l-650 -964h662v-242h-974zM1534 1828v24h202l166 -152l164 152h196v-24l-234 -266h-260z" />
<glyph unicode="&#x1c5;" horiz-adv-x="2310" d="M156 0v1448h480q320 0 487 -182t167 -540q0 -362 -167 -544t-487 -182h-480zM432 246h196q378 0 378 480q0 476 -376 476h-198v-956zM1422 0v230l512 632h-492v230h796v-230l-512 -632h524v-230h-828zM1468 1488v24h202l166 -152l164 152h196v-24l-234 -266h-260z" />
<glyph unicode="&#x1c6;" horiz-adv-x="2106" d="M78 544q0 274 104 424t292 150q84 0 154 -30t118 -86v538h272v-1474v-66h-246v156q-102 -182 -300 -182q-188 0 -291 149t-103 421zM356 554q0 -328 204 -328q52 0 96 22t90 70v466q-38 44 -88 67t-106 23q-196 0 -196 -320zM1218 0v230l512 632h-492v230h796v-230 l-512 -632h524v-230h-828zM1300 1548v20h190l140 -176l142 176h184v-20l-204 -318h-248z" />
<glyph unicode="&#x1c7;" horiz-adv-x="1974" d="M156 0v1448h276v-1200h582v-248h-858zM1104 56l98 220q114 -54 206 -54q144 0 144 172v1054h276v-1074q0 -190 -106 -295t-300 -105q-92 0 -174 21t-144 61z" />
<glyph unicode="&#x1c8;" horiz-adv-x="1630" d="M156 0v1448h276v-1200h582v-248h-858zM924 -224q118 40 179 81t84 97t23 152v986h272v-994q0 -154 -42 -252t-142 -165t-284 -127zM1184 1388q0 74 43 115t119 41t119 -41t43 -113q0 -74 -43 -115t-119 -41t-119 41t-43 113z" />
<glyph unicode="&#x1c9;" horiz-adv-x="1210" d="M140 278v1262h272v-1202q0 -58 22 -84t74 -26q32 0 70 6l18 -230q-78 -18 -162 -18q-148 0 -221 72t-73 220zM504 -224q118 40 179 81t84 97t23 152v986h272v-994q0 -154 -42 -252t-142 -165t-284 -127zM764 1388q0 74 43 115t119 41t119 -41t43 -113q0 -74 -43 -115 t-119 -41t-119 41t-43 113z" />
<glyph unicode="&#x1ca;" horiz-adv-x="2264" d="M156 0v1448h266l602 -978v978h272v-1448h-266l-602 982v-982h-272zM1394 56l98 220q114 -54 206 -54q144 0 144 172v1054h276v-1074q0 -190 -106 -295t-300 -105q-92 0 -174 21t-144 61z" />
<glyph unicode="&#x1cb;" horiz-adv-x="2020" d="M156 0v1448h266l602 -978v978h272v-1448h-266l-602 982v-982h-272zM1314 -224q118 40 179 81t84 97t23 152v986h272v-994q0 -154 -42 -252t-142 -165t-284 -127zM1574 1388q0 74 43 115t119 41t119 -41t43 -113q0 -74 -43 -115t-119 -41t-119 41t-43 113z" />
<glyph unicode="&#x1cc;" horiz-adv-x="1744" d="M144 0v1092h246v-138q128 164 328 164q154 0 239 -94t85 -264v-760h-272v720q0 146 -158 146q-54 0 -100 -18t-96 -56v-792h-272zM1038 -224q118 40 179 81t84 97t23 152v986h272v-994q0 -154 -42 -252t-142 -165t-284 -127zM1298 1388q0 74 43 115t119 41t119 -41 t43 -113q0 -74 -43 -115t-119 -41t-119 41t-43 113z" />
<glyph unicode="&#x1cd;" horiz-adv-x="1340" d="M30 0l490 1448h300l490 -1448h-290l-94 312h-516l-92 -312h-288zM306 1828v24h202l166 -152l164 152h196v-24l-234 -266h-260zM482 552h374l-188 630z" />
<glyph unicode="&#x1ce;" horiz-adv-x="1072" d="M52 306q0 196 147 287t475 95v40q0 150 -204 150q-124 0 -254 -56l-68 208q186 88 372 88q202 0 312 -94t110 -264v-760h-242v160q-98 -182 -322 -182q-156 0 -241 86t-85 242zM186 1548v20h190l140 -176l142 176h184v-20l-204 -318h-248zM310 328q0 -122 138 -122 q130 0 226 106v196q-192 -2 -278 -45t-86 -135z" />
<glyph unicode="&#x1cf;" horiz-adv-x="596" d="M-66 1828v24h202l166 -152l164 152h196v-24l-234 -266h-260zM160 0v1448h276v-1448h-276z" />
<glyph unicode="&#x1d0;" horiz-adv-x="568" d="M-44 1548v20h190l140 -176l142 176h184v-20l-204 -318h-248zM148 0v1092h272v-1092h-272z" />
<glyph unicode="&#x1d1;" horiz-adv-x="1432" d="M96 724q0 372 159 561t461 189t461 -189t159 -561t-159 -561t-461 -189t-461 189t-159 561zM352 1828v24h202l166 -152l164 152h196v-24l-234 -266h-260zM380 724q0 -504 336 -504t336 504t-336 504t-336 -504z" />
<glyph unicode="&#x1d2;" horiz-adv-x="1126" d="M78 546q0 282 126 427t360 145t359 -144t125 -428q0 -282 -126 -427t-360 -145t-359 144t-125 428zM236 1548v20h190l140 -176l142 176h184v-20l-204 -318h-248zM356 546q0 -330 206 -330q208 0 208 330t-206 330q-208 0 -208 -330z" />
<glyph unicode="&#x1d3;" horiz-adv-x="1376" d="M146 498v950h276v-930q0 -298 264 -298q268 0 268 298v930h276v-950q0 -250 -142 -387t-402 -137q-258 0 -399 137t-141 387zM324 1828v24h202l166 -152l164 152h196v-24l-234 -266h-260z" />
<glyph unicode="&#x1d4;" horiz-adv-x="1160" d="M130 332v760h272v-720q0 -146 152 -146q56 0 100 21t90 67v778h272v-1092h-246v154q-120 -180 -322 -180q-152 0 -235 94t-83 264zM246 1548v20h190l140 -176l142 176h184v-20l-204 -318h-248z" />
<glyph unicode="&#x1d5;" horiz-adv-x="1376" d="M146 498v950h276v-930q0 -298 264 -298q268 0 268 298v930h276v-950q0 -250 -142 -387t-402 -137q-258 0 -399 137t-141 387zM358 1650q0 66 37 102t103 36t103 -36t37 -100q0 -68 -37 -104t-103 -36t-103 37t-37 101zM362 1838v182h656v-182h-656zM738 1650q0 66 37 102 t103 36t103 -36t37 -100q0 -68 -37 -104t-103 -36t-103 37t-37 101z" />
<glyph unicode="&#x1d6;" horiz-adv-x="1160" d="M130 332v760h272v-720q0 -146 152 -146q56 0 100 21t90 67v778h272v-1092h-246v154q-120 -180 -322 -180q-152 0 -235 94t-83 264zM244 1310q0 66 37 102t103 36t103 -36t37 -100q0 -68 -37 -104t-103 -36t-103 37t-37 101zM248 1498v182h656v-182h-656zM624 1310 q0 66 37 102t103 36t103 -36t37 -100q0 -68 -37 -104t-103 -36t-103 37t-37 101z" />
<glyph unicode="&#x1d7;" horiz-adv-x="1376" d="M146 498v950h276v-930q0 -298 264 -298q268 0 268 298v930h276v-950q0 -250 -142 -387t-402 -137q-258 0 -399 137t-141 387zM358 1650q0 66 37 102t103 36t103 -36t37 -100q0 -68 -37 -104t-103 -36t-103 37t-37 101zM592 1818v20l146 254h238v-20l-204 -254h-180z M738 1650q0 66 37 102t103 36t103 -36t37 -100q0 -68 -37 -104t-103 -36t-103 37t-37 101z" />
<glyph unicode="&#x1d8;" horiz-adv-x="1160" d="M130 332v760h272v-720q0 -146 152 -146q56 0 100 21t90 67v778h272v-1092h-246v154q-120 -180 -322 -180q-152 0 -235 94t-83 264zM244 1310q0 66 37 102t103 36t103 -36t37 -100q0 -68 -37 -104t-103 -36t-103 37t-37 101zM478 1478v20l146 254h238v-20l-204 -254h-180z M624 1310q0 66 37 102t103 36t103 -36t37 -100q0 -68 -37 -104t-103 -36t-103 37t-37 101z" />
<glyph unicode="&#x1d9;" horiz-adv-x="1376" d="M146 498v950h276v-930q0 -298 264 -298q268 0 268 298v930h276v-950q0 -250 -142 -387t-402 -137q-258 0 -399 137t-141 387zM358 1650q0 66 37 102t103 36t103 -36t37 -100q0 -68 -37 -104t-103 -36t-103 37t-37 101zM358 2072v20h178l158 -136l156 136h172v-20 l-212 -242h-240zM738 1650q0 66 37 102t103 36t103 -36t37 -100q0 -68 -37 -104t-103 -36t-103 37t-37 101z" />
<glyph unicode="&#x1da;" horiz-adv-x="1160" d="M130 332v760h272v-720q0 -146 152 -146q56 0 100 21t90 67v778h272v-1092h-246v154q-120 -180 -322 -180q-152 0 -235 94t-83 264zM244 1310q0 66 37 102t103 36t103 -36t37 -100q0 -68 -37 -104t-103 -36t-103 37t-37 101zM244 1742v20h190l146 -154l144 154h184v-20 l-208 -278h-248zM624 1310q0 66 37 102t103 36t103 -36t37 -100q0 -68 -37 -104t-103 -36t-103 37t-37 101z" />
<glyph unicode="&#x1db;" horiz-adv-x="1376" d="M146 498v950h276v-930q0 -298 264 -298q268 0 268 298v930h276v-950q0 -250 -142 -387t-402 -137q-258 0 -399 137t-141 387zM358 1650q0 66 37 102t103 36t103 -36t37 -100q0 -68 -37 -104t-103 -36t-103 37t-37 101zM416 2072v20h238l134 -254v-20h-180zM738 1650 q0 66 37 102t103 36t103 -36t37 -100q0 -68 -37 -104t-103 -36t-103 37t-37 101z" />
<glyph unicode="&#x1dc;" horiz-adv-x="1160" d="M130 332v760h272v-720q0 -146 152 -146q56 0 100 21t90 67v778h272v-1092h-246v154q-120 -180 -322 -180q-152 0 -235 94t-83 264zM244 1310q0 66 37 102t103 36t103 -36t37 -100q0 -68 -37 -104t-103 -36t-103 37t-37 101zM302 1732v20h238l134 -254v-20h-180zM624 1310 q0 66 37 102t103 36t103 -36t37 -100q0 -68 -37 -104t-103 -36t-103 37t-37 101z" />
<glyph unicode="&#x1dd;" horiz-adv-x="1092" d="M66 500q0 76 12 132h664q-32 240 -272 240q-132 0 -264 -64l-96 202q80 50 182 78t208 28q248 0 383 -149t135 -421t-126 -422t-358 -150q-224 0 -346 138t-122 388zM336 450q4 -114 57 -176t147 -62q178 0 204 238h-408z" />
<glyph unicode="&#x1de;" horiz-adv-x="1340" d="M30 0l490 1448h300l490 -1448h-290l-94 312h-516l-92 -312h-288zM318 1684q0 68 38 106t106 38t107 -38t39 -104q0 -68 -38 -105t-108 -37q-68 0 -106 38t-38 102zM342 1910v184h656v-184h-656zM482 552h374l-188 630zM732 1684q0 68 38 106t106 38t107 -38t39 -104 q0 -68 -38 -105t-108 -37q-68 0 -106 38t-38 102z" />
<glyph unicode="&#x1df;" horiz-adv-x="1072" d="M52 306q0 196 147 287t475 95v40q0 150 -204 150q-124 0 -254 -56l-68 208q186 88 372 88q202 0 312 -94t110 -264v-760h-242v160q-98 -182 -322 -182q-156 0 -241 86t-85 242zM174 1368q0 68 38 106t106 38t107 -38t39 -104q0 -68 -38 -105t-108 -37q-68 0 -106 38 t-38 102zM186 1596v184h656v-184h-656zM310 328q0 -122 138 -122q130 0 226 106v196q-192 -2 -278 -45t-86 -135zM564 1368q0 68 38 106t106 38t107 -38t39 -104q0 -68 -38 -105t-108 -37q-68 0 -106 38t-38 102z" />
<glyph unicode="&#x1e0;" horiz-adv-x="1340" d="M30 0l490 1448h300l490 -1448h-290l-94 312h-516l-92 -312h-288zM342 1910v184h656v-184h-656zM482 552h374l-188 630zM508 1706q0 74 43 115t119 41t119 -41t43 -113q0 -74 -43 -115t-119 -41t-119 41t-43 113z" />
<glyph unicode="&#x1e1;" horiz-adv-x="1072" d="M52 306q0 196 147 287t475 95v40q0 150 -204 150q-124 0 -254 -56l-68 208q186 88 372 88q202 0 312 -94t110 -264v-760h-242v160q-98 -182 -322 -182q-156 0 -241 86t-85 242zM186 1614v184h656v-184h-656zM310 328q0 -122 138 -122q130 0 226 106v196q-192 -2 -278 -45 t-86 -135zM352 1388q0 74 43 115t119 41t119 -41t43 -113q0 -74 -43 -115t-119 -41t-119 41t-43 113z" />
<glyph unicode="&#x1e2;" horiz-adv-x="1864" d="M-12 0l738 1448h276h774v-246h-608v-338h440v-248h-440v-370h636v-246h-904v294h-474l-146 -294h-292zM546 534h354v710zM684 1612v184h656v-184h-656z" />
<glyph unicode="&#x1e3;" horiz-adv-x="1656" d="M52 300q0 192 145 281t465 93v54q0 150 -198 150q-122 0 -248 -56l-68 208q186 88 366 88q210 0 304 -128q54 62 134 95t176 33q220 0 341 -138t121 -388q0 -74 -12 -132h-652q34 -240 266 -240q124 0 258 64l96 -202q-80 -50 -180 -78t-204 -28q-140 0 -244 52t-168 152 q-84 -106 -175 -154t-203 -48q-152 0 -236 84t-84 238zM310 320q0 -114 132 -114q136 0 240 130q-20 76 -22 158q-184 -2 -267 -44t-83 -130zM524 1272v184h656v-184h-656zM924 642h396q-2 114 -54 176t-144 62q-172 0 -198 -238z" />
<glyph unicode="&#x1e4;" horiz-adv-x="1332" d="M96 724q0 358 178 554t504 196q128 0 240 -30t188 -84l-80 -220q-188 88 -352 88q-394 0 -394 -504t398 -504q80 0 166 20v70h-238v196h238v80h-238v244h514v-324h136v-196h-136v-220q-82 -56 -199 -86t-243 -30q-326 0 -504 196t-178 554z" />
<glyph unicode="&#x1e5;" horiz-adv-x="1166" d="M38 10h712v12v192q-98 -140 -274 -140q-190 0 -294 138t-104 382q0 246 105 385t295 139q96 0 174 -39t124 -113v126h246v-1048v-34h140v-126h-160q-40 -156 -164 -240t-318 -84q-98 0 -193 21t-171 61l68 192q134 -58 266 -58q174 0 230 108h-682v126zM356 604 q0 -136 52 -207t156 -71q52 0 96 22t90 70v366q-38 44 -88 67t-106 23q-100 0 -150 -69t-50 -201z" />
<glyph unicode="&#x1e6;" horiz-adv-x="1336" d="M96 724q0 358 178 554t504 196q128 0 240 -30t188 -84l-80 -220q-188 88 -352 88q-394 0 -394 -504t398 -504q80 0 166 20v346h-238v244h514v-740q-82 -56 -199 -86t-243 -30q-326 0 -504 196t-178 554zM358 1828v24h202l166 -152l164 152h196v-24l-234 -266h-260z" />
<glyph unicode="&#x1e7;" horiz-adv-x="1166" d="M78 574q0 260 105 402t295 142q96 0 174 -39t124 -113v126h246v-1048q0 -232 -131 -358t-371 -126q-98 0 -193 21t-171 61l76 214q134 -58 258 -58q260 0 260 246v130q-98 -140 -274 -140q-190 0 -294 141t-104 399zM248 1548v20h190l140 -176l142 176h184v-20l-204 -318 h-248zM356 584q0 -298 208 -298q52 0 96 22t90 70v406q-38 44 -88 67t-106 23q-200 0 -200 -290z" />
<glyph unicode="&#x1e8;" horiz-adv-x="1272" d="M156 0v1448h276v-682l510 682h326l-508 -630l540 -818h-326l-388 602l-154 -192v-410h-276zM298 1828v24h202l166 -152l164 152h196v-24l-234 -266h-260z" />
<glyph unicode="&#x1e9;" horiz-adv-x="1130" d="M-84 1920v24h202l166 -152l164 152h196v-24l-234 -266h-260zM144 0v1540h272v-900l362 452h310l-386 -458l416 -634h-310l-278 430l-114 -136v-294h-272z" />
<glyph unicode="&#x1ea;" horiz-adv-x="1432" d="M96 724q0 372 159 561t461 189t461 -189t159 -561q0 -268 -84 -440t-254 -260q-194 -100 -194 -228q0 -80 92 -80q54 0 112 26l60 -140q-48 -30 -110 -46t-126 -16q-118 0 -184 54t-66 152q0 126 114 228q-292 6 -446 195t-154 555zM380 724q0 -504 336 -504t336 504 t-336 504t-336 -504z" />
<glyph unicode="&#x1eb;" horiz-adv-x="1126" d="M78 546q0 282 126 427t360 145t359 -144t125 -428q0 -390 -240 -512q-202 -104 -202 -238q0 -80 92 -80q54 0 112 26l60 -140q-48 -30 -110 -46t-126 -16q-118 0 -184 54t-66 152q0 128 118 230q-206 18 -315 162t-109 408zM356 546q0 -330 206 -330q208 0 208 330 t-206 330q-208 0 -208 -330z" />
<glyph unicode="&#x1ec;" horiz-adv-x="1432" d="M96 724q0 372 159 561t461 189t461 -189t159 -561q0 -268 -84 -440t-254 -260q-194 -100 -194 -228q0 -80 92 -80q54 0 112 26l60 -140q-48 -30 -110 -46t-126 -16q-118 0 -184 54t-66 152q0 126 114 228q-292 6 -446 195t-154 555zM380 724q0 -504 336 -504t336 504 t-336 504t-336 -504zM388 1612v184h656v-184h-656z" />
<glyph unicode="&#x1ed;" horiz-adv-x="1126" d="M78 546q0 282 126 427t360 145t359 -144t125 -428q0 -390 -240 -512q-202 -104 -202 -238q0 -80 92 -80q54 0 112 26l60 -140q-48 -30 -110 -46t-126 -16q-118 0 -184 54t-66 152q0 128 118 230q-206 18 -315 162t-109 408zM236 1272v184h656v-184h-656zM356 546 q0 -330 206 -330q208 0 208 330t-206 330q-208 0 -208 -330z" />
<glyph unicode="&#x1ee;" horiz-adv-x="1194" d="M20 86l98 220q198 -84 386 -84q158 0 246 63t88 175q0 128 -106 174t-318 46h-86v202l364 324h-602v242h940v-248l-364 -322q456 -52 456 -422q0 -160 -83 -268t-222 -161t-307 -53q-284 0 -490 112zM182 1828v24h202l166 -152l164 152h196v-24l-234 -266h-260z" />
<glyph unicode="&#x1ef;" horiz-adv-x="1006" d="M8 -356l94 210q136 -66 284 -66q138 0 216 63t78 187q0 238 -344 238h-100v192l334 394h-510v230h818v-230l-344 -404q198 -24 311 -123t113 -303q0 -152 -75 -259t-200 -160t-275 -53q-114 0 -212 19t-188 65zM132 1548v20h190l140 -176l142 176h184v-20l-204 -318h-248 z" />
<glyph unicode="&#x1f0;" horiz-adv-x="568" d="M-138 -224q118 40 179 81t84 97t23 152v986h272v-994q0 -154 -42 -252t-142 -165t-284 -127zM-44 1548v20h190l140 -176l142 176h184v-20l-204 -318h-248z" />
<glyph unicode="&#x1f1;" horiz-adv-x="2456" d="M156 0v1448h480q320 0 487 -182t167 -540q0 -362 -167 -544t-487 -182h-480zM432 246h196q378 0 378 480q0 476 -376 476h-198v-956zM1412 0v244l650 962h-622v242h934v-242l-650 -964h662v-242h-974z" />
<glyph unicode="&#x1f2;" horiz-adv-x="2310" d="M156 0v1448h480q320 0 487 -182t167 -540q0 -362 -167 -544t-487 -182h-480zM432 246h196q378 0 378 480q0 476 -376 476h-198v-956zM1422 0v230l512 632h-492v230h796v-230l-512 -632h524v-230h-828z" />
<glyph unicode="&#x1f3;" horiz-adv-x="2106" d="M78 544q0 274 104 424t292 150q84 0 154 -30t118 -86v538h272v-1474v-66h-246v156q-102 -182 -300 -182q-188 0 -291 149t-103 421zM356 554q0 -328 204 -328q52 0 96 22t90 70v466q-38 44 -88 67t-106 23q-196 0 -196 -320zM1218 0v230l512 632h-492v230h796v-230 l-512 -632h524v-230h-828z" />
<glyph unicode="&#x1f4;" horiz-adv-x="1336" d="M96 724q0 358 178 554t504 196q128 0 240 -30t188 -84l-80 -220q-188 88 -352 88q-394 0 -394 -504t398 -504q80 0 166 20v346h-238v244h514v-740q-82 -56 -199 -86t-243 -30q-326 0 -504 196t-178 554zM550 1562v24l290 266h302v-24l-364 -266h-228z" />
<glyph unicode="&#x1f5;" horiz-adv-x="1166" d="M78 574q0 260 105 402t295 142q96 0 174 -39t124 -113v126h246v-1048q0 -232 -131 -358t-371 -126q-98 0 -193 21t-171 61l76 214q134 -58 258 -58q260 0 260 246v130q-98 -140 -274 -140q-190 0 -294 141t-104 399zM356 584q0 -298 208 -298q52 0 96 22t90 70v406 q-38 44 -88 67t-106 23q-200 0 -200 -290zM428 1230v20l190 318h282v-20l-264 -318h-208z" />
<glyph unicode="&#x1f6;" horiz-adv-x="2022" d="M156 0v1448h276v-590h544v590h276v-1026q0 -206 166 -206q190 0 190 322q0 148 -17 261t-63 293h274q76 -286 76 -548q0 -272 -120 -421t-340 -149q-208 0 -325 111t-117 311v216h-544v-612h-276z" />
<glyph unicode="&#x1f7;" horiz-adv-x="1158" d="M156 -414v1862h264v-132q128 158 334 158q184 0 284 -126t100 -356q0 -140 -44 -246t-147 -207t-291 -227l-224 -150v-576h-276zM432 460l184 126q136 96 187 177t51 205q0 254 -184 254q-62 0 -120 -27t-118 -87v-648z" />
<glyph unicode="&#x1f8;" horiz-adv-x="1452" d="M156 0v1448h266l602 -978v978h272v-1448h-266l-602 982v-982h-272zM322 1828v24h302l272 -266v-24h-228z" />
<glyph unicode="&#x1f9;" horiz-adv-x="1176" d="M144 0v1092h246v-138q128 164 328 164q154 0 239 -94t85 -264v-760h-272v720q0 146 -158 146q-54 0 -100 -18t-96 -56v-792h-272zM294 1548v20h282l174 -318v-20h-208z" />
<glyph unicode="&#x1fa;" horiz-adv-x="1340" d="M30 0l452 1332q-86 64 -86 188q0 114 72 177t202 63t202 -63t72 -177q0 -124 -86 -188l452 -1332h-290l-94 312h-516l-92 -312h-288zM482 552h374l-188 630zM508 1818v24l270 250h302v-24l-344 -250h-228zM564 1520q0 -108 106 -108t106 108t-106 108t-106 -108z" />
<glyph unicode="&#x1fb;" horiz-adv-x="1072" d="M52 306q0 196 147 287t475 95v40q0 150 -204 150q-124 0 -254 -56l-68 208q186 88 372 88q202 0 312 -94t110 -264v-760h-242v160q-98 -182 -322 -182q-156 0 -241 86t-85 242zM242 1440q0 114 71 177t201 63t201 -63t71 -177t-71 -177t-201 -63t-201 63t-71 177z M310 328q0 -122 138 -122q130 0 226 106v196q-192 -2 -278 -45t-86 -135zM408 1440q0 -110 106 -110t106 110t-106 110t-106 -110zM416 1750v20l146 254h238v-20l-204 -254h-180z" />
<glyph unicode="&#x1fc;" horiz-adv-x="1864" d="M-12 0l738 1448h276h774v-246h-608v-338h440v-248h-440v-370h636v-246h-904v294h-474l-146 -294h-292zM546 534h354v710zM840 1562v24l290 266h302v-24l-364 -266h-228z" />
<glyph unicode="&#x1fd;" horiz-adv-x="1656" d="M52 300q0 192 145 281t465 93v54q0 150 -198 150q-122 0 -248 -56l-68 208q186 88 366 88q210 0 304 -128q54 62 134 95t176 33q220 0 341 -138t121 -388q0 -74 -12 -132h-652q34 -240 266 -240q124 0 258 64l96 -202q-80 -50 -180 -78t-204 -28q-140 0 -244 52t-168 152 q-84 -106 -175 -154t-203 -48q-152 0 -236 84t-84 238zM310 320q0 -114 132 -114q136 0 240 130q-20 76 -22 158q-184 -2 -267 -44t-83 -130zM704 1230v20l190 318h282v-20l-264 -318h-208zM924 642h396q-2 114 -54 176t-144 62q-172 0 -198 -238z" />
<glyph unicode="&#x1fe;" horiz-adv-x="1432" d="M36 0l182 226q-122 190 -122 498q0 372 159 561t461 189q226 0 380 -120l84 114h216v-20l-182 -226q122 -190 122 -498q0 -372 -159 -561t-461 -189q-226 0 -380 120l-84 -114h-216v20zM372 724q0 -166 28 -266l544 698q-80 80 -228 80q-344 0 -344 -512zM488 292 q80 -80 228 -80q344 0 344 512q0 166 -28 266zM544 1562v24l290 266h302v-24l-364 -266h-228z" />
<glyph unicode="&#x1ff;" horiz-adv-x="1126" d="M18 0l148 176q-88 142 -88 370q0 282 126 427t360 145q168 0 284 -82l54 76h206v-20l-148 -176q88 -142 88 -370q0 -282 -126 -427t-360 -145q-168 0 -284 82l-54 -76h-206v20zM344 546q0 -72 10 -138l346 434q-48 46 -136 46q-220 0 -220 -342zM420 1230v20l190 318h282 v-20l-264 -318h-208zM426 250q48 -46 136 -46q220 0 220 342q0 72 -10 138z" />
<glyph unicode="&#x200;" horiz-adv-x="1340" d="M30 0l490 1448h300l490 -1448h-290l-94 312h-516l-92 -312h-288zM208 1828v24h254l170 -266v-24h-184zM482 552h374l-188 630zM554 1828v24h250l168 -266v-24h-180z" />
<glyph unicode="&#x201;" horiz-adv-x="1072" d="M52 306q0 196 147 287t475 95v40q0 150 -204 150q-124 0 -254 -56l-68 208q186 88 372 88q202 0 312 -94t110 -264v-760h-242v160q-98 -182 -322 -182q-156 0 -241 86t-85 242zM140 1548v20h242l96 -318v-20h-172zM310 328q0 -122 138 -122q130 0 226 106v196 q-192 -2 -278 -45t-86 -135zM454 1548v20h242l92 -318v-20h-172z" />
<glyph unicode="&#x202;" horiz-adv-x="1340" d="M30 0l490 1448h300l490 -1448h-290l-94 312h-516l-92 -312h-288zM346 1582q6 166 90 253t234 87t234 -87t90 -253h-156q-20 146 -170 146q-152 0 -172 -146h-150zM482 552h374l-188 630z" />
<glyph unicode="&#x203;" horiz-adv-x="1072" d="M52 306q0 196 147 287t475 95v40q0 150 -204 150q-124 0 -254 -56l-68 208q186 88 372 88q202 0 312 -94t110 -264v-760h-242v160q-98 -182 -322 -182q-156 0 -241 86t-85 242zM190 1242q6 166 90 253t234 87t234 -87t90 -253h-156q-20 146 -170 146q-152 0 -172 -146 h-150zM310 328q0 -122 138 -122q130 0 226 106v196q-192 -2 -278 -45t-86 -135z" />
<glyph unicode="&#x204;" horiz-adv-x="1156" d="M148 1828v24h254l170 -266v-24h-184zM156 0v1448h912v-246h-636v-338h468v-248h-468v-370h664v-246h-940zM494 1828v24h250l168 -266v-24h-180z" />
<glyph unicode="&#x205;" horiz-adv-x="1092" d="M74 546q0 274 127 423t357 149q224 0 346 -138t122 -388q0 -74 -12 -132h-664q34 -240 272 -240q132 0 264 64l96 -202q-80 -50 -182 -78t-208 -28q-248 0 -383 149t-135 421zM182 1548v20h242l96 -318v-20h-172zM348 642h408q-4 114 -57 176t-147 62q-178 0 -204 -238z M496 1548v20h242l92 -318v-20h-172z" />
<glyph unicode="&#x206;" horiz-adv-x="1156" d="M156 0v1448h912v-246h-636v-338h468v-248h-468v-370h664v-246h-940zM286 1582q6 166 90 253t234 87t234 -87t90 -253h-156q-20 146 -170 146q-152 0 -172 -146h-150z" />
<glyph unicode="&#x207;" horiz-adv-x="1092" d="M74 546q0 274 127 423t357 149q224 0 346 -138t122 -388q0 -74 -12 -132h-664q34 -240 272 -240q132 0 264 64l96 -202q-80 -50 -182 -78t-208 -28q-248 0 -383 149t-135 421zM232 1242q6 166 90 253t234 87t234 -87t90 -253h-156q-20 146 -170 146q-152 0 -172 -146 h-150zM348 642h408q-4 114 -57 176t-147 62q-178 0 -204 -238z" />
<glyph unicode="&#x208;" horiz-adv-x="596" d="M-164 1828v24h254l170 -266v-24h-184zM160 0v1448h276v-1448h-276zM182 1828v24h250l168 -266v-24h-180z" />
<glyph unicode="&#x209;" horiz-adv-x="568" d="M-90 1548v20h242l96 -318v-20h-172zM148 0v1092h272v-1092h-272zM224 1548v20h242l92 -318v-20h-172z" />
<glyph unicode="&#x20a;" horiz-adv-x="596" d="M-26 1582q6 166 90 253t234 87t234 -87t90 -253h-156q-20 146 -170 146q-152 0 -172 -146h-150zM160 0v1448h276v-1448h-276z" />
<glyph unicode="&#x20b;" horiz-adv-x="568" d="M-40 1242q6 166 90 253t234 87t234 -87t90 -253h-156q-20 146 -170 146q-152 0 -172 -146h-150zM148 0v1092h272v-1092h-272z" />
<glyph unicode="&#x20c;" horiz-adv-x="1432" d="M96 724q0 372 159 561t461 189t461 -189t159 -561t-159 -561t-461 -189t-461 189t-159 561zM254 1828v24h254l170 -266v-24h-184zM380 724q0 -504 336 -504t336 504t-336 504t-336 -504zM600 1828v24h250l168 -266v-24h-180z" />
<glyph unicode="&#x20d;" horiz-adv-x="1126" d="M78 546q0 282 126 427t360 145t359 -144t125 -428q0 -282 -126 -427t-360 -145t-359 144t-125 428zM190 1548v20h242l96 -318v-20h-172zM356 546q0 -330 206 -330q208 0 208 330t-206 330q-208 0 -208 -330zM504 1548v20h242l92 -318v-20h-172z" />
<glyph unicode="&#x20e;" horiz-adv-x="1432" d="M96 724q0 372 159 561t461 189t461 -189t159 -561t-159 -561t-461 -189t-461 189t-159 561zM380 724q0 -504 336 -504t336 504t-336 504t-336 -504zM392 1582q6 166 90 253t234 87t234 -87t90 -253h-156q-20 146 -170 146q-152 0 -172 -146h-150z" />
<glyph unicode="&#x20f;" horiz-adv-x="1126" d="M78 546q0 282 126 427t360 145t359 -144t125 -428q0 -282 -126 -427t-360 -145t-359 144t-125 428zM240 1242q6 166 90 253t234 87t234 -87t90 -253h-156q-20 146 -170 146q-152 0 -172 -146h-150zM356 546q0 -330 206 -330q208 0 208 330t-206 330q-208 0 -208 -330z " />
<glyph unicode="&#x210;" horiz-adv-x="1270" d="M156 0v1448h276h244q230 0 355 -123t125 -349q0 -166 -69 -278t-199 -162l358 -536h-330l-310 500h-174v-500h-276zM174 1828v24h254l170 -266v-24h-184zM432 736h244q196 0 196 234q0 236 -204 236h-236v-470zM520 1828v24h250l168 -266v-24h-180z" />
<glyph unicode="&#x211;" horiz-adv-x="812" d="M96 1548v20h242l96 -318v-20h-172zM144 0v1092h246v-172q92 194 282 194q68 0 120 -26l-52 -254q-60 18 -128 18t-115 -23t-81 -75v-754h-272zM410 1548v20h242l92 -318v-20h-172z" />
<glyph unicode="&#x212;" horiz-adv-x="1270" d="M156 0v1448h276h244q230 0 355 -123t125 -349q0 -166 -69 -278t-199 -162l358 -536h-330l-310 500h-174v-500h-276zM312 1582q6 166 90 253t234 87t234 -87t90 -253h-156q-20 146 -170 146q-152 0 -172 -146h-150zM432 736h244q196 0 196 234q0 236 -204 236h-236v-470z " />
<glyph unicode="&#x213;" horiz-adv-x="812" d="M144 0v1092h246v-172q92 194 282 194q68 0 120 -26l-52 -254q-60 18 -128 18t-115 -23t-81 -75v-754h-272zM146 1242q6 166 90 253t234 87t234 -87t90 -253h-156q-20 146 -170 146q-152 0 -172 -146h-150z" />
<glyph unicode="&#x214;" horiz-adv-x="1376" d="M146 498v950h276v-930q0 -298 264 -298q268 0 268 298v930h276v-950q0 -250 -142 -387t-402 -137q-258 0 -399 137t-141 387zM226 1828v24h254l170 -266v-24h-184zM572 1828v24h250l168 -266v-24h-180z" />
<glyph unicode="&#x215;" horiz-adv-x="1160" d="M130 332v760h272v-720q0 -146 152 -146q56 0 100 21t90 67v778h272v-1092h-246v154q-120 -180 -322 -180q-152 0 -235 94t-83 264zM200 1548v20h242l96 -318v-20h-172zM514 1548v20h242l92 -318v-20h-172z" />
<glyph unicode="&#x216;" horiz-adv-x="1376" d="M146 498v950h276v-930q0 -298 264 -298q268 0 268 298v930h276v-950q0 -250 -142 -387t-402 -137q-258 0 -399 137t-141 387zM364 1582q6 166 90 253t234 87t234 -87t90 -253h-156q-20 146 -170 146q-152 0 -172 -146h-150z" />
<glyph unicode="&#x217;" horiz-adv-x="1160" d="M130 332v760h272v-720q0 -146 152 -146q56 0 100 21t90 67v778h272v-1092h-246v154q-120 -180 -322 -180q-152 0 -235 94t-83 264zM250 1242q6 166 90 253t234 87t234 -87t90 -253h-156q-20 146 -170 146q-152 0 -172 -146h-150z" />
<glyph unicode="&#x218;" horiz-adv-x="1128" d="M58 108l88 216q190 -110 390 -110q250 0 250 172q0 72 -46 118t-148 74l-164 46q-186 52 -269 148t-83 258q0 210 128 326t358 116q110 0 228 -26t224 -74l-90 -216q-210 78 -366 78q-218 0 -218 -158q0 -72 46 -117t148 -73l164 -46q188 -52 270 -148t82 -260 q0 -218 -135 -337t-379 -119q-132 0 -257 35t-221 97zM346 -476q50 54 70 109t20 135q0 48 -8 100h248q8 -52 8 -98q0 -96 -57 -180t-183 -172z" />
<glyph unicode="&#x219;" horiz-adv-x="942" d="M40 86l94 220q148 -92 314 -92q174 0 174 98q0 40 -31 66t-101 42l-142 34q-154 36 -222 110t-68 202q0 166 109 258t307 92q100 0 200 -25t180 -69l-100 -216q-148 72 -284 72q-152 0 -152 -86q0 -38 32 -63t100 -41l142 -34q152 -36 221 -111t69 -205q0 -172 -114 -267 t-320 -95q-114 0 -221 29t-187 81zM254 -476q50 54 70 109t20 135q0 48 -8 100h248q8 -52 8 -98q0 -96 -57 -180t-183 -172z" />
<glyph unicode="&#x21a;" horiz-adv-x="1060" d="M32 1200v248h636h360v-248h-360v-1200h-276v1200h-360zM320 -476q50 54 70 109t20 135q0 48 -8 100h248q8 -52 8 -98q0 -96 -57 -180t-183 -172z" />
<glyph unicode="&#x21b;" horiz-adv-x="808" d="M22 858v234h168v296h270v-296h298v-234h-298v-472q0 -84 37 -122t117 -38q56 0 116 16l42 -230q-100 -28 -202 -28q-382 0 -382 352v522h-166zM260 -476q50 54 70 109t20 135q0 48 -8 100h248q8 -52 8 -98q0 -96 -57 -180t-183 -172z" />
<glyph unicode="&#x21c;" horiz-adv-x="1066" d="M20 -4q262 46 415 100t222 128t69 180q0 172 -174 250q-126 -66 -318 -134l-76 210q266 98 376 180t110 186q0 140 -190 140q-158 0 -330 -88l-92 220q100 50 220 78t236 28q208 0 323 -91t115 -257q0 -198 -178 -346q262 -120 262 -390q0 -166 -99 -285t-308 -201 t-543 -136z" />
<glyph unicode="&#x21d;" horiz-adv-x="990" d="M32 -216q228 40 361 88t192 115t59 165q0 148 -126 214q-134 -68 -292 -124l-70 200q230 84 325 158t95 168q0 128 -158 128q-132 0 -292 -80l-82 208q90 46 198 70t214 24q190 0 294 -83t104 -235q0 -94 -41 -173t-125 -149q122 -60 180 -147t58 -207q0 -220 -203 -352 t-653 -204z" />
<glyph unicode="&#x21e;" horiz-adv-x="1408" d="M156 0v1448h276v-590h544v590h276v-1448h-276v612h-544v-612h-276zM340 1828v24h202l166 -152l164 152h196v-24l-234 -266h-260z" />
<glyph unicode="&#x21f;" horiz-adv-x="1180" d="M-84 1920v24h202l166 -152l164 152h196v-24l-234 -266h-260zM144 0v1540h272v-556q122 134 304 134q156 0 241 -93t85 -265v-760h-272v720q0 146 -160 146q-56 0 -102 -18t-96 -56v-792h-272z" />
<glyph unicode="&#x220;" horiz-adv-x="1370" d="M156 0v1448h264v-156q152 182 392 182q196 0 304 -121t108 -341v-1272h-276v1276q0 204 -228 204q-80 0 -148 -27t-140 -85v-1108h-276z" />
<glyph unicode="&#x221;" horiz-adv-x="1162" d="M78 544q0 274 104 424t292 150q84 0 154 -30t118 -86v538h272v-1338v-180q34 6 68 6q118 0 184 -62t66 -174q0 -118 -74 -183t-208 -65q-114 0 -185 47t-89 133q-10 -6 -30 -22l-148 -114l-94 128l154 118q70 52 88 64v222q-98 -146 -278 -146q-188 0 -291 149t-103 421z M356 554q0 -328 204 -328q52 0 96 22t90 70v466q-38 44 -88 67t-106 23q-196 0 -196 -320zM1002 -148v-54q0 -80 70 -80q64 0 64 70q0 76 -72 76q-26 0 -62 -12z" />
<glyph unicode="&#x222;" horiz-adv-x="1304" d="M82 382q0 128 66 224t190 144q-108 46 -166 131t-58 201q0 146 92 249t260 143l88 -218q-158 -68 -158 -206q0 -180 254 -180q258 0 258 180q0 136 -160 206l90 218q168 -40 260 -143t92 -249q0 -116 -58 -201t-166 -131q124 -48 190 -144t66 -224q0 -194 -149 -301 t-421 -107t-421 107t-149 301zM366 418q0 -100 70 -149t216 -49t216 49t70 149q0 206 -286 206t-286 -206z" />
<glyph unicode="&#x223;" horiz-adv-x="1196" d="M78 406q0 140 63 241t181 149q-100 46 -155 134t-55 208q0 142 74 250t208 164l120 -192q-124 -60 -124 -222q0 -222 208 -222t208 222q0 162 -124 222l120 192q134 -56 208 -164t74 -250q0 -120 -55 -208t-155 -134q118 -48 181 -149t63 -241q0 -206 -136 -319 t-384 -113t-384 113t-136 319zM356 440q0 -224 242 -224t242 224q0 232 -242 232t-242 -232z" />
<glyph unicode="&#x224;" horiz-adv-x="1110" d="M66 0v244l650 962h-622v242h934v-242l-650 -964h334q172 0 267 -96t95 -272q0 -52 -8 -94h-244q6 66 6 96q0 64 -29 94t-87 30h-646z" />
<glyph unicode="&#x225;" horiz-adv-x="944" d="M56 0v230l512 632h-492v230h796v-230l-512 -632h222q172 0 267 -96t95 -272q0 -52 -8 -94h-244q6 66 6 96q0 70 -29 103t-87 33h-526z" />
<glyph unicode="&#x226;" horiz-adv-x="1340" d="M30 0l490 1448h300l490 -1448h-290l-94 312h-516l-92 -312h-288zM482 552h374l-188 630zM508 1706q0 74 43 115t119 41t119 -41t43 -113q0 -74 -43 -115t-119 -41t-119 41t-43 113z" />
<glyph unicode="&#x227;" horiz-adv-x="1072" d="M52 306q0 196 147 287t475 95v40q0 150 -204 150q-124 0 -254 -56l-68 208q186 88 372 88q202 0 312 -94t110 -264v-760h-242v160q-98 -182 -322 -182q-156 0 -241 86t-85 242zM310 328q0 -122 138 -122q130 0 226 106v196q-192 -2 -278 -45t-86 -135zM352 1388 q0 74 43 115t119 41t119 -41t43 -113q0 -74 -43 -115t-119 -41t-119 41t-43 113z" />
<glyph unicode="&#x228;" horiz-adv-x="1156" d="M156 0v1448h912v-246h-636v-338h468v-248h-468v-370h664v-246h-392l-76 -102q28 4 42 4q108 0 167 -45t59 -127q0 -100 -72 -155t-204 -55q-136 0 -244 52l42 124q106 -34 172 -34q98 0 98 62q0 58 -86 58q-42 0 -78 -14l-60 68l68 164h-376z" />
<glyph unicode="&#x229;" horiz-adv-x="1092" d="M74 546q0 274 127 423t357 149q224 0 346 -138t122 -388q0 -74 -12 -132h-664q34 -240 272 -240q132 0 264 64l96 -202q-74 -48 -171 -75t-197 -31l-58 -78q28 4 42 4q108 0 167 -45t59 -127q0 -100 -72 -155t-204 -55q-136 0 -244 52l42 124q106 -34 172 -34q98 0 98 62 q0 58 -86 58q-42 0 -78 -14l-60 68l64 154q-184 38 -283 181t-99 375zM348 642h408q-4 114 -57 176t-147 62q-178 0 -204 -238z" />
<glyph unicode="&#x22a;" horiz-adv-x="1432" d="M96 724q0 372 159 561t461 189t461 -189t159 -561t-159 -561t-461 -189t-461 189t-159 561zM364 1684q0 68 38 106t106 38t107 -38t39 -104q0 -68 -38 -105t-108 -37q-68 0 -106 38t-38 102zM380 724q0 -504 336 -504t336 504t-336 504t-336 -504zM388 1910v184h656v-184 h-656zM778 1684q0 68 38 106t106 38t107 -38t39 -104q0 -68 -38 -105t-108 -37q-68 0 -106 38t-38 102z" />
<glyph unicode="&#x22b;" horiz-adv-x="1126" d="M78 546q0 282 126 427t360 145t359 -144t125 -428q0 -282 -126 -427t-360 -145t-359 144t-125 428zM224 1368q0 68 38 106t106 38t107 -38t39 -104q0 -68 -38 -105t-108 -37q-68 0 -106 38t-38 102zM236 1596v184h656v-184h-656zM356 546q0 -330 206 -330q208 0 208 330 t-206 330q-208 0 -208 -330zM614 1368q0 68 38 106t106 38t107 -38t39 -104q0 -68 -38 -105t-108 -37q-68 0 -106 38t-38 102z" />
<glyph unicode="&#x22c;" horiz-adv-x="1432" d="M96 724q0 372 159 561t461 189t461 -189t159 -561t-159 -561t-461 -189t-461 189t-159 561zM378 1594q0 118 56 182t160 64q54 0 87 -15t71 -41q26 -20 46 -29t46 -9q76 0 84 90h126q0 -118 -56 -182t-160 -64q-54 0 -87 15t-71 41q-26 20 -46 29t-46 9q-74 0 -84 -90 h-126zM380 724q0 -504 336 -504t336 504t-336 504t-336 -504zM388 1910v184h656v-184h-656z" />
<glyph unicode="&#x22d;" horiz-adv-x="1126" d="M78 546q0 282 126 427t360 145t359 -144t125 -428q0 -282 -126 -427t-360 -145t-359 144t-125 428zM194 1234q2 142 62 221t166 79q54 0 93 -18t91 -52q30 -22 53 -33t47 -11q66 0 78 110h150q-2 -142 -62 -221t-166 -79q-54 0 -93 18t-91 52q-30 22 -53 33t-47 11 q-66 0 -78 -110h-150zM236 1642v184h656v-184h-656zM356 546q0 -330 206 -330q208 0 208 330t-206 330q-208 0 -208 -330z" />
<glyph unicode="&#x22e;" horiz-adv-x="1432" d="M96 724q0 372 159 561t461 189t461 -189t159 -561t-159 -561t-461 -189t-461 189t-159 561zM380 724q0 -504 336 -504t336 504t-336 504t-336 -504zM554 1706q0 74 43 115t119 41t119 -41t43 -113q0 -74 -43 -115t-119 -41t-119 41t-43 113z" />
<glyph unicode="&#x22f;" horiz-adv-x="1126" d="M78 546q0 282 126 427t360 145t359 -144t125 -428q0 -282 -126 -427t-360 -145t-359 144t-125 428zM356 546q0 -330 206 -330q208 0 208 330t-206 330q-208 0 -208 -330zM402 1388q0 74 43 115t119 41t119 -41t43 -113q0 -74 -43 -115t-119 -41t-119 41t-43 113z" />
<glyph unicode="&#x230;" horiz-adv-x="1432" d="M96 724q0 372 159 561t461 189t461 -189t159 -561t-159 -561t-461 -189t-461 189t-159 561zM380 724q0 -504 336 -504t336 504t-336 504t-336 -504zM388 1910v184h656v-184h-656zM554 1706q0 74 43 115t119 41t119 -41t43 -113q0 -74 -43 -115t-119 -41t-119 41t-43 113z " />
<glyph unicode="&#x231;" horiz-adv-x="1126" d="M78 546q0 282 126 427t360 145t359 -144t125 -428q0 -282 -126 -427t-360 -145t-359 144t-125 428zM236 1614v184h656v-184h-656zM356 546q0 -330 206 -330q208 0 208 330t-206 330q-208 0 -208 -330zM402 1388q0 74 43 115t119 41t119 -41t43 -113q0 -74 -43 -115 t-119 -41t-119 41t-43 113z" />
<glyph unicode="&#x232;" horiz-adv-x="1180" d="M22 1448h294l276 -670l274 670h292l-432 -970v-478h-276v478zM260 1612v184h656v-184h-656z" />
<glyph unicode="&#x233;" horiz-adv-x="1046" d="M28 1092h274l224 -804l220 804h272l-330 -1030q-60 -190 -193 -309t-369 -193l-92 228q138 48 218 98t130 116zM198 1272v184h656v-184h-656z" />
<glyph unicode="&#x234;" horiz-adv-x="552" d="M-98 -282l154 118l84 62v1642h272v-1516q34 6 68 6q118 0 184 -62t66 -174q0 -118 -74 -183t-208 -65q-114 0 -185 47t-89 133q-10 -6 -30 -22l-148 -114zM396 -146v-54q0 -80 70 -80q64 0 64 70q0 76 -72 76q-26 0 -62 -12z" />
<glyph unicode="&#x235;" horiz-adv-x="1350" d="M144 0v1092h246v-138q128 164 328 164q154 0 239 -94t85 -264v-326q44 4 64 4q118 0 184 -62t66 -174q0 -118 -74 -183t-208 -65q-114 0 -185 47t-89 133q-10 -6 -30 -22l-148 -114l-94 128l154 118q70 52 88 64v304v108q0 146 -158 146q-54 0 -100 -18t-96 -56v-792 h-272zM1022 208q0 -80 70 -80q64 0 64 70q0 76 -72 76q-26 0 -62 -12v-54z" />
<glyph unicode="&#x236;" horiz-adv-x="826" d="M-38 126l154 118l84 62v552h-166v234h168v296h270v-296h298v-234h-298v-426q32 6 68 6q118 0 184 -62t66 -174q0 -118 -74 -183t-208 -65q-114 0 -185 47t-89 133q-10 -6 -30 -22l-148 -114zM456 208q0 -80 70 -80q64 0 64 70q0 76 -72 76q-26 0 -62 -12v-54z" />
<glyph unicode="&#x237;" horiz-adv-x="568" d="M-138 -224q118 40 179 81t84 97t23 152v986h272v-994q0 -154 -42 -252t-142 -165t-284 -127z" />
<glyph unicode="&#x238;" horiz-adv-x="1764" d="M78 544q0 274 104 424t292 150q84 0 154 -30t118 -86v538h272v-562q98 140 274 140q188 0 291 -149t103 -421q0 -274 -104 -424t-292 -150q-96 0 -174 39t-124 113v-126h-220v156q-102 -182 -300 -182q-188 0 -291 149t-103 421zM356 554q0 -328 204 -328q52 0 96 22 t90 70v466q-38 44 -88 67t-106 23q-196 0 -196 -320zM1018 308q38 -44 88 -67t106 -23q196 0 196 320q0 328 -204 328q-52 0 -96 -22t-90 -70v-466z" />
<glyph unicode="&#x239;" horiz-adv-x="1764" d="M78 544q0 274 104 424t292 150q96 0 174 -39t124 -113v126h220v-156q102 182 300 182q188 0 291 -149t103 -421q0 -274 -104 -424t-292 -150q-84 0 -154 30t-118 86v-504h-272v528q-98 -140 -274 -140q-188 0 -291 149t-103 421zM356 554q0 -328 204 -328q52 0 96 22 t90 70v466q-38 44 -88 67t-106 23q-196 0 -196 -320zM1018 308q38 -44 88 -67t106 -23q196 0 196 320q0 328 -204 328q-52 0 -96 -22t-90 -70v-466z" />
<glyph unicode="&#x23a;" horiz-adv-x="1340" d="M30 0l490 1448h300l34 -98l90 270h170l-176 -522l372 -1098h-290l-94 312h-252l-176 -526h-170l176 526h-94l-92 -312h-288zM482 552h104l142 426l-60 204zM756 552h100l-48 158z" />
<glyph unicode="&#x23b;" horiz-adv-x="1206" d="M76 694q0 240 80 416t229 270t351 94q26 0 78 -4l54 150h170l-64 -182q102 -32 168 -80l-94 -210q-82 42 -158 58l-334 -934q82 -44 202 -44q184 0 302 70l94 -208q-66 -54 -174 -84t-234 -30q-154 0 -280 46l-84 -236h-170l112 314q-120 90 -184 241t-64 353zM360 714 q0 -202 70 -320l298 832q-176 -2 -272 -136t-96 -376z" />
<glyph unicode="&#x23c;" horiz-adv-x="966" d="M70 530q0 176 64 309t181 206t271 73q30 0 46 -2l64 190h162l-74 -220q78 -26 132 -66l-96 -210q-64 28 -116 42l-208 -608q46 -20 112 -20q114 0 228 60l92 -208q-130 -100 -332 -100q-100 0 -184 24l-74 -220h-162l98 284q-100 70 -152 188t-52 278zM348 544 q0 -104 28 -176l172 502q-96 -14 -148 -98t-52 -228z" />
<glyph unicode="&#x23d;" horiz-adv-x="1064" d="M30 628v210h128v610h276v-610h314v-210h-314v-380h582v-248h-858v628h-128z" />
<glyph unicode="&#x23e;" horiz-adv-x="1060" d="M32 -214l360 792v622h-360v248h636h116l74 172h170l-78 -172h78v-248h-190l-170 -380v-820h-276v208l-190 -422h-170zM668 1094l50 106h-50v-106z" />
<glyph unicode="&#x23f;" horiz-adv-x="942" d="M40 86l94 220q148 -92 314 -92q174 0 174 98q0 40 -31 66t-101 42l-142 34q-154 36 -222 110t-68 202q0 166 109 258t307 92q100 0 200 -25t180 -69l-100 -216q-148 72 -284 72q-152 0 -152 -86q0 -38 32 -63t100 -41l142 -34q152 -36 221 -111t69 -205q0 -172 -114 -267 t-320 -95h-20q92 -102 153 -149t141 -47q46 0 106 16l46 -210q-84 -40 -190 -40q-96 0 -167 38t-120 94t-115 152q-60 88 -105 142t-103 94z" />
<glyph unicode="&#x240;" horiz-adv-x="944" d="M56 0v230l512 632h-492v230h796v-230l-524 -648q94 -26 150 -85t116 -159q40 -66 68 -103t70 -62t100 -25q46 0 106 16l46 -210q-84 -40 -190 -40q-92 0 -157 34t-108 82t-97 128q-48 72 -82 113t-84 69t-118 28h-112z" />
<glyph unicode="&#x241;" horiz-adv-x="1128" d="M72 1282q96 92 227 142t275 50q220 0 341 -114t121 -322q0 -186 -99 -331t-283 -229v-478h-276v630q364 120 364 392q0 194 -196 194q-78 0 -159 -31t-177 -99z" />
<glyph unicode="&#x242;" horiz-adv-x="990" d="M64 1022q84 76 199 117t243 41q192 0 296 -86t104 -246q0 -140 -82 -250t-238 -180v-418h-268v558q302 104 302 274q0 50 -35 74t-109 24q-64 0 -131 -22t-149 -72z" />
<glyph unicode="&#x243;" horiz-adv-x="1296" d="M30 334v198h126v916h274h248q220 0 340 -108t120 -306q0 -200 -186 -270q268 -80 268 -328q0 -208 -125 -322t-351 -114h-438h-150v334h-126zM430 244h328q180 0 180 186q0 192 -194 192h-314v-90h230v-198h-230v-90zM430 858h248q180 0 180 170q0 176 -194 176h-234 v-346z" />
<glyph unicode="&#x244;" horiz-adv-x="1424" d="M6 640v210h164v598h276v-598h532v598h276v-598h164v-210h-164v-142q0 -250 -142 -387t-402 -137q-258 0 -399 137t-141 387v142h-164zM446 518q0 -298 264 -298q268 0 268 298v122h-532v-122z" />
<glyph unicode="&#x245;" horiz-adv-x="1268" d="M38 0l446 1448h300l446 -1448h-290l-308 1158l-306 -1158h-288z" />
<glyph unicode="&#x246;" horiz-adv-x="1156" d="M156 0v1448h588l44 172h170l-44 -172h154v-246h-218l-88 -338h138v-248h-202l-96 -370h494v-246h-558l-56 -214h-170l56 214h-212zM432 248l96 368h-96v-368zM432 864h160l88 338h-248v-338z" />
<glyph unicode="&#x247;" horiz-adv-x="1092" d="M74 546q0 274 127 423t357 149q52 0 108 -10l68 198h162l-86 -250q106 -62 161 -179t55 -285q0 -74 -12 -132h-406l-78 -230q46 -10 92 -10q132 0 264 64l96 -202q-80 -50 -182 -78t-208 -28q-74 0 -144 16l-72 -212h-162l90 266q-112 68 -171 195t-59 305zM348 642h160 l80 236q-12 2 -36 2q-178 0 -204 -238zM350 460q12 -82 48 -140l48 140h-96zM670 642h86q-2 88 -36 146z" />
<glyph unicode="&#x248;" horiz-adv-x="976" d="M0 86l98 210q136 -74 248 -74q176 0 176 172v246h-232v210h232v598h276v-598h172v-210h-172v-266q0 -190 -115 -295t-323 -105q-108 0 -202 29t-158 83z" />
<glyph unicode="&#x249;" horiz-adv-x="632" d="M-106 -224q118 40 179 81t84 97t23 152v358h-164v190h164v438h272v-438h164v-190h-164v-366q0 -154 -42 -252t-142 -165t-284 -127zM154 1388q0 74 43 115t119 41t119 -41t43 -113q0 -74 -43 -115t-119 -41t-119 41t-43 113z" />
<glyph unicode="&#x24a;" horiz-adv-x="1364" d="M96 722q0 358 125 555t355 197q108 0 202 -42t154 -116v132h276v-1448v-96q0 -50 18 -72t56 -22q52 0 106 14l40 -230q-74 -30 -164 -30q-332 0 -332 320v270q-124 -180 -358 -180q-228 0 -353 196t-125 552zM380 732q0 -506 282 -506q80 0 143 31t127 101v742 q-52 58 -128 94t-150 36q-274 0 -274 -498z" />
<glyph unicode="&#x24b;" horiz-adv-x="1158" d="M78 544q0 274 102 424t290 150q174 0 272 -120v94h272v-1092v-106q0 -50 18 -72t58 -22q54 0 110 14l38 -220q-74 -30 -166 -30q-330 0 -330 310v240q-98 -140 -274 -140q-186 0 -288 149t-102 421zM356 554q0 -328 200 -328q52 0 96 22t90 70v466q-38 44 -88 67t-106 23 q-192 0 -192 -320z" />
<glyph unicode="&#x24c;" horiz-adv-x="1290" d="M16 508v218h160v722h276h244q230 0 355 -123t125 -349q0 -166 -69 -278t-199 -162l358 -536h-330l-310 500h-174v-500h-276v508h-160zM452 736h244q196 0 196 234q0 236 -204 236h-236v-470z" />
<glyph unicode="&#x24d;" horiz-adv-x="856" d="M24 464v190h164v438h246v-172q92 194 282 194q68 0 120 -26l-52 -254q-60 18 -128 18t-115 -23t-81 -75v-100h304v-190h-304v-464h-272v464h-164z" />
<glyph unicode="&#x24e;" horiz-adv-x="1180" d="M22 1014v204h102l-102 230h294l94 -230h362l94 230h292l-102 -230h100v-204h-192l-238 -536v-478h-276v478l-236 536h-192zM496 1014l96 -236l98 236h-194z" />
<glyph unicode="&#x24f;" horiz-adv-x="1084" d="M28 612v186h114l-96 294h274l82 -294h282l80 294h272l-94 -294h114v-186h-174l-176 -550q-60 -190 -193 -309t-369 -193l-92 228q138 48 218 98t130 116l-198 610h-174zM454 612l90 -324l88 324h-178z" />
<glyph unicode="&#x250;" horiz-adv-x="1072" d="M130 332v760h242v-160q98 182 322 182q156 0 241 -86t85 -242q0 -196 -147 -287t-475 -95v-40q0 -150 204 -150q124 0 254 56l68 -208q-186 -88 -372 -88q-202 0 -312 94t-110 264zM398 584q192 2 278 45t86 135q0 122 -138 122q-130 0 -226 -106v-196z" />
<glyph unicode="&#x251;" horiz-adv-x="1158" d="M78 544q0 274 102 424t290 150q174 0 272 -120v94h272v-1092h-246v156q-102 -182 -300 -182q-186 0 -288 149t-102 421zM356 554q0 -328 200 -328q52 0 96 22t90 70v466q-38 44 -88 67t-106 23q-192 0 -192 -320z" />
<glyph unicode="&#x252;" horiz-adv-x="1158" d="M144 0v1092h246v-156q102 182 300 182q186 0 288 -149t102 -421q0 -274 -102 -424t-290 -150q-174 0 -272 120v-94h-272zM416 308q38 -44 88 -67t106 -23q192 0 192 320q0 328 -200 328q-52 0 -96 -22t-90 -70v-466z" />
<glyph unicode="&#x253;" horiz-adv-x="1162" d="M144 0v806v286v194q0 288 310 288q92 0 166 -30l-38 -216q-64 12 -94 12q-38 0 -55 -17t-17 -57v-288q98 140 274 140q188 0 291 -149t103 -421q0 -274 -104 -424t-292 -150q-96 0 -174 39t-124 113v-126h-246zM416 308q38 -44 88 -67t106 -23q196 0 196 320 q0 328 -204 328q-52 0 -96 -22t-90 -70v-466z" />
<glyph unicode="&#x254;" horiz-adv-x="966" d="M38 1016q130 100 332 100q250 0 388 -145t138 -409q0 -176 -64 -309t-181 -206t-271 -73q-92 0 -179 26t-151 72l96 210q142 -62 238 -62q112 0 173 86t61 242q0 320 -260 320q-114 0 -228 -60z" />
<glyph unicode="&#x255;" horiz-adv-x="1016" d="M70 -70l134 206q-66 72 -100 173t-34 221q0 176 64 309t181 206t271 73q92 0 179 -26t151 -72l-96 -210q-142 62 -238 62q-112 0 -173 -86t-61 -242q0 -96 20 -158q86 132 170 192t184 60q132 0 204 -79t72 -221q0 -172 -107 -267t-303 -95q-136 0 -248 56l-128 -196z M480 246q50 -26 120 -26q74 0 115 33t41 91q0 40 -19 63t-55 23q-44 0 -85 -33t-87 -105z" />
<glyph unicode="&#x256;" horiz-adv-x="1162" d="M78 544q0 274 104 424t292 150q84 0 154 -30t118 -86v538h272v-1202v-338v-122q0 -40 17 -57t55 -17q30 0 94 12l38 -216q-74 -30 -166 -30q-310 0 -310 288v256q-98 -140 -274 -140q-188 0 -291 149t-103 421zM356 554q0 -328 204 -328q52 0 96 22t90 70v466 q-38 44 -88 67t-106 23q-196 0 -196 -320z" />
<glyph unicode="&#x257;" horiz-adv-x="1200" d="M78 544q0 274 104 424t292 150q84 0 154 -30t118 -86v284q0 288 310 288q92 0 166 -30l-38 -216q-64 12 -94 12q-38 0 -55 -17t-17 -57v-300v-900v-66h-246v156q-102 -182 -300 -182q-188 0 -291 149t-103 421zM356 554q0 -328 204 -328q52 0 96 22t90 70v466 q-38 44 -88 67t-106 23q-196 0 -196 -320z" />
<glyph unicode="&#x258;" horiz-adv-x="1092" d="M66 592q0 250 122 388t346 138q232 0 358 -149t126 -423q0 -272 -135 -421t-383 -149q-106 0 -208 28t-182 78l96 202q132 -64 264 -64q240 0 272 240h-664q-12 58 -12 132zM336 642h408q-26 238 -204 238q-94 0 -147 -62t-57 -176z" />
<glyph unicode="&#x259;" horiz-adv-x="1092" d="M66 500q0 76 12 132h664q-32 240 -272 240q-132 0 -264 -64l-96 202q80 50 182 78t208 28q248 0 383 -149t135 -421t-126 -422t-358 -150q-224 0 -346 138t-122 388zM336 450q4 -114 57 -176t147 -62q178 0 204 238h-408z" />
<glyph unicode="&#x25a;" horiz-adv-x="1458" d="M66 480q0 56 10 102l656 102q-50 188 -262 188q-132 0 -264 -64l-96 202q80 50 182 78t208 28q202 0 330 -100t170 -286l302 44l-8 -86q-2 -24 -2 -54q0 -74 30 -109t94 -35h42l-42 -222q-148 0 -239 71t-115 203l-44 -6q-4 -268 -129 -415t-355 -147q-224 0 -346 132 t-122 374zM336 434q4 -106 57 -164t147 -58q194 0 206 286z" />
<glyph unicode="&#x25b;" horiz-adv-x="978" d="M64 328q0 100 57 163t147 91q-76 34 -118 92t-42 134q0 156 122 233t300 77q198 0 364 -78l-74 -206q-128 62 -252 62q-182 0 -182 -128q0 -60 43 -88t133 -28h180v-192h-192q-108 0 -158 -24t-50 -92q0 -140 216 -140q78 0 155 18t139 48l94 -210q-70 -42 -187 -63 t-225 -21q-224 0 -347 91t-123 261z" />
<glyph unicode="&#x25c;" horiz-adv-x="978" d="M32 60l94 210q132 -66 278 -66q104 0 168 34t64 106q0 68 -50 92t-158 24h-192v192h180q90 0 133 28t43 88q0 62 -51 95t-145 33q-110 0 -238 -62l-74 206q166 78 360 78q184 0 305 -73t121 -237q0 -76 -42 -134t-118 -92q90 -28 147 -91t57 -163q0 -168 -133 -260 t-361 -92q-108 0 -212 21t-176 63z" />
<glyph unicode="&#x25d;" horiz-adv-x="1318" d="M32 60l94 210q132 -66 278 -66q104 0 168 34t64 106q0 68 -50 92t-158 24h-192v192h180q90 0 133 28t43 88q0 62 -51 95t-145 33q-110 0 -238 -62l-74 206q166 78 360 78q136 0 241 -40t153 -128l324 48l-8 -86q-2 -24 -2 -54q0 -74 30 -109t94 -35h42l-42 -222 q-148 0 -239 71t-115 203l-58 -8q-12 -58 -52 -103t-102 -73q90 -28 147 -91t57 -163q0 -168 -133 -260t-361 -92q-108 0 -212 21t-176 63z" />
<glyph unicode="&#x25e;" horiz-adv-x="1146" d="M78 546q0 572 532 572q186 0 307 -72t121 -238q0 -76 -42 -134t-118 -92q90 -28 147 -91t57 -163q0 -168 -132 -260t-350 -92q-522 0 -522 570zM356 546q0 -180 55 -261t179 -81q88 0 151 35t63 105q0 68 -50 92t-158 24h-112v192h100q90 0 133 28t43 88t-51 94t-131 34 q-118 0 -170 -83t-52 -267z" />
<glyph unicode="&#x25f;" horiz-adv-x="632" d="M-106 -224q118 40 179 81t84 97t23 152v358h-164v190h164v438h272v-438h164v-190h-164v-366q0 -154 -42 -252t-142 -165t-284 -127z" />
<glyph unicode="&#x260;" horiz-adv-x="1166" d="M78 574q0 260 105 402t295 142q84 0 154 -30t118 -86v284q0 288 310 288q92 0 166 -30l-38 -216q-64 12 -94 12q-38 0 -55 -17t-17 -57v-460v-762q0 -232 -131 -358t-371 -126q-98 0 -193 21t-171 61l76 214q134 -58 258 -58q260 0 260 246v130q-98 -140 -274 -140 q-190 0 -294 141t-104 399zM356 584q0 -298 208 -298q52 0 96 22t90 70v406q-38 44 -88 67t-106 23q-200 0 -200 -290z" />
<glyph unicode="&#x261;" horiz-adv-x="1166" d="M78 574q0 260 105 402t295 142q96 0 174 -39t124 -113v126h246v-1048q0 -232 -131 -358t-371 -126q-98 0 -193 21t-171 61l76 214q134 -58 258 -58q260 0 260 246v130q-98 -140 -274 -140q-190 0 -294 141t-104 399zM356 584q0 -298 208 -298q52 0 96 22t90 70v406 q-38 44 -88 67t-106 23q-200 0 -200 -290z" />
<glyph unicode="&#x262;" horiz-adv-x="1162" d="M88 546q0 270 152 418t432 148q114 0 212 -26t164 -72l-78 -214q-162 72 -302 72q-152 0 -227 -80t-75 -246q0 -164 76 -244t230 -80q54 0 110 10v192h-190v238h462v-586q-72 -46 -173 -71t-209 -25q-280 0 -432 147t-152 419z" />
<glyph unicode="&#x263;" horiz-adv-x="1054" d="M28 1092h274l226 -550l226 550h272l-382 -830l94 -228q32 -80 46 -133t14 -99q0 -116 -71 -179t-199 -63t-198 63t-70 179q0 46 14 99t46 133l92 222zM472 -174q0 -82 56 -82q52 0 52 82q0 66 -48 168l-6 14l-6 -14q-48 -102 -48 -168z" />
<glyph unicode="&#x264;" horiz-adv-x="1058" d="M-72 992q104 134 256 134q84 0 147 -43t121 -137l80 -130l78 130q56 94 120 137t146 43q150 0 254 -134l-146 -168q-62 56 -102 56q-24 0 -46 -18t-48 -56l-134 -194l84 -140q40 -68 59 -121t19 -113q0 -126 -74 -195t-212 -69q-134 0 -209 69t-75 193q0 60 18 114 t60 122l82 136l-138 198q-48 74 -98 74q-40 0 -100 -54zM458 252q0 -94 72 -94q68 0 68 94q0 76 -54 156l-16 24l-16 -24q-54 -80 -54 -156z" />
<glyph unicode="&#x265;" horiz-adv-x="1160" d="M130 332v760h272v-720q0 -146 152 -146q56 0 100 21t90 67v778h272v-1506h-272v532q-114 -144 -296 -144q-152 0 -235 94t-83 264z" />
<glyph unicode="&#x266;" horiz-adv-x="1180" d="M144 0v1180v106q0 288 310 288q92 0 166 -30l-38 -216q-64 12 -94 12q-38 0 -55 -17t-17 -57v-282q122 134 304 134q156 0 241 -93t85 -265v-760h-272v720q0 146 -160 146q-56 0 -102 -18t-96 -56v-792h-272z" />
<glyph unicode="&#x267;" horiz-adv-x="1180" d="M144 0v1180v106q0 288 310 288q92 0 166 -30l-38 -216q-64 12 -94 12q-38 0 -55 -17t-17 -57v-282q122 134 304 134q156 0 241 -93t85 -265v-760v-100q0 -162 -89 -251t-251 -89q-146 0 -258 78l86 200q96 -40 150 -40q46 0 68 29t22 93v514v286q0 146 -160 146 q-56 0 -102 -18t-96 -56v-792h-272z" />
<glyph unicode="&#x268;" horiz-adv-x="632" d="M16 464v190h164v438h272v-438h164v-190h-164v-464h-272v464h-164zM154 1388q0 74 43 115t119 41t119 -41t43 -113q0 -74 -43 -115t-119 -41t-119 41t-43 113z" />
<glyph unicode="&#x269;" horiz-adv-x="780" d="M140 336v756h272v-706q0 -84 37 -122t117 -38q56 0 116 16l42 -230q-100 -28 -202 -28q-382 0 -382 352z" />
<glyph unicode="&#x26a;" horiz-adv-x="576" d="M152 0v1092h272v-1092h-272z" />
<glyph unicode="&#x26b;" horiz-adv-x="806" d="M16 688q2 140 61 218t161 82v552h272v-664q6 -2 18 -2q66 0 78 110h150q-2 -142 -62 -221t-166 -79h-18v-346q0 -58 22 -84t74 -26q32 0 70 6l18 -230q-78 -18 -162 -18q-148 0 -221 72t-73 220v520q-60 -6 -72 -110h-150z" />
<glyph unicode="&#x26c;" horiz-adv-x="890" d="M-2 774q0 128 71 198t201 70q16 0 44 -4v502h272v-774l210 76l58 -166l-242 -88l-26 -10v-240q0 -58 22 -84t74 -26q32 0 70 6l18 -230q-78 -18 -162 -18q-148 0 -221 72t-73 220v228q-14 -2 -38 -2q-132 0 -205 71t-73 199zM196 772q0 -80 80 -80q24 0 38 2v154 q-28 4 -40 4q-78 0 -78 -80z" />
<glyph unicode="&#x26d;" horiz-adv-x="560" d="M144 -144v1262v422h272v-1540v-84q0 -58 22 -84t74 -26q32 0 70 6l18 -230q-78 -18 -162 -18q-148 0 -221 72t-73 220z" />
<glyph unicode="&#x26e;" horiz-adv-x="1366" d="M144 0v1540h272v-448h86h736v-230l-344 -404q198 -24 311 -123t113 -303q0 -152 -75 -259t-200 -160t-275 -53q-114 0 -212 19t-188 65l94 210q136 -66 284 -66q138 0 216 63t78 187q0 238 -344 238h-100v192l334 394h-510h-4v-862h-272z" />
<glyph unicode="&#x26f;" horiz-adv-x="1770" d="M130 332v760h272v-720q0 -146 150 -146q50 0 95 18t93 56v32v760h272v-720q0 -146 152 -146q96 0 190 74v792h272v-1092h-246v138q-128 -164 -322 -164q-102 0 -175 44t-109 128q-136 -172 -328 -172q-150 0 -233 94t-83 264z" />
<glyph unicode="&#x270;" horiz-adv-x="1770" d="M126 332v760h272v-720q0 -146 150 -146q50 0 95 18t93 56v32v760h272v-720q0 -146 152 -146q96 0 190 74v792h276v-1506h-272v526q-122 -138 -300 -138q-102 0 -175 44t-109 128q-136 -172 -328 -172q-150 0 -233 94t-83 264z" />
<glyph unicode="&#x271;" horiz-adv-x="1774" d="M144 0v1092h246v-138q128 164 322 164q102 0 175 -44t109 -128q136 172 328 172q150 0 233 -94t83 -264v-760v-126q0 -310 -330 -310q-92 0 -166 30l38 220q56 -14 110 -14q40 0 58 22t18 72v478v348q0 146 -150 146q-50 0 -95 -18t-93 -56v-32v-760h-272v720 q0 146 -152 146q-96 0 -190 -74v-792h-272z" />
<glyph unicode="&#x272;" horiz-adv-x="1176" d="M-80 -406l38 220q56 -14 110 -14q40 0 58 22t18 72v478v720h246v-138q128 164 328 164q154 0 239 -94t85 -264v-760h-272v720q0 146 -158 146q-54 0 -100 -18t-96 -56v-792v-126q0 -310 -330 -310q-92 0 -166 30z" />
<glyph unicode="&#x273;" horiz-adv-x="1176" d="M144 0v1092h246v-138q128 164 328 164q154 0 239 -94t85 -264v-760v-108q0 -50 18 -72t58 -22q46 0 110 16l38 -220q-74 -30 -166 -30q-330 0 -330 308v460v388q0 146 -158 146q-54 0 -100 -18t-96 -56v-792h-272z" />
<glyph unicode="&#x274;" horiz-adv-x="1280" d="M148 0v1092h264l452 -634v634h268v-1092h-264l-452 638v-638h-268z" />
<glyph unicode="&#x275;" horiz-adv-x="1126" d="M78 546q0 282 126 427t360 145t359 -144t125 -428q0 -282 -126 -427t-360 -145t-359 144t-125 428zM348 466q24 -262 214 -262q192 0 216 262h-430zM350 652h426q-30 236 -212 236q-184 0 -214 -236z" />
<glyph unicode="&#x276;" horiz-adv-x="1650" d="M88 546q0 272 136 409t396 137h262h690v-242h-492v-170h354v-244h-354v-194h518v-242h-784h-194q-260 0 -396 136t-136 410zM366 546q0 -156 63 -230t191 -74h194v608h-194q-128 0 -191 -74t-63 -230z" />
<glyph unicode="&#x277;" horiz-adv-x="1568" d="M98 464q0 312 179 483t507 171t507 -170t179 -480q0 -234 -100 -363t-282 -129q-102 0 -187 44t-117 148q-32 -104 -118 -148t-188 -44q-182 0 -281 128t-99 360zM374 450q0 -242 132 -242q66 0 104 61t38 173v88h272v-88q0 -112 37 -173t103 -61q134 0 134 242 q0 426 -410 426t-410 -426z" />
<glyph unicode="&#x278;" horiz-adv-x="1208" d="M78 546q0 248 105 390t303 174v372h236v-372q198 -32 303 -173t105 -391q0 -248 -105 -390t-303 -174v-396h-236v396q-198 32 -303 173t-105 391zM344 546q0 -136 34 -214t108 -108v644q-74 -30 -108 -108t-34 -214zM722 224q74 30 108 108t34 214t-34 214t-108 108v-644 z" />
<glyph unicode="&#x279;" horiz-adv-x="812" d="M20 4l52 254q60 -18 128 -18t115 23t81 75v754h272v-1092h-246v172q-92 -194 -282 -194q-68 0 -120 26z" />
<glyph unicode="&#x27a;" horiz-adv-x="812" d="M20 4l52 254q60 -18 128 -18t115 23t81 75v754v448h272v-882v-658h-246v172q-92 -194 -282 -194q-68 0 -120 26z" />
<glyph unicode="&#x27b;" horiz-adv-x="812" d="M20 4l52 254q60 -18 128 -18t115 23t81 75v754h272v-1092v-106q0 -50 18 -72t58 -22q54 0 110 14l38 -220q-74 -30 -166 -30q-330 0 -330 310v250q-92 -146 -256 -146q-68 0 -120 26z" />
<glyph unicode="&#x27c;" horiz-adv-x="812" d="M144 290v802h246v-172q92 194 282 194q68 0 120 -26l-52 -254q-60 18 -128 18t-115 -23t-81 -75v-754v-414h-272v704z" />
<glyph unicode="&#x27d;" horiz-adv-x="812" d="M144 -126v498v720h246v-172q92 194 282 194q68 0 120 -26l-52 -254q-60 18 -128 18t-115 -23t-81 -75v-860q0 -50 18 -72t58 -22q54 0 110 14l38 -220q-74 -30 -166 -30q-330 0 -330 310z" />
<glyph unicode="&#x27e;" horiz-adv-x="680" d="M144 0v524v246q0 308 330 308q92 0 166 -30l-38 -220q-64 16 -110 16q-40 0 -58 -22t-18 -72v-474v-276h-272z" />
<glyph unicode="&#x27f;" horiz-adv-x="680" d="M40 1048q74 30 166 30q330 0 330 -308v-494v-276h-272v524v226q0 50 -18 72t-58 22q-46 0 -110 -16z" />
<glyph unicode="&#x280;" horiz-adv-x="1112" d="M148 0v1092h272h178q200 0 307 -97t107 -275q0 -124 -54 -210t-156 -128l294 -382h-324l-240 346h-112v-346h-272zM420 574h178q136 0 136 140q0 142 -142 142h-172v-282z" />
<glyph unicode="&#x281;" horiz-adv-x="1112" d="M148 0v1092h272v-346h112l240 346h324l-294 -382q102 -42 156 -128t54 -210q0 -178 -107 -275t-307 -97h-216h-234zM420 236h172q142 0 142 142q0 140 -136 140h-178v-282z" />
<glyph unicode="&#x282;" horiz-adv-x="942" d="M40 86l94 220q148 -92 314 -92q174 0 174 98q0 40 -31 66t-101 42l-142 34q-154 36 -222 110t-68 202q0 166 109 258t307 92q100 0 200 -25t180 -69l-100 -216q-148 72 -284 72q-152 0 -152 -86q0 -38 32 -63t100 -41l142 -34q152 -36 221 -111t69 -205q0 -172 -114 -267 t-320 -95q-76 0 -148 12v-96q0 -50 20 -72t62 -22q48 0 116 16l38 -220q-74 -30 -172 -30q-324 0 -324 310v212z" />
<glyph unicode="&#x283;" horiz-adv-x="598" d="M-130 -212q58 -8 122 -8q152 0 152 162v82v1104v46q0 190 111 295t311 105q68 0 122 -10v-236q-58 8 -122 8q-152 0 -152 -162v-82v-1092v-58q0 -190 -111 -295t-311 -105q-68 0 -122 10v236z" />
<glyph unicode="&#x284;" horiz-adv-x="634" d="M-106 -224q118 40 179 81t84 97t23 152v358h-164v190h164v438v82q0 190 111 295t311 105q68 0 122 -10v-236q-58 8 -122 8q-150 0 -150 -162v-520h164v-190h-164v-366q0 -154 -42 -252t-142 -165t-284 -127z" />
<glyph unicode="&#x285;" horiz-adv-x="688" d="M0 870v236q54 10 122 10q200 0 311 -105t111 -295v-82v-634v-58q0 -162 152 -162q64 0 122 8v-236q-54 -10 -122 -10q-200 0 -311 105t-111 295v82v654v38q0 162 -152 162q-64 0 -122 -8z" />
<glyph unicode="&#x286;" horiz-adv-x="708" d="M-138 -168q0 128 80 207t210 79q58 0 102 -20v1030v46q0 190 111 295t311 105q68 0 122 -10v-236q-58 8 -122 8q-152 0 -152 -162v-82v-1146v-10l234 -156l-98 -134l-168 112q-40 -96 -122 -147t-202 -51q-146 0 -226 71t-80 201zM76 -150q0 -80 74 -80q48 0 74 32 t30 102q-54 26 -102 26q-76 0 -76 -80z" />
<glyph unicode="&#x287;" horiz-adv-x="808" d="M36 1376q100 28 202 28q382 0 382 -352v-522h166v-234h-168v-296h-270v296h-298v234h298v472q0 84 -37 122t-117 38q-56 0 -116 -16z" />
<glyph unicode="&#x288;" horiz-adv-x="794" d="M22 858v234h168v296h270v-296h298v-234h-298v-966q0 -50 18 -72t58 -22q46 0 110 16l38 -220q-74 -30 -166 -30q-330 0 -330 308v460v526h-166z" />
<glyph unicode="&#x289;" horiz-adv-x="1206" d="M-2 466v186h154v440h272v-440h342v440h272v-440h156v-186h-156v-466h-246v154q-120 -180 -322 -180q-152 0 -235 94t-83 264v134h-154zM424 372q0 -146 152 -146q56 0 100 21t90 67v152h-342v-94z" />
<glyph unicode="&#x28a;" horiz-adv-x="1148" d="M78 886v206h396v-246q-52 -64 -75 -141t-23 -181q0 -310 198 -310t198 310q0 104 -23 181t-75 141v246h396v-206h-166q76 -94 111 -191t35 -217q0 -234 -125 -368t-351 -134t-351 134t-125 368q0 120 35 217t111 191h-166z" />
<glyph unicode="&#x28b;" horiz-adv-x="1126" d="M130 396v696h272v-670q0 -206 166 -206q190 0 190 322v148q0 178 -116 178q-30 0 -90 -12l-26 234q58 20 136 20q366 0 366 -412v-150q0 -272 -120 -421t-340 -149q-208 0 -323 111t-115 311z" />
<glyph unicode="&#x28c;" horiz-adv-x="1054" d="M28 0l352 1092h292l354 -1092h-274l-228 818l-224 -818h-272z" />
<glyph unicode="&#x28d;" horiz-adv-x="1582" d="M32 0l296 1092h292l172 -766l168 766h292l298 -1092h-272l-174 806l-176 -806h-276l-180 806l-170 -806h-270z" />
<glyph unicode="&#x28e;" horiz-adv-x="1046" d="M28 0l330 1030q60 190 193 309t369 193l92 -228q-138 -48 -218 -98t-130 -116l354 -1090h-274l-224 804l-220 -804h-272z" />
<glyph unicode="&#x28f;" horiz-adv-x="1006" d="M14 1092h288l204 -472l200 472h286l-356 -752v-340h-272v340z" />
<glyph unicode="&#x290;" horiz-adv-x="944" d="M56 0v230l512 632h-492v230h796v-230l-512 -632h524v-230v-126q0 -40 16 -57t56 -17q42 0 96 10l38 -216q-74 -30 -168 -30q-308 0 -308 288v148h-558z" />
<glyph unicode="&#x291;" horiz-adv-x="1142" d="M56 0v230l512 632h-492v230h796v-230l-514 -636h144l64 114q72 130 151 188t183 58q118 0 184 -67t66 -189q0 -158 -108 -244t-304 -86h-148l-126 -226l-164 86l78 140h-322zM714 226h46q160 0 160 96q0 56 -56 56q-36 0 -66 -28t-68 -96z" />
<glyph unicode="&#x292;" horiz-adv-x="1006" d="M8 -356l94 210q136 -66 284 -66q138 0 216 63t78 187q0 238 -344 238h-100v192l334 394h-510v230h818v-230l-344 -404q198 -24 311 -123t113 -303q0 -152 -75 -259t-200 -160t-275 -53q-114 0 -212 19t-188 65z" />
<glyph unicode="&#x293;" horiz-adv-x="1042" d="M8 -112q0 134 79 214t211 80q104 0 190 -59t172 -189l26 -40q30 56 30 144q0 238 -344 238h-100v192l334 394h-510v230h818v-230l-344 -404q198 -24 311 -123t113 -303q0 -110 -43 -200t-125 -152l126 -194l-142 -94l-134 206q-118 -38 -248 -38q-200 0 -310 86t-110 242 zM238 -102q0 -52 50 -81t142 -29q60 0 114 10l-26 42q-50 76 -92 107t-94 31q-44 0 -69 -21t-25 -59z" />
<glyph unicode="&#x294;" horiz-adv-x="1128" d="M72 1374q96 92 227 142t275 50q220 0 341 -114t121 -322q0 -186 -100 -332t-286 -230v-568h-272v722q366 120 366 392q0 194 -198 194q-78 0 -159 -31t-177 -99z" />
<glyph unicode="&#x295;" horiz-adv-x="1132" d="M92 1108q0 218 130 338t368 120q298 0 470 -196l-146 -192q-80 68 -155 99t-159 31q-216 0 -216 -194q0 -256 366 -392v-722h-272v554q-186 76 -286 219t-100 335z" />
<glyph unicode="&#x296;" horiz-adv-x="1132" d="M72 170l146 192q80 -68 155 -99t159 -31q216 0 216 194q0 258 -366 392v722h272v-554q186 -76 286 -219t100 -335q0 -218 -130 -338t-368 -120q-298 0 -470 196z" />
<glyph unicode="&#x297;" horiz-adv-x="1000" d="M70 322q0 380 140 588t396 208q96 0 186 -28t158 -80l-102 -212q-144 72 -246 72q-254 0 -254 -534q0 -276 67 -401t213 -125q124 0 236 70l98 -210q-66 -52 -156 -81t-190 -29q-274 0 -410 190t-136 572z" />
<glyph unicode="&#x298;" horiz-adv-x="1712" d="M96 762q0 248 92 425t263 270t405 93t405 -93t263 -270t92 -425t-92 -425t-263 -270t-405 -93t-405 93t-263 270t-92 425zM380 762q0 -258 125 -400t351 -142t351 142t125 400t-125 400t-351 142t-351 -142t-125 -400zM688 766q0 76 44 118t124 42q78 0 123 -43t45 -115 q0 -76 -44 -119t-124 -43q-78 0 -123 43t-45 117z" />
<glyph unicode="&#x299;" horiz-adv-x="1134" d="M148 0v1092h270h182q190 0 294 -84t104 -238q0 -138 -132 -192q200 -66 200 -236q0 -164 -107 -253t-305 -89h-358h-148zM418 238h250q122 0 122 98q0 106 -136 106h-236v-204zM418 670h182q122 0 122 92q0 48 -33 69t-103 21h-168v-182z" />
<glyph unicode="&#x29a;" horiz-adv-x="1146" d="M64 328q0 100 57 163t147 91q-76 34 -118 92t-42 134q0 158 123 234t315 76q522 0 522 -572q0 -286 -134 -428t-404 -142q-220 0 -343 91t-123 261zM342 344q0 -72 57 -106t145 -34q130 0 188 81t58 265q0 182 -56 264t-178 82q-82 0 -126 -33t-44 -95q0 -60 43 -88 t133 -28h100v-192h-112q-108 0 -158 -24t-50 -92z" />
<glyph unicode="&#x29b;" horiz-adv-x="1354" d="M88 546q0 270 152 418t432 148q86 0 154 -14q22 136 116 208t246 72q52 0 94 -8v-218q-66 6 -96 6q-70 0 -104 -35t-34 -107v-216h-78q-162 72 -302 72q-152 0 -227 -80t-75 -246q0 -164 76 -244t230 -80q54 0 110 10v192h-190v238h462v-586q-72 -46 -173 -71t-209 -25 q-280 0 -432 147t-152 419z" />
<glyph unicode="&#x29c;" horiz-adv-x="1244" d="M148 0v1092h272v-418h404v418h272v-1092h-272v434h-404v-434h-272z" />
<glyph unicode="&#x29d;" horiz-adv-x="672" d="M-138 -168q0 128 80 207t210 79q54 0 100 -18v992h272v-1092v-54v-10l234 -156l-98 -134l-168 112q-40 -96 -123 -147t-203 -51q-146 0 -225 71t-79 201zM76 -150q0 -80 74 -80q48 0 74 32t30 102q-54 26 -102 26q-76 0 -76 -80zM226 1388q0 74 43 115t119 41t119 -41 t43 -113q0 -74 -43 -115t-119 -41t-119 41t-43 113z" />
<glyph unicode="&#x29e;" horiz-adv-x="1130" d="M12 1092h310l278 -430l114 136v294h272v-1482h-272v842l-362 -452h-310l386 458z" />
<glyph unicode="&#x29f;" horiz-adv-x="918" d="M144 0v1092h272v-850h466v-242h-738z" />
<glyph unicode="&#x2a0;" horiz-adv-x="1162" d="M78 544q0 274 104 424t292 150q84 0 154 -30t118 -86v284q0 288 310 288q92 0 166 -30l-38 -216q-64 12 -94 12q-38 0 -55 -17t-17 -57v-300v-900v-480h-272v528q-98 -140 -274 -140q-188 0 -291 149t-103 421zM356 554q0 -328 204 -328q52 0 96 22t90 70v466 q-38 44 -88 67t-106 23q-196 0 -196 -320z" />
<glyph unicode="&#x2a1;" horiz-adv-x="1128" d="M72 1374q96 92 227 142t275 50q220 0 341 -114t121 -322q0 -186 -100 -332t-286 -230v-122h208v-204h-208v-242h-272v242h-200v204h200v276q366 120 366 392q0 194 -198 194q-78 0 -159 -31t-177 -99z" />
<glyph unicode="&#x2a2;" horiz-adv-x="1132" d="M92 1108q0 218 130 338t368 120q298 0 470 -196l-146 -192q-80 68 -155 99t-159 31q-216 0 -216 -194q0 -256 366 -392v-276h200v-204h-200v-242h-272v242h-208v204h208v108q-186 76 -286 219t-100 335z" />
<glyph unicode="&#x2a3;" horiz-adv-x="1904" d="M78 544q0 274 104 424t292 150q84 0 154 -30t118 -86v538h272v-448h86h728v-230l-512 -632h524v-230h-828h-244v156q-102 -182 -300 -182q-188 0 -291 149t-103 421zM356 554q0 -328 204 -328q52 0 96 22t90 70v466q-38 44 -88 67t-106 23q-196 0 -196 -320zM1018 232 l510 630h-510v-630z" />
<glyph unicode="&#x2a4;" horiz-adv-x="1968" d="M78 544q0 274 104 424t292 150q84 0 154 -30t118 -86v538h272v-448h86h736v-230l-344 -404q198 -24 311 -123t113 -303q0 -152 -75 -259t-200 -160t-275 -53q-114 0 -212 19t-188 65l94 210q136 -66 284 -66q138 0 216 63t78 187q0 238 -344 238h-100v192l334 394h-510 h-4v-862h-246v156q-102 -182 -300 -182q-188 0 -291 149t-103 421zM356 554q0 -328 204 -328q52 0 96 22t90 70v466q-38 44 -88 67t-106 23q-196 0 -196 -320z" />
<glyph unicode="&#x2a5;" horiz-adv-x="2102" d="M78 544q0 274 104 424t292 150q84 0 154 -30t118 -86v538h272v-448h86h728v-230l-514 -636h144l64 114q72 130 151 188t183 58q118 0 184 -67t66 -189q0 -158 -108 -244t-304 -86h-148l-126 -226l-164 86l78 140h-322h-244v156q-102 -182 -300 -182q-188 0 -291 149 t-103 421zM356 554q0 -328 204 -328q52 0 96 22t90 70v466q-38 44 -88 67t-106 23q-196 0 -196 -320zM1018 232l510 630h-510v-630zM1674 226h46q160 0 160 96q0 56 -56 56q-36 0 -66 -28t-68 -96z" />
<glyph unicode="&#x2a6;" horiz-adv-x="1570" d="M22 858v234h168v296h270v-298h458q76 26 184 26q100 0 200 -25t180 -69l-100 -216q-146 72 -284 72q-152 0 -152 -86q0 -38 32 -63t100 -41l142 -34q152 -36 221 -110t69 -204q0 -366 -678 -366q-338 0 -491 95t-153 307v482h-166zM460 436q0 -84 43 -133t140 -71 t263 -22q182 0 263 26t81 82q0 38 -30 61t-102 41l-142 34q-154 36 -222 110t-68 202q0 44 10 94h-236v-424z" />
<glyph unicode="&#x2a7;" horiz-adv-x="1302" d="M22 858v234h168v296h270v-296h298h90v82q0 190 111 295t311 105q68 0 122 -10v-236q-58 8 -122 8q-152 0 -152 -162v-82v-1092v-58q0 -190 -111 -295t-311 -105q-68 0 -122 10v236q58 -8 122 -8q152 0 152 162v82v834h-168h-220v-472q0 -84 37 -122t117 -38q56 0 116 16 l42 -230q-100 -28 -202 -28q-382 0 -382 352v522h-166z" />
<glyph unicode="&#x2a8;" horiz-adv-x="1584" d="M22 858v234h168v296h270v-300h512q84 30 182 30q92 0 179 -26t151 -72l-96 -210q-142 62 -238 62q-112 0 -173 -86t-61 -242q0 -96 20 -158q60 84 104 134t106 84t144 34q132 0 204 -79t72 -221q0 -172 -107 -267t-303 -95q-172 0 -300 88q-134 -80 -304 -80 q-180 0 -272 89t-92 263v522h-166zM460 386q0 -94 40 -131t128 -37q50 0 82 8q-72 132 -72 304q0 192 76 332h-254v-476zM1046 246q50 -26 122 -26q74 0 115 33t41 91q0 40 -19 63t-55 23q-52 0 -90 -36t-82 -102z" />
<glyph unicode="&#x2a9;" horiz-adv-x="1804" d="M10 858v234h168v82q0 190 115 295t327 105q68 0 122 -10v-236q-58 8 -122 8q-172 0 -172 -162v-82h256h192h122v-138q128 164 328 164q154 0 239 -94t85 -264v-760v-100q0 -162 -89 -251t-251 -89q-146 0 -258 78l86 200q96 -40 150 -40q46 0 68 29t22 93v514v286 q0 146 -158 146q-54 0 -100 -18t-96 -56v-792h-272v858h-248h-76v-858h-272v858h-166z" />
<glyph unicode="&#x2aa;" horiz-adv-x="1402" d="M140 376v1164h272v-1104q0 -84 37 -133t119 -71t222 -22q154 0 223 26t69 82q0 38 -30 61t-102 41l-142 34q-154 36 -222 110t-68 202q0 166 109 258t307 92q100 0 200 -25t180 -69l-100 -216q-148 72 -284 72q-152 0 -152 -86q0 -38 32 -63t100 -41l142 -34 q152 -36 221 -110t69 -204q0 -366 -618 -366q-308 0 -446 95t-138 307z" />
<glyph unicode="&#x2ab;" horiz-adv-x="1302" d="M144 0v1540h272v-448h86h728v-230l-512 -632h524v-230h-828h-270zM416 232l510 630h-492h-18v-630z" />
<glyph unicode="&#x2ac;" horiz-adv-x="1152" d="M42 638h214l106 -440l106 440h218l110 -440l102 440h212l-198 -638h-232l-104 420l-100 -420h-232zM42 1448h214l106 -440l106 440h218l110 -440l102 440h212l-198 -638h-232l-104 420l-100 -420h-232z" />
<glyph unicode="&#x2ad;" horiz-adv-x="1080" d="M116 0h212v394h424v-394h212v638h-848v-638zM116 810h212v394h424v-394h212v638h-848v-638z" />
<glyph unicode="&#x2ae;" horiz-adv-x="1210" d="M-44 1080q74 30 166 30q330 0 330 -308v-430q0 -146 152 -146q56 0 100 21t90 67v778h272v-1506h-272v532q-114 -144 -296 -144q-152 0 -235 94t-83 264v360v90q0 50 -18 72t-58 22q-46 0 -110 -16z" />
<glyph unicode="&#x2af;" horiz-adv-x="1210" d="M-44 1056q74 30 166 30q330 0 330 -308v-406q0 -146 152 -146q56 0 100 21t90 67v778h272v-1106v-112q0 -40 17 -57t55 -17q40 0 94 10l38 -216q-74 -30 -166 -30q-310 0 -310 288v266q-114 -144 -296 -144q-148 0 -232 90t-86 254v14v426q0 50 -18 72t-58 22 q-46 0 -110 -16z" />
<glyph unicode="&#x2b0;" horiz-adv-x="1058" d="M164 614v1170h228v-420q100 104 248 104q128 0 196 -72t68 -204v-578h-228v542q0 52 -31 76t-95 24q-84 0 -158 -50v-592h-228z" />
<glyph unicode="&#x2b1;" horiz-adv-x="1058" d="M164 614v896v82q0 222 256 222q76 0 138 -24l-32 -182q-56 8 -78 8q-30 0 -43 -10t-13 -34v-208q100 104 248 104q128 0 196 -72t68 -204v-578h-228v542q0 52 -31 76t-95 24q-84 0 -158 -50v-592h-228z" />
<glyph unicode="&#x2b2;" horiz-adv-x="556" d="M-70 460q98 32 147 62t68 71t19 111v744h228v-752q0 -118 -35 -194t-117 -129t-234 -99zM142 1672q0 60 36 94t100 34t100 -34t36 -92q0 -62 -36 -94t-100 -32q-62 0 -99 33t-37 91z" />
<glyph unicode="&#x2b3;" horiz-adv-x="736" d="M164 614v834h206v-138q74 154 230 154q54 0 96 -18l-42 -214q-44 14 -104 14q-56 0 -93 -17t-65 -53v-562h-228z" />
<glyph unicode="&#x2b4;" horiz-adv-x="736" d="M40 618l44 212q44 -14 104 -14q54 0 91 16t65 50v566h228v-834h-206v136q-72 -152 -228 -152q-58 0 -98 20z" />
<glyph unicode="&#x2b5;" horiz-adv-x="694" d="M40 618l44 212q44 -14 104 -14q54 0 91 16t65 50v566h228v-834v-74q0 -32 14 -45t46 -13q48 0 90 10l32 -184q-66 -26 -138 -26q-272 0 -272 238v190q-70 -112 -206 -112q-58 0 -98 20z" />
<glyph unicode="&#x2b6;" horiz-adv-x="1000" d="M176 614v834h228v-254h88l192 254h272l-238 -284q82 -34 125 -100t43 -160q0 -140 -88 -215t-252 -75h-172h-198zM404 812h136q58 0 85 23t27 73q0 96 -106 96h-142v-192z" />
<glyph unicode="&#x2b7;" horiz-adv-x="1346" d="M52 1448h228l140 -608l138 608h232l144 -612l134 612h226l-240 -834h-244l-138 576l-132 -576h-246z" />
<glyph unicode="&#x2b8;" horiz-adv-x="908" d="M48 1448h230l178 -604l176 604h228l-264 -774q-52 -152 -162 -245t-304 -149l-78 190q114 36 178 70t104 80z" />
<glyph unicode="&#x2b9;" horiz-adv-x="446" d="M80 954v20l74 522h252v-20l-142 -522h-184z" />
<glyph unicode="&#x2ba;" horiz-adv-x="780" d="M80 954v20l74 522h252v-20l-142 -522h-184zM414 954v20l74 522h252v-20l-142 -522h-184z" />
<glyph unicode="&#x2bb;" horiz-adv-x="424" d="M64 1156q0 112 62 208t202 194l96 -104q-64 -68 -90 -134t-26 -162q0 -72 4 -116h-244q-4 44 -4 114z" />
<glyph unicode="&#x2bc;" horiz-adv-x="424" d="M0 1128q64 68 90 134t26 162q0 72 -4 116h244q4 -44 4 -114q0 -112 -62 -208t-202 -194z" />
<glyph unicode="&#x2bd;" horiz-adv-x="424" d="M64 1426q0 70 4 114h244q-4 -44 -4 -116q0 -96 26 -162t90 -134l-96 -104q-140 98 -202 194t-62 208z" />
<glyph unicode="&#x2be;" horiz-adv-x="292" d="M20 1200v130q106 0 106 110t-106 110v130q130 0 201 -63t71 -177t-71 -177t-201 -63z" />
<glyph unicode="&#x2bf;" horiz-adv-x="292" d="M0 1440q0 114 71 177t201 63v-130q-106 0 -106 -110t106 -110v-130q-130 0 -201 63t-71 177z" />
<glyph unicode="&#x2c0;" horiz-adv-x="996" d="M92 1654q80 72 187 111t225 39q182 0 281 -87t99 -245q0 -142 -81 -253t-233 -177v-428h-230v554q298 96 298 290q0 130 -158 130q-64 0 -129 -23t-143 -73z" />
<glyph unicode="&#x2c1;" horiz-adv-x="998" d="M112 1454q0 168 107 259t301 91q246 0 386 -154l-122 -158q-66 50 -126 73t-128 23q-172 0 -172 -130q0 -92 73 -163t223 -127v-554h-228v418q-152 58 -233 168t-81 254z" />
<glyph unicode="&#x2c2;" horiz-adv-x="778" d="M84 1168l444 456l166 -156l-312 -300l312 -298l-166 -156z" />
<glyph unicode="&#x2c3;" horiz-adv-x="778" d="M84 870l312 298l-312 300l166 156l444 -456l-444 -454z" />
<glyph unicode="&#x2c4;" horiz-adv-x="960" d="M48 868l432 714l432 -714l-174 -108l-258 436l-254 -436z" />
<glyph unicode="&#x2c5;" horiz-adv-x="960" d="M48 1468l174 108l258 -436l254 436l178 -108l-432 -714z" />
<glyph unicode="&#x2c6;" horiz-adv-x="1000" d="M172 1230v20l204 318h248l204 -318v-20h-190l-140 176l-142 -176h-184z" />
<glyph unicode="&#x2c7;" horiz-adv-x="1000" d="M172 1548v20h190l142 -176l140 176h184v-20l-204 -318h-248z" />
<glyph unicode="&#x2c8;" horiz-adv-x="404" d="M98 1230v448h208v-448h-208z" />
<glyph unicode="&#x2c9;" horiz-adv-x="1000" d="M172 1272v184h656v-184h-656z" />
<glyph unicode="&#x2ca;" horiz-adv-x="1000" d="M352 1230v20l190 318h282v-20l-264 -318h-208z" />
<glyph unicode="&#x2cb;" horiz-adv-x="1000" d="M200 1548v20h282l174 -318v-20h-208z" />
<glyph unicode="&#x2cc;" horiz-adv-x="404" d="M98 -160h208v-448h-208v448z" />
<glyph unicode="&#x2cd;" horiz-adv-x="812" d="M78 -158h656v-184h-656v184z" />
<glyph unicode="&#x2ce;" horiz-adv-x="730" d="M78 -168h302l272 -266v-24h-228l-346 266v24z" />
<glyph unicode="&#x2cf;" horiz-adv-x="748" d="M78 -434l290 266h302v-24l-364 -266h-228v24z" />
<glyph unicode="&#x2d0;" horiz-adv-x="608" d="M78 0l206 402h40l206 -402h-452zM78 1092h452l-206 -402h-40z" />
<glyph unicode="&#x2d1;" horiz-adv-x="608" d="M78 1092h452l-206 -402h-40z" />
<glyph unicode="&#x2d2;" horiz-adv-x="552" d="M120 352v130q106 0 106 110t-106 110v130q130 0 201 -63t71 -177t-71 -177t-201 -63z" />
<glyph unicode="&#x2d3;" horiz-adv-x="552" d="M160 592q0 114 71 177t201 63v-130q-106 0 -106 -110t106 -110v-130q-130 0 -201 63t-71 177z" />
<glyph unicode="&#x2d4;" horiz-adv-x="868" d="M138 580v160h592v-160h-212v-242h-168v242h-212z" />
<glyph unicode="&#x2d5;" horiz-adv-x="868" d="M138 392v160h212v242h168v-242h212v-160h-592z" />
<glyph unicode="&#x2d6;" horiz-adv-x="1018" d="M100 514v200h306v312h206v-312h306v-200h-306v-312h-206v312h-306z" />
<glyph unicode="&#x2d7;" horiz-adv-x="1018" d="M100 514v200h818v-200h-818z" />
<glyph unicode="&#x2d8;" horiz-adv-x="1000" d="M176 1560h156q20 -146 170 -146q152 0 172 146h150q-6 -166 -90 -253t-234 -87t-234 87t-90 253z" />
<glyph unicode="&#x2d9;" horiz-adv-x="1000" d="M338 1366q0 74 43 115t119 41t119 -41t43 -113q0 -74 -43 -115t-119 -41t-119 41t-43 113z" />
<glyph unicode="&#x2da;" horiz-adv-x="1000" d="M228 1440q0 114 71 177t201 63t201 -63t71 -177t-71 -177t-201 -63t-201 63t-71 177zM394 1440q0 -110 106 -110t106 110t-106 110t-106 -110z" />
<glyph unicode="&#x2db;" horiz-adv-x="1000" d="M110 -254q0 88 56 160t156 112l172 -18q-162 -96 -162 -204q0 -80 92 -80q54 0 112 26l60 -140q-48 -30 -110 -46t-126 -16q-118 0 -184 54t-66 152z" />
<glyph unicode="&#x2dc;" horiz-adv-x="1000" d="M130 1234q2 142 62 221t166 79q54 0 93 -18t91 -52q30 -22 53 -33t47 -11q66 0 78 110h150q-2 -142 -62 -221t-166 -79q-54 0 -93 18t-91 52q-30 22 -53 33t-47 11q-66 0 -78 -110h-150z" />
<glyph unicode="&#x2dd;" horiz-adv-x="1000" d="M234 1230v20l108 318h242v-20l-178 -318h-172zM544 1230v20l112 318h242v-20l-182 -318h-172z" />
<glyph unicode="&#x2de;" horiz-adv-x="412" d="M-152 938l408 60l-8 -86q-2 -24 -2 -54q0 -74 30 -109t94 -35h42l-42 -222q-148 0 -239 71t-115 203l-156 -22z" />
<glyph unicode="&#x2df;" horiz-adv-x="800" d="M138 1372l136 122l-136 124l118 120l144 -130l144 130l118 -120l-136 -124l136 -122l-118 -122l-144 130l-144 -130z" />
<glyph unicode="&#x2e0;" horiz-adv-x="916" d="M48 1448h232l180 -406l178 406h230l-312 -626l76 -174q28 -62 39 -102t11 -76q0 -92 -59 -141t-165 -49t-163 49t-57 141q0 38 10 77t38 101l76 170zM414 492q0 -62 44 -62q42 0 42 62q0 48 -38 124l-4 10l-6 -10q-38 -76 -38 -124z" />
<glyph unicode="&#x2e1;" horiz-adv-x="614" d="M160 836v948h228v-894q0 -44 19 -64t59 -20q16 0 56 4l16 -192q-62 -14 -134 -14q-244 0 -244 232z" />
<glyph unicode="&#x2e2;" horiz-adv-x="832" d="M60 682l78 184q120 -70 258 -70t138 60q0 26 -25 43t-81 29l-116 26q-126 28 -182 84t-56 156q0 128 90 200t252 72q84 0 166 -19t148 -55l-84 -180q-120 54 -232 54q-120 0 -120 -50q0 -46 104 -70l118 -26q124 -26 180 -84t56 -158q0 -134 -93 -208t-263 -74 q-94 0 -182 23t-154 63z" />
<glyph unicode="&#x2e3;" horiz-adv-x="892" d="M44 614l280 426l-266 408h246l146 -240l152 240h244l-278 -408l280 -426h-246l-160 258l-156 -258h-242z" />
<glyph unicode="&#x2e4;" horiz-adv-x="998" d="M112 1454q0 168 107 259t301 91q246 0 386 -154l-122 -158q-66 50 -126 73t-128 23q-172 0 -172 -130q0 -92 73 -163t223 -127v-554h-228v418q-152 58 -233 168t-81 254z" />
<glyph unicode="&#x2e5;" horiz-adv-x="856" d="M48 1316v224h664v-1540h-238v1316h-426z" />
<glyph unicode="&#x2e6;" horiz-adv-x="856" d="M48 986v224h426v330h238v-554v-986h-238v986h-426z" />
<glyph unicode="&#x2e7;" horiz-adv-x="856" d="M48 658v224h426v658h238v-882v-658h-238v658h-426z" />
<glyph unicode="&#x2e8;" horiz-adv-x="856" d="M48 330v224h426v986h238v-1210v-330h-238v330h-426z" />
<glyph unicode="&#x2e9;" horiz-adv-x="856" d="M48 0v224h426v1316h238v-1540h-664z" />
<glyph unicode="&#x2ea;" horiz-adv-x="876" d="M144 0v1092h238v-868h446v-224h-684z" />
<glyph unicode="&#x2eb;" horiz-adv-x="876" d="M144 0v658v434h238v-434h446v-224h-446v-434h-238z" />
<glyph unicode="&#x2ec;" horiz-adv-x="812" d="M78 -120h190l140 -176l142 176h184v-20l-204 -318h-248l-204 318v20z" />
<glyph unicode="&#x2ed;" horiz-adv-x="1036" d="M146 882v202h744v-202h-744zM146 1246v202h744v-202h-744z" />
<glyph unicode="&#x2ee;" horiz-adv-x="786" d="M0 1128q64 68 90 134t26 162q0 72 -4 116h244q4 -44 4 -114q0 -112 -62 -208t-202 -194zM362 1128q64 68 90 134t26 162q0 72 -4 116h244q4 -44 4 -114q0 -112 -62 -208t-202 -194z" />
<glyph unicode="&#x2ef;" horiz-adv-x="960" d="M48 146l174 108l258 -436l254 436l178 -108l-432 -714z" />
<glyph unicode="&#x2f0;" horiz-adv-x="960" d="M48 -454l432 714l432 -714l-174 -108l-258 436l-254 -436z" />
<glyph unicode="&#x2f1;" horiz-adv-x="778" d="M84 -154l444 456l166 -156l-312 -300l312 -298l-166 -156z" />
<glyph unicode="&#x2f2;" horiz-adv-x="778" d="M84 146l166 156l444 -456l-444 -454l-166 156l312 298z" />
<glyph unicode="&#x2f3;" horiz-adv-x="700" d="M78 -346q0 114 71 177t201 63t201 -63t71 -177t-71 -177t-201 -63t-201 63t-71 177zM244 -346q0 -110 106 -110t106 110t-106 110t-106 -110z" />
<glyph unicode="&#x2f4;" horiz-adv-x="748" d="M136 720v20h282l174 -318v-20h-208z" />
<glyph unicode="&#x2f5;" horiz-adv-x="940" d="M136 720v20h242l96 -318v-20h-172zM450 720v20h242l92 -318v-20h-172z" />
<glyph unicode="&#x2f6;" horiz-adv-x="956" d="M156 402v20l108 318h242v-20l-178 -318h-172zM466 402v20l112 318h242v-20l-182 -318h-172z" />
<glyph unicode="&#x2f7;" horiz-adv-x="896" d="M78 -460q2 142 62 221t166 79q54 0 93 -18t91 -52q30 -22 53 -33t47 -11q66 0 78 110h150q-2 -142 -62 -221t-166 -79q-54 0 -93 18t-91 52q-30 22 -53 33t-47 11q-66 0 -78 -110h-150z" />
<glyph unicode="&#x2f8;" horiz-adv-x="596" d="M158 770q0 62 37 96t103 34t103 -35t37 -93q0 -62 -37 -97t-103 -35t-103 35t-37 95zM158 1266q0 62 37 96t103 34t103 -35t37 -93q0 -62 -37 -97t-103 -35t-103 35t-37 95z" />
<glyph unicode="&#x2f9;" horiz-adv-x="760" d="M164 908v540h442v-196h-234v-344h-208z" />
<glyph unicode="&#x2fa;" horiz-adv-x="760" d="M154 1252v196h442v-540h-208v344h-234z" />
<glyph unicode="&#x2fb;" horiz-adv-x="760" d="M164 0v540h208v-344h234v-196h-442z" />
<glyph unicode="&#x2fc;" horiz-adv-x="760" d="M154 0v196h234v344h208v-540h-442z" />
<glyph unicode="&#x2fd;" horiz-adv-x="1002" d="M76 -40h212v-192h426v192h212v-412h-638h-212v412z" />
<glyph unicode="&#x2fe;" horiz-adv-x="962" d="M76 -40h212v-192h638v-220h-850v412z" />
<glyph unicode="&#x2ff;" horiz-adv-x="1316" d="M88 -352l220 190h220v-24l-128 -94h820v-168h-820l128 -94v-24h-220l-220 190v24z" />
<glyph unicode="&#x300;" d="M-860 1548v20h282l174 -318v-20h-208z" />
<glyph unicode="&#x301;" d="M-708 1230v20l190 318h282v-20l-264 -318h-208z" />
<glyph unicode="&#x302;" d="M-888 1230v20l204 318h248l204 -318v-20h-190l-142 176l-140 -176h-184z" />
<glyph unicode="&#x303;" d="M-930 1234q2 142 62 221t166 79q54 0 93 -18t91 -52q30 -22 53 -33t47 -11q66 0 78 110h150q-2 -142 -62 -221t-166 -79q-54 0 -93 18t-91 52q-30 22 -53 33t-47 11q-66 0 -78 -110h-150z" />
<glyph unicode="&#x304;" d="M-888 1272v184h656v-184h-656z" />
<glyph unicode="&#x305;" d="M-1002 1610v220h890v-220h-890z" />
<glyph unicode="&#x306;" d="M-884 1560h156q20 -146 170 -146q152 0 172 146h150q-6 -166 -90 -253t-234 -87t-234 87t-90 253z" />
<glyph unicode="&#x307;" d="M-722 1366q0 74 43 115t119 41t119 -41t43 -113q0 -74 -43 -115t-119 -41t-119 41t-43 113z" />
<glyph unicode="&#x308;" d="M-900 1368q0 68 38 106t106 38t107 -38t39 -104q0 -68 -38 -105t-108 -37q-68 0 -106 38t-38 102zM-510 1368q0 68 38 106t106 38t107 -38t39 -104q0 -68 -38 -105t-108 -37q-68 0 -106 38t-38 102z" />
<glyph unicode="&#x309;" d="M-776 1572q100 62 232 62q100 0 155 -42t55 -118q0 -52 -20 -78t-60 -50q-28 -18 -43 -34t-15 -42q0 -16 4 -40h-184q-4 24 -4 46q0 48 18 74t48 48q36 26 36 50q0 32 -46 32q-50 0 -118 -34z" />
<glyph unicode="&#x30a;" d="M-832 1440q0 114 71 177t201 63t201 -63t71 -177t-71 -177t-201 -63t-201 63t-71 177zM-666 1440q0 -110 106 -110t106 110t-106 110t-106 -110z" />
<glyph unicode="&#x30b;" d="M-826 1230v20l108 318h242v-20l-178 -318h-172zM-516 1230v20l112 318h242v-20l-182 -318h-172z" />
<glyph unicode="&#x30c;" d="M-888 1548v20h190l140 -176l142 176h184v-20l-204 -318h-248z" />
<glyph unicode="&#x30d;" d="M-664 1230v448h208v-448h-208z" />
<glyph unicode="&#x30e;" d="M-804 1230v448h208v-448h-208zM-524 1230v448h208v-448h-208z" />
<glyph unicode="&#x30f;" d="M-934 1548v20h242l96 -318v-20h-172zM-620 1548v20h242l92 -318v-20h-172z" />
<glyph unicode="&#x310;" d="M-908 1560h148q26 -162 202 -162t204 162h142q-6 -162 -97 -251t-251 -89t-251 89t-97 251zM-688 1612q0 60 34 93t96 33t96 -33t34 -91q0 -60 -34 -92t-96 -32q-60 0 -95 33t-35 89z" />
<glyph unicode="&#x311;" d="M-884 1242q6 166 90 253t234 87t234 -87t90 -253h-156q-20 146 -170 146q-152 0 -172 -146h-150z" />
<glyph unicode="&#x312;" d="M-698 1306q0 96 57 180t183 172l98 -106q-50 -54 -70 -109t-20 -135q0 -48 8 -100h-248q-8 52 -8 98z" />
<glyph unicode="&#x313;" d="M-754 1272q50 54 70 109t20 135q0 48 -8 100h248q8 -52 8 -98q0 -96 -57 -180t-183 -172z" />
<glyph unicode="&#x314;" d="M-704 1518q0 46 8 98h248q-8 -52 -8 -100q0 -80 20 -135t70 -109l-98 -106q-126 88 -183 172t-57 180z" />
<glyph unicode="&#x315;" d="M-328 1216q38 52 51 99t13 133q0 76 -8 134h248q8 -50 8 -106q0 -106 -43 -181t-161 -173z" />
<glyph unicode="&#x316;" d="M-856 -168h302l272 -266v-24h-228l-346 266v24z" />
<glyph unicode="&#x317;" d="M-852 -434l290 266h302v-24l-364 -266h-228v24z" />
<glyph unicode="&#x318;" d="M-834 -266h346v176h168v-512h-168v176h-346v160z" />
<glyph unicode="&#x319;" d="M-800 -90h168v-176h346v-160h-346v-176h-168v512z" />
<glyph unicode="&#x31a;" d="M-848 1468v160h532v-398h-168v238h-364z" />
<glyph unicode="&#x31b;" d="M-288 940l2 152q88 0 121 33t33 123q0 50 -10 122h226q10 -60 10 -118q0 -116 -37 -184t-120 -98t-225 -30z" />
<glyph unicode="&#x31c;" d="M-732 -346q0 114 71 177t201 63v-130q-106 0 -106 -110t106 -110v-130q-130 0 -201 63t-71 177z" />
<glyph unicode="&#x31d;" d="M-856 -332h212v242h168v-242h212v-160h-592v160z" />
<glyph unicode="&#x31e;" d="M-856 -200h592v-160h-212v-242h-168v242h-212v160z" />
<glyph unicode="&#x31f;" d="M-816 -266h172v176h168v-176h172v-160h-172v-176h-168v176h-172v160z" />
<glyph unicode="&#x320;" d="M-808 -264h496v-164h-496v164z" />
<glyph unicode="&#x321;" d="M-340 -406l40 230q54 -14 106 -14q38 0 56 22t18 72v164h276v-184q0 -320 -332 -320q-90 0 -164 30z" />
<glyph unicode="&#x322;" d="M-156 68h276v-174q0 -46 17 -65t55 -19q48 0 98 12l40 -228q-74 -30 -164 -30q-322 0 -322 310v194z" />
<glyph unicode="&#x323;" d="M-722 -302q0 74 43 115t119 41t119 -41t43 -113q0 -74 -43 -115t-119 -41t-119 41t-43 113z" />
<glyph unicode="&#x324;" d="M-900 -314q0 68 38 106t106 38t107 -38t39 -104q0 -68 -38 -105t-108 -37q-68 0 -106 38t-38 102zM-510 -314q0 68 38 106t106 38t107 -38t39 -104q0 -68 -38 -105t-108 -37q-68 0 -106 38t-38 102z" />
<glyph unicode="&#x325;" d="M-832 -346q0 114 71 177t201 63t201 -63t71 -177t-71 -177t-201 -63t-201 63t-71 177zM-666 -346q0 -110 106 -110t106 110t-106 110t-106 -110z" />
<glyph unicode="&#x326;" d="M-770 -476q50 54 70 109t20 135q0 48 -8 100h248q8 -52 8 -98q0 -96 -57 -180t-183 -172z" />
<glyph unicode="&#x327;" d="M-816 -428l42 124q106 -34 172 -34q98 0 98 62q0 58 -86 58q-42 0 -78 -14l-60 68l84 204l176 -12l-96 -130q28 4 42 4q108 0 167 -45t59 -127q0 -100 -72 -155t-204 -55q-136 0 -244 52z" />
<glyph unicode="&#x328;" d="M-790 -254q0 88 56 160t156 112l172 -18q-162 -96 -162 -204q0 -80 92 -80q54 0 112 26l60 -140q-48 -30 -110 -46t-126 -16q-118 0 -184 54t-66 152z" />
<glyph unicode="&#x329;" d="M-664 -160h208v-448h-208v448z" />
<glyph unicode="&#x32a;" d="M-856 -160h592v-160v-282h-168v282h-256v-282h-168v406v36z" />
<glyph unicode="&#x32b;" d="M-940 -174h134q10 -100 88 -100q80 0 90 100h96h44q10 -100 88 -100q80 0 90 100h128q0 -126 -58 -195t-162 -69q-112 0 -160 104q-46 -104 -158 -104q-106 0 -163 69t-57 195z" />
<glyph unicode="&#x32c;" d="M-924 -168h202l166 -152l164 152h196v-24l-234 -266h-260l-234 266v24z" />
<glyph unicode="&#x32d;" d="M-944 -434l234 266h260l234 -266v-24h-202l-166 152l-164 -152h-196v24z" />
<glyph unicode="&#x32e;" d="M-884 -114h156q20 -146 170 -146q152 0 172 146h150q-6 -166 -90 -253t-234 -87t-234 87t-90 253z" />
<glyph unicode="&#x32f;" d="M-884 -458q6 166 90 253t234 87t234 -87t90 -253h-156q-20 146 -170 146q-152 0 -172 -146h-150z" />
<glyph unicode="&#x330;" d="M-930 -456q2 142 62 221t166 79q54 0 93 -18t91 -52q30 -22 53 -33t47 -11q66 0 78 110h150q-2 -142 -62 -221t-166 -79q-54 0 -93 18t-91 52q-30 22 -53 33t-47 11q-66 0 -78 -110h-150z" />
<glyph unicode="&#x331;" d="M-888 -192h656v-184h-656v184z" />
<glyph unicode="&#x332;" d="M-1004 -206h890v-220h-890v220z" />
<glyph unicode="&#x333;" d="M-1004 -154h888v-180h-888v180zM-1004 -428h888v-180h-888v180z" />
<glyph unicode="&#x334;" d="M-930 382q2 142 62 221t166 79q54 0 93 -18t91 -52q30 -22 53 -33t47 -11q66 0 78 110h150q-2 -142 -62 -221t-166 -79q-54 0 -93 18t-91 52q-30 22 -53 33t-47 11q-66 0 -78 -110h-150z" />
<glyph unicode="&#x335;" d="M-920 466v184h720v-184h-720z" />
<glyph unicode="&#x336;" d="M-1366 468v184h1612v-184h-1612z" />
<glyph unicode="&#x337;" d="M-1108 0l884 1112h206v-20l-884 -1112h-206v20z" />
<glyph unicode="&#x338;" d="M-1396 0l1144 1468h216v-20l-1144 -1468h-216v20z" />
<glyph unicode="&#x339;" d="M-660 -106q130 0 201 -63t71 -177t-71 -177t-201 -63v130q106 0 106 110t-106 110v130z" />
<glyph unicode="&#x33a;" d="M-856 -90h168v-282h256v282h168v-406v-36h-592v160v282z" />
<glyph unicode="&#x33b;" d="M-796 -114h472v-308v-156h-308h-164v308v156zM-632 -270v-152h144v152h-144z" />
<glyph unicode="&#x33c;" d="M-940 -428q0 126 57 195t163 69q112 0 158 -104q48 104 160 104q104 0 162 -69t58 -195h-134q-10 100 -88 100q-80 0 -90 -100h-96h-44q-10 100 -88 100q-80 0 -90 -100h-128z" />
<glyph unicode="&#x33d;" d="M-822 1372l136 122l-136 124l118 120l144 -130l144 130l118 -120l-136 -124l136 -122l-118 -122l-144 130l-144 -130z" />
<glyph unicode="&#x33e;" d="M-702 1222v150q110 12 110 78q0 24 -11 44t-33 48q-32 46 -49 82t-17 90q0 104 76 165t216 63v-150q-102 -12 -102 -78q0 -24 11 -44t33 -48q32 -46 49 -82t17 -90q0 -106 -79 -166t-221 -62z" />
<glyph unicode="&#x33f;" d="M-1002 1640v180h888v-180h-888zM-1002 1914v180h888v-180h-888z" />
<glyph unicode="&#x340;" d="M-860 1548v20h282l174 -318v-20h-208z" />
<glyph unicode="&#x341;" d="M-708 1230v20l190 318h282v-20l-264 -318h-208z" />
<glyph unicode="&#x342;" d="M-370 1234q2 142 62 221t166 79q54 0 93 -18t91 -52q30 -22 53 -33t47 -11q66 0 78 110h150q-2 -142 -62 -221t-166 -79q-54 0 -93 18t-91 52q-30 22 -53 33t-47 11q-66 0 -78 -110h-150z" />
<glyph unicode="&#x344;" d="M-1008 1368q0 68 38 106t106 38t107 -38t39 -104q0 -68 -38 -105t-108 -37q-68 0 -106 38t-38 102zM-666 1230v20l70 318h282v-20l-144 -318h-208zM-298 1368q0 68 38 106t106 38t107 -38t39 -104q0 -68 -38 -105t-108 -37q-68 0 -106 38t-38 102z" />
<glyph unicode="&#x346;" d="M-856 1210v406v36h592v-160v-282h-168v282h-256v-282h-168z" />
<glyph unicode="&#x347;" d="M-802 -134h484v-158h-484v158zM-802 -400h484v-158h-484v158z" />
<glyph unicode="&#x348;" d="M-804 -160h208v-448h-208v448zM-524 -160h208v-448h-208v448z" />
<glyph unicode="&#x349;" d="M-848 -148h532v-350h-168v190h-364v160z" />
<glyph unicode="&#x34a;" d="M-960 1280q2 138 67 213t179 75q74 0 142 -34l70 134l112 -60l-72 -134q32 -14 56 -14q70 0 84 104h162q-2 -136 -68 -212t-178 -76q-66 0 -142 34l-70 -132l-112 60l72 134q-32 14 -56 14q-70 0 -84 -106h-162z" />
<glyph unicode="&#x34b;" d="M-944 1472q4 134 65 208t171 74q56 0 98 -17t92 -49q40 -22 61 -32t45 -10q68 0 80 104h156q-4 -134 -65 -208t-171 -74q-56 0 -98 17t-92 49q-40 22 -61 32t-45 10q-68 0 -80 -104h-156zM-696 1320q0 62 36 95t100 33t100 -34t36 -92q0 -62 -36 -95t-100 -33t-100 34 t-36 92zM-696 1900q0 62 36 95t100 33t100 -34t36 -92q0 -62 -36 -95t-100 -33t-100 34t-36 92z" />
<glyph unicode="&#x34c;" d="M-894 1244q2 114 57 177t149 63q48 0 83 -14t83 -42q28 -18 49 -27t41 -9q58 0 70 88h134q-2 -114 -56 -177t-148 -63q-48 0 -83 14t-83 42q-28 18 -49 27t-41 9q-58 0 -70 -88h-136zM-894 1506q2 114 57 177t149 63q48 0 83 -14t83 -42q28 -18 49 -27t41 -9q58 0 70 88 h134q-2 -114 -56 -177t-148 -63q-48 0 -83 14t-83 42q-28 18 -49 27t-41 9q-58 0 -70 -88h-136z" />
<glyph unicode="&#x34d;" d="M-1048 -352l220 190h200v-24l-134 -94h404l-134 94v24h200l220 -190v-24l-220 -190h-200v24l134 94h-404l134 -94v-24h-200l-220 190v24z" />
<glyph unicode="&#x34e;" d="M-782 -346l210 220h24l210 -220v-200h-24l-114 146v-208h-168v208l-114 -146h-24v200z" />
<glyph unicode="&#x34f;" />
<glyph unicode="&#x350;" d="M-766 1230v24l210 178l-210 178v24h232l220 -190v-24l-220 -190h-232z" />
<glyph unicode="&#x351;" d="M-732 1440q0 114 71 177t201 63v-130q-106 0 -106 -110t106 -110v-130q-130 0 -201 63t-71 177z" />
<glyph unicode="&#x352;" d="M-908 1384q6 162 97 251t251 89t251 -89t97 -251h-148q-28 162 -202 162q-178 0 -204 -162h-142zM-692 1330q0 60 34 92t96 32q60 0 95 -33t35 -89q0 -60 -34 -93t-96 -33t-96 33t-34 91z" />
<glyph unicode="&#x353;" d="M-822 -224l118 120l144 -130l144 130l118 -120l-136 -124l136 -122l-118 -122l-144 130l-144 -130l-118 122l136 122z" />
<glyph unicode="&#x354;" d="M-806 -352l220 190h232v-24l-210 -178l210 -178v-24h-232l-220 190v24z" />
<glyph unicode="&#x355;" d="M-766 -162h232l220 -190v-24l-220 -190h-232v24l210 178l-210 178v24z" />
<glyph unicode="&#x356;" d="M-1034 -162h232l220 -190v-24l-220 -190h-232v24l210 178l-210 178v24zM-538 -358l190 220h24l190 -220v-232h-24l-178 210l-178 -210h-24v232z" />
<glyph unicode="&#x357;" d="M-660 1200v130q106 0 106 110t-106 110v130q130 0 201 -63t71 -177t-71 -177t-201 -63z" />
<glyph unicode="&#x358;" d="M-282 1366q0 74 43 115t119 41t119 -41t43 -113q0 -74 -43 -115t-119 -41t-119 41t-43 113z" />
<glyph unicode="&#x359;" d="M-820 -344l40 124l168 -66l-12 182h128l-12 -182l168 66l40 -124l-178 -48l116 -142l-96 -74l-104 160l-102 -160l-94 74l116 142z" />
<glyph unicode="&#x35a;" d="M-1022 -334q0 114 71 177t201 63q120 0 190 -54q68 54 190 54q130 0 201 -63t71 -177t-71 -177t-201 -63q-122 0 -190 54q-70 -54 -190 -54q-130 0 -201 63t-71 177zM-856 -334q0 -110 106 -110t106 110t-106 110t-106 -110zM-476 -334q0 -110 106 -110t106 110t-106 110 t-106 -110z" />
<glyph unicode="&#x35b;" d="M-800 1362l136 314h158l-70 -160h256l-136 -314h-158l70 160h-256z" />
<glyph unicode="&#x35c;" d="M-604 -188l116 96q164 -176 490 -176q328 0 492 176l110 -96q-86 -132 -244 -205t-360 -73t-360 73t-244 205z" />
<glyph unicode="&#x35d;" d="M-604 1490l116 96q164 -176 490 -176q328 0 492 176l110 -96q-86 -132 -244 -205t-360 -73t-360 73t-244 205z" />
<glyph unicode="&#x35e;" d="M-732 1274v184h1464v-184h-1464z" />
<glyph unicode="&#x35f;" d="M-732 -190h1464v-184h-1464v184z" />
<glyph unicode="&#x360;" d="M-650 1234q4 148 97 230t261 82q82 0 155 -16t171 -48q88 -28 151 -43t129 -15q174 0 186 118h150q-4 -148 -97 -230t-261 -82q-82 0 -155 16t-171 48q-88 28 -151 43t-129 15q-174 0 -186 -118h-150z" />
<glyph unicode="&#x361;" d="M-604 1316q86 132 244 205t360 73t360 -73t244 -205l-116 -96q-164 176 -490 176q-328 0 -492 -176z" />
<glyph unicode="&#x362;" d="M-1104 -280h846l-134 94v24h200l220 -190v-24l-220 -190h-200v24l134 94h-846v168z" />
<glyph unicode="&#x363;" d="M-764 1368q0 84 66 122t212 40v8q0 80 -98 80q-58 0 -114 -22l-28 94q76 36 164 36q210 0 210 -180v-316h-120v58q-46 -68 -138 -68q-74 0 -114 39t-40 109zM-638 1378q0 -54 64 -54q48 0 88 38v88q-80 -2 -116 -19t-36 -53z" />
<glyph unicode="&#x364;" d="M-782 1472q0 122 59 188t167 66q104 0 162 -62t58 -174q0 -32 -4 -56h-306q18 -102 132 -102q62 0 118 26l44 -92q-76 -46 -182 -46q-118 0 -183 66t-65 186zM-646 1516h176q-2 50 -25 77t-63 27q-76 0 -88 -104z" />
<glyph unicode="&#x365;" d="M-632 1850q0 74 74 74q36 0 55 -19t19 -53q0 -74 -74 -74q-36 0 -55 19t-19 53zM-624 1230v484h134v-484h-134z" />
<glyph unicode="&#x366;" d="M-786 1472q0 126 59 190t169 64t168 -64t58 -190t-59 -190t-169 -64t-168 64t-58 190zM-648 1472q0 -144 88 -144q90 0 90 144t-88 144q-90 0 -90 -144z" />
<glyph unicode="&#x367;" d="M-766 1384v330h134v-320q0 -58 68 -58q42 0 78 34v344h134v-484h-120v64q-60 -76 -144 -76q-72 0 -111 43t-39 123z" />
<glyph unicode="&#x368;" d="M-762 1462q0 118 68 191t180 73q88 0 152 -42l-44 -96q-60 22 -110 22t-79 -37t-29 -103q0 -134 126 -134q52 0 102 20l40 -94q-64 -42 -154 -42q-120 0 -186 63t-66 179z" />
<glyph unicode="&#x369;" d="M-778 1476q0 118 49 184t137 66q72 0 120 -44v226h134v-678h-120v56q-48 -68 -134 -68q-88 0 -137 68t-49 190zM-640 1478q0 -142 94 -142q44 0 74 28v224q-30 28 -80 28q-88 0 -88 -138z" />
<glyph unicode="&#x36a;" d="M-772 1230v678h134v-238q56 56 136 56q74 0 114 -45t40 -127v-324h-134v314q0 64 -72 64q-48 0 -84 -28v-350h-134z" />
<glyph unicode="&#x36b;" d="M-906 1230v484h120v-58q60 70 146 70q96 0 132 -76q60 76 150 76q70 0 109 -45t39 -127v-324h-134v314q0 64 -68 64q-46 0 -78 -30v-24v-324h-134v314q0 64 -70 64q-42 0 -78 -28v-350h-134z" />
<glyph unicode="&#x36c;" d="M-672 1230v484h120v-66q58 76 126 76q40 0 60 -12l-22 -122q-44 8 -72 8q-44 0 -78 -28v-340h-134z" />
<glyph unicode="&#x36d;" d="M-786 1612v102h86v144h134v-144h150v-102h-150v-164q0 -62 22 -89t70 -27q26 0 48 6l20 -104q-42 -12 -92 -12q-104 0 -153 51t-49 157v182h-86z" />
<glyph unicode="&#x36e;" d="M-804 1714h140l108 -344l104 344h138l-176 -484h-138z" />
<glyph unicode="&#x36f;" d="M-788 1230l156 238l-150 246h158l70 -132l74 132h148l-154 -230l156 -254h-158l-78 142l-74 -142h-148z" />
<glyph unicode="&#x370;" horiz-adv-x="942" d="M156 0v1448h276v-590h478v-246h-478v-612h-276z" />
<glyph unicode="&#x371;" horiz-adv-x="1042" d="M144 0v1092h270v-412h592v-228h-592v-452h-270z" />
<glyph unicode="&#x372;" horiz-adv-x="1060" d="M32 1200v248h636h360v-248h-360v-1200h-276v1200h-360z" />
<glyph unicode="&#x373;" horiz-adv-x="860" d="M32 1200v248h796v-248h-260v-1200h-276v1200h-260z" />
<glyph unicode="&#x374;" d="M-120 1170v20l90 378h282v-20l-164 -378h-208z" />
<glyph unicode="&#x375;" d="M-120 -302l164 378h208v-20l-90 -378h-282v20z" />
<glyph unicode="&#x376;" horiz-adv-x="1452" d="M156 0v1448h272v-978l602 978h266v-1448h-272v982l-602 -982h-266z" />
<glyph unicode="&#x377;" horiz-adv-x="1208" d="M144 0v1092h238v-658l406 658h276v-1092h-238v732l-454 -732h-228z" />
<glyph unicode="&#x37a;" d="M-90 -86h182v-156q0 -48 21 -64t57 -16q24 0 54 8l24 -158q-54 -16 -128 -16q-98 0 -154 44t-56 154v204z" />
<glyph unicode="&#x37b;" horiz-adv-x="966" d="M38 76l92 208q114 -60 228 -60q260 0 260 320q0 156 -61 242t-173 86q-96 0 -238 -62l-96 210q64 46 151 72t179 26q154 0 271 -73t181 -206t64 -309q0 -264 -138 -409t-388 -145q-202 0 -332 100z" />
<glyph unicode="&#x37c;" horiz-adv-x="966" d="M70 530q0 176 64 309t181 206t271 73q92 0 179 -26t151 -72l-96 -210q-142 62 -238 62q-112 0 -173 -86t-61 -242q0 -320 260 -320q114 0 228 60l92 -208q-130 -100 -332 -100q-250 0 -388 145t-138 409zM496 570q0 74 43 115t119 41t119 -41t43 -113q0 -74 -43 -115 t-119 -41t-119 41t-43 113z" />
<glyph unicode="&#x37d;" horiz-adv-x="966" d="M38 76l92 208q114 -60 228 -60q260 0 260 320q0 156 -61 242t-173 86q-96 0 -238 -62l-96 210q64 46 151 72t179 26q154 0 271 -73t181 -206t64 -309q0 -264 -138 -409t-388 -145q-202 0 -332 100zM146 572q0 72 43 113t119 41t119 -41t43 -115q0 -72 -43 -113t-119 -41 t-119 41t-43 115z" />
<glyph unicode="&#x37e;" horiz-adv-x="612" d="M46 -256q78 84 110 165t32 197q0 74 -12 158h264q12 -78 12 -154q0 -144 -70 -260t-224 -226zM138 794q0 76 44 118t124 42q78 0 123 -43t45 -115q0 -76 -44 -119t-124 -43q-78 0 -123 43t-45 117z" />
<glyph unicode="&#x384;" d="M-120 1230v20l90 318h282v-20l-164 -318h-208z" />
<glyph unicode="&#x385;" d="M-448 1368q0 68 38 106t106 38t107 -38t39 -104q0 -68 -38 -105t-108 -37q-68 0 -106 38t-38 102zM-106 1230v20l70 318h282v-20l-144 -318h-208zM262 1368q0 68 38 106t106 38t107 -38t39 -104q0 -68 -38 -105t-108 -37q-68 0 -106 38t-38 102z" />
<glyph unicode="&#x386;" horiz-adv-x="1340" d="M-72 1108v20l90 318h282v-20l-164 -318h-208zM30 0l490 1448h300l490 -1448h-290l-94 312h-516l-92 -312h-288zM482 552h374l-188 630z" />
<glyph unicode="&#x387;" horiz-adv-x="532" d="M98 926q0 76 44 118t124 42q78 0 123 -43t45 -115q0 -76 -44 -119t-124 -43q-78 0 -123 43t-45 117z" />
<glyph unicode="&#x388;" horiz-adv-x="1156" d="M-312 1108v20l90 318h282v-20l-164 -318h-208zM156 0v1448h912v-246h-636v-338h468v-248h-468v-370h664v-246h-940z" />
<glyph unicode="&#x389;" horiz-adv-x="1408" d="M-312 1108v20l90 318h282v-20l-164 -318h-208zM156 0v1448h276v-590h544v590h276v-1448h-276v612h-544v-612h-276z" />
<glyph unicode="&#x38a;" horiz-adv-x="596" d="M-312 1108v20l90 318h282v-20l-164 -318h-208zM160 0v1448h276v-1448h-276z" />
<glyph unicode="&#x38c;" horiz-adv-x="1432" d="M-236 1108v20l90 318h282v-20l-164 -318h-208zM96 724q0 372 159 561t461 189t461 -189t159 -561t-159 -561t-461 -189t-461 189t-159 561zM380 724q0 -504 336 -504t336 504t-336 504t-336 -504z" />
<glyph unicode="&#x38e;" horiz-adv-x="1180" d="M-452 1108v20l90 318h282v-20l-164 -318h-208zM22 1448h294l276 -670l274 670h292l-432 -970v-478h-276v478z" />
<glyph unicode="&#x38f;" horiz-adv-x="1472" d="M-232 1108v20l90 318h282v-20l-164 -318h-208zM96 0v218h260q-106 84 -171 229t-65 329q0 214 72 370t211 241t333 85t333 -85t211 -241t72 -370q0 -184 -65 -329t-171 -229h260v-218h-524v246q98 90 157 217t59 313q0 196 -81 325t-251 129t-251 -129t-81 -325 q0 -186 59 -313t157 -217v-246h-524z" />
<glyph unicode="&#x390;" horiz-adv-x="764" d="M-160 1388q0 68 38 106t106 38t107 -38t39 -104q0 -68 -38 -105t-108 -37q-68 0 -106 38t-38 102zM144 336l2 756h270v-706q0 -84 37 -122t117 -38q56 0 116 16l42 -230q-100 -28 -202 -28q-382 0 -382 352zM182 1250v20l70 318h282v-20l-144 -318h-208zM550 1388 q0 68 38 106t106 38t107 -38t39 -104q0 -68 -38 -105t-108 -37q-68 0 -106 38t-38 102z" />
<glyph unicode="&#x391;" horiz-adv-x="1340" d="M30 0l490 1448h300l490 -1448h-290l-94 312h-516l-92 -312h-288zM482 552h374l-188 630z" />
<glyph unicode="&#x392;" horiz-adv-x="1296" d="M156 0v1448h274h248q220 0 340 -108t120 -306q0 -200 -186 -270q268 -80 268 -328q0 -208 -125 -322t-351 -114h-438h-150zM430 244h328q180 0 180 186q0 192 -194 192h-314v-378zM430 858h248q180 0 180 170q0 176 -194 176h-234v-346z" />
<glyph unicode="&#x393;" horiz-adv-x="1040" d="M156 0v1448h856v-246h-580v-1202h-276z" />
<glyph unicode="&#x394;" horiz-adv-x="1386" d="M64 0v140l478 1308h300l480 -1308v-140h-1258zM378 240h626l-314 958z" />
<glyph unicode="&#x395;" horiz-adv-x="1156" d="M156 0v1448h912v-246h-636v-338h468v-248h-468v-370h664v-246h-940z" />
<glyph unicode="&#x396;" horiz-adv-x="1110" d="M66 0v244l650 962h-622v242h934v-242l-650 -964h662v-242h-974z" />
<glyph unicode="&#x397;" horiz-adv-x="1408" d="M156 0v1448h276v-590h544v590h276v-1448h-276v612h-544v-612h-276z" />
<glyph unicode="&#x398;" horiz-adv-x="1476" d="M96 724q0 372 165 560t477 188t477 -188t165 -560q0 -376 -159 -562t-483 -186t-483 186t-159 562zM380 724q0 -270 92 -387t266 -117t266 117t92 387q0 264 -89 385t-269 121t-269 -121t-89 -385zM480 606v230h516v-230h-516z" />
<glyph unicode="&#x399;" horiz-adv-x="596" d="M160 0v1448h276v-1448h-276z" />
<glyph unicode="&#x39a;" horiz-adv-x="1272" d="M156 0v1448h276v-682l510 682h326l-508 -630l540 -818h-326l-388 602l-154 -192v-410h-276z" />
<glyph unicode="&#x39b;" horiz-adv-x="1260" d="M30 0l450 1448h300l450 -1448h-290l-312 1198l-310 -1198h-288z" />
<glyph unicode="&#x39c;" horiz-adv-x="1710" d="M156 0v1448h332l368 -912l362 912h336v-1448h-268v1006l-288 -724h-288l-290 724v-1006h-264z" />
<glyph unicode="&#x39d;" horiz-adv-x="1452" d="M156 0v1448h266l602 -978v978h272v-1448h-266l-602 982v-982h-272z" />
<glyph unicode="&#x39e;" horiz-adv-x="1158" d="M60 0v252h1038v-252h-1038zM80 1196v252h998v-252h-998zM182 616v252h794v-252h-794z" />
<glyph unicode="&#x39f;" horiz-adv-x="1432" d="M96 724q0 372 159 561t461 189t461 -189t159 -561t-159 -561t-461 -189t-461 189t-159 561zM380 724q0 -504 336 -504t336 504t-336 504t-336 -504z" />
<glyph unicode="&#x3a0;" horiz-adv-x="1368" d="M156 0v1448h1056v-1448h-276v1202h-504v-1202h-276z" />
<glyph unicode="&#x3a1;" horiz-adv-x="1198" d="M156 0v1448h276h262q232 0 358 -130t126 -366q0 -238 -130 -369t-368 -131h-248v-452h-276zM432 698h262q200 0 200 248q0 256 -214 256h-248v-504z" />
<glyph unicode="&#x3a3;" horiz-adv-x="1108" d="M66 0v232l330 508l-312 480v228h944l2 -240l-590 -2l292 -444v-20l-332 -500h638v-242h-972z" />
<glyph unicode="&#x3a4;" horiz-adv-x="1060" d="M32 1200v248h636h360v-248h-360v-1200h-276v1200h-360z" />
<glyph unicode="&#x3a5;" horiz-adv-x="1180" d="M22 1448h294l276 -670l274 670h292l-432 -970v-478h-276v478z" />
<glyph unicode="&#x3a6;" horiz-adv-x="1620" d="M76 724q0 210 78 362t214 234t310 92v156h264v-156q172 -12 308 -92t215 -231t79 -365q0 -216 -81 -367t-217 -231t-304 -90v-136h-264v136q-186 10 -321 98t-208 240t-73 350zM348 724q0 -408 330 -440v880q-172 -16 -251 -128t-79 -312zM942 284q330 32 330 440 q0 200 -79 312t-251 128v-880z" />
<glyph unicode="&#x3a7;" horiz-adv-x="1220" d="M32 0l426 734l-410 714h308l260 -484l264 484h304l-422 -714l426 -734h-308l-274 504l-270 -504h-304z" />
<glyph unicode="&#x3a8;" horiz-adv-x="1532" d="M136 854v594h244l2 -556q0 -160 66 -240t206 -90v886h224v-886q140 10 206 90t66 240l2 556h244v-594q0 -242 -142 -373t-376 -147v-334h-224v334q-234 16 -376 147t-142 373z" />
<glyph unicode="&#x3a9;" horiz-adv-x="1472" d="M96 0v218h260q-106 84 -171 229t-65 329q0 214 72 370t211 241t333 85t333 -85t211 -241t72 -370q0 -184 -65 -329t-171 -229h260v-218h-524v246q98 90 157 217t59 313q0 196 -81 325t-251 129t-251 -129t-81 -325q0 -186 59 -313t157 -217v-246h-524z" />
<glyph unicode="&#x3aa;" horiz-adv-x="596" d="M-54 1684q0 68 38 106t106 38t107 -38t39 -104q0 -68 -38 -105t-108 -37q-68 0 -106 38t-38 102zM160 0v1448h276v-1448h-276zM360 1684q0 68 38 106t106 38t107 -38t39 -104q0 -68 -38 -105t-108 -37q-68 0 -106 38t-38 102z" />
<glyph unicode="&#x3ab;" horiz-adv-x="1180" d="M22 1448h294l276 -670l274 670h292l-432 -970v-478h-276v478zM236 1684q0 68 38 106t106 38t107 -38t39 -104q0 -68 -38 -105t-108 -37q-68 0 -106 38t-38 102zM650 1684q0 68 38 106t106 38t107 -38t39 -104q0 -68 -38 -105t-108 -37q-68 0 -106 38t-38 102z" />
<glyph unicode="&#x3ac;" horiz-adv-x="1276" d="M78 522q0 296 112 446t310 150q146 0 226 -63t108 -151q30 110 92 214l236 -76q-164 -332 -164 -554q0 -136 43 -197t115 -61q40 0 64 6l26 -232q-68 -18 -144 -18q-248 0 -288 224q-32 -100 -115 -168t-205 -68q-190 0 -303 144t-113 404zM356 540q0 -138 39 -226 t153 -88q112 0 155 100t43 232q0 318 -188 318q-96 0 -149 -83t-53 -253zM422 1250v20l90 318h282v-20l-164 -318h-208z" />
<glyph unicode="&#x3ad;" horiz-adv-x="1000" d="M90 302q0 102 55 164t137 80q-84 26 -123 91t-39 147q0 148 111 241t339 93q108 0 209 -24t173 -74l-96 -210q-56 28 -130 45t-150 17q-94 0 -137 -27t-43 -85q0 -50 42 -73t108 -23h204v-224h-248q-64 0 -99 -27t-35 -73q0 -116 208 -116q90 0 151 13t129 47l92 -208 q-128 -100 -378 -100q-242 0 -361 90t-119 236zM438 1250v20l90 318h282v-20l-164 -318h-208z" />
<glyph unicode="&#x3ae;" horiz-adv-x="1194" d="M104 1042l236 76q6 -10 20 -36t24 -53t18 -59q62 72 150 110t184 38q154 0 239 -94t85 -264v-1174h-272v1134q0 146 -158 146q-52 0 -104 -15t-92 -43v-808h-272v712q0 110 -12 177t-46 153zM418 1250v20l90 318h282v-20l-164 -318h-208z" />
<glyph unicode="&#x3af;" horiz-adv-x="764" d="M144 336l2 756h270v-706q0 -84 37 -122t117 -38q56 0 116 16l42 -230q-100 -28 -202 -28q-382 0 -382 352zM168 1250v20l90 318h282v-20l-164 -318h-208z" />
<glyph unicode="&#x3b0;" horiz-adv-x="1126" d="M88 1388q0 68 38 106t106 38t107 -38t39 -104q0 -68 -38 -105t-108 -37q-68 0 -106 38t-38 102zM130 396v696h272v-670q0 -100 46 -148t126 -48q104 0 139 88t35 264q0 162 -16 282t-44 232h272q34 -96 51 -239t17 -275q0 -300 -123 -452t-341 -152q-216 0 -325 114 t-109 308zM430 1250v20l70 318h282v-20l-144 -318h-208zM798 1388q0 68 38 106t106 38t107 -38t39 -104q0 -68 -38 -105t-108 -37q-68 0 -106 38t-38 102z" />
<glyph unicode="&#x3b1;" horiz-adv-x="1276" d="M78 522q0 296 112 446t310 150q146 0 226 -63t108 -151q30 110 92 214l236 -76q-164 -332 -164 -554q0 -136 43 -197t115 -61q40 0 64 6l26 -232q-68 -18 -144 -18q-248 0 -288 224q-32 -100 -115 -168t-205 -68q-190 0 -303 144t-113 404zM356 540q0 -138 39 -226 t153 -88q112 0 155 100t43 232q0 318 -188 318q-96 0 -149 -83t-53 -253z" />
<glyph unicode="&#x3b2;" horiz-adv-x="1160" d="M144 -414v1564q0 186 101 305t323 119q224 0 330 -115t106 -291q0 -270 -172 -330q138 -36 194 -134t56 -260q0 -186 -88 -327t-290 -141q-104 0 -172 29t-116 87v-506h-272zM416 308q36 -44 96 -67t106 -23q92 0 140 64t48 184q0 108 -31 164t-81 74t-126 18h-42v224h54 q82 0 119 46t37 154q0 100 -42 145t-120 45t-118 -51t-40 -135v-842z" />
<glyph unicode="&#x3b3;" horiz-adv-x="1034" d="M48 1092h266l228 -796q58 148 91 291t45 246t26 259h272q-20 -266 -86 -540t-224 -552v-334h-272v352z" />
<glyph unicode="&#x3b4;" horiz-adv-x="1116" d="M68 480q0 176 66 313t240 209q-78 52 -111 112t-33 136q0 158 114 240t300 82q116 0 201 -27t155 -67l-90 -206q-70 30 -134 48t-140 18q-68 0 -102 -26t-34 -68q0 -40 31 -69t143 -105q132 -90 203 -153t116 -167t45 -266q0 -120 -47 -236t-157 -194t-286 -78 q-160 0 -268 70t-160 184t-52 250zM348 504q0 -134 48 -221t156 -87q98 0 153 85t55 223t-50 220t-156 140q-84 -28 -145 -118t-61 -242z" />
<glyph unicode="&#x3b5;" horiz-adv-x="1000" d="M90 302q0 102 55 164t137 80q-84 26 -123 91t-39 147q0 148 111 241t339 93q108 0 209 -24t173 -74l-96 -210q-56 28 -130 45t-150 17q-94 0 -137 -27t-43 -85q0 -50 42 -73t108 -23h204v-224h-248q-64 0 -99 -27t-35 -73q0 -116 208 -116q90 0 151 13t129 47l92 -208 q-128 -100 -378 -100q-242 0 -361 90t-119 236z" />
<glyph unicode="&#x3b6;" horiz-adv-x="838" d="M58 566q6 186 106 374t284 366h-312v234h724v-160q-228 -182 -373 -380t-151 -426q2 -78 25 -130t68 -91t129 -89q168 -100 228 -176t66 -164q2 -52 -10 -123t-36 -135h-246q18 66 27 107t9 81q0 50 -17 81t-53 55t-120 70q-132 72 -208 144t-108 158t-32 204z" />
<glyph unicode="&#x3b7;" horiz-adv-x="1194" d="M104 1042l236 76q6 -10 20 -36t24 -53t18 -59q62 72 150 110t184 38q154 0 239 -94t85 -264v-1174h-272v1134q0 146 -158 146q-52 0 -104 -15t-92 -43v-808h-272v712q0 110 -12 177t-46 153z" />
<glyph unicode="&#x3b8;" horiz-adv-x="1166" d="M98 778q0 424 122 610t362 186q242 0 364 -186t122 -612q0 -456 -132 -628t-354 -172q-146 0 -252 67t-169 244t-63 491zM374 682q0 -188 26 -289t70 -138t112 -37q66 0 112 36t72 138t26 290h-418zM374 916h418q-2 166 -26 257t-68 125t-114 34q-72 0 -116 -34t-68 -125 t-26 -257z" />
<glyph unicode="&#x3b9;" horiz-adv-x="764" d="M144 336l2 756h270v-706q0 -84 37 -122t117 -38q56 0 116 16l42 -230q-100 -28 -202 -28q-382 0 -382 352z" />
<glyph unicode="&#x3ba;" horiz-adv-x="1130" d="M144 0v1092h272v-452l362 452h310l-386 -458l416 -634h-310l-278 430l-114 -136v-294h-272z" />
<glyph unicode="&#x3bb;" horiz-adv-x="1060" d="M28 0l386 1010l-20 56q-48 132 -117 204t-183 92l94 212q120 -14 205 -60t152 -146t125 -276l362 -1092h-278l-208 662l-232 -662h-286z" />
<glyph unicode="&#x3bc;" horiz-adv-x="1250" d="M144 -414l2 1506h272v-724q0 -142 152 -142q56 0 107 25t83 63v778h272v-752q0 -58 24 -84t80 -26q28 0 58 6l26 -232q-78 -18 -158 -18q-214 0 -276 148q-38 -80 -103 -120t-137 -40q-84 0 -128 58v-446h-274z" />
<glyph unicode="&#x3bd;" horiz-adv-x="1034" d="M48 1092h266l228 -796q58 148 91 291t45 246t26 259h272q-20 -266 -86 -540t-224 -552h-266z" />
<glyph unicode="&#x3be;" horiz-adv-x="950" d="M78 486q0 138 82 226t216 110q-108 26 -165 90t-57 160q0 196 222 236h-224v232h760v-220q-176 -22 -279 -49t-153 -70t-50 -109q0 -62 31 -96t99 -47t188 -13h66v-224h-60q-154 0 -240 -22t-121 -66t-35 -114q0 -50 20 -83t55 -59t117 -76l50 -28q168 -100 228 -176 t66 -164q2 -52 -10 -123t-36 -135h-244q34 118 34 188q0 50 -17 81t-53 55t-122 70q-196 104 -282 197t-86 229z" />
<glyph unicode="&#x3bf;" horiz-adv-x="1106" d="M78 546q0 284 122 428t354 144t353 -144t121 -428t-122 -428t-354 -144t-353 144t-121 428zM356 546q0 -330 196 -330q92 0 145 84t53 246t-51 246t-145 84q-198 0 -198 -330z" />
<glyph unicode="&#x3c0;" horiz-adv-x="1340" d="M42 858v234h1242v-234h-220v-518q0 -58 24 -84t80 -26q28 0 58 6l26 -232q-78 -18 -158 -18q-148 0 -225 73t-77 219v580h-274v-858h-272v858h-204z" />
<glyph unicode="&#x3c1;" horiz-adv-x="1142" d="M124 -414v1032q0 500 462 500q250 0 364 -145t114 -425q0 -274 -104 -424t-292 -150q-84 0 -154 30t-118 86v-504h-272zM396 308q38 -44 88 -67t106 -23q196 0 196 320q0 160 -46 244t-158 84q-72 0 -129 -52t-57 -168v-338z" />
<glyph unicode="&#x3c2;" horiz-adv-x="954" d="M70 570q0 160 66 285t183 194t267 69q92 0 179 -26t151 -72l-96 -210q-142 62 -238 62q-110 0 -172 -79t-62 -207q0 -82 22 -136t68 -94t132 -92q168 -100 228 -176t66 -164q2 -52 -10 -123t-36 -135h-244q34 118 34 194q0 48 -22 80t-56 55t-112 65q-186 102 -266 214 t-82 296z" />
<glyph unicode="&#x3c3;" horiz-adv-x="1202" d="M78 526q0 278 147 422t415 144h504l2 -244h-208q88 -108 88 -302q0 -270 -127 -420t-355 -150q-226 0 -346 143t-120 407zM354 530q0 -150 53 -232t147 -82t145 80t51 244q0 124 -21 198t-51 104q-26 6 -70 6q-136 0 -195 -82t-59 -236z" />
<glyph unicode="&#x3c4;" horiz-adv-x="1034" d="M42 848v244h936v-244h-358v-462q0 -84 37 -122t117 -38q56 0 116 16l42 -230q-100 -28 -202 -28q-382 0 -382 352v512h-306z" />
<glyph unicode="&#x3c5;" horiz-adv-x="1126" d="M130 396v696h272v-670q0 -100 46 -148t126 -48q104 0 139 88t35 264q0 162 -16 282t-44 232h272q34 -96 51 -239t17 -275q0 -300 -123 -452t-341 -152q-216 0 -325 114t-109 308z" />
<glyph unicode="&#x3c6;" horiz-adv-x="1482" d="M78 542q0 250 140 405t402 169v234h242v-234q262 -14 402 -169t140 -405q0 -252 -144 -400t-398 -166v-390h-242v390q-254 18 -398 166t-144 400zM334 542q0 -114 41 -193t107 -118t138 -43v716q-116 -6 -201 -95t-85 -267zM862 188q72 4 138 43t107 118t41 193 q0 178 -85 267t-201 95v-716z" />
<glyph unicode="&#x3c7;" horiz-adv-x="1018" d="M-16 -414l384 746l-382 760h300l222 -474l206 474h290l-362 -784l360 -722h-300l-208 444l-220 -444h-290z" />
<glyph unicode="&#x3c8;" horiz-adv-x="1478" d="M130 424v668h272v-640q0 -96 46 -156t162 -74v1166h254v-1170q106 10 171 93t65 227q0 188 -15 314t-45 240h272q68 -220 68 -548q0 -266 -138 -412t-378 -156v-390h-254v392q-250 12 -365 131t-115 315z" />
<glyph unicode="&#x3c9;" horiz-adv-x="1570" d="M98 476q0 174 46 336t126 280h288q-84 -120 -134 -288t-50 -328q0 -138 29 -203t105 -65q66 0 103 61t37 173v268h274v-268q0 -112 37 -173t103 -61q76 0 105 65t29 203q0 160 -50 328t-134 288h288q80 -118 126 -280t46 -336q0 -500 -382 -500q-102 0 -187 44t-117 148 q-32 -104 -118 -148t-188 -44q-382 0 -382 500z" />
</font>
</defs>
</svg>
