<?xml version="1.0" encoding="UTF-8"?>
<svg xmlns="http://www.w3.org/2000/svg" xmlns:xlink="http://www.w3.org/1999/xlink" version="1.2" >
<font id="iCiel Samsung Sharp Sans Bold">
<font-face  font-family="iCiel Samsung Sharp Sans" units-per-em="1000" ascent="820" descent="-285" font-style="normal" font-weight="700" font-stretch="normal" cap-height="730" x-height="585" underline-position="-125" underline-thickness="50" />
<missing-glyph  horiz-adv-x="926" d="M100 730 L826 730 L826 0 L100 0 L100 730 Z M236 130 L690 130 L690 600 L236 600 L236 130 Z M260 240 L383 367 L259 496 L339 574 L461 448 L585 575 L665 497 L539 367 L664 239 L584 161 L461 287 L340 162 L260 240 Z " />
<glyph glyph-name="null" d="" />
<glyph glyph-name="space" unicode="&#x20;" horiz-adv-x="245" d="" />
<glyph glyph-name="exclam" unicode="&#x21;" horiz-adv-x="209" d="M68 198 Q61 243 55.5 294.5 Q50 346 46 400 Q42 454 39.5 508.5 Q37 563 37 613 L37 730 L171 730 L171 613 Q171 563 169 508.5 Q167 454 163 400 Q159 346 153.5 294.5 Q148 243 141 198 L68 198 Z M22 69 Q22 106 44 128.5 Q66 151 104 151 Q142 151 163.5 128.5 Q185 106 185 69 Q185 33 163 10.5 Q141 -12 103 -12 Q65 -12 43.5 10.5 Q22 33 22 69 Z " />
<glyph glyph-name="quotedbl" unicode="&#x22;" horiz-adv-x="323" d="M70 500 Q66 509 60.5 528.5 Q55 548 49.5 570 Q44 592 40 613 Q36 634 36 646 L36 730 L141 730 L141 646 Q141 633 137 612 Q133 591 127.5 569 Q122 547 116.5 528 Q111 509 107 500 L70 500 Z M215 500 Q211 509 205.5 528.5 Q200 548 195 570 Q190 592 186 613 Q182 634 182 646 L182 730 L287 730 L287 646 Q287 633 283 612 Q279 591 273.5 569 Q268 547 262 528 Q256 509 252 500 L215 500 Z " />
<glyph glyph-name="numbersign" unicode="&#x23;" horiz-adv-x="802" d="M484 155 L310 155 L310 0 L174 0 L174 155 L26 155 L26 285 L174 285 L174 455 L26 455 L26 585 L174 585 L174 730 L310 730 L310 585 L484 585 L484 730 L620 730 L620 585 L776 585 L776 455 L620 455 L620 285 L776 285 L776 155 L620 155 L620 0 L484 0 L484 155 Z M310 285 L484 285 L484 455 L310 455 L310 285 Z " />
<glyph glyph-name="dollar" unicode="&#x24;" horiz-adv-x="588" d="M564 217 Q564 180 551 144 Q538 108 513 78 Q488 48 451.5 26.5 Q415 5 368 -4 L368 -120 L232 -120 L232 -3 Q160 9 106 42.5 Q52 76 13 121 L137 218 Q154 189 179.5 167.5 Q205 146 235 134 L235 327 Q200 338 165 353.5 Q130 369 102.5 393 Q75 417 57.5 450.5 Q40 484 40 531 Q40 569 54 602.5 Q68 636 93.5 663 Q119 690 154 709 Q189 728 232 735 L232 840 L368 840 L368 732 Q425 721 466 695 Q507 669 542 634 L429 549 Q404 585 364 603 L364 429 Q399 417 435 400.5 Q471 384 499.5 359.5 Q528 335 546 300 Q564 265 564 217 Z M426 218 Q426 244 408.5 260.5 Q391 277 364 289 L364 130 Q393 143 409.5 166.5 Q426 190 426 218 Z M176 536 Q176 510 192 495 Q208 480 235 469 L235 610 Q207 600 191.5 580.5 Q176 561 176 536 Z " />
<glyph glyph-name="percent" unicode="&#x25;" horiz-adv-x="825" d="M136 562 Q136 535 155.5 515.5 Q175 496 201 496 Q227 496 246.5 515.5 Q266 535 266 562 Q266 588 246.5 607.5 Q227 627 201 627 Q175 627 155.5 607.5 Q136 588 136 562 Z M446 168 Q446 205 460 237.5 Q474 270 498.5 294 Q523 318 555.5 332 Q588 346 625 346 Q662 346 694.5 332 Q727 318 751 294 Q775 270 789 237.5 Q803 205 803 168 Q803 131 789 98.5 Q775 66 751 41.5 Q727 17 694.5 3 Q662 -11 625 -11 Q588 -11 555.5 3 Q523 17 498.5 41.5 Q474 66 460 98.5 Q446 131 446 168 Z M640 730 L812 730 L185 0 L13 0 L640 730 Z M560 168 Q560 141 579 122 Q598 103 625 103 Q651 103 670 122 Q689 141 689 168 Q689 194 670 213.5 Q651 233 625 233 Q598 233 579 213.5 Q560 194 560 168 Z M22 562 Q22 599 36 631.5 Q50 664 74.5 688 Q99 712 131.5 726 Q164 740 201 740 Q238 740 270.5 726 Q303 712 327 688 Q351 664 365 631.5 Q379 599 379 562 Q379 525 365 492.5 Q351 460 327 435.5 Q303 411 270.5 397 Q238 383 201 383 Q164 383 131.5 397 Q99 411 74.5 435.5 Q50 460 36 492.5 Q22 525 22 562 Z " />
<glyph glyph-name="ampersand" unicode="&#x26;" horiz-adv-x="749" d="M506 56 Q462 25 412.5 7 Q363 -11 309 -11 Q230 -11 175 10.5 Q120 32 85.5 66 Q51 100 36 142.5 Q21 185 21 227 Q21 296 56.5 348 Q92 400 147 432 Q130 459 121.5 488 Q113 517 113 552 Q113 592 128.5 626 Q144 660 172 685.5 Q200 711 238.5 725.5 Q277 740 322 740 Q368 740 403 729 Q438 718 464 699.5 Q490 681 507.5 656.5 Q525 632 535 604 L403 557 Q395 583 377 601 Q359 619 327 619 Q296 619 276 600 Q256 581 256 552 Q256 531 261.5 514 Q267 497 280.5 478 Q294 459 317.5 434.5 Q341 410 377 374 L516 234 Q538 265 552.5 299 Q567 333 575 368 L452 368 L452 497 L710 497 L710 434 Q710 365 681 290 Q652 215 601 149 L749 0 L563 0 L506 56 Z M308 108 Q338 108 366 116.5 Q394 125 420 141 L265 297 Q243 318 224 338 Q191 318 173.5 292 Q156 266 156 228 Q156 204 166 182.5 Q176 161 195 144.5 Q214 128 242.5 118 Q271 108 308 108 Z " />
<glyph glyph-name="quotesingle" unicode="&#x27;" horiz-adv-x="177" d="M70 500 Q66 509 60.5 528.5 Q55 548 49.5 570 Q44 592 40 613 Q36 634 36 646 L36 730 L141 730 L141 646 Q141 633 137 612 Q133 591 127.5 569 Q122 547 116.5 528 Q111 509 107 500 L70 500 Z " />
<glyph glyph-name="parenleft" unicode="&#x28;" horiz-adv-x="388" d="M300 -254 Q238 -212 187 -160 Q136 -108 99 -45.5 Q62 17 42 91 Q22 165 22 250 Q22 336 41 407.5 Q60 479 95 539 Q130 599 179.5 649.5 Q229 700 289 744 L380 646 Q333 615 293.5 575 Q254 535 225 486 Q196 437 180 378.5 Q164 320 164 250 Q164 118 221 21 Q278 -76 385 -142 L300 -254 Z " />
<glyph glyph-name="parenright" unicode="&#x29;" horiz-adv-x="388" d="M224 248 Q224 318 208 376.5 Q192 435 163 484 Q134 533 94.5 573 Q55 613 8 644 L99 742 Q160 698 209.5 647.5 Q259 597 294 537 Q329 477 348 405.5 Q367 334 367 248 Q367 163 346.5 89 Q326 15 289.5 -47.5 Q253 -110 201.5 -162 Q150 -214 88 -256 L4 -144 Q111 -78 167.5 19 Q224 116 224 248 Z " />
<glyph glyph-name="asterisk" unicode="&#x2a;" horiz-adv-x="405" d="M238 492 L261 377 L144 377 L166 491 L77 415 L20 517 L130 554 L20 593 L80 693 L167 617 L144 731 L261 731 L237 615 L327 693 L385 591 L273 553 L385 515 L325 415 L238 492 Z " />
<glyph glyph-name="plus" unicode="&#x2b;" horiz-adv-x="442" d="M36 422 L165 422 L165 549 L278 549 L278 422 L406 422 L406 307 L278 307 L278 179 L165 179 L165 307 L36 307 L36 422 Z " />
<glyph glyph-name="comma" unicode="&#x2c;" horiz-adv-x="207" d="M56 87 L175 87 L105 -117 L21 -117 L56 87 Z " />
<glyph glyph-name="hyphen" unicode="&#x2d;" horiz-adv-x="442" d="M36 312 L406 312 L406 197 L36 197 L36 312 Z " />
<glyph glyph-name="period" unicode="&#x2e;" horiz-adv-x="207" d="M22 69 Q22 106 44 128.5 Q66 151 104 151 Q142 151 163.5 128.5 Q185 106 185 69 Q185 33 163 10.5 Q141 -12 103 -12 Q65 -12 43.5 10.5 Q22 33 22 69 Z " />
<glyph glyph-name="slash" unicode="&#x2f;" horiz-adv-x="511" d="M357 730 L501 730 L155 0 L11 0 L357 730 Z " />
<glyph glyph-name="zero" unicode="0" horiz-adv-x="588" d="M293 125 Q348 125 377 156.5 Q406 188 406 233 L406 492 Q406 544 377.5 575 Q349 606 295 606 Q240 606 211 573 Q182 540 182 492 L182 234 Q182 186 210 155.5 Q238 125 293 125 Z M294 -10 Q234 -10 188 7.5 Q142 25 110.5 56.5 Q79 88 62.5 132 Q46 176 46 228 L46 496 Q46 548 64 592.5 Q82 637 115 670 Q148 703 193.5 721.5 Q239 740 294 740 Q351 740 396.5 721 Q442 702 474.5 669 Q507 636 524.5 591.5 Q542 547 542 497 L542 228 Q542 174 525 130.5 Q508 87 476.5 55.5 Q445 24 399 7 Q353 -10 294 -10 Z " />
<glyph glyph-name="one" unicode="1" horiz-adv-x="331" d="M124 0 L124 603 L35 603 L35 730 L260 730 L260 0 L124 0 Z " />
<glyph glyph-name="two" unicode="2" horiz-adv-x="536" d="M36 128 Q36 175 53 213 Q70 251 97.5 282.5 Q125 314 159.5 340 Q194 366 228 389 Q255 408 280 425.5 Q305 443 324 460.5 Q343 478 354.5 496.5 Q366 515 366 536 Q366 572 340.5 597.5 Q315 623 266 623 Q218 623 187.5 594 Q157 565 138 519 L21 578 Q55 653 116.5 696.5 Q178 740 267 740 Q323 740 366.5 724 Q410 708 441 680.5 Q472 653 488 615.5 Q504 578 504 535 Q504 492 488 457.5 Q472 423 446 394.5 Q420 366 387.5 342 Q355 318 322 296 Q294 277 267 258.5 Q240 240 219 220 Q198 200 185 178 Q172 156 172 130 L501 130 L501 0 L36 0 L36 128 Z " />
<glyph glyph-name="three" unicode="3" horiz-adv-x="502" d="M237 -10 Q167 -10 108.5 13.5 Q50 37 3 92 L121 180 Q144 145 173 129.5 Q202 114 236 114 Q283 114 313.5 139.5 Q344 165 344 211 Q344 257 309.5 284.5 Q275 312 219 312 L144 312 L144 437 L219 437 Q279 437 307 466 Q335 495 335 534 Q335 574 307 598 Q279 622 232 622 Q189 622 163.5 603 Q138 584 121 552 L5 612 Q37 672 97.5 706 Q158 740 230 740 Q283 740 327 725.5 Q371 711 402 684.5 Q433 658 450 620 Q467 582 467 535 Q467 485 445 445.5 Q423 406 384 378 Q429 352 454.5 310 Q480 268 480 211 Q480 164 464 123.5 Q448 83 417.5 53.5 Q387 24 341.5 7 Q296 -10 237 -10 Z " />
<glyph glyph-name="four" unicode="4" horiz-adv-x="623" d="M348 168 L35 168 L35 292 L341 730 L480 730 L480 292 L587 292 L587 168 L480 168 L480 0 L348 0 L348 168 Z M348 292 L348 527 L182 292 L348 292 Z " />
<glyph glyph-name="five" unicode="5" horiz-adv-x="541" d="M270 -10 Q222 -10 182.5 1.5 Q143 13 111.5 32.5 Q80 52 57.5 77.5 Q35 103 21 130 L147 203 Q163 168 192.5 141.5 Q222 115 271 115 Q293 115 313.5 123.5 Q334 132 349.5 147 Q365 162 374 183.5 Q383 205 383 230 Q383 281 352.5 316 Q322 351 268 351 Q225 351 197.5 330 Q170 309 151 277 L30 339 L82 730 L488 730 L488 603 L190 603 L169 441 Q190 455 219 465 Q248 475 283 475 Q332 475 375 459 Q418 443 450.5 412 Q483 381 501.5 335.5 Q520 290 520 230 Q520 177 501.5 132.5 Q483 88 449.5 56.5 Q416 25 370 7.5 Q324 -10 270 -10 Z " />
<glyph glyph-name="six" unicode="6" horiz-adv-x="562" d="M282 -10 Q225 -10 177 9 Q129 28 94.5 61.5 Q60 95 40.5 140.5 Q21 186 21 238 Q21 289 36 339 Q51 389 77 427 L266 730 L426 730 L266 482 Q287 488 309 488 Q357 488 399 469.5 Q441 451 472.5 418 Q504 385 522 339.5 Q540 294 540 239 Q540 184 520.5 138.5 Q501 93 466.5 60 Q432 27 384.5 8.5 Q337 -10 282 -10 Z M279 113 Q305 113 328 123 Q351 133 368.5 150.5 Q386 168 396 191.5 Q406 215 406 242 Q406 268 396 291.5 Q386 315 368.5 332 Q351 349 328 359 Q305 369 279 369 Q253 369 230.5 359 Q208 349 191 331.5 Q174 314 164 291 Q154 268 154 241 Q154 215 164 191.5 Q174 168 191 150.5 Q208 133 230.5 123 Q253 113 279 113 Z " />
<glyph glyph-name="seven" unicode="7" horiz-adv-x="530" d="M353 600 L35 600 L35 730 L495 730 L495 612 L242 0 L98 0 L353 600 Z " />
<glyph glyph-name="eight" unicode="8" horiz-adv-x="588" d="M293 -10 Q168 -10 101 51 Q34 112 34 218 Q34 275 57.5 317.5 Q81 360 124 389 Q93 415 76 450.5 Q59 486 59 532 Q59 579 76 617.5 Q93 656 124.5 683 Q156 710 200 725 Q244 740 298 740 Q351 740 394.5 725 Q438 710 469.5 683 Q501 656 518 617.5 Q535 579 535 532 Q535 485 516.5 449.5 Q498 414 466 388 Q508 359 531 316.5 Q554 274 554 218 Q554 112 485.5 51 Q417 -10 293 -10 Z M293 110 Q358 110 391 141.5 Q424 173 424 218 Q424 263 391.5 294.5 Q359 326 296 326 Q232 326 198.5 294.5 Q165 263 165 218 Q165 173 196 141.5 Q227 110 293 110 Z M295 440 Q352 440 381.5 467 Q411 494 411 532 Q411 570 382 597.5 Q353 625 299 625 Q244 625 213.5 597.5 Q183 570 183 532 Q183 493 210.5 466.5 Q238 440 295 440 Z " />
<glyph glyph-name="nine" unicode="9" horiz-adv-x="562" d="M296 251 Q275 245 254 245 Q206 245 163.5 263 Q121 281 89 313.5 Q57 346 38.5 391 Q20 436 20 491 Q20 547 40 593 Q60 639 95 671.5 Q130 704 177.5 722 Q225 740 279 740 Q336 740 383.5 721 Q431 702 465.5 668.5 Q500 635 519.5 589.5 Q539 544 539 492 Q539 441 524 391 Q509 341 483 303 L295 0 L135 0 L296 251 Z M281 362 Q307 362 330 372 Q353 382 370 399.5 Q387 417 397 440.5 Q407 464 407 491 Q407 517 397 540.5 Q387 564 370 581.5 Q353 599 330 609.5 Q307 620 281 620 Q256 620 232.5 609.5 Q209 599 192 581 Q175 563 164.5 539.5 Q154 516 154 490 Q154 463 164.5 440 Q175 417 192 399.5 Q209 382 232.5 372 Q256 362 281 362 Z " />
<glyph glyph-name="colon" unicode="&#x3a;" horiz-adv-x="207" d="M22 69 Q22 106 44 128.5 Q66 151 104 151 Q142 151 163.5 128.5 Q185 106 185 69 Q185 33 163 10.5 Q141 -12 103 -12 Q65 -12 43.5 10.5 Q22 33 22 69 Z M22 430 Q22 467 44 489.5 Q66 512 104 512 Q142 512 163.5 489.5 Q185 467 185 430 Q185 394 163 371.5 Q141 349 103 349 Q65 349 43.5 371.5 Q22 394 22 430 Z " />
<glyph glyph-name="semicolon" unicode="&#x3b;" horiz-adv-x="207" d="M56 87 L175 87 L105 -117 L21 -117 L56 87 Z M22 430 Q22 467 44 489.5 Q66 512 104 512 Q142 512 163.5 489.5 Q185 467 185 430 Q185 394 163 371.5 Q141 349 103 349 Q65 349 43.5 371.5 Q22 394 22 430 Z " />
<glyph glyph-name="less" unicode="&#x3c;" horiz-adv-x="442" d="M36 306 L36 421 L406 554 L406 436 L182 363 L406 290 L406 172 L36 306 Z " />
<glyph glyph-name="equal" unicode="&#x3d;" horiz-adv-x="442" d="M36 504 L406 504 L406 389 L36 389 L36 504 Z M36 337 L406 337 L406 222 L36 222 L36 337 Z " />
<glyph glyph-name="greater" unicode="&#x3e;" horiz-adv-x="442" d="M36 290 L259 363 L36 436 L36 554 L406 421 L406 306 L36 172 L36 290 Z " />
<glyph glyph-name="question" unicode="&#x3f;" horiz-adv-x="517" d="M181 199 Q181 260 193.5 300 Q206 340 224 367 Q242 394 264 412 Q286 430 304 447 Q322 464 334.5 483.5 Q347 503 347 533 Q347 571 321 596.5 Q295 622 251 622 Q211 622 185.5 597.5 Q160 573 151 536 L25 579 Q43 651 100 695.5 Q157 740 253 740 Q304 740 346.5 725 Q389 710 419.5 682.5 Q450 655 467 616.5 Q484 578 484 531 Q484 484 470.5 453.5 Q457 423 437 401.5 Q417 380 393 362.5 Q369 345 349 324 Q329 303 315.5 274 Q302 245 302 199 L302 188 L181 188 L181 199 Z M159 69 Q159 106 181 128.5 Q203 151 241 151 Q279 151 300.5 128.5 Q322 106 322 69 Q322 33 300 10.5 Q278 -12 240 -12 Q202 -12 180.5 10.5 Q159 33 159 69 Z " />
<glyph glyph-name="at" unicode="&#x40;" horiz-adv-x="789" d="M395 -125 Q317 -125 249 -95.5 Q181 -66 130.5 -15.5 Q80 35 51 103.5 Q22 172 22 250 Q22 328 51 396 Q80 464 130.5 515 Q181 566 249 595.5 Q317 625 395 625 Q481 625 549.5 596 Q618 567 667 520 Q716 473 742 412 Q768 351 768 288 Q768 245 756 207 Q744 169 721.5 140 Q699 111 667 94 Q635 77 596 77 Q551 77 522 93 Q493 109 476 132 Q457 107 425.5 92.5 Q394 78 350 78 Q320 78 290.5 90 Q261 102 238.5 124.5 Q216 147 204 181 Q192 215 196 258 Q201 304 219.5 338 Q238 372 264 394 Q290 416 319.5 427 Q349 438 375 438 Q407 438 431.5 428 Q456 418 472 401 Q473 412 474 418 Q475 424 475 427 Q476 431 476 432 L583 432 L564 251 Q560 219 570 201 Q580 183 605 183 Q629 183 644.5 212 Q660 241 660 288 Q660 331 641.5 372.5 Q623 414 589 447 Q555 480 506 500 Q457 520 395 520 Q339 520 290.5 499 Q242 478 206 441 Q170 404 149 354.5 Q128 305 128 249 Q128 193 149 144 Q170 95 206 58 Q242 21 290.5 0 Q339 -21 395 -21 Q455 -21 505 2.5 Q555 26 593 67 L674 0 Q623 -57 551 -91 Q479 -125 395 -125 Z M375 179 Q410 179 433.5 203 Q457 227 460 261 Q464 294 445 318 Q426 342 392 342 Q359 342 333 319 Q307 296 305 261 Q300 226 320.5 202.5 Q341 179 375 179 Z " />
<glyph glyph-name="A" unicode="A" horiz-adv-x="687" d="M275 730 L412 730 L672 0 L530 0 L485 130 L202 130 L157 0 L15 0 L275 730 Z M248 260 L440 260 L344 537 L248 260 Z " />
<glyph glyph-name="B" unicode="B" horiz-adv-x="573" d="M42 730 L272 730 Q393 730 459.5 678 Q526 626 526 526 Q526 431 446 384 Q497 361 524.5 319 Q552 277 552 216 Q552 108 481.5 54 Q411 0 290 0 L42 0 L42 730 Z M178 312 L178 125 L290 125 Q352 125 383.5 149.5 Q415 174 415 219 Q415 264 387.5 288 Q360 312 284 312 L178 312 Z M178 605 L178 439 L272 439 Q337 439 363 463 Q389 487 389 526 Q389 567 362 586 Q335 605 272 605 L178 605 Z " />
<glyph glyph-name="C" unicode="C" horiz-adv-x="738" d="M397 -10 Q313 -10 243.5 19.5 Q174 49 125 99.5 Q76 150 49 218.5 Q22 287 22 365 Q22 447 51 515.5 Q80 584 130.5 634 Q181 684 249.5 712 Q318 740 397 740 Q448 740 495.5 727 Q543 714 584.5 690.5 Q626 667 659.5 633.5 Q693 600 717 559 L598 483 Q566 540 517 573 Q468 606 397 606 Q345 606 301 587.5 Q257 569 225 536.5 Q193 504 175 460 Q157 416 157 365 Q157 315 175 271.5 Q193 228 224.5 195.5 Q256 163 299.5 144.5 Q343 126 394 126 Q470 126 522.5 164.5 Q575 203 604 263 L728 198 Q704 152 669.5 113.5 Q635 75 592.5 47.5 Q550 20 500.5 5 Q451 -10 397 -10 Z " />
<glyph glyph-name="D" unicode="D" horiz-adv-x="648" d="M42 730 L241 730 Q333 730 405 702 Q477 674 526.5 625 Q576 576 601.5 509.5 Q627 443 627 365 Q627 287 599 220 Q571 153 520.5 104.5 Q470 56 400 28 Q330 0 247 0 L42 0 L42 730 Z M178 604 L178 126 L231 126 Q291 126 339 144 Q387 162 420.5 194.5 Q454 227 472.5 270.5 Q491 314 491 365 Q491 418 475 461.5 Q459 505 426 537 Q393 569 343 586.5 Q293 604 225 604 L178 604 Z " />
<glyph glyph-name="E" unicode="E" horiz-adv-x="509" d="M42 730 L475 730 L475 600 L178 600 L178 432 L475 432 L475 302 L178 302 L178 130 L475 130 L475 0 L42 0 L42 730 Z " />
<glyph glyph-name="F" unicode="F" horiz-adv-x="491" d="M42 730 L455 730 L455 600 L178 600 L178 432 L455 432 L455 302 L178 302 L178 0 L42 0 L42 730 Z " />
<glyph glyph-name="G" unicode="G" horiz-adv-x="780" d="M401 -10 Q316 -10 246 20 Q176 50 126 101.5 Q76 153 49 221 Q22 289 22 365 Q22 443 50 511.5 Q78 580 127.5 630.5 Q177 681 245.5 710.5 Q314 740 395 740 Q452 740 502 726.5 Q552 713 594.5 688 Q637 663 670.5 628.5 Q704 594 727 553 L607 481 Q573 544 520.5 576 Q468 608 396 608 Q345 608 301.5 588.5 Q258 569 225.5 536 Q193 503 175 459 Q157 415 157 365 Q157 314 175 270 Q193 226 225.5 193 Q258 160 303 141 Q348 122 401 122 Q483 122 537.5 165 Q592 208 612 280 L379 280 L379 410 L758 410 L758 356 Q758 282 733 215.5 Q708 149 661.5 99 Q615 49 549 19.5 Q483 -10 401 -10 Z " />
<glyph glyph-name="H" unicode="H" horiz-adv-x="636" d="M458 301 L178 301 L178 0 L42 0 L42 730 L178 730 L178 431 L458 431 L458 730 L594 730 L594 0 L458 0 L458 301 Z " />
<glyph glyph-name="I" unicode="I" horiz-adv-x="230" d="M47 730 L183 730 L183 0 L47 0 L47 730 Z " />
<glyph glyph-name="J" unicode="J" horiz-adv-x="501" d="M247 -10 Q159 -10 98 34.5 Q37 79 19 155 L153 199 Q161 164 185.5 140.5 Q210 117 245 117 Q287 117 305.5 144.5 Q324 172 324 210 L324 730 L460 730 L460 222 Q460 112 404.5 51 Q349 -10 247 -10 Z " />
<glyph glyph-name="K" unicode="K" horiz-adv-x="618" d="M257 351 L178 253 L178 0 L42 0 L42 730 L178 730 L178 431 L419 730 L584 730 L353 446 L605 0 L450 0 L257 351 Z " />
<glyph glyph-name="L" unicode="L" horiz-adv-x="481" d="M42 730 L178 730 L178 130 L445 130 L445 0 L42 0 L42 730 Z " />
<glyph glyph-name="M" unicode="M" horiz-adv-x="798" d="M42 730 L177 730 L398 423 L628 730 L757 730 L757 0 L621 0 L621 512 L397 210 L178 507 L178 0 L42 0 L42 730 Z " />
<glyph glyph-name="N" unicode="N" horiz-adv-x="690" d="M42 730 L196 730 L512 233 L512 730 L648 730 L648 0 L503 0 L178 513 L178 0 L42 0 L42 730 Z " />
<glyph glyph-name="O" unicode="O" horiz-adv-x="790" d="M395 -10 Q317 -10 249 19.5 Q181 49 130.5 99.5 Q80 150 51 218.5 Q22 287 22 365 Q22 443 51 511 Q80 579 130.5 630 Q181 681 249 710.5 Q317 740 395 740 Q473 740 541 710.5 Q609 681 660 630 Q711 579 740 511 Q769 443 769 365 Q769 287 740 218.5 Q711 150 660 99.5 Q609 49 541 19.5 Q473 -10 395 -10 Z M395 124 Q445 124 488.5 143 Q532 162 564.5 194.5 Q597 227 615.5 271 Q634 315 634 365 Q634 415 615.5 459 Q597 503 564.5 535.5 Q532 568 488.5 587 Q445 606 395 606 Q345 606 301.5 587 Q258 568 226 535.5 Q194 503 175.5 459 Q157 415 157 365 Q157 315 175.5 271 Q194 227 226 194.5 Q258 162 301.5 143 Q345 124 395 124 Z " />
<glyph glyph-name="P" unicode="P" horiz-adv-x="581" d="M42 730 L292 730 Q349 730 397 709.5 Q445 689 480 654 Q515 619 535 571.5 Q555 524 555 470 Q555 416 535 368 Q515 320 480 285 Q445 250 396.5 229.5 Q348 209 291 209 L178 209 L178 0 L42 0 L42 730 Z M178 604 L178 335 L282 335 Q312 335 337 345.5 Q362 356 380 374.5 Q398 393 408 417.5 Q418 442 418 470 Q418 498 408 522.5 Q398 547 380 565 Q362 583 337 593.5 Q312 604 282 604 L178 604 Z " />
<glyph glyph-name="Q" unicode="Q" horiz-adv-x="790" d="M342 359 L505 359 L597 239 Q614 267 624 298.5 Q634 330 634 365 Q634 415 615.5 459 Q597 503 564.5 535.5 Q532 568 488.5 587 Q445 606 395 606 Q345 606 301.5 587 Q258 568 226 535.5 Q194 503 175.5 459 Q157 415 157 365 Q157 315 175.5 271 Q194 227 226 194.5 Q258 162 301.5 143 Q345 124 395 124 Q431 124 466 135 L551 24 Q477 -10 395 -10 Q317 -10 249 19.5 Q181 49 130.5 99.5 Q80 150 51 218.5 Q22 287 22 365 Q22 443 51 511 Q80 579 130.5 630 Q181 681 249 710.5 Q317 740 395 740 Q473 740 541 710.5 Q609 681 660 630 Q711 579 740 511 Q769 443 769 365 Q769 296 746.5 236 Q724 176 685 127 L783 0 L617 0 L342 359 Z " />
<glyph glyph-name="R" unicode="R" horiz-adv-x="584" d="M42 0 L42 730 L276 730 Q341 730 391.5 711.5 Q442 693 477 659.5 Q512 626 530.5 579.5 Q549 533 549 476 Q549 410 517.5 352.5 Q486 295 426 263 L572 0 L417 0 L300 223 L178 223 L178 0 L42 0 Z M264 348 Q306 348 334.5 358.5 Q363 369 380.5 387.5 Q398 406 405.5 430 Q413 454 413 481 Q413 537 377.5 570 Q342 603 264 603 L178 603 L178 348 L264 348 Z " />
<glyph glyph-name="S" unicode="S" horiz-adv-x="563" d="M288 -10 Q189 -10 121 27.5 Q53 65 3 121 L127 219 Q155 171 196 145.5 Q237 120 287 120 Q341 120 369.5 150 Q398 180 398 218 Q398 241 385 257 Q372 273 351 284.5 Q330 296 302.5 305 Q275 314 246 323 Q209 335 172 349 Q135 363 105.5 386.5 Q76 410 57.5 444.5 Q39 479 39 531 Q39 575 57 613 Q75 651 107.5 679.5 Q140 708 184.5 724 Q229 740 281 740 Q325 740 360.5 732 Q396 724 425.5 710 Q455 696 479.5 676.5 Q504 657 526 634 L414 549 Q367 619 282 619 Q232 619 206 595 Q180 571 180 536 Q180 514 192 499 Q204 484 224.5 472.5 Q245 461 272 452 Q299 443 329 433 Q366 421 403.5 405.5 Q441 390 471.5 365.5 Q502 341 521 305.5 Q540 270 540 217 Q540 174 523 133 Q506 92 474 60.5 Q442 29 395 9.5 Q348 -10 288 -10 Z " />
<glyph glyph-name="T" unicode="T" horiz-adv-x="579" d="M221 600 L26 600 L26 730 L553 730 L553 600 L357 600 L357 0 L221 0 L221 600 Z " />
<glyph glyph-name="U" unicode="U" horiz-adv-x="608" d="M304 -10 Q247 -10 199 7 Q151 24 115.5 57 Q80 90 60.5 139 Q41 188 41 252 L41 730 L177 730 L177 244 Q177 217 186.5 193.5 Q196 170 213 153 Q230 136 253 126 Q276 116 303 116 Q330 116 353 126 Q376 136 393.5 153 Q411 170 421 193.5 Q431 217 431 244 L431 730 L567 730 L567 252 Q567 188 547 139 Q527 90 492 57 Q457 24 409 7 Q361 -10 304 -10 Z " />
<glyph glyph-name="V" unicode="V" horiz-adv-x="657" d="M15 730 L156 730 L329 208 L501 730 L642 730 L397 0 L260 0 L15 730 Z " />
<glyph glyph-name="W" unicode="W" horiz-adv-x="1023" d="M14 730 L156 730 L294 219 L447 730 L581 730 L733 221 L870 730 L1007 730 L801 0 L666 0 L513 515 L360 0 L222 0 L14 730 Z " />
<glyph glyph-name="X" unicode="X" horiz-adv-x="630" d="M315 251 L164 0 L11 0 L234 369 L16 730 L168 730 L315 487 L462 730 L615 730 L395 369 L619 0 L467 0 L315 251 Z " />
<glyph glyph-name="Y" unicode="Y" horiz-adv-x="629" d="M245 346 L13 730 L163 730 L314 477 L466 730 L616 730 L381 343 L381 0 L245 0 L245 346 Z " />
<glyph glyph-name="Z" unicode="Z" horiz-adv-x="556" d="M36 125 L359 600 L47 600 L47 730 L519 730 L519 606 L196 130 L519 130 L519 0 L36 0 L36 125 Z " />
<glyph glyph-name="bracketleft" unicode="&#x5b;" horiz-adv-x="345" d="M36 730 L309 730 L309 600 L172 600 L172 -100 L309 -100 L309 -230 L36 -230 L36 730 Z " />
<glyph glyph-name="backslash" unicode="&#x5c;" horiz-adv-x="511" d="M11 730 L155 730 L501 0 L357 0 L11 730 Z " />
<glyph glyph-name="bracketright" unicode="&#x5d;" horiz-adv-x="345" d="M36 -100 L173 -100 L173 600 L36 600 L36 730 L309 730 L309 -230 L36 -230 L36 -100 Z " />
<glyph glyph-name="asciicircum" unicode="&#x5e;" horiz-adv-x="472" d="M194 719 L278 719 L397 549 L296 549 L236 638 L177 549 L75 549 L194 719 Z " />
<glyph glyph-name="underscore" unicode="&#x5f;" horiz-adv-x="447" d="M36 -10 L411 -10 L411 -125 L36 -125 L36 -10 Z " />
<glyph glyph-name="grave" unicode="&#x60;" horiz-adv-x="472" d="M105 720 L232 720 L346 550 L255 550 L105 720 Z " />
<glyph glyph-name="a" unicode="a" horiz-adv-x="671" d="M308 -12 Q255 -12 203.5 8.5 Q152 29 111 68 Q70 107 45 163.5 Q20 220 20 292 Q20 365 44.5 421.5 Q69 478 109.5 517 Q150 556 202.5 576.5 Q255 597 310 597 Q368 597 417 575 Q466 553 498 515 L498 585 L633 585 L633 0 L498 0 L498 76 Q466 35 416 11.5 Q366 -12 308 -12 Z M330 112 Q368 112 400 126 Q432 140 455 165 Q478 190 491.5 223 Q505 256 505 294 Q505 331 491.5 364 Q478 397 455 421.5 Q432 446 400 460 Q368 474 330 474 Q293 474 260.5 460 Q228 446 204 422 Q180 398 166.5 365 Q153 332 153 294 Q153 256 166.5 222.5 Q180 189 204 164.5 Q228 140 260.5 126 Q293 112 330 112 Z " />
<glyph glyph-name="b" unicode="b" horiz-adv-x="668" d="M365 -12 Q305 -12 255 11 Q205 34 173 76 L173 0 L39 0 L39 740 L174 740 L174 511 Q205 550 254.5 573.5 Q304 597 363 597 Q418 597 470 576.5 Q522 556 562 517 Q602 478 626.5 421.5 Q651 365 651 292 Q651 220 626 163.5 Q601 107 560.5 68 Q520 29 469 8.5 Q418 -12 365 -12 Z M342 112 Q379 112 411 126 Q443 140 467 164.5 Q491 189 504.5 222.5 Q518 256 518 294 Q518 332 504.5 365 Q491 398 467 422 Q443 446 411 460 Q379 474 342 474 Q305 474 273 460 Q241 446 217.5 421.5 Q194 397 181 364 Q168 331 168 294 Q168 256 181 223 Q194 190 217.5 165 Q241 140 273 126 Q305 112 342 112 Z " />
<glyph glyph-name="c" unicode="c" horiz-adv-x="617" d="M324 -12 Q260 -12 204.5 12 Q149 36 108 77 Q67 118 43.5 173.5 Q20 229 20 292 Q20 356 43.5 411.5 Q67 467 108 508.5 Q149 550 204.5 573.5 Q260 597 324 597 Q373 597 416.5 583.5 Q460 570 496 546 Q532 522 559 489 Q586 456 603 416 L482 365 Q462 413 420.5 441.5 Q379 470 325 470 Q288 470 256.5 456 Q225 442 201.5 418 Q178 394 165 361.5 Q152 329 152 292 Q152 256 165 223.5 Q178 191 201.5 167 Q225 143 257 129 Q289 115 326 115 Q383 115 423.5 145.5 Q464 176 484 224 L605 172 Q588 132 561 98 Q534 64 498.5 39.5 Q463 15 419 1.5 Q375 -12 324 -12 Z " />
<glyph glyph-name="d" unicode="d" horiz-adv-x="671" d="M308 -12 Q255 -12 203.5 8.5 Q152 29 111 68 Q70 107 45 163.5 Q20 220 20 292 Q20 365 44.5 421.5 Q69 478 109.5 517 Q150 556 202.5 576.5 Q255 597 310 597 Q367 597 416 575.5 Q465 554 497 516 L497 740 L633 740 L633 0 L498 0 L498 76 Q466 35 416 11.5 Q366 -12 308 -12 Z M330 112 Q368 112 400 126 Q432 140 455 165 Q478 190 491.5 223 Q505 256 505 294 Q505 331 491.5 364 Q478 397 455 421.5 Q432 446 400 460 Q368 474 330 474 Q293 474 260.5 460 Q228 446 204 422 Q180 398 166.5 365 Q153 332 153 294 Q153 256 166.5 222.5 Q180 189 204 164.5 Q228 140 260.5 126 Q293 112 330 112 Z " />
<glyph glyph-name="e" unicode="e" horiz-adv-x="646" d="M329 -12 Q260 -12 203 11.5 Q146 35 105.5 76 Q65 117 42.5 172.5 Q20 228 20 291 Q20 355 43.5 411 Q67 467 108 508 Q149 549 204.5 573 Q260 597 324 597 Q389 597 444.5 574.5 Q500 552 540 511.5 Q580 471 602.5 416 Q625 361 625 296 L625 245 L149 245 Q163 183 210 145 Q257 107 329 107 Q386 107 428 135 Q470 163 491 210 L602 146 Q564 75 495.5 31.5 Q427 -12 329 -12 Z M324 478 Q263 478 218.5 445 Q174 412 156 358 L488 358 Q473 417 430 447.5 Q387 478 324 478 Z " />
<glyph glyph-name="f" unicode="f" horiz-adv-x="391" d="M17 585 L116 585 L116 586 Q116 649 129.5 693.5 Q143 738 172 766 Q201 794 247.5 807 Q294 820 361 820 L373 820 L373 695 Q333 695 309 690 Q285 685 272.5 672 Q260 659 256.5 638 Q253 617 253 585 L373 585 L373 464 L253 464 L253 0 L116 0 L116 464 L17 464 L17 585 Z " />
<glyph glyph-name="g" unicode="g" horiz-adv-x="673" d="M499 78 Q467 36 417 12 Q367 -12 308 -12 Q255 -12 203.5 8.5 Q152 29 111 68 Q70 107 45 163.5 Q20 220 20 292 Q20 365 44.5 421.5 Q69 478 109.5 517 Q150 556 202.5 576.5 Q255 597 310 597 Q368 597 417 573.5 Q466 550 498 510 L498 585 L633 585 L633 15 Q633 -47 613.5 -101 Q594 -155 556 -195.5 Q518 -236 461.5 -259.5 Q405 -283 331 -283 Q274 -283 227.5 -270.5 Q181 -258 144 -235.5 Q107 -213 79 -182.5 Q51 -152 31 -115 L151 -42 Q183 -101 223 -130 Q263 -159 333 -159 Q371 -159 402 -145 Q433 -131 454.5 -108 Q476 -85 487.5 -54 Q499 -23 499 10 L499 78 Z M330 112 Q368 112 400 126 Q432 140 455 165 Q478 190 491.5 223 Q505 256 505 294 Q505 331 491.5 364 Q478 397 455 421.5 Q432 446 400 460 Q368 474 330 474 Q293 474 260.5 460 Q228 446 204 422 Q180 398 166.5 365 Q153 332 153 294 Q153 256 166.5 222.5 Q180 189 204 164.5 Q228 140 260.5 126 Q293 112 330 112 Z " />
<glyph glyph-name="h" unicode="h" horiz-adv-x="619" d="M39 740 L174 740 L174 515 Q204 553 248.5 575 Q293 597 349 597 Q458 597 519.5 531 Q581 465 581 347 L581 0 L443 0 L443 332 Q443 401 410 440.5 Q377 480 311 480 Q283 480 258 469.5 Q233 459 214.5 439 Q196 419 185.5 389 Q175 359 175 321 L175 0 L39 0 L39 740 Z " />
<glyph glyph-name="i" unicode="i" horiz-adv-x="214" d="M39 585 L175 585 L175 0 L39 0 L39 585 Z M22 728 Q22 766 45 789.5 Q68 813 107 813 Q147 813 169.5 789.5 Q192 766 192 728 Q192 690 169.5 667 Q147 644 107 644 Q66 644 44 667 Q22 690 22 728 Z " />
<glyph glyph-name="j" unicode="j" horiz-adv-x="213" d="M-82 -142 Q-43 -142 -19 -138 Q5 -134 18 -121.5 Q31 -109 35 -86 Q39 -63 39 -24 L39 585 L175 585 L175 -25 Q175 -94 163 -141 Q151 -188 123 -216.5 Q95 -245 49.5 -257 Q4 -269 -63 -269 L-82 -269 L-82 -142 Z M22 728 Q22 766 45 789.5 Q68 813 107 813 Q147 813 169.5 789.5 Q192 766 192 728 Q192 690 169.5 667 Q147 644 107 644 Q66 644 44 667 Q22 690 22 728 Z " />
<glyph glyph-name="k" unicode="k" horiz-adv-x="601" d="M39 740 L174 740 L174 303 L423 585 L585 585 L359 332 L593 0 L442 0 L267 252 L174 149 L174 0 L39 0 L39 740 Z " />
<glyph glyph-name="l" unicode="l" horiz-adv-x="214" d="M39 740 L175 740 L175 0 L39 0 L39 740 Z " />
<glyph glyph-name="m" unicode="m" horiz-adv-x="998" d="M39 585 L173 585 L173 517 Q201 554 243.5 575.5 Q286 597 340 597 Q409 597 456.5 570.5 Q504 544 530 496 Q560 542 609.5 569.5 Q659 597 722 597 Q840 597 900 531.5 Q960 466 960 352 L960 0 L822 0 L822 341 Q822 405 790 442.5 Q758 480 695 480 Q640 480 603 442 Q566 404 566 327 L566 0 L429 0 L429 345 Q429 408 398 444 Q367 480 306 480 Q249 480 211.5 441 Q174 402 174 324 L174 0 L39 0 L39 585 Z " />
<glyph glyph-name="n" unicode="n" horiz-adv-x="619" d="M39 585 L173 585 L173 513 Q202 551 246.5 574 Q291 597 348 597 Q457 597 518.5 531 Q580 465 580 347 L580 0 L443 0 L443 333 Q443 401 410 440.5 Q377 480 311 480 Q253 480 213.5 439 Q174 398 174 321 L174 0 L39 0 L39 585 Z " />
<glyph glyph-name="o" unicode="o" horiz-adv-x="646" d="M323 -12 Q260 -12 204.5 11.5 Q149 35 108 76.5 Q67 118 43.5 173.5 Q20 229 20 292 Q20 356 43.5 411.5 Q67 467 108 508.5 Q149 550 204.5 573.5 Q260 597 323 597 Q386 597 441 573.5 Q496 550 537.5 508.5 Q579 467 602.5 411.5 Q626 356 626 292 Q626 229 602.5 173.5 Q579 118 537.5 76.5 Q496 35 441 11.5 Q386 -12 323 -12 Z M323 115 Q359 115 390 129 Q421 143 444 167 Q467 191 480 223.5 Q493 256 493 292 Q493 329 480 361.5 Q467 394 444 418 Q421 442 390 456 Q359 470 323 470 Q287 470 255.5 456 Q224 442 201.5 418 Q179 394 166 361.5 Q153 329 153 292 Q153 256 166 223.5 Q179 191 201.5 167 Q224 143 255.5 129 Q287 115 323 115 Z " />
<glyph glyph-name="p" unicode="p" horiz-adv-x="668" d="M364 -12 Q304 -12 254 9 Q204 30 173 69 L173 -269 L39 -269 L39 585 L173 585 L173 507 Q204 548 253.5 572.5 Q303 597 363 597 Q418 597 470 576.5 Q522 556 562 517 Q602 478 626.5 421.5 Q651 365 651 292 Q651 220 626 163.5 Q601 107 560.5 68 Q520 29 468.5 8.5 Q417 -12 364 -12 Z M342 112 Q379 112 411 126 Q443 140 467 164.5 Q491 189 504.5 222.5 Q518 256 518 294 Q518 332 504.5 365 Q491 398 467 422 Q443 446 411 460 Q379 474 342 474 Q304 474 272 460 Q240 446 217 421.5 Q194 397 181 364 Q168 331 168 294 Q168 256 181 223 Q194 190 217 165 Q240 140 272 126 Q304 112 342 112 Z " />
<glyph glyph-name="q" unicode="q" horiz-adv-x="671" d="M308 -12 Q255 -12 203.5 8.5 Q152 29 111 68 Q70 107 45 163.5 Q20 220 20 292 Q20 365 44.5 421.5 Q69 478 109.5 517 Q150 556 202.5 576.5 Q255 597 310 597 Q368 597 417 573.5 Q466 550 498 510 L498 585 L633 585 L633 -269 L497 -269 L497 68 Q465 30 416 9 Q367 -12 308 -12 Z M330 112 Q368 112 400 126 Q432 140 455 165 Q478 190 491.5 223 Q505 256 505 294 Q505 331 491.5 364 Q478 397 455 421.5 Q432 446 400 460 Q368 474 330 474 Q293 474 260.5 460 Q228 446 204 422 Q180 398 166.5 365 Q153 332 153 294 Q153 256 166.5 222.5 Q180 189 204 164.5 Q228 140 260.5 126 Q293 112 330 112 Z " />
<glyph glyph-name="r" unicode="r" horiz-adv-x="431" d="M39 585 L173 585 L173 498 Q214 585 323 585 Q355 585 380.5 578 Q406 571 426 560 L375 432 Q360 442 341.5 448.5 Q323 455 294 455 Q235 455 204.5 421.5 Q174 388 174 312 L174 0 L39 0 L39 585 Z " />
<glyph glyph-name="s" unicode="s" horiz-adv-x="518" d="M259 -12 Q162 -12 98 24.5 Q34 61 -1 130 L124 190 Q145 149 181 127 Q217 105 265 105 Q315 105 340 126 Q365 147 365 176 Q365 192 353.5 202 Q342 212 323.5 219.5 Q305 227 280 232 Q255 237 228 243 Q190 251 153.5 262 Q117 273 88 292.5 Q59 312 41 342.5 Q23 373 23 419 Q23 454 39.5 486.5 Q56 519 86 544 Q116 569 158.5 583.5 Q201 598 253 598 Q341 598 399.5 565.5 Q458 533 492 477 L377 419 Q359 450 327 468 Q295 486 253 486 Q205 486 182 467 Q159 448 159 423 Q159 394 193 381.5 Q227 369 293 355 Q329 348 365.5 336.5 Q402 325 432 305.5 Q462 286 480.5 255.5 Q499 225 499 179 Q499 148 485 114.5 Q471 81 441.5 52.5 Q412 24 367 6 Q322 -12 259 -12 Z " />
<glyph glyph-name="t" unicode="t" horiz-adv-x="399" d="M18 585 L118 585 L118 674 L254 767 L254 585 L373 585 L373 464 L254 464 L254 245 Q254 207 258 183.5 Q262 160 274.5 147.5 Q287 135 310.5 131 Q334 127 373 127 L373 0 L354 0 Q286 0 240.5 12 Q195 24 168 52.5 Q141 81 129.5 127.5 Q118 174 118 244 L118 464 L18 464 L18 585 Z " />
<glyph glyph-name="u" unicode="u" horiz-adv-x="605" d="M566 0 L432 0 L432 67 Q404 30 362 9 Q320 -12 264 -12 Q160 -12 99.5 54 Q39 120 39 238 L39 585 L176 585 L176 252 Q176 184 206.5 144.5 Q237 105 301 105 Q357 105 394 146 Q431 187 431 264 L431 585 L566 585 L566 0 Z " />
<glyph glyph-name="v" unicode="v" horiz-adv-x="599" d="M9 585 L150 585 L301 173 L449 585 L588 585 L368 0 L232 0 L9 585 Z " />
<glyph glyph-name="w" unicode="w" horiz-adv-x="995" d="M18 585 L156 585 L285 182 L432 585 L566 585 L710 181 L844 585 L981 585 L776 0 L646 0 L498 405 L346 0 L213 0 L18 585 Z " />
<glyph glyph-name="x" unicode="x" horiz-adv-x="614" d="M225 298 L13 585 L178 585 L311 399 L443 585 L603 585 L393 296 L617 0 L452 0 L309 195 L170 0 L5 0 L225 298 Z " />
<glyph glyph-name="y" unicode="y" horiz-adv-x="618" d="M246 29 L6 585 L150 585 L313 191 L467 585 L609 585 L260 -270 L123 -270 L246 29 Z " />
<glyph glyph-name="z" unicode="z" horiz-adv-x="577" d="M28 123 L368 465 L35 465 L35 585 L544 585 L544 462 L204 120 L550 120 L550 0 L28 0 L28 123 Z " />
<glyph glyph-name="braceleft" unicode="&#x7b;" horiz-adv-x="372" d="M335 -230 Q272 -230 230 -219 Q188 -208 162.5 -182.5 Q137 -157 126 -115.5 Q115 -74 115 -13 L115 84 Q115 113 112 132.5 Q109 152 99.5 163.5 Q90 175 71.5 180 Q53 185 21 185 L21 310 Q53 310 71.5 314.5 Q90 319 99.5 330.5 Q109 342 112 361.5 Q115 381 115 410 L115 513 Q115 574 126 615.5 Q137 657 162.5 682.5 Q188 708 230 719 Q272 730 335 730 L346 730 L346 605 Q314 605 294.5 601.5 Q275 598 265 588.5 Q255 579 252 560.5 Q249 542 249 512 L249 409 Q249 346 232 306.5 Q215 267 174 247 Q216 227 232.5 187.5 Q249 148 249 85 L249 -12 Q249 -42 252 -60.5 Q255 -79 265 -88.5 Q275 -98 294.5 -101.5 Q314 -105 346 -105 L346 -230 L335 -230 Z " />
<glyph glyph-name="bar" unicode="&#x7c;" horiz-adv-x="209" d="M36 730 L172 730 L172 -230 L36 -230 L36 730 Z " />
<glyph glyph-name="braceright" unicode="&#x7d;" horiz-adv-x="372" d="M26 -105 Q58 -105 77.5 -101.5 Q97 -98 107 -88.5 Q117 -79 120 -60.5 Q123 -42 123 -12 L123 85 Q123 148 139.5 187.5 Q156 227 198 247 Q156 267 139.5 306.5 Q123 346 123 409 L123 512 Q123 542 120 560.5 Q117 579 107 588.5 Q97 598 77.5 601.5 Q58 605 26 605 L26 730 L37 730 Q100 730 142 719 Q184 708 209.5 682.5 Q235 657 246 615.5 Q257 574 257 513 L257 410 Q257 381 260 361.5 Q263 342 272.5 330.5 Q282 319 301 314.5 Q320 310 351 310 L351 185 Q320 185 301 180 Q282 175 272.5 163.5 Q263 152 260 132.5 Q257 113 257 84 L257 -13 Q257 -74 246 -115.5 Q235 -157 209.5 -182.5 Q184 -208 142 -219 Q100 -230 37 -230 L26 -230 L26 -105 Z " />
<glyph glyph-name="asciitilde" unicode="&#x7e;" horiz-adv-x="471" d="M63 574 Q63 635 90.5 671.5 Q118 708 168 708 Q193 708 211 700.5 Q229 693 244 684 Q258 675 270.5 667.5 Q283 660 296 660 Q324 660 324 704 L402 704 Q402 643 376 606.5 Q350 570 297 570 Q268 570 247.5 580 Q227 590 210 600 Q199 607 189 612 Q179 617 168 617 Q142 617 142 574 L63 574 Z " />
<glyph glyph-name="exclamdown" unicode="&#xa1;" horiz-adv-x="209" d="M37 -113 Q37 -63 39.5 -8.5 Q42 46 46 100 Q50 154 55.5 206 Q61 258 68 303 L141 303 Q148 258 153.5 206 Q159 154 163 100 Q167 46 169 -8.5 Q171 -63 171 -113 L171 -230 L37 -230 L37 -113 Z M22 430 Q22 467 44 489.5 Q66 512 104 512 Q142 512 163.5 489.5 Q185 467 185 430 Q185 394 163 371.5 Q141 349 103 349 Q65 349 43.5 371.5 Q22 394 22 430 Z " />
<glyph glyph-name="cent" unicode="&#xa2;" horiz-adv-x="588" d="M234 0 Q190 12 152.5 37 Q115 62 88 97 Q61 132 46 175 Q31 218 31 266 Q31 314 46.5 357 Q62 400 89 435 Q116 470 153 495 Q190 520 234 532 L234 663 L370 663 L370 535 Q438 521 487.5 478.5 Q537 436 563 375 L442 323 Q425 365 389 390 Q353 415 306 415 Q275 415 248.5 403.5 Q222 392 202.5 371.5 Q183 351 171.5 324 Q160 297 160 266 Q160 235 171.5 208 Q183 181 202.5 160.5 Q222 140 249 128.5 Q276 117 307 117 Q354 117 389.5 142.5 Q425 168 442 208 L563 157 Q537 97 487.5 54 Q438 11 370 -3 L370 -130 L234 -130 L234 0 Z " />
<glyph glyph-name="sterling" unicode="&#xa3;" horiz-adv-x="588" d="M54 436 L110 436 Q102 458 97 482 Q92 506 92 532 Q92 579 107.5 617.5 Q123 656 152 683 Q181 710 222 725 Q263 740 314 740 Q406 740 461 700.5 Q516 661 537 594 L408 547 Q398 582 376 602 Q354 622 316 622 Q273 622 251.5 597 Q230 572 230 534 Q230 508 237.5 484 Q245 460 256 436 L449 436 L449 329 L307 329 Q322 294 332.5 256 Q343 218 343 171 Q343 145 335 118 Q346 109 355 103.5 Q364 98 372 98 Q392 98 397.5 110 Q403 122 403 156 L403 237 L542 237 L542 160 Q542 115 535.5 83 Q529 51 513.5 30.5 Q498 10 471.5 0 Q445 -10 406 -10 Q371 -10 343 3.5 Q315 17 291 37 Q271 15 244 2 Q217 -11 185 -11 Q107 -11 70 19.5 Q33 50 33 103 Q33 153 66 187 Q99 221 159 221 Q183 221 204 214.5 Q225 208 243 197 Q237 229 215.5 261 Q194 293 169 329 L54 329 L54 436 Z M177 81 Q202 81 218 99 Q205 109 193 115 Q181 121 168 121 Q158 121 152.5 115.5 Q147 110 147 102 Q147 93 155 87 Q163 81 177 81 Z " />
<glyph glyph-name="currency" unicode="&#xa4;" horiz-adv-x="773" d="M390 102 Q319 102 260 136 L133 6 L35 102 L164 233 Q148 262 139.5 294.5 Q131 327 131 362 Q131 397 140 430 Q149 463 166 492 L33 632 L132 725 L263 589 Q291 605 323 613.5 Q355 622 390 622 Q425 622 456.5 613.5 Q488 605 516 590 L640 717 L738 622 L613 494 Q630 465 639.5 431.5 Q649 398 649 362 Q649 325 639.5 291.5 Q630 258 613 229 L738 98 L640 3 L514 133 Q457 102 390 102 Z M390 229 Q417 229 440.5 239.5 Q464 250 481.5 268 Q499 286 509 310.5 Q519 335 519 362 Q519 389 509 413.5 Q499 438 481.5 456 Q464 474 440.5 484.5 Q417 495 390 495 Q363 495 339.5 484.5 Q316 474 299 456 Q282 438 272 413.5 Q262 389 262 362 Q262 335 272 310.5 Q282 286 299 268 Q316 250 339.5 239.5 Q363 229 390 229 Z " />
<glyph glyph-name="yen" unicode="&#xa5;" horiz-adv-x="588" d="M80 391 L226 391 L226 415 L23 730 L175 730 L295 532 L415 730 L565 730 L362 415 L362 391 L509 391 L509 282 L362 282 L362 203 L509 203 L509 93 L362 93 L362 0 L226 0 L226 93 L80 93 L80 203 L226 203 L226 282 L80 282 L80 391 Z " />
<glyph glyph-name="brokenbar" unicode="&#xa6;" horiz-adv-x="211" d="M36 730 L172 730 L172 310 L36 310 L36 730 Z M36 190 L172 190 L172 -230 L36 -230 L36 190 Z " />
<glyph glyph-name="section" unicode="&#xa7;" horiz-adv-x="575" d="M285 -10 Q237 -10 196 3 Q155 16 123.5 37.5 Q92 59 71 86 Q50 113 42 141 L177 178 Q186 145 218 123.5 Q250 102 295 102 Q337 102 358 115 Q379 128 379 148 Q379 162 368 171.5 Q357 181 338 188 Q319 195 292.5 201.5 Q266 208 235 215 Q190 226 150.5 238.5 Q111 251 82 270 Q53 289 36.5 315 Q20 341 20 377 Q20 417 44 448 Q68 479 105 495 Q73 533 73 584 Q73 617 86.5 646 Q100 675 127 696 Q154 717 193 729 Q232 741 283 740 Q328 740 366.5 728.5 Q405 717 434.5 697.5 Q464 678 483.5 653.5 Q503 629 510 602 L382 566 Q377 595 350 615 Q323 635 280 635 Q240 635 220 622.5 Q200 610 200 590 Q200 563 238.5 547 Q277 531 339 516 Q384 506 423.5 492.5 Q463 479 492.5 460.5 Q522 442 538.5 416.5 Q555 391 555 356 Q555 317 533.5 288 Q512 259 478 242 Q513 207 513 154 Q513 120 496.5 90 Q480 60 450 37.5 Q420 15 378 2 Q336 -11 285 -10 Z M312 317 Q332 312 349.5 307 Q367 302 383 297 Q401 303 410.5 314 Q420 325 420 338 Q420 365 378.5 380.5 Q337 396 262 414 Q226 423 195 435 Q175 430 165 418 Q155 406 155 392 Q155 365 196 349.5 Q237 334 312 317 Z " />
<glyph glyph-name="dieresis" unicode="&#xa8;" horiz-adv-x="473" d="M69 619 Q69 651 88.5 671 Q108 691 141 691 Q175 691 194 671 Q213 651 213 619 Q213 587 194 567.5 Q175 548 141 548 Q107 548 88 567.5 Q69 587 69 619 Z M260 619 Q260 651 279.5 671 Q299 691 332 691 Q365 691 384.5 671 Q404 651 404 619 Q404 587 384.5 567.5 Q365 548 332 548 Q297 548 278.5 567.5 Q260 587 260 619 Z " />
<glyph glyph-name="copyright" unicode="&#xa9;" horiz-adv-x="790" d="M395 -10 Q317 -10 249 19.5 Q181 49 130.5 99.5 Q80 150 51 218.5 Q22 287 22 365 Q22 443 51 511 Q80 579 130.5 630 Q181 681 249 710.5 Q317 740 395 740 Q473 740 541 710.5 Q609 681 660 630 Q711 579 740 511 Q769 443 769 365 Q769 287 740 218.5 Q711 150 660 99.5 Q609 49 541 19.5 Q473 -10 395 -10 Z M395 94 Q451 94 500 115.5 Q549 137 585 173.5 Q621 210 642 259.5 Q663 309 663 365 Q663 421 642 470.5 Q621 520 585 556.5 Q549 593 500 614.5 Q451 636 395 636 Q338 636 289.5 614.5 Q241 593 205.5 556.5 Q170 520 150 470.5 Q130 421 130 365 Q130 309 150 259.5 Q170 210 205.5 173.5 Q241 137 289.5 115.5 Q338 94 395 94 Z M401 163 Q356 163 318.5 179 Q281 195 254 222 Q227 249 212 286 Q197 323 197 365 Q197 407 212.5 444 Q228 481 255 508 Q282 535 319.5 551 Q357 567 401 567 Q462 567 509.5 535.5 Q557 504 579 457 Q541 440 520.5 430.5 Q500 421 490 417 Q478 411 475 410 Q470 429 451 444.5 Q432 460 400 460 Q361 460 334 432.5 Q307 405 307 365 Q307 325 334 297.5 Q361 270 400 270 Q431 270 451.5 286 Q472 302 477 321 L584 284 Q561 233 513 198 Q465 163 401 163 Z " />
<glyph glyph-name="ordfeminine" unicode="&#xaa;" horiz-adv-x="364" d="M151 435 Q130 435 107 443.5 Q84 452 64.5 470 Q45 488 32.5 516.5 Q20 545 20 585 Q20 626 33 654.5 Q46 683 66 701 Q86 719 109 727.5 Q132 736 153 736 Q179 736 198 727 Q217 718 230 704 L230 730 L328 730 L328 440 L230 440 L230 471 Q216 455 196 445 Q176 435 151 435 Z M176 525 Q202 525 217.5 543 Q233 561 233 586 Q233 611 217.5 628.5 Q202 646 176 646 Q150 646 133 629.5 Q116 613 116 586 Q116 560 133 542.5 Q150 525 176 525 Z " />
<glyph glyph-name="guillemotleft" unicode="&#xab;" horiz-adv-x="477" d="M248 218 L248 293 L431 406 L431 315 L331 255 L431 196 L431 104 L248 218 Z M46 218 L46 293 L229 406 L229 315 L129 255 L229 196 L229 104 L46 218 Z " />
<glyph glyph-name="logicalnot" unicode="&#xac;" horiz-adv-x="603" d="M432 387 L28 387 L28 518 L568 518 L568 156 L432 156 L432 387 Z " />
<glyph glyph-name="uni00AD" unicode="&#xad;" horiz-adv-x="442" d="M36 312 L406 312 L406 197 L36 197 L36 312 Z " />
<glyph glyph-name="registered" unicode="&#xae;" horiz-adv-x="790" d="M395 -125 Q317 -125 249 -95.5 Q181 -66 130.5 -15.5 Q80 35 51 103.5 Q22 172 22 250 Q22 328 51 396 Q80 464 130.5 515 Q181 566 249 595.5 Q317 625 395 625 Q473 625 541 595.5 Q609 566 660 515 Q711 464 740 396 Q769 328 769 250 Q769 172 740 103.5 Q711 35 660 -15.5 Q609 -66 541 -95.5 Q473 -125 395 -125 Z M395 -21 Q451 -21 500 0.5 Q549 22 585 58.5 Q621 95 642 144.5 Q663 194 663 250 Q663 306 642 355.5 Q621 405 585 441.5 Q549 478 500 499.5 Q451 521 395 521 Q338 521 289.5 499.5 Q241 478 205.5 441.5 Q170 405 150 355.5 Q130 306 130 250 Q130 194 150 144.5 Q170 95 205.5 58.5 Q241 22 289.5 0.5 Q338 -21 395 -21 Z M236 439 L409 439 Q450 439 481.5 428 Q513 417 535 398 Q557 379 568 355.5 Q579 332 579 306 Q579 264 560 234 Q541 204 503 190 L577 65 L452 65 L355 251 L405 251 Q429 251 446.5 262.5 Q464 274 464 300 Q464 326 446 336 Q428 346 403 346 L349 346 L349 65 L236 65 L236 439 Z " />
<glyph glyph-name="overscore" unicode="&#xaf;" horiz-adv-x="472" d="M105 636 L369 636 L369 550 L105 550 L105 636 Z " />
<glyph glyph-name="degree" unicode="&#xb0;" horiz-adv-x="400" d="M200 387 Q163 387 131 401 Q99 415 75 439 Q51 463 37 495 Q23 527 23 564 Q23 600 37 632 Q51 664 75 688 Q99 712 131 726 Q163 740 200 740 Q237 740 269 726 Q301 712 325 688 Q349 664 362.5 632 Q376 600 376 564 Q376 527 362.5 495 Q349 463 325 439 Q301 415 269 401 Q237 387 200 387 Z M200 501 Q226 501 244.5 519.5 Q263 538 263 564 Q263 590 244.5 608.5 Q226 627 200 627 Q174 627 155.5 608.5 Q137 590 137 564 Q137 538 155.5 519.5 Q174 501 200 501 Z " />
<glyph glyph-name="plusminus" unicode="&#xb1;" horiz-adv-x="442" d="M36 531 L165 531 L165 659 L278 659 L278 531 L406 531 L406 417 L278 417 L278 289 L165 289 L165 417 L36 417 L36 531 Z M36 231 L406 231 L406 117 L36 117 L36 231 Z " />
<glyph glyph-name="uni00B2" unicode="&#xb2;" horiz-adv-x="330" d="M14 391 Q14 423 24.5 446.5 Q35 470 51.5 488 Q68 506 88.5 519.5 Q109 533 129 543 Q159 560 181.5 574 Q204 588 204 607 Q204 620 193.5 629.5 Q183 639 163 639 Q140 639 124.5 622 Q109 605 101 585 L4 635 Q27 682 67 709 Q107 736 165 736 Q234 736 276.5 700 Q319 664 319 608 Q319 578 308 555 Q297 532 280 515 Q263 498 242 485 Q221 472 201 462 Q175 448 156 436.5 Q137 425 135 412 L316 412 L316 308 L14 308 L14 391 Z " />
<glyph glyph-name="uni00B3" unicode="&#xb3;" horiz-adv-x="325" d="M158 302 Q115 302 74 314.5 Q33 327 5 355 L90 432 Q117 404 151 404 Q171 404 183.5 413.5 Q196 423 196 440 Q196 457 179.5 465 Q163 473 137 473 L93 473 L93 571 L135 571 Q160 571 173.5 580.5 Q187 590 187 607 Q187 638 144 638 Q128 638 114 630.5 Q100 623 92 610 L12 679 Q37 706 74.5 721 Q112 736 148 736 Q218 736 261.5 702.5 Q305 669 305 611 Q305 561 263 528 Q288 513 301.5 490 Q315 467 315 437 Q315 409 304 384 Q293 359 272.5 341 Q252 323 223 312.5 Q194 302 158 302 Z " />
<glyph glyph-name="acute" unicode="&#xb4;" horiz-adv-x="472" d="M220 720 L346 720 L196 550 L105 550 L220 720 Z " />
<glyph glyph-name="&amp;#xb5;" unicode="&#xb5;" horiz-adv-x="527" d="M32 500 L168 500 L168 239 Q168 175 191 140.5 Q214 106 262 106 Q303 106 332 135 Q361 164 361 227 L361 500 L495 500 L495 0 L362 0 L362 49 Q339 21 307.5 5.5 Q276 -10 237 -10 Q217 -10 199 -5.5 Q181 -1 165 7 L165 -230 L32 -230 L32 500 Z " />
<glyph glyph-name="&amp;#x3bc;" unicode="&#x3bc;" horiz-adv-x="527" d="M32 500 L168 500 L168 239 Q168 175 191 140.5 Q214 106 262 106 Q303 106 332 135 Q361 164 361 227 L361 500 L495 500 L495 0 L362 0 L362 49 Q339 21 307.5 5.5 Q276 -10 237 -10 Q217 -10 199 -5.5 Q181 -1 165 7 L165 -230 L32 -230 L32 500 Z " />
<glyph glyph-name="paragraph" unicode="&#xb6;" horiz-adv-x="658" d="M329 302 L238 302 Q192 302 152 318.5 Q112 335 83 364 Q54 393 37.5 432 Q21 471 21 516 Q21 561 37.5 600 Q54 639 83 668 Q112 697 151.5 713.5 Q191 730 237 730 L622 730 L622 0 L505 0 L505 604 L445 604 L445 0 L329 0 L329 302 Z " />
<glyph glyph-name="middot" unicode="&#xb7;" horiz-adv-x="207" d="M36 323 L170 323 L170 186 L36 186 L36 323 Z " />
<glyph glyph-name="cedilla" unicode="&#xb8;" horiz-adv-x="472" d="M213 -240 Q173 -240 135.5 -223.5 Q98 -207 69 -181 L147 -134 Q164 -148 180.5 -158 Q197 -168 223 -168 Q245 -168 261.5 -159 Q278 -150 278 -137 Q278 -110 220 -110 L170 -110 L170 0 L254 0 L254 -53 Q310 -51 339.5 -73.5 Q369 -96 369 -133 Q369 -156 357 -176 Q345 -196 324 -210 Q303 -224 274.5 -232 Q246 -240 213 -240 Z " />
<glyph glyph-name="uni00B9" unicode="&#xb9;" horiz-adv-x="298" d="M14 412 L95 412 L95 578 Q84 564 68 558 Q52 552 32 552 L26 552 L26 659 L29 659 Q50 659 63.5 666 Q77 673 85 683.5 Q93 694 96 706.5 Q99 719 99 730 L208 730 L208 412 L286 412 L286 308 L14 308 L14 412 Z " />
<glyph glyph-name="ordmasculine" unicode="&#xba;" horiz-adv-x="339" d="M170 435 Q139 435 111.5 447 Q84 459 64 479 Q44 499 32 526.5 Q20 554 20 585 Q20 617 32 644.5 Q44 672 64 692 Q84 712 111.5 724 Q139 736 170 736 Q201 736 228 724 Q255 712 275.5 692 Q296 672 307.5 644.5 Q319 617 319 585 Q319 554 307.5 526.5 Q296 499 275.5 479 Q255 459 228 447 Q201 435 170 435 Z M170 528 Q193 528 209 545 Q225 562 225 585 Q225 609 209 626 Q193 643 170 643 Q146 643 130.5 626 Q115 609 115 585 Q115 562 130.5 545 Q146 528 170 528 Z " />
<glyph glyph-name="guillemotright" unicode="&#xbb;" horiz-adv-x="477" d="M248 196 L348 255 L248 315 L248 406 L431 293 L431 218 L248 104 L248 196 Z M46 196 L146 255 L46 315 L46 406 L229 293 L229 218 L46 104 L46 196 Z " />
<glyph glyph-name="onequarter" unicode="&#xbc;" horiz-adv-x="854" d="M612 730 L768 730 L241 0 L85 0 L612 730 Z M674 84 L505 84 L505 183 L673 422 L778 422 L778 179 L840 179 L840 84 L778 84 L778 0 L674 0 L674 84 Z M14 412 L95 412 L95 578 Q84 564 68 558 Q52 552 32 552 L26 552 L26 659 L29 659 Q50 659 63.5 666 Q77 673 85 683.5 Q93 694 96 706.5 Q99 719 99 730 L208 730 L208 412 L286 412 L286 308 L14 308 L14 412 Z M674 179 L674 256 L621 179 L674 179 Z " />
<glyph glyph-name="onehalf" unicode="&#xbd;" horiz-adv-x="870" d="M612 730 L768 730 L241 0 L85 0 L612 730 Z M553 83 Q553 115 563.5 138.5 Q574 162 590.5 180 Q607 198 627.5 211.5 Q648 225 668 235 Q698 252 720.5 266 Q743 280 743 299 Q743 312 732.5 321.5 Q722 331 702 331 Q679 331 663.5 314 Q648 297 640 277 L543 327 Q566 374 606 401 Q646 428 704 428 Q773 428 815.5 392 Q858 356 858 300 Q858 270 847 247 Q836 224 819 207 Q802 190 781 177 Q760 164 740 154 Q714 140 695 128.5 Q676 117 674 104 L855 104 L855 0 L553 0 L553 83 Z M14 412 L95 412 L95 578 Q84 564 68 558 Q52 552 32 552 L26 552 L26 659 L29 659 Q50 659 63.5 666 Q77 673 85 683.5 Q93 694 96 706.5 Q99 719 99 730 L208 730 L208 412 L286 412 L286 308 L14 308 L14 412 Z " />
<glyph glyph-name="threequarters" unicode="&#xbe;" horiz-adv-x="860" d="M619 730 L775 730 L248 0 L92 0 L619 730 Z M680 84 L511 84 L511 183 L679 422 L784 422 L784 179 L846 179 L846 84 L784 84 L784 0 L680 0 L680 84 Z M158 302 Q115 302 74 314.5 Q33 327 5 355 L90 432 Q117 404 151 404 Q171 404 183.5 413.5 Q196 423 196 440 Q196 457 179.5 465 Q163 473 137 473 L93 473 L93 571 L135 571 Q160 571 173.5 580.5 Q187 590 187 607 Q187 638 144 638 Q128 638 114 630.5 Q100 623 92 610 L12 679 Q37 706 74.5 721 Q112 736 148 736 Q218 736 261.5 702.5 Q305 669 305 611 Q305 561 263 528 Q288 513 301.5 490 Q315 467 315 437 Q315 409 304 384 Q293 359 272.5 341 Q252 323 223 312.5 Q194 302 158 302 Z M680 179 L680 256 L627 179 L680 179 Z " />
<glyph glyph-name="questiondown" unicode="&#xbf;" horiz-adv-x="517" d="M263 -240 Q212 -240 170 -225 Q128 -210 97 -182.5 Q66 -155 49 -116.5 Q32 -78 32 -31 Q32 17 45.5 47 Q59 77 79.5 98.5 Q100 120 123.5 137.5 Q147 155 167.5 176 Q188 197 201.5 226 Q215 255 215 301 L215 312 L335 312 L335 301 Q335 240 323 200 Q311 160 292.5 133 Q274 106 252.5 88 Q231 70 212.5 53 Q194 36 182 16.5 Q170 -3 170 -33 Q170 -71 195.5 -96.5 Q221 -122 265 -122 Q306 -122 331.5 -97.5 Q357 -73 366 -36 L492 -79 Q473 -151 416 -195.5 Q359 -240 263 -240 Z M194 431 Q194 468 216 490.5 Q238 513 276 513 Q314 513 335.5 490.5 Q357 468 357 431 Q357 395 335 372.5 Q313 350 275 350 Q237 350 215.5 372.5 Q194 395 194 431 Z " />
<glyph glyph-name="Agrave" unicode="&#xc0;" horiz-adv-x="687" d="M275 730 L412 730 L672 0 L530 0 L485 130 L202 130 L157 0 L15 0 L275 730 Z M248 260 L440 260 L344 537 L248 260 Z M150 950 L277 950 L391 780 L300 780 L150 950 Z " />
<glyph glyph-name="Aacute" unicode="&#xc1;" horiz-adv-x="687" d="M275 730 L412 730 L672 0 L530 0 L485 130 L202 130 L157 0 L15 0 L275 730 Z M248 260 L440 260 L344 537 L248 260 Z M412 950 L538 950 L388 780 L297 780 L412 950 Z " />
<glyph glyph-name="Acircumflex" unicode="&#xc2;" horiz-adv-x="687" d="M275 730 L412 730 L672 0 L530 0 L485 130 L202 130 L157 0 L15 0 L275 730 Z M300 950 L384 950 L503 780 L401 780 L342 869 L283 780 L181 780 L300 950 Z M248 260 L440 260 L344 537 L248 260 Z " />
<glyph glyph-name="Atilde" unicode="&#xc3;" horiz-adv-x="687" d="M275 730 L412 730 L672 0 L530 0 L485 130 L202 130 L157 0 L15 0 L275 730 Z M173 780 Q173 841 200.5 878 Q228 915 277 915 Q302 915 320 907.5 Q338 900 354 891 Q368 881 380.5 873.5 Q393 866 406 866 Q434 866 434 911 L512 911 Q512 849 486 812.5 Q460 776 407 776 Q378 776 357.5 786.5 Q337 797 320 807 Q309 814 298.5 819 Q288 824 277 824 Q251 824 251 780 L173 780 Z M248 260 L440 260 L344 537 L248 260 Z " />
<glyph glyph-name="Adieresis" unicode="&#xc4;" horiz-adv-x="687" d="M275 730 L412 730 L672 0 L530 0 L485 130 L202 130 L157 0 L15 0 L275 730 Z M248 260 L440 260 L344 537 L248 260 Z M176 849 Q176 881 195.5 901 Q215 921 248 921 Q282 921 301 901 Q320 881 320 849 Q320 817 301 797.5 Q282 778 248 778 Q214 778 195 797.5 Q176 817 176 849 Z M367 849 Q367 881 386.5 901 Q406 921 439 921 Q472 921 491.5 901 Q511 881 511 849 Q511 817 491.5 797.5 Q472 778 439 778 Q404 778 385.5 797.5 Q367 817 367 849 Z " />
<glyph glyph-name="Aring" unicode="&#xc5;" horiz-adv-x="687" d="M260 688 Q245 704 236 725 Q227 746 227 770 Q227 795 236 816.5 Q245 838 261 854 Q277 870 298 879 Q319 888 343 888 Q367 888 388.5 879 Q410 870 426 854 Q442 838 451 816.5 Q460 795 460 770 Q460 746 451 725 Q442 704 426 688 L672 0 L530 0 L485 130 L202 130 L157 0 L15 0 L260 688 Z M248 260 L440 260 L344 537 L248 260 Z M343 731 Q360 731 372 742.5 Q384 754 384 770 Q384 787 372 799 Q360 811 343 811 Q326 811 314.5 799 Q303 787 303 770 Q303 754 314.5 742.5 Q326 731 343 731 Z " />
<glyph glyph-name="AE" unicode="&#xc6;" horiz-adv-x="938" d="M346 730 L904 730 L904 600 L518 600 L560 432 L904 432 L904 302 L593 302 L636 130 L904 130 L904 0 L526 0 L494 129 L213 129 L155 0 L13 0 L346 730 Z M269 255 L463 255 L395 534 L269 255 Z " />
<glyph glyph-name="Ccedilla" unicode="&#xc7;" horiz-adv-x="738" d="M388 -240 Q348 -240 310.5 -223.5 Q273 -207 244 -181 L322 -134 Q339 -148 355.5 -158 Q372 -168 398 -168 Q420 -168 436.5 -159 Q453 -150 453 -137 Q453 -110 395 -110 L345 -110 L345 -6 Q272 3 212 35 Q152 67 110 116.5 Q68 166 45 229.5 Q22 293 22 365 Q22 447 51 515.5 Q80 584 130.5 634 Q181 684 249.5 712 Q318 740 397 740 Q448 740 495.5 727 Q543 714 584.5 690.5 Q626 667 659.5 633.5 Q693 600 717 559 L598 483 Q566 540 517 573 Q468 606 397 606 Q345 606 301 587.5 Q257 569 225 536.5 Q193 504 175 460 Q157 416 157 365 Q157 315 175 271.5 Q193 228 224.5 195.5 Q256 163 299.5 144.5 Q343 126 394 126 Q470 126 522.5 164.5 Q575 203 604 263 L728 198 Q683 111 605.5 55.5 Q528 0 429 -8 L429 -53 Q485 -51 514.5 -73.5 Q544 -96 544 -133 Q544 -156 532 -176 Q520 -196 499 -210 Q478 -224 449.5 -232 Q421 -240 388 -240 Z " />
<glyph glyph-name="Egrave" unicode="&#xc8;" horiz-adv-x="509" d="M42 730 L475 730 L475 600 L178 600 L178 432 L475 432 L475 302 L178 302 L178 130 L475 130 L475 0 L42 0 L42 730 Z M72 950 L199 950 L313 780 L222 780 L72 950 Z " />
<glyph glyph-name="Eacute" unicode="&#xc9;" horiz-adv-x="509" d="M42 730 L475 730 L475 600 L178 600 L178 432 L475 432 L475 302 L178 302 L178 130 L475 130 L475 0 L42 0 L42 730 Z M317 950 L443 950 L293 780 L202 780 L317 950 Z " />
<glyph glyph-name="Ecircumflex" unicode="&#xca;" horiz-adv-x="509" d="M42 730 L475 730 L475 600 L178 600 L178 432 L475 432 L475 302 L178 302 L178 130 L475 130 L475 0 L42 0 L42 730 Z M216 950 L300 950 L419 780 L317 780 L258 869 L199 780 L97 780 L216 950 Z " />
<glyph glyph-name="Edieresis" unicode="&#xcb;" horiz-adv-x="509" d="M42 730 L475 730 L475 600 L178 600 L178 432 L475 432 L475 302 L178 302 L178 130 L475 130 L475 0 L42 0 L42 730 Z M95 849 Q95 881 114.5 901 Q134 921 167 921 Q201 921 220 901 Q239 881 239 849 Q239 817 220 797.5 Q201 778 167 778 Q133 778 114 797.5 Q95 817 95 849 Z M286 849 Q286 881 305.5 901 Q325 921 358 921 Q391 921 410.5 901 Q430 881 430 849 Q430 817 410.5 797.5 Q391 778 358 778 Q323 778 304.5 797.5 Q286 817 286 849 Z " />
<glyph glyph-name="Igrave" unicode="&#xcc;" horiz-adv-x="230" d="M47 730 L183 730 L183 0 L47 0 L47 730 Z M-80 950 L47 950 L161 780 L70 780 L-80 950 Z " />
<glyph glyph-name="Iacute" unicode="&#xcd;" horiz-adv-x="230" d="M47 730 L183 730 L183 0 L47 0 L47 730 Z M185 950 L311 950 L161 780 L70 780 L185 950 Z " />
<glyph glyph-name="Icircumflex" unicode="&#xce;" horiz-adv-x="230" d="M47 730 L183 730 L183 0 L47 0 L47 730 Z M73 950 L157 950 L276 780 L174 780 L115 869 L56 780 L-46 780 L73 950 Z " />
<glyph glyph-name="Idieresis" unicode="&#xcf;" horiz-adv-x="230" d="M152 918 L286 918 L286 781 L152 781 L152 918 Z M-55 918 L79 918 L79 781 L-55 781 L-55 918 Z M47 730 L183 730 L183 0 L47 0 L47 730 Z " />
<glyph glyph-name="Eth" unicode="&#xd0;" horiz-adv-x="695" d="M20 424 L89 424 L89 730 L288 730 Q380 730 452 702 Q524 674 573.5 625 Q623 576 648.5 509.5 Q674 443 674 365 Q674 287 646 220 Q618 153 567.5 104.5 Q517 56 447 28 Q377 0 294 0 L89 0 L89 309 L20 309 L20 424 Z M225 604 L225 424 L390 424 L390 309 L225 309 L225 126 L278 126 Q338 126 386 144 Q434 162 467.5 194.5 Q501 227 519.5 270.5 Q538 314 538 365 Q538 418 522 461.5 Q506 505 473 537 Q440 569 390 586.5 Q340 604 272 604 L225 604 Z " />
<glyph glyph-name="Ntilde" unicode="&#xd1;" horiz-adv-x="690" d="M42 730 L196 730 L512 233 L512 730 L648 730 L648 0 L503 0 L178 513 L178 0 L42 0 L42 730 Z M174 780 Q174 841 201.5 878 Q229 915 278 915 Q303 915 321 907.5 Q339 900 355 891 Q369 881 381.5 873.5 Q394 866 407 866 Q435 866 435 911 L513 911 Q513 849 487 812.5 Q461 776 408 776 Q379 776 358.5 786.5 Q338 797 321 807 Q310 814 299.5 819 Q289 824 278 824 Q252 824 252 780 L174 780 Z " />
<glyph glyph-name="Ograve" unicode="&#xd2;" horiz-adv-x="790" d="M395 -10 Q317 -10 249 19.5 Q181 49 130.5 99.5 Q80 150 51 218.5 Q22 287 22 365 Q22 443 51 511 Q80 579 130.5 630 Q181 681 249 710.5 Q317 740 395 740 Q473 740 541 710.5 Q609 681 660 630 Q711 579 740 511 Q769 443 769 365 Q769 287 740 218.5 Q711 150 660 99.5 Q609 49 541 19.5 Q473 -10 395 -10 Z M395 124 Q445 124 488.5 143 Q532 162 564.5 194.5 Q597 227 615.5 271 Q634 315 634 365 Q634 415 615.5 459 Q597 503 564.5 535.5 Q532 568 488.5 587 Q445 606 395 606 Q345 606 301.5 587 Q258 568 226 535.5 Q194 503 175.5 459 Q157 415 157 365 Q157 315 175.5 271 Q194 227 226 194.5 Q258 162 301.5 143 Q345 124 395 124 Z M199 950 L326 950 L440 780 L349 780 L199 950 Z " />
<glyph glyph-name="Oacute" unicode="&#xd3;" horiz-adv-x="790" d="M458 950 L584 950 L434 780 L343 780 L458 950 Z M395 -10 Q317 -10 249 19.5 Q181 49 130.5 99.5 Q80 150 51 218.5 Q22 287 22 365 Q22 443 51 511 Q80 579 130.5 630 Q181 681 249 710.5 Q317 740 395 740 Q473 740 541 710.5 Q609 681 660 630 Q711 579 740 511 Q769 443 769 365 Q769 287 740 218.5 Q711 150 660 99.5 Q609 49 541 19.5 Q473 -10 395 -10 Z M395 124 Q445 124 488.5 143 Q532 162 564.5 194.5 Q597 227 615.5 271 Q634 315 634 365 Q634 415 615.5 459 Q597 503 564.5 535.5 Q532 568 488.5 587 Q445 606 395 606 Q345 606 301.5 587 Q258 568 226 535.5 Q194 503 175.5 459 Q157 415 157 365 Q157 315 175.5 271 Q194 227 226 194.5 Q258 162 301.5 143 Q345 124 395 124 Z " />
<glyph glyph-name="Ocircumflex" unicode="&#xd4;" horiz-adv-x="790" d="M395 -10 Q317 -10 249 19.5 Q181 49 130.5 99.5 Q80 150 51 218.5 Q22 287 22 365 Q22 443 51 511 Q80 579 130.5 630 Q181 681 249 710.5 Q317 740 395 740 Q473 740 541 710.5 Q609 681 660 630 Q711 579 740 511 Q769 443 769 365 Q769 287 740 218.5 Q711 150 660 99.5 Q609 49 541 19.5 Q473 -10 395 -10 Z M395 124 Q445 124 488.5 143 Q532 162 564.5 194.5 Q597 227 615.5 271 Q634 315 634 365 Q634 415 615.5 459 Q597 503 564.5 535.5 Q532 568 488.5 587 Q445 606 395 606 Q345 606 301.5 587 Q258 568 226 535.5 Q194 503 175.5 459 Q157 415 157 365 Q157 315 175.5 271 Q194 227 226 194.5 Q258 162 301.5 143 Q345 124 395 124 Z M349 950 L433 950 L552 780 L450 780 L391 869 L332 780 L230 780 L349 950 Z " />
<glyph glyph-name="Otilde" unicode="&#xd5;" horiz-adv-x="790" d="M395 -10 Q317 -10 249 19.5 Q181 49 130.5 99.5 Q80 150 51 218.5 Q22 287 22 365 Q22 443 51 511 Q80 579 130.5 630 Q181 681 249 710.5 Q317 740 395 740 Q473 740 541 710.5 Q609 681 660 630 Q711 579 740 511 Q769 443 769 365 Q769 287 740 218.5 Q711 150 660 99.5 Q609 49 541 19.5 Q473 -10 395 -10 Z M395 124 Q445 124 488.5 143 Q532 162 564.5 194.5 Q597 227 615.5 271 Q634 315 634 365 Q634 415 615.5 459 Q597 503 564.5 535.5 Q532 568 488.5 587 Q445 606 395 606 Q345 606 301.5 587 Q258 568 226 535.5 Q194 503 175.5 459 Q157 415 157 365 Q157 315 175.5 271 Q194 227 226 194.5 Q258 162 301.5 143 Q345 124 395 124 Z M220 780 Q220 841 247.5 878 Q275 915 324 915 Q349 915 367 907.5 Q385 900 401 891 Q415 881 427.5 873.5 Q440 866 453 866 Q481 866 481 911 L559 911 Q559 849 533 812.5 Q507 776 454 776 Q425 776 404.5 786.5 Q384 797 367 807 Q356 814 345.5 819 Q335 824 324 824 Q298 824 298 780 L220 780 Z " />
<glyph glyph-name="Odieresis" unicode="&#xd6;" horiz-adv-x="790" d="M221 849 Q221 881 240.5 901 Q260 921 293 921 Q327 921 346 901 Q365 881 365 849 Q365 817 346 797.5 Q327 778 293 778 Q259 778 240 797.5 Q221 817 221 849 Z M412 849 Q412 881 431.5 901 Q451 921 484 921 Q517 921 536.5 901 Q556 881 556 849 Q556 817 536.5 797.5 Q517 778 484 778 Q449 778 430.5 797.5 Q412 817 412 849 Z M395 -10 Q317 -10 249 19.5 Q181 49 130.5 99.5 Q80 150 51 218.5 Q22 287 22 365 Q22 443 51 511 Q80 579 130.5 630 Q181 681 249 710.5 Q317 740 395 740 Q473 740 541 710.5 Q609 681 660 630 Q711 579 740 511 Q769 443 769 365 Q769 287 740 218.5 Q711 150 660 99.5 Q609 49 541 19.5 Q473 -10 395 -10 Z M395 124 Q445 124 488.5 143 Q532 162 564.5 194.5 Q597 227 615.5 271 Q634 315 634 365 Q634 415 615.5 459 Q597 503 564.5 535.5 Q532 568 488.5 587 Q445 606 395 606 Q345 606 301.5 587 Q258 568 226 535.5 Q194 503 175.5 459 Q157 415 157 365 Q157 315 175.5 271 Q194 227 226 194.5 Q258 162 301.5 143 Q345 124 395 124 Z " />
<glyph glyph-name="multiply" unicode="&#xd7;" horiz-adv-x="442" d="M37 258 L142 363 L36 469 L115 548 L221 442 L327 548 L406 469 L300 363 L405 258 L326 179 L221 284 L116 179 L37 258 Z " />
<glyph glyph-name="Oslash" unicode="&#xd8;" horiz-adv-x="790" d="M116 114 Q71 165 46.5 228.5 Q22 292 22 365 Q22 443 51 511 Q80 579 130.5 630 Q181 681 249 710.5 Q317 740 395 740 Q446 740 492.5 726.5 Q539 713 581 690 L614 730 L771 730 L676 613 Q720 563 744.5 500 Q769 437 769 365 Q769 287 740 218.5 Q711 150 660 99.5 Q609 49 541 19.5 Q473 -10 395 -10 Q344 -10 298 2.5 Q252 15 211 38 L181 0 L24 0 L116 114 Z M157 365 Q157 324 169 287.5 Q181 251 203 221 L495 583 Q472 594 447 600 Q422 606 395 606 Q345 606 301.5 587 Q258 568 226 535.5 Q194 503 175.5 459 Q157 415 157 365 Z M395 124 Q445 124 488.5 143 Q532 162 564.5 194.5 Q597 227 615.5 271 Q634 315 634 365 Q634 404 622 440 Q610 476 589 505 L298 144 Q343 124 395 124 Z " />
<glyph glyph-name="Ugrave" unicode="&#xd9;" horiz-adv-x="608" d="M304 -10 Q247 -10 199 7 Q151 24 115.5 57 Q80 90 60.5 139 Q41 188 41 252 L41 730 L177 730 L177 244 Q177 217 186.5 193.5 Q196 170 213 153 Q230 136 253 126 Q276 116 303 116 Q330 116 353 126 Q376 136 393.5 153 Q411 170 421 193.5 Q431 217 431 244 L431 730 L567 730 L567 252 Q567 188 547 139 Q527 90 492 57 Q457 24 409 7 Q361 -10 304 -10 Z M117 950 L244 950 L358 780 L267 780 L117 950 Z " />
<glyph glyph-name="Uacute" unicode="&#xda;" horiz-adv-x="608" d="M365 950 L491 950 L341 780 L250 780 L365 950 Z M304 -10 Q247 -10 199 7 Q151 24 115.5 57 Q80 90 60.5 139 Q41 188 41 252 L41 730 L177 730 L177 244 Q177 217 186.5 193.5 Q196 170 213 153 Q230 136 253 126 Q276 116 303 116 Q330 116 353 126 Q376 136 393.5 153 Q411 170 421 193.5 Q431 217 431 244 L431 730 L567 730 L567 252 Q567 188 547 139 Q527 90 492 57 Q457 24 409 7 Q361 -10 304 -10 Z " />
<glyph glyph-name="Ucircumflex" unicode="&#xdb;" horiz-adv-x="608" d="M304 -10 Q247 -10 199 7 Q151 24 115.5 57 Q80 90 60.5 139 Q41 188 41 252 L41 730 L177 730 L177 244 Q177 217 186.5 193.5 Q196 170 213 153 Q230 136 253 126 Q276 116 303 116 Q330 116 353 126 Q376 136 393.5 153 Q411 170 421 193.5 Q431 217 431 244 L431 730 L567 730 L567 252 Q567 188 547 139 Q527 90 492 57 Q457 24 409 7 Q361 -10 304 -10 Z M262 950 L346 950 L465 780 L363 780 L304 869 L245 780 L143 780 L262 950 Z " />
<glyph glyph-name="Udieresis" unicode="&#xdc;" horiz-adv-x="608" d="M141 849 Q141 881 160.5 901 Q180 921 213 921 Q247 921 266 901 Q285 881 285 849 Q285 817 266 797.5 Q247 778 213 778 Q179 778 160 797.5 Q141 817 141 849 Z M332 849 Q332 881 351.5 901 Q371 921 404 921 Q437 921 456.5 901 Q476 881 476 849 Q476 817 456.5 797.5 Q437 778 404 778 Q369 778 350.5 797.5 Q332 817 332 849 Z M304 -10 Q247 -10 199 7 Q151 24 115.5 57 Q80 90 60.5 139 Q41 188 41 252 L41 730 L177 730 L177 244 Q177 217 186.5 193.5 Q196 170 213 153 Q230 136 253 126 Q276 116 303 116 Q330 116 353 126 Q376 136 393.5 153 Q411 170 421 193.5 Q431 217 431 244 L431 730 L567 730 L567 252 Q567 188 547 139 Q527 90 492 57 Q457 24 409 7 Q361 -10 304 -10 Z " />
<glyph glyph-name="Yacute" unicode="&#xdd;" horiz-adv-x="629" d="M245 346 L13 730 L163 730 L314 477 L466 730 L616 730 L381 343 L381 0 L245 0 L245 346 Z M379 950 L505 950 L355 780 L264 780 L379 950 Z " />
<glyph glyph-name="Thorn" unicode="&#xde;" horiz-adv-x="558" d="M42 730 L178 730 L178 603 L299 603 Q350 603 392.5 585 Q435 567 465.5 535.5 Q496 504 513.5 461.5 Q531 419 531 371 Q531 323 513.5 280.5 Q496 238 465.5 206.5 Q435 175 392 157 Q349 139 298 139 L178 139 L178 0 L42 0 L42 730 Z M178 477 L178 265 L291 265 Q339 265 367.5 295.5 Q396 326 396 371 Q396 415 367.5 446 Q339 477 291 477 L178 477 Z " />
<glyph glyph-name="germandbls" unicode="&#xdf;" horiz-adv-x="589" d="M-80 -142 Q-42 -142 -18.5 -137 Q5 -132 17.5 -118.5 Q30 -105 34.5 -82.5 Q39 -60 39 -24 L39 601 Q37 657 53 703.5 Q69 750 101 783.5 Q133 817 181 835.5 Q229 854 291 854 Q346 854 392 836.5 Q438 819 471 788 Q504 757 522 713.5 Q540 670 540 619 Q540 558 509.5 512 Q479 466 424 443 Q455 433 482 414.5 Q509 396 528.5 370.5 Q548 345 559 313 Q570 281 570 245 Q570 189 551 142 Q532 95 497.5 61 Q463 27 414.5 8 Q366 -11 306 -11 Q286 -11 265 -9 Q244 -7 227 0 L227 122 Q231 119 241 117 Q251 115 263 113.5 Q275 112 286.5 111.5 Q298 111 304 111 Q331 111 354.5 121 Q378 131 395.5 149 Q413 167 422.5 191.5 Q432 216 432 244 Q432 271 421 294.5 Q410 318 390 336 Q370 354 340.5 364.5 Q311 375 275 375 L249 375 L249 498 L275 498 Q335 498 371.5 533 Q408 568 408 620 Q408 645 399.5 666.5 Q391 688 376 704.5 Q361 721 339 730.5 Q317 740 290 740 Q234 740 200.5 709 Q167 678 167 615 L167 -24 Q167 -92 156 -138.5 Q145 -185 119 -214 Q93 -243 49.5 -256 Q6 -269 -59 -269 L-80 -269 L-80 -142 Z " />
<glyph glyph-name="agrave" unicode="&#xe0;" horiz-adv-x="671" d="M308 -12 Q255 -12 203.5 8.5 Q152 29 111 68 Q70 107 45 163.5 Q20 220 20 292 Q20 365 44.5 421.5 Q69 478 109.5 517 Q150 556 202.5 576.5 Q255 597 310 597 Q368 597 417 575 Q466 553 498 515 L498 585 L633 585 L633 0 L498 0 L498 76 Q466 35 416 11.5 Q366 -12 308 -12 Z M330 112 Q368 112 400 126 Q432 140 455 165 Q478 190 491.5 223 Q505 256 505 294 Q505 331 491.5 364 Q478 397 455 421.5 Q432 446 400 460 Q368 474 330 474 Q293 474 260.5 460 Q228 446 204 422 Q180 398 166.5 365 Q153 332 153 294 Q153 256 166.5 222.5 Q180 189 204 164.5 Q228 140 260.5 126 Q293 112 330 112 Z M136 815 L263 815 L377 645 L286 645 L136 815 Z " />
<glyph glyph-name="aacute" unicode="&#xe1;" horiz-adv-x="671" d="M308 -12 Q255 -12 203.5 8.5 Q152 29 111 68 Q70 107 45 163.5 Q20 220 20 292 Q20 365 44.5 421.5 Q69 478 109.5 517 Q150 556 202.5 576.5 Q255 597 310 597 Q368 597 417 575 Q466 553 498 515 L498 585 L633 585 L633 0 L498 0 L498 76 Q466 35 416 11.5 Q366 -12 308 -12 Z M330 112 Q368 112 400 126 Q432 140 455 165 Q478 190 491.5 223 Q505 256 505 294 Q505 331 491.5 364 Q478 397 455 421.5 Q432 446 400 460 Q368 474 330 474 Q293 474 260.5 460 Q228 446 204 422 Q180 398 166.5 365 Q153 332 153 294 Q153 256 166.5 222.5 Q180 189 204 164.5 Q228 140 260.5 126 Q293 112 330 112 Z M386 815 L512 815 L362 645 L271 645 L386 815 Z " />
<glyph glyph-name="acircumflex" unicode="&#xe2;" horiz-adv-x="671" d="M308 -12 Q255 -12 203.5 8.5 Q152 29 111 68 Q70 107 45 163.5 Q20 220 20 292 Q20 365 44.5 421.5 Q69 478 109.5 517 Q150 556 202.5 576.5 Q255 597 310 597 Q368 597 417 575 Q466 553 498 515 L498 585 L633 585 L633 0 L498 0 L498 76 Q466 35 416 11.5 Q366 -12 308 -12 Z M330 112 Q368 112 400 126 Q432 140 455 165 Q478 190 491.5 223 Q505 256 505 294 Q505 331 491.5 364 Q478 397 455 421.5 Q432 446 400 460 Q368 474 330 474 Q293 474 260.5 460 Q228 446 204 422 Q180 398 166.5 365 Q153 332 153 294 Q153 256 166.5 222.5 Q180 189 204 164.5 Q228 140 260.5 126 Q293 112 330 112 Z M286 812 L370 812 L489 642 L387 642 L328 731 L269 642 L167 642 L286 812 Z " />
<glyph glyph-name="atilde" unicode="&#xe3;" horiz-adv-x="671" d="M308 -12 Q255 -12 203.5 8.5 Q152 29 111 68 Q70 107 45 163.5 Q20 220 20 292 Q20 365 44.5 421.5 Q69 478 109.5 517 Q150 556 202.5 576.5 Q255 597 310 597 Q368 597 417 575 Q466 553 498 515 L498 585 L633 585 L633 0 L498 0 L498 76 Q466 35 416 11.5 Q366 -12 308 -12 Z M330 112 Q368 112 400 126 Q432 140 455 165 Q478 190 491.5 223 Q505 256 505 294 Q505 331 491.5 364 Q478 397 455 421.5 Q432 446 400 460 Q368 474 330 474 Q293 474 260.5 460 Q228 446 204 422 Q180 398 166.5 365 Q153 332 153 294 Q153 256 166.5 222.5 Q180 189 204 164.5 Q228 140 260.5 126 Q293 112 330 112 Z M163 645 Q163 706 190.5 743 Q218 780 267 780 Q292 780 310 772.5 Q328 765 344 756 Q358 746 370.5 738.5 Q383 731 396 731 Q424 731 424 776 L502 776 Q502 714 476 677.5 Q450 641 397 641 Q368 641 347.5 651.5 Q327 662 310 672 Q299 679 288.5 684 Q278 689 267 689 Q241 689 241 645 L163 645 Z " />
<glyph glyph-name="adieresis" unicode="&#xe4;" horiz-adv-x="671" d="M308 -12 Q255 -12 203.5 8.5 Q152 29 111 68 Q70 107 45 163.5 Q20 220 20 292 Q20 365 44.5 421.5 Q69 478 109.5 517 Q150 556 202.5 576.5 Q255 597 310 597 Q368 597 417 575 Q466 553 498 515 L498 585 L633 585 L633 0 L498 0 L498 76 Q466 35 416 11.5 Q366 -12 308 -12 Z M330 112 Q368 112 400 126 Q432 140 455 165 Q478 190 491.5 223 Q505 256 505 294 Q505 331 491.5 364 Q478 397 455 421.5 Q432 446 400 460 Q368 474 330 474 Q293 474 260.5 460 Q228 446 204 422 Q180 398 166.5 365 Q153 332 153 294 Q153 256 166.5 222.5 Q180 189 204 164.5 Q228 140 260.5 126 Q293 112 330 112 Z M156 713 Q156 745 175.5 765 Q195 785 228 785 Q262 785 281 765 Q300 745 300 713 Q300 681 281 661.5 Q262 642 228 642 Q194 642 175 661.5 Q156 681 156 713 Z M347 713 Q347 745 366.5 765 Q386 785 419 785 Q452 785 471.5 765 Q491 745 491 713 Q491 681 471.5 661.5 Q452 642 419 642 Q384 642 365.5 661.5 Q347 681 347 713 Z " />
<glyph glyph-name="aring" unicode="&#xe5;" horiz-adv-x="671" d="M308 -12 Q255 -12 203.5 8.5 Q152 29 111 68 Q70 107 45 163.5 Q20 220 20 292 Q20 365 44.5 421.5 Q69 478 109.5 517 Q150 556 202.5 576.5 Q255 597 310 597 Q368 597 417 575 Q466 553 498 515 L498 585 L633 585 L633 0 L498 0 L498 76 Q466 35 416 11.5 Q366 -12 308 -12 Z M330 112 Q368 112 400 126 Q432 140 455 165 Q478 190 491.5 223 Q505 256 505 294 Q505 331 491.5 364 Q478 397 455 421.5 Q432 446 400 460 Q368 474 330 474 Q293 474 260.5 460 Q228 446 204 422 Q180 398 166.5 365 Q153 332 153 294 Q153 256 166.5 222.5 Q180 189 204 164.5 Q228 140 260.5 126 Q293 112 330 112 Z M329 640 Q305 640 284 649 Q263 658 247 674 Q231 690 222 711 Q213 732 213 756 Q213 781 222 802.5 Q231 824 247 840 Q263 856 284 865 Q305 874 329 874 Q353 874 374.5 865 Q396 856 412 840 Q428 824 437 802.5 Q446 781 446 756 Q446 732 437 711 Q428 690 412 674 Q396 658 374.5 649 Q353 640 329 640 Z M329 717 Q346 717 358 728.5 Q370 740 370 756 Q370 773 358 785 Q346 797 329 797 Q312 797 300.5 785 Q289 773 289 756 Q289 740 300.5 728.5 Q312 717 329 717 Z " />
<glyph glyph-name="ae" unicode="&#xe6;" horiz-adv-x="1035" d="M719 -12 Q635 -12 571.5 21 Q508 54 469 111 Q454 86 430.5 63.5 Q407 41 376 24 Q345 7 308 -2.5 Q271 -12 230 -12 Q175 -12 135 0.5 Q95 13 69 35.5 Q43 58 30.5 88 Q18 118 18 154 Q18 195 32.5 225 Q47 255 73 277 Q99 299 134.5 313.5 Q170 328 211 338 Q248 348 283 356 Q318 364 345.5 373.5 Q373 383 390 395.5 Q407 408 407 427 Q407 453 380 471.5 Q353 490 299 490 Q226 490 192 457.5 Q158 425 158 380 L158 377 L34 377 L34 379 Q34 482 102.5 539.5 Q171 597 293 597 Q365 597 419 575.5 Q473 554 503 512 Q543 552 596.5 574.5 Q650 597 713 597 Q778 597 833 574.5 Q888 552 928.5 511.5 Q969 471 992 416 Q1015 361 1015 296 L1015 249 L538 249 Q550 185 597.5 146 Q645 107 719 107 Q776 107 820 136.5 Q864 166 885 213 L999 164 Q962 84 889 36 Q816 -12 719 -12 Z M237 100 Q273 100 304 114.5 Q335 129 358 149.5 Q381 170 395 193.5 Q409 217 412 235 Q412 236 412.5 244.5 Q413 253 412.5 263.5 Q412 274 411.5 283 Q411 292 410 294 Q405 280 369 267.5 Q333 255 276 242 Q214 228 183.5 210.5 Q153 193 153 158 Q153 132 172.5 116 Q192 100 237 100 Z M713 478 Q653 478 610 446 Q567 414 547 362 L877 362 Q860 419 817 448.5 Q774 478 713 478 Z " />
<glyph glyph-name="ccedilla" unicode="&#xe7;" horiz-adv-x="617" d="M316 -245 Q276 -245 238.5 -228.5 Q201 -212 172 -186 L250 -139 Q267 -153 283.5 -163 Q300 -173 326 -173 Q348 -173 364.5 -164 Q381 -155 381 -142 Q381 -115 323 -115 L273 -115 L273 -8 Q218 1 172 28 Q126 55 92 94.5 Q58 134 39 184.5 Q20 235 20 292 Q20 356 43.5 411.5 Q67 467 108 508.5 Q149 550 204.5 573.5 Q260 597 324 597 Q373 597 416.5 583.5 Q460 570 496 546 Q532 522 559 489 Q586 456 603 416 L482 365 Q462 413 420.5 441.5 Q379 470 325 470 Q288 470 256.5 456 Q225 442 201.5 418 Q178 394 165 361.5 Q152 329 152 292 Q152 256 165 223.5 Q178 191 201.5 167 Q225 143 257 129 Q289 115 326 115 Q383 115 423.5 145.5 Q464 176 484 224 L605 172 Q573 97 510 47.5 Q447 -2 357 -10 L357 -58 Q413 -56 442.5 -78.5 Q472 -101 472 -138 Q472 -161 460 -181 Q448 -201 427 -215 Q406 -229 377.5 -237 Q349 -245 316 -245 Z " />
<glyph glyph-name="egrave" unicode="&#xe8;" horiz-adv-x="646" d="M329 -12 Q260 -12 203 11.5 Q146 35 105.5 76 Q65 117 42.5 172.5 Q20 228 20 291 Q20 355 43.5 411 Q67 467 108 508 Q149 549 204.5 573 Q260 597 324 597 Q389 597 444.5 574.5 Q500 552 540 511.5 Q580 471 602.5 416 Q625 361 625 296 L625 245 L149 245 Q163 183 210 145 Q257 107 329 107 Q386 107 428 135 Q470 163 491 210 L602 146 Q564 75 495.5 31.5 Q427 -12 329 -12 Z M324 478 Q263 478 218.5 445 Q174 412 156 358 L488 358 Q473 417 430 447.5 Q387 478 324 478 Z M156 810 L283 810 L397 640 L306 640 L156 810 Z " />
<glyph glyph-name="eacute" unicode="&#xe9;" horiz-adv-x="646" d="M329 -12 Q260 -12 203 11.5 Q146 35 105.5 76 Q65 117 42.5 172.5 Q20 228 20 291 Q20 355 43.5 411 Q67 467 108 508 Q149 549 204.5 573 Q260 597 324 597 Q389 597 444.5 574.5 Q500 552 540 511.5 Q580 471 602.5 416 Q625 361 625 296 L625 245 L149 245 Q163 183 210 145 Q257 107 329 107 Q386 107 428 135 Q470 163 491 210 L602 146 Q564 75 495.5 31.5 Q427 -12 329 -12 Z M324 478 Q263 478 218.5 445 Q174 412 156 358 L488 358 Q473 417 430 447.5 Q387 478 324 478 Z M394 815 L520 815 L370 645 L279 645 L394 815 Z " />
<glyph glyph-name="ecircumflex" unicode="&#xea;" horiz-adv-x="646" d="M329 -12 Q260 -12 203 11.5 Q146 35 105.5 76 Q65 117 42.5 172.5 Q20 228 20 291 Q20 355 43.5 411 Q67 467 108 508 Q149 549 204.5 573 Q260 597 324 597 Q389 597 444.5 574.5 Q500 552 540 511.5 Q580 471 602.5 416 Q625 361 625 296 L625 245 L149 245 Q163 183 210 145 Q257 107 329 107 Q386 107 428 135 Q470 163 491 210 L602 146 Q564 75 495.5 31.5 Q427 -12 329 -12 Z M324 478 Q263 478 218.5 445 Q174 412 156 358 L488 358 Q473 417 430 447.5 Q387 478 324 478 Z M287 809 L371 809 L490 639 L388 639 L329 728 L270 639 L168 639 L287 809 Z " />
<glyph glyph-name="edieresis" unicode="&#xeb;" horiz-adv-x="646" d="M329 -12 Q260 -12 203 11.5 Q146 35 105.5 76 Q65 117 42.5 172.5 Q20 228 20 291 Q20 355 43.5 411 Q67 467 108 508 Q149 549 204.5 573 Q260 597 324 597 Q389 597 444.5 574.5 Q500 552 540 511.5 Q580 471 602.5 416 Q625 361 625 296 L625 245 L149 245 Q163 183 210 145 Q257 107 329 107 Q386 107 428 135 Q470 163 491 210 L602 146 Q564 75 495.5 31.5 Q427 -12 329 -12 Z M324 478 Q263 478 218.5 445 Q174 412 156 358 L488 358 Q473 417 430 447.5 Q387 478 324 478 Z M156 703 Q156 735 175.5 755 Q195 775 228 775 Q262 775 281 755 Q300 735 300 703 Q300 671 281 651.5 Q262 632 228 632 Q194 632 175 651.5 Q156 671 156 703 Z M347 703 Q347 735 366.5 755 Q386 775 419 775 Q452 775 471.5 755 Q491 735 491 703 Q491 671 471.5 651.5 Q452 632 419 632 Q384 632 365.5 651.5 Q347 671 347 703 Z " />
<glyph glyph-name="igrave" unicode="&#xec;" horiz-adv-x="214" d="M39 585 L175 585 L175 0 L39 0 L39 585 Z M-91 805 L36 805 L150 635 L59 635 L-91 805 Z " />
<glyph glyph-name="iacute" unicode="&#xed;" horiz-adv-x="214" d="M170 805 L296 805 L146 635 L55 635 L170 805 Z M39 585 L175 585 L175 0 L39 0 L39 585 Z " />
<glyph glyph-name="icircumflex" unicode="&#xee;" horiz-adv-x="214" d="M39 585 L175 585 L175 0 L39 0 L39 585 Z M68 805 L152 805 L271 635 L169 635 L110 724 L51 635 L-51 635 L68 805 Z " />
<glyph glyph-name="idieresis" unicode="&#xef;" horiz-adv-x="214" d="M145 791 L280 791 L280 630 L145 630 L145 791 Z M-68 791 L68 791 L68 630 L-68 630 L-68 791 Z M39 585 L175 585 L175 0 L39 0 L39 585 Z " />
<glyph glyph-name="eth" unicode="&#xf0;" horiz-adv-x="661" d="M249 718 Q215 744 175.5 773 Q136 802 89 834 L282 834 Q299 821 314 808.5 Q329 796 343 784 L414 834 L540 834 L400 735 Q462 678 505.5 625 Q549 572 576 518.5 Q603 465 615 409.5 Q627 354 627 292 Q627 231 603.5 175.5 Q580 120 539 78.5 Q498 37 442.5 12.5 Q387 -12 323 -12 Q262 -12 207 10.5 Q152 33 110.5 74 Q69 115 44.5 172 Q20 229 20 297 Q20 360 44 414.5 Q68 469 107.5 509 Q147 549 198.5 572 Q250 595 305 595 Q343 595 369.5 586.5 Q396 578 416 563 Q376 615 308 671 L244 626 L116 626 L249 718 Z M323 115 Q359 115 390 129 Q421 143 444 167 Q467 191 480 223.5 Q493 256 493 292 Q493 329 480 361.5 Q467 394 444 418 Q421 442 390 456 Q359 470 323 470 Q287 470 255.5 456 Q224 442 201.5 418 Q179 394 166 361.5 Q153 329 153 292 Q153 256 166 223.5 Q179 191 201.5 167 Q224 143 255.5 129 Q287 115 323 115 Z " />
<glyph glyph-name="ntilde" unicode="&#xf1;" horiz-adv-x="618" d="M39 585 L173 585 L173 513 Q202 551 246.5 574 Q291 597 348 597 Q457 597 518.5 531 Q580 465 580 347 L580 0 L443 0 L443 333 Q443 401 410 440.5 Q377 480 311 480 Q253 480 213.5 439 Q174 398 174 321 L174 0 L39 0 L39 585 Z M167 646 Q167 707 194.5 744 Q222 781 271 781 Q296 781 314 773.5 Q332 766 348 757 Q362 747 374.5 739.5 Q387 732 400 732 Q428 732 428 777 L506 777 Q506 715 480 678.5 Q454 642 401 642 Q372 642 351.5 652.5 Q331 663 314 673 Q303 680 292.5 685 Q282 690 271 690 Q245 690 245 646 L167 646 Z " />
<glyph glyph-name="ograve" unicode="&#xf2;" horiz-adv-x="646" d="M323 -12 Q260 -12 204.5 11.5 Q149 35 108 76.5 Q67 118 43.5 173.5 Q20 229 20 292 Q20 340 33.5 383 Q47 426 71.5 462.5 Q96 499 130 527.5 Q164 556 205 573 L76 720 L203 720 L287 595 Q296 596 305 596.5 Q314 597 323 597 Q386 597 441 573.5 Q496 550 537.5 508.5 Q579 467 602.5 411.5 Q626 356 626 292 Q626 229 602.5 173.5 Q579 118 537.5 76.5 Q496 35 441 11.5 Q386 -12 323 -12 Z M323 115 Q359 115 390 129 Q421 143 444 167 Q467 191 480 223.5 Q493 256 493 292 Q493 329 480 361.5 Q467 394 444 418 Q421 442 390 456 Q359 470 323 470 Q287 470 255.5 456 Q224 442 201.5 418 Q179 394 166 361.5 Q153 329 153 292 Q153 256 166 223.5 Q179 191 201.5 167 Q224 143 255.5 129 Q287 115 323 115 Z " />
<glyph glyph-name="oacute" unicode="&#xf3;" horiz-adv-x="646" d="M392 815 L518 815 L368 645 L277 645 L392 815 Z M323 -12 Q260 -12 204.5 11.5 Q149 35 108 76.5 Q67 118 43.5 173.5 Q20 229 20 292 Q20 356 43.5 411.5 Q67 467 108 508.5 Q149 550 204.5 573.5 Q260 597 323 597 Q386 597 441 573.5 Q496 550 537.5 508.5 Q579 467 602.5 411.5 Q626 356 626 292 Q626 229 602.5 173.5 Q579 118 537.5 76.5 Q496 35 441 11.5 Q386 -12 323 -12 Z M323 115 Q359 115 390 129 Q421 143 444 167 Q467 191 480 223.5 Q493 256 493 292 Q493 329 480 361.5 Q467 394 444 418 Q421 442 390 456 Q359 470 323 470 Q287 470 255.5 456 Q224 442 201.5 418 Q179 394 166 361.5 Q153 329 153 292 Q153 256 166 223.5 Q179 191 201.5 167 Q224 143 255.5 129 Q287 115 323 115 Z " />
<glyph glyph-name="ocircumflex" unicode="&#xf4;" horiz-adv-x="646" d="M323 -12 Q260 -12 204.5 11.5 Q149 35 108 76.5 Q67 118 43.5 173.5 Q20 229 20 292 Q20 356 43.5 411.5 Q67 467 108 508.5 Q149 550 204.5 573.5 Q260 597 323 597 Q386 597 441 573.5 Q496 550 537.5 508.5 Q579 467 602.5 411.5 Q626 356 626 292 Q626 229 602.5 173.5 Q579 118 537.5 76.5 Q496 35 441 11.5 Q386 -12 323 -12 Z M323 115 Q359 115 390 129 Q421 143 444 167 Q467 191 480 223.5 Q493 256 493 292 Q493 329 480 361.5 Q467 394 444 418 Q421 442 390 456 Q359 470 323 470 Q287 470 255.5 456 Q224 442 201.5 418 Q179 394 166 361.5 Q153 329 153 292 Q153 256 166 223.5 Q179 191 201.5 167 Q224 143 255.5 129 Q287 115 323 115 Z M284 805 L368 805 L487 635 L385 635 L326 724 L267 635 L165 635 L284 805 Z " />
<glyph glyph-name="otilde" unicode="&#xf5;" horiz-adv-x="646" d="M323 -12 Q260 -12 204.5 11.5 Q149 35 108 76.5 Q67 118 43.5 173.5 Q20 229 20 292 Q20 356 43.5 411.5 Q67 467 108 508.5 Q149 550 204.5 573.5 Q260 597 323 597 Q386 597 441 573.5 Q496 550 537.5 508.5 Q579 467 602.5 411.5 Q626 356 626 292 Q626 229 602.5 173.5 Q579 118 537.5 76.5 Q496 35 441 11.5 Q386 -12 323 -12 Z M323 115 Q359 115 390 129 Q421 143 444 167 Q467 191 480 223.5 Q493 256 493 292 Q493 329 480 361.5 Q467 394 444 418 Q421 442 390 456 Q359 470 323 470 Q287 470 255.5 456 Q224 442 201.5 418 Q179 394 166 361.5 Q153 329 153 292 Q153 256 166 223.5 Q179 191 201.5 167 Q224 143 255.5 129 Q287 115 323 115 Z M165 643 Q165 704 192.5 741 Q220 778 269 778 Q294 778 312 770.5 Q330 763 346 754 Q360 744 372.5 736.5 Q385 729 398 729 Q426 729 426 774 L504 774 Q504 712 478 675.5 Q452 639 399 639 Q370 639 349.5 649.5 Q329 660 312 670 Q301 677 290.5 682 Q280 687 269 687 Q243 687 243 643 L165 643 Z " />
<glyph glyph-name="odieresis" unicode="&#xf6;" horiz-adv-x="646" d="M154 703 Q154 735 173.5 755 Q193 775 226 775 Q260 775 279 755 Q298 735 298 703 Q298 671 279 651.5 Q260 632 226 632 Q192 632 173 651.5 Q154 671 154 703 Z M345 703 Q345 735 364.5 755 Q384 775 417 775 Q450 775 469.5 755 Q489 735 489 703 Q489 671 469.5 651.5 Q450 632 417 632 Q382 632 363.5 651.5 Q345 671 345 703 Z M323 -12 Q260 -12 204.5 11.5 Q149 35 108 76.5 Q67 118 43.5 173.5 Q20 229 20 292 Q20 356 43.5 411.5 Q67 467 108 508.5 Q149 550 204.5 573.5 Q260 597 323 597 Q386 597 441 573.5 Q496 550 537.5 508.5 Q579 467 602.5 411.5 Q626 356 626 292 Q626 229 602.5 173.5 Q579 118 537.5 76.5 Q496 35 441 11.5 Q386 -12 323 -12 Z M323 115 Q359 115 390 129 Q421 143 444 167 Q467 191 480 223.5 Q493 256 493 292 Q493 329 480 361.5 Q467 394 444 418 Q421 442 390 456 Q359 470 323 470 Q287 470 255.5 456 Q224 442 201.5 418 Q179 394 166 361.5 Q153 329 153 292 Q153 256 166 223.5 Q179 191 201.5 167 Q224 143 255.5 129 Q287 115 323 115 Z " />
<glyph glyph-name="divide" unicode="&#xf7;" horiz-adv-x="442" d="M36 422 L406 422 L406 307 L36 307 L36 422 Z M165 579 L279 579 L279 462 L165 462 L165 579 Z M165 267 L279 267 L279 151 L165 151 L165 267 Z " />
<glyph glyph-name="oslash" unicode="&#xf8;" horiz-adv-x="646" d="M323 -12 Q283 -12 246.5 -2.5 Q210 7 178 24 L159 0 L20 0 L93 92 Q58 132 39 183 Q20 234 20 292 Q20 356 43.5 411.5 Q67 467 108 508.5 Q149 550 204.5 573.5 Q260 597 323 597 Q362 597 398 587.5 Q434 578 466 561 L485 585 L624 585 L551 493 Q586 453 606 401.5 Q626 350 626 292 Q626 229 602.5 173.5 Q579 118 537.5 76.5 Q496 35 441 11.5 Q386 -12 323 -12 Z M323 115 Q359 115 390 129 Q421 143 444.5 167 Q468 191 481 223.5 Q494 256 494 292 Q494 318 487 342.5 Q480 367 467 388 L260 127 Q289 115 323 115 Z M152 292 Q152 240 177 198 L384 458 Q356 470 323 470 Q286 470 255 456 Q224 442 201 418 Q178 394 165 361.5 Q152 329 152 292 Z " />
<glyph glyph-name="ugrave" unicode="&#xf9;" horiz-adv-x="608" d="M569 0 L435 0 L435 67 Q407 30 365 9 Q323 -12 267 -12 Q163 -12 102.5 54 Q42 120 42 238 L42 585 L179 585 L179 252 Q179 184 209.5 144.5 Q240 105 304 105 Q360 105 397 146 Q434 187 434 264 L434 585 L569 585 L569 0 Z M118 797 L245 797 L359 627 L268 627 L118 797 Z " />
<glyph glyph-name="uacute" unicode="&#xfa;" horiz-adv-x="608" d="M569 0 L435 0 L435 67 Q407 30 365 9 Q323 -12 267 -12 Q163 -12 102.5 54 Q42 120 42 238 L42 585 L179 585 L179 252 Q179 184 209.5 144.5 Q240 105 304 105 Q360 105 397 146 Q434 187 434 264 L434 585 L569 585 L569 0 Z M364 794 L490 794 L340 624 L249 624 L364 794 Z " />
<glyph glyph-name="ucircumflex" unicode="&#xfb;" horiz-adv-x="608" d="M569 0 L435 0 L435 67 Q407 30 365 9 Q323 -12 267 -12 Q163 -12 102.5 54 Q42 120 42 238 L42 585 L179 585 L179 252 Q179 184 209.5 144.5 Q240 105 304 105 Q360 105 397 146 Q434 187 434 264 L434 585 L569 585 L569 0 Z M260 805 L344 805 L463 635 L361 635 L302 724 L243 635 L141 635 L260 805 Z " />
<glyph glyph-name="udieresis" unicode="&#xfc;" horiz-adv-x="608" d="M569 0 L435 0 L435 67 Q407 30 365 9 Q323 -12 267 -12 Q163 -12 102.5 54 Q42 120 42 238 L42 585 L179 585 L179 252 Q179 184 209.5 144.5 Q240 105 304 105 Q360 105 397 146 Q434 187 434 264 L434 585 L569 585 L569 0 Z M138 703 Q138 735 157.5 755 Q177 775 210 775 Q244 775 263 755 Q282 735 282 703 Q282 671 263 651.5 Q244 632 210 632 Q176 632 157 651.5 Q138 671 138 703 Z M329 703 Q329 735 348.5 755 Q368 775 401 775 Q434 775 453.5 755 Q473 735 473 703 Q473 671 453.5 651.5 Q434 632 401 632 Q366 632 347.5 651.5 Q329 671 329 703 Z " />
<glyph glyph-name="yacute" unicode="&#xfd;" horiz-adv-x="618" d="M246 29 L6 585 L150 585 L313 191 L467 585 L609 585 L260 -270 L123 -270 L246 29 Z M372 781 L498 781 L348 611 L257 611 L372 781 Z " />
<glyph glyph-name="thorn" unicode="&#xfe;" horiz-adv-x="670" d="M365 -12 Q302 -12 253 13.5 Q204 39 173 80 L173 -269 L39 -269 L39 854 L173 854 L173 506 Q204 546 253 571.5 Q302 597 365 597 Q420 597 471.5 577 Q523 557 562.5 518 Q602 479 626 423 Q650 367 650 295 Q650 222 625.5 165 Q601 108 561 68.5 Q521 29 469.5 8.5 Q418 -12 365 -12 Z M343 112 Q381 112 413.5 126.5 Q446 141 469.5 165.5 Q493 190 506 223.5 Q519 257 519 295 Q519 332 506 364.5 Q493 397 469.5 421.5 Q446 446 414 460 Q382 474 343 474 Q306 474 274 460 Q242 446 218.5 421.5 Q195 397 182 364 Q169 331 169 294 Q169 257 182.5 224 Q196 191 219 166 Q242 141 274 126.5 Q306 112 343 112 Z " />
<glyph glyph-name="ydieresis" unicode="&#xff;" horiz-adv-x="618" d="M246 29 L6 585 L150 585 L313 191 L467 585 L609 585 L260 -270 L123 -270 L246 29 Z M144 703 Q144 735 163.5 755 Q183 775 216 775 Q250 775 269 755 Q288 735 288 703 Q288 671 269 651.5 Q250 632 216 632 Q182 632 163 651.5 Q144 671 144 703 Z M335 703 Q335 735 354.5 755 Q374 775 407 775 Q440 775 459.5 755 Q479 735 479 703 Q479 671 459.5 651.5 Q440 632 407 632 Q372 632 353.5 651.5 Q335 671 335 703 Z " />
<glyph glyph-name="Amacron" unicode="&#x100;" horiz-adv-x="687" d="M275 730 L412 730 L672 0 L530 0 L485 130 L202 130 L157 0 L15 0 L275 730 Z M248 260 L440 260 L344 537 L248 260 Z M213 866 L477 866 L477 780 L213 780 L213 866 Z " />
<glyph glyph-name="amacron" unicode="&#x101;" horiz-adv-x="671" d="M308 -12 Q255 -12 203.5 8.5 Q152 29 111 68 Q70 107 45 163.5 Q20 220 20 292 Q20 365 44.5 421.5 Q69 478 109.5 517 Q150 556 202.5 576.5 Q255 597 310 597 Q368 597 417 575 Q466 553 498 515 L498 585 L633 585 L633 0 L498 0 L498 76 Q466 35 416 11.5 Q366 -12 308 -12 Z M330 112 Q368 112 400 126 Q432 140 455 165 Q478 190 491.5 223 Q505 256 505 294 Q505 331 491.5 364 Q478 397 455 421.5 Q432 446 400 460 Q368 474 330 474 Q293 474 260.5 460 Q228 446 204 422 Q180 398 166.5 365 Q153 332 153 294 Q153 256 166.5 222.5 Q180 189 204 164.5 Q228 140 260.5 126 Q293 112 330 112 Z M203 732 L467 732 L467 646 L203 646 L203 732 Z " />
<glyph glyph-name="Abreve" unicode="&#x102;" horiz-adv-x="687" d="M275 730 L412 730 L672 0 L530 0 L485 130 L202 130 L157 0 L15 0 L275 730 Z M343 775 Q302 775 271.5 788 Q241 801 221 823.5 Q201 846 191.5 877.5 Q182 909 182 945 L267 945 Q267 897 286.5 874 Q306 851 343 849 Q379 851 399 874 Q419 897 419 945 L505 945 Q505 909 494 877.5 Q483 846 462 823.5 Q441 801 411 788 Q381 775 343 775 Z M248 260 L440 260 L344 537 L248 260 Z " />
<glyph glyph-name="abreve" unicode="&#x103;" horiz-adv-x="671" d="M308 -12 Q255 -12 203.5 8.5 Q152 29 111 68 Q70 107 45 163.5 Q20 220 20 292 Q20 365 44.5 421.5 Q69 478 109.5 517 Q150 556 202.5 576.5 Q255 597 310 597 Q368 597 417 575 Q466 553 498 515 L498 585 L633 585 L633 0 L498 0 L498 76 Q466 35 416 11.5 Q366 -12 308 -12 Z M330 112 Q368 112 400 126 Q432 140 455 165 Q478 190 491.5 223 Q505 256 505 294 Q505 331 491.5 364 Q478 397 455 421.5 Q432 446 400 460 Q368 474 330 474 Q293 474 260.5 460 Q228 446 204 422 Q180 398 166.5 365 Q153 332 153 294 Q153 256 166.5 222.5 Q180 189 204 164.5 Q228 140 260.5 126 Q293 112 330 112 Z M323 643 Q282 643 251.5 656 Q221 669 201 691.5 Q181 714 171.5 745.5 Q162 777 162 813 L247 813 Q247 765 266.5 742 Q286 719 323 717 Q359 719 379 742 Q399 765 399 813 L485 813 Q485 777 474 745.5 Q463 714 442 691.5 Q421 669 391 656 Q361 643 323 643 Z " />
<glyph glyph-name="Aogonek" unicode="&#x104;" horiz-adv-x="687" d="M585 -227 Q520 -227 480.5 -195.5 Q441 -164 441 -118 Q441 -86 459 -56 Q477 -26 528 6 L485 130 L202 130 L157 0 L15 0 L275 730 L412 730 L672 0 Q631 -27 605.5 -44.5 Q580 -62 566 -74 Q552 -86 547 -94.5 Q542 -103 542 -113 Q542 -130 555 -137 Q568 -144 585 -144 Q605 -144 618 -135 Q631 -126 645 -115 L724 -169 Q698 -193 659.5 -210 Q621 -227 585 -227 Z M248 260 L440 260 L344 537 L248 260 Z " />
<glyph glyph-name="aogonek" unicode="&#x105;" horiz-adv-x="671" d="M308 -12 Q255 -12 203.5 8.5 Q152 29 111 68 Q70 107 45 163.5 Q20 220 20 292 Q20 365 44.5 421.5 Q69 478 109.5 517 Q150 556 202.5 576.5 Q255 597 310 597 Q368 597 417 575 Q466 553 498 515 L498 585 L633 585 L633 0 L634 0 Q577 -35 553 -64 Q529 -93 529 -111 Q529 -128 539.5 -136 Q550 -144 567 -144 Q582 -144 594.5 -135 Q607 -126 617 -114 L696 -169 Q670 -196 638 -212.5 Q606 -229 562 -229 Q504 -229 467.5 -198.5 Q431 -168 430 -121 Q429 -83 447.5 -53.5 Q466 -24 498 3 L498 76 Q466 35 416 11.5 Q366 -12 308 -12 Z M330 112 Q368 112 400 126 Q432 140 455 165 Q478 190 491.5 223 Q505 256 505 294 Q505 331 491.5 364 Q478 397 455 421.5 Q432 446 400 460 Q368 474 330 474 Q293 474 260.5 460 Q228 446 204 422 Q180 398 166.5 365 Q153 332 153 294 Q153 256 166.5 222.5 Q180 189 204 164.5 Q228 140 260.5 126 Q293 112 330 112 Z " />
<glyph glyph-name="Cacute" unicode="&#x106;" horiz-adv-x="738" d="M464 950 L590 950 L440 780 L349 780 L464 950 Z M397 -10 Q313 -10 243.5 19.5 Q174 49 125 99.5 Q76 150 49 218.5 Q22 287 22 365 Q22 447 51 515.5 Q80 584 130.5 634 Q181 684 249.5 712 Q318 740 397 740 Q448 740 495.5 727 Q543 714 584.5 690.5 Q626 667 659.5 633.5 Q693 600 717 559 L598 483 Q566 540 517 573 Q468 606 397 606 Q345 606 301 587.5 Q257 569 225 536.5 Q193 504 175 460 Q157 416 157 365 Q157 315 175 271.5 Q193 228 224.5 195.5 Q256 163 299.5 144.5 Q343 126 394 126 Q470 126 522.5 164.5 Q575 203 604 263 L728 198 Q704 152 669.5 113.5 Q635 75 592.5 47.5 Q550 20 500.5 5 Q451 -10 397 -10 Z " />
<glyph glyph-name="cacute" unicode="&#x107;" horiz-adv-x="617" d="M391 815 L517 815 L367 645 L276 645 L391 815 Z M324 -12 Q260 -12 204.5 12 Q149 36 108 77 Q67 118 43.5 173.5 Q20 229 20 292 Q20 356 43.5 411.5 Q67 467 108 508.5 Q149 550 204.5 573.5 Q260 597 324 597 Q373 597 416.5 583.5 Q460 570 496 546 Q532 522 559 489 Q586 456 603 416 L482 365 Q462 413 420.5 441.5 Q379 470 325 470 Q288 470 256.5 456 Q225 442 201.5 418 Q178 394 165 361.5 Q152 329 152 292 Q152 256 165 223.5 Q178 191 201.5 167 Q225 143 257 129 Q289 115 326 115 Q383 115 423.5 145.5 Q464 176 484 224 L605 172 Q588 132 561 98 Q534 64 498.5 39.5 Q463 15 419 1.5 Q375 -12 324 -12 Z " />
<glyph glyph-name="Ccircumflex" unicode="&#x108;" horiz-adv-x="738" d="M397 -10 Q313 -10 243.5 19.5 Q174 49 125 99.5 Q76 150 49 218.5 Q22 287 22 365 Q22 447 51 515.5 Q80 584 130.5 634 Q181 684 249.5 712 Q318 740 397 740 Q448 740 495.5 727 Q543 714 584.5 690.5 Q626 667 659.5 633.5 Q693 600 717 559 L598 483 Q566 540 517 573 Q468 606 397 606 Q345 606 301 587.5 Q257 569 225 536.5 Q193 504 175 460 Q157 416 157 365 Q157 315 175 271.5 Q193 228 224.5 195.5 Q256 163 299.5 144.5 Q343 126 394 126 Q470 126 522.5 164.5 Q575 203 604 263 L728 198 Q704 152 669.5 113.5 Q635 75 592.5 47.5 Q550 20 500.5 5 Q451 -10 397 -10 Z M359 950 L443 950 L562 780 L460 780 L401 869 L342 780 L240 780 L359 950 Z " />
<glyph glyph-name="ccircumflex" unicode="&#x109;" horiz-adv-x="617" d="M324 -12 Q260 -12 204.5 12 Q149 36 108 77 Q67 118 43.5 173.5 Q20 229 20 292 Q20 356 43.5 411.5 Q67 467 108 508.5 Q149 550 204.5 573.5 Q260 597 324 597 Q373 597 416.5 583.5 Q460 570 496 546 Q532 522 559 489 Q586 456 603 416 L482 365 Q462 413 420.5 441.5 Q379 470 325 470 Q288 470 256.5 456 Q225 442 201.5 418 Q178 394 165 361.5 Q152 329 152 292 Q152 256 165 223.5 Q178 191 201.5 167 Q225 143 257 129 Q289 115 326 115 Q383 115 423.5 145.5 Q464 176 484 224 L605 172 Q588 132 561 98 Q534 64 498.5 39.5 Q463 15 419 1.5 Q375 -12 324 -12 Z M283 809 L367 809 L486 639 L384 639 L325 728 L266 639 L164 639 L283 809 Z " />
<glyph glyph-name="Cdotaccent" unicode="&#x10a;" horiz-adv-x="738" d="M397 -10 Q313 -10 243.5 19.5 Q174 49 125 99.5 Q76 150 49 218.5 Q22 287 22 365 Q22 447 51 515.5 Q80 584 130.5 634 Q181 684 249.5 712 Q318 740 397 740 Q448 740 495.5 727 Q543 714 584.5 690.5 Q626 667 659.5 633.5 Q693 600 717 559 L598 483 Q566 540 517 573 Q468 606 397 606 Q345 606 301 587.5 Q257 569 225 536.5 Q193 504 175 460 Q157 416 157 365 Q157 315 175 271.5 Q193 228 224.5 195.5 Q256 163 299.5 144.5 Q343 126 394 126 Q470 126 522.5 164.5 Q575 203 604 263 L728 198 Q704 152 669.5 113.5 Q635 75 592.5 47.5 Q550 20 500.5 5 Q451 -10 397 -10 Z M324 849 Q324 884 345.5 906 Q367 928 403 928 Q440 928 461 906 Q482 884 482 849 Q482 814 461 792.5 Q440 771 403 771 Q365 771 344.5 792.5 Q324 814 324 849 Z " />
<glyph glyph-name="cdotaccent" unicode="&#x10b;" horiz-adv-x="617" d="M324 -12 Q260 -12 204.5 12 Q149 36 108 77 Q67 118 43.5 173.5 Q20 229 20 292 Q20 356 43.5 411.5 Q67 467 108 508.5 Q149 550 204.5 573.5 Q260 597 324 597 Q373 597 416.5 583.5 Q460 570 496 546 Q532 522 559 489 Q586 456 603 416 L482 365 Q462 413 420.5 441.5 Q379 470 325 470 Q288 470 256.5 456 Q225 442 201.5 418 Q178 394 165 361.5 Q152 329 152 292 Q152 256 165 223.5 Q178 191 201.5 167 Q225 143 257 129 Q289 115 326 115 Q383 115 423.5 145.5 Q464 176 484 224 L605 172 Q588 132 561 98 Q534 64 498.5 39.5 Q463 15 419 1.5 Q375 -12 324 -12 Z M244 713 Q244 748 265.5 770 Q287 792 323 792 Q360 792 381 770 Q402 748 402 713 Q402 678 381 656.5 Q360 635 323 635 Q285 635 264.5 656.5 Q244 678 244 713 Z " />
<glyph glyph-name="Ccaron" unicode="&#x10c;" horiz-adv-x="738" d="M397 -10 Q313 -10 243.5 19.5 Q174 49 125 99.5 Q76 150 49 218.5 Q22 287 22 365 Q22 447 51 515.5 Q80 584 130.5 634 Q181 684 249.5 712 Q318 740 397 740 Q448 740 495.5 727 Q543 714 584.5 690.5 Q626 667 659.5 633.5 Q693 600 717 559 L598 483 Q566 540 517 573 Q468 606 397 606 Q345 606 301 587.5 Q257 569 225 536.5 Q193 504 175 460 Q157 416 157 365 Q157 315 175 271.5 Q193 228 224.5 195.5 Q256 163 299.5 144.5 Q343 126 394 126 Q470 126 522.5 164.5 Q575 203 604 263 L728 198 Q704 152 669.5 113.5 Q635 75 592.5 47.5 Q550 20 500.5 5 Q451 -10 397 -10 Z M237 950 L339 950 L398 861 L457 950 L559 950 L440 780 L356 780 L237 950 Z " />
<glyph glyph-name="ccaron" unicode="&#x10d;" horiz-adv-x="617" d="M324 -12 Q260 -12 204.5 12 Q149 36 108 77 Q67 118 43.5 173.5 Q20 229 20 292 Q20 356 43.5 411.5 Q67 467 108 508.5 Q149 550 204.5 573.5 Q260 597 324 597 Q373 597 416.5 583.5 Q460 570 496 546 Q532 522 559 489 Q586 456 603 416 L482 365 Q462 413 420.5 441.5 Q379 470 325 470 Q288 470 256.5 456 Q225 442 201.5 418 Q178 394 165 361.5 Q152 329 152 292 Q152 256 165 223.5 Q178 191 201.5 167 Q225 143 257 129 Q289 115 326 115 Q383 115 423.5 145.5 Q464 176 484 224 L605 172 Q588 132 561 98 Q534 64 498.5 39.5 Q463 15 419 1.5 Q375 -12 324 -12 Z M172 815 L274 815 L333 726 L392 815 L494 815 L375 645 L291 645 L172 815 Z " />
<glyph glyph-name="Dcaron" unicode="&#x10e;" horiz-adv-x="648" d="M42 730 L241 730 Q333 730 405 702 Q477 674 526.5 625 Q576 576 601.5 509.5 Q627 443 627 365 Q627 287 599 220 Q571 153 520.5 104.5 Q470 56 400 28 Q330 0 247 0 L42 0 L42 730 Z M178 604 L178 126 L231 126 Q291 126 339 144 Q387 162 420.5 194.5 Q454 227 472.5 270.5 Q491 314 491 365 Q491 418 475 461.5 Q459 505 426 537 Q393 569 343 586.5 Q293 604 225 604 L178 604 Z M105 950 L207 950 L266 861 L325 950 L427 950 L308 780 L224 780 L105 950 Z " />
<glyph glyph-name="dcaron" unicode="&#x10f;" horiz-adv-x="742" d="M308 -12 Q255 -12 203.5 8.5 Q152 29 111 68 Q70 107 45 163.5 Q20 220 20 292 Q20 365 44.5 421.5 Q69 478 109.5 517 Q150 556 202.5 576.5 Q255 597 310 597 Q367 597 416 575.5 Q465 554 497 516 L497 740 L633 740 L633 0 L498 0 L498 76 Q466 35 416 11.5 Q366 -12 308 -12 Z M330 112 Q368 112 400 126 Q432 140 455 165 Q478 190 491.5 223 Q505 256 505 294 Q505 331 491.5 364 Q478 397 455 421.5 Q432 446 400 460 Q368 474 330 474 Q293 474 260.5 460 Q228 446 204 422 Q180 398 166.5 365 Q153 332 153 294 Q153 256 166.5 222.5 Q180 189 204 164.5 Q228 140 260.5 126 Q293 112 330 112 Z M679 732 L788 732 L737 561 L654 561 L679 732 Z " />
<glyph glyph-name="Dcroat" unicode="&#x110;" horiz-adv-x="695" d="M20 424 L89 424 L89 730 L288 730 Q380 730 452 702 Q524 674 573.5 625 Q623 576 648.5 509.5 Q674 443 674 365 Q674 287 646 220 Q618 153 567.5 104.5 Q517 56 447 28 Q377 0 294 0 L89 0 L89 309 L20 309 L20 424 Z M225 604 L225 424 L390 424 L390 309 L225 309 L225 126 L278 126 Q338 126 386 144 Q434 162 467.5 194.5 Q501 227 519.5 270.5 Q538 314 538 365 Q538 418 522 461.5 Q506 505 473 537 Q440 569 390 586.5 Q340 604 272 604 L225 604 Z " />
<glyph glyph-name="dslash" unicode="&#x111;" horiz-adv-x="679" d="M430 682 L497 682 L497 740 L633 740 L633 682 L694 682 L694 608 L633 608 L633 0 L498 0 L498 76 Q466 35 416 11.5 Q366 -12 308 -12 Q255 -12 203.5 8.5 Q152 29 111 68 Q70 107 45 163.5 Q20 220 20 292 Q20 365 44.5 421.5 Q69 478 109.5 517 Q150 556 202.5 576.5 Q255 597 310 597 Q367 597 416 575.5 Q465 554 497 516 L497 608 L430 608 L430 682 Z M330 112 Q368 112 400 126 Q432 140 455 165 Q478 190 491.5 223 Q505 256 505 294 Q505 331 491.5 364 Q478 397 455 421.5 Q432 446 400 460 Q368 474 330 474 Q293 474 260.5 460 Q228 446 204 422 Q180 398 166.5 365 Q153 332 153 294 Q153 256 166.5 222.5 Q180 189 204 164.5 Q228 140 260.5 126 Q293 112 330 112 Z " />
<glyph glyph-name="Emacron" unicode="&#x112;" horiz-adv-x="509" d="M42 730 L475 730 L475 600 L178 600 L178 432 L475 432 L475 302 L178 302 L178 130 L475 130 L475 0 L42 0 L42 730 Z M127 866 L391 866 L391 780 L127 780 L127 866 Z " />
<glyph glyph-name="emacron" unicode="&#x113;" horiz-adv-x="646" d="M329 -12 Q260 -12 203 11.5 Q146 35 105.5 76 Q65 117 42.5 172.5 Q20 228 20 291 Q20 355 43.5 411 Q67 467 108 508 Q149 549 204.5 573 Q260 597 324 597 Q389 597 444.5 574.5 Q500 552 540 511.5 Q580 471 602.5 416 Q625 361 625 296 L625 245 L149 245 Q163 183 210 145 Q257 107 329 107 Q386 107 428 135 Q470 163 491 210 L602 146 Q564 75 495.5 31.5 Q427 -12 329 -12 Z M324 478 Q263 478 218.5 445 Q174 412 156 358 L488 358 Q473 417 430 447.5 Q387 478 324 478 Z M199 729 L463 729 L463 643 L199 643 L199 729 Z " />
<glyph glyph-name="Ebreve" unicode="&#x114;" horiz-adv-x="509" d="M42 730 L475 730 L475 600 L178 600 L178 432 L475 432 L475 302 L178 302 L178 130 L475 130 L475 0 L42 0 L42 730 Z M262 775 Q221 775 190.5 788 Q160 801 140 823.5 Q120 846 110.5 877.5 Q101 909 101 945 L186 945 Q186 897 205.5 874 Q225 851 262 849 Q298 851 318 874 Q338 897 338 945 L424 945 Q424 909 413 877.5 Q402 846 381 823.5 Q360 801 330 788 Q300 775 262 775 Z " />
<glyph glyph-name="ebreve" unicode="&#x115;" horiz-adv-x="646" d="M329 -12 Q260 -12 203 11.5 Q146 35 105.5 76 Q65 117 42.5 172.5 Q20 228 20 291 Q20 355 43.5 411 Q67 467 108 508 Q149 549 204.5 573 Q260 597 324 597 Q389 597 444.5 574.5 Q500 552 540 511.5 Q580 471 602.5 416 Q625 361 625 296 L625 245 L149 245 Q163 183 210 145 Q257 107 329 107 Q386 107 428 135 Q470 163 491 210 L602 146 Q564 75 495.5 31.5 Q427 -12 329 -12 Z M329 640 Q288 640 257.5 653 Q227 666 207 688.5 Q187 711 177.5 742.5 Q168 774 168 810 L253 810 Q253 762 272.5 739 Q292 716 329 714 Q365 716 385 739 Q405 762 405 810 L491 810 Q491 774 480 742.5 Q469 711 448 688.5 Q427 666 397 653 Q367 640 329 640 Z M324 478 Q263 478 218.5 445 Q174 412 156 358 L488 358 Q473 417 430 447.5 Q387 478 324 478 Z " />
<glyph glyph-name="Edotaccent" unicode="&#x116;" horiz-adv-x="509" d="M42 730 L475 730 L475 600 L178 600 L178 432 L475 432 L475 302 L178 302 L178 130 L475 130 L475 0 L42 0 L42 730 Z M197 849 Q197 884 218.5 906 Q240 928 276 928 Q313 928 334 906 Q355 884 355 849 Q355 814 334 792.5 Q313 771 276 771 Q238 771 217.5 792.5 Q197 814 197 849 Z " />
<glyph glyph-name="edotaccent" unicode="&#x117;" horiz-adv-x="646" d="M329 -12 Q260 -12 203 11.5 Q146 35 105.5 76 Q65 117 42.5 172.5 Q20 228 20 291 Q20 355 43.5 411 Q67 467 108 508 Q149 549 204.5 573 Q260 597 324 597 Q389 597 444.5 574.5 Q500 552 540 511.5 Q580 471 602.5 416 Q625 361 625 296 L625 245 L149 245 Q163 183 210 145 Q257 107 329 107 Q386 107 428 135 Q470 163 491 210 L602 146 Q564 75 495.5 31.5 Q427 -12 329 -12 Z M324 478 Q263 478 218.5 445 Q174 412 156 358 L488 358 Q473 417 430 447.5 Q387 478 324 478 Z M247 708 Q247 743 268.5 765 Q290 787 326 787 Q363 787 384 765 Q405 743 405 708 Q405 673 384 651.5 Q363 630 326 630 Q288 630 267.5 651.5 Q247 673 247 708 Z " />
<glyph glyph-name="Eogonek" unicode="&#x118;" horiz-adv-x="509" d="M42 730 L475 730 L475 600 L178 600 L178 432 L475 432 L475 302 L178 302 L178 130 L475 130 L475 0 L476 0 Q435 -27 409.5 -44.5 Q384 -62 370 -74 Q356 -86 351 -94.5 Q346 -103 346 -113 Q346 -130 359 -137 Q372 -144 389 -144 Q409 -144 422 -135 Q435 -126 449 -115 L528 -169 Q502 -193 463.5 -210 Q425 -227 389 -227 Q324 -227 284.5 -195.5 Q245 -164 245 -118 Q245 -88 261 -59.5 Q277 -31 322 0 L42 0 L42 730 Z " />
<glyph glyph-name="eogonek" unicode="&#x119;" horiz-adv-x="646" d="M343 -224 Q278 -224 238.5 -192.5 Q199 -161 199 -115 Q199 -87 212.5 -60.5 Q226 -34 263 -6 Q208 5 163 31.5 Q118 58 86.5 97.5 Q55 137 37.5 186.5 Q20 236 20 291 Q20 355 43.5 411 Q67 467 108 508 Q149 549 204.5 573 Q260 597 324 597 Q389 597 444.5 574.5 Q500 552 540 511.5 Q580 471 602.5 416 Q625 361 625 296 L625 245 L149 245 Q163 183 210 145 Q257 107 329 107 Q386 107 428 135 Q470 163 491 210 L602 146 Q574 95 531 57.5 Q488 20 429 2 Q389 -25 363.5 -42 Q338 -59 324 -71 Q310 -83 305 -91.5 Q300 -100 300 -110 Q300 -127 313 -134 Q326 -141 343 -141 Q363 -141 376 -132 Q389 -123 403 -112 L482 -166 Q456 -190 417.5 -207 Q379 -224 343 -224 Z M324 478 Q263 478 218.5 445 Q174 412 156 358 L488 358 Q473 417 430 447.5 Q387 478 324 478 Z " />
<glyph glyph-name="Ecaron" unicode="&#x11a;" horiz-adv-x="509" d="M42 730 L475 730 L475 600 L178 600 L178 432 L475 432 L475 302 L178 302 L178 130 L475 130 L475 0 L42 0 L42 730 Z M96 950 L198 950 L257 861 L316 950 L418 950 L299 780 L215 780 L96 950 Z " />
<glyph glyph-name="ecaron" unicode="&#x11b;" horiz-adv-x="646" d="M329 -12 Q260 -12 203 11.5 Q146 35 105.5 76 Q65 117 42.5 172.5 Q20 228 20 291 Q20 355 43.5 411 Q67 467 108 508 Q149 549 204.5 573 Q260 597 324 597 Q389 597 444.5 574.5 Q500 552 540 511.5 Q580 471 602.5 416 Q625 361 625 296 L625 245 L149 245 Q163 183 210 145 Q257 107 329 107 Q386 107 428 135 Q470 163 491 210 L602 146 Q564 75 495.5 31.5 Q427 -12 329 -12 Z M324 478 Q263 478 218.5 445 Q174 412 156 358 L488 358 Q473 417 430 447.5 Q387 478 324 478 Z M166 810 L268 810 L327 721 L386 810 L488 810 L369 640 L285 640 L166 810 Z " />
<glyph glyph-name="Gcircumflex" unicode="&#x11c;" horiz-adv-x="780" d="M401 -10 Q316 -10 246 20 Q176 50 126 101.5 Q76 153 49 221 Q22 289 22 365 Q22 443 50 511.5 Q78 580 127.5 630.5 Q177 681 245.5 710.5 Q314 740 395 740 Q452 740 502 726.5 Q552 713 594.5 688 Q637 663 670.5 628.5 Q704 594 727 553 L607 481 Q573 544 520.5 576 Q468 608 396 608 Q345 608 301.5 588.5 Q258 569 225.5 536 Q193 503 175 459 Q157 415 157 365 Q157 314 175 270 Q193 226 225.5 193 Q258 160 303 141 Q348 122 401 122 Q483 122 537.5 165 Q592 208 612 280 L379 280 L379 410 L758 410 L758 356 Q758 282 733 215.5 Q708 149 661.5 99 Q615 49 549 19.5 Q483 -10 401 -10 Z M353 950 L437 950 L556 780 L454 780 L395 869 L336 780 L234 780 L353 950 Z " />
<glyph glyph-name="gcircumflex" unicode="&#x11d;" horiz-adv-x="673" d="M499 78 Q467 36 417 12 Q367 -12 308 -12 Q255 -12 203.5 8.5 Q152 29 111 68 Q70 107 45 163.5 Q20 220 20 292 Q20 365 44.5 421.5 Q69 478 109.5 517 Q150 556 202.5 576.5 Q255 597 310 597 Q368 597 417 573.5 Q466 550 498 510 L498 585 L633 585 L633 15 Q633 -47 613.5 -101 Q594 -155 556 -195.5 Q518 -236 461.5 -259.5 Q405 -283 331 -283 Q274 -283 227.5 -270.5 Q181 -258 144 -235.5 Q107 -213 79 -182.5 Q51 -152 31 -115 L151 -42 Q183 -101 223 -130 Q263 -159 333 -159 Q371 -159 402 -145 Q433 -131 454.5 -108 Q476 -85 487.5 -54 Q499 -23 499 10 L499 78 Z M330 112 Q368 112 400 126 Q432 140 455 165 Q478 190 491.5 223 Q505 256 505 294 Q505 331 491.5 364 Q478 397 455 421.5 Q432 446 400 460 Q368 474 330 474 Q293 474 260.5 460 Q228 446 204 422 Q180 398 166.5 365 Q153 332 153 294 Q153 256 166.5 222.5 Q180 189 204 164.5 Q228 140 260.5 126 Q293 112 330 112 Z M302 815 L386 815 L505 645 L403 645 L344 734 L285 645 L183 645 L302 815 Z " />
<glyph glyph-name="Gbreve" unicode="&#x11e;" horiz-adv-x="780" d="M401 -10 Q316 -10 246 20 Q176 50 126 101.5 Q76 153 49 221 Q22 289 22 365 Q22 443 50 511.5 Q78 580 127.5 630.5 Q177 681 245.5 710.5 Q314 740 395 740 Q452 740 502 726.5 Q552 713 594.5 688 Q637 663 670.5 628.5 Q704 594 727 553 L607 481 Q573 544 520.5 576 Q468 608 396 608 Q345 608 301.5 588.5 Q258 569 225.5 536 Q193 503 175 459 Q157 415 157 365 Q157 314 175 270 Q193 226 225.5 193 Q258 160 303 141 Q348 122 401 122 Q483 122 537.5 165 Q592 208 612 280 L379 280 L379 410 L758 410 L758 356 Q758 282 733 215.5 Q708 149 661.5 99 Q615 49 549 19.5 Q483 -10 401 -10 Z M394 775 Q353 775 322.5 788 Q292 801 272 823.5 Q252 846 242.5 877.5 Q233 909 233 945 L318 945 Q318 897 337.5 874 Q357 851 394 849 Q430 851 450 874 Q470 897 470 945 L556 945 Q556 909 545 877.5 Q534 846 513 823.5 Q492 801 462 788 Q432 775 394 775 Z " />
<glyph glyph-name="gbreve" unicode="&#x11f;" horiz-adv-x="673" d="M499 78 Q467 36 417 12 Q367 -12 308 -12 Q255 -12 203.5 8.5 Q152 29 111 68 Q70 107 45 163.5 Q20 220 20 292 Q20 365 44.5 421.5 Q69 478 109.5 517 Q150 556 202.5 576.5 Q255 597 310 597 Q368 597 417 573.5 Q466 550 498 510 L498 585 L633 585 L633 15 Q633 -47 613.5 -101 Q594 -155 556 -195.5 Q518 -236 461.5 -259.5 Q405 -283 331 -283 Q274 -283 227.5 -270.5 Q181 -258 144 -235.5 Q107 -213 79 -182.5 Q51 -152 31 -115 L151 -42 Q183 -101 223 -130 Q263 -159 333 -159 Q371 -159 402 -145 Q433 -131 454.5 -108 Q476 -85 487.5 -54 Q499 -23 499 10 L499 78 Z M330 112 Q368 112 400 126 Q432 140 455 165 Q478 190 491.5 223 Q505 256 505 294 Q505 331 491.5 364 Q478 397 455 421.5 Q432 446 400 460 Q368 474 330 474 Q293 474 260.5 460 Q228 446 204 422 Q180 398 166.5 365 Q153 332 153 294 Q153 256 166.5 222.5 Q180 189 204 164.5 Q228 140 260.5 126 Q293 112 330 112 Z M340 638 Q299 638 268.5 651 Q238 664 218 686.5 Q198 709 188.5 740.5 Q179 772 179 808 L264 808 Q264 760 283.5 737 Q303 714 340 712 Q376 714 396 737 Q416 760 416 808 L502 808 Q502 772 491 740.5 Q480 709 459 686.5 Q438 664 408 651 Q378 638 340 638 Z " />
<glyph glyph-name="Gdotaccent" unicode="&#x120;" horiz-adv-x="780" d="M401 -10 Q316 -10 246 20 Q176 50 126 101.5 Q76 153 49 221 Q22 289 22 365 Q22 443 50 511.5 Q78 580 127.5 630.5 Q177 681 245.5 710.5 Q314 740 395 740 Q452 740 502 726.5 Q552 713 594.5 688 Q637 663 670.5 628.5 Q704 594 727 553 L607 481 Q573 544 520.5 576 Q468 608 396 608 Q345 608 301.5 588.5 Q258 569 225.5 536 Q193 503 175 459 Q157 415 157 365 Q157 314 175 270 Q193 226 225.5 193 Q258 160 303 141 Q348 122 401 122 Q483 122 537.5 165 Q592 208 612 280 L379 280 L379 410 L758 410 L758 356 Q758 282 733 215.5 Q708 149 661.5 99 Q615 49 549 19.5 Q483 -10 401 -10 Z M319 849 Q319 884 340.5 906 Q362 928 398 928 Q435 928 456 906 Q477 884 477 849 Q477 814 456 792.5 Q435 771 398 771 Q360 771 339.5 792.5 Q319 814 319 849 Z " />
<glyph glyph-name="gdotaccent" unicode="&#x121;" horiz-adv-x="673" d="M499 78 Q467 36 417 12 Q367 -12 308 -12 Q255 -12 203.5 8.5 Q152 29 111 68 Q70 107 45 163.5 Q20 220 20 292 Q20 365 44.5 421.5 Q69 478 109.5 517 Q150 556 202.5 576.5 Q255 597 310 597 Q368 597 417 573.5 Q466 550 498 510 L498 585 L633 585 L633 15 Q633 -47 613.5 -101 Q594 -155 556 -195.5 Q518 -236 461.5 -259.5 Q405 -283 331 -283 Q274 -283 227.5 -270.5 Q181 -258 144 -235.5 Q107 -213 79 -182.5 Q51 -152 31 -115 L151 -42 Q183 -101 223 -130 Q263 -159 333 -159 Q371 -159 402 -145 Q433 -131 454.5 -108 Q476 -85 487.5 -54 Q499 -23 499 10 L499 78 Z M330 112 Q368 112 400 126 Q432 140 455 165 Q478 190 491.5 223 Q505 256 505 294 Q505 331 491.5 364 Q478 397 455 421.5 Q432 446 400 460 Q368 474 330 474 Q293 474 260.5 460 Q228 446 204 422 Q180 398 166.5 365 Q153 332 153 294 Q153 256 166.5 222.5 Q180 189 204 164.5 Q228 140 260.5 126 Q293 112 330 112 Z M249 713 Q249 748 270.5 770 Q292 792 328 792 Q365 792 386 770 Q407 748 407 713 Q407 678 386 656.5 Q365 635 328 635 Q290 635 269.5 656.5 Q249 678 249 713 Z " />
<glyph glyph-name="uni0122" unicode="&#x122;" horiz-adv-x="780" d="M401 -10 Q316 -10 246 20 Q176 50 126 101.5 Q76 153 49 221 Q22 289 22 365 Q22 443 50 511.5 Q78 580 127.5 630.5 Q177 681 245.5 710.5 Q314 740 395 740 Q452 740 502 726.5 Q552 713 594.5 688 Q637 663 670.5 628.5 Q704 594 727 553 L607 481 Q573 544 520.5 576 Q468 608 396 608 Q345 608 301.5 588.5 Q258 569 225.5 536 Q193 503 175 459 Q157 415 157 365 Q157 314 175 270 Q193 226 225.5 193 Q258 160 303 141 Q348 122 401 122 Q483 122 537.5 165 Q592 208 612 280 L379 280 L379 410 L758 410 L758 356 Q758 282 733 215.5 Q708 149 661.5 99 Q615 49 549 19.5 Q483 -10 401 -10 Z M314 -250 L348 -46 L467 -46 L397 -250 L314 -250 Z " />
<glyph glyph-name="uni0123" unicode="&#x123;" horiz-adv-x="673" d="M499 78 Q467 36 417 12 Q367 -12 308 -12 Q255 -12 203.5 8.5 Q152 29 111 68 Q70 107 45 163.5 Q20 220 20 292 Q20 365 44.5 421.5 Q69 478 109.5 517 Q150 556 202.5 576.5 Q255 597 310 597 Q368 597 417 573.5 Q466 550 498 510 L498 585 L633 585 L633 15 Q633 -47 613.5 -101 Q594 -155 556 -195.5 Q518 -236 461.5 -259.5 Q405 -283 331 -283 Q274 -283 227.5 -270.5 Q181 -258 144 -235.5 Q107 -213 79 -182.5 Q51 -152 31 -115 L151 -42 Q183 -101 223 -130 Q263 -159 333 -159 Q371 -159 402 -145 Q433 -131 454.5 -108 Q476 -85 487.5 -54 Q499 -23 499 10 L499 78 Z M330 112 Q368 112 400 126 Q432 140 455 165 Q478 190 491.5 223 Q505 256 505 294 Q505 331 491.5 364 Q478 397 455 421.5 Q432 446 400 460 Q368 474 330 474 Q293 474 260.5 460 Q228 446 204 422 Q180 398 166.5 365 Q153 332 153 294 Q153 256 166.5 222.5 Q180 189 204 164.5 Q228 140 260.5 126 Q293 112 330 112 Z M279 645 L313 849 L432 849 L362 645 L279 645 Z " />
<glyph glyph-name="Hcircumflex" unicode="&#x124;" horiz-adv-x="636" d="M458 301 L178 301 L178 0 L42 0 L42 730 L178 730 L178 431 L458 431 L458 730 L594 730 L594 0 L458 0 L458 301 Z M275 950 L359 950 L478 780 L376 780 L317 869 L258 780 L156 780 L275 950 Z " />
<glyph glyph-name="hcircumflex" unicode="&#x125;" horiz-adv-x="619" d="M39 740 L174 740 L174 515 Q204 553 248.5 575 Q293 597 349 597 Q458 597 519.5 531 Q581 465 581 347 L581 0 L443 0 L443 332 Q443 401 410 440.5 Q377 480 311 480 Q283 480 258 469.5 Q233 459 214.5 439 Q196 419 185.5 389 Q175 359 175 321 L175 0 L39 0 L39 740 Z M67 946 L151 946 L270 776 L168 776 L109 865 L50 776 L-52 776 L67 946 Z " />
<glyph glyph-name="Hbar" unicode="&#x126;" horiz-adv-x="695" d="M14 632 L71 632 L71 730 L207 730 L207 632 L487 632 L487 730 L623 730 L623 632 L680 632 L680 529 L623 529 L623 0 L487 0 L487 301 L207 301 L207 0 L71 0 L71 529 L14 529 L14 632 Z M207 431 L487 431 L487 529 L207 529 L207 431 Z " />
<glyph glyph-name="hbar" unicode="&#x127;" horiz-adv-x="627" d="M-11 678 L47 678 L47 740 L182 740 L182 678 L245 678 L245 605 L182 605 L182 515 Q212 553 256.5 575 Q301 597 357 597 Q466 597 527.5 531 Q589 465 589 347 L589 0 L451 0 L451 332 Q451 401 418 440.5 Q385 480 319 480 Q291 480 266 469.5 Q241 459 222.5 439 Q204 419 193.5 389 Q183 359 183 321 L183 0 L47 0 L47 605 L-11 605 L-11 678 Z " />
<glyph glyph-name="Itilde" unicode="&#x128;" horiz-adv-x="230" d="M47 730 L183 730 L183 0 L47 0 L47 730 Z M-47 780 Q-47 841 -19.5 878 Q8 915 57 915 Q82 915 100 907.5 Q118 900 134 891 Q148 881 160.5 873.5 Q173 866 186 866 Q214 866 214 911 L292 911 Q292 849 266 812.5 Q240 776 187 776 Q158 776 137.5 786.5 Q117 797 100 807 Q89 814 78.5 819 Q68 824 57 824 Q31 824 31 780 L-47 780 Z " />
<glyph glyph-name="itilde" unicode="&#x129;" horiz-adv-x="214" d="M39 585 L175 585 L175 0 L39 0 L39 585 Z M-63 635 Q-63 696 -35.5 733 Q-8 770 41 770 Q66 770 84 762.5 Q102 755 118 746 Q132 736 144.5 728.5 Q157 721 170 721 Q198 721 198 766 L276 766 Q276 704 250 667.5 Q224 631 171 631 Q142 631 121.5 641.5 Q101 652 84 662 Q73 669 62.5 674 Q52 679 41 679 Q15 679 15 635 L-63 635 Z " />
<glyph glyph-name="Imacron" unicode="&#x12a;" horiz-adv-x="230" d="M47 730 L183 730 L183 0 L47 0 L47 730 Z M-17 866 L247 866 L247 780 L-17 780 L-17 866 Z " />
<glyph glyph-name="imacron" unicode="&#x12b;" horiz-adv-x="214" d="M39 585 L175 585 L175 0 L39 0 L39 585 Z M-23 721 L241 721 L241 635 L-23 635 L-23 721 Z " />
<glyph glyph-name="Ibreve" unicode="&#x12c;" horiz-adv-x="230" d="M47 730 L183 730 L183 0 L47 0 L47 730 Z M113 775 Q72 775 41.5 788 Q11 801 -9 823.5 Q-29 846 -38.5 877.5 Q-48 909 -48 945 L37 945 Q37 897 56.5 874 Q76 851 113 849 Q149 851 169 874 Q189 897 189 945 L275 945 Q275 909 264 877.5 Q253 846 232 823.5 Q211 801 181 788 Q151 775 113 775 Z " />
<glyph glyph-name="ibreve" unicode="&#x12d;" horiz-adv-x="214" d="M39 585 L175 585 L175 0 L39 0 L39 585 Z M111 629 Q70 629 39.5 642 Q9 655 -11 677.5 Q-31 700 -40.5 731.5 Q-50 763 -50 799 L35 799 Q35 751 54.5 728 Q74 705 111 703 Q147 705 167 728 Q187 751 187 799 L273 799 Q273 763 262 731.5 Q251 700 230 677.5 Q209 655 179 642 Q149 629 111 629 Z " />
<glyph glyph-name="Iogonek" unicode="&#x12e;" horiz-adv-x="230" d="M107 -229 Q49 -229 12.5 -198.5 Q-24 -168 -25 -121 Q-26 -82 -7 -51.5 Q12 -21 47 6 L47 730 L183 730 L183 0 L179 0 Q122 -35 98 -64 Q74 -93 74 -111 Q74 -128 84.5 -136 Q95 -144 112 -144 Q127 -144 139.5 -135 Q152 -126 162 -114 L241 -169 Q215 -196 183 -212.5 Q151 -229 107 -229 Z " />
<glyph glyph-name="iogonek" unicode="&#x12f;" horiz-adv-x="214" d="M48 -229 Q-10 -229 -46.5 -198.5 Q-83 -168 -84 -121 Q-85 -69 -52 -32 Q-19 5 38 42 L39 41 L39 585 L175 585 L175 0 L120 0 Q63 -35 39 -64 Q15 -93 15 -111 Q15 -128 25.5 -136 Q36 -144 53 -144 Q68 -144 80.5 -135 Q93 -126 103 -114 L182 -169 Q156 -196 124 -212.5 Q92 -229 48 -229 Z M22 728 Q22 766 45 789.5 Q68 813 107 813 Q147 813 169.5 789.5 Q192 766 192 728 Q192 690 169.5 667 Q147 644 107 644 Q66 644 44 667 Q22 690 22 728 Z " />
<glyph glyph-name="Idot" unicode="&#x130;" horiz-adv-x="230" d="M47 730 L183 730 L183 0 L47 0 L47 730 Z M34 849 Q34 884 55.5 906 Q77 928 113 928 Q150 928 171 906 Q192 884 192 849 Q192 814 171 792.5 Q150 771 113 771 Q75 771 54.5 792.5 Q34 814 34 849 Z " />
<glyph glyph-name="dotlessi" unicode="&#x131;" horiz-adv-x="214" d="M39 585 L175 585 L175 0 L39 0 L39 585 Z " />
<glyph glyph-name="IJ" unicode="&#x132;" horiz-adv-x="495" d="M237 133 L245 133 Q268 133 282 135.5 Q296 138 304 146 Q312 154 315 168 Q318 182 318 206 L318 730 L454 730 L454 210 Q454 152 446 111.5 Q438 71 417 46.5 Q396 22 358 11 Q320 0 260 0 L237 0 L237 133 Z M41 730 L177 730 L177 0 L41 0 L41 730 Z " />
<glyph glyph-name="ij" unicode="&#x133;" horiz-adv-x="434" d="M39 -112 L138 -112 Q177 -112 201 -108 Q225 -104 238 -91.5 Q251 -79 255 -55.5 Q259 -32 259 6 L259 585 L395 585 L395 5 Q395 -64 383 -111 Q371 -158 343.5 -186.5 Q316 -215 270.5 -227 Q225 -239 159 -239 L39 -239 L39 -112 Z M39 585 L175 585 L175 0 L39 0 L39 585 Z M39 822 L175 822 L175 659 L39 659 L39 822 Z M259 822 L395 822 L395 659 L259 659 L259 822 Z " />
<glyph glyph-name="Jcircumflex" unicode="&#x134;" horiz-adv-x="501" d="M247 -10 Q159 -10 98 34.5 Q37 79 19 155 L153 199 Q161 164 185.5 140.5 Q210 117 245 117 Q287 117 305.5 144.5 Q324 172 324 210 L324 730 L460 730 L460 222 Q460 112 404.5 51 Q349 -10 247 -10 Z M345 950 L429 950 L548 780 L446 780 L387 869 L328 780 L226 780 L345 950 Z " />
<glyph glyph-name="jcircumflex" unicode="&#x135;" horiz-adv-x="214" d="M-82 -142 Q-43 -142 -19 -138 Q5 -134 18 -121.5 Q31 -109 35 -86 Q39 -63 39 -24 L39 585 L176 585 L176 -25 Q176 -95 164 -141.5 Q152 -188 124 -216.5 Q96 -245 50.5 -257 Q5 -269 -63 -269 L-82 -269 L-82 -142 Z M66 805 L150 805 L269 635 L167 635 L108 724 L49 635 L-53 635 L66 805 Z " />
<glyph glyph-name="uni0136" unicode="&#x136;" horiz-adv-x="618" d="M257 351 L178 253 L178 0 L42 0 L42 730 L178 730 L178 431 L419 730 L584 730 L353 446 L605 0 L450 0 L257 351 Z M223 -250 L257 -46 L376 -46 L306 -250 L223 -250 Z " />
<glyph glyph-name="uni0137" unicode="&#x137;" horiz-adv-x="601" d="M39 740 L174 740 L174 303 L423 585 L585 585 L359 332 L593 0 L442 0 L267 252 L174 149 L174 0 L39 0 L39 740 Z M202 -240 L236 -36 L355 -36 L285 -240 L202 -240 Z " />
<glyph glyph-name="kgreenlandic" unicode="&#x138;" horiz-adv-x="601" d="M267 252 L174 149 L174 0 L39 0 L39 585 L174 585 L174 303 L423 585 L585 585 L360 332 L592 0 L442 0 L267 252 Z " />
<glyph glyph-name="Lacute" unicode="&#x139;" horiz-adv-x="481" d="M42 730 L178 730 L178 130 L445 130 L445 0 L42 0 L42 730 Z M177 950 L303 950 L153 780 L62 780 L177 950 Z " />
<glyph glyph-name="lacute" unicode="&#x13a;" horiz-adv-x="214" d="M177 965 L303 965 L153 795 L62 795 L177 965 Z M39 740 L175 740 L175 0 L39 0 L39 740 Z " />
<glyph glyph-name="uni013B" unicode="&#x13b;" horiz-adv-x="481" d="M42 730 L178 730 L178 130 L445 130 L445 0 L42 0 L42 730 Z M150 -250 L184 -46 L303 -46 L233 -250 L150 -250 Z " />
<glyph glyph-name="uni013C" unicode="&#x13c;" horiz-adv-x="214" d="M13 -250 L47 -46 L166 -46 L96 -250 L13 -250 Z M39 740 L175 740 L175 0 L39 0 L39 740 Z " />
<glyph glyph-name="Lcaron" unicode="&#x13d;" horiz-adv-x="481" d="M42 730 L178 730 L178 130 L445 130 L445 0 L42 0 L42 730 Z M258 730 L367 730 L316 559 L233 559 L258 730 Z " />
<glyph glyph-name="lcaron" unicode="&#x13e;" horiz-adv-x="282" d="M37 740 L173 740 L173 0 L37 0 L37 740 Z M220 740 L329 740 L278 569 L195 569 L220 740 Z " />
<glyph glyph-name="Ldot" unicode="&#x13f;" horiz-adv-x="481" d="M42 730 L178 730 L178 130 L445 130 L445 0 L42 0 L42 730 Z M298 360 Q298 395 319.5 417 Q341 439 377 439 Q414 439 435 417 Q456 395 456 360 Q456 325 435 303.5 Q414 282 377 282 Q339 282 318.5 303.5 Q298 325 298 360 Z " />
<glyph glyph-name="ldot" unicode="&#x140;" horiz-adv-x="381" d="M39 740 L175 740 L175 0 L39 0 L39 740 Z M217 314 Q217 349 238.5 371 Q260 393 296 393 Q333 393 354 371 Q375 349 375 314 Q375 279 354 257.5 Q333 236 296 236 Q258 236 237.5 257.5 Q217 279 217 314 Z " />
<glyph glyph-name="Lslash" unicode="&#x141;" horiz-adv-x="525" d="M17 381 L86 403 L86 730 L222 730 L222 446 L377 496 L377 399 L222 350 L222 130 L489 130 L489 0 L86 0 L86 307 L17 285 L17 381 Z " />
<glyph glyph-name="lslash" unicode="&#x142;" horiz-adv-x="369" d="M29 467 L115 495 L115 740 L250 740 L250 539 L340 569 L340 471 L250 441 L250 0 L115 0 L115 396 L29 368 L29 467 Z " />
<glyph glyph-name="Nacute" unicode="&#x143;" horiz-adv-x="690" d="M42 730 L196 730 L512 233 L512 730 L648 730 L648 0 L503 0 L178 513 L178 0 L42 0 L42 730 Z M422 950 L548 950 L398 780 L307 780 L422 950 Z " />
<glyph glyph-name="nacute" unicode="&#x144;" horiz-adv-x="618" d="M39 585 L173 585 L173 513 Q202 551 246.5 574 Q291 597 348 597 Q457 597 518.5 531 Q580 465 580 347 L580 0 L443 0 L443 333 Q443 401 410 440.5 Q377 480 311 480 Q253 480 213.5 439 Q174 398 174 321 L174 0 L39 0 L39 585 Z M373 810 L499 810 L349 640 L258 640 L373 810 Z " />
<glyph glyph-name="uni0145" unicode="&#x145;" horiz-adv-x="690" d="M42 730 L196 730 L512 233 L512 730 L648 730 L648 0 L503 0 L178 513 L178 0 L42 0 L42 730 Z M249 -250 L283 -46 L402 -46 L332 -250 L249 -250 Z " />
<glyph glyph-name="uni0146" unicode="&#x146;" horiz-adv-x="618" d="M39 585 L173 585 L173 513 Q202 551 246.5 574 Q291 597 348 597 Q457 597 518.5 531 Q580 465 580 347 L580 0 L443 0 L443 333 Q443 401 410 440.5 Q377 480 311 480 Q253 480 213.5 439 Q174 398 174 321 L174 0 L39 0 L39 585 Z M220 -233 L254 -29 L373 -29 L303 -233 L220 -233 Z " />
<glyph glyph-name="Ncaron" unicode="&#x147;" horiz-adv-x="690" d="M42 730 L196 730 L512 233 L512 730 L648 730 L648 0 L503 0 L178 513 L178 0 L42 0 L42 730 Z M186 950 L288 950 L347 861 L406 950 L508 950 L389 780 L305 780 L186 950 Z " />
<glyph glyph-name="ncaron" unicode="&#x148;" horiz-adv-x="618" d="M39 585 L173 585 L173 513 Q202 551 246.5 574 Q291 597 348 597 Q457 597 518.5 531 Q580 465 580 347 L580 0 L443 0 L443 333 Q443 401 410 440.5 Q377 480 311 480 Q253 480 213.5 439 Q174 398 174 321 L174 0 L39 0 L39 585 Z M158 810 L260 810 L319 721 L378 810 L480 810 L361 640 L277 640 L158 810 Z " />
<glyph glyph-name="Eng" unicode="&#x14a;" horiz-adv-x="690" d="M436 -75 L442 -75 Q464 -75 477.5 -72 Q491 -69 498.5 -61.5 Q506 -54 509 -40.5 Q512 -27 512 -6 L512 27 L178 521 L178 0 L42 0 L42 730 L196 730 L512 264 L512 730 L648 730 L648 -1 Q648 -60 637.5 -99.5 Q627 -139 604.5 -163 Q582 -187 545.5 -197.5 Q509 -208 456 -208 L436 -208 L436 -75 Z " />
<glyph glyph-name="eng" unicode="&#x14b;" horiz-adv-x="618" d="M322 -142 Q361 -142 385 -138 Q409 -134 422 -121.5 Q435 -109 439 -86 Q443 -63 443 -24 L443 333 Q443 401 410 440.5 Q377 480 311 480 Q253 480 213.5 439 Q174 398 174 321 L174 0 L39 0 L39 585 L173 585 L173 513 Q202 551 246.5 574 Q291 597 348 597 Q457 597 518.5 531 Q580 465 580 347 L580 -25 Q580 -95 568 -141.5 Q556 -188 528.5 -216.5 Q501 -245 455.5 -257 Q410 -269 342 -269 L322 -269 L322 -142 Z " />
<glyph glyph-name="Omacron" unicode="&#x14c;" horiz-adv-x="790" d="M258 866 L522 866 L522 780 L258 780 L258 866 Z M395 -10 Q317 -10 249 19.5 Q181 49 130.5 99.5 Q80 150 51 218.5 Q22 287 22 365 Q22 443 51 511 Q80 579 130.5 630 Q181 681 249 710.5 Q317 740 395 740 Q473 740 541 710.5 Q609 681 660 630 Q711 579 740 511 Q769 443 769 365 Q769 287 740 218.5 Q711 150 660 99.5 Q609 49 541 19.5 Q473 -10 395 -10 Z M395 124 Q445 124 488.5 143 Q532 162 564.5 194.5 Q597 227 615.5 271 Q634 315 634 365 Q634 415 615.5 459 Q597 503 564.5 535.5 Q532 568 488.5 587 Q445 606 395 606 Q345 606 301.5 587 Q258 568 226 535.5 Q194 503 175.5 459 Q157 415 157 365 Q157 315 175.5 271 Q194 227 226 194.5 Q258 162 301.5 143 Q345 124 395 124 Z " />
<glyph glyph-name="omacron" unicode="&#x14d;" horiz-adv-x="646" d="M193 731 L457 731 L457 645 L193 645 L193 731 Z M323 -12 Q260 -12 204.5 11.5 Q149 35 108 76.5 Q67 118 43.5 173.5 Q20 229 20 292 Q20 356 43.5 411.5 Q67 467 108 508.5 Q149 550 204.5 573.5 Q260 597 323 597 Q386 597 441 573.5 Q496 550 537.5 508.5 Q579 467 602.5 411.5 Q626 356 626 292 Q626 229 602.5 173.5 Q579 118 537.5 76.5 Q496 35 441 11.5 Q386 -12 323 -12 Z M323 115 Q359 115 390 129 Q421 143 444 167 Q467 191 480 223.5 Q493 256 493 292 Q493 329 480 361.5 Q467 394 444 418 Q421 442 390 456 Q359 470 323 470 Q287 470 255.5 456 Q224 442 201.5 418 Q179 394 166 361.5 Q153 329 153 292 Q153 256 166 223.5 Q179 191 201.5 167 Q224 143 255.5 129 Q287 115 323 115 Z " />
<glyph glyph-name="Obreve" unicode="&#x14e;" horiz-adv-x="790" d="M395 -10 Q317 -10 249 19.5 Q181 49 130.5 99.5 Q80 150 51 218.5 Q22 287 22 365 Q22 443 51 511 Q80 579 130.5 630 Q181 681 249 710.5 Q317 740 395 740 Q473 740 541 710.5 Q609 681 660 630 Q711 579 740 511 Q769 443 769 365 Q769 287 740 218.5 Q711 150 660 99.5 Q609 49 541 19.5 Q473 -10 395 -10 Z M395 124 Q445 124 488.5 143 Q532 162 564.5 194.5 Q597 227 615.5 271 Q634 315 634 365 Q634 415 615.5 459 Q597 503 564.5 535.5 Q532 568 488.5 587 Q445 606 395 606 Q345 606 301.5 587 Q258 568 226 535.5 Q194 503 175.5 459 Q157 415 157 365 Q157 315 175.5 271 Q194 227 226 194.5 Q258 162 301.5 143 Q345 124 395 124 Z M388 775 Q347 775 316.5 788 Q286 801 266 823.5 Q246 846 236.5 877.5 Q227 909 227 945 L312 945 Q312 897 331.5 874 Q351 851 388 849 Q424 851 444 874 Q464 897 464 945 L550 945 Q550 909 539 877.5 Q528 846 507 823.5 Q486 801 456 788 Q426 775 388 775 Z " />
<glyph glyph-name="obreve" unicode="&#x14f;" horiz-adv-x="646" d="M323 -12 Q260 -12 204.5 11.5 Q149 35 108 76.5 Q67 118 43.5 173.5 Q20 229 20 292 Q20 356 43.5 411.5 Q67 467 108 508.5 Q149 550 204.5 573.5 Q260 597 323 597 Q386 597 441 573.5 Q496 550 537.5 508.5 Q579 467 602.5 411.5 Q626 356 626 292 Q626 229 602.5 173.5 Q579 118 537.5 76.5 Q496 35 441 11.5 Q386 -12 323 -12 Z M323 115 Q359 115 390 129 Q421 143 444 167 Q467 191 480 223.5 Q493 256 493 292 Q493 329 480 361.5 Q467 394 444 418 Q421 442 390 456 Q359 470 323 470 Q287 470 255.5 456 Q224 442 201.5 418 Q179 394 166 361.5 Q153 329 153 292 Q153 256 166 223.5 Q179 191 201.5 167 Q224 143 255.5 129 Q287 115 323 115 Z M321 642 Q280 642 249.5 655 Q219 668 199 690.5 Q179 713 169.5 744.5 Q160 776 160 812 L245 812 Q245 764 264.5 741 Q284 718 321 716 Q357 718 377 741 Q397 764 397 812 L483 812 Q483 776 472 744.5 Q461 713 440 690.5 Q419 668 389 655 Q359 642 321 642 Z " />
<glyph glyph-name="Ohungarumlaut" unicode="&#x150;" horiz-adv-x="790" d="M370 950 L490 950 L340 780 L256 780 L370 950 Z M536 950 L656 950 L506 780 L422 780 L536 950 Z M395 -10 Q317 -10 249 19.5 Q181 49 130.5 99.5 Q80 150 51 218.5 Q22 287 22 365 Q22 443 51 511 Q80 579 130.5 630 Q181 681 249 710.5 Q317 740 395 740 Q473 740 541 710.5 Q609 681 660 630 Q711 579 740 511 Q769 443 769 365 Q769 287 740 218.5 Q711 150 660 99.5 Q609 49 541 19.5 Q473 -10 395 -10 Z M395 124 Q445 124 488.5 143 Q532 162 564.5 194.5 Q597 227 615.5 271 Q634 315 634 365 Q634 415 615.5 459 Q597 503 564.5 535.5 Q532 568 488.5 587 Q445 606 395 606 Q345 606 301.5 587 Q258 568 226 535.5 Q194 503 175.5 459 Q157 415 157 365 Q157 315 175.5 271 Q194 227 226 194.5 Q258 162 301.5 143 Q345 124 395 124 Z " />
<glyph glyph-name="ohungarumlaut" unicode="&#x151;" horiz-adv-x="646" d="M303 808 L423 808 L273 638 L189 638 L303 808 Z M469 808 L589 808 L439 638 L355 638 L469 808 Z M323 -12 Q260 -12 204.5 11.5 Q149 35 108 76.5 Q67 118 43.5 173.5 Q20 229 20 292 Q20 356 43.5 411.5 Q67 467 108 508.5 Q149 550 204.5 573.5 Q260 597 323 597 Q386 597 441 573.5 Q496 550 537.5 508.5 Q579 467 602.5 411.5 Q626 356 626 292 Q626 229 602.5 173.5 Q579 118 537.5 76.5 Q496 35 441 11.5 Q386 -12 323 -12 Z M323 115 Q359 115 390 129 Q421 143 444 167 Q467 191 480 223.5 Q493 256 493 292 Q493 329 480 361.5 Q467 394 444 418 Q421 442 390 456 Q359 470 323 470 Q287 470 255.5 456 Q224 442 201.5 418 Q179 394 166 361.5 Q153 329 153 292 Q153 256 166 223.5 Q179 191 201.5 167 Q224 143 255.5 129 Q287 115 323 115 Z " />
<glyph glyph-name="OE" unicode="&#x152;" horiz-adv-x="1101" d="M634 83 Q588 39 527.5 14.5 Q467 -10 395 -10 Q317 -10 249 19.5 Q181 49 130.5 99.5 Q80 150 51 218.5 Q22 287 22 365 Q22 443 51 511 Q80 579 130.5 630 Q181 681 249 710.5 Q317 740 395 740 Q467 740 527.5 715 Q588 690 634 646 L634 730 L1067 730 L1067 600 L770 600 L770 432 L1067 432 L1067 302 L770 302 L770 130 L1067 130 L1067 0 L634 0 L634 83 Z M395 124 Q443 124 485.5 142 Q528 160 560.5 191 Q593 222 612.5 264.5 Q632 307 634 355 L634 375 Q632 423 612.5 465 Q593 507 560.5 538.5 Q528 570 485.5 588 Q443 606 395 606 Q345 606 301.5 587 Q258 568 226 535.5 Q194 503 175.5 459 Q157 415 157 365 Q157 315 175.5 271 Q194 227 226 194.5 Q258 162 301.5 143 Q345 124 395 124 Z " />
<glyph glyph-name="oe" unicode="&#x153;" horiz-adv-x="1121" d="M323 -12 Q260 -12 204.5 11.5 Q149 35 108 76.5 Q67 118 43.5 173.5 Q20 229 20 292 Q20 356 43.5 411.5 Q67 467 108 508.5 Q149 550 204.5 573.5 Q260 597 323 597 Q400 597 461 565 Q522 533 561 478 Q600 532 660 564.5 Q720 597 798 597 Q863 597 918.5 574.5 Q974 552 1014.5 511.5 Q1055 471 1077.5 416 Q1100 361 1100 296 L1100 249 L624 249 Q636 185 684 146 Q732 107 805 107 Q862 107 905.5 136.5 Q949 166 972 213 L1085 164 Q1047 84 974 36 Q901 -12 804 -12 Q721 -12 659 19.5 Q597 51 559 105 Q519 51 458.5 19.5 Q398 -12 323 -12 Z M323 115 Q359 115 390 129 Q421 143 444.5 167 Q468 191 481 223.5 Q494 256 494 292 Q494 329 481 361.5 Q468 394 444.5 418 Q421 442 390 456 Q359 470 323 470 Q286 470 255 456 Q224 442 201 418 Q178 394 165 361.5 Q152 329 152 292 Q152 256 165 223.5 Q178 191 201 167 Q224 143 255 129 Q286 115 323 115 Z M800 478 Q739 478 695.5 446 Q652 414 632 362 L963 362 Q946 419 903 448.5 Q860 478 800 478 Z " />
<glyph glyph-name="Racute" unicode="&#x154;" horiz-adv-x="584" d="M42 0 L42 730 L276 730 Q341 730 391.5 711.5 Q442 693 477 659.5 Q512 626 530.5 579.5 Q549 533 549 476 Q549 410 517.5 352.5 Q486 295 426 263 L572 0 L417 0 L300 223 L178 223 L178 0 L42 0 Z M264 348 Q306 348 334.5 358.5 Q363 369 380.5 387.5 Q398 406 405.5 430 Q413 454 413 481 Q413 537 377.5 570 Q342 603 264 603 L178 603 L178 348 L264 348 Z M311 950 L437 950 L287 780 L196 780 L311 950 Z " />
<glyph glyph-name="racute" unicode="&#x155;" horiz-adv-x="431" d="M39 585 L173 585 L173 498 Q214 585 323 585 Q355 585 380.5 578 Q406 571 426 560 L375 432 Q360 442 341.5 448.5 Q323 455 294 455 Q235 455 204.5 421.5 Q174 388 174 312 L174 0 L39 0 L39 585 Z M293 805 L419 805 L269 635 L178 635 L293 805 Z " />
<glyph glyph-name="uni0156" unicode="&#x156;" horiz-adv-x="584" d="M42 0 L42 730 L276 730 Q341 730 391.5 711.5 Q442 693 477 659.5 Q512 626 530.5 579.5 Q549 533 549 476 Q549 410 517.5 352.5 Q486 295 426 263 L572 0 L417 0 L300 223 L178 223 L178 0 L42 0 Z M264 348 Q306 348 334.5 358.5 Q363 369 380.5 387.5 Q398 406 405.5 430 Q413 454 413 481 Q413 537 377.5 570 Q342 603 264 603 L178 603 L178 348 L264 348 Z M207 -281 L241 -77 L360 -77 L290 -281 L207 -281 Z " />
<glyph glyph-name="uni0157" unicode="&#x157;" horiz-adv-x="431" d="M39 585 L173 585 L173 498 Q214 585 323 585 Q355 585 380.5 578 Q406 571 426 560 L375 432 Q360 442 341.5 448.5 Q323 455 294 455 Q235 455 204.5 421.5 Q174 388 174 312 L174 0 L39 0 L39 585 Z M10 -249 L44 -45 L163 -45 L93 -249 L10 -249 Z " />
<glyph glyph-name="Rcaron" unicode="&#x158;" horiz-adv-x="584" d="M42 0 L42 730 L276 730 Q341 730 391.5 711.5 Q442 693 477 659.5 Q512 626 530.5 579.5 Q549 533 549 476 Q549 410 517.5 352.5 Q486 295 426 263 L572 0 L417 0 L300 223 L178 223 L178 0 L42 0 Z M264 348 Q306 348 334.5 358.5 Q363 369 380.5 387.5 Q398 406 405.5 430 Q413 454 413 481 Q413 537 377.5 570 Q342 603 264 603 L178 603 L178 348 L264 348 Z M131 950 L233 950 L292 861 L351 950 L453 950 L334 780 L250 780 L131 950 Z " />
<glyph glyph-name="rcaron" unicode="&#x159;" horiz-adv-x="431" d="M39 585 L173 585 L173 498 Q214 585 323 585 Q355 585 380.5 578 Q406 571 426 560 L375 432 Q360 442 341.5 448.5 Q323 455 294 455 Q235 455 204.5 421.5 Q174 388 174 312 L174 0 L39 0 L39 585 Z M60 805 L162 805 L221 716 L280 805 L382 805 L263 635 L179 635 L60 805 Z " />
<glyph glyph-name="Sacute" unicode="&#x15a;" horiz-adv-x="563" d="M337 950 L463 950 L313 780 L222 780 L337 950 Z M288 -10 Q189 -10 121 27.5 Q53 65 3 121 L127 219 Q155 171 196 145.5 Q237 120 287 120 Q341 120 369.5 150 Q398 180 398 218 Q398 241 385 257 Q372 273 351 284.5 Q330 296 302.5 305 Q275 314 246 323 Q209 335 172 349 Q135 363 105.5 386.5 Q76 410 57.5 444.5 Q39 479 39 531 Q39 575 57 613 Q75 651 107.5 679.5 Q140 708 184.5 724 Q229 740 281 740 Q325 740 360.5 732 Q396 724 425.5 710 Q455 696 479.5 676.5 Q504 657 526 634 L414 549 Q367 619 282 619 Q232 619 206 595 Q180 571 180 536 Q180 514 192 499 Q204 484 224.5 472.5 Q245 461 272 452 Q299 443 329 433 Q366 421 403.5 405.5 Q441 390 471.5 365.5 Q502 341 521 305.5 Q540 270 540 217 Q540 174 523 133 Q506 92 474 60.5 Q442 29 395 9.5 Q348 -10 288 -10 Z " />
<glyph glyph-name="sacute" unicode="&#x15b;" horiz-adv-x="518" d="M320 811 L446 811 L296 641 L205 641 L320 811 Z M259 -12 Q162 -12 98 24.5 Q34 61 -1 130 L124 190 Q145 149 181 127 Q217 105 265 105 Q315 105 340 126 Q365 147 365 176 Q365 192 353.5 202 Q342 212 323.5 219.5 Q305 227 280 232 Q255 237 228 243 Q190 251 153.5 262 Q117 273 88 292.5 Q59 312 41 342.5 Q23 373 23 419 Q23 454 39.5 486.5 Q56 519 86 544 Q116 569 158.5 583.5 Q201 598 253 598 Q341 598 399.5 565.5 Q458 533 492 477 L377 419 Q359 450 327 468 Q295 486 253 486 Q205 486 182 467 Q159 448 159 423 Q159 394 193 381.5 Q227 369 293 355 Q329 348 365.5 336.5 Q402 325 432 305.5 Q462 286 480.5 255.5 Q499 225 499 179 Q499 148 485 114.5 Q471 81 441.5 52.5 Q412 24 367 6 Q322 -12 259 -12 Z " />
<glyph glyph-name="Scircumflex" unicode="&#x15c;" horiz-adv-x="563" d="M288 -10 Q189 -10 121 27.5 Q53 65 3 121 L127 219 Q155 171 196 145.5 Q237 120 287 120 Q341 120 369.5 150 Q398 180 398 218 Q398 241 385 257 Q372 273 351 284.5 Q330 296 302.5 305 Q275 314 246 323 Q209 335 172 349 Q135 363 105.5 386.5 Q76 410 57.5 444.5 Q39 479 39 531 Q39 575 57 613 Q75 651 107.5 679.5 Q140 708 184.5 724 Q229 740 281 740 Q325 740 360.5 732 Q396 724 425.5 710 Q455 696 479.5 676.5 Q504 657 526 634 L414 549 Q367 619 282 619 Q232 619 206 595 Q180 571 180 536 Q180 514 192 499 Q204 484 224.5 472.5 Q245 461 272 452 Q299 443 329 433 Q366 421 403.5 405.5 Q441 390 471.5 365.5 Q502 341 521 305.5 Q540 270 540 217 Q540 174 523 133 Q506 92 474 60.5 Q442 29 395 9.5 Q348 -10 288 -10 Z M235 950 L319 950 L438 780 L336 780 L277 869 L218 780 L116 780 L235 950 Z " />
<glyph glyph-name="scircumflex" unicode="&#x15d;" horiz-adv-x="518" d="M259 -12 Q162 -12 98 24.5 Q34 61 -1 130 L124 190 Q145 149 181 127 Q217 105 265 105 Q315 105 340 126 Q365 147 365 176 Q365 192 353.5 202 Q342 212 323.5 219.5 Q305 227 280 232 Q255 237 228 243 Q190 251 153.5 262 Q117 273 88 292.5 Q59 312 41 342.5 Q23 373 23 419 Q23 454 39.5 486.5 Q56 519 86 544 Q116 569 158.5 583.5 Q201 598 253 598 Q341 598 399.5 565.5 Q458 533 492 477 L377 419 Q359 450 327 468 Q295 486 253 486 Q205 486 182 467 Q159 448 159 423 Q159 394 193 381.5 Q227 369 293 355 Q329 348 365.5 336.5 Q402 325 432 305.5 Q462 286 480.5 255.5 Q499 225 499 179 Q499 148 485 114.5 Q471 81 441.5 52.5 Q412 24 367 6 Q322 -12 259 -12 Z M217 805 L301 805 L420 635 L318 635 L259 724 L200 635 L98 635 L217 805 Z " />
<glyph glyph-name="Scedilla" unicode="&#x15e;" horiz-adv-x="563" d="M273 -240 Q233 -240 195.5 -223.5 Q158 -207 129 -181 L207 -134 Q224 -148 240.5 -158 Q257 -168 283 -168 Q305 -168 321.5 -159 Q338 -150 338 -137 Q338 -110 280 -110 L230 -110 L230 -6 Q154 4 99.5 38.5 Q45 73 3 121 L127 219 Q155 171 196 145.5 Q237 120 287 120 Q341 120 369.5 150 Q398 180 398 218 Q398 241 385 257 Q372 273 351 284.5 Q330 296 302.5 305 Q275 314 246 323 Q209 335 172 349 Q135 363 105.5 386.5 Q76 410 57.5 444.5 Q39 479 39 531 Q39 575 57 613 Q75 651 107.5 679.5 Q140 708 184.5 724 Q229 740 281 740 Q325 740 360.5 732 Q396 724 425.5 710 Q455 696 479.5 676.5 Q504 657 526 634 L414 549 Q367 619 282 619 Q232 619 206 595 Q180 571 180 536 Q180 514 192 499 Q204 484 224.5 472.5 Q245 461 272 452 Q299 443 329 433 Q366 421 403.5 405.5 Q441 390 471.5 365.5 Q502 341 521 305.5 Q540 270 540 217 Q540 176 525 137 Q510 98 481 67 Q452 36 410 15.5 Q368 -5 314 -9 L314 -53 Q370 -51 399.5 -73.5 Q429 -96 429 -133 Q429 -156 417 -176 Q405 -196 384 -210 Q363 -224 334.5 -232 Q306 -240 273 -240 Z " />
<glyph glyph-name="scedilla" unicode="&#x15f;" horiz-adv-x="518" d="M246 -240 Q206 -240 168.5 -223.5 Q131 -207 102 -181 L180 -134 Q197 -148 213.5 -158 Q230 -168 256 -168 Q278 -168 294.5 -159 Q311 -150 311 -137 Q311 -110 253 -110 L203 -110 L203 -8 Q129 1 79 36 Q29 71 -1 130 L124 190 Q145 149 181 127 Q217 105 265 105 Q315 105 340 126 Q365 147 365 176 Q365 192 353.5 202 Q342 212 323.5 219.5 Q305 227 280 232 Q255 237 228 243 Q190 251 153.5 262 Q117 273 88 292.5 Q59 312 41 342.5 Q23 373 23 419 Q23 454 39.5 486.5 Q56 519 86 544 Q116 569 158.5 583.5 Q201 598 253 598 Q341 598 399.5 565.5 Q458 533 492 477 L377 419 Q359 450 327 468 Q295 486 253 486 Q205 486 182 467 Q159 448 159 423 Q159 394 193 381.5 Q227 369 293 355 Q329 348 365.5 336.5 Q402 325 432 305.5 Q462 286 480.5 255.5 Q499 225 499 179 Q499 150 486.5 118 Q474 86 448 59 Q422 32 382 12.5 Q342 -7 287 -11 L287 -53 Q343 -51 372.5 -73.5 Q402 -96 402 -133 Q402 -156 390 -176 Q378 -196 357 -210 Q336 -224 307.5 -232 Q279 -240 246 -240 Z " />
<glyph glyph-name="Scaron" unicode="&#x160;" horiz-adv-x="563" d="M288 -10 Q189 -10 121 27.5 Q53 65 3 121 L127 219 Q155 171 196 145.5 Q237 120 287 120 Q341 120 369.5 150 Q398 180 398 218 Q398 241 385 257 Q372 273 351 284.5 Q330 296 302.5 305 Q275 314 246 323 Q209 335 172 349 Q135 363 105.5 386.5 Q76 410 57.5 444.5 Q39 479 39 531 Q39 575 57 613 Q75 651 107.5 679.5 Q140 708 184.5 724 Q229 740 281 740 Q325 740 360.5 732 Q396 724 425.5 710 Q455 696 479.5 676.5 Q504 657 526 634 L414 549 Q367 619 282 619 Q232 619 206 595 Q180 571 180 536 Q180 514 192 499 Q204 484 224.5 472.5 Q245 461 272 452 Q299 443 329 433 Q366 421 403.5 405.5 Q441 390 471.5 365.5 Q502 341 521 305.5 Q540 270 540 217 Q540 174 523 133 Q506 92 474 60.5 Q442 29 395 9.5 Q348 -10 288 -10 Z M122 950 L224 950 L283 861 L342 950 L444 950 L325 780 L241 780 L122 950 Z " />
<glyph glyph-name="scaron" unicode="&#x161;" horiz-adv-x="518" d="M259 -12 Q162 -12 98 24.5 Q34 61 -1 130 L124 190 Q145 149 181 127 Q217 105 265 105 Q315 105 340 126 Q365 147 365 176 Q365 192 353.5 202 Q342 212 323.5 219.5 Q305 227 280 232 Q255 237 228 243 Q190 251 153.5 262 Q117 273 88 292.5 Q59 312 41 342.5 Q23 373 23 419 Q23 454 39.5 486.5 Q56 519 86 544 Q116 569 158.5 583.5 Q201 598 253 598 Q341 598 399.5 565.5 Q458 533 492 477 L377 419 Q359 450 327 468 Q295 486 253 486 Q205 486 182 467 Q159 448 159 423 Q159 394 193 381.5 Q227 369 293 355 Q329 348 365.5 336.5 Q402 325 432 305.5 Q462 286 480.5 255.5 Q499 225 499 179 Q499 148 485 114.5 Q471 81 441.5 52.5 Q412 24 367 6 Q322 -12 259 -12 Z M97 811 L199 811 L258 722 L317 811 L419 811 L300 641 L216 641 L97 811 Z " />
<glyph glyph-name="uni0162" unicode="&#x162;" horiz-adv-x="598" d="M206 -250 L240 -46 L359 -46 L289 -250 L206 -250 Z M233 600 L38 600 L38 730 L565 730 L565 600 L369 600 L369 0 L233 0 L233 600 Z " />
<glyph glyph-name="uni0163" unicode="&#x163;" horiz-adv-x="399" d="M18 585 L118 585 L118 674 L254 767 L254 585 L373 585 L373 464 L254 464 L254 245 Q254 207 258 183.5 Q262 160 274.5 147.5 Q287 135 310.5 131 Q334 127 373 127 L373 0 L354 0 Q286 0 240.5 12 Q195 24 168 52.5 Q141 81 129.5 127.5 Q118 174 118 244 L118 464 L18 464 L18 585 Z M145 -243 L179 -39 L298 -39 L228 -243 L145 -243 Z " />
<glyph glyph-name="Tcaron" unicode="&#x164;" horiz-adv-x="598" d="M233 600 L38 600 L38 730 L565 730 L565 600 L369 600 L369 0 L233 0 L233 600 Z M135 950 L237 950 L296 861 L355 950 L457 950 L338 780 L254 780 L135 950 Z " />
<glyph glyph-name="tcaron" unicode="&#x165;" horiz-adv-x="399" d="M18 585 L118 585 L118 674 L254 767 L254 585 L373 585 L373 464 L254 464 L254 245 Q254 207 258 183.5 Q262 160 274.5 147.5 Q287 135 310.5 131 Q334 127 373 127 L373 0 L354 0 Q286 0 240.5 12 Q195 24 168 52.5 Q141 81 129.5 127.5 Q118 174 118 244 L118 464 L18 464 L18 585 Z M322 805 L431 805 L380 634 L297 634 L322 805 Z " />
<glyph glyph-name="Tbar" unicode="&#x166;" horiz-adv-x="598" d="M108 433 L233 433 L233 600 L38 600 L38 730 L565 730 L565 600 L369 600 L369 433 L489 433 L489 303 L369 303 L369 0 L233 0 L233 303 L108 303 L108 433 Z " />
<glyph glyph-name="tbar" unicode="&#x167;" horiz-adv-x="399" d="M18 585 L118 585 L118 674 L254 767 L254 585 L373 585 L373 464 L254 464 L254 361 L373 361 L373 250 L254 250 L254 245 Q254 207 258 183.5 Q262 160 274.5 147.5 Q287 135 310.5 131 Q334 127 373 127 L373 0 L354 0 Q286 0 240.5 12 Q195 24 168 52.5 Q141 81 129.5 127.5 Q118 174 118 244 L118 250 L18 250 L18 361 L118 361 L118 464 L18 464 L18 585 Z " />
<glyph glyph-name="Utilde" unicode="&#x168;" horiz-adv-x="608" d="M304 -10 Q247 -10 199 7 Q151 24 115.5 57 Q80 90 60.5 139 Q41 188 41 252 L41 730 L177 730 L177 244 Q177 217 186.5 193.5 Q196 170 213 153 Q230 136 253 126 Q276 116 303 116 Q330 116 353 126 Q376 136 393.5 153 Q411 170 421 193.5 Q431 217 431 244 L431 730 L567 730 L567 252 Q567 188 547 139 Q527 90 492 57 Q457 24 409 7 Q361 -10 304 -10 Z M126 780 Q126 841 153.5 878 Q181 915 230 915 Q255 915 273 907.5 Q291 900 307 891 Q321 881 333.5 873.5 Q346 866 359 866 Q387 866 387 911 L465 911 Q465 849 439 812.5 Q413 776 360 776 Q331 776 310.5 786.5 Q290 797 273 807 Q262 814 251.5 819 Q241 824 230 824 Q204 824 204 780 L126 780 Z " />
<glyph glyph-name="utilde" unicode="&#x169;" horiz-adv-x="608" d="M569 0 L435 0 L435 67 Q407 30 365 9 Q323 -12 267 -12 Q163 -12 102.5 54 Q42 120 42 238 L42 585 L179 585 L179 252 Q179 184 209.5 144.5 Q240 105 304 105 Q360 105 397 146 Q434 187 434 264 L434 585 L569 585 L569 0 Z M141 634 Q141 695 168.5 732 Q196 769 245 769 Q270 769 288 761.5 Q306 754 322 745 Q336 735 348.5 727.5 Q361 720 374 720 Q402 720 402 765 L480 765 Q480 703 454 666.5 Q428 630 375 630 Q346 630 325.5 640.5 Q305 651 288 661 Q277 668 266.5 673 Q256 678 245 678 Q219 678 219 634 L141 634 Z " />
<glyph glyph-name="Umacron" unicode="&#x16a;" horiz-adv-x="608" d="M304 -10 Q247 -10 199 7 Q151 24 115.5 57 Q80 90 60.5 139 Q41 188 41 252 L41 730 L177 730 L177 244 Q177 217 186.5 193.5 Q196 170 213 153 Q230 136 253 126 Q276 116 303 116 Q330 116 353 126 Q376 136 393.5 153 Q411 170 421 193.5 Q431 217 431 244 L431 730 L567 730 L567 252 Q567 188 547 139 Q527 90 492 57 Q457 24 409 7 Q361 -10 304 -10 Z M172 866 L436 866 L436 780 L172 780 L172 866 Z " />
<glyph glyph-name="umacron" unicode="&#x16b;" horiz-adv-x="608" d="M569 0 L435 0 L435 67 Q407 30 365 9 Q323 -12 267 -12 Q163 -12 102.5 54 Q42 120 42 238 L42 585 L179 585 L179 252 Q179 184 209.5 144.5 Q240 105 304 105 Q360 105 397 146 Q434 187 434 264 L434 585 L569 585 L569 0 Z M174 725 L438 725 L438 639 L174 639 L174 725 Z " />
<glyph glyph-name="Ubreve" unicode="&#x16c;" horiz-adv-x="608" d="M304 -10 Q247 -10 199 7 Q151 24 115.5 57 Q80 90 60.5 139 Q41 188 41 252 L41 730 L177 730 L177 244 Q177 217 186.5 193.5 Q196 170 213 153 Q230 136 253 126 Q276 116 303 116 Q330 116 353 126 Q376 136 393.5 153 Q411 170 421 193.5 Q431 217 431 244 L431 730 L567 730 L567 252 Q567 188 547 139 Q527 90 492 57 Q457 24 409 7 Q361 -10 304 -10 Z M308 775 Q267 775 236.5 788 Q206 801 186 823.5 Q166 846 156.5 877.5 Q147 909 147 945 L232 945 Q232 897 251.5 874 Q271 851 308 849 Q344 851 364 874 Q384 897 384 945 L470 945 Q470 909 459 877.5 Q448 846 427 823.5 Q406 801 376 788 Q346 775 308 775 Z " />
<glyph glyph-name="ubreve" unicode="&#x16d;" horiz-adv-x="608" d="M569 0 L435 0 L435 67 Q407 30 365 9 Q323 -12 267 -12 Q163 -12 102.5 54 Q42 120 42 238 L42 585 L179 585 L179 252 Q179 184 209.5 144.5 Q240 105 304 105 Q360 105 397 146 Q434 187 434 264 L434 585 L569 585 L569 0 Z M309 623 Q268 623 237.5 636 Q207 649 187 671.5 Q167 694 157.5 725.5 Q148 757 148 793 L233 793 Q233 745 252.5 722 Q272 699 309 697 Q345 699 365 722 Q385 745 385 793 L471 793 Q471 757 460 725.5 Q449 694 428 671.5 Q407 649 377 636 Q347 623 309 623 Z " />
<glyph glyph-name="Uring" unicode="&#x16e;" horiz-adv-x="608" d="M302 729 Q278 729 257 738 Q236 747 220 763 Q204 779 195 800 Q186 821 186 845 Q186 870 195 891.5 Q204 913 220 929 Q236 945 257 954 Q278 963 302 963 Q326 963 347.5 954 Q369 945 385 929 Q401 913 410 891.5 Q419 870 419 845 Q419 821 410 800 Q401 779 385 763 Q369 747 347.5 738 Q326 729 302 729 Z M302 806 Q319 806 331 817.5 Q343 829 343 845 Q343 862 331 874 Q319 886 302 886 Q285 886 273.5 874 Q262 862 262 845 Q262 829 273.5 817.5 Q285 806 302 806 Z M304 -10 Q247 -10 199 7 Q151 24 115.5 57 Q80 90 60.5 139 Q41 188 41 252 L41 730 L177 730 L177 244 Q177 217 186.5 193.5 Q196 170 213 153 Q230 136 253 126 Q276 116 303 116 Q330 116 353 126 Q376 136 393.5 153 Q411 170 421 193.5 Q431 217 431 244 L431 730 L567 730 L567 252 Q567 188 547 139 Q527 90 492 57 Q457 24 409 7 Q361 -10 304 -10 Z " />
<glyph glyph-name="uring" unicode="&#x16f;" horiz-adv-x="608" d="M569 0 L435 0 L435 67 Q407 30 365 9 Q323 -12 267 -12 Q163 -12 102.5 54 Q42 120 42 238 L42 585 L179 585 L179 252 Q179 184 209.5 144.5 Q240 105 304 105 Q360 105 397 146 Q434 187 434 264 L434 585 L569 585 L569 0 Z M305 599 Q281 599 260 608 Q239 617 223 633 Q207 649 198 670 Q189 691 189 715 Q189 740 198 761.5 Q207 783 223 799 Q239 815 260 824 Q281 833 305 833 Q329 833 350.5 824 Q372 815 388 799 Q404 783 413 761.5 Q422 740 422 715 Q422 691 413 670 Q404 649 388 633 Q372 617 350.5 608 Q329 599 305 599 Z M305 676 Q322 676 334 687.5 Q346 699 346 715 Q346 732 334 744 Q322 756 305 756 Q288 756 276.5 744 Q265 732 265 715 Q265 699 276.5 687.5 Q288 676 305 676 Z " />
<glyph glyph-name="Uhungarumlaut" unicode="&#x170;" horiz-adv-x="608" d="M304 -10 Q247 -10 199 7 Q151 24 115.5 57 Q80 90 60.5 139 Q41 188 41 252 L41 730 L177 730 L177 244 Q177 217 186.5 193.5 Q196 170 213 153 Q230 136 253 126 Q276 116 303 116 Q330 116 353 126 Q376 136 393.5 153 Q411 170 421 193.5 Q431 217 431 244 L431 730 L567 730 L567 252 Q567 188 547 139 Q527 90 492 57 Q457 24 409 7 Q361 -10 304 -10 Z M275 950 L395 950 L245 780 L161 780 L275 950 Z M441 950 L561 950 L411 780 L327 780 L441 950 Z " />
<glyph glyph-name="uhungarumlaut" unicode="&#x171;" horiz-adv-x="608" d="M569 0 L435 0 L435 67 Q407 30 365 9 Q323 -12 267 -12 Q163 -12 102.5 54 Q42 120 42 238 L42 585 L179 585 L179 252 Q179 184 209.5 144.5 Q240 105 304 105 Q360 105 397 146 Q434 187 434 264 L434 585 L569 585 L569 0 Z M442 805 L562 805 L412 635 L328 635 L442 805 Z M276 805 L396 805 L246 635 L162 635 L276 805 Z " />
<glyph glyph-name="Uogonek" unicode="&#x172;" horiz-adv-x="608" d="M316 -222 Q251 -222 211.5 -190.5 Q172 -159 172 -113 Q172 -85 185.5 -58.5 Q199 -32 237 -3 Q149 14 95 78.5 Q41 143 41 252 L41 730 L177 730 L177 244 Q177 217 186.5 193.5 Q196 170 213 153 Q230 136 253 126 Q276 116 303 116 Q330 116 353 126 Q376 136 393.5 153 Q411 170 421 193.5 Q431 217 431 244 L431 730 L567 730 L567 252 Q567 152 522 90.5 Q477 29 403 5 Q362 -22 336.5 -39.5 Q311 -57 297 -69 Q283 -81 278 -89.5 Q273 -98 273 -108 Q273 -125 286 -132 Q299 -139 316 -139 Q336 -139 349 -130 Q362 -121 376 -110 L455 -164 Q429 -188 390.5 -205 Q352 -222 316 -222 Z " />
<glyph glyph-name="uogonek" unicode="&#x173;" horiz-adv-x="608" d="M569 0 Q512 -35 488 -64 Q464 -93 464 -111 Q464 -128 474.5 -136 Q485 -144 502 -144 Q517 -144 529.5 -135 Q542 -126 552 -114 L631 -169 Q605 -196 573 -212.5 Q541 -229 497 -229 Q439 -229 402.5 -198.5 Q366 -168 365 -121 Q364 -82 382.5 -52.5 Q401 -23 435 4 L435 67 Q407 30 365 9 Q323 -12 267 -12 Q163 -12 102.5 54 Q42 120 42 238 L42 585 L179 585 L179 252 Q179 184 209.5 144.5 Q240 105 304 105 Q360 105 397 146 Q434 187 434 264 L434 585 L569 585 L569 0 Z " />
<glyph glyph-name="Wcircumflex" unicode="&#x174;" horiz-adv-x="1023" d="M14 730 L156 730 L294 219 L447 730 L581 730 L733 221 L870 730 L1007 730 L801 0 L666 0 L513 515 L360 0 L222 0 L14 730 Z M469 950 L553 950 L672 780 L570 780 L511 869 L452 780 L350 780 L469 950 Z " />
<glyph glyph-name="wcircumflex" unicode="&#x175;" horiz-adv-x="995" d="M18 585 L156 585 L285 182 L432 585 L566 585 L710 181 L844 585 L981 585 L776 0 L646 0 L498 405 L346 0 L213 0 L18 585 Z M455 804 L539 804 L658 634 L556 634 L497 723 L438 634 L336 634 L455 804 Z " />
<glyph glyph-name="Ycircumflex" unicode="&#x176;" horiz-adv-x="629" d="M245 346 L13 730 L163 730 L314 477 L466 730 L616 730 L381 343 L381 0 L245 0 L245 346 Z M272 950 L356 950 L475 780 L373 780 L314 869 L255 780 L153 780 L272 950 Z " />
<glyph glyph-name="ycircumflex" unicode="&#x177;" horiz-adv-x="618" d="M246 29 L6 585 L150 585 L313 191 L467 585 L609 585 L260 -270 L123 -270 L246 29 Z M267 805 L351 805 L470 635 L368 635 L309 724 L250 635 L148 635 L267 805 Z " />
<glyph glyph-name="Ydieresis" unicode="&#x178;" horiz-adv-x="629" d="M245 346 L13 730 L163 730 L314 477 L466 730 L616 730 L381 343 L381 0 L245 0 L245 346 Z M146 849 Q146 881 165.5 901 Q185 921 218 921 Q252 921 271 901 Q290 881 290 849 Q290 817 271 797.5 Q252 778 218 778 Q184 778 165 797.5 Q146 817 146 849 Z M337 849 Q337 881 356.5 901 Q376 921 409 921 Q442 921 461.5 901 Q481 881 481 849 Q481 817 461.5 797.5 Q442 778 409 778 Q374 778 355.5 797.5 Q337 817 337 849 Z " />
<glyph glyph-name="Zacute" unicode="&#x179;" horiz-adv-x="556" d="M36 125 L359 600 L47 600 L47 730 L519 730 L519 606 L196 130 L519 130 L519 0 L36 0 L36 125 Z M337 950 L463 950 L313 780 L222 780 L337 950 Z " />
<glyph glyph-name="zacute" unicode="&#x17a;" horiz-adv-x="577" d="M28 123 L368 465 L35 465 L35 585 L544 585 L544 462 L204 120 L550 120 L550 0 L28 0 L28 123 Z M356 805 L482 805 L332 635 L241 635 L356 805 Z " />
<glyph glyph-name="Zdotaccent" unicode="&#x17b;" horiz-adv-x="556" d="M36 125 L359 600 L47 600 L47 730 L519 730 L519 606 L196 130 L519 130 L519 0 L36 0 L36 125 Z M203 849 Q203 884 224.5 906 Q246 928 282 928 Q319 928 340 906 Q361 884 361 849 Q361 814 340 792.5 Q319 771 282 771 Q244 771 223.5 792.5 Q203 814 203 849 Z " />
<glyph glyph-name="zdotaccent" unicode="&#x17c;" horiz-adv-x="577" d="M28 123 L368 465 L35 465 L35 585 L544 585 L544 462 L204 120 L550 120 L550 0 L28 0 L28 123 Z M218 704 Q218 739 239.5 761 Q261 783 297 783 Q334 783 355 761 Q376 739 376 704 Q376 669 355 647.5 Q334 626 297 626 Q259 626 238.5 647.5 Q218 669 218 704 Z " />
<glyph glyph-name="Zcaron" unicode="&#x17d;" horiz-adv-x="556" d="M36 125 L359 600 L47 600 L47 730 L519 730 L519 606 L196 130 L519 130 L519 0 L36 0 L36 125 Z M122 950 L224 950 L283 861 L342 950 L444 950 L325 780 L241 780 L122 950 Z " />
<glyph glyph-name="zcaron" unicode="&#x17e;" horiz-adv-x="577" d="M28 123 L368 465 L35 465 L35 585 L544 585 L544 462 L204 120 L550 120 L550 0 L28 0 L28 123 Z M136 805 L238 805 L297 716 L356 805 L458 805 L339 635 L255 635 L136 805 Z " />
<glyph glyph-name="florin" unicode="&#x192;" horiz-adv-x="588" d="M48 425 L239 425 L264 514 Q281 576 306 617.5 Q331 659 364 684 Q397 709 439 719.5 Q481 730 533 730 L543 730 L543 605 Q509 605 485.5 601 Q462 597 445.5 586.5 Q429 576 419 558 Q409 540 401 513 L376 425 L541 425 L541 305 L342 305 L317 216 Q300 156 278 115 Q256 74 226 48.5 Q196 23 157 11.5 Q118 0 68 0 L46 0 L46 125 Q107 125 136.5 145 Q166 165 180 217 L205 305 L48 305 L48 425 Z " />
<glyph glyph-name="Ohorn" unicode="&#x1a0;" horiz-adv-x="790" d="M395 124 Q445 124 488.5 143 Q532 162 564.5 194.5 Q597 227 615.5 271 Q634 315 634 365 Q634 415 615.5 459 Q597 503 564.5 535.5 Q532 568 488.5 587 Q445 606 395 606 Q345 606 301.5 587 Q258 568 226 535.5 Q194 503 175.5 459 Q157 415 157 365 Q157 315 175.5 271 Q194 227 226 194.5 Q258 162 301.5 143 Q345 124 395 124 Z M628 659 Q645 645 660 630 Q711 579 740 511 Q769 443 769 365 Q769 287 740 218.5 Q711 150 660 99.5 Q609 49 541 19.5 Q473 -10 395 -10 Q317 -10 249 19.5 Q181 49 130.5 99.5 Q80 150 51 218.5 Q22 287 22 365 Q22 443 51 511 Q80 579 130.5 630 Q181 681 249 710.5 Q317 740 395 740 Q460 740 519 719 Q564 716 590 742 Q605 760 601 825 L696 825 Q696 714 647 672 Q639 665 628 659 Z " />
<glyph glyph-name="ohorn" unicode="&#x1a1;" horiz-adv-x="646" d="M323 115 Q359 115 390 129 Q421 143 444 167 Q467 191 480 223.5 Q493 256 493 292 Q493 329 480 361.5 Q467 394 444 418 Q421 442 390 456 Q359 470 323 470 Q287 470 255.5 456 Q224 442 201.5 418 Q179 394 166 361.5 Q153 329 153 292 Q153 256 166 223.5 Q179 191 201.5 167 Q224 143 255.5 129 Q287 115 323 115 Z M537 509 L538 509 Q579 467 602.5 411.5 Q626 356 626 292 Q626 229 602.5 173.5 Q579 118 537.5 76.5 Q496 35 441 11.5 Q386 -12 323 -12 Q260 -12 204.5 11.5 Q149 35 108 76.5 Q67 118 43.5 173.5 Q20 229 20 292 Q20 356 43.5 411.5 Q67 467 108 508.5 Q149 550 204.5 573.5 Q260 597 323 597 Q383 597 436 576 Q482 572 507 597 Q522 615 518 680 L613 680 Q613 569 564 527 Q552 517 537 509 Z " />
<glyph glyph-name="Uhorn" unicode="&#x1af;" horiz-adv-x="608" d="M567 643 L567 252 Q567 188 547 139 Q527 90 492 57 Q457 24 409 7 Q361 -10 304 -10 Q247 -10 199 7 Q151 24 115.5 57 Q80 90 60.5 139 Q41 188 41 252 L41 730 L177 730 L177 244 Q177 217 186.5 193.5 Q196 170 213 153 Q230 136 253 126 Q276 116 303 116 Q330 116 353 126 Q376 136 393.5 153 Q411 170 421 193.5 Q431 217 431 244 L431 730 L549 730 Q562 734 568 742 Q583 760 579 825 L674 825 Q674 714 625 672 Q603 653 567 643 Z " />
<glyph glyph-name="uhorn" unicode="&#x1b0;" horiz-adv-x="605" d="M566 506 L566 0 L432 0 L432 67 Q404 30 362 9 Q320 -12 264 -12 Q160 -12 99.5 54 Q39 120 39 238 L39 585 L176 585 L176 252 Q176 184 206.5 144.5 Q237 105 301 105 Q357 105 394 146 Q431 187 431 264 L431 585 L525 585 Q538 589 544 597 Q559 615 555 680 L650 680 Q650 569 601 527 Q587 515 566 506 Z " />
<glyph glyph-name="Aringacute" unicode="&#x1fa;" horiz-adv-x="687" d="M261 691 Q247 706 238.5 726.5 Q230 747 230 770 Q230 795 239 816.5 Q248 838 264 854 Q280 870 301 879 Q322 888 346 888 Q370 888 391.5 879 Q413 870 429 854 Q445 838 454 816.5 Q463 795 463 770 Q463 745 453.5 723.5 Q444 702 427 686 L672 0 L530 0 L485 130 L202 130 L157 0 L15 0 L261 691 Z M248 260 L440 260 L344 536 L248 260 Z M414 1100 L540 1100 L390 930 L299 930 L414 1100 Z M346 731 Q363 731 375 742.5 Q387 754 387 770 Q387 787 375 799 Q363 811 346 811 Q329 811 317.5 799 Q306 787 306 770 Q306 754 317.5 742.5 Q329 731 346 731 Z " />
<glyph glyph-name="aringacute" unicode="&#x1fb;" horiz-adv-x="671" d="M308 -12 Q255 -12 203.5 8.5 Q152 29 111 68 Q70 107 45 163.5 Q20 220 20 292 Q20 348 35 395 Q50 442 76 478.5 Q102 515 137 540.5 Q172 566 212 580 Q198 606 198 636 Q198 661 207 682.5 Q216 704 232 720 Q248 736 269 745 Q290 754 314 754 Q338 754 359.5 745 Q381 736 397 720 Q413 704 422 682.5 Q431 661 431 636 Q431 604 414 576 Q465 555 498 515 L498 585 L633 585 L633 0 L498 0 L498 76 Q466 35 416 11.5 Q366 -12 308 -12 Z M330 112 Q368 112 400 126 Q432 140 455 165 Q478 190 491.5 223 Q505 256 505 294 Q505 331 491.5 364 Q478 397 455 421.5 Q432 446 400 460 Q368 474 330 474 Q293 474 260.5 460 Q228 446 204 422 Q180 398 166.5 365 Q153 332 153 294 Q153 256 166.5 222.5 Q180 189 204 164.5 Q228 140 260.5 126 Q293 112 330 112 Z M382 958 L508 958 L358 788 L267 788 L382 958 Z M314 597 Q331 597 343 608.5 Q355 620 355 636 Q355 653 343 665 Q331 677 314 677 Q297 677 285.5 665 Q274 653 274 636 Q274 621 284.5 609.5 Q295 598 310 597 L314 597 Z " />
<glyph glyph-name="AEacute" unicode="&#x1fc;" horiz-adv-x="938" d="M346 730 L904 730 L904 600 L518 600 L560 432 L904 432 L904 302 L593 302 L636 130 L904 130 L904 0 L526 0 L494 129 L213 129 L155 0 L13 0 L346 730 Z M269 255 L463 255 L395 534 L269 255 Z M605 950 L731 950 L581 780 L490 780 L605 950 Z " />
<glyph glyph-name="aeacute" unicode="&#x1fd;" horiz-adv-x="1035" d="M719 -12 Q635 -12 571.5 21 Q508 54 469 111 Q454 86 430.5 63.5 Q407 41 376 24 Q345 7 308 -2.5 Q271 -12 230 -12 Q175 -12 135 0.5 Q95 13 69 35.5 Q43 58 30.5 88 Q18 118 18 154 Q18 195 32.5 225 Q47 255 73 277 Q99 299 134.5 313.5 Q170 328 211 338 Q248 348 283 356 Q318 364 345.5 373.5 Q373 383 390 395.5 Q407 408 407 427 Q407 453 380 471.5 Q353 490 299 490 Q226 490 192 457.5 Q158 425 158 380 L158 377 L34 377 L34 379 Q34 482 102.5 539.5 Q171 597 293 597 Q365 597 419 575.5 Q473 554 503 512 Q543 552 596.5 574.5 Q650 597 713 597 Q778 597 833 574.5 Q888 552 928.5 511.5 Q969 471 992 416 Q1015 361 1015 296 L1015 249 L538 249 Q550 185 597.5 146 Q645 107 719 107 Q776 107 820 136.5 Q864 166 885 213 L999 164 Q962 84 889 36 Q816 -12 719 -12 Z M237 100 Q273 100 304 114.5 Q335 129 358 149.5 Q381 170 395 193.5 Q409 217 412 235 Q412 236 412.5 244.5 Q413 253 412.5 263.5 Q412 274 411.5 283 Q411 292 410 294 Q405 280 369 267.5 Q333 255 276 242 Q214 228 183.5 210.5 Q153 193 153 158 Q153 132 172.5 116 Q192 100 237 100 Z M713 478 Q653 478 610 446 Q567 414 547 362 L877 362 Q860 419 817 448.5 Q774 478 713 478 Z M584 808 L710 808 L560 638 L469 638 L584 808 Z " />
<glyph glyph-name="Oslashacute" unicode="&#x1fe;" horiz-adv-x="790" d="M116 114 Q71 165 46.5 228.5 Q22 292 22 365 Q22 443 51 511 Q80 579 130.5 630 Q181 681 249 710.5 Q317 740 395 740 Q446 740 492.5 726.5 Q539 713 581 690 L614 730 L771 730 L676 613 Q720 563 744.5 500 Q769 437 769 365 Q769 287 740 218.5 Q711 150 660 99.5 Q609 49 541 19.5 Q473 -10 395 -10 Q344 -10 298 2.5 Q252 15 211 38 L181 0 L24 0 L116 114 Z M157 365 Q157 324 169 287.5 Q181 251 203 221 L495 583 Q472 594 447 600 Q422 606 395 606 Q345 606 301.5 587 Q258 568 226 535.5 Q194 503 175.5 459 Q157 415 157 365 Z M395 124 Q445 124 488.5 143 Q532 162 564.5 194.5 Q597 227 615.5 271 Q634 315 634 365 Q634 404 622 440 Q610 476 589 505 L298 144 Q343 124 395 124 Z M448 950 L574 950 L424 780 L333 780 L448 950 Z " />
<glyph glyph-name="oslashacute" unicode="&#x1ff;" horiz-adv-x="646" d="M323 -12 Q283 -12 246.5 -2.5 Q210 7 178 24 L159 0 L20 0 L93 92 Q58 132 39 183 Q20 234 20 292 Q20 356 43.5 411.5 Q67 467 108 508.5 Q149 550 204.5 573.5 Q260 597 323 597 Q362 597 398 587.5 Q434 578 466 561 L485 585 L624 585 L551 493 Q586 453 606 401.5 Q626 350 626 292 Q626 229 602.5 173.5 Q579 118 537.5 76.5 Q496 35 441 11.5 Q386 -12 323 -12 Z M323 115 Q359 115 390 129 Q421 143 444.5 167 Q468 191 481 223.5 Q494 256 494 292 Q494 318 487 342.5 Q480 367 467 388 L260 127 Q289 115 323 115 Z M152 292 Q152 240 177 198 L384 458 Q356 470 323 470 Q286 470 255 456 Q224 442 201 418 Q178 394 165 361.5 Q152 329 152 292 Z M393 810 L519 810 L369 640 L278 640 L393 810 Z " />
<glyph glyph-name="uni0218" unicode="&#x218;" horiz-adv-x="563" d="M187 -249 L221 -45 L340 -45 L270 -249 L187 -249 Z M288 -10 Q189 -10 121 27.5 Q53 65 3 121 L127 219 Q155 171 196 145.5 Q237 120 287 120 Q341 120 369.5 150 Q398 180 398 218 Q398 241 385 257 Q372 273 351 284.5 Q330 296 302.5 305 Q275 314 246 323 Q209 335 172 349 Q135 363 105.5 386.5 Q76 410 57.5 444.5 Q39 479 39 531 Q39 575 57 613 Q75 651 107.5 679.5 Q140 708 184.5 724 Q229 740 281 740 Q325 740 360.5 732 Q396 724 425.5 710 Q455 696 479.5 676.5 Q504 657 526 634 L414 549 Q367 619 282 619 Q232 619 206 595 Q180 571 180 536 Q180 514 192 499 Q204 484 224.5 472.5 Q245 461 272 452 Q299 443 329 433 Q366 421 403.5 405.5 Q441 390 471.5 365.5 Q502 341 521 305.5 Q540 270 540 217 Q540 174 523 133 Q506 92 474 60.5 Q442 29 395 9.5 Q348 -10 288 -10 Z " />
<glyph glyph-name="uni0219" unicode="&#x219;" horiz-adv-x="518" d="M165 -254 L199 -50 L318 -50 L248 -254 L165 -254 Z M259 -12 Q162 -12 98 24.5 Q34 61 -1 130 L124 190 Q145 149 181 127 Q217 105 265 105 Q315 105 340 126 Q365 147 365 176 Q365 192 353.5 202 Q342 212 323.5 219.5 Q305 227 280 232 Q255 237 228 243 Q190 251 153.5 262 Q117 273 88 292.5 Q59 312 41 342.5 Q23 373 23 419 Q23 454 39.5 486.5 Q56 519 86 544 Q116 569 158.5 583.5 Q201 598 253 598 Q341 598 399.5 565.5 Q458 533 492 477 L377 419 Q359 450 327 468 Q295 486 253 486 Q205 486 182 467 Q159 448 159 423 Q159 394 193 381.5 Q227 369 293 355 Q329 348 365.5 336.5 Q402 325 432 305.5 Q462 286 480.5 255.5 Q499 225 499 179 Q499 148 485 114.5 Q471 81 441.5 52.5 Q412 24 367 6 Q322 -12 259 -12 Z " />
<glyph glyph-name="uni0237" unicode="&#x237;" horiz-adv-x="214" d="M-82 -142 Q-43 -142 -19 -138 Q5 -134 18 -121.5 Q31 -109 35 -86 Q39 -63 39 -24 L39 585 L176 585 L176 -25 Q176 -95 164 -141.5 Q152 -188 124 -216.5 Q96 -245 50.5 -257 Q5 -269 -63 -269 L-82 -269 L-82 -142 Z " />
<glyph glyph-name="circumflex" unicode="&#x2c6;" horiz-adv-x="472" d="M194 720 L278 720 L397 550 L295 550 L236 639 L177 550 L75 550 L194 720 Z " />
<glyph glyph-name="caron" unicode="&#x2c7;" horiz-adv-x="472" d="M74 720 L176 720 L235 631 L294 720 L396 720 L277 550 L193 550 L74 720 Z " />
<glyph glyph-name="breve" unicode="&#x2d8;" horiz-adv-x="472" d="M235 545 Q194 545 163.5 558 Q133 571 113 593.5 Q93 616 83.5 647.5 Q74 679 74 715 L159 715 Q159 667 178.5 644 Q198 621 235 619 Q271 621 291 644 Q311 667 311 715 L397 715 Q397 679 386 647.5 Q375 616 354 593.5 Q333 571 303 558 Q273 545 235 545 Z " />
<glyph glyph-name="dotaccent" unicode="&#x2d9;" horiz-adv-x="473" d="M147 619 Q147 654 168.5 676 Q190 698 226 698 Q263 698 284 676 Q305 654 305 619 Q305 584 284 562.5 Q263 541 226 541 Q188 541 167.5 562.5 Q147 584 147 619 Z " />
<glyph glyph-name="ring" unicode="&#x2da;" horiz-adv-x="472" d="M235 546 Q211 546 190 555 Q169 564 153 580 Q137 596 128 617 Q119 638 119 662 Q119 687 128 708.5 Q137 730 153 746 Q169 762 190 771 Q211 780 235 780 Q259 780 280.5 771 Q302 762 318 746 Q334 730 343 708.5 Q352 687 352 662 Q352 638 343 617 Q334 596 318 580 Q302 564 280.5 555 Q259 546 235 546 Z M235 623 Q252 623 264 634.5 Q276 646 276 662 Q276 679 264 691 Q252 703 235 703 Q218 703 206.5 691 Q195 679 195 662 Q195 646 206.5 634.5 Q218 623 235 623 Z " />
<glyph glyph-name="ogonek" unicode="&#x2db;" horiz-adv-x="472" d="M232 -227 Q167 -227 127.5 -195.5 Q88 -164 88 -118 Q88 -98 95 -79 Q102 -60 119 -40.5 Q136 -21 165 -0.5 Q194 20 238 42 L319 0 Q278 -27 252.5 -44.5 Q227 -62 213 -74 Q199 -86 194 -94.5 Q189 -103 189 -113 Q189 -130 202 -137 Q215 -144 232 -144 Q252 -144 265 -135 Q278 -126 292 -115 L371 -169 Q345 -193 306.5 -210 Q268 -227 232 -227 Z " />
<glyph glyph-name="tilde" unicode="&#x2dc;" horiz-adv-x="472" d="M64 550 Q64 611 91.5 648 Q119 685 168 685 Q193 685 211 677.5 Q229 670 245 661 Q259 651 271.5 643.5 Q284 636 297 636 Q325 636 325 681 L403 681 Q403 619 377 582.5 Q351 546 298 546 Q269 546 248.5 556.5 Q228 567 211 577 Q200 584 189.5 589 Q179 594 168 594 Q142 594 142 550 L64 550 Z " />
<glyph glyph-name="hungarumlaut" unicode="&#x2dd;" horiz-adv-x="472" d="M150 720 L270 720 L120 550 L36 550 L150 720 Z M316 720 L436 720 L286 550 L202 550 L316 720 Z " />
<glyph glyph-name="gravecomb" unicode="&#x300;" d="M-342 720 L-215 720 L-101 550 L-192 550 L-342 720 Z " />
<glyph glyph-name="acutecomb" unicode="&#x301;" d="M-212 720 L-86 720 L-236 550 L-327 550 L-212 720 Z " />
<glyph glyph-name="tildecomb" unicode="&#x303;" d="M-371 550 Q-371 611 -343.5 648 Q-316 685 -267 685 Q-242 685 -224 677.5 Q-206 670 -190 661 Q-176 651 -163.5 643.5 Q-151 636 -138 636 Q-110 636 -110 681 L-32 681 Q-32 619 -58 582.5 Q-84 546 -137 546 Q-166 546 -186.5 556.5 Q-207 567 -224 577 Q-235 584 -245.5 589 Q-256 594 -267 594 Q-293 594 -293 550 L-371 550 Z " />
<glyph glyph-name="hookabovecomb" unicode="&#x309;" horiz-adv-x="539" d="M243 867 Q262 867 279.5 861 Q297 855 311 843.5 Q325 832 333.5 815.5 Q342 799 342 779 Q342 756 334.5 741 Q327 726 317 717 Q307 708 299.5 702.5 Q292 697 290.5 694.5 Q289 692 289 669 L213 669 Q213 710 222 726.5 Q231 743 241 751.5 Q251 760 256.5 764 Q262 768 263.5 771 Q265 774 265 781 Q260 795 243 795 Q234 795 226.5 789 Q219 783 201 750 L132 783 Q158 833 182.5 850 Q207 867 243 867 Z " />
<glyph glyph-name="uni031B" unicode="&#x31b;" d="M1261 491 L1234 583 Q1281 580 1296 598 Q1311 616 1307 681 L1402 681 Q1402 570 1353 528 Q1322 502 1261 491 Z " />
<glyph glyph-name="dotbelowcomb" unicode="&#x323;" horiz-adv-x="214" d="M22 -170 Q22 -132 45 -108.5 Q68 -85 107 -85 Q147 -85 169.5 -108.5 Q192 -132 192 -170 Q192 -208 169.5 -231 Q147 -254 107 -254 Q66 -254 44 -231 Q22 -208 22 -170 Z " />
<glyph glyph-name="uni0328" unicode="&#x328;" horiz-adv-x="472" d="M248 -229 Q190 -229 153.5 -198.5 Q117 -168 116 -121 Q115 -69 148 -32 Q181 5 238 42 L320 0 Q263 -35 239 -64 Q215 -93 215 -111 Q215 -128 225.5 -136 Q236 -144 253 -144 Q268 -144 280.5 -135 Q293 -126 303 -114 L382 -169 Q356 -196 324 -212.5 Q292 -229 248 -229 Z " />
<glyph glyph-name="&amp;#x3c0;" unicode="&#x3c0;" horiz-adv-x="779" d="M36 730 L742 730 L742 600 L613 600 L613 206 Q613 184 615 170.5 Q617 157 623.5 149.5 Q630 142 643 139.5 Q656 137 677 137 L742 137 L742 0 L639 0 Q588 0 556 13 Q524 26 507 51.5 Q490 77 483.5 114.5 Q477 152 477 201 L478 600 L294 600 L294 0 L158 0 L158 600 L36 600 L36 730 Z " />
<glyph glyph-name="&amp;#x3d6;" unicode="&#x3d6;" horiz-adv-x="779" d="M36 730 L742 730 L742 600 L613 600 L613 206 Q613 184 615 170.5 Q617 157 623.5 149.5 Q630 142 643 139.5 Q656 137 677 137 L742 137 L742 0 L639 0 Q588 0 556 13 Q524 26 507 51.5 Q490 77 483.5 114.5 Q477 152 477 201 L478 600 L294 600 L294 0 L158 0 L158 600 L36 600 L36 730 Z " />
<glyph glyph-name="uni0E3F" unicode="&#xe3f;" horiz-adv-x="489" d="M36 657 L214 657 L214 730 L283 730 L283 656 Q371 650 418 608 Q465 566 465 489 Q465 447 447.5 417.5 Q430 388 399 369 Q433 349 451.5 317.5 Q470 286 470 241 Q471 157 420 113.5 Q369 70 283 62 L283 0 L214 0 L214 61 L36 61 L36 657 Z M170 181 L214 181 L214 305 L170 305 L170 181 Z M170 427 L214 427 L214 538 L170 538 L170 427 Z M334 245 Q334 268 322 282.5 Q310 297 283 302 L283 184 Q307 190 320.5 205.5 Q334 221 334 245 Z M332 485 Q332 527 283 536 L283 429 Q308 434 320 448.5 Q332 463 332 485 Z " />
<glyph glyph-name="Wgrave" unicode="&#x1e80;" horiz-adv-x="1023" d="M14 730 L156 730 L294 219 L447 730 L581 730 L733 221 L870 730 L1007 730 L801 0 L666 0 L513 515 L360 0 L222 0 L14 730 Z M312 950 L439 950 L553 780 L462 780 L312 950 Z " />
<glyph glyph-name="wgrave" unicode="&#x1e81;" horiz-adv-x="995" d="M18 585 L156 585 L285 182 L432 585 L566 585 L710 181 L844 585 L981 585 L776 0 L646 0 L498 405 L346 0 L213 0 L18 585 Z M304 805 L431 805 L545 635 L454 635 L304 805 Z " />
<glyph glyph-name="Wacute" unicode="&#x1e82;" horiz-adv-x="1023" d="M14 730 L156 730 L294 219 L447 730 L581 730 L733 221 L870 730 L1007 730 L801 0 L666 0 L513 515 L360 0 L222 0 L14 730 Z M578 950 L704 950 L554 780 L463 780 L578 950 Z " />
<glyph glyph-name="wacute" unicode="&#x1e83;" horiz-adv-x="995" d="M18 585 L156 585 L285 182 L432 585 L566 585 L710 181 L844 585 L981 585 L776 0 L646 0 L498 405 L346 0 L213 0 L18 585 Z M567 806 L693 806 L543 636 L452 636 L567 806 Z " />
<glyph glyph-name="Wdieresis" unicode="&#x1e84;" horiz-adv-x="1023" d="M14 730 L156 730 L294 219 L447 730 L581 730 L733 221 L870 730 L1007 730 L801 0 L666 0 L513 515 L360 0 L222 0 L14 730 Z M345 849 Q345 881 364.5 901 Q384 921 417 921 Q451 921 470 901 Q489 881 489 849 Q489 817 470 797.5 Q451 778 417 778 Q383 778 364 797.5 Q345 817 345 849 Z M536 849 Q536 881 555.5 901 Q575 921 608 921 Q641 921 660.5 901 Q680 881 680 849 Q680 817 660.5 797.5 Q641 778 608 778 Q573 778 554.5 797.5 Q536 817 536 849 Z " />
<glyph glyph-name="wdieresis" unicode="&#x1e85;" horiz-adv-x="995" d="M18 585 L156 585 L285 182 L432 585 L566 585 L710 181 L844 585 L981 585 L776 0 L646 0 L498 405 L346 0 L213 0 L18 585 Z M334 702 Q334 734 353.5 754 Q373 774 406 774 Q440 774 459 754 Q478 734 478 702 Q478 670 459 650.5 Q440 631 406 631 Q372 631 353 650.5 Q334 670 334 702 Z M525 702 Q525 734 544.5 754 Q564 774 597 774 Q630 774 649.5 754 Q669 734 669 702 Q669 670 649.5 650.5 Q630 631 597 631 Q562 631 543.5 650.5 Q525 670 525 702 Z " />
<glyph glyph-name="uni1EA0" unicode="&#x1ea0;" horiz-adv-x="687" d="M275 730 L412 730 L672 0 L530 0 L485 130 L202 130 L157 0 L15 0 L275 730 Z M248 260 L440 260 L344 537 L248 260 Z M259 -170 Q259 -132 282 -108.5 Q305 -85 344 -85 Q384 -85 406.5 -108.5 Q429 -132 429 -170 Q429 -208 406.5 -231 Q384 -254 344 -254 Q303 -254 281 -231 Q259 -208 259 -170 Z " />
<glyph glyph-name="uni1EA1" unicode="&#x1ea1;" horiz-adv-x="671" d="M308 -12 Q255 -12 203.5 8.5 Q152 29 111 68 Q70 107 45 163.5 Q20 220 20 292 Q20 365 44.5 421.5 Q69 478 109.5 517 Q150 556 202.5 576.5 Q255 597 310 597 Q368 597 417 575 Q466 553 498 515 L498 585 L633 585 L633 0 L498 0 L498 76 Q466 35 416 11.5 Q366 -12 308 -12 Z M330 112 Q368 112 400 126 Q432 140 455 165 Q478 190 491.5 223 Q505 256 505 294 Q505 331 491.5 364 Q478 397 455 421.5 Q432 446 400 460 Q368 474 330 474 Q293 474 260.5 460 Q228 446 204 422 Q180 398 166.5 365 Q153 332 153 294 Q153 256 166.5 222.5 Q180 189 204 164.5 Q228 140 260.5 126 Q293 112 330 112 Z M242 -170 Q242 -132 265 -108.5 Q288 -85 327 -85 Q367 -85 389.5 -108.5 Q412 -132 412 -170 Q412 -208 389.5 -231 Q367 -254 327 -254 Q286 -254 264 -231 Q242 -208 242 -170 Z " />
<glyph glyph-name="uni1EA2" unicode="&#x1ea2;" horiz-adv-x="687" d="M275 730 L412 730 L672 0 L530 0 L485 130 L202 130 L157 0 L15 0 L275 730 Z M248 260 L440 260 L344 537 L248 260 Z M337 978 Q356 978 373.5 972 Q391 966 405 954.5 Q419 943 427.5 926.5 Q436 910 436 890 Q436 867 428.5 852 Q421 837 411 828 Q401 819 393.5 813.5 Q386 808 384.5 805.5 Q383 803 383 780 L307 780 Q307 821 316 837.5 Q325 854 335 862.5 Q345 871 350.5 875 Q356 879 357.5 882 Q359 885 359 892 Q354 906 337 906 Q328 906 320.5 900 Q313 894 295 861 L226 894 Q252 944 276.5 961 Q301 978 337 978 Z " />
<glyph glyph-name="uni1EA3" unicode="&#x1ea3;" horiz-adv-x="671" d="M308 -12 Q255 -12 203.5 8.5 Q152 29 111 68 Q70 107 45 163.5 Q20 220 20 292 Q20 365 44.5 421.5 Q69 478 109.5 517 Q150 556 202.5 576.5 Q255 597 310 597 Q368 597 417 575 Q466 553 498 515 L498 585 L633 585 L633 0 L498 0 L498 76 Q466 35 416 11.5 Q366 -12 308 -12 Z M330 112 Q368 112 400 126 Q432 140 455 165 Q478 190 491.5 223 Q505 256 505 294 Q505 331 491.5 364 Q478 397 455 421.5 Q432 446 400 460 Q368 474 330 474 Q293 474 260.5 460 Q228 446 204 422 Q180 398 166.5 365 Q153 332 153 294 Q153 256 166.5 222.5 Q180 189 204 164.5 Q228 140 260.5 126 Q293 112 330 112 Z M321 841 Q340 841 357.5 835 Q375 829 389 817.5 Q403 806 411.5 789.5 Q420 773 420 753 Q420 730 412.5 715 Q405 700 395 691 Q385 682 377.5 676.5 Q370 671 368.5 668.5 Q367 666 367 643 L291 643 Q291 684 300 700.5 Q309 717 319 725.5 Q329 734 334.5 738 Q340 742 341.5 745 Q343 748 343 755 Q338 769 321 769 Q312 769 304.5 763 Q297 757 279 724 L210 757 Q236 807 260.5 824 Q285 841 321 841 Z " />
<glyph glyph-name="uni1EA4" unicode="&#x1ea4;" horiz-adv-x="687" d="M275 730 L412 730 L672 0 L530 0 L485 130 L202 130 L157 0 L15 0 L275 730 Z M248 260 L440 260 L344 537 L248 260 Z M302 950 L386 950 L505 780 L403 780 L344 869 L285 780 L183 780 L302 950 Z M563 1071 L689 1071 L539 901 L448 901 L563 1071 Z " />
<glyph glyph-name="uni1EA5" unicode="&#x1ea5;" horiz-adv-x="671" d="M308 -12 Q255 -12 203.5 8.5 Q152 29 111 68 Q70 107 45 163.5 Q20 220 20 292 Q20 365 44.5 421.5 Q69 478 109.5 517 Q150 556 202.5 576.5 Q255 597 310 597 Q368 597 417 575 Q466 553 498 515 L498 585 L633 585 L633 0 L498 0 L498 76 Q466 35 416 11.5 Q366 -12 308 -12 Z M330 112 Q368 112 400 126 Q432 140 455 165 Q478 190 491.5 223 Q505 256 505 294 Q505 331 491.5 364 Q478 397 455 421.5 Q432 446 400 460 Q368 474 330 474 Q293 474 260.5 460 Q228 446 204 422 Q180 398 166.5 365 Q153 332 153 294 Q153 256 166.5 222.5 Q180 189 204 164.5 Q228 140 260.5 126 Q293 112 330 112 Z M284 814 L368 814 L487 644 L385 644 L326 733 L267 644 L165 644 L284 814 Z M541 950 L667 950 L517 780 L426 780 L541 950 Z " />
<glyph glyph-name="uni1EA6" unicode="&#x1ea6;" horiz-adv-x="687" d="M275 730 L412 730 L672 0 L530 0 L485 130 L202 130 L157 0 L15 0 L275 730 Z M248 260 L440 260 L344 537 L248 260 Z M302 950 L386 950 L505 780 L403 780 L344 869 L285 780 L183 780 L302 950 Z M-1 1097 L126 1097 L240 927 L149 927 L-1 1097 Z " />
<glyph glyph-name="uni1EA7" unicode="&#x1ea7;" horiz-adv-x="671" d="M308 -12 Q255 -12 203.5 8.5 Q152 29 111 68 Q70 107 45 163.5 Q20 220 20 292 Q20 365 44.5 421.5 Q69 478 109.5 517 Q150 556 202.5 576.5 Q255 597 310 597 Q368 597 417 575 Q466 553 498 515 L498 585 L633 585 L633 0 L498 0 L498 76 Q466 35 416 11.5 Q366 -12 308 -12 Z M330 112 Q368 112 400 126 Q432 140 455 165 Q478 190 491.5 223 Q505 256 505 294 Q505 331 491.5 364 Q478 397 455 421.5 Q432 446 400 460 Q368 474 330 474 Q293 474 260.5 460 Q228 446 204 422 Q180 398 166.5 365 Q153 332 153 294 Q153 256 166.5 222.5 Q180 189 204 164.5 Q228 140 260.5 126 Q293 112 330 112 Z M285 813 L369 813 L488 643 L386 643 L327 732 L268 643 L166 643 L285 813 Z M2 950 L129 950 L243 780 L152 780 L2 950 Z " />
<glyph glyph-name="uni1EA8" unicode="&#x1ea8;" horiz-adv-x="687" d="M275 730 L412 730 L672 0 L530 0 L485 130 L202 130 L157 0 L15 0 L275 730 Z M248 260 L440 260 L344 537 L248 260 Z M302 952 L386 952 L505 782 L403 782 L344 871 L285 782 L183 782 L302 952 Z M490 1106 Q509 1106 526.5 1100 Q544 1094 558 1082.5 Q572 1071 580.5 1054.5 Q589 1038 589 1018 Q589 995 581.5 980 Q574 965 564 956 Q554 947 546.5 941.5 Q539 936 537.5 933.5 Q536 931 536 908 L460 908 Q460 949 469 965.5 Q478 982 488 990.5 Q498 999 503.5 1003 Q509 1007 510.5 1010 Q512 1013 512 1020 Q507 1034 490 1034 Q481 1034 473.5 1028 Q466 1022 448 989 L379 1022 Q405 1072 429.5 1089 Q454 1106 490 1106 Z " />
<glyph glyph-name="uni1EA9" unicode="&#x1ea9;" horiz-adv-x="671" d="M308 -12 Q255 -12 203.5 8.5 Q152 29 111 68 Q70 107 45 163.5 Q20 220 20 292 Q20 365 44.5 421.5 Q69 478 109.5 517 Q150 556 202.5 576.5 Q255 597 310 597 Q368 597 417 575 Q466 553 498 515 L498 585 L633 585 L633 0 L498 0 L498 76 Q466 35 416 11.5 Q366 -12 308 -12 Z M330 112 Q368 112 400 126 Q432 140 455 165 Q478 190 491.5 223 Q505 256 505 294 Q505 331 491.5 364 Q478 397 455 421.5 Q432 446 400 460 Q368 474 330 474 Q293 474 260.5 460 Q228 446 204 422 Q180 398 166.5 365 Q153 332 153 294 Q153 256 166.5 222.5 Q180 189 204 164.5 Q228 140 260.5 126 Q293 112 330 112 Z M285 813 L369 813 L488 643 L386 643 L327 732 L268 643 L166 643 L285 813 Z M482 978 Q501 978 518.5 972 Q536 966 550 954.5 Q564 943 572.5 926.5 Q581 910 581 890 Q581 867 573.5 852 Q566 837 556 828 Q546 819 538.5 813.5 Q531 808 529.5 805.5 Q528 803 528 780 L452 780 Q452 821 461 837.5 Q470 854 480 862.5 Q490 871 495.5 875 Q501 879 502.5 882 Q504 885 504 892 Q499 906 482 906 Q473 906 465.5 900 Q458 894 440 861 L371 894 Q397 944 421.5 961 Q446 978 482 978 Z " />
<glyph glyph-name="uni1EAA" unicode="&#x1eaa;" horiz-adv-x="687" d="M275 730 L412 730 L672 0 L530 0 L485 130 L202 130 L157 0 L15 0 L275 730 Z M248 260 L440 260 L344 537 L248 260 Z M304 950 L388 950 L507 780 L405 780 L346 869 L287 780 L185 780 L304 950 Z M207 975 Q207 1036 234.5 1073 Q262 1110 311 1110 Q336 1110 354 1102.5 Q372 1095 388 1086 Q402 1076 414.5 1068.5 Q427 1061 440 1061 Q468 1061 468 1106 L546 1106 Q546 1044 520 1007.5 Q494 971 441 971 Q412 971 391.5 981.5 Q371 992 354 1002 Q343 1009 332.5 1014 Q322 1019 311 1019 Q285 1019 285 975 L207 975 Z " />
<glyph glyph-name="uni1EAB" unicode="&#x1eab;" horiz-adv-x="671" d="M308 -12 Q255 -12 203.5 8.5 Q152 29 111 68 Q70 107 45 163.5 Q20 220 20 292 Q20 365 44.5 421.5 Q69 478 109.5 517 Q150 556 202.5 576.5 Q255 597 310 597 Q368 597 417 575 Q466 553 498 515 L498 585 L633 585 L633 0 L498 0 L498 76 Q466 35 416 11.5 Q366 -12 308 -12 Z M330 112 Q368 112 400 126 Q432 140 455 165 Q478 190 491.5 223 Q505 256 505 294 Q505 331 491.5 364 Q478 397 455 421.5 Q432 446 400 460 Q368 474 330 474 Q293 474 260.5 460 Q228 446 204 422 Q180 398 166.5 365 Q153 332 153 294 Q153 256 166.5 222.5 Q180 189 204 164.5 Q228 140 260.5 126 Q293 112 330 112 Z M284 813 L368 813 L487 643 L385 643 L326 732 L267 643 L165 643 L284 813 Z M181 829 Q181 890 208.5 927 Q236 964 285 964 Q310 964 328 956.5 Q346 949 362 940 Q376 930 388.5 922.5 Q401 915 414 915 Q442 915 442 960 L520 960 Q520 898 494 861.5 Q468 825 415 825 Q386 825 365.5 835.5 Q345 846 328 856 Q317 863 306.5 868 Q296 873 285 873 Q259 873 259 829 L181 829 Z " />
<glyph glyph-name="uni1EAC" unicode="&#x1eac;" horiz-adv-x="687" d="M275 730 L412 730 L672 0 L530 0 L485 130 L202 130 L157 0 L15 0 L275 730 Z M248 260 L440 260 L344 537 L248 260 Z M301 950 L385 950 L504 780 L402 780 L343 869 L284 780 L182 780 L301 950 Z M259 -170 Q259 -132 282 -108.5 Q305 -85 344 -85 Q384 -85 406.5 -108.5 Q429 -132 429 -170 Q429 -208 406.5 -231 Q384 -254 344 -254 Q303 -254 281 -231 Q259 -208 259 -170 Z " />
<glyph glyph-name="uni1EAD" unicode="&#x1ead;" horiz-adv-x="671" d="M308 -12 Q255 -12 203.5 8.5 Q152 29 111 68 Q70 107 45 163.5 Q20 220 20 292 Q20 365 44.5 421.5 Q69 478 109.5 517 Q150 556 202.5 576.5 Q255 597 310 597 Q368 597 417 575 Q466 553 498 515 L498 585 L633 585 L633 0 L498 0 L498 76 Q466 35 416 11.5 Q366 -12 308 -12 Z M330 112 Q368 112 400 126 Q432 140 455 165 Q478 190 491.5 223 Q505 256 505 294 Q505 331 491.5 364 Q478 397 455 421.5 Q432 446 400 460 Q368 474 330 474 Q293 474 260.5 460 Q228 446 204 422 Q180 398 166.5 365 Q153 332 153 294 Q153 256 166.5 222.5 Q180 189 204 164.5 Q228 140 260.5 126 Q293 112 330 112 Z M285 812 L369 812 L488 642 L386 642 L327 731 L268 642 L166 642 L285 812 Z M242 -170 Q242 -132 265 -108.5 Q288 -85 327 -85 Q367 -85 389.5 -108.5 Q412 -132 412 -170 Q412 -208 389.5 -231 Q367 -254 327 -254 Q286 -254 264 -231 Q242 -208 242 -170 Z " />
<glyph glyph-name="uni1EAE" unicode="&#x1eae;" horiz-adv-x="687" d="M275 730 L412 730 L672 0 L530 0 L485 130 L202 130 L157 0 L15 0 L275 730 Z M248 260 L440 260 L344 537 L248 260 Z M343 779 Q302 779 271.5 792 Q241 805 221 827.5 Q201 850 191.5 881.5 Q182 913 182 949 L267 949 Q267 901 286.5 878 Q306 855 343 853 Q379 855 399 878 Q419 901 419 949 L505 949 Q505 913 494 881.5 Q483 850 462 827.5 Q441 805 411 792 Q381 779 343 779 Z M404 1128 L530 1128 L380 958 L289 958 L404 1128 Z " />
<glyph glyph-name="uni1EAF" unicode="&#x1eaf;" horiz-adv-x="671" d="M308 -12 Q255 -12 203.5 8.5 Q152 29 111 68 Q70 107 45 163.5 Q20 220 20 292 Q20 365 44.5 421.5 Q69 478 109.5 517 Q150 556 202.5 576.5 Q255 597 310 597 Q368 597 417 575 Q466 553 498 515 L498 585 L633 585 L633 0 L498 0 L498 76 Q466 35 416 11.5 Q366 -12 308 -12 Z M330 112 Q368 112 400 126 Q432 140 455 165 Q478 190 491.5 223 Q505 256 505 294 Q505 331 491.5 364 Q478 397 455 421.5 Q432 446 400 460 Q368 474 330 474 Q293 474 260.5 460 Q228 446 204 422 Q180 398 166.5 365 Q153 332 153 294 Q153 256 166.5 222.5 Q180 189 204 164.5 Q228 140 260.5 126 Q293 112 330 112 Z M326 643 Q285 643 254.5 656 Q224 669 204 691.5 Q184 714 174.5 745.5 Q165 777 165 813 L250 813 Q250 765 269.5 742 Q289 719 326 717 Q362 719 382 742 Q402 765 402 813 L488 813 Q488 777 477 745.5 Q466 714 445 691.5 Q424 669 394 656 Q364 643 326 643 Z M400 998 L526 998 L376 828 L285 828 L400 998 Z " />
<glyph glyph-name="uni1EB0" unicode="&#x1eb0;" horiz-adv-x="687" d="M275 730 L412 730 L672 0 L530 0 L485 130 L202 130 L157 0 L15 0 L275 730 Z M248 260 L440 260 L344 537 L248 260 Z M343 780 Q302 780 271.5 793 Q241 806 221 828.5 Q201 851 191.5 882.5 Q182 914 182 950 L267 950 Q267 902 286.5 879 Q306 856 343 854 Q379 856 399 879 Q419 902 419 950 L505 950 Q505 914 494 882.5 Q483 851 462 828.5 Q441 806 411 793 Q381 780 343 780 Z M148 1128 L275 1128 L389 958 L298 958 L148 1128 Z " />
<glyph glyph-name="uni1EB1" unicode="&#x1eb1;" horiz-adv-x="671" d="M308 -12 Q255 -12 203.5 8.5 Q152 29 111 68 Q70 107 45 163.5 Q20 220 20 292 Q20 365 44.5 421.5 Q69 478 109.5 517 Q150 556 202.5 576.5 Q255 597 310 597 Q368 597 417 575 Q466 553 498 515 L498 585 L633 585 L633 0 L498 0 L498 76 Q466 35 416 11.5 Q366 -12 308 -12 Z M330 112 Q368 112 400 126 Q432 140 455 165 Q478 190 491.5 223 Q505 256 505 294 Q505 331 491.5 364 Q478 397 455 421.5 Q432 446 400 460 Q368 474 330 474 Q293 474 260.5 460 Q228 446 204 422 Q180 398 166.5 365 Q153 332 153 294 Q153 256 166.5 222.5 Q180 189 204 164.5 Q228 140 260.5 126 Q293 112 330 112 Z M326 643 Q285 643 254.5 656 Q224 669 204 691.5 Q184 714 174.5 745.5 Q165 777 165 813 L250 813 Q250 765 269.5 742 Q289 719 326 717 Q362 719 382 742 Q402 765 402 813 L488 813 Q488 777 477 745.5 Q466 714 445 691.5 Q424 669 394 656 Q364 643 326 643 Z M128 1003 L255 1003 L369 833 L278 833 L128 1003 Z " />
<glyph glyph-name="uni1EB2" unicode="&#x1eb2;" horiz-adv-x="687" d="M275 730 L412 730 L672 0 L530 0 L485 130 L202 130 L157 0 L15 0 L275 730 Z M248 260 L440 260 L344 537 L248 260 Z M343 780 Q302 780 271.5 793 Q241 806 221 828.5 Q201 851 191.5 882.5 Q182 914 182 950 L267 950 Q267 902 286.5 879 Q306 856 343 854 Q379 856 399 879 Q419 902 419 950 L505 950 Q505 914 494 882.5 Q483 851 462 828.5 Q441 806 411 793 Q381 780 343 780 Z M336 1000.25 Q355 1000.25 372.5 995.75 Q390 991.25 404 982.625 Q418 974 426.5 961.625 Q435 949.25 435 934.25 Q435 917 427.5 905.75 Q420 894.5 410 887.75 Q400 881 392.5 876.875 Q385 872.75 383.5 870.875 Q382 869 382 851.75 L306 851.75 Q306 882.5 315 894.875 Q324 907.25 334 913.625 Q344 920 349.5 923 Q355 926 356.5 928.25 Q358 930.5 358 935.75 Q353 946.25 336 946.25 Q327 946.25 319.5 941.75 Q312 937.25 294 912.5 L225 937.25 Q251 974.75 275.5 987.5 Q300 1000.25 336 1000.25 Z " />
<glyph glyph-name="uni1EB3" unicode="&#x1eb3;" horiz-adv-x="671" d="M308 -12 Q255 -12 203.5 8.5 Q152 29 111 68 Q70 107 45 163.5 Q20 220 20 292 Q20 365 44.5 421.5 Q69 478 109.5 517 Q150 556 202.5 576.5 Q255 597 310 597 Q368 597 417 575 Q466 553 498 515 L498 585 L633 585 L633 0 L498 0 L498 76 Q466 35 416 11.5 Q366 -12 308 -12 Z M330 112 Q368 112 400 126 Q432 140 455 165 Q478 190 491.5 223 Q505 256 505 294 Q505 331 491.5 364 Q478 397 455 421.5 Q432 446 400 460 Q368 474 330 474 Q293 474 260.5 460 Q228 446 204 422 Q180 398 166.5 365 Q153 332 153 294 Q153 256 166.5 222.5 Q180 189 204 164.5 Q228 140 260.5 126 Q293 112 330 112 Z M326 642 Q285 642 254.5 655 Q224 668 204 690.5 Q184 713 174.5 744.5 Q165 776 165 812 L250 812 Q250 764 269.5 741 Q289 718 326 716 Q362 718 382 741 Q402 764 402 812 L488 812 Q488 776 477 744.5 Q466 713 445 690.5 Q424 668 394 655 Q364 642 326 642 Z M329 1024 Q348 1024 365.5 1018 Q383 1012 397 1000.5 Q411 989 419.5 972.5 Q428 956 428 936 Q428 913 420.5 898 Q413 883 403 874 Q393 865 385.5 859.5 Q378 854 376.5 851.5 Q375 849 375 826 L299 826 Q299 867 308 883.5 Q317 900 327 908.5 Q337 917 342.5 921 Q348 925 349.5 928 Q351 931 351 938 Q346 952 329 952 Q320 952 312.5 946 Q305 940 287 907 L218 940 Q244 990 268.5 1007 Q293 1024 329 1024 Z " />
<glyph glyph-name="uni1EB4" unicode="&#x1eb4;" horiz-adv-x="687" d="M275 730 L412 730 L672 0 L530 0 L485 130 L202 130 L157 0 L15 0 L275 730 Z M248 260 L440 260 L344 537 L248 260 Z M345 780 Q304 780 273.5 793 Q243 806 223 828.5 Q203 851 193.5 882.5 Q184 914 184 950 L269 950 Q269 902 288.5 879 Q308 856 345 854 Q381 856 401 879 Q421 902 421 950 L507 950 Q507 914 496 882.5 Q485 851 464 828.5 Q443 806 413 793 Q383 780 345 780 Z M176 995 Q176 1056 203.5 1093 Q231 1130 280 1130 Q305 1130 323 1122.5 Q341 1115 357 1106 Q371 1096 383.5 1088.5 Q396 1081 409 1081 Q437 1081 437 1126 L515 1126 Q515 1064 489 1027.5 Q463 991 410 991 Q381 991 360.5 1001.5 Q340 1012 323 1022 Q312 1029 301.5 1034 Q291 1039 280 1039 Q254 1039 254 995 L176 995 Z " />
<glyph glyph-name="uni1EB5" unicode="&#x1eb5;" horiz-adv-x="671" d="M308 -12 Q255 -12 203.5 8.5 Q152 29 111 68 Q70 107 45 163.5 Q20 220 20 292 Q20 365 44.5 421.5 Q69 478 109.5 517 Q150 556 202.5 576.5 Q255 597 310 597 Q368 597 417 575 Q466 553 498 515 L498 585 L633 585 L633 0 L498 0 L498 76 Q466 35 416 11.5 Q366 -12 308 -12 Z M330 112 Q368 112 400 126 Q432 140 455 165 Q478 190 491.5 223 Q505 256 505 294 Q505 331 491.5 364 Q478 397 455 421.5 Q432 446 400 460 Q368 474 330 474 Q293 474 260.5 460 Q228 446 204 422 Q180 398 166.5 365 Q153 332 153 294 Q153 256 166.5 222.5 Q180 189 204 164.5 Q228 140 260.5 126 Q293 112 330 112 Z M326 643 Q285 643 254.5 656 Q224 669 204 691.5 Q184 714 174.5 745.5 Q165 777 165 813 L250 813 Q250 765 269.5 742 Q289 719 326 717 Q362 719 382 742 Q402 765 402 813 L488 813 Q488 777 477 745.5 Q466 714 445 691.5 Q424 669 394 656 Q364 643 326 643 Z M167 850 Q167 911 194.5 948 Q222 985 271 985 Q296 985 314 977.5 Q332 970 348 961 Q362 951 374.5 943.5 Q387 936 400 936 Q428 936 428 981 L506 981 Q506 919 480 882.5 Q454 846 401 846 Q372 846 351.5 856.5 Q331 867 314 877 Q303 884 292.5 889 Q282 894 271 894 Q245 894 245 850 L167 850 Z " />
<glyph glyph-name="uni1EB6" unicode="&#x1eb6;" horiz-adv-x="687" d="M275 730 L412 730 L672 0 L530 0 L485 130 L202 130 L157 0 L15 0 L275 730 Z M248 260 L440 260 L344 537 L248 260 Z M343 780 Q302 780 271.5 793 Q241 806 221 828.5 Q201 851 191.5 882.5 Q182 914 182 950 L267 950 Q267 902 286.5 879 Q306 856 343 854 Q379 856 399 879 Q419 902 419 950 L505 950 Q505 914 494 882.5 Q483 851 462 828.5 Q441 806 411 793 Q381 780 343 780 Z M259 -170 Q259 -132 282 -108.5 Q305 -85 344 -85 Q384 -85 406.5 -108.5 Q429 -132 429 -170 Q429 -208 406.5 -231 Q384 -254 344 -254 Q303 -254 281 -231 Q259 -208 259 -170 Z " />
<glyph glyph-name="uni1EB7" unicode="&#x1eb7;" horiz-adv-x="671" d="M308 -12 Q255 -12 203.5 8.5 Q152 29 111 68 Q70 107 45 163.5 Q20 220 20 292 Q20 365 44.5 421.5 Q69 478 109.5 517 Q150 556 202.5 576.5 Q255 597 310 597 Q368 597 417 575 Q466 553 498 515 L498 585 L633 585 L633 0 L498 0 L498 76 Q466 35 416 11.5 Q366 -12 308 -12 Z M330 112 Q368 112 400 126 Q432 140 455 165 Q478 190 491.5 223 Q505 256 505 294 Q505 331 491.5 364 Q478 397 455 421.5 Q432 446 400 460 Q368 474 330 474 Q293 474 260.5 460 Q228 446 204 422 Q180 398 166.5 365 Q153 332 153 294 Q153 256 166.5 222.5 Q180 189 204 164.5 Q228 140 260.5 126 Q293 112 330 112 Z M326 643 Q285 643 254.5 656 Q224 669 204 691.5 Q184 714 174.5 745.5 Q165 777 165 813 L250 813 Q250 765 269.5 742 Q289 719 326 717 Q362 719 382 742 Q402 765 402 813 L488 813 Q488 777 477 745.5 Q466 714 445 691.5 Q424 669 394 656 Q364 643 326 643 Z M242 -170 Q242 -132 265 -108.5 Q288 -85 327 -85 Q367 -85 389.5 -108.5 Q412 -132 412 -170 Q412 -208 389.5 -231 Q367 -254 327 -254 Q286 -254 264 -231 Q242 -208 242 -170 Z " />
<glyph glyph-name="uni1EB8" unicode="&#x1eb8;" horiz-adv-x="509" d="M42 730 L475 730 L475 600 L178 600 L178 432 L475 432 L475 302 L178 302 L178 130 L475 130 L475 0 L42 0 L42 730 Z M174 -170 Q174 -132 197 -108.5 Q220 -85 259 -85 Q299 -85 321.5 -108.5 Q344 -132 344 -170 Q344 -208 321.5 -231 Q299 -254 259 -254 Q218 -254 196 -231 Q174 -208 174 -170 Z " />
<glyph glyph-name="uni1EB9" unicode="&#x1eb9;" horiz-adv-x="646" d="M329 -12 Q260 -12 203 11.5 Q146 35 105.5 76 Q65 117 42.5 172.5 Q20 228 20 291 Q20 355 43.5 411 Q67 467 108 508 Q149 549 204.5 573 Q260 597 324 597 Q389 597 444.5 574.5 Q500 552 540 511.5 Q580 471 602.5 416 Q625 361 625 296 L625 245 L149 245 Q163 183 210 145 Q257 107 329 107 Q386 107 428 135 Q470 163 491 210 L602 146 Q564 75 495.5 31.5 Q427 -12 329 -12 Z M324 478 Q263 478 218.5 445 Q174 412 156 358 L488 358 Q473 417 430 447.5 Q387 478 324 478 Z M238 -170 Q238 -132 261 -108.5 Q284 -85 323 -85 Q363 -85 385.5 -108.5 Q408 -132 408 -170 Q408 -208 385.5 -231 Q363 -254 323 -254 Q282 -254 260 -231 Q238 -208 238 -170 Z " />
<glyph glyph-name="uni1EBA" unicode="&#x1eba;" horiz-adv-x="509" d="M42 730 L475 730 L475 600 L178 600 L178 432 L475 432 L475 302 L178 302 L178 130 L475 130 L475 0 L42 0 L42 730 Z M265 1012 Q284 1012 301.5 1006 Q319 1000 333 988.5 Q347 977 355.5 960.5 Q364 944 364 924 Q364 901 356.5 886 Q349 871 339 862 Q329 853 321.5 847.5 Q314 842 312.5 839.5 Q311 837 311 814 L235 814 Q235 855 244 871.5 Q253 888 263 896.5 Q273 905 278.5 909 Q284 913 285.5 916 Q287 919 287 926 Q282 940 265 940 Q256 940 248.5 934 Q241 928 223 895 L154 928 Q180 978 204.5 995 Q229 1012 265 1012 Z " />
<glyph glyph-name="uni1EBB" unicode="&#x1ebb;" horiz-adv-x="646" d="M329 -12 Q260 -12 203 11.5 Q146 35 105.5 76 Q65 117 42.5 172.5 Q20 228 20 291 Q20 355 43.5 411 Q67 467 108 508 Q149 549 204.5 573 Q260 597 324 597 Q389 597 444.5 574.5 Q500 552 540 511.5 Q580 471 602.5 416 Q625 361 625 296 L625 245 L149 245 Q163 183 210 145 Q257 107 329 107 Q386 107 428 135 Q470 163 491 210 L602 146 Q564 75 495.5 31.5 Q427 -12 329 -12 Z M324 478 Q263 478 218.5 445 Q174 412 156 358 L488 358 Q473 417 430 447.5 Q387 478 324 478 Z M329 867 Q348 867 365.5 861 Q383 855 397 843.5 Q411 832 419.5 815.5 Q428 799 428 779 Q428 756 420.5 741 Q413 726 403 717 Q393 708 385.5 702.5 Q378 697 376.5 694.5 Q375 692 375 669 L299 669 Q299 710 308 726.5 Q317 743 327 751.5 Q337 760 342.5 764 Q348 768 349.5 771 Q351 774 351 781 Q346 795 329 795 Q320 795 312.5 789 Q305 783 287 750 L218 783 Q244 833 268.5 850 Q293 867 329 867 Z " />
<glyph glyph-name="uni1EBC" unicode="&#x1ebc;" horiz-adv-x="509" d="M42 730 L475 730 L475 600 L178 600 L178 432 L475 432 L475 302 L178 302 L178 130 L475 130 L475 0 L42 0 L42 730 Z M89 783 Q89 844 116.5 881 Q144 918 193 918 Q218 918 236 910.5 Q254 903 270 894 Q284 884 296.5 876.5 Q309 869 322 869 Q350 869 350 914 L428 914 Q428 852 402 815.5 Q376 779 323 779 Q294 779 273.5 789.5 Q253 800 236 810 Q225 817 214.5 822 Q204 827 193 827 Q167 827 167 783 L89 783 Z " />
<glyph glyph-name="uni1EBD" unicode="&#x1ebd;" horiz-adv-x="646" d="M329 -12 Q260 -12 203 11.5 Q146 35 105.5 76 Q65 117 42.5 172.5 Q20 228 20 291 Q20 355 43.5 411 Q67 467 108 508 Q149 549 204.5 573 Q260 597 324 597 Q389 597 444.5 574.5 Q500 552 540 511.5 Q580 471 602.5 416 Q625 361 625 296 L625 245 L149 245 Q163 183 210 145 Q257 107 329 107 Q386 107 428 135 Q470 163 491 210 L602 146 Q564 75 495.5 31.5 Q427 -12 329 -12 Z M324 478 Q263 478 218.5 445 Q174 412 156 358 L488 358 Q473 417 430 447.5 Q387 478 324 478 Z M153 646 Q153 707 180.5 744 Q208 781 257 781 Q282 781 300 773.5 Q318 766 334 757 Q348 747 360.5 739.5 Q373 732 386 732 Q414 732 414 777 L492 777 Q492 715 466 678.5 Q440 642 387 642 Q358 642 337.5 652.5 Q317 663 300 673 Q289 680 278.5 685 Q268 690 257 690 Q231 690 231 646 L153 646 Z " />
<glyph glyph-name="uni1EBE" unicode="&#x1ebe;" horiz-adv-x="509" d="M42 730 L475 730 L475 600 L178 600 L178 432 L475 432 L475 302 L178 302 L178 130 L475 130 L475 0 L42 0 L42 730 Z M217 950 L301 950 L420 780 L318 780 L259 869 L200 780 L98 780 L217 950 Z M478 1071 L604 1071 L454 901 L363 901 L478 1071 Z " />
<glyph glyph-name="uni1EBF" unicode="&#x1ebf;" horiz-adv-x="646" d="M329 -12 Q260 -12 203 11.5 Q146 35 105.5 76 Q65 117 42.5 172.5 Q20 228 20 291 Q20 355 43.5 411 Q67 467 108 508 Q149 549 204.5 573 Q260 597 324 597 Q389 597 444.5 574.5 Q500 552 540 511.5 Q580 471 602.5 416 Q625 361 625 296 L625 245 L149 245 Q163 183 210 145 Q257 107 329 107 Q386 107 428 135 Q470 163 491 210 L602 146 Q564 75 495.5 31.5 Q427 -12 329 -12 Z M324 478 Q263 478 218.5 445 Q174 412 156 358 L488 358 Q473 417 430 447.5 Q387 478 324 478 Z M281 814 L365 814 L484 644 L382 644 L323 733 L264 644 L162 644 L281 814 Z M544 950 L670 950 L520 780 L429 780 L544 950 Z " />
<glyph glyph-name="uni1EC0" unicode="&#x1ec0;" horiz-adv-x="509" d="M42 730 L475 730 L475 600 L178 600 L178 432 L475 432 L475 302 L178 302 L178 130 L475 130 L475 0 L42 0 L42 730 Z M217 950 L301 950 L420 780 L318 780 L259 869 L200 780 L98 780 L217 950 Z M-86 1097 L41 1097 L155 927 L64 927 L-86 1097 Z " />
<glyph glyph-name="uni1EC1" unicode="&#x1ec1;" horiz-adv-x="646" d="M329 -12 Q260 -12 203 11.5 Q146 35 105.5 76 Q65 117 42.5 172.5 Q20 228 20 291 Q20 355 43.5 411 Q67 467 108 508 Q149 549 204.5 573 Q260 597 324 597 Q389 597 444.5 574.5 Q500 552 540 511.5 Q580 471 602.5 416 Q625 361 625 296 L625 245 L149 245 Q163 183 210 145 Q257 107 329 107 Q386 107 428 135 Q470 163 491 210 L602 146 Q564 75 495.5 31.5 Q427 -12 329 -12 Z M324 478 Q263 478 218.5 445 Q174 412 156 358 L488 358 Q473 417 430 447.5 Q387 478 324 478 Z M280 813 L364 813 L483 643 L381 643 L322 732 L263 643 L161 643 L280 813 Z M-9 950 L118 950 L232 780 L141 780 L-9 950 Z " />
<glyph glyph-name="uni1EC2" unicode="&#x1ec2;" horiz-adv-x="509" d="M42 730 L475 730 L475 600 L178 600 L178 432 L475 432 L475 302 L178 302 L178 130 L475 130 L475 0 L42 0 L42 730 Z M217 952 L301 952 L420 782 L318 782 L259 871 L200 782 L98 782 L217 952 Z M405 1106 Q424 1106 441.5 1100 Q459 1094 473 1082.5 Q487 1071 495.5 1054.5 Q504 1038 504 1018 Q504 995 496.5 980 Q489 965 479 956 Q469 947 461.5 941.5 Q454 936 452.5 933.5 Q451 931 451 908 L375 908 Q375 949 384 965.5 Q393 982 403 990.5 Q413 999 418.5 1003 Q424 1007 425.5 1010 Q427 1013 427 1020 Q422 1034 405 1034 Q396 1034 388.5 1028 Q381 1022 363 989 L294 1022 Q320 1072 344.5 1089 Q369 1106 405 1106 Z " />
<glyph glyph-name="uni1EC3" unicode="&#x1ec3;" horiz-adv-x="646" d="M329 -12 Q260 -12 203 11.5 Q146 35 105.5 76 Q65 117 42.5 172.5 Q20 228 20 291 Q20 355 43.5 411 Q67 467 108 508 Q149 549 204.5 573 Q260 597 324 597 Q389 597 444.5 574.5 Q500 552 540 511.5 Q580 471 602.5 416 Q625 361 625 296 L625 245 L149 245 Q163 183 210 145 Q257 107 329 107 Q386 107 428 135 Q470 163 491 210 L602 146 Q564 75 495.5 31.5 Q427 -12 329 -12 Z M324 478 Q263 478 218.5 445 Q174 412 156 358 L488 358 Q473 417 430 447.5 Q387 478 324 478 Z M280 813 L364 813 L483 643 L381 643 L322 732 L263 643 L161 643 L280 813 Z M464 978 Q483 978 500.5 972 Q518 966 532 954.5 Q546 943 554.5 926.5 Q563 910 563 890 Q563 867 555.5 852 Q548 837 538 828 Q528 819 520.5 813.5 Q513 808 511.5 805.5 Q510 803 510 780 L434 780 Q434 821 443 837.5 Q452 854 462 862.5 Q472 871 477.5 875 Q483 879 484.5 882 Q486 885 486 892 Q481 906 464 906 Q455 906 447.5 900 Q440 894 422 861 L353 894 Q379 944 403.5 961 Q428 978 464 978 Z " />
<glyph glyph-name="uni1EC4" unicode="&#x1ec4;" horiz-adv-x="509" d="M42 730 L475 730 L475 600 L178 600 L178 432 L475 432 L475 302 L178 302 L178 130 L475 130 L475 0 L42 0 L42 730 Z M219 950 L303 950 L422 780 L320 780 L261 869 L202 780 L100 780 L219 950 Z M122 975 Q122 1036 149.5 1073 Q177 1110 226 1110 Q251 1110 269 1102.5 Q287 1095 303 1086 Q317 1076 329.5 1068.5 Q342 1061 355 1061 Q383 1061 383 1106 L461 1106 Q461 1044 435 1007.5 Q409 971 356 971 Q327 971 306.5 981.5 Q286 992 269 1002 Q258 1009 247.5 1014 Q237 1019 226 1019 Q200 1019 200 975 L122 975 Z " />
<glyph glyph-name="uni1EC5" unicode="&#x1ec5;" horiz-adv-x="646" d="M329 -12 Q260 -12 203 11.5 Q146 35 105.5 76 Q65 117 42.5 172.5 Q20 228 20 291 Q20 355 43.5 411 Q67 467 108 508 Q149 549 204.5 573 Q260 597 324 597 Q389 597 444.5 574.5 Q500 552 540 511.5 Q580 471 602.5 416 Q625 361 625 296 L625 245 L149 245 Q163 183 210 145 Q257 107 329 107 Q386 107 428 135 Q470 163 491 210 L602 146 Q564 75 495.5 31.5 Q427 -12 329 -12 Z M324 478 Q263 478 218.5 445 Q174 412 156 358 L488 358 Q473 417 430 447.5 Q387 478 324 478 Z M280 813 L364 813 L483 643 L381 643 L322 732 L263 643 L161 643 L280 813 Z M181 835 Q181 896 208.5 933 Q236 970 285 970 Q310 970 328 962.5 Q346 955 362 946 Q376 936 388.5 928.5 Q401 921 414 921 Q442 921 442 966 L520 966 Q520 904 494 867.5 Q468 831 415 831 Q386 831 365.5 841.5 Q345 852 328 862 Q317 869 306.5 874 Q296 879 285 879 Q259 879 259 835 L181 835 Z " />
<glyph glyph-name="uni1EC6" unicode="&#x1ec6;" horiz-adv-x="509" d="M42 730 L475 730 L475 600 L178 600 L178 432 L475 432 L475 302 L178 302 L178 130 L475 130 L475 0 L42 0 L42 730 Z M216 950 L300 950 L419 780 L317 780 L258 869 L199 780 L97 780 L216 950 Z M174 -170 Q174 -132 197 -108.5 Q220 -85 259 -85 Q299 -85 321.5 -108.5 Q344 -132 344 -170 Q344 -208 321.5 -231 Q299 -254 259 -254 Q218 -254 196 -231 Q174 -208 174 -170 Z " />
<glyph glyph-name="uni1EC7" unicode="&#x1ec7;" horiz-adv-x="646" d="M329 -12 Q260 -12 203 11.5 Q146 35 105.5 76 Q65 117 42.5 172.5 Q20 228 20 291 Q20 355 43.5 411 Q67 467 108 508 Q149 549 204.5 573 Q260 597 324 597 Q389 597 444.5 574.5 Q500 552 540 511.5 Q580 471 602.5 416 Q625 361 625 296 L625 245 L149 245 Q163 183 210 145 Q257 107 329 107 Q386 107 428 135 Q470 163 491 210 L602 146 Q564 75 495.5 31.5 Q427 -12 329 -12 Z M324 478 Q263 478 218.5 445 Q174 412 156 358 L488 358 Q473 417 430 447.5 Q387 478 324 478 Z M281 813 L365 813 L484 643 L382 643 L323 732 L264 643 L162 643 L281 813 Z M238 -170 Q238 -132 261 -108.5 Q284 -85 323 -85 Q363 -85 385.5 -108.5 Q408 -132 408 -170 Q408 -208 385.5 -231 Q363 -254 323 -254 Q282 -254 260 -231 Q238 -208 238 -170 Z " />
<glyph glyph-name="uni1EC8" unicode="&#x1ec8;" horiz-adv-x="230" d="M47 730 L183 730 L183 0 L47 0 L47 730 Z M103 978 Q122 978 139.5 972 Q157 966 171 954.5 Q185 943 193.5 926.5 Q202 910 202 890 Q202 867 194.5 852 Q187 837 177 828 Q167 819 159.5 813.5 Q152 808 150.5 805.5 Q149 803 149 780 L73 780 Q73 821 82 837.5 Q91 854 101 862.5 Q111 871 116.5 875 Q122 879 123.5 882 Q125 885 125 892 Q120 906 103 906 Q94 906 86.5 900 Q79 894 61 861 L-8 894 Q18 944 42.5 961 Q67 978 103 978 Z " />
<glyph glyph-name="uni1EC9" unicode="&#x1ec9;" horiz-adv-x="214" d="M39 585 L175 585 L175 0 L39 0 L39 585 Z M102 841 Q121 841 138.5 835 Q156 829 170 817.5 Q184 806 192.5 789.5 Q201 773 201 753 Q201 730 193.5 715 Q186 700 176 691 Q166 682 158.5 676.5 Q151 671 149.5 668.5 Q148 666 148 643 L72 643 Q72 684 81 700.5 Q90 717 100 725.5 Q110 734 115.5 738 Q121 742 122.5 745 Q124 748 124 755 Q119 769 102 769 Q93 769 85.5 763 Q78 757 60 724 L-9 757 Q17 807 41.5 824 Q66 841 102 841 Z " />
<glyph glyph-name="uni1ECA" unicode="&#x1eca;" horiz-adv-x="230" d="M47 730 L183 730 L183 0 L47 0 L47 730 Z M30 -170 Q30 -132 53 -108.5 Q76 -85 115 -85 Q155 -85 177.5 -108.5 Q200 -132 200 -170 Q200 -208 177.5 -231 Q155 -254 115 -254 Q74 -254 52 -231 Q30 -208 30 -170 Z " />
<glyph glyph-name="uni1ECB" unicode="&#x1ecb;" horiz-adv-x="214" d="M39 585 L175 585 L175 0 L39 0 L39 585 Z M22 728 Q22 766 45 789.5 Q68 813 107 813 Q147 813 169.5 789.5 Q192 766 192 728 Q192 690 169.5 667 Q147 644 107 644 Q66 644 44 667 Q22 690 22 728 Z M22 -170 Q22 -132 45 -108.5 Q68 -85 107 -85 Q147 -85 169.5 -108.5 Q192 -132 192 -170 Q192 -208 169.5 -231 Q147 -254 107 -254 Q66 -254 44 -231 Q22 -208 22 -170 Z " />
<glyph glyph-name="uni1ECC" unicode="&#x1ecc;" horiz-adv-x="790" d="M395 -10 Q317 -10 249 19.5 Q181 49 130.5 99.5 Q80 150 51 218.5 Q22 287 22 365 Q22 443 51 511 Q80 579 130.5 630 Q181 681 249 710.5 Q317 740 395 740 Q473 740 541 710.5 Q609 681 660 630 Q711 579 740 511 Q769 443 769 365 Q769 287 740 218.5 Q711 150 660 99.5 Q609 49 541 19.5 Q473 -10 395 -10 Z M395 124 Q445 124 488.5 143 Q532 162 564.5 194.5 Q597 227 615.5 271 Q634 315 634 365 Q634 415 615.5 459 Q597 503 564.5 535.5 Q532 568 488.5 587 Q445 606 395 606 Q345 606 301.5 587 Q258 568 226 535.5 Q194 503 175.5 459 Q157 415 157 365 Q157 315 175.5 271 Q194 227 226 194.5 Q258 162 301.5 143 Q345 124 395 124 Z M311 -170 Q311 -132 334 -108.5 Q357 -85 396 -85 Q436 -85 458.5 -108.5 Q481 -132 481 -170 Q481 -208 458.5 -231 Q436 -254 396 -254 Q355 -254 333 -231 Q311 -208 311 -170 Z " />
<glyph glyph-name="uni1ECD" unicode="&#x1ecd;" horiz-adv-x="646" d="M323 -12 Q260 -12 204.5 11.5 Q149 35 108 76.5 Q67 118 43.5 173.5 Q20 229 20 292 Q20 356 43.5 411.5 Q67 467 108 508.5 Q149 550 204.5 573.5 Q260 597 323 597 Q386 597 441 573.5 Q496 550 537.5 508.5 Q579 467 602.5 411.5 Q626 356 626 292 Q626 229 602.5 173.5 Q579 118 537.5 76.5 Q496 35 441 11.5 Q386 -12 323 -12 Z M323 115 Q359 115 390 129 Q421 143 444 167 Q467 191 480 223.5 Q493 256 493 292 Q493 329 480 361.5 Q467 394 444 418 Q421 442 390 456 Q359 470 323 470 Q287 470 255.5 456 Q224 442 201.5 418 Q179 394 166 361.5 Q153 329 153 292 Q153 256 166 223.5 Q179 191 201.5 167 Q224 143 255.5 129 Q287 115 323 115 Z M238 -170 Q238 -132 261 -108.5 Q284 -85 323 -85 Q363 -85 385.5 -108.5 Q408 -132 408 -170 Q408 -208 385.5 -231 Q363 -254 323 -254 Q282 -254 260 -231 Q238 -208 238 -170 Z " />
<glyph glyph-name="uni1ECE" unicode="&#x1ece;" horiz-adv-x="790" d="M395 -10 Q317 -10 249 19.5 Q181 49 130.5 99.5 Q80 150 51 218.5 Q22 287 22 365 Q22 443 51 511 Q80 579 130.5 630 Q181 681 249 710.5 Q317 740 395 740 Q473 740 541 710.5 Q609 681 660 630 Q711 579 740 511 Q769 443 769 365 Q769 287 740 218.5 Q711 150 660 99.5 Q609 49 541 19.5 Q473 -10 395 -10 Z M395 124 Q445 124 488.5 143 Q532 162 564.5 194.5 Q597 227 615.5 271 Q634 315 634 365 Q634 415 615.5 459 Q597 503 564.5 535.5 Q532 568 488.5 587 Q445 606 395 606 Q345 606 301.5 587 Q258 568 226 535.5 Q194 503 175.5 459 Q157 415 157 365 Q157 315 175.5 271 Q194 227 226 194.5 Q258 162 301.5 143 Q345 124 395 124 Z M375 978 Q394 978 411.5 972 Q429 966 443 954.5 Q457 943 465.5 926.5 Q474 910 474 890 Q474 867 466.5 852 Q459 837 449 828 Q439 819 431.5 813.5 Q424 808 422.5 805.5 Q421 803 421 780 L345 780 Q345 821 354 837.5 Q363 854 373 862.5 Q383 871 388.5 875 Q394 879 395.5 882 Q397 885 397 892 Q392 906 375 906 Q366 906 358.5 900 Q351 894 333 861 L264 894 Q290 944 314.5 961 Q339 978 375 978 Z " />
<glyph glyph-name="uni1ECF" unicode="&#x1ecf;" horiz-adv-x="646" d="M323 -12 Q260 -12 204.5 11.5 Q149 35 108 76.5 Q67 118 43.5 173.5 Q20 229 20 292 Q20 356 43.5 411.5 Q67 467 108 508.5 Q149 550 204.5 573.5 Q260 597 323 597 Q386 597 441 573.5 Q496 550 537.5 508.5 Q579 467 602.5 411.5 Q626 356 626 292 Q626 229 602.5 173.5 Q579 118 537.5 76.5 Q496 35 441 11.5 Q386 -12 323 -12 Z M323 115 Q359 115 390 129 Q421 143 444 167 Q467 191 480 223.5 Q493 256 493 292 Q493 329 480 361.5 Q467 394 444 418 Q421 442 390 456 Q359 470 323 470 Q287 470 255.5 456 Q224 442 201.5 418 Q179 394 166 361.5 Q153 329 153 292 Q153 256 166 223.5 Q179 191 201.5 167 Q224 143 255.5 129 Q287 115 323 115 Z M317 841 Q336 841 353.5 835 Q371 829 385 817.5 Q399 806 407.5 789.5 Q416 773 416 753 Q416 730 408.5 715 Q401 700 391 691 Q381 682 373.5 676.5 Q366 671 364.5 668.5 Q363 666 363 643 L287 643 Q287 684 296 700.5 Q305 717 315 725.5 Q325 734 330.5 738 Q336 742 337.5 745 Q339 748 339 755 Q334 769 317 769 Q308 769 300.5 763 Q293 757 275 724 L206 757 Q232 807 256.5 824 Q281 841 317 841 Z " />
<glyph glyph-name="uni1ED0" unicode="&#x1ed0;" horiz-adv-x="790" d="M395 -10 Q317 -10 249 19.5 Q181 49 130.5 99.5 Q80 150 51 218.5 Q22 287 22 365 Q22 443 51 511 Q80 579 130.5 630 Q181 681 249 710.5 Q317 740 395 740 Q473 740 541 710.5 Q609 681 660 630 Q711 579 740 511 Q769 443 769 365 Q769 287 740 218.5 Q711 150 660 99.5 Q609 49 541 19.5 Q473 -10 395 -10 Z M395 124 Q445 124 488.5 143 Q532 162 564.5 194.5 Q597 227 615.5 271 Q634 315 634 365 Q634 415 615.5 459 Q597 503 564.5 535.5 Q532 568 488.5 587 Q445 606 395 606 Q345 606 301.5 587 Q258 568 226 535.5 Q194 503 175.5 459 Q157 415 157 365 Q157 315 175.5 271 Q194 227 226 194.5 Q258 162 301.5 143 Q345 124 395 124 Z M354 950 L438 950 L557 780 L455 780 L396 869 L337 780 L235 780 L354 950 Z M615 1071 L741 1071 L591 901 L500 901 L615 1071 Z " />
<glyph glyph-name="uni1ED1" unicode="&#x1ed1;" horiz-adv-x="646" d="M323 -12 Q260 -12 204.5 11.5 Q149 35 108 76.5 Q67 118 43.5 173.5 Q20 229 20 292 Q20 356 43.5 411.5 Q67 467 108 508.5 Q149 550 204.5 573.5 Q260 597 323 597 Q386 597 441 573.5 Q496 550 537.5 508.5 Q579 467 602.5 411.5 Q626 356 626 292 Q626 229 602.5 173.5 Q579 118 537.5 76.5 Q496 35 441 11.5 Q386 -12 323 -12 Z M323 115 Q359 115 390 129 Q421 143 444 167 Q467 191 480 223.5 Q493 256 493 292 Q493 329 480 361.5 Q467 394 444 418 Q421 442 390 456 Q359 470 323 470 Q287 470 255.5 456 Q224 442 201.5 418 Q179 394 166 361.5 Q153 329 153 292 Q153 256 166 223.5 Q179 191 201.5 167 Q224 143 255.5 129 Q287 115 323 115 Z M281 814 L365 814 L484 644 L382 644 L323 733 L264 644 L162 644 L281 814 Z M533 950 L659 950 L509 780 L418 780 L533 950 Z " />
<glyph glyph-name="uni1ED2" unicode="&#x1ed2;" horiz-adv-x="790" d="M395 -10 Q317 -10 249 19.5 Q181 49 130.5 99.5 Q80 150 51 218.5 Q22 287 22 365 Q22 443 51 511 Q80 579 130.5 630 Q181 681 249 710.5 Q317 740 395 740 Q473 740 541 710.5 Q609 681 660 630 Q711 579 740 511 Q769 443 769 365 Q769 287 740 218.5 Q711 150 660 99.5 Q609 49 541 19.5 Q473 -10 395 -10 Z M395 124 Q445 124 488.5 143 Q532 162 564.5 194.5 Q597 227 615.5 271 Q634 315 634 365 Q634 415 615.5 459 Q597 503 564.5 535.5 Q532 568 488.5 587 Q445 606 395 606 Q345 606 301.5 587 Q258 568 226 535.5 Q194 503 175.5 459 Q157 415 157 365 Q157 315 175.5 271 Q194 227 226 194.5 Q258 162 301.5 143 Q345 124 395 124 Z M354 950 L438 950 L557 780 L455 780 L396 869 L337 780 L235 780 L354 950 Z M51 1097 L178 1097 L292 927 L201 927 L51 1097 Z " />
<glyph glyph-name="uni1ED3" unicode="&#x1ed3;" horiz-adv-x="646" d="M323 -12 Q260 -12 204.5 11.5 Q149 35 108 76.5 Q67 118 43.5 173.5 Q20 229 20 292 Q20 356 43.5 411.5 Q67 467 108 508.5 Q149 550 204.5 573.5 Q260 597 323 597 Q386 597 441 573.5 Q496 550 537.5 508.5 Q579 467 602.5 411.5 Q626 356 626 292 Q626 229 602.5 173.5 Q579 118 537.5 76.5 Q496 35 441 11.5 Q386 -12 323 -12 Z M323 115 Q359 115 390 129 Q421 143 444 167 Q467 191 480 223.5 Q493 256 493 292 Q493 329 480 361.5 Q467 394 444 418 Q421 442 390 456 Q359 470 323 470 Q287 470 255.5 456 Q224 442 201.5 418 Q179 394 166 361.5 Q153 329 153 292 Q153 256 166 223.5 Q179 191 201.5 167 Q224 143 255.5 129 Q287 115 323 115 Z M281 813 L365 813 L484 643 L382 643 L323 732 L264 643 L162 643 L281 813 Z M-7 950 L120 950 L234 780 L143 780 L-7 950 Z " />
</font>
</svg>
