<?xml version="1.0" standalone="no"?>
<!DOCTYPE svg PUBLIC "-//W3C//DTD SVG 1.1//EN" "http://www.w3.org/Graphics/SVG/1.1/DTD/svg11.dtd" >
<svg>
<metadata>
Created by FontForge 20090914 at Mon Aug  5 05:34:39 2013
 By www-data
(c) Copyright 2005 by Tong Duc Thinh. All Rights Reserved
</metadata>
<defs>
<font id="SFUHelveticaCondensed" horiz-adv-x="500" >
  <font-face 
    font-family="SFU Helvetica"
    font-weight="400"
    font-stretch="normal"
    units-per-em="1000"
    panose-1="0 0 4 0 0 0 0 0 0 0"
    ascent="800"
    descent="-200"
    x-height="555.999"
    cap-height="750"
    bbox="-174 -224.184 1071 1186"
    underline-thickness="58"
    underline-position="-61"
    unicode-range="U+0020-U+F002"
  />
<missing-glyph 
d="M63 0v1134h375v-1134h-375zM125 63h250v1009h-250v-1009z" />
    <glyph glyph-name=".notdef" 
d="M63 0v1134h375v-1134h-375zM125 63h250v1009h-250v-1009z" />
    <glyph glyph-name="space" unicode=" " horiz-adv-x="250" 
 />
    <glyph glyph-name="exclam" unicode="!" horiz-adv-x="333" 
d="M144 183l-23 337v230h91v-230l-23 -337h-45zM212 0h-91v100h91v-100z" />
    <glyph glyph-name="quotedbl" unicode="&#x22;" horiz-adv-x="250" 
d="M44 513v226h52v-226h-52zM155 513v226h52v-226h-52z" />
    <glyph glyph-name="numbersign" unicode="#" 
d="M33 0l79 254h-107l17 59h108l38 124h-109l17 59h109l79 254h55l-78 -254h88l77 254h56l-78 -254h111l-17 -59h-112l-38 -124h112l-15 -59h-115l-78 -254h-55l78 254h-87l-80 -254h-55zM186 313h87l38 124h-88z" />
    <glyph glyph-name="dollar" unicode="$" 
d="M268 326v-264.002c74 -3.33301 111 37.334 111 122.001c0 40.667 -9.33301 71.334 -28 92.001c-14 16 -41.667 32.667 -83 50zM226 61.998l0.00195312 280.003c-60.667 28 -103 53 -127 75c-38 34.667 -57 78.667 -57 132c0 57.333 16.5 104.666 49.5 141.999
s77.833 57 134.5 59v65h44v-65c117.333 -4.66699 175.333 -71.334 174 -200.001h-81c-0.666992 28.667 -3 50.667 -7 66c-6.66699 24 -19 40.667 -37 50c-18 6.66699 -34.333 9.66699 -49 9v-255c76.667 -34.667 125.334 -61.667 146.001 -81c32.667 -30.667 49 -76 49 -136
c0 -66 -16 -118 -48 -156c-34.667 -40.667 -84.334 -61.334 -149.001 -62.001v-101h-42v101c-127.333 4.66699 -191 76 -191 214c0 10.667 0.333008 21.667 1 33h80c-0.666992 -56.667 3.66602 -95.667 12.999 -117c15.333 -35.333 47.666 -53 96.999 -53zM226.002 436.001
l0.000976562 239c-65.333 -4 -98 -42 -98 -114c0 -32.667 9.33301 -59 28 -79c13.333 -14 36.666 -29.333 69.999 -46z" />
    <glyph glyph-name="percent" unicode="%" horiz-adv-x="833" 
d="M595 750l-332 -765h-54l335 765h51zM756 186c0 -125.333 -48 -187.333 -144 -186c-45.333 0.666992 -79 22 -101 64c-16.667 33.333 -25 75 -25 125c0 115.333 46.333 173 139 173c87.333 0 131 -58.667 131 -176zM621 56c45.333 0 68 37.667 68 113
c0 38.667 -3 67.667 -9 87c-10 33.333 -30 50 -60 50c-29.333 0 -49 -16.667 -59 -50c-5.33301 -18 -8 -47 -8 -87c0 -75.333 22.667 -113 68 -113zM194 736c87.333 0 131 -59.668 131 -179.001c0 -60 -8.33301 -104.333 -25 -133c-22 -38 -60.333 -54.667 -115 -50
c-51.333 4.66699 -87 24.334 -107 59.001c-15.333 28 -23 70.333 -23 127c0 117.333 46.333 176 139 176zM190 429.999c45.333 0 68 37.667 68 113c0 38.667 -3 67.667 -9 87c-10 33.333 -30 50 -60 50c-29.333 0 -49 -16.667 -59 -50c-5.33301 -18 -8 -47 -8 -87
c0 -75.333 22.667 -113 68 -113z" />
    <glyph glyph-name="ampersand" unicode="&#x26;" horiz-adv-x="667" 
d="M428 127l-163 243c-36 -26 -61.333 -50 -76 -72c-18.667 -27.333 -28 -60.333 -28 -99c0 -43.333 13 -77.833 39 -103.5s60.667 -38.5 104 -38.5c44.667 0 86 23.333 124 70zM292 469c55.333 42 83 86 83 132c0 23.333 -6.16699 42.833 -18.5 58.5
s-29.833 23.5 -52.5 23.5c-21.333 0 -38.333 -7.66699 -51 -23s-19 -34 -19 -56c0 -34 19.333 -79 58 -135zM328 414l144 -210.002c16 46 25.667 92.667 29 140h74c-6 -85.333 -24 -154.333 -54 -207l99 -139h-101l-47 69c-46 -56.667 -105 -85 -177 -85
c-67.333 0 -120.833 19.5 -160.5 58.5s-59.5 92.167 -59.5 159.5c0 52.667 14.333 97.667 43 135c22 28.667 59 59.334 111 92.001c-47.333 61.333 -71 117.333 -71 168c0 42.667 13.167 79.167 39.5 109.5s60.5 45.5 102.5 45.5c46 0 83.667 -13.5 113 -40.5
s44 -63.167 44 -108.5c0 -67.333 -43 -129.666 -129 -186.999z" />
    <glyph glyph-name="quotesingle" unicode="'" horiz-adv-x="250" 
d="M99 513v226h52v-226h-52z" />
    <glyph glyph-name="parenleft" unicode="(" horiz-adv-x="333" 
d="M231 750l53 -0.00195312c-42.667 -88 -69 -147.333 -79 -178c-30 -89.333 -45 -189.333 -45 -300c0 -180 43 -342.333 129 -487h-58c-103.333 168.667 -155 327 -155 475c0 94.667 13 180.334 39 257.001c22 64.667 60.667 142.334 116 233.001z" />
    <glyph glyph-name="parenright" unicode=")" horiz-adv-x="333" 
d="M102 -215l-53 0.00195312c42.667 88 69 147.333 79 178c30 89.333 45 189.333 45 300c0 180 -43 342.333 -129 487h58c103.333 -168.667 155 -327 155 -475c0 -94.667 -13 -180.334 -39 -257.001c-22 -64.667 -60.667 -142.334 -116 -233.001z" />
    <glyph glyph-name="asterisk" unicode="*" 
d="M113 669l113 -44v125h52v-122l111 41l16 -48l-114 -38l76 -96l-41 -32l-78 99l-72 -94l-43 27l75 93l-112 45z" />
    <glyph glyph-name="plus" unicode="+" 
d="M215 289v216h70v-216h172v-70h-172v-219h-70v219h-171v70h171z" />
    <glyph glyph-name="comma" unicode="," horiz-adv-x="250" 
d="M129 0l-49.001 0.00195312v100h91c0 -48 -1 -87.333 -3 -118c-4 -65.333 -33.333 -108 -88 -128v45c8.66699 1.33301 16.334 5.66602 23.001 12.999c17.333 19.333 26 48.666 26 87.999z" />
    <glyph glyph-name="hyphen" unicode="-" horiz-adv-x="333" 
d="M288 275h-243v83h243v-83z" />
    <glyph glyph-name="hyphen" unicode="&#x2010;" horiz-adv-x="333" 
d="M288 275h-243v83h243v-83z" />
    <glyph glyph-name="period" unicode="." horiz-adv-x="250" 
d="M171 0h-91v100h91v-100z" />
    <glyph glyph-name="slash" unicode="/" horiz-adv-x="278" 
d="M48 -27h-61l243 777h61z" />
    <glyph glyph-name="zero" unicode="0" 
d="M132 382v-20.001c-0.666992 -12.667 -1 -22.667 -1 -30v-50c0 -70.667 6.33301 -122 19 -154c18 -45.333 51.333 -68 100 -68c54.667 0 90 35.667 106 107c8.66699 38.667 13 110.334 13 215.001c0 90 -3.66699 151 -11 183c-16 70 -52 106.667 -108 110
s-92 -35.667 -108 -117c-6.66699 -33.333 -10 -92 -10 -176zM250 -15.001c-86.667 0 -145.664 47.3311 -176.997 141.998c-18 54.667 -27 135.334 -27 242.001c0 105.333 9.66699 186.333 29 243c31.333 92 89.666 138 174.999 138c91.333 0 151.666 -45.667 180.999 -137
c16 -49.333 24 -130.666 24 -243.999c0 -116.667 -9.66699 -202 -29 -256c-30.667 -85.333 -89.334 -128 -176.001 -128z" />
    <glyph glyph-name="one" unicode="1" 
d="M234 0v546h-160v65c59.333 1.33301 101 10 125 26c30 20 47.667 57.667 53 113h65v-750h-83z" />
    <glyph glyph-name="two" unicode="2" 
d="M319 307l-134.999 -122.999c-34 -30.667 -52 -67 -54 -109h317v-75h-403c1.33301 63.333 11.333 117.333 30 162c8.66699 20 28.334 45 59.001 75l143 138c30.667 29.333 51 54 61 74c11.333 23.333 17 54.666 17 93.999c0 88 -37 132 -111 132
c-76.667 0 -113.334 -60 -110.001 -180h-83v46c0 59.333 16 109.333 48 150c38 39.333 87.667 59 149 59c63.333 0 111.333 -18.833 144 -56.5s49 -88.5 49 -152.5c0 -50.667 -10.667 -94.667 -32 -132c-16.667 -29.333 -46.334 -63.333 -89.001 -102z" />
    <glyph glyph-name="three" unicode="3" 
d="M188 349l0.000976562 75c54.667 3.33301 88.667 8 102 14c35.333 16.667 53 54.667 53 114c0 82 -35 123 -105 123c-42.667 0 -72.334 -15 -89.001 -45c-12 -22 -18 -56 -18 -102h-79c-2 66 12 118.667 42 158c32.667 42.667 81.334 64 146.001 64
c56 0 101.167 -17 135.5 -51s51.5 -79 51.5 -135c0 -87.333 -35 -143.666 -105 -168.999c83.333 -19.333 125 -77.333 125 -174c0 -157.333 -70.333 -236 -211 -236c-135.333 0 -201.333 78.333 -198 235h82c-0.666992 -8.66699 -1 -17 -1 -25c0 -90 41.333 -135 124 -135
c39.333 0 69.333 12.333 90 37s31 57 31 97c0 62.667 -14 105 -42 127c-24.667 19.333 -69.334 28.666 -134.001 27.999z" />
    <glyph glyph-name="four" unicode="4" 
d="M301 620l-207 -358h207v358zM28 264l280 486h76v-488h67v-75h-67v-187h-83v187h-273v77z" />
    <glyph glyph-name="five" unicode="5" 
d="M43 196l86 0.000976562c-4.66699 -90.667 32.333 -136 111 -136c43.333 0 75.333 20.667 96 62c16 31.333 24 71 24 119c0 117.333 -41.667 176 -125 176c-50 0 -85 -22.667 -105 -68h-74l44 386h319v-75h-252l-33 -222c35.333 36 75.666 54 120.999 54
c64 -0.666992 113 -25.334 147 -74.001c29.333 -42 44 -96.667 44 -164c0 -76 -14.667 -137.333 -44 -184c-35.333 -56.667 -88.666 -85 -159.999 -85c-66 0 -116.5 18.667 -151.5 56s-50.833 89 -47.5 155z" />
    <glyph glyph-name="six" unicode="6" 
d="M372 242c0 106 -40.333 159 -121 159c-74.667 0 -113.334 -50.333 -116.001 -151c-3.33301 -126.667 37.334 -190 122.001 -190c76.667 0 115 60.667 115 182zM259 -15c-89.333 0 -150.332 38.667 -182.999 116c-22 52 -33 129.333 -33 232c0 118 10 207 30 267
c33.333 100 97.333 150 192 150c54.667 0 97.167 -16 127.5 -48s46.166 -75.667 47.499 -131h-85c0 69.333 -33.333 104 -100 104c-54 0 -91 -38.333 -111 -115c-8.66699 -33.333 -15 -92 -19 -176h2c28 61.333 74 92 138 92s113 -23 147 -69c30.667 -40.667 46 -94 46 -160
c0 -69.333 -15.333 -128.333 -46 -177c-36.667 -56.667 -87.667 -85 -153 -85z" />
    <glyph glyph-name="seven" unicode="7" 
d="M44 660l0.000976562 75h412v-69c-144 -195.333 -226.333 -417.333 -247 -666h-93c29.333 241.333 119.666 461.333 270.999 660h-343z" />
    <glyph glyph-name="eight" unicode="8" 
d="M132 218c0 -105.333 41.333 -158 124 -158c40 0 69.667 17.333 89 52c15.333 28 23 63.667 23 107c0 96.667 -39.333 145 -118 145s-118 -48.667 -118 -146zM155 562c-0.666992 -82 32.334 -123 99.001 -123c62 0 93 40 93 120c0 77.333 -31.333 116 -94 116
c-64.667 0 -97.334 -37.667 -98.001 -113zM188.001 404l-0.000976562 2c-79.333 13.333 -119 68.333 -119 165c0 56 17.333 99.833 52 131.5s80.667 47.5 138 47.5c56.667 0 99.834 -16.333 129.501 -49s44.5 -77.667 44.5 -135c0 -92.667 -37.667 -146 -113 -160v-2
c43.333 -7.33301 77 -28 101 -62c22 -32 33 -70.667 33 -116c0 -70.667 -15.333 -127 -46 -169c-34.667 -48 -86 -72 -154 -72c-70 0 -122.667 21.333 -158 64c-33.333 39.333 -50 94.666 -50 165.999c0 46.667 12.5 87.834 37.5 123.501s59.833 57.5 104.5 65.5z" />
    <glyph glyph-name="nine" unicode="9" 
d="M368 490c0 123.333 -41 185 -123 185c-77.333 0 -116 -57.333 -116 -172c0 -112.667 39 -169 117 -169c81.333 0 122 52 122 156zM242 750c89.333 0 150.332 -38.666 182.999 -115.999c22 -52 33 -129.333 33 -232c0 -118 -10 -207 -30 -267
c-33.333 -100 -97.333 -150 -192 -150c-54.667 0 -97.167 16 -127.5 48s-46.166 75.667 -47.499 131h85c0 -69.333 33.333 -104 100 -104c54 0 91 38.667 111 116c8.66699 33.333 15 91.666 19 174.999h-2c-28 -61.333 -74 -92 -138 -92s-113 23 -147 69
c-30.667 40.667 -46 94 -46 160c0 69.333 15.333 128.333 46 177c36.667 56.667 87.667 85 153 85z" />
    <glyph glyph-name="colon" unicode=":" horiz-adv-x="250" 
d="M171 0h-91v100h91v-100zM171 447h-91v100h91v-100z" />
    <glyph glyph-name="semicolon" unicode=";" horiz-adv-x="250" 
d="M80 0l-0.000976562 100.002h91c0 -48 -1 -87.333 -3 -118c-4 -65.333 -33.333 -108 -88 -128v45c8.66699 1.33301 16.334 5.66602 23.001 12.999c17.333 19.333 26 48.666 26 87.999h-49zM170.999 447.002h-91v100h91v-100z" />
    <glyph glyph-name="less" unicode="&#x3c;" 
d="M120 254l339 -191v-73l-417 232v64l417 232v-73z" />
    <glyph glyph-name="equal" unicode="=" 
d="M457 384v-70h-413v70h413zM457 194v-70h-413v70h413z" />
    <glyph glyph-name="greater" unicode="&#x3e;" 
d="M42 63l339 191l-339 191v73l417 -232v-64l-417 -232v73z" />
    <glyph glyph-name="question" unicode="?" 
d="M287 172l-88.999 -0.00195312c0 51.333 4.66699 89 14 113s31 55 65 93c17.333 19.333 30.333 34.333 39 45c36.667 45.333 55 89.666 55 132.999c0 34.667 -8 63.334 -24 86.001c-18 25.333 -43.667 38 -77 38c-83.333 0 -124.333 -55.333 -123 -166h-87
c-2.66699 68.667 12 124 44 166c35.333 46.667 86.666 70 153.999 70c60 0 108.333 -16 145 -48c39.333 -34 59 -80.667 59 -140c0 -58 -16.333 -107.333 -49 -148c-1.33301 -2 -36.333 -43 -105 -123c-4 -7.33301 -9.33301 -18.666 -16 -33.999
c-3.33301 -13.333 -5 -41.666 -5 -84.999zM289.001 -0.00195312h-91v100h91v-100z" />
    <glyph glyph-name="at" unicode="@" horiz-adv-x="800" 
d="M431 536c-48.667 0 -91.001 -28.667 -127.001 -86c-31.333 -50 -47 -101.667 -47 -155c0 -25.333 6.33301 -47 19 -65c14.667 -20.667 34.334 -31 59.001 -31c44.667 0 83 31 115 93c34.667 67.333 52 124.333 52 171c0 20.667 -6.66699 38 -20 52s-30.333 21 -51 21z
M543.999 529l13.998 46.998h69l-103 -305c-8.66699 -25.333 -13 -42.666 -13 -51.999c0 -19.333 10 -29 30 -29c21.333 0 44 9 68 27c20.667 15.333 38.334 33.333 53.001 54c34 48.667 51 103.334 51 164.001c0 80 -30 145 -90 195c-56.667 47.333 -125.667 71 -207 71
c-92.667 0 -170.667 -33 -234 -99s-95 -145.333 -95 -238c0 -90.667 32.5 -168.334 97.5 -233.001s142.833 -97 233.5 -97c52.667 0 102.834 12.5 150.501 37.5s86.5 59.167 116.5 102.5h60c-31.333 -58 -76.833 -104 -136.5 -138s-123.167 -51 -190.5 -51
c-108 0 -198.667 37.333 -272 112s-110 166 -110 274c0 105.333 37.333 194.833 112 268.5s165 110.5 271 110.5c92.667 0 172.667 -29.667 240 -89c70 -61.333 105 -138 105 -230c0 -65.333 -20.333 -126.666 -61 -183.999c-52 -73.333 -110.667 -110 -176 -110
c-46.667 0 -75.667 17.667 -87 53c-32.667 -34 -72.667 -51 -120 -51c-42 0 -76 15 -102 45c-25.333 28 -38 63.333 -38 106c0 74 22.667 142 68 204c50 68 110.667 102 182 102c54.667 0 92.667 -22.333 114 -67z" />
    <glyph glyph-name="A" unicode="A" horiz-adv-x="556" 
d="M11 0l214 750h110l211 -750h-92l-59 216h-237l-55 -216h-92zM376 291l-97 399h-2l-99 -399h198z" />
    <glyph glyph-name="B" unicode="B" horiz-adv-x="556" 
d="M163 75h131.001c46 0 78.667 12.333 98 37c16.667 21.333 25 56 25 104c0 65.333 -19.333 107 -58 125c-18.667 8.66699 -59.334 13 -122.001 13h-74v-279zM163.001 675l0.00195312 -246.001h74c57.333 0 96.666 7 117.999 21c27.333 18 41 53.667 41 107
c0 50.667 -14.667 84.334 -44 101.001c-20.667 11.333 -59.334 17 -116.001 17h-73zM278.003 -0.000976562l-198.002 0.000976562v750h214c122.667 0 186.334 -62 191.001 -186c1.33301 -44 -6.66699 -79 -24 -105s-46.666 -46 -87.999 -60v-2
c86 -10.667 129.333 -69.334 130 -176.001c1.33301 -147.333 -73.667 -221 -225 -221z" />
    <glyph glyph-name="C" unicode="C" horiz-adv-x="556" 
d="M503 525l-83.001 0.00195312c-2.66699 110 -47.667 165 -135 165c-62 0 -104 -38.333 -126 -115c-11.333 -40 -18 -103 -20 -189c-2 -88 3 -155.667 15 -203c21.333 -84 65 -126 131 -126c44 0 76.667 17 98 51c15.333 24.667 26 62 32 112c1.33301 11.333 3 28.333 5 51
h83c-0.666992 -10 -2 -25.333 -4 -46c-4.66699 -44.667 -8 -72.334 -10 -83.001c-6 -26.667 -17.333 -52 -34 -76c-39.333 -56 -93.666 -84 -162.999 -84c-102 0 -170.667 44.667 -206 134c-22 55.333 -33 144.666 -33 267.999c0 111.333 13 196 39 254
c38 84.667 104.333 127 199 127c69.333 0 123 -23.333 161 -70c36 -43.333 53 -100 51 -170z" />
    <glyph glyph-name="D" unicode="D" horiz-adv-x="611" 
d="M303 0h-221.001v750h206c105.333 0 178.333 -39 219 -117c31.333 -59.333 45 -145.333 41 -258c-4 -108.667 -19.333 -191.667 -46 -249c-39.333 -84 -105.666 -126 -198.999 -126zM164.999 675l-0.00195312 -600h133c73.333 0 122.333 37.333 147 112
c14.667 45.333 20.334 113 17.001 203c-3.33301 97.333 -14.666 166.333 -33.999 207c-24.667 52 -68 78 -130 78h-133z" />
    <glyph glyph-name="E" unicode="E" 
d="M451 0h-377v750h375v-75h-292v-248h274v-75h-274v-277h294v-75z" />
    <glyph glyph-name="F" unicode="F" horiz-adv-x="444" 
d="M157 0h-83v750h352v-75h-269v-246h250v-75h-250v-354z" />
    <glyph glyph-name="G" unicode="G" horiz-adv-x="611" 
d="M532 385l-0.000976562 -391h-64v117h-2c-10.667 -41.333 -31.167 -73.166 -61.5 -95.499s-67.166 -33.5 -110.499 -33.5c-99.333 0 -167.333 44.333 -204 133c-24 57.333 -36 145.666 -36 264.999c0 256.667 82.667 385 248 385c70.667 0 125.834 -21 165.501 -63
s58.834 -98.667 57.501 -170h-84c-1.33301 103.333 -46.333 156 -135 158c-71.333 1.33301 -119.333 -34.334 -144 -107.001c-14.667 -44 -22 -112.667 -22 -206c0 -95.333 5 -162 15 -200c20 -77.333 62.333 -117.333 127 -120
c69.333 -3.33301 116.666 23.334 141.999 80.001c17.333 38 25.666 95.667 24.999 173h-167v75h250z" />
    <glyph glyph-name="H" unicode="H" horiz-adv-x="611" 
d="M162 0h-83v750h83v-313h287v313h83v-750h-83v362h-287v-362z" />
    <glyph glyph-name="I" unicode="I" horiz-adv-x="278" 
d="M181 0h-83v750h83v-750z" />
    <glyph glyph-name="J" unicode="J" horiz-adv-x="444" 
d="M22 235l83 -0.000976562v-44c0 -43.333 4 -73.666 12 -90.999c12.667 -26.667 37.667 -40 75 -40c38 0 64 13.333 78 40c10 19.333 15 49.666 15 90.999v559h83v-565c0 -66.667 -13 -115.667 -39 -147c-28 -35.333 -74 -53 -138 -53c-70 0 -117.667 23.667 -143 71
c-19.333 36.667 -28 96.334 -26 179.001z" />
    <glyph glyph-name="K" unicode="K" horiz-adv-x="556" 
d="M163 0h-84v750h83v-385l273 385h104l-239 -314l246 -436h-102l-203 362l-78 -102v-260z" />
    <glyph glyph-name="L" unicode="L" 
d="M472 0h-389v750h83v-675h306v-75z" />
    <glyph glyph-name="M" unicode="M" horiz-adv-x="778" 
d="M407 166l149.001 584.003h146v-750h-83v713h-2c-6.66699 -32 -14.334 -65.667 -23.001 -101l-157 -612h-99l-157 621c-1.33301 6 -4 16.333 -8 31l-14 61h-2c0 -10.667 0.333008 -26.834 1 -48.501s1 -37.834 1 -48.501v-616h-83v750h147l147 -585
c6.66699 -26.667 12 -63.667 16 -111h2c2 21.333 8.33301 58.666 19 111.999z" />
    <glyph glyph-name="N" unicode="N" horiz-adv-x="611" 
d="M451 138v611.999h83v-750h-136l-210 600c-12.667 36.667 -22 74.334 -28 113.001h-2c1.33301 -50.667 2 -89 2 -115v-598h-83v750h135l213 -614c11.333 -32 20 -59.333 26 -82h2c-1.33301 36 -2 64 -2 84z" />
    <glyph glyph-name="O" unicode="O" horiz-adv-x="611" 
d="M59 391c-0.666992 109.333 13.001 193.333 41.001 252c38.667 81.333 108 122 208 122c98 0 166.333 -40.667 205 -122c27.333 -58 40.666 -142 39.999 -252c-0.666992 -127.333 -14.667 -221.333 -42 -282c-38 -84.667 -106.333 -127 -205 -127s-167 42.333 -205 127
c-27.333 60.667 -41.333 154.667 -42 282zM467.001 389c1.33301 200.667 -53.002 301 -163.002 301c-107.333 0 -160.333 -100.333 -159 -301c0.666992 -119.333 10.334 -201.666 29.001 -246.999c23.333 -56.667 67.333 -85 132 -85s108.667 28.333 132 85
c18.667 45.333 28.334 127.666 29.001 246.999z" />
    <glyph glyph-name="P" unicode="P" horiz-adv-x="556" 
d="M169 675v-281.999h81c63.333 0 108 8.33301 134 25c32.667 21.333 49 61.666 49 120.999c0 55.333 -17 93 -51 113c-26 15.333 -68.333 23 -127 23h-86zM169 0.000976562h-83v750h197c157.333 0 236 -69.667 236 -209c0 -102.667 -35.333 -169.667 -106 -201
c-33.333 -14.667 -98 -22 -194 -22h-50v-318z" />
    <glyph glyph-name="Q" unicode="Q" horiz-adv-x="611" 
d="M496 90l86 -72l-42 -52l-84 70c-36 -36 -86 -54 -150 -54c-98.667 0 -167 42.333 -205 127c-27.333 60.667 -41.333 154.667 -42 282c-0.666992 110 12.666 194 39.999 252c38.667 81.333 107 122 205 122c100.667 0 170.334 -40.667 209.001 -122
c27.333 -57.333 41 -141.333 41 -252c0 -52.667 -4 -105.667 -12 -159c-10 -68 -25.333 -115.333 -46 -142zM394 85l-73.999 59l44 55l70 -56c10.667 18.667 19.334 53.667 26.001 105c6 42 8.66699 78.667 8 110c-1.33301 120 -11.333 202.333 -30 247
c-23.333 56.667 -67.333 85 -132 85s-108.667 -28.333 -132 -85c-18.667 -45.333 -28.334 -127.666 -29.001 -246.999c-0.666992 -82 6.66602 -146.333 21.999 -193c25.333 -74 71 -110 137 -108c36 1.33301 66 10.666 90 27.999z" />
    <glyph glyph-name="R" unicode="R" horiz-adv-x="611" 
d="M169 675v-270h131c98 0 146.333 46 145 138c-0.666992 56 -20.334 94 -59.001 114c-23.333 12 -56.666 18 -99.999 18h-117zM169 330v-329.999h-83v750h193c85.333 0 147.333 -14 186 -42c46.667 -32.667 68.667 -90 66 -172c-1.33301 -44 -14.833 -80.667 -40.5 -110
s-60.167 -47 -103.5 -53v-2c48 -4.66699 81.167 -16.834 99.5 -36.501s29.5 -54.167 33.5 -103.5c2.66699 -31.333 8 -87 16 -167c4 -31.333 13.667 -47 29 -47v-17h-97c-17.333 46 -26 109.667 -26 191c0 92.667 -42.667 139 -128 139h-145z" />
    <glyph glyph-name="S" unicode="S" horiz-adv-x="556" 
d="M483 553l-83.001 -0.000976562c3.33301 40.667 -5.5 73.667 -26.5 99s-51.833 38 -92.5 38c-89.333 0 -134 -44.667 -134 -134c0 -50 23.667 -84 71 -102l119 -45c60.667 -22.667 102.334 -46 125.001 -70c28.667 -30.667 43 -74.667 43 -132
c0 -71.333 -20.833 -126.666 -62.5 -165.999s-98.5 -59 -170.5 -59c-102 0 -170.333 39.667 -205 119c-8.66699 20 -14 65.667 -16 137h83c-2 -60.667 5.66699 -104.334 23 -131.001c21.333 -33.333 61 -50 119 -50c43.333 0 78 11.167 104 33.5s39 54.833 39 97.5
c0 50.667 -11 85.334 -33 104.001c-9.33301 8 -39 21.333 -89 40c-28.667 10 -77.667 29.333 -147 58c-59.333 27.333 -89 84 -89 170c0 61.333 19.333 110.833 58 148.5s89 56.5 151 56.5c70 0 124 -18 162 -54s55 -88.667 51 -158z" />
    <glyph glyph-name="T" unicode="T" 
d="M15 675v75h471v-75h-194v-675h-83v675h-194z" />
    <glyph glyph-name="U" unicode="U" horiz-adv-x="611" 
d="M81 181l0.000976562 569h83v-539c0 -102.667 47.333 -154 142 -154s142 51.333 142 154v539h83v-569c0 -66.667 -21.333 -117.334 -64 -152.001c-38.667 -31.333 -92.334 -47 -161.001 -47c-68 0 -121.667 15.667 -161 47c-42.667 34.667 -64 85.334 -64 152.001z" />
    <glyph glyph-name="V" unicode="V" horiz-adv-x="556" 
d="M278 60l175 690h92l-216 -750h-103l-215 750h92l173 -690h2z" />
    <glyph glyph-name="W" unicode="W" horiz-adv-x="833" 
d="M389 509l-109 -508.998h-103l-160 750h92l98 -517c8.66699 -45.333 16 -103 22 -173h2c2.66699 31.333 10.667 87 24 167l110 523h103l99 -517c7.33301 -38.667 14.666 -96.334 21.999 -173.001h2c2.66699 31.333 10.667 87 24 167l109 523h92l-176 -750h-103l-100 509
c-9.33301 47.333 -16.666 107.666 -21.999 180.999h-2c-8 -82.667 -16 -143 -24 -181z" />
    <glyph glyph-name="X" unicode="X" horiz-adv-x="556" 
d="M17 0l213 385l-207 365h98l157 -293l157 293h98l-206 -365l212 -385h-102l-159 314l-162 -314h-99z" />
    <glyph glyph-name="Y" unicode="Y" horiz-adv-x="556" 
d="M103 750l175 -376l176 376h92l-227 -459v-291h-83v291l-225 459h92z" />
    <glyph glyph-name="Z" unicode="Z" 
d="M473 0h-445v72l354 603h-345v75h431v-72l-354 -603h359v-75z" />
    <glyph glyph-name="bracketleft" unicode="[" horiz-adv-x="333" 
d="M275 -209h-175v959h175v-60h-97v-837h97v-62z" />
    <glyph glyph-name="backslash" unicode="\" horiz-adv-x="250" 
d="M223 0l-254 750h58l254 -750h-58z" />
    <glyph glyph-name="bracketright" unicode="]" horiz-adv-x="333" 
d="M233 -209h-175v62h97v837h-97v60h175v-959z" />
    <glyph glyph-name="asciicircum" unicode="^" 
d="M225 750h49l157 -417h-54l-128 338l-126 -338h-53z" />
    <glyph glyph-name="underscore" unicode="_" 
d="M500 -119h-500v58h500v-58z" />
    <glyph glyph-name="grave" unicode="`" horiz-adv-x="333" 
d="M35 765h109l89 -141h-67z" />
    <glyph glyph-name="a" unicode="a" horiz-adv-x="444" 
d="M287 165l0.000976562 135c-8 -4.66699 -49.667 -24.667 -125 -60c-32.667 -15.333 -49 -47.333 -49 -96c0 -30.667 5 -53 15 -67c12 -16.667 33 -25 63 -25c29.333 0 52.666 11.333 69.999 34s26 49 26 79zM417.001 58v-58.002c-8 -1.33301 -14 -2.66602 -18 -3.99902
c-36 -1.33301 -60.667 2.83398 -74 12.501s-22 31.834 -26 66.501h-2c-10 -25.333 -26 -46.333 -48 -63c-24 -18 -49 -27 -75 -27c-52 0 -89.667 14.667 -113 44c-20 26 -30 65.667 -30 119c0 68 26.667 113 80 135l167 70c10 8 15 29.333 15 64
c0 31.333 -6.83301 53.666 -20.5 66.999s-36.167 20 -67.5 20c-33.333 0 -56 -8.33301 -68 -25c-9.33301 -14 -13.666 -38.333 -12.999 -73h-71c-4 110 51 165 165 165c100.667 0 151 -50.333 151 -151v-319c0 -23.333 4.66699 -37.333 14 -42
c7.33301 -2 18.666 -2.33301 33.999 -1z" />
    <glyph glyph-name="b" unicode="b" 
d="M149 264c0 -62 4.66699 -107.333 14 -136c16 -50.667 48.333 -76 97 -76c46 0 76.667 30.333 92 91c8.66699 32.667 13 81 13 145c0 144 -35.333 216 -106 216c-50.667 0 -83.667 -30 -99 -90c-7.33301 -28.667 -11 -78.667 -11 -150zM147 66l-0.000976562 -66h-72v750
h79v-251h2c30 48 68.667 72 116 72c63.333 0 110 -28.667 140 -86c23.333 -44.667 35 -101.667 35 -171c0 -91.333 -8 -161 -24 -209c-26 -80 -75 -120 -147 -120c-57.333 0 -99.666 27 -126.999 81h-2z" />
    <glyph glyph-name="c" unicode="c" horiz-adv-x="444" 
d="M235 504c-50 0 -82.665 -31.6689 -97.998 -95.002c-7.33301 -30 -11 -81.667 -11 -155c0 -134.667 35.333 -202 106 -202c38 0 64.667 15.333 80 46c9.33301 18.667 15.333 50.667 18 96h75c-4 -139.333 -59.667 -209 -167 -209c-76.667 0 -130.334 29.667 -161.001 89
c-22 42.667 -33 108.334 -33 197.001c0 86.667 10.667 153.334 32 200.001c30 66.667 83.333 100 160 100c54 0 95.667 -18.667 125 -56c27.333 -34 40.666 -78.667 39.999 -134h-74c-1.33301 82 -32 123 -92 123z" />
    <glyph glyph-name="d" unicode="d" 
d="M345 218l-0.000976562 69c0 61.333 -4.66699 107 -14 137c-16.667 53.333 -48 80 -94 80c-72.667 0 -109 -74.333 -109 -223c0 -74.667 5.33301 -127.667 16 -159c16 -46.667 48 -70 96 -70c36.667 0 64.334 19.667 83.001 59c14.667 30 22 65.667 22 107zM344.999 499
v251h79v-750h-76v73h-2c-16 -31.333 -34 -53.833 -54 -67.5s-47 -20.5 -81 -20.5c-74 0 -122.667 43 -146 129c-8 30 -13.667 85 -17 165c-2.66699 72.667 6.66602 135 27.999 187c28 70 74.333 105 139 105c48.667 0 91.334 -24 128.001 -72h2z" />
    <glyph glyph-name="e" unicode="e" horiz-adv-x="444" 
d="M125 336h188c-2.66699 55.333 -6.66699 91.333 -12 108c-12.667 40 -39 60 -79 60c-40.667 0 -68 -19.667 -82 -59c-7.33301 -20 -12.333 -56.333 -15 -109zM317 185h74.002c2.66699 -58 -10 -105 -38 -141c-30 -39.333 -73.333 -59 -130 -59c-120 0 -180 98 -180 294
c0 75.333 11 138.333 33 189c30.667 68.667 79 103 145 103c78.667 0 129.667 -33.667 153 -101c10.667 -30.667 17.667 -97 21 -199h-270c2 -75.333 5 -121.333 9 -138c13.333 -54 43.666 -81 90.999 -81c34.667 0 60 14.333 76 43c13.333 24 18.666 54 15.999 90z" />
    <glyph glyph-name="f" unicode="f" horiz-adv-x="278" 
d="M93 0v488.999h-81v67h80v47c0 52.667 6.66699 88.334 20 107.001c20 28 55.667 42 107 42c12 0 25.333 -0.666992 40 -2v-67c-12.667 1.33301 -23 2 -31 2c-22.667 0 -38 -6.33301 -46 -19c-6.66699 -9.33301 -10 -26.333 -10 -51v-59h87v-67h-87v-489h-79z" />
    <glyph glyph-name="g" unicode="g" 
d="M236 504c-72.667 0 -109 -75.333 -109 -226s33.667 -226 101 -226c52 0 87 28.667 105 86c9.33301 30 14 80.667 14 152c0 142.667 -37 214 -111 214zM347 493v63.001h79v-489c0 -170.667 -65 -256 -195 -256c-100 0 -155.333 45.333 -166 136h77
c6.66699 -46 35.667 -69 87 -69c54.667 0 90 23.667 106 71c6 18 9.33301 56.667 10 116h-2c-30.667 -53.333 -70.667 -80 -120 -80c-118.667 0 -178 99 -178 297c0 75.333 11 137.666 33 186.999c29.333 68 77 102 143 102c56 0 97.333 -26 124 -78h2z" />
    <glyph glyph-name="h" unicode="h" 
d="M152 372l0.000976562 -372h-79v750h79v-255c40 50.667 86.333 76 139 76c91.333 0 137 -47.333 137 -142v-429h-79v407c0 64.667 -27.667 97 -83 97c-36.667 0 -65.334 -13.333 -86.001 -40c-18.667 -24 -28 -54.667 -28 -92z" />
    <glyph glyph-name="i" unicode="i" horiz-adv-x="222" 
d="M151 0h-79v556h79v-556zM151 650h-79v100h79v-100z" />
    <glyph glyph-name="j" unicode="j" horiz-adv-x="222" 
d="M13 -190v73.001c30 -2.66699 48.667 4.33301 56 21c4 9.33301 6 31.666 6 66.999v585h79v-578c0 -60.667 -8.33301 -102.667 -25 -126c-20 -28 -58.667 -42 -116 -42zM154 650.001h-79v100h79v-100z" />
    <glyph glyph-name="k" unicode="k" horiz-adv-x="444" 
d="M148 0h-79v750h79v-453l192 259h94l-172 -216l177 -340h-92l-139 277l-60 -79v-198z" />
    <glyph glyph-name="l" unicode="l" horiz-adv-x="222" 
d="M151 0h-79v750h79v-750z" />
    <glyph glyph-name="m" unicode="m" horiz-adv-x="778" 
d="M155 372v-371.998h-79v556h76v-71c34 57.333 78.667 86 134 86c60 0 104 -29.333 132 -88c40 58.667 89.667 88 149 88c39.333 0 73.333 -13 102 -39c22.667 -20.667 34 -64 34 -130v-402h-79v407c0 33.333 -5.66699 57.333 -17 72c-13.333 17.333 -36 25.666 -68 24.999
c-35.333 -0.666992 -63 -14.334 -83 -41.001c-18 -24 -27 -54.333 -27 -91v-372h-79v407c0 64.667 -27.667 97 -83 97c-37.333 0 -65.333 -12.5 -84 -37.5s-28 -56.5 -28 -94.5z" />
    <glyph glyph-name="n" unicode="n" 
d="M150 556l0.000976562 -61c42 50.667 89 76 141 76c91.333 0 137 -47.333 137 -142v-429h-79v407c0 64.667 -27.667 97 -83 97c-36.667 0 -65.334 -13.333 -86.001 -40c-18.667 -24 -28 -54.667 -28 -92v-372h-79v556h77z" />
    <glyph glyph-name="o" unicode="o" 
d="M449 297c0 -91.333 -11.001 -161.001 -33.001 -209.001c-31.333 -68.667 -86.666 -103 -165.999 -103c-78.667 0 -134 34.333 -166 103c-22 48.667 -33 118.334 -33 209.001c0 182.667 66.333 274 199 274s199 -91.333 199 -274zM366.999 271.999
c0 66.667 -5 115.667 -15 147c-17.333 56.667 -51.333 85 -102 85c-50 0 -84 -28.333 -102 -85c-10 -32.667 -15 -81.667 -15 -147c0 -146.667 39 -220 117 -220c49.333 0 83 26.333 101 79c10.667 32 16 79 16 141z" />
    <glyph glyph-name="p" unicode="p" 
d="M365 288c0 144 -36.333 215.999 -109 215.999c-44.667 0 -75 -27.667 -91 -83c-9.33301 -32 -14 -79.333 -14 -142c0 -65.333 4 -112.666 12 -141.999c15.333 -56.667 46.666 -85 93.999 -85c46.667 0 78.334 30 95.001 90c8.66699 33.333 13 82 13 146zM151 57.999
v-246.002h-79v744h76v-62h2c24 50.667 62.333 76.334 115 77.001c64 1.33301 112 -26.667 144 -84c25.333 -45.333 38 -102.666 38 -171.999c0 -220 -59.333 -330 -178 -330c-46 0 -85.333 24.333 -118 73z" />
    <glyph glyph-name="q" unicode="q" 
d="M137 254c4 -134.667 38.667 -202.001 104 -202.001c47.333 0 78.666 28.333 93.999 85c8 29.333 12 77 12 143c0 63.333 -4 110 -12 140c-14.667 56 -45 84 -91 84c-49.333 0 -81.666 -32 -96.999 -96c-8.66699 -35.333 -12 -86.666 -10 -153.999zM350 498.999v57h76
v-740h-79v245h-2c-34.667 -50.667 -74 -76 -118 -76c-66.667 0 -113.667 33 -141 99c-16 40.667 -26.333 102.667 -31 186c-4 75.333 6 141.333 30 198c29.333 68.667 74.333 103 135 103c56 0 98.667 -24 128 -72h2z" />
    <glyph glyph-name="r" unicode="r" horiz-adv-x="333" 
d="M157 556l0.000976562 -91h2c32 71.333 86.333 103.666 163 96.999v-78c-11.333 2 -22.333 3 -33 3c-42.667 0 -74.834 -14.167 -96.501 -42.5s-32.5 -64.166 -32.5 -107.499v-337h-79v556h76z" />
    <glyph glyph-name="s" unicode="s" horiz-adv-x="444" 
d="M380 407l-77.0029 0.000976562c2.66699 64.667 -26.666 97 -87.999 97c-58.667 0 -88 -28 -88 -84c0 -30.667 12 -54 36 -70c0.666992 -0.666992 26.334 -12 77.001 -34c60.667 -26.667 97.334 -44.667 110.001 -54c33.333 -25.333 50 -60.666 50 -105.999
c0 -54.667 -17.5 -96.834 -52.5 -126.501s-80.167 -44.5 -135.5 -44.5c-112.667 0 -169 59 -169 177h75c-3.33301 -73.333 28 -110 94 -110c70.667 0 106 31.333 106 94c0 33.333 -15.667 58.666 -47 75.999l-90 34c-48.667 18.667 -82 37 -100 55
c-24 24 -36 58.333 -36 103c0 48 15 86.167 45 114.5s69.333 42.5 118 42.5c116.667 0 174 -54.667 172 -164z" />
    <glyph glyph-name="t" unicode="t" horiz-adv-x="278" 
d="M164 707v-151h93v-67h-92v-379c0 -16 0.666992 -25.667 2 -29c4 -9.33301 15.667 -14 35 -14h53v-67h-87c-32 0 -53.667 6.66699 -65 20s-17 37 -17 71v398h-77v67h77v151h78z" />
    <glyph glyph-name="u" unicode="u" 
d="M345 0v73h-2c-28 -58.667 -72 -88 -132 -88c-89.333 0 -134 47.333 -134 142v429h79v-432c0 -48 23.667 -72 71 -72c78.667 0 118 49 118 147v357h79v-556h-79z" />
    <glyph glyph-name="v" unicode="v" horiz-adv-x="444" 
d="M178 0l-165 556h82l126 -489h2l126 489h82l-167 -556h-86z" />
    <glyph glyph-name="w" unicode="w" horiz-adv-x="667" 
d="M374 556l94 -489h2l97 489h82l-139 -556h-82l-94 489h-2l-88 -489h-82l-143 556h82l101 -489h2l88 489h82z" />
    <glyph glyph-name="x" unicode="x" horiz-adv-x="444" 
d="M179 286l-160 270h82l124 -200l123 200h82l-160 -270l166 -286h-82l-130 222l-133 -222h-82z" />
    <glyph glyph-name="y" unicode="y" horiz-adv-x="444" 
d="M182 -13l-177.001 568.999h82l125 -482h2l129 482h82l-165 -531c-11.333 -35.333 -28.333 -82.666 -51 -141.999c-27.333 -48.667 -69.666 -73 -126.999 -73c-18.667 0 -37.667 3 -57 9v70c18 -8 37.667 -12 59 -12c32 0 55 11.333 69 34z" />
    <glyph glyph-name="z" unicode="z" horiz-adv-x="389" 
d="M366 0h-342v62l258 429h-247v65h329v-65l-258 -426h260v-65z" />
    <glyph glyph-name="braceleft" unicode="{" horiz-adv-x="274" 
d="M177 190v-172.999c0 -55.333 29.667 -92 89 -110v-2c-61.333 -2 -104 6.66699 -128 26c-27.333 21.333 -41 61.666 -41 120.999v165c0 23.333 -1 39 -3 47c-8 31.333 -37 52.666 -87 63.999v2c60 6 90 40.667 90 104v186c0 52 16 87.667 48 107
c24.667 15.333 65 23 121 23v-2c-32 -8.66699 -54.833 -21.167 -68.5 -37.5s-20.5 -40.5 -20.5 -72.5v-187c0 -37.333 -7.5 -65.166 -22.5 -83.499s-40.833 -30.833 -77.5 -37.5v-2c39.333 -8.66699 66.333 -24 81 -46c12.667 -19.333 19 -50 19 -92z" />
    <glyph glyph-name="bar" unicode="|" horiz-adv-x="250" 
d="M93 0v750h64v-750h-64z" />
    <glyph glyph-name="braceright" unicode="}" horiz-adv-x="274" 
d="M97 465v173.001c0 31.333 -7 55.166 -21 71.499s-36.667 29.166 -68 38.499v2c61.333 2 104.333 -6.66699 129 -26c26.667 -21.333 40 -61.666 40 -120.999v-165c0 -23.333 1 -39 3 -47c8 -31.333 37 -52.666 87 -63.999v-2c-60 -6 -90 -40.667 -90 -104v-186
c0 -52 -16 -87.667 -48 -107c-24 -15.333 -64.333 -23 -121 -23v2c32.667 8.66699 55.667 21 69 37s20 40.333 20 73v187c0 37.333 7.5 65.166 22.5 83.499s40.833 30.833 77.5 37.5v2c-38.667 8 -65.667 23.333 -81 46c-12.667 20 -19 50.667 -19 92z" />
    <glyph glyph-name="asciitilde" unicode="~" 
d="M161 332c19.333 0 51.1689 -11.667 95.502 -35s72.833 -35 85.5 -35c29.333 0 56.333 27.667 81 83l34 -47c-32.667 -74 -71.334 -111 -116.001 -111c-16.667 0 -53.667 14.667 -111 44c-32.667 16.667 -55.667 25 -69 25c-18.667 0 -35.667 -10 -51 -30
c-8.66699 -11.333 -19.334 -31.333 -32.001 -60l-34 48c35.333 78.667 74.333 118 117 118z" />
    <glyph glyph-name="euro" horiz-adv-x="498" 
d="M522 633l-22.999 -156.001l-48 6c0 104.667 -31.333 157 -94 157c-68.667 0 -122.334 -70.333 -161.001 -211h172l-21 -48h-164c-4 -16 -9.33301 -40.333 -16 -73h147l-21 -47h-134c-4 -27.333 -6 -52 -6 -74c0 -37.333 7 -67.666 21 -90.999
c17.333 -28.667 43.333 -43 78 -43c38.667 0 72.334 22.667 101.001 68c16 25.333 33 65 51 119l55 -10l-54 -188c-51.333 -35.333 -104.333 -53 -159 -53c-74 0 -129.333 28 -166 84c-31.333 47.333 -47 110 -47 188h-74l21 47h56c2 16.667 6 41 12 73h-66l21 48h59
c27.333 74.667 63.333 135.667 108 183c55.333 58.667 117.666 88 186.999 88c62.667 0 117.667 -22.333 165 -67z" />
    <glyph glyph-name="exclamdown" unicode="&#xa1;" horiz-adv-x="333" 
d="M144 388h45l23 -337v-230h-91v230zM121 571h91v-100h-91v100z" />
    <glyph glyph-name="cent" unicode="&#xa2;" 
d="M200 -9l-29.002 -127.998h-48l32 143c-19.333 10 -35.666 23.667 -48.999 41c-32 52 -48 124.667 -48 218c0 165.333 43 259.666 129 282.999c19.333 5.33301 40.333 8 63 8c9.33301 0 18.333 -1 27 -3l26 114h50l-29 -127c44.667 -20.667 72.334 -55.667 83.001 -105
c5.33301 -24.667 8.33301 -45.667 9 -63h-78c-2.66699 49.333 -12.667 81.666 -30 96.999l-93 -413c6 -2.66699 16.667 -4 32 -4c38 0 64.333 15 79 45c8.66699 18 14.667 49 18 93h74c0.666992 -6.66699 -1 -23 -5 -49c-15.333 -104 -69 -156 -161 -156
c-18.667 0 -36 2 -52 6zM172.998 87.002l90 402.001c-4 1.33301 -10.667 2 -20 2c-46.667 0 -76.667 -32.333 -90 -97c-8.66699 -42 -13 -93.667 -13 -155c0 -70.667 11 -121.334 33 -152.001z" />
    <glyph glyph-name="sterling" unicode="&#xa3;" 
d="M125 338l-95.0029 -0.00195312v44h75c-35.333 64.667 -53 120.667 -53 168c0 46.667 11.667 86.334 35 119.001c38.667 54 98.334 81 179.001 81c57.333 0 103.833 -15.667 139.5 -47s55.834 -75.333 60.501 -132c2 -23.333 2.33301 -39.666 1 -48.999h-83
c0 28.667 -0.666992 47 -2 55c-10.667 65.333 -51.334 98 -122.001 98c-40.667 0 -71.167 -12.167 -91.5 -36.5s-30.5 -57.166 -30.5 -98.499c0 -42.667 17.333 -95.334 52 -158.001h164v-44h-145c0.666992 -2 3 -7.66699 7 -17c7.33301 -18.667 11 -37.667 11 -57
c0 -72.667 -38 -139.334 -114 -200.001l2 -2c32 20 67.667 30 107 30c14 0 27.667 -1.33301 41 -4l77 -20c10.667 -2.66699 21 -4 31 -4c26.667 0 55.334 11 86.001 33l28 -67c-22 -16.667 -41.167 -27.5 -57.5 -32.5s-38.833 -7.5 -67.5 -7.5c-12 0 -31 4 -57 12
c-36 11.333 -56 17.333 -60 18c-18 4 -37 6 -57 6c-33.333 0 -71.666 -13.667 -114.999 -41l-41 61c78 64 117 130.667 117 200c0 28.667 -7.33301 59.334 -22 92.001z" />
    <glyph glyph-name="currency" unicode="&#xa4;" 
d="M28 110l39.001 42c-28.667 46.667 -43 96 -43 148c0 56 14.333 106.333 43 151l-39 43l47 53l39 -43c39.333 32.667 85.666 49 138.999 49c45.333 0 89 -16.333 131 -49l40 43l47 -53l-38 -43c28 -47.333 42 -99.333 42 -156c0 -47.333 -14 -95 -42 -143l38 -42l-47 -53
l-40 43c-40.667 -33.333 -87 -50 -139 -50c-44 0 -87.667 16.667 -131 50l-39 -43zM253.001 481c-49.333 0 -88.332 -18.333 -116.999 -55c-26.667 -33.333 -40 -75.333 -40 -126c0 -46.667 13.333 -87.334 40 -122.001c28.667 -37.333 65.667 -56 111 -56
c47.333 0 85.666 18.667 114.999 56c27.333 34.667 41 76.334 41 125.001c0 46.667 -13 87 -39 121c-28.667 38 -65.667 57 -111 57z" />
    <glyph glyph-name="yen" unicode="&#xa5;" 
d="M205 262v29l-222 459h100l167 -376l174 376h94l-231 -459v-29h138v-44h-138v-76h138v-44h-138v-98h-82v98h-138v44h138v76h-138v44h138z" />
    <glyph glyph-name="brokenbar" unicode="&#xa6;" horiz-adv-x="250" 
d="M93 0v300h64v-300h-64zM93 750h64v-300h-64v300z" />
    <glyph glyph-name="section" unicode="&#xa7;" 
d="M195 423c-26.667 -18.667 -44.667 -33 -54 -43c-17.333 -18.667 -26 -39.334 -26 -62.001c0 -18.667 3 -33 9 -43c9.33301 -15.333 30.666 -35.333 63.999 -60l-2 -2c-3.33301 2.66699 -5.33301 4.33398 -6 5.00098h1c6.66699 0 50.334 -29.667 131.001 -89
c24.667 18.667 42 34.667 52 48c14.667 19.333 22 41 22 65s-12.667 48 -38 72c-10 10 -32.333 27 -67 51c-32 22.667 -60.667 42 -86 58zM148 458c-46.667 30 -70.0029 73.333 -70.0029 130c0 50 17.333 90 52 120c32.667 28 74.334 42 125.001 42
c54 0 95.833 -15.833 125.5 -47.5s44.167 -74.5 43.5 -128.5h-82c0 71.333 -32.333 107 -97 107c-25.333 0 -46.333 -7.66699 -63 -23s-25 -35.666 -25 -60.999c0 -24 4.66699 -41.333 14 -52c12.667 -14.667 51.667 -44 117 -88c74.667 -50 115.334 -78 122.001 -84
c37.333 -34 56 -73 56 -117c0 -60 -35.667 -115.333 -107 -166c48 -36 72 -79 72 -129c0 -56.667 -18.333 -99.667 -55 -129c-33.333 -26.667 -79 -40 -137 -40c-55.333 0 -99 17.333 -131 52s-47 79.667 -45 135h81c1.33301 -80 37 -120 107 -120
c29.333 0 53.333 7.66699 72 23s28 37.333 28 66c0 33.333 -22.333 68 -67 104c-7.33301 6 -43.666 30 -108.999 72c-46 30 -77.667 54 -95 72c-30 31.333 -45 66.666 -45 105.999c0 68 37.667 120 113 156z" />
    <glyph glyph-name="dieresis" unicode="&#xa8;" horiz-adv-x="333" 
d="M52 750h79v-100h-79v100zM281 650h-79v100h79v-100z" />
    <glyph glyph-name="copyright" unicode="&#xa9;" horiz-adv-x="800" 
d="M401 -18c-110 0 -203.001 37.999 -279.001 113.999s-114 169 -114 279c0 108.667 38.333 200.834 115 276.501s169.334 113.5 278.001 113.5s201 -37.833 277 -113.5s114 -167.834 114 -276.501c0 -109.333 -37.833 -202.166 -113.5 -278.499
s-168.167 -114.5 -277.5 -114.5zM400.999 39.999c93.333 0 172 32.333 236 97s96 144 96 238c0 92.667 -32.167 171.167 -96.5 235.5s-142.833 96.5 -235.5 96.5s-171.5 -32.167 -236.5 -96.5s-97.5 -142.833 -97.5 -235.5c0 -93.333 32.333 -172.5 97 -237.5
s143.667 -97.5 237 -97.5zM541.999 302.999l58.001 0.000976562c-4.66699 -46 -24.5 -83 -59.5 -111s-75.833 -42 -122.5 -42c-65.333 0 -118 21.667 -158 65s-60 97.666 -60 162.999c0 66 19.5 120 58.5 162s91.167 63 156.5 63c48 0 88.833 -13.167 122.5 -39.5
s54.5 -62.833 62.5 -109.5h-58c-5.33301 30.667 -19.833 55.167 -43.5 73.5s-51.167 27.5 -82.5 27.5c-49.333 0 -88.333 -17.333 -117 -52c-26.667 -32 -40 -73.333 -40 -124c0 -50 13.667 -92 41 -126c30 -36.667 69.333 -55 118 -55c32.667 0 60.667 9.5 84 28.5
s36.666 44.5 39.999 76.5z" />
    <glyph glyph-name="ordfeminine" unicode="&#xaa;" horiz-adv-x="300" 
d="M276 305h-251v40h251v-40zM276 457l-0.000976562 -35.002c-5.33301 0 -9.33301 -0.666992 -12 -2c-23.333 -1.33301 -39 0.333984 -47 5.00098c-10 6 -16 20 -18 42h-2c-5.33301 -15.333 -15.666 -28.166 -30.999 -38.499s-31.333 -15.5 -48 -15.5
c-62 0 -93 32.667 -93 98c0 40.667 17.333 67.667 52 81l109 42c6 4.66699 9 17.334 9 38.001c0 34.667 -19 52 -57 52c-21.333 0 -35.5 -4.16699 -42.5 -12.5s-10.5 -23.5 -10.5 -45.5h-46c-2 66 34 99 108 99c65.333 0 98 -30.333 98 -91v-191
c0 -14.667 3 -23.334 9 -26.001c3.33301 -0.666992 7 -1 11 -1c3.33301 0 7 0.333008 11 1zM190.999 520.998v81c-9.33301 -5.33301 -36.333 -17.333 -81 -36c-20.667 -8.66699 -31 -28 -31 -58c0 -36.667 16.667 -55 50 -55c18.667 0 33.667 6.5 45 19.5s17 29.167 17 48.5
z" />
    <glyph glyph-name="guillemotleft" unicode="&#xab;" 
d="M85 342l151 153v-83l-100 -102l100 -102v-83l-151 156v61zM264 342l151 153v-83l-100 -102l100 -102v-83l-151 156v61z" />
    <glyph glyph-name="logicalnot" unicode="&#xac;" 
d="M387 117v197h-343v70h413v-267h-70z" />
    <glyph glyph-name="sfthyphen" unicode="&#xad;" horiz-adv-x="338" 
d="M8 174l33 122h246l-33 -122h-246z" />
    <glyph glyph-name="registered" unicode="&#xae;" horiz-adv-x="800" 
d="M401 765c108.667 0 201.001 -37.834 277.001 -113.501s114 -167.834 114 -276.501c0 -109.333 -37.833 -202.166 -113.5 -278.499s-168.167 -114.5 -277.5 -114.5c-110 0 -203 38 -279 114s-114 169 -114 279c0 108.667 38.167 200.834 114.5 276.501
s169.166 113.5 278.499 113.5zM401.001 706.999c-92.667 0 -171.5 -32.333 -236.5 -97s-97.5 -143.334 -97.5 -236.001c0 -93.333 32.333 -172.333 97 -237s143.667 -97 237 -97s172 32.333 236 97s96 143.667 96 237c0 92.667 -32.167 171.334 -96.5 236.001
s-142.833 97 -235.5 97zM465.001 356.999l131 -202h-65l-124 202h-97v-202h-56v440h193c48.667 0 84 -8 106 -24c34 -18.667 50.667 -50 50 -94c-0.666992 -78.667 -46.667 -118.667 -138 -120zM310.001 398.999h80.999c50.667 0 84.334 2.33301 101.001 7
c36.667 10 55 34.333 55 73c0 49.333 -37.667 74 -113 74h-124v-154z" />
    <glyph glyph-name="macron" unicode="&#xaf;" horiz-adv-x="333" 
d="M323 657h-313v58h313v-58z" />
    <glyph glyph-name="macron" unicode="&#x2c9;" horiz-adv-x="333" 
d="M323 657h-313v58h313v-58z" />
    <glyph glyph-name="degree" unicode="&#xb0;" horiz-adv-x="400" 
d="M350 600c0 -41.333 -14.667 -76.666 -44 -105.999s-64.666 -44 -105.999 -44s-76.666 14.667 -105.999 44s-44 64.666 -44 105.999s14.667 76.666 44 105.999s64.666 44 105.999 44s76.666 -14.667 105.999 -44s44 -64.666 44 -105.999zM288 600
c0 24.667 -8.66699 45.5 -26 62.5s-38.333 25.5 -63 25.5c-24 0 -44.5 -8.66699 -61.5 -26s-25.5 -38 -25.5 -62c0 -24.667 8.5 -45.5 25.5 -62.5s37.833 -25.5 62.5 -25.5s45.5 8.5 62.5 25.5s25.5 37.833 25.5 62.5z" />
    <glyph glyph-name="plusminus" unicode="&#xb1;" 
d="M215 349v156h70v-156h172v-70h-172v-159h-70v159h-171v70h171zM44 0v70h413v-70h-413z" />
    <glyph glyph-name="twosuperior" unicode="&#xb2;" horiz-adv-x="300" 
d="M198 484l-87.999 -73.999c-19.333 -20 -29.333 -39.333 -30 -58h201v-52h-262c2.66699 70.667 21.334 121.334 56.001 152.001l90 80c30.667 27.333 46 58.666 46 93.999c0 48 -21.333 72 -64 72s-63.334 -33.667 -62.001 -101h-62v28c0 35.333 10.333 65.333 31 90
c25.333 23.333 57.666 35 96.999 35s70 -11 92 -33s33 -52.667 33 -92c0 -30.667 -7 -57.334 -21 -80.001c-10.667 -18 -29.667 -38.333 -57 -61z" />
    <glyph glyph-name="threesuperior" unicode="&#xb3;" horiz-adv-x="300" 
d="M115 504l0.000976562 56.001c37.333 2 57.666 3.66699 60.999 5c20 7.33301 30 29 30 65c0 45.333 -20 68 -60 68c-41.333 0 -62 -27 -62 -81h-58c-1.33301 41.333 8.5 73.833 29.5 97.5s52.167 35.5 93.5 35.5c35.333 0 64.333 -10 87 -30s34 -47.333 34 -82
c0 -52.667 -22.667 -86.334 -68 -101.001c54 -11.333 81 -46 81 -104c0 -94.667 -45.667 -142 -137 -142c-88 0 -131 47 -129 141h59c-6 -60 18.667 -90 74 -90c46.667 0 70 25.333 70 76c0 36.667 -8.66699 60.667 -26 72c-14 10 -40.333 14.667 -79 14z" />
    <glyph glyph-name="acute" unicode="&#xb4;" horiz-adv-x="333" 
d="M100 624l89 141h109l-131 -141h-67z" />
    <glyph glyph-name="mu" unicode="&#xb5;" 
d="M343 0l0.000976562 73h-2c-28 -58.667 -72 -88 -132 -88c-8.66699 0 -18.334 2.33301 -29.001 7l-26 11v-192h-79v745h79v-432c0 -48 23.667 -72 71 -72c78.667 0 118 49 118 147v357h79v-556h-79z" />
    <glyph glyph-name="mu" unicode="&#x3bc;" 
d="M343 0l0.000976562 73h-2c-28 -58.667 -72 -88 -132 -88c-8.66699 0 -18.334 2.33301 -29.001 7l-26 11v-192h-79v745h79v-432c0 -48 23.667 -72 71 -72c78.667 0 118 49 118 147v357h79v-556h-79z" />
    <glyph glyph-name="paragraph" unicode="&#xb6;" horiz-adv-x="440" 
d="M157 -116l-0.000976562 481.999c-45.333 -0.666992 -83.666 20 -114.999 62c-28 38.667 -42 81.334 -42 128.001c-0 59.333 17.333 108 52 146c29.333 32 73 48 131 48h208v-866h-79v799h-76v-799h-79z" />
    <glyph glyph-name="ch270" unicode="&#xb7;" horiz-adv-x="249" 
d="M38 348c0 22.667 7.66699 41.667 23 57s34.333 23 57 23s41.834 -7.66699 57.501 -23s23.5 -34.333 23.5 -57s-7.83301 -41.834 -23.5 -57.501s-34.834 -23.5 -57.501 -23.5s-41.667 7.83301 -57 23.5s-23 34.834 -23 57.501z" />
    <glyph glyph-name="ch270" unicode="&#x2219;" horiz-adv-x="249" 
d="M38 348c0 22.667 7.66699 41.667 23 57s34.333 23 57 23s41.834 -7.66699 57.501 -23s23.5 -34.333 23.5 -57s-7.83301 -41.834 -23.5 -57.501s-34.834 -23.5 -57.501 -23.5s-41.667 7.83301 -57 23.5s-23 34.834 -23 57.501z" />
    <glyph glyph-name="cedilla" unicode="&#xb8;" horiz-adv-x="333" 
d="M118 -105l-17.001 19l63 86h48l-46 -62c7.33301 2 15.666 3 24.999 3c24.667 0 45.834 -6.33301 63.501 -19s26.5 -30.667 26.5 -54c0 -33.333 -14.333 -58 -43 -74c-24 -13.333 -53.667 -19.333 -89 -18c-32 4.66699 -59.667 11.667 -83 21l17 40
c27.333 -10 49 -15 65 -15c22.667 0 40.334 7.66699 53.001 23c3.33301 3.33301 5 8.33301 5 15c0 18.667 -9.33301 31.667 -28 39c-14 5.33301 -34 4 -60 -4z" />
    <glyph glyph-name="onesuperior" unicode="&#xb9;" horiz-adv-x="300" 
d="M171 624l-104 -0.000976562v43c36.667 0.666992 62.667 5.33398 78 14.001c21.333 12 34 35 38 69h50v-450h-62v324z" />
    <glyph glyph-name="ordmasculine" unicode="&#xba;" horiz-adv-x="300" 
d="M279 600c0 -124.667 -41.334 -187 -124.001 -187c-61.333 0 -101.333 26.667 -120 80c-10 28.667 -15 64.334 -15 107.001c0 71.333 19.333 119.666 58 144.999c20.667 13.333 44.667 20 72 20c60.667 0 99.334 -25.667 116.001 -77c8.66699 -26.667 13 -56 13 -88z
M73.999 585c0 -88 25.334 -132 76.001 -132c50 0 75 44 75 132c0 41.333 -3.33301 71.333 -10 90c-10.667 33.333 -32.334 50 -65.001 50c-50.667 0 -76 -46.667 -76 -140zM279 305h-259v40h259v-40z" />
    <glyph glyph-name="guillemotright" unicode="&#xbb;" 
d="M415 278l-151 -153v83l100 102l-100 102v83l151 -156v-61zM236 278l-151 -153v83l100 102l-100 102v83l151 -156v-61z" />
    <glyph glyph-name="onequarter" unicode="&#xbc;" horiz-adv-x="750" 
d="M618 372l-135 -215h135v215zM441 161l179 289h58v-293h38v-50h-38v-107h-60v107h-177v54zM143 0l452 750h63l-452 -750h-63zM138 624l-104 -0.000976562v43c36.667 0.666992 62.667 5.33398 78 14.001c21.333 12 34 35 38 69h50v-450h-62v324z" />
    <glyph glyph-name="onehalf" unicode="&#xbd;" horiz-adv-x="750" 
d="M91 0l452 750h63l-452 -750h-63zM146 624l-104 -0.000976562v43c36.667 0.666992 62.667 5.33398 78 14.001c21.333 12 34 35 38 69h50v-450h-62v324zM626 183.999l-87.999 -73.999c-19.333 -20 -29.333 -39.333 -30 -58h201v-52h-262
c2.66699 70.667 21.334 121.334 56.001 152.001l90 80c30.667 27.333 46 58.666 46 93.999c0 48 -21.333 72 -64 72s-63.334 -33.667 -62.001 -101h-62v28c0 35.333 10.333 65.333 31 90c25.333 23.333 57.666 35 96.999 35s70 -11 92 -33s33 -52.667 33 -92
c0 -30.667 -7 -57.334 -21 -80.001c-10.667 -18 -29.667 -38.333 -57 -61z" />
    <glyph glyph-name="threequarters" unicode="&#xbe;" horiz-adv-x="750" 
d="M632 372l-135 -215h135v215zM455 161l179 289h58v-293h38v-50h-38v-107h-60v107h-177v54zM157 0l452 750h63l-452 -750h-63zM119 504l0.000976562 56.001c37.333 2 57.666 3.66699 60.999 5c20 7.33301 30 29 30 65c0 45.333 -20 68 -60 68c-41.333 0 -62 -27 -62 -81
h-58c-1.33301 41.333 8.5 73.833 29.5 97.5s52.167 35.5 93.5 35.5c35.333 0 64.333 -10 87 -30s34 -47.333 34 -82c0 -52.667 -22.667 -86.334 -68 -101.001c54 -11.333 81 -46 81 -104c0 -94.667 -45.667 -142 -137 -142c-88 0 -131 47 -129 141h59
c-6 -60 18.667 -90 74 -90c46.667 0 70 25.333 70 76c0 36.667 -8.66699 60.667 -26 72c-14 10 -40.333 14.667 -79 14z" />
    <glyph glyph-name="questiondown" unicode="&#xbf;" 
d="M353 46h87c2.66699 -68.667 -12 -124 -44 -166c-35.333 -46.667 -86.666 -70 -153.999 -70c-60 0 -109 16.5 -147 49.5s-57 79.167 -57 138.5c0 48.667 16.667 97.667 50 147l99 125c14 18 22.333 36 25 54c0.666992 4.66699 1 25.667 1 63h89
c0 -52 -4.5 -89.667 -13.5 -113s-30.833 -54 -65.5 -92c-30.667 -33.333 -52.334 -60.333 -65.001 -81c-19.333 -31.333 -29 -63.666 -29 -96.999c0 -34.667 8 -63.334 24 -86.001c18 -25.333 43.667 -38 77 -38c83.333 0 124.333 55.333 123 166zM211 559h91v-100h-91v100z
" />
    <glyph glyph-name="Agrave" unicode="&#xc0;" horiz-adv-x="556" 
d="M11 0l214 750h110l211 -750h-92l-59 216h-237l-55 -216h-92zM376 291l-97 399h-2l-99 -399h198zM132 931h98l80 -127h-60z" />
    <glyph glyph-name="Aacute" unicode="&#xc1;" horiz-adv-x="556" 
d="M11 0l214 750h110l211 -750h-92l-59 216h-237l-55 -216h-92zM376 291l-97 399h-2l-99 -399h198zM250 804l80 127h98l-118 -127h-60z" />
    <glyph glyph-name="Acircumflex" unicode="&#xc2;" horiz-adv-x="556" 
d="M11 0l214 750h110l211 -750h-92l-59 216h-237l-55 -216h-92zM376 291l-97 399h-2l-99 -399h198zM333 778l-53 75l-53 -75h-64l79 112h75l80 -112h-64z" />
    <glyph glyph-name="Atilde" unicode="&#xc3;" horiz-adv-x="556" 
d="M11 0l214 750h110l211 -750h-92l-59 216h-237l-55 -216h-92zM376 291l-97 399h-2l-99 -399h198zM378 896h37.999c-2 -24.667 -10.167 -45.334 -24.5 -62.001s-33.5 -25 -57.5 -25c-9.33301 0 -28 5 -56 15c-34 12 -53.667 18 -59 18
c-8.66699 0 -16.667 -4.16699 -24 -12.5s-11.666 -16.833 -12.999 -25.5h-38c2 24.667 10.167 45.334 24.5 62.001s33.5 25 57.5 25c8.66699 0 27.334 -5 56.001 -15c34 -12 53.667 -18 59 -18c8.66699 0 16.667 4.16699 24 12.5s11.666 16.833 12.999 25.5z" />
    <glyph glyph-name="Adieresis" unicode="&#xc4;" horiz-adv-x="556" 
d="M11 0l214 750h110l211 -750h-92l-59 216h-237l-55 -216h-92zM376 291l-97 399h-2l-99 -399h198zM164 944h79v-100h-79v100zM393 844h-79v100h79v-100z" />
    <glyph glyph-name="Aring" unicode="&#xc5;" horiz-adv-x="556" 
d="M11 0l214 750h110l211 -750h-92l-59 216h-237l-55 -216h-92zM376 291l-97 399h-2l-99 -399h198zM278 787c-28 0 -51.999 10 -71.999 30s-30 44 -30 72c0 27.333 10.167 51 30.5 71s44.166 30 71.499 30c28 0 52 -9.83301 72 -29.5s30 -43.5 30 -71.5s-10 -52 -30 -72
s-44 -30 -72 -30zM278.001 950c-16 0 -30.333 -6.16699 -43 -18.5s-19 -26.5 -19 -42.5c0 -16.667 6.16699 -31.167 18.5 -43.5s26.833 -18.5 43.5 -18.5s31.167 6.16699 43.5 18.5s18.5 26.833 18.5 43.5c0 16 -6.33301 30.167 -19 42.5s-27 18.5 -43 18.5z" />
    <glyph glyph-name="AE" unicode="&#xc6;" horiz-adv-x="833" 
d="M229 290h197v385h-14zM427 0v215h-233l-100 -215h-94l366 750h419v-75h-276v-248h257v-75h-257v-277h273v-75h-355z" />
    <glyph glyph-name="Ccedilla" unicode="&#xc7;" horiz-adv-x="556" 
d="M503 525l-83.001 0.00195312c-2.66699 110 -47.667 165 -135 165c-62 0 -104 -38.333 -126 -115c-11.333 -40 -18 -103 -20 -189c-2 -88 3 -155.667 15 -203c21.333 -84 65 -126 131 -126c44 0 76.667 17 98 51c15.333 24.667 26 62 32 112c1.33301 11.333 3 28.333 5 51
h83c-0.666992 -10 -2 -25.333 -4 -46c-4.66699 -44.667 -8 -72.334 -10 -83.001c-6 -26.667 -17.333 -52 -34 -76c-39.333 -56 -93.666 -84 -162.999 -84c-102 0 -170.667 44.667 -206 134c-22 55.333 -33 144.666 -33 267.999c0 111.333 13 196 39 254
c38 84.667 104.333 127 199 127c69.333 0 123 -23.333 161 -70c36 -43.333 53 -100 51 -170zM229.999 -104.998l-17.001 19l63 86h48l-46 -62c7.33301 2 15.666 3 24.999 3c24.667 0 45.834 -6.33301 63.501 -19s26.5 -30.667 26.5 -54c0 -33.333 -14.333 -58 -43 -74
c-24 -13.333 -53.667 -19.333 -89 -18c-32 4.66699 -59.667 11.667 -83 21l17 40c27.333 -10 49 -15 65 -15c22.667 0 40.334 7.66699 53.001 23c3.33301 3.33301 5 8.33301 5 15c0 18.667 -9.33301 31.667 -28 39c-14 5.33301 -34 4 -60 -4z" />
    <glyph glyph-name="Egrave" unicode="&#xc8;" 
d="M451 0h-377v750h375v-75h-292v-248h274v-75h-274v-277h294v-75zM114 931h98l80 -127h-60z" />
    <glyph glyph-name="Eacute" unicode="&#xc9;" 
d="M451 0h-377v750h375v-75h-292v-248h274v-75h-274v-277h294v-75zM231 804l80 127h98l-118 -127h-60z" />
    <glyph glyph-name="Ecircumflex" unicode="&#xca;" 
d="M451 0h-377v750h375v-75h-292v-248h274v-75h-274v-277h294v-75zM314 786l-53 75l-53 -75h-64l79 112h75l80 -112h-64z" />
    <glyph glyph-name="Edieresis" unicode="&#xcb;" 
d="M451 0h-377v750h375v-75h-292v-248h274v-75h-274v-277h294v-75zM136 944h79v-100h-79v100zM365 844h-79v100h79v-100z" />
    <glyph glyph-name="Igrave" unicode="&#xcc;" horiz-adv-x="278" 
d="M181 0h-83v750h83v-750zM-12 931h98l80 -127h-60z" />
    <glyph glyph-name="Iacute" unicode="&#xcd;" horiz-adv-x="278" 
d="M181 0h-83v750h83v-750zM108 804l80 127h98l-118 -127h-60z" />
    <glyph glyph-name="Icircumflex" unicode="&#xce;" horiz-adv-x="278" 
d="M181 0h-83v750h83v-750zM206 818l-66 94l-66 -94h-80l99 141h93l100 -141h-80z" />
    <glyph glyph-name="Idieresis" unicode="&#xcf;" horiz-adv-x="278" 
d="M181 0h-83v750h83v-750zM25 944h79v-100h-79v100zM254 844h-79v100h79v-100z" />
    <glyph glyph-name="Eth" unicode="&#xd0;" horiz-adv-x="611" 
d="M82 423l-0.000976562 327h206c105.333 0 178.333 -39 219 -117c31.333 -59.333 45 -145.333 41 -258c-4 -108.667 -19.333 -191.667 -46 -249c-39.333 -84 -105.666 -126 -198.999 -126h-221v344h-88v79h88zM164.999 675l-0.00195312 -252h105v-79h-105v-269h133
c73.333 0 122.333 37.333 147 112c14.667 45.333 20.334 113 17.001 203c-3.33301 97.333 -14.666 166.333 -33.999 207c-24.667 52 -68 78 -130 78h-133z" />
    <glyph glyph-name="Ntilde" unicode="&#xd1;" horiz-adv-x="611" 
d="M451 138v611.999h83v-750h-136l-210 600c-12.667 36.667 -22 74.334 -28 113.001h-2c1.33301 -50.667 2 -89 2 -115v-598h-83v750h135l213 -614c11.333 -32 20 -59.333 26 -82h2c-1.33301 36 -2 64 -2 84zM428 942.999h48
c-2.66699 -31.333 -12.334 -56.666 -29.001 -75.999c-18.667 -22 -43 -33 -73 -33c-14 0 -37.667 6 -71 18c-37.333 13.333 -61.666 20 -72.999 20s-21.5 -4.66699 -30.5 -14s-14.167 -19.666 -15.5 -30.999h-48c2.66699 31.333 12.334 56.666 29.001 75.999
c18.667 22 43 33 73 33c14 0 37.667 -6 71 -18c37.333 -13.333 61.666 -20 72.999 -20s21.5 4.66699 30.5 14s14.167 19.666 15.5 30.999z" />
    <glyph glyph-name="Ograve" unicode="&#xd2;" horiz-adv-x="611" 
d="M59 391c-0.666992 110 13.002 194.333 41.002 253c39.333 80.667 108.666 121 207.999 121c98 0 166.333 -40.667 205 -122c27.333 -58 40.666 -142 39.999 -252c-0.666992 -127.333 -14.667 -221.333 -42 -282c-38 -84.667 -106.333 -127 -205 -127
s-167 42.333 -205 127c-27.333 60.667 -41.333 154.667 -42 282zM467.002 389c1.33301 200.667 -53.002 301 -163.002 301c-107.333 0 -160.333 -100.333 -159 -301c0.666992 -119.333 10.334 -201.666 29.001 -246.999c23.333 -56.667 67.333 -85 132 -85
s108.667 28.333 132 85c18.667 45.333 28.334 127.666 29.001 246.999zM159 946h98l80 -127h-60z" />
    <glyph glyph-name="Oacute" unicode="&#xd3;" horiz-adv-x="611" 
d="M59 391c-0.666992 110 13.002 194.333 41.002 253c39.333 80.667 108.666 121 207.999 121c98 0 166.333 -40.667 205 -122c27.333 -58 40.666 -142 39.999 -252c-0.666992 -127.333 -14.667 -221.333 -42 -282c-38 -84.667 -106.333 -127 -205 -127
s-167 42.333 -205 127c-27.333 60.667 -41.333 154.667 -42 282zM467.002 389c1.33301 200.667 -53.002 301 -163.002 301c-107.333 0 -160.333 -100.333 -159 -301c0.666992 -119.333 10.334 -201.666 29.001 -246.999c23.333 -56.667 67.333 -85 132 -85
s108.667 28.333 132 85c18.667 45.333 28.334 127.666 29.001 246.999zM278 819l80 127h98l-118 -127h-60z" />
    <glyph glyph-name="Ocircumflex" unicode="&#xd4;" horiz-adv-x="611" 
d="M59 391c-0.666992 110 13.002 194.333 41.002 253c39.333 80.667 108.666 121 207.999 121c98 0 166.333 -40.667 205 -122c27.333 -58 40.666 -142 39.999 -252c-0.666992 -127.333 -14.667 -221.333 -42 -282c-38 -84.667 -106.333 -127 -205 -127
s-167 42.333 -205 127c-27.333 60.667 -41.333 154.667 -42 282zM467.002 389c1.33301 200.667 -53.002 301 -163.002 301c-107.333 0 -160.333 -100.333 -159 -301c0.666992 -119.333 10.334 -201.666 29.001 -246.999c23.333 -56.667 67.333 -85 132 -85
s108.667 28.333 132 85c18.667 45.333 28.334 127.666 29.001 246.999zM361 778l-53 75l-53 -75h-64l79 112h75l80 -112h-64z" />
    <glyph glyph-name="Otilde" unicode="&#xd5;" horiz-adv-x="611" 
d="M59 391c-0.666992 110 13.002 194.333 41.002 253c39.333 80.667 108.666 121 207.999 121c98 0 166.333 -40.667 205 -122c27.333 -58 40.666 -142 39.999 -252c-0.666992 -127.333 -14.667 -221.333 -42 -282c-38 -84.667 -106.333 -127 -205 -127
s-167 42.333 -205 127c-27.333 60.667 -41.333 154.667 -42 282zM467.002 389c1.33301 200.667 -53.002 301 -163.002 301c-107.333 0 -160.333 -100.333 -159 -301c0.666992 -119.333 10.334 -201.666 29.001 -246.999c23.333 -56.667 67.333 -85 132 -85
s108.667 28.333 132 85c18.667 45.333 28.334 127.666 29.001 246.999zM406 915h37.999c-2 -24.667 -10.167 -45.334 -24.5 -62.001s-33.5 -25 -57.5 -25c-9.33301 0 -28 5 -56 15c-34 12 -53.667 18 -59 18c-8.66699 0 -16.667 -4.16699 -24 -12.5
s-11.666 -16.833 -12.999 -25.5h-38c2 24.667 10.167 45.334 24.5 62.001s33.5 25 57.5 25c8.66699 0 27.334 -5 56.001 -15c34 -12 53.667 -18 59 -18c8.66699 0 16.667 4.16699 24 12.5s11.666 16.833 12.999 25.5z" />
    <glyph glyph-name="Odieresis" unicode="&#xd6;" horiz-adv-x="611" 
d="M59 391c-0.666992 109.333 13.001 193.333 41.001 252c38.667 81.333 108 122 208 122c98 0 166.333 -40.667 205 -122c27.333 -58 40.666 -142 39.999 -252c-0.666992 -127.333 -14.667 -221.333 -42 -282c-38 -84.667 -106.333 -127 -205 -127s-167 42.333 -205 127
c-27.333 60.667 -41.333 154.667 -42 282zM467.001 389c1.33301 200.667 -53.002 301 -163.002 301c-107.333 0 -160.333 -100.333 -159 -301c0.666992 -119.333 10.334 -201.666 29.001 -246.999c23.333 -56.667 67.333 -85 132 -85s108.667 28.333 132 85
c18.667 45.333 28.334 127.666 29.001 246.999zM190.999 944h79v-100h-79v100zM419.999 844h-79v100h79v-100z" />
    <glyph glyph-name="multiply" unicode="&#xd7;" 
d="M201 254l-157 157l50 49l156 -157l158 158l49 -50l-157 -157l157 -157l-50 -49l-157 157l-158 -157l-48 49z" />
    <glyph glyph-name="Oslash" unicode="&#xd8;" horiz-adv-x="611" 
d="M162 195l266.999 429.001c-23.333 40.667 -64.333 62.667 -123 66c-66 4 -112 -31.333 -138 -106c-16 -47.333 -23.667 -111.333 -23 -192c0.666992 -82.667 6.33398 -148.334 17.001 -197.001zM448.999 574.001l-270 -435.001c24 -54.667 67 -82 129 -82
c64.667 0 108.667 28.667 132 86c19.333 48 29 131 29 249c0 76.667 -6.66699 137.334 -20 182.001zM129.999 61l-63.999 -104l-37 24l76 122c-30.667 62 -46 159 -46 291c0 110.667 13.333 194 40 250c38.667 80.667 108 121 208 121c74.667 0 131 -21.667 169 -65l60 96
l37 -22l-70 -112c35.333 -62.667 52.666 -152 51.999 -268c-0.666992 -127.333 -15 -222 -43 -284c-38.667 -85.333 -107.667 -128 -207 -128c-76 0 -134.333 26.333 -175 79z" />
    <glyph glyph-name="Ugrave" unicode="&#xd9;" horiz-adv-x="611" 
d="M81 181l0.00195312 569h83v-539c0 -102.667 47.333 -154 142 -154s142 51.333 142 154v539h83v-569c0 -67.333 -21.333 -118 -64 -152c-38.667 -31.333 -92.334 -47 -161.001 -47s-122.334 15.667 -161.001 47c-42.667 34 -64 84.667 -64 152zM159.002 916h98l80 -127
h-60z" />
    <glyph glyph-name="Uacute" unicode="&#xda;" horiz-adv-x="611" 
d="M81 181l0.00195312 569h83v-539c0 -102.667 47.333 -154 142 -154s142 51.333 142 154v539h83v-569c0 -67.333 -21.333 -118 -64 -152c-38.667 -31.333 -92.334 -47 -161.001 -47s-122.334 15.667 -161.001 47c-42.667 34 -64 84.667 -64 152zM278.002 789l80 127h98
l-118 -127h-60z" />
    <glyph glyph-name="Ucircumflex" unicode="&#xdb;" horiz-adv-x="611" 
d="M81 181l0.000976562 569h83v-539c0 -102.667 47.333 -154 142 -154s142 51.333 142 154v539h83v-569c0 -66.667 -21.333 -117.334 -64 -152.001c-38.667 -31.333 -92.334 -47 -161.001 -47c-68 0 -121.667 15.667 -161 47c-42.667 34.667 -64 85.334 -64 152.001z
M372.001 818l-66 94l-66 -94h-80l99 141h93l100 -141h-80z" />
    <glyph glyph-name="Udieresis" unicode="&#xdc;" horiz-adv-x="611" 
d="M81 181l0.000976562 569h83v-539c0 -102.667 47.333 -154 142 -154s142 51.333 142 154v539h83v-569c0 -66.667 -21.333 -117.334 -64 -152.001c-38.667 -31.333 -92.334 -47 -161.001 -47c-68 0 -121.667 15.667 -161 47c-42.667 34.667 -64 85.334 -64 152.001z
M191.001 944h79v-100h-79v100zM420.001 844h-79v100h79v-100z" />
    <glyph glyph-name="Yacute" unicode="&#xdd;" horiz-adv-x="556" 
d="M103 750l175 -376l176 376h92l-227 -459v-291h-83v291l-225 459h92zM248 789l80 127h98l-118 -127h-60z" />
    <glyph glyph-name="Thorn" unicode="&#xde;" horiz-adv-x="556" 
d="M169 516v-281.999h81c63.333 0 108 8.33301 134 25c32.667 21.333 49 61.666 49 120.999c0 55.333 -17 93 -51 113c-26 15.333 -68.333 23 -127 23h-86zM169 0.000976562h-83v750h83v-159h114c157.333 0 236 -69.667 236 -209c0 -102.667 -35.333 -169.667 -106 -201
c-33.333 -14.667 -98 -22 -194 -22h-50v-159z" />
    <glyph glyph-name="germandbls" unicode="&#xdf;" 
d="M231 393l-0.000976562 67c74.667 0 112 37.667 112 113c0 83.333 -34.333 125 -103 125c-31.333 0 -56.666 -15.333 -75.999 -46c-9.33301 -20 -14 -52.667 -14 -98v-554h-79v538c0 151.333 59.333 227 178 227c53.333 0 95 -17.333 125 -52s45 -79 45 -133
c0 -74 -26.333 -123.333 -79 -148c70 -28 105 -96.333 105 -205c0 -156 -52 -233.333 -156 -232c-32 0.666992 -55 5.66699 -69 15v78c21.333 -18.667 44.333 -28 69 -28c49.333 0 74 51 74 153c0 80 -10.667 131.333 -32 154c-11.333 12 -27 19.667 -47 23
c-8 1.33301 -25.667 2.33301 -53 3z" />
    <glyph glyph-name="agrave" unicode="&#xe0;" horiz-adv-x="444" 
d="M287 165l0.000976562 135c-8 -4.66699 -49.667 -24.667 -125 -60c-32.667 -15.333 -49 -47.333 -49 -96c0 -30.667 5 -53 15 -67c12 -16.667 33 -25 63 -25c29.333 0 52.666 11.333 69.999 34s26 49 26 79zM417.001 58l0.000976562 -58.001
c-8 -1.33301 -14 -2.66602 -18 -3.99902c-36 -1.33301 -60.667 3 -74 13s-22 32 -26 66h-2c-10 -25.333 -26.333 -46.666 -49 -63.999s-47.334 -26 -74.001 -26c-52 0 -89.667 14.667 -113 44c-20 26 -30 65.667 -30 119c0 68 26.667 113 80 135l167 70
c10 8 15 29.333 15 64c0 31.333 -6.83301 53.666 -20.5 66.999s-36.167 20 -67.5 20c-33.333 0 -56 -8.33301 -68 -25c-9.33301 -14 -13.666 -38.333 -12.999 -73h-71c-4 110 51 165 165 165c100.667 0 151 -50.333 151 -151v-319c0 -23.333 4.66699 -37.333 14 -42
c7.33301 -2 18.666 -2.33301 33.999 -1zM84.002 741.999h89l72 -114h-54z" />
    <glyph glyph-name="aacute" unicode="&#xe1;" horiz-adv-x="444" 
d="M287 165l0.000976562 135c-8 -4.66699 -49.667 -24.667 -125 -60c-32.667 -15.333 -49 -47.333 -49 -96c0 -30.667 5 -53 15 -67c12 -16.667 33 -25 63 -25c29.333 0 52.666 11.333 69.999 34s26 49 26 79zM417.001 58l0.000976562 -58.001
c-8 -1.33301 -14 -2.66602 -18 -3.99902c-36 -1.33301 -60.667 3 -74 13s-22 32 -26 66h-2c-10 -25.333 -26.333 -46.666 -49 -63.999s-47.334 -26 -74.001 -26c-52 0 -89.667 14.667 -113 44c-20 26 -30 65.667 -30 119c0 68 26.667 113 80 135l167 70
c10 8 15 29.333 15 64c0 31.333 -6.83301 53.666 -20.5 66.999s-36.167 20 -67.5 20c-33.333 0 -56 -8.33301 -68 -25c-9.33301 -14 -13.666 -38.333 -12.999 -73h-71c-4 110 51 165 165 165c100.667 0 151 -50.333 151 -151v-319c0 -23.333 4.66699 -37.333 14 -42
c7.33301 -2 18.666 -2.33301 33.999 -1zM190.002 627.999l72 114h89l-107 -114h-54z" />
    <glyph glyph-name="acircumflex" unicode="&#xe2;" horiz-adv-x="444" 
d="M287 165l0.000976562 135c-8 -4.66699 -49.667 -24.667 -125 -60c-32.667 -15.333 -49 -47.333 -49 -96c0 -30.667 5 -53 15 -67c12 -16.667 33 -25 63 -25c29.333 0 52.666 11.333 69.999 34s26 49 26 79zM417.001 58l0.000976562 -58.001
c-8 -1.33301 -14 -2.66602 -18 -3.99902c-36 -1.33301 -60.667 3 -74 13s-22 32 -26 66h-2c-10 -25.333 -26.333 -46.666 -49 -63.999s-47.334 -26 -74.001 -26c-52 0 -89.667 14.667 -113 44c-20 26 -30 65.667 -30 119c0 68 26.667 113 80 135l167 70
c10 8 15 29.333 15 64c0 31.333 -6.83301 53.666 -20.5 66.999s-36.167 20 -67.5 20c-33.333 0 -56 -8.33301 -68 -25c-9.33301 -14 -13.666 -38.333 -12.999 -73h-71c-4 110 51 165 165 165c100.667 0 151 -50.333 151 -151v-319c0 -23.333 4.66699 -37.333 14 -42
c7.33301 -2 18.666 -2.33301 33.999 -1zM266.002 597.999l-48 67l-48 -67h-57l71 100h67l72 -100h-57z" />
    <glyph glyph-name="atilde" unicode="&#xe3;" horiz-adv-x="444" 
d="M287 165l0.000976562 135c-8 -4.66699 -49.667 -24.667 -125 -60c-32.667 -15.333 -49 -47.333 -49 -96c0 -30.667 5 -53 15 -67c12 -16.667 33 -25 63 -25c29.333 0 52.666 11.333 69.999 34s26 49 26 79zM417.001 58l0.000976562 -58.001
c-8 -1.33301 -14 -2.66602 -18 -3.99902c-36 -1.33301 -60.667 3 -74 13s-22 32 -26 66h-2c-10 -25.333 -26.333 -46.666 -49 -63.999s-47.334 -26 -74.001 -26c-52 0 -89.667 14.667 -113 44c-20 26 -30 65.667 -30 119c0 68 26.667 113 80 135l167 70
c10 8 15 29.333 15 64c0 31.333 -6.83301 53.666 -20.5 66.999s-36.167 20 -67.5 20c-33.333 0 -56 -8.33301 -68 -25c-9.33301 -14 -13.666 -38.333 -12.999 -73h-71c-4 110 51 165 165 165c100.667 0 151 -50.333 151 -151v-319c0 -23.333 4.66699 -37.333 14 -42
c7.33301 -2 18.666 -2.33301 33.999 -1zM305.002 710.999h33.999c-1.33301 -22 -8.66602 -40.667 -21.999 -56s-30.666 -23 -51.999 -23c-5.33301 0 -22 4.66699 -50 14c-32 10.667 -49.667 16 -53 16c-7.33301 0 -14.333 -3.66699 -21 -11s-10.667 -15 -12 -23h-34
c3.33301 52 27.666 78 72.999 78c9.33301 0 26.333 -4.33301 51 -13c30 -10.667 47.667 -16 53 -16c18.667 0 29.667 11.333 33 34z" />
    <glyph glyph-name="adieresis" unicode="&#xe4;" horiz-adv-x="444" 
d="M287 165l0.000976562 135c-8 -4.66699 -49.667 -24.667 -125 -60c-32.667 -15.333 -49 -47.333 -49 -96c0 -30.667 5 -53 15 -67c12 -16.667 33 -25 63 -25c29.333 0 52.666 11.333 69.999 34s26 49 26 79zM417.001 58v-58.002c-8 -1.33301 -14 -2.66602 -18 -3.99902
c-36 -1.33301 -60.667 2.83398 -74 12.501s-22 31.834 -26 66.501h-2c-10 -25.333 -26 -46.333 -48 -63c-24 -18 -49 -27 -75 -27c-52 0 -89.667 14.667 -113 44c-20 26 -30 65.667 -30 119c0 68 26.667 113 80 135l167 70c10 8 15 29.333 15 64
c0 31.333 -6.83301 53.666 -20.5 66.999s-36.167 20 -67.5 20c-33.333 0 -56 -8.33301 -68 -25c-9.33301 -14 -13.666 -38.333 -12.999 -73h-71c-4 110 51 165 165 165c100.667 0 151 -50.333 151 -151v-319c0 -23.333 4.66699 -37.333 14 -42
c7.33301 -2 18.666 -2.33301 33.999 -1zM108.001 749.998h79v-100h-79v100zM337.001 649.998h-79v100h79v-100z" />
    <glyph glyph-name="aring" unicode="&#xe5;" horiz-adv-x="444" 
d="M287 165l0.000976562 135c-8 -4.66699 -49.667 -24.667 -125 -60c-32.667 -15.333 -49 -47.333 -49 -96c0 -30.667 5 -53 15 -67c12 -16.667 33 -25 63 -25c29.333 0 52.666 11.333 69.999 34s26 49 26 79zM417.001 58v-58.002c-8 -1.33301 -14 -2.66602 -18 -3.99902
c-36 -1.33301 -60.667 2.83398 -74 12.501s-22 31.834 -26 66.501h-2c-10 -25.333 -26 -46.333 -48 -63c-24 -18 -49 -27 -75 -27c-52 0 -89.667 14.667 -113 44c-20 26 -30 65.667 -30 119c0 68 26.667 113 80 135l167 70c10 8 15 29.333 15 64
c0 31.333 -6.83301 53.666 -20.5 66.999s-36.167 20 -67.5 20c-33.333 0 -56 -8.33301 -68 -25c-9.33301 -14 -13.666 -38.333 -12.999 -73h-71c-4 110 51 165 165 165c100.667 0 151 -50.333 151 -151v-319c0 -23.333 4.66699 -37.333 14 -42
c7.33301 -2 18.666 -2.33301 33.999 -1zM222.001 592.998c-28 0 -51.999 10 -71.999 30s-30 44 -30 72c0 27.333 10.167 51 30.5 71s44.166 30 71.499 30c28 0 52 -9.83301 72 -29.5s30 -43.5 30 -71.5s-10 -52 -30 -72s-44 -30 -72 -30zM222.002 755.998
c-16 0 -30.333 -6.16699 -43 -18.5s-19 -26.5 -19 -42.5c0 -16.667 6.16699 -31.167 18.5 -43.5s26.833 -18.5 43.5 -18.5s31.167 6.16699 43.5 18.5s18.5 26.833 18.5 43.5c0 16 -6.33301 30.167 -19 42.5s-27 18.5 -43 18.5z" />
    <glyph glyph-name="ae" unicode="&#xe6;" horiz-adv-x="667" 
d="M288 218v81.001l-57 -27c-48 -22.667 -77 -38.334 -87 -47.001c-24 -20.667 -36 -50 -36 -88c0 -56.667 25.667 -85 77 -85c37.333 0 66 13.667 86 41c11.333 15.333 17 57 17 125zM370 335.001h178c0 111.333 -28.333 167 -85 167c-40.667 0 -67.667 -19 -81 -57
c-6.66699 -19.333 -10.667 -56 -12 -110zM630 270.001h-260.001v-82c2.66699 -50 10.334 -86.333 23.001 -109c10 -18 33 -27 69 -27c58 0 87.667 43 89 129h73c0.666992 -56.667 -11.666 -102.334 -36.999 -137.001c-28 -39.333 -69.333 -59 -124 -59
c-66.667 0 -114 30.333 -142 91c-36.667 -60.667 -89.334 -91 -158.001 -91c-44.667 0 -78.667 13.667 -102 41s-35 63.666 -35 108.999c0 68.667 24 117 72 145c18 10.667 43 21.334 75 32.001c43.333 14.667 72 25.334 86 32.001c24 11.333 36 34 36 68
c0 60 -29.333 90 -88 90c-57.333 0 -85 -32.667 -83 -98h-75c-0.666992 50.667 12.5 91.167 39.5 121.5s65.833 45.5 116.5 45.5c59.333 0 103.333 -21 132 -63c30 40.667 70.667 61 122 61c75.333 0 125.333 -33.667 150 -101c15.333 -41.333 22.333 -107.333 21 -198z" />
    <glyph glyph-name="ccedilla" unicode="&#xe7;" horiz-adv-x="444" 
d="M235 504c-50 0 -82.665 -31.6689 -97.998 -95.002c-7.33301 -30 -11 -81.667 -11 -155c0 -134.667 35.333 -202 106 -202c38 0 64.667 15.333 80 46c9.33301 18.667 15.333 50.667 18 96h75c-4 -139.333 -59.667 -209 -167 -209c-76.667 0 -130.334 29.667 -161.001 89
c-22 42.667 -33 108.334 -33 197.001c0 86.667 10.667 153.334 32 200.001c30 66.667 83.333 100 160 100c54 0 95.667 -18.667 125 -56c27.333 -34 40.666 -78.667 39.999 -134h-74c-1.33301 82 -32 123 -92 123zM174.002 -105.002l-17.001 19l63 86h48l-46 -62
c7.33301 2 15.666 3 24.999 3c24.667 0 45.834 -6.33301 63.501 -19s26.5 -30.667 26.5 -54c0 -33.333 -14.333 -58 -43 -74c-24 -13.333 -53.667 -19.333 -89 -18c-32 4.66699 -59.667 11.667 -83 21l17 40c27.333 -10 49 -15 65 -15c22.667 0 40.334 7.66699 53.001 23
c3.33301 3.33301 5 8.33301 5 15c0 18.667 -9.33301 31.667 -28 39c-14 5.33301 -34 4 -60 -4z" />
    <glyph glyph-name="egrave" unicode="&#xe8;" horiz-adv-x="444" 
d="M125 336h188c-2.66699 55.333 -6.66699 91.333 -12 108c-12.667 40 -39 60 -79 60c-40.667 0 -68 -19.667 -82 -59c-7.33301 -20.667 -12.333 -57 -15 -109zM317 185h74.002c2.66699 -58 -10 -105 -38 -141c-30 -39.333 -73.333 -59 -130 -59c-120 0 -180 98 -180 294
c0 76 11 139 33 189c30 68.667 78.333 103 145 103c78.667 0 129.667 -33.667 153 -101c10.667 -30.667 17.667 -97 21 -199h-270c2 -76 5 -122 9 -138c13.333 -54 43.666 -81 90.999 -81c34.667 0 60 14.333 76 43c13.333 24 18.666 54 15.999 90zM84.002 742h89l72 -114
h-54z" />
    <glyph glyph-name="eacute" unicode="&#xe9;" horiz-adv-x="444" 
d="M125 336h188c-2.66699 55.333 -6.66699 91.333 -12 108c-12.667 40 -39 60 -79 60c-40.667 0 -68 -19.667 -82 -59c-7.33301 -20.667 -12.333 -57 -15 -109zM317 185h74.002c2.66699 -58 -10 -105 -38 -141c-30 -39.333 -73.333 -59 -130 -59c-120 0 -180 98 -180 294
c0 76 11 139 33 189c30 68.667 78.333 103 145 103c78.667 0 129.667 -33.667 153 -101c10.667 -30.667 17.667 -97 21 -199h-270c2 -76 5 -122 9 -138c13.333 -54 43.666 -81 90.999 -81c34.667 0 60 14.333 76 43c13.333 24 18.666 54 15.999 90zM190.002 628l72 114h89
l-107 -114h-54z" />
    <glyph glyph-name="ecircumflex" unicode="&#xea;" horiz-adv-x="444" 
d="M125 336h188c-2.66699 55.333 -6.66699 91.333 -12 108c-12.667 40 -39 60 -79 60c-40.667 0 -68 -19.667 -82 -59c-7.33301 -20.667 -12.333 -57 -15 -109zM317 185h74.002c2.66699 -58 -10 -105 -38 -141c-30 -39.333 -73.333 -59 -130 -59c-120 0 -180 98 -180 294
c0 76 11 139 33 189c30 68.667 78.333 103 145 103c78.667 0 129.667 -33.667 153 -101c10.667 -30.667 17.667 -97 21 -199h-270c2 -76 5 -122 9 -138c13.333 -54 43.666 -81 90.999 -81c34.667 0 60 14.333 76 43c13.333 24 18.666 54 15.999 90zM266.002 598l-48 67
l-48 -67h-57l71 100h67l72 -100h-57z" />
    <glyph glyph-name="edieresis" unicode="&#xeb;" horiz-adv-x="444" 
d="M125 336h188c-2.66699 55.333 -6.66699 91.333 -12 108c-12.667 40 -39 60 -79 60c-40.667 0 -68 -19.667 -82 -59c-7.33301 -20 -12.333 -56.333 -15 -109zM317 185h74.002c2.66699 -58 -10 -105 -38 -141c-30 -39.333 -73.333 -59 -130 -59c-120 0 -180 98 -180 294
c0 75.333 11 138.333 33 189c30.667 68.667 79 103 145 103c78.667 0 129.667 -33.667 153 -101c10.667 -30.667 17.667 -97 21 -199h-270c2 -75.333 5 -121.333 9 -138c13.333 -54 43.666 -81 90.999 -81c34.667 0 60 14.333 76 43c13.333 24 18.666 54 15.999 90z
M108.002 750h79v-100h-79v100zM337.002 650h-79v100h79v-100z" />
    <glyph glyph-name="igrave" unicode="&#xec;" horiz-adv-x="222" 
d="M151 0h-79v556h79v-556zM-24 732h89l72 -114h-54z" />
    <glyph glyph-name="iacute" unicode="&#xed;" horiz-adv-x="222" 
d="M151 0h-79v556h79v-556zM84 618l72 114h89l-107 -114h-54z" />
    <glyph glyph-name="icircumflex" unicode="&#xee;" horiz-adv-x="222" 
d="M151 0h-79v556h79v-556zM178 624l-66 94l-66 -94h-80l99 141h93l100 -141h-80z" />
    <glyph glyph-name="idieresis" unicode="&#xef;" horiz-adv-x="222" 
d="M151 0h-79v556h79v-556zM-3 750h79v-100h-79v100zM226 650h-79v100h79v-100z" />
    <glyph glyph-name="eth" unicode="&#xf0;" 
d="M358 272c0 66 -4.99805 115 -14.998 147c-16.667 56.667 -50.334 85 -101.001 85s-85 -28.333 -103 -85c-10 -32.667 -15 -81.667 -15 -147c0 -61.333 5.66699 -108.333 17 -141c18 -52.667 51.667 -79 101 -79s82.666 26.667 99.999 80c10.667 31.333 16 78 16 140z
M356.002 770l38.002 -46l-43 -32c59.333 -67.333 89 -199 89 -395c0 -208 -63.667 -312 -191 -312c-82.667 0 -140.334 34 -173.001 102c-22.667 47.333 -34 117.333 -34 210c0 119.333 29.333 199.333 88 240c32 22.667 69 34 111 34c33.333 0 64.333 -7.66699 93 -23
c-6 26 -10.333 43.333 -13 52c-6.66699 20.667 -15.334 37.667 -26.001 51l-66 -50l-38 46l53 40c-17.333 6 -64.666 11 -141.999 15v48c111.333 0 177.666 -7 198.999 -21z" />
    <glyph glyph-name="ntilde" unicode="&#xf1;" 
d="M150 556l0.000976562 -61c42 50.667 89 76 141 76c91.333 0 137 -47.333 137 -142v-429h-79v407c0 64.667 -27.667 97 -83 97c-36.667 0 -65.334 -13.333 -86.001 -40c-18.667 -24 -28 -54.667 -28 -92v-372h-79v556h77zM373.001 749h48
c-2.66699 -31.333 -12.334 -56.666 -29.001 -75.999c-18.667 -22 -43 -33 -73 -33c-14 0 -37.667 6 -71 18c-37.333 13.333 -61.666 20 -72.999 20s-21.5 -4.66699 -30.5 -14s-14.167 -19.666 -15.5 -30.999h-48c2.66699 31.333 12.334 56.666 29.001 75.999
c18.667 22 43 33 73 33c14 0 37.667 -6 71 -18c37.333 -13.333 61.666 -20 72.999 -20s21.5 4.66699 30.5 14s14.167 19.666 15.5 30.999z" />
    <glyph glyph-name="ograve" unicode="&#xf2;" 
d="M449 297c0 -90.667 -11.002 -160 -33.002 -208c-31.333 -69.333 -86.666 -104 -165.999 -104s-134.666 34.667 -165.999 104c-22 48 -33 117.333 -33 208c0 182.667 66.333 274 199 274s199 -91.333 199 -274zM366.998 272c0 66 -5 115 -15 147
c-17.333 56.667 -51.333 85 -102 85c-50 0 -84 -28.333 -102 -85c-10 -32 -15 -81 -15 -147c0 -146.667 39 -220 117 -220c49.333 0 83 26.333 101 79c10.667 31.333 16 78.333 16 141zM113.998 742h89l72 -114h-54z" />
    <glyph glyph-name="oacute" unicode="&#xf3;" 
d="M449 297c0 -90.667 -11.002 -160 -33.002 -208c-31.333 -69.333 -86.666 -104 -165.999 -104s-134.666 34.667 -165.999 104c-22 48 -33 117.333 -33 208c0 182.667 66.333 274 199 274s199 -91.333 199 -274zM366.998 272c0 66 -5 115 -15 147
c-17.333 56.667 -51.333 85 -102 85c-50 0 -84 -28.333 -102 -85c-10 -32 -15 -81 -15 -147c0 -146.667 39 -220 117 -220c49.333 0 83 26.333 101 79c10.667 31.333 16 78.333 16 141zM220.998 628l72 114h89l-107 -114h-54z" />
    <glyph glyph-name="ocircumflex" unicode="&#xf4;" 
d="M449 297c0 -90.667 -11.002 -160 -33.002 -208c-31.333 -69.333 -86.666 -104 -165.999 -104s-134.666 34.667 -165.999 104c-22 48 -33 117.333 -33 208c0 182.667 66.333 274 199 274s199 -91.333 199 -274zM366.998 272c0 66 -5 115 -15 147
c-17.333 56.667 -51.333 85 -102 85c-50 0 -84 -28.333 -102 -85c-10 -32 -15 -81 -15 -147c0 -146.667 39 -220 117 -220c49.333 0 83 26.333 101 79c10.667 31.333 16 78.333 16 141zM297.998 598l-48 67l-48 -67h-57l71 100h67l72 -100h-57z" />
    <glyph glyph-name="otilde" unicode="&#xf5;" 
d="M449 297c0 -90.667 -11.002 -160 -33.002 -208c-31.333 -69.333 -86.666 -104 -165.999 -104s-134.666 34.667 -165.999 104c-22 48 -33 117.333 -33 208c0 182.667 66.333 274 199 274s199 -91.333 199 -274zM366.998 272c0 66 -5 115 -15 147
c-17.333 56.667 -51.333 85 -102 85c-50 0 -84 -28.333 -102 -85c-10 -32 -15 -81 -15 -147c0 -146.667 39 -220 117 -220c49.333 0 83 26.333 101 79c10.667 31.333 16 78.333 16 141zM336.998 711h33.999c-1.33301 -22 -8.66602 -40.667 -21.999 -56
s-30.666 -23 -51.999 -23c-5.33301 0 -22 4.66699 -50 14c-32 10.667 -49.667 16 -53 16c-7.33301 0 -14.333 -3.66699 -21 -11s-10.667 -15 -12 -23h-34c3.33301 52 27.666 78 72.999 78c9.33301 0 26.333 -4.33301 51 -13c30 -10.667 47.667 -16 53 -16
c18.667 0 29.667 11.333 33 34z" />
    <glyph glyph-name="odieresis" unicode="&#xf6;" 
d="M449 297c0 -91.333 -11.001 -161.001 -33.001 -209.001c-31.333 -68.667 -86.666 -103 -165.999 -103c-78.667 0 -134 34.333 -166 103c-22 48.667 -33 118.334 -33 209.001c0 182.667 66.333 274 199 274s199 -91.333 199 -274zM366.999 271.999
c0 66.667 -5 115.667 -15 147c-17.333 56.667 -51.333 85 -102 85c-50 0 -84 -28.333 -102 -85c-10 -32.667 -15 -81.667 -15 -147c0 -146.667 39 -220 117 -220c49.333 0 83 26.333 101 79c10.667 32 16 79 16 141zM135.999 749.999h79v-100h-79v100zM364.999 649.999h-79
v100h79v-100z" />
    <glyph glyph-name="divide" unicode="&#xf7;" 
d="M44 219v70h413v-70h-413zM289 405h-79v100h79v-100zM289 3h-79v100h79v-100z" />
    <glyph glyph-name="oslash" unicode="&#xf8;" 
d="M147 151l197 286c-16.667 44.667 -47.667 67 -93 67c-50.667 0 -85 -28 -103 -84c-10 -32.667 -15 -81.667 -15 -147c0 -37.333 4.66699 -78 14 -122zM356 391l-193.999 -282.999c18 -37.333 47.667 -56 89 -56c49.333 0 82.666 26.667 99.999 80c10.667 32 16 79 16 141
c0 47.333 -3.66699 86.666 -11 117.999zM115.001 40.001l-59 -85.999l-31 19l68 99c-28 47.333 -42 122.666 -42 225.999c0 182 66.333 273 199 273c61.333 0 109 -21 143 -63l51 74l28 -23l-57 -83c22.667 -40 34 -99.333 34 -178c0 -208.667 -63.667 -313 -191 -313
c-63.333 0 -111 18.333 -143 55z" />
    <glyph glyph-name="ugrave" unicode="&#xf9;" 
d="M345 0v73h-2c-28 -58.667 -72 -88 -132 -88c-89.333 0 -134 47.333 -134 142v429h79v-432c0 -48 23.667 -72 71 -72c78.667 0 118 49 118 147v357h79v-556h-79zM114 712h89l72 -114h-54z" />
    <glyph glyph-name="uacute" unicode="&#xfa;" 
d="M345 0v73h-2c-28 -58.667 -72 -88 -132 -88c-89.333 0 -134 47.333 -134 142v429h79v-432c0 -48 23.667 -72 71 -72c78.667 0 118 49 118 147v357h79v-556h-79zM221 598l72 114h89l-107 -114h-54z" />
    <glyph glyph-name="ucircumflex" unicode="&#xfb;" 
d="M345 0v73h-2c-28 -58.667 -72 -88 -132 -88c-89.333 0 -134 47.333 -134 142v429h79v-432c0 -48 23.667 -72 71 -72c78.667 0 118 49 118 147v357h79v-556h-79zM317 624l-66 94l-66 -94h-80l99 141h93l100 -141h-80z" />
    <glyph glyph-name="udieresis" unicode="&#xfc;" 
d="M345 0v73h-2c-28 -58.667 -72 -88 -132 -88c-89.333 0 -134 47.333 -134 142v429h79v-432c0 -48 23.667 -72 71 -72c78.667 0 118 49 118 147v357h79v-556h-79zM136 750h79v-100h-79v100zM365 650h-79v100h79v-100z" />
    <glyph glyph-name="yacute" unicode="&#xfd;" horiz-adv-x="444" 
d="M182 -13l-177.001 569h82l125 -482h2l129 482h82l-165 -531c-9.33301 -30.667 -26.333 -78 -51 -142c-27.333 -48.667 -69.666 -73 -126.999 -73c-18.667 0 -37.667 3 -57 9v70c18 -8 37.667 -12 59 -12c32 0 55 11.333 69 34zM189.999 598l72 114h89l-107 -114h-54z" />
    <glyph glyph-name="thorn" unicode="&#xfe;" 
d="M365 288c0 144 -36.333 215.999 -109 215.999c-44.667 0 -75 -27.667 -91 -83c-9.33301 -32 -14 -79.333 -14 -142c0 -65.333 4 -112.666 12 -141.999c15.333 -56.667 46.666 -85 93.999 -85c46.667 0 78.334 30 95.001 90c8.66699 33.333 13 82 13 146zM151 57.999
v-246.002h-79v938h76v-256h2c24 50.667 62.333 76.334 115 77.001c64 1.33301 112 -26.667 144 -84c25.333 -45.333 38 -102.666 38 -171.999c0 -220 -59.333 -330 -178 -330c-46 0 -85.333 24.333 -118 73z" />
    <glyph glyph-name="ydieresis" unicode="&#xff;" horiz-adv-x="444" 
d="M182 -13l-177.001 568.999h82l125 -482h2l129 482h82l-165 -531c-11.333 -35.333 -28.333 -82.666 -51 -141.999c-27.333 -48.667 -69.666 -73 -126.999 -73c-18.667 0 -37.667 3 -57 9v70c18 -8 37.667 -12 59 -12c32 0 55 11.333 69 34zM107.999 749.999h79v-100h-79
v100zM336.999 649.999h-79v100h79v-100z" />
    <glyph glyph-name="glyph271" unicode="&#x102;" horiz-adv-x="556" 
d="M11 0l214 750h110l211 -750h-92l-59 216h-237l-55 -216h-92zM376 291l-97 399h-2l-99 -399h198zM156 895h39.001c9.33301 -41.333 37.666 -62 84.999 -62c46 0 74 20.667 84 62h39c-2.66699 -72.667 -44.667 -109 -126 -109c-78 0 -118.333 36.333 -121 109z" />
    <glyph glyph-name="glyph272" unicode="&#x103;" horiz-adv-x="444" 
d="M287 165l0.000976562 135c-8 -4.66699 -49.667 -24.667 -125 -60c-32.667 -15.333 -49 -47.333 -49 -96c0 -30.667 5 -53 15 -67c12 -16.667 33 -25 63 -25c29.333 0 52.666 11.333 69.999 34s26 49 26 79zM417.001 58l0.000976562 -58.001
c-8 -1.33301 -14 -2.66602 -18 -3.99902c-36 -1.33301 -60.667 3 -74 13s-22 32 -26 66h-2c-10 -25.333 -26.333 -46.666 -49 -63.999s-47.334 -26 -74.001 -26c-52 0 -89.667 14.667 -113 44c-20 26 -30 65.667 -30 119c0 68 26.667 113 80 135l167 70
c10 8 15 29.333 15 64c0 31.333 -6.83301 53.666 -20.5 66.999s-36.167 20 -67.5 20c-33.333 0 -56 -8.33301 -68 -25c-9.33301 -14 -13.666 -38.333 -12.999 -73h-71c-4 110 51 165 165 165c100.667 0 151 -50.333 151 -151v-319c0 -23.333 4.66699 -37.333 14 -42
c7.33301 -2 18.666 -2.33301 33.999 -1zM108.002 704.999h34.999c8.66699 -37.333 34.334 -56 77.001 -56c42 0 67 18.667 75 56h36c-2.66699 -65.333 -40.667 -98 -114 -98c-70 0 -106.333 32.667 -109 98z" />
    <glyph glyph-name="Cacute" unicode="&#x106;" horiz-adv-x="711" 
d="M503 525l-83.001 0.00195312c-2.66699 110 -47.667 165 -135 165c-62 0 -104 -38.333 -126 -115c-11.333 -40 -18 -103 -20 -189c-2 -88 3 -155.667 15 -203c21.333 -84 65 -126 131 -126c44 0 76.667 17 98 51c15.333 24.667 26 62 32 112c1.33301 11.333 3 28.333 5 51
h83c-0.666992 -10 -2 -25.333 -4 -46c-4.66699 -44.667 -8 -72.334 -10 -83.001c-6 -26.667 -17.333 -52 -34 -76c-39.333 -56 -93.666 -84 -162.999 -84c-102 0 -170.667 44.667 -206 134c-22 55.333 -33 144.666 -33 267.999c0 111.333 13 196 39 254
c38 84.667 104.333 127 199 127c69.333 0 123 -23.333 161 -70c36 -43.333 53 -100 51 -170zM276.999 879.002l89 141h109l-131 -141h-67z" />
    <glyph glyph-name="cacute" unicode="&#x107;" horiz-adv-x="441" 
d="M235 504c-50 0 -82.665 -31.6689 -97.998 -95.002c-7.33301 -30 -11 -81.667 -11 -155c0 -134.667 35.333 -202 106 -202c38 0 64.667 15.333 80 46c9.33301 18.667 15.333 50.667 18 96h75c-4 -139.333 -59.667 -209 -167 -209c-76.667 0 -130.334 29.667 -161.001 89
c-22 42.667 -33 108.334 -33 197.001c0 86.667 10.667 153.334 32 200.001c30 66.667 83.333 100 160 100c54 0 95.667 -18.667 125 -56c27.333 -34 40.666 -78.667 39.999 -134h-74c-1.33301 82 -32 123 -92 123zM78.002 623.998l89 141h109l-131 -141h-67z" />
    <glyph glyph-name="Ccaron" unicode="&#x10c;" horiz-adv-x="711" 
d="M503 525l-83.001 0.00195312c-2.66699 110 -47.667 165 -135 165c-62 0 -104 -38.333 -126 -115c-11.333 -40 -18 -103 -20 -189c-2 -88 3 -155.667 15 -203c21.333 -84 65 -126 131 -126c44 0 76.667 17 98 51c15.333 24.667 26 62 32 112c1.33301 11.333 3 28.333 5 51
h83c-0.666992 -10 -2 -25.333 -4 -46c-4.66699 -44.667 -8 -72.334 -10 -83.001c-6 -26.667 -17.333 -52 -34 -76c-39.333 -56 -93.666 -84 -162.999 -84c-102 0 -170.667 44.667 -206 134c-22 55.333 -33 144.666 -33 267.999c0 111.333 13 196 39 254
c38 84.667 104.333 127 199 127c69.333 0 123 -23.333 161 -70c36 -43.333 53 -100 51 -170zM277.999 1020l66 -94l66 94h80l-100 -141h-93l-99 141h80z" />
    <glyph glyph-name="ccaron" unicode="&#x10d;" horiz-adv-x="441" 
d="M235 504c-50 0 -82.665 -31.6689 -97.998 -95.002c-7.33301 -30 -11 -81.667 -11 -155c0 -134.667 35.333 -202 106 -202c38 0 64.667 15.333 80 46c9.33301 18.667 15.333 50.667 18 96h75c-4 -139.333 -59.667 -209 -167 -209c-76.667 0 -130.334 29.667 -161.001 89
c-22 42.667 -33 108.334 -33 197.001c0 86.667 10.667 153.334 32 200.001c30 66.667 83.333 100 160 100c54 0 95.667 -18.667 125 -56c27.333 -34 40.666 -78.667 39.999 -134h-74c-1.33301 82 -32 123 -92 123zM79.002 764.998l66 -94l66 94h80l-100 -141h-93l-99 141h80
z" />
    <glyph glyph-name="Dslash" unicode="&#x110;" horiz-adv-x="611" 
d="M82 423l-0.000976562 327h206c104.667 0 177.667 -39 219 -117c31.333 -59.333 45 -145.333 41 -258c-4 -108.667 -19.333 -191.667 -46 -249c-39.333 -84 -105.666 -126 -198.999 -126h-221v344h-88v79h88zM164.999 675l-0.00195312 -252.001h105v-79h-105v-269h133
c73.333 0 122.333 37.333 147 112c14.667 44.667 20.334 112.334 17.001 203.001c-3.33301 97.333 -14.666 166.333 -33.999 207c-24.667 52 -68 78 -130 78h-133z" />
    <glyph glyph-name="dcroat" unicode="&#x111;" 
d="M345 218l-0.000976562 69c0 61.333 -4.66699 107 -14 137c-16.667 53.333 -48 80 -94 80c-72.667 0 -109 -74.333 -109 -223c0 -74.667 5.33301 -127.667 16 -159c16 -46.667 48 -70 96 -70c36.667 0 64.334 19.667 83.001 59c14.667 30 22 65.667 22 107zM344.999 625
l-127 0.000976562v58h127v67h79v-67h22v-58h-22v-625h-76v73h-2c-16 -31.333 -34 -53.833 -54 -67.5s-47 -20.5 -81 -20.5c-74 0 -122.667 43 -146 129c-8 30.667 -13.667 85.667 -17 165c-2.66699 71.333 6.66602 133.666 27.999 186.999c28 70 74.333 105 139 105
c48.667 0 91.334 -24 128.001 -72h2v126z" />
    <glyph glyph-name="Gbreve" unicode="&#x11e;" horiz-adv-x="767" 
d="M532 385l-0.000976562 -391h-64v117h-2c-10.667 -41.333 -31.167 -73.166 -61.5 -95.499s-67.166 -33.5 -110.499 -33.5c-99.333 0 -167.333 44.333 -204 133c-24 57.333 -36 145.666 -36 264.999c0 256.667 82.667 385 248 385c70.667 0 125.834 -21 165.501 -63
s58.834 -98.667 57.501 -170h-84c-1.33301 103.333 -46.333 156 -135 158c-71.333 1.33301 -119.333 -34.334 -144 -107.001c-14.667 -44 -22 -112.667 -22 -206c0 -95.333 5 -162 15 -200c20 -77.333 62.333 -117.333 127 -120
c69.333 -3.33301 116.666 23.334 141.999 80.001c17.333 38 25.666 95.667 24.999 173h-167v75h250zM207.999 1020h49.001c11.333 -51.333 46.666 -77 105.999 -77c58 0 93 25.667 105 77h49c-4 -90.667 -56.667 -136 -158 -136c-96.667 0 -147 45.333 -151 136z" />
    <glyph glyph-name="gbreve" unicode="&#x11f;" horiz-adv-x="492" 
d="M236 504c-72.667 0 -109 -75.333 -109 -226s33.667 -226 101 -226c52 0 87 28.667 105 86c9.33301 30 14 80.667 14 152c0 142.667 -37 214 -111 214zM347 493v63.001h79v-489c0 -170.667 -65 -256 -195 -256c-100 0 -155.333 45.333 -166 136h77
c6.66699 -46 35.667 -69 87 -69c54.667 0 90 23.667 106 71c6 18 9.33301 56.667 10 116h-2c-30.667 -53.333 -70.667 -80 -120 -80c-118.667 0 -178 99 -178 297c0 75.333 11 137.666 33 186.999c29.333 68 77 102 143 102c56 0 97.333 -26 124 -78h2zM8 765.001h49.001
c11.333 -51.333 46.666 -77 105.999 -77c58 0 93 25.667 105 77h49c-4 -90.667 -56.667 -136 -158 -136c-96.667 0 -147 45.333 -151 136z" />
    <glyph glyph-name="glyph273" unicode="&#x128;" horiz-adv-x="278" 
d="M181 0h-83v750h83v-750zM236 895h37.999c-2 -24.667 -10.167 -45.334 -24.5 -62.001s-33.5 -25 -57.5 -25c-9.33301 0 -28 5 -56 15c-34 12 -53.667 18 -59 18c-8.66699 0 -16.667 -4.16699 -24 -12.5s-11.666 -16.833 -12.999 -25.5h-38
c2 24.667 10.167 45.334 24.5 62.001s33.5 25 57.5 25c8.66699 0 27.334 -5 56.001 -15c34 -12 53.667 -18 59 -18c8.66699 0 16.667 4.16699 24 12.5s11.666 16.833 12.999 25.5z" />
    <glyph glyph-name="glyph274" unicode="&#x129;" horiz-adv-x="222" 
d="M151 0h-79v556h79v-556zM199 700h33.999c-1.33301 -22 -8.66602 -40.667 -21.999 -56s-30.666 -23 -51.999 -23c-5.33301 0 -22 4.66699 -50 14c-32 10.667 -49.667 16 -53 16c-7.33301 0 -14.333 -3.66699 -21 -11s-10.667 -15 -12 -23h-34
c3.33301 52 27.666 78 72.999 78c9.33301 0 26.333 -4.33301 51 -13c30 -10.667 47.667 -16 53 -16c18.667 0 29.667 11.333 33 34z" />
    <glyph glyph-name="Idotaccent" unicode="&#x130;" horiz-adv-x="429" 
d="M181 0h-83v750h83v-750zM192 905h-79v100h79v-100z" />
    <glyph glyph-name="dotlessi" unicode="&#x131;" horiz-adv-x="222" 
d="M151 0h-79v556h79v-556z" />
    <glyph glyph-name="Lslash" unicode="&#x141;" 
d="M83 0v325l-96 -81v88l96 81v337h83v-267l136 116v-88l-136 -116v-320h306v-75h-389z" />
    <glyph glyph-name="lslash" unicode="&#x142;" horiz-adv-x="222" 
d="M72 0v372l-80 -55v74l80 53v306h79v-255l80 53v-68l-80 -55v-425h-79z" />
    <glyph glyph-name="OE" unicode="&#x152;" horiz-adv-x="833" 
d="M512 75l273.001 -0.00195312v-75h-351v59h-2c-22 -26 -41.667 -44.333 -59 -55c-22 -13.333 -47.667 -20.666 -77 -21.999c-126.667 -4.66699 -203.667 76.333 -231 243c-6.66699 40.667 -9.66699 90.334 -9 149.001c1.33301 110 14.333 195 39 255
c37.333 90.667 102.333 136 195 136c57.333 0 104.666 -26.333 141.999 -79h2v64h353v-75h-275v-246h257v-75h-257v-279zM426.001 247.998v292c0 100 -42 150 -126 150c-77.333 0 -124.333 -42.667 -141 -128c-11.333 -58 -17 -127 -17 -207
c0 -198.667 49.667 -298 149 -298c52.667 0 89.667 19.667 111 59c16 30 24 74 24 132z" />
    <glyph glyph-name="oe" unicode="&#x153;" horiz-adv-x="722" 
d="M674 274l-260 -0.00292969l1 -55c0.666992 -51.333 5 -87.666 13 -108.999c14 -38.667 41 -58 81 -58c33.333 0 57 15 71 45c7.33301 15.333 13.666 44.333 18.999 87h75c-3.33301 -55.333 -17 -100.666 -41 -135.999c-28 -42 -68 -63 -120 -63
c-63.333 0 -110.666 26.667 -141.999 80c-33.333 -53.333 -80.333 -80 -141 -80c-79.333 0 -133.333 33.667 -162 101c-18.667 44 -28 111.667 -28 203c0 188 61 282 183 282c69.333 0 119.666 -26 150.999 -78c30.667 52 73.334 78 128.001 78c116 0 174 -79.333 174 -238
c0 -11.333 -0.333008 -23.666 -1 -36.999zM122 265.997c0 -62.667 4 -107.667 12 -135c15.333 -52.667 47 -79 95 -79c44 0 73.333 20 88 60c10.667 29.333 16 87.333 16 174c0 64 -3.33301 109.333 -10 136c-14 54.667 -43.667 82 -89 82
c-49.333 0 -82.333 -29.667 -99 -89c-8.66699 -31.333 -13 -81 -13 -149zM414 338.997h185c-4 62 -7.33301 97.667 -10 107c-10.667 38.667 -36.667 58 -78 58c-40.667 0 -68 -19.333 -82 -58c-7.33301 -20 -12.333 -55.667 -15 -107z" />
    <glyph glyph-name="Scedilla" unicode="&#x15e;" horiz-adv-x="656" 
d="M483 553l-83.001 -0.000976562c3.33301 40.667 -5.5 73.667 -26.5 99s-51.833 38 -92.5 38c-89.333 0 -134 -44.667 -134 -134c0 -50 23.667 -84 71 -102l119 -45c60.667 -22.667 102.334 -46 125.001 -70c28.667 -30.667 43 -74.667 43 -132
c0 -71.333 -20.833 -126.666 -62.5 -165.999s-98.5 -59 -170.5 -59c-102 0 -170.333 39.667 -205 119c-8.66699 20 -14 65.667 -16 137h83c-2 -60.667 5.66699 -104.334 23 -131.001c21.333 -33.333 61 -50 119 -50c43.333 0 78 11.167 104 33.5s39 54.833 39 97.5
c0 50.667 -11 85.334 -33 104.001c-9.33301 8 -39 21.333 -89 40c-28.667 10 -77.667 29.333 -147 58c-59.333 27.333 -89 84 -89 170c0 61.333 19.333 110.833 58 148.5s89 56.5 151 56.5c70 0 124 -18 162 -54s55 -88.667 51 -158zM156.999 -105.001l-17.001 19l63 86h48
l-46 -62c7.33301 2 15.666 3 24.999 3c24.667 0 45.834 -6.33301 63.501 -19s26.5 -30.667 26.5 -54c0 -33.333 -14.333 -58 -43 -74c-24 -13.333 -53.667 -19.333 -89 -18c-32 4.66699 -59.667 11.667 -83 21l17 40c27.333 -10 49 -15 65 -15
c22.667 0 40.334 7.66699 53.001 23c3.33301 3.33301 5 8.33301 5 15c0 18.667 -9.33301 31.667 -28 39c-14 5.33301 -34 4 -60 -4z" />
    <glyph glyph-name="scedilla" unicode="&#x15f;" horiz-adv-x="383" 
d="M380 407l-77.0029 0.000976562c2.66699 64.667 -26.666 97 -87.999 97c-58.667 0 -88 -28 -88 -84c0 -30.667 12 -54 36 -70c0.666992 -0.666992 26.334 -12 77.001 -34c60.667 -26.667 97.334 -44.667 110.001 -54c33.333 -25.333 50 -60.666 50 -105.999
c0 -54.667 -17.5 -96.834 -52.5 -126.501s-80.167 -44.5 -135.5 -44.5c-112.667 0 -169 59 -169 177h75c-3.33301 -73.333 28 -110 94 -110c70.667 0 106 31.333 106 94c0 33.333 -15.667 58.666 -47 75.999l-90 34c-48.667 18.667 -82 37 -100 55
c-24 24 -36 58.333 -36 103c0 48 15 86.167 45 114.5s69.333 42.5 118 42.5c116.667 0 174 -54.667 172 -164zM59.9971 -104.999l-17.001 19l63 86h48l-46 -62c7.33301 2 15.666 3 24.999 3c24.667 0 45.834 -6.33301 63.501 -19s26.5 -30.667 26.5 -54
c0 -33.333 -14.333 -58 -43 -74c-24 -13.333 -53.667 -19.333 -89 -18c-32 4.66699 -59.667 11.667 -83 21l17 40c27.333 -10 49 -15 65 -15c22.667 0 40.334 7.66699 53.001 23c3.33301 3.33301 5 8.33301 5 15c0 18.667 -9.33301 31.667 -28 39c-14 5.33301 -34 4 -60 -4z
" />
    <glyph glyph-name="Scaron" unicode="&#x160;" horiz-adv-x="556" 
d="M483 553l-83.001 -0.000976562c3.33301 40.667 -5.5 73.667 -26.5 99s-51.833 38 -92.5 38c-89.333 0 -134 -44.667 -134 -134c0 -50 23.667 -84 71 -102l119 -45c60.667 -22.667 102.334 -46 125.001 -70c28.667 -30.667 43 -74.667 43 -132
c0 -71.333 -20.833 -126.666 -62.5 -165.999s-98.5 -59 -170.5 -59c-102 0 -170.333 39.667 -205 119c-8.66699 20 -14 65.667 -16 137h83c-2 -60.667 5.66699 -104.334 23 -131.001c21.333 -33.333 61 -50 119 -50c43.333 0 78 11.167 104 33.5s39 54.833 39 97.5
c0 50.667 -11 85.334 -33 104.001c-9.33301 8 -39 21.333 -89 40c-28.667 10 -77.667 29.333 -147 58c-59.333 27.333 -89 84 -89 170c0 61.333 19.333 110.833 58 148.5s89 56.5 151 56.5c70 0 124 -18 162 -54s55 -88.667 51 -158zM212.999 958.999l66 -94l66 94h80
l-100 -141h-93l-99 141h80z" />
    <glyph glyph-name="scaron" unicode="&#x161;" horiz-adv-x="444" 
d="M380 407l-77.0029 0.000976562c2.66699 64.667 -26.666 97 -87.999 97c-58.667 0 -88 -28 -88 -84c0 -30.667 12 -54 36 -70c0.666992 -0.666992 26.334 -12 77.001 -34c60.667 -26.667 97.334 -44.667 110.001 -54c33.333 -25.333 50 -60.666 50 -105.999
c0 -54.667 -17.5 -96.834 -52.5 -126.501s-80.167 -44.5 -135.5 -44.5c-112.667 0 -169 59 -169 177h75c-3.33301 -73.333 28 -110 94 -110c70.667 0 106 31.333 106 94c0 33.333 -15.667 58.666 -47 75.999l-90 34c-48.667 18.667 -82 37 -100 55
c-24 24 -36 58.333 -36 103c0 48 15 86.167 45 114.5s69.333 42.5 118 42.5c116.667 0 174 -54.667 172 -164zM156.997 765.001l66 -94l66 94h80l-100 -141h-93l-99 141h80z" />
    <glyph glyph-name="ch903" unicode="&#x168;" horiz-adv-x="611" 
d="M81 181l0.00195312 569h83v-539c0 -102.667 47.333 -154 142 -154s142 51.333 142 154v539h83v-569c0 -67.333 -21.333 -118 -64 -152c-38.667 -31.333 -92.334 -47 -161.001 -47s-122.334 15.667 -161.001 47c-42.667 34 -64 84.667 -64 152zM406.002 895h37.999
c-2 -24.667 -10.167 -45.334 -24.5 -62.001s-33.5 -25 -57.5 -25c-9.33301 0 -28 5 -56 15c-34 12 -53.667 18 -59 18c-8.66699 0 -16.667 -4.16699 -24 -12.5s-11.666 -16.833 -12.999 -25.5h-38c2 24.667 10.167 45.334 24.5 62.001s33.5 25 57.5 25
c8.66699 0 27.334 -5 56.001 -15c34 -12 53.667 -18 59 -18c8.66699 0 16.667 4.16699 24 12.5s11.666 16.833 12.999 25.5z" />
    <glyph glyph-name="ch904" unicode="&#x169;" 
d="M345 0v73h-2c-28 -58.667 -72 -88 -132 -88c-89.333 0 -134 47.333 -134 142v429h79v-432c0 -48 23.667 -72 71 -72c78.667 0 118 49 118 147v357h79v-556h-79zM337 681h33.999c-1.33301 -22 -8.66602 -40.667 -21.999 -56s-30.666 -23 -51.999 -23
c-5.33301 0 -22 4.66699 -50 14c-32 10.667 -49.667 16 -53 16c-7.33301 0 -14.333 -3.66699 -21 -11s-10.667 -15 -12 -23h-34c3.33301 52 27.666 78 72.999 78c9.33301 0 26.333 -4.33301 51 -13c30 -10.667 47.667 -16 53 -16c18.667 0 29.667 11.333 33 34z" />
    <glyph glyph-name="Ydieresis" unicode="&#x178;" horiz-adv-x="556" 
d="M103 750l175 -376l176 376h92l-227 -459v-291h-83v291l-225 459h92zM164 944h79v-100h-79v100zM393 844h-79v100h79v-100z" />
    <glyph glyph-name="Zcaron" unicode="&#x17d;" 
d="M473 0h-445v72l354 603h-345v75h431v-72l-354 -603h359v-75zM185 959l66 -94l66 94h80l-100 -141h-93l-99 141h80z" />
    <glyph glyph-name="zcaron" unicode="&#x17e;" horiz-adv-x="389" 
d="M366 0h-342v62l258 429h-247v65h329v-65l-258 -426h260v-65zM129 765l66 -94l66 94h80l-100 -141h-93l-99 141h80z" />
    <glyph glyph-name="florin" unicode="&#x192;" 
d="M10 -179l9.99902 68.001c8.66699 -7.33301 23 -11 43 -11c20.667 0 38.334 4.33301 53.001 13c18 10.667 34.667 62 50 154l60 363h-110v67h122c14.667 85.333 29.334 144.333 44.001 177c29.333 65.333 74.666 98 135.999 98c26.667 0 50 -3.66699 70 -11l-17 -77
c-13.333 14 -31 21 -53 21c-28 0 -48.667 -13.667 -62 -41c-4.66699 -10 -12 -36 -22 -78c-2.66699 -12.667 -8.33398 -42.334 -17.001 -89.001h121v-67h-130l-52 -329c-22 -140.667 -53.667 -223 -95 -247c-27.333 -16 -56.666 -24 -87.999 -24c-22 0 -43 4.33301 -63 13z
" />
    <glyph glyph-name="glyph277" unicode="&#x1a0;" horiz-adv-x="611" 
d="M467 389c1.33301 200.667 -53.002 301 -163.002 301c-107.333 0 -160.333 -100.333 -159 -301c0.666992 -119.333 10.334 -201.666 29.001 -246.999c23.333 -56.667 67.333 -85 132 -85s108.667 28.333 132 85c18.667 45.333 28.334 127.666 29.001 246.999zM476.998 698
c51.333 -58 76.666 -160.332 75.999 -306.999c-0.666992 -127.333 -14.667 -221.333 -42 -282c-38 -84.667 -106.333 -127 -205 -127s-167 42.333 -205 127c-27.333 60.667 -41.333 154.667 -42 282c-0.666992 110 13 194.333 41 253c39.333 80.667 108.666 121 207.999 121
c63.333 0 113.333 -16.333 150 -49c4.66699 4 16.334 10.667 35.001 20l20 10c32.667 16 49 36.667 49 62c0 22.667 -12.667 34 -38 34c-14.667 0 -27.667 -11 -39 -33l-28 5c18.667 36 42.334 54 71.001 54c8 0 16.667 -1.66699 26 -5c27.333 -10 41 -29.667 41 -59
c0 -31.333 -17 -55 -51 -71l-57 -27c-4 -2.66699 -7.33301 -5.33398 -10 -8.00098z" />
    <glyph glyph-name="glyph278" unicode="&#x1a1;" 
d="M367 272c0 66 -5 115 -15 147c-17.333 56.667 -51.333 85 -102 85c-50 0 -84 -28.333 -102 -85c-10 -32 -15 -81 -15 -147c0 -146.667 39 -220 117 -220c49.333 0 83 26.333 101 79c10.667 31.333 16 78.333 16 141zM389 513c40 -46.667 59.9961 -118.667 59.9961 -216
c0 -90.667 -11 -160 -33 -208c-31.333 -69.333 -86.666 -104 -165.999 -104s-134.666 34.667 -165.999 104c-22 48 -33 117.333 -33 208c0 182.667 66.333 274 199 274c50 0 91 -14 123 -42c2.66699 -0.666992 7.33398 0.666016 14.001 3.99902c14 10 23.333 23.667 28 41
l-28 5l11 40h59c-3.33301 -13.333 -9.66602 -32.666 -18.999 -57.999c-5.33301 -20.667 -21.333 -36.667 -48 -48h-1z" />
    <glyph glyph-name="glyph279" unicode="&#x1af;" horiz-adv-x="611" 
d="M531 718l0.00195312 -536.999c0 -67.333 -21.333 -118 -64 -152c-38.667 -31.333 -92.334 -47 -161.001 -47s-122.334 15.667 -161.001 47c-42.667 34 -64 84.667 -64 152v569h83v-539c0 -102.667 47.333 -154 142 -154s142 51.333 142 154v539h83v-1
c21.333 15.333 32 32.666 32 51.999c0 24 -9 37.333 -27 40c-4.66699 0.666992 -8.66699 1 -12 1c-19.333 0 -31.666 -12.667 -36.999 -38h-28c9.33301 42.667 31.333 64 66 64c19.333 0 35.833 -6.33301 49.5 -19s20.5 -28.667 20.5 -48c0 -21.333 -8.66699 -40 -26 -56
c-4.66699 -4 -17.334 -13 -38.001 -27z" />
    <glyph glyph-name="glyph280" unicode="&#x1b0;" 
d="M424 519v-518.999h-79v73h-2c-28 -58.667 -72 -88 -132 -88c-89.333 0 -134 47.333 -134 142v429h79v-432c0 -48 23.667 -72 71 -72c78.667 0 118 49 118 147v357h79v-1c2.66699 7.33301 4 15.666 4 24.999h-27v40h56c0 -26 -0.333008 -42.333 -1 -49
c0 -18.667 -10.667 -36 -32 -52z" />
    <glyph glyph-name="circumflex" unicode="&#x2c6;" horiz-adv-x="333" 
d="M233 624l-66 94l-66 -94h-80l99 141h93l100 -141h-80z" />
    <glyph glyph-name="caron" unicode="&#x2c7;" horiz-adv-x="333" 
d="M101 765l66 -94l66 94h80l-100 -141h-93l-99 141h80z" />
    <glyph glyph-name="breve" unicode="&#x2d8;" horiz-adv-x="333" 
d="M12 765h49.001c11.333 -51.333 46.666 -77 105.999 -77c58 0 93 25.667 105 77h49c-4 -90.667 -56.667 -136 -158 -136c-96.667 0 -147 45.333 -151 136z" />
    <glyph glyph-name="dotaccent" unicode="&#x2d9;" horiz-adv-x="250" 
d="M165 650h-79v100h79v-100z" />
    <glyph glyph-name="ring" unicode="&#x2da;" horiz-adv-x="250" 
d="M125 593c-28 0 -51.999 10 -71.999 30s-30 44 -30 72c0 27.333 10.167 51 30.5 71s44.166 30 71.499 30c28 0 52 -9.83301 72 -29.5s30 -43.5 30 -71.5s-10 -52 -30 -72s-44 -30 -72 -30zM125.001 756c-16 0 -30.333 -6.16699 -43 -18.5s-19 -26.5 -19 -42.5
c0 -16.667 6.16699 -31.167 18.5 -43.5s26.833 -18.5 43.5 -18.5s31.167 6.16699 43.5 18.5s18.5 26.833 18.5 43.5c0 16 -6.33301 30.167 -19 42.5s-27 18.5 -43 18.5z" />
    <glyph glyph-name="ogonek" unicode="&#x2db;" horiz-adv-x="333" 
d="M29 13l66.999 0.000976562c-18 -28 -27 -56.333 -27 -85c0 -35.333 21.667 -51.333 65 -48c18.667 -0.666992 34 2 46 8c4 2 13.333 8.66699 28 20v-79c-28.667 -13.333 -56.667 -20 -84 -20c-34 0 -62.333 7.66699 -85 23c-26.667 18 -39.667 43 -39 75
c0.666992 29.333 10.334 64.666 29.001 105.999z" />
    <glyph glyph-name="tilde" unicode="&#x2dc;" horiz-adv-x="333" 
d="M289 749h48c-2.66699 -31.333 -12.334 -56.666 -29.001 -75.999c-18.667 -22 -43 -33 -73 -33c-14 0 -37.667 6 -71 18c-37.333 13.333 -61.666 20 -72.999 20s-21.5 -4.66699 -30.5 -14s-14.167 -19.666 -15.5 -30.999h-48c2.66699 31.333 12.334 56.666 29.001 75.999
c18.667 22 43 33 73 33c14 0 37.667 -6 71 -18c37.333 -13.333 61.666 -20 72.999 -20s21.5 4.66699 30.5 14s14.167 19.666 15.5 30.999z" />
    <glyph glyph-name="hungarumlaut" unicode="&#x2dd;" horiz-adv-x="333" 
d="M61 624l89 141h109l-131 -141h-67zM242 624l89 141h109l-131 -141h-67z" />
    <glyph glyph-name="glyph281" unicode="&#x1ea0;" horiz-adv-x="556" 
d="M11 0l214 750h110l211 -750h-92l-59 216h-237l-55 -216h-92zM376 291l-97 399h-2l-99 -399h198zM317 -119h-77v84h77v-84z" />
    <glyph glyph-name="glyph282" unicode="&#x1ea1;" horiz-adv-x="444" 
d="M287 165l0.000976562 135c-8 -4.66699 -49.667 -24.667 -125 -60c-32.667 -15.333 -49 -47.333 -49 -96c0 -30.667 5 -53 15 -67c12 -16.667 33 -25 63 -25c29.333 0 52.666 11.333 69.999 34s26 49 26 79zM417.001 58l0.000976562 -58.001
c-8 -1.33301 -14 -2.66602 -18 -3.99902c-36 -1.33301 -60.667 3 -74 13s-22 32 -26 66h-2c-10 -25.333 -26.333 -46.666 -49 -63.999s-47.334 -26 -74.001 -26c-52 0 -89.667 14.667 -113 44c-20 26 -30 65.667 -30 119c0 68 26.667 113 80 135l167 70
c10 8 15 29.333 15 64c0 31.333 -6.83301 53.666 -20.5 66.999s-36.167 20 -67.5 20c-33.333 0 -56 -8.33301 -68 -25c-9.33301 -14 -13.666 -38.333 -12.999 -73h-71c-4 110 51 165 165 165c100.667 0 151 -50.333 151 -151v-319c0 -23.333 4.66699 -37.333 14 -42
c7.33301 -2 18.666 -2.33301 33.999 -1zM252.002 -121.001h-69v76h69v-76z" />
    <glyph glyph-name="glyph283" unicode="&#x1ea2;" horiz-adv-x="556" 
d="M11 0l214 750h110l211 -750h-92l-59 216h-237l-55 -216h-92zM376 291l-97 399h-2l-99 -399h198zM296 785l-30.998 0.00195312c0 21.333 0.833008 34.833 2.5 40.5s8.5 15.5 20.5 29.5l31 37c4.66699 6 7 13.667 7 23c0 13.333 -4 24.833 -12 34.5s-18.333 14.5 -31 14.5
c-30.667 0 -45.334 -21.667 -44.001 -65h-34c-2 26.667 3.66699 49 17 67s33 27 59 27c23.333 0 43.333 -6.66699 60 -20s25 -31.333 25 -54c0 -20.667 -7.33301 -38.334 -22 -53.001l-45 -45c-2.66699 -4.66699 -4.33398 -8.33398 -5.00098 -11.001s-1 -5 -1 -7
s0.333008 -4 1 -6c1.33301 -6 2 -10 2 -12z" />
    <glyph glyph-name="glyph284" unicode="&#x1ea3;" horiz-adv-x="444" 
d="M287 165l0.000976562 135c-8 -4.66699 -49.667 -24.667 -125 -60c-32.667 -15.333 -49 -47.333 -49 -96c0 -30.667 5 -53 15 -67c12 -16.667 33 -25 63 -25c29.333 0 52.666 11.333 69.999 34s26 49 26 79zM417.001 58l0.000976562 -58.001
c-8 -1.33301 -14 -2.66602 -18 -3.99902c-36 -1.33301 -60.667 3 -74 13s-22 32 -26 66h-2c-10 -25.333 -26.333 -46.666 -49 -63.999s-47.334 -26 -74.001 -26c-52 0 -89.667 14.667 -113 44c-20 26 -30 65.667 -30 119c0 68 26.667 113 80 135l167 70
c10 8 15 29.333 15 64c0 31.333 -6.83301 53.666 -20.5 66.999s-36.167 20 -67.5 20c-33.333 0 -56 -8.33301 -68 -25c-9.33301 -14 -13.666 -38.333 -12.999 -73h-71c-4 110 51 165 165 165c100.667 0 151 -50.333 151 -151v-319c0 -23.333 4.66699 -37.333 14 -42
c7.33301 -2 18.666 -2.33301 33.999 -1zM233.002 612.999l-30.998 0.00195312c0 21.333 0.833008 34.833 2.5 40.5s8.5 15.5 20.5 29.5l31 37c4.66699 6 7 13.667 7 23c0 13.333 -4 24.833 -12 34.5s-18.333 14.5 -31 14.5c-30.667 0 -45.334 -21.667 -44.001 -65h-34
c-2 26.667 3.66699 49 17 67s33 27 59 27c23.333 0 43.333 -6.66699 60 -20s25 -31.333 25 -54c0 -20.667 -7.33301 -38.334 -22 -53.001l-45 -45c-2.66699 -4.66699 -4.33398 -8.33398 -5.00098 -11.001s-1 -5 -1 -7s0.333008 -4 1 -6c1.33301 -6 2 -10 2 -12z" />
    <glyph glyph-name="glyph285" unicode="&#x1ea4;" horiz-adv-x="556" 
d="M11 0l214 750h110l211 -750h-92l-59 216h-237l-55 -216h-92zM376 291l-97 399h-2l-99 -399h198zM333 778l-53 75l-53 -75h-64l79 112h75l80 -112h-64zM396 853l80 127h98l-118 -127h-60z" />
    <glyph glyph-name="glyph286" unicode="&#x1ea5;" horiz-adv-x="444" 
d="M287 165l0.000976562 135c-8 -4.66699 -49.667 -24.667 -125 -60c-32.667 -15.333 -49 -47.333 -49 -96c0 -30.667 5 -53 15 -67c12 -16.667 33 -25 63 -25c29.333 0 52.666 11.333 69.999 34s26 49 26 79zM417.001 58l0.000976562 -58.001
c-8 -1.33301 -14 -2.66602 -18 -3.99902c-36 -1.33301 -60.667 3 -74 13s-22 32 -26 66h-2c-10 -25.333 -26.333 -46.666 -49 -63.999s-47.334 -26 -74.001 -26c-52 0 -89.667 14.667 -113 44c-20 26 -30 65.667 -30 119c0 68 26.667 113 80 135l167 70
c10 8 15 29.333 15 64c0 31.333 -6.83301 53.666 -20.5 66.999s-36.167 20 -67.5 20c-33.333 0 -56 -8.33301 -68 -25c-9.33301 -14 -13.666 -38.333 -12.999 -73h-71c-4 110 51 165 165 165c100.667 0 151 -50.333 151 -151v-319c0 -23.333 4.66699 -37.333 14 -42
c7.33301 -2 18.666 -2.33301 33.999 -1zM266.002 597.999l-48 67l-48 -67h-57l71 100h67l72 -100h-57zM322.002 664.999l72 114h89l-107 -114h-54z" />
    <glyph glyph-name="glyph287" unicode="&#x1ea6;" horiz-adv-x="556" 
d="M11 0l214 750h110l211 -750h-92l-59 216h-237l-55 -216h-92zM376 291l-97 399h-2l-99 -399h198zM333 778l-53 75l-53 -75h-64l79 112h75l80 -112h-64zM-16 980h98l80 -127h-60z" />
    <glyph glyph-name="glyph288" unicode="&#x1ea7;" horiz-adv-x="444" 
d="M287 165l0.000976562 135c-8 -4.66699 -49.667 -24.667 -125 -60c-32.667 -15.333 -49 -47.333 -49 -96c0 -30.667 5 -53 15 -67c12 -16.667 33 -25 63 -25c29.333 0 52.666 11.333 69.999 34s26 49 26 79zM417.001 58l0.000976562 -58.001
c-8 -1.33301 -14 -2.66602 -18 -3.99902c-36 -1.33301 -60.667 3 -74 13s-22 32 -26 66h-2c-10 -25.333 -26.333 -46.666 -49 -63.999s-47.334 -26 -74.001 -26c-52 0 -89.667 14.667 -113 44c-20 26 -30 65.667 -30 119c0 68 26.667 113 80 135l167 70
c10 8 15 29.333 15 64c0 31.333 -6.83301 53.666 -20.5 66.999s-36.167 20 -67.5 20c-33.333 0 -56 -8.33301 -68 -25c-9.33301 -14 -13.666 -38.333 -12.999 -73h-71c-4 110 51 165 165 165c100.667 0 151 -50.333 151 -151v-319c0 -23.333 4.66699 -37.333 14 -42
c7.33301 -2 18.666 -2.33301 33.999 -1zM265.002 597.999l-47 67l-48 -67h-57l71 100h67l72 -100h-58zM-48.998 778.999h89l72 -114h-54z" />
    <glyph glyph-name="glyph289" unicode="&#x1ea8;" horiz-adv-x="556" 
d="M11 0l214 750h110l211 -750h-92l-59 216h-237l-55 -216h-92zM376 291l-97 399h-2l-99 -399h198zM333 778l-53 75l-53 -75h-64l79 112h75l80 -112h-64zM447 833l-30.998 0.00195312c0 21.333 0.833008 34.833 2.5 40.5s8.5 15.5 20.5 29.5l31 37c4.66699 6 7 13.667 7 23
c0 13.333 -4 24.833 -12 34.5s-18.333 14.5 -31 14.5c-30.667 0 -45.334 -21.667 -44.001 -65h-34c-2 26.667 3.66699 49 17 67s33 27 59 27c23.333 0 43.333 -6.66699 60 -20s25 -31.333 25 -54c0 -20.667 -7.33301 -38.334 -22 -53.001l-45 -45
c-2.66699 -4.66699 -4.33398 -8.33398 -5.00098 -11.001s-1 -5 -1 -7s0.333008 -4 1 -6c1.33301 -6 2 -10 2 -12z" />
    <glyph glyph-name="glyph290" unicode="&#x1ea9;" horiz-adv-x="444" 
d="M287 165l0.000976562 135c-8 -4.66699 -49.667 -24.667 -125 -60c-32.667 -15.333 -49 -47.333 -49 -96c0 -30.667 5 -53 15 -67c12 -16.667 33 -25 63 -25c29.333 0 52.666 11.333 69.999 34s26 49 26 79zM417.001 58l0.000976562 -58.001
c-8 -1.33301 -14 -2.66602 -18 -3.99902c-36 -1.33301 -60.667 3 -74 13s-22 32 -26 66h-2c-10 -25.333 -26.333 -46.666 -49 -63.999s-47.334 -26 -74.001 -26c-52 0 -89.667 14.667 -113 44c-20 26 -30 65.667 -30 119c0 68 26.667 113 80 135l167 70
c10 8 15 29.333 15 64c0 31.333 -6.83301 53.666 -20.5 66.999s-36.167 20 -67.5 20c-33.333 0 -56 -8.33301 -68 -25c-9.33301 -14 -13.666 -38.333 -12.999 -73h-71c-4 110 51 165 165 165c100.667 0 151 -50.333 151 -151v-319c0 -23.333 4.66699 -37.333 14 -42
c7.33301 -2 18.666 -2.33301 33.999 -1zM265.002 597.999l-48 68l-48 -68h-57l71 101h67l72 -101h-57zM384.002 648.999l-30.998 0.00195312c0 21.333 0.833008 34.833 2.5 40.5s8.5 15.5 20.5 29.5l31 37c4.66699 6 7 13.667 7 23c0 13.333 -4 24.833 -12 34.5
s-18.333 14.5 -31 14.5c-30.667 0 -45.334 -21.667 -44.001 -65h-34c-2 26.667 3.66699 49 17 67s33 27 59 27c23.333 0 43.333 -6.66699 60 -20s25 -31.333 25 -54c0 -20.667 -7.33301 -38.334 -22 -53.001l-45 -45c-2.66699 -4.66699 -4.33398 -8.33398 -5.00098 -11.001
s-1 -5 -1 -7s0.333008 -4 1 -6c1.33301 -6 2 -10 2 -12z" />
    <glyph glyph-name="glyph291" unicode="&#x1eaa;" horiz-adv-x="556" 
d="M11 0l214 750h110l211 -750h-92l-59 216h-237l-55 -216h-92zM376 291l-97 399h-2l-99 -399h198zM333 778l-53 75l-53 -75h-64l79 112h75l80 -112h-64zM378 1002h37.999c-2 -24.667 -10.167 -45.334 -24.5 -62.001s-33.5 -25 -57.5 -25c-9.33301 0 -28 5 -56 15
c-34 12 -53.667 18 -59 18c-8.66699 0 -16.667 -4.16699 -24 -12.5s-11.666 -16.833 -12.999 -25.5h-38c2 24.667 10.167 45.334 24.5 62.001s33.5 25 57.5 25c8.66699 0 27.334 -5 56.001 -15c34 -12 53.667 -18 59 -18c8.66699 0 16.667 4.16699 24 12.5
s11.666 16.833 12.999 25.5z" />
    <glyph glyph-name="glyph292" unicode="&#x1eab;" horiz-adv-x="444" 
d="M287 165l0.000976562 135c-8 -4.66699 -49.667 -24.667 -125 -60c-32.667 -15.333 -49 -47.333 -49 -96c0 -30.667 5 -53 15 -67c12 -16.667 33 -25 63 -25c29.333 0 52.666 11.333 69.999 34s26 49 26 79zM417.001 58l0.000976562 -58.001
c-8 -1.33301 -14 -2.66602 -18 -3.99902c-36 -1.33301 -60.667 3 -74 13s-22 32 -26 66h-2c-10 -25.333 -26.333 -46.666 -49 -63.999s-47.334 -26 -74.001 -26c-52 0 -89.667 14.667 -113 44c-20 26 -30 65.667 -30 119c0 68 26.667 113 80 135l167 70
c10 8 15 29.333 15 64c0 31.333 -6.83301 53.666 -20.5 66.999s-36.167 20 -67.5 20c-33.333 0 -56 -8.33301 -68 -25c-9.33301 -14 -13.666 -38.333 -12.999 -73h-71c-4 110 51 165 165 165c100.667 0 151 -50.333 151 -151v-319c0 -23.333 4.66699 -37.333 14 -42
c7.33301 -2 18.666 -2.33301 33.999 -1zM265.002 597.999l-48 68l-48 -68h-57l71 101h67l72 -101h-57zM305.002 799.999h33.999c-1.33301 -22 -8.66602 -40.667 -21.999 -56s-30.666 -23 -51.999 -23c-5.33301 0 -22 4.66699 -50 14c-32 10.667 -49.667 16 -53 16
c-7.33301 0 -14.333 -3.66699 -21 -11s-10.667 -15 -12 -23h-34c3.33301 52 27.666 78 72.999 78c9.33301 0 26.333 -4.33301 51 -13c30 -10.667 47.667 -16 53 -16c18.667 0 29.667 11.333 33 34z" />
    <glyph glyph-name="glyph293" unicode="&#x1eac;" horiz-adv-x="556" 
d="M11 0l214 750h110l211 -750h-92l-59 216h-237l-55 -216h-92zM376 291l-97 399h-2l-99 -399h198zM333 778l-53 75l-53 -75h-64l79 112h75l80 -112h-64zM317 -119h-77v84h77v-84z" />
    <glyph glyph-name="glyph294" unicode="&#x1ead;" horiz-adv-x="444" 
d="M287 165l0.000976562 135c-8 -4.66699 -49.667 -24.667 -125 -60c-32.667 -15.333 -49 -47.333 -49 -96c0 -30.667 5 -53 15 -67c12 -16.667 33 -25 63 -25c29.333 0 52.666 11.333 69.999 34s26 49 26 79zM417.001 58l0.000976562 -58.001
c-8 -1.33301 -14 -2.66602 -18 -3.99902c-36 -1.33301 -60.667 3 -74 13s-22 32 -26 66h-2c-10 -25.333 -26.333 -46.666 -49 -63.999s-47.334 -26 -74.001 -26c-52 0 -89.667 14.667 -113 44c-20 26 -30 65.667 -30 119c0 68 26.667 113 80 135l167 70
c10 8 15 29.333 15 64c0 31.333 -6.83301 53.666 -20.5 66.999s-36.167 20 -67.5 20c-33.333 0 -56 -8.33301 -68 -25c-9.33301 -14 -13.666 -38.333 -12.999 -73h-71c-4 110 51 165 165 165c100.667 0 151 -50.333 151 -151v-319c0 -23.333 4.66699 -37.333 14 -42
c7.33301 -2 18.666 -2.33301 33.999 -1zM266.002 597.999l-48 67l-48 -67h-57l71 100h67l72 -100h-57zM252.002 -121.001h-69v76h69v-76z" />
    <glyph glyph-name="glyph295" unicode="&#x1eae;" horiz-adv-x="556" 
d="M11 0l214 750h110l211 -750h-92l-59 216h-237l-55 -216h-92zM376 291l-97 399h-2l-99 -399h198zM156 895h39.001c9.33301 -41.333 37.666 -62 84.999 -62c46 0 74 20.667 84 62h39c-2.66699 -72.667 -44.667 -109 -126 -109c-78 0 -118.333 36.333 -121 109zM250.001 895
l80 127h98l-118 -127h-60z" />
    <glyph glyph-name="glyph296" unicode="&#x1eaf;" horiz-adv-x="444" 
d="M287 165l0.000976562 135c-8 -4.66699 -49.667 -24.667 -125 -60c-32.667 -15.333 -49 -47.333 -49 -96c0 -30.667 5 -53 15 -67c12 -16.667 33 -25 63 -25c29.333 0 52.666 11.333 69.999 34s26 49 26 79zM417.001 58l0.000976562 -58.001
c-8 -1.33301 -14 -2.66602 -18 -3.99902c-36 -1.33301 -60.667 3 -74 13s-22 32 -26 66h-2c-10 -25.333 -26.333 -46.666 -49 -63.999s-47.334 -26 -74.001 -26c-52 0 -89.667 14.667 -113 44c-20 26 -30 65.667 -30 119c0 68 26.667 113 80 135l167 70
c10 8 15 29.333 15 64c0 31.333 -6.83301 53.666 -20.5 66.999s-36.167 20 -67.5 20c-33.333 0 -56 -8.33301 -68 -25c-9.33301 -14 -13.666 -38.333 -12.999 -73h-71c-4 110 51 165 165 165c100.667 0 151 -50.333 151 -151v-319c0 -23.333 4.66699 -37.333 14 -42
c7.33301 -2 18.666 -2.33301 33.999 -1zM108.002 704.999h34.999c8.66699 -37.333 34.334 -56 77.001 -56c42 0 67 18.667 75 56h36c-2.66699 -65.333 -40.667 -98 -114 -98c-70 0 -106.333 32.667 -109 98zM193.001 704.999l72 114h88l-106 -114h-54z" />
    <glyph glyph-name="glyph297" unicode="&#x1eb0;" horiz-adv-x="556" 
d="M11 0l214 750h110l211 -750h-92l-59 216h-237l-55 -216h-92zM376 291l-97 399h-2l-99 -399h198zM156 895h39.001c9.33301 -41.333 37.666 -62 84.999 -62c46 0 74 20.667 84 62h39c-2.66699 -72.667 -44.667 -109 -126 -109c-78 0 -118.333 36.333 -121 109z
M132.001 1022h98l80 -127h-60z" />
    <glyph glyph-name="glyph298" unicode="&#x1eb1;" horiz-adv-x="444" 
d="M287 165l0.000976562 135c-8 -4.66699 -49.667 -24.667 -125 -60c-32.667 -15.333 -49 -47.333 -49 -96c0 -30.667 5 -53 15 -67c12 -16.667 33 -25 63 -25c29.333 0 52.666 11.333 69.999 34s26 49 26 79zM417.001 58l0.000976562 -58.001
c-8 -1.33301 -14 -2.66602 -18 -3.99902c-36 -1.33301 -60.667 3 -74 13s-22 32 -26 66h-2c-10 -25.333 -26.333 -46.666 -49 -63.999s-47.334 -26 -74.001 -26c-52 0 -89.667 14.667 -113 44c-20 26 -30 65.667 -30 119c0 68 26.667 113 80 135l167 70
c10 8 15 29.333 15 64c0 31.333 -6.83301 53.666 -20.5 66.999s-36.167 20 -67.5 20c-33.333 0 -56 -8.33301 -68 -25c-9.33301 -14 -13.666 -38.333 -12.999 -73h-71c-4 110 51 165 165 165c100.667 0 151 -50.333 151 -151v-319c0 -23.333 4.66699 -37.333 14 -42
c7.33301 -2 18.666 -2.33301 33.999 -1zM110.002 704.999h34.999c8.66699 -37.333 34.334 -56 77.001 -56c42 0 67 18.667 75 56h36c-2.66699 -65.333 -40.667 -98 -114 -98c-70 0 -106.333 32.667 -109 98zM89.001 818.999h88l72 -114h-54z" />
    <glyph glyph-name="glyph299" unicode="&#x1eb2;" horiz-adv-x="556" 
d="M11 0l214 750h110l211 -750h-92l-59 216h-237l-55 -216h-92zM376 291l-97 399h-2l-99 -399h198zM156 895h39.001c9.33301 -41.333 37.666 -62 84.999 -62c46 0 74 20.667 84 62h39c-2.66699 -72.667 -44.667 -109 -126 -109c-78 0 -118.333 36.333 -121 109zM296.001 885
l-29.999 -0.00292969c0 18.667 0.666992 30.334 2 35.001s8 13.334 20 26.001c24.667 26.667 37 46.334 37 59.001c0 30 -14 45 -42 45c-29.333 0 -43.333 -20.667 -42 -62h-32c-2 26 3.16699 47.667 15.5 65s31.166 26 56.499 26c22 0 41.5 -6.33301 58.5 -19
s25.5 -29.667 25.5 -51c0 -18.667 -7.66699 -35 -23 -49c-6.66699 -5.33301 -16.5 -14 -29.5 -26s-19.5 -23 -19.5 -33c0 -1.33301 0.5 -3.83301 1.5 -7.5s1.5 -6.5 1.5 -8.5z" />
    <glyph glyph-name="glyph300" unicode="&#x1eb3;" horiz-adv-x="444" 
d="M287 165l0.000976562 135c-8 -4.66699 -49.667 -24.667 -125 -60c-32.667 -15.333 -49 -47.333 -49 -96c0 -30.667 5 -53 15 -67c12 -16.667 33 -25 63 -25c29.333 0 52.666 11.333 69.999 34s26 49 26 79zM417.001 58l0.000976562 -58.001
c-8 -1.33301 -14 -2.66602 -18 -3.99902c-36 -1.33301 -60.667 3 -74 13s-22 32 -26 66h-2c-10 -25.333 -26.333 -46.666 -49 -63.999s-47.334 -26 -74.001 -26c-52 0 -89.667 14.667 -113 44c-20 26 -30 65.667 -30 119c0 68 26.667 113 80 135l167 70
c10 8 15 29.333 15 64c0 31.333 -6.83301 53.666 -20.5 66.999s-36.167 20 -67.5 20c-33.333 0 -56 -8.33301 -68 -25c-9.33301 -14 -13.666 -38.333 -12.999 -73h-71c-4 110 51 165 165 165c100.667 0 151 -50.333 151 -151v-319c0 -23.333 4.66699 -37.333 14 -42
c7.33301 -2 18.666 -2.33301 33.999 -1zM108.002 705.999h34.999c8.66699 -37.333 34.334 -56 77.001 -56c42 0 67 18.667 75 56h36c-2.66699 -65.333 -40.667 -98 -114 -98c-70 0 -106.333 32.667 -109 98zM236.001 698.999l-29.999 -0.00292969
c0 18.667 0.666992 30.334 2 35.001s8 13.334 20 26.001c24.667 26.667 37 46.334 37 59.001c0 30 -14 45 -42 45c-29.333 0 -43.333 -20.667 -42 -62h-32c-2 26 3.16699 47.667 15.5 65s31.166 26 56.499 26c22 0 41.5 -6.33301 58.5 -19s25.5 -29.667 25.5 -51
c0 -18.667 -7.66699 -35 -23 -49c-6.66699 -5.33301 -16.5 -14 -29.5 -26s-19.5 -23 -19.5 -33c0 -1.33301 0.5 -3.83301 1.5 -7.5s1.5 -6.5 1.5 -8.5z" />
    <glyph glyph-name="glyph301" unicode="&#x1eb4;" horiz-adv-x="556" 
d="M11 0l214 750h110l211 -750h-92l-59 216h-237l-55 -216h-92zM376 291l-97 399h-2l-99 -399h198zM156 895h39.001c9.33301 -41.333 37.666 -62 84.999 -62c46 0 74 20.667 84 62h39c-2.66699 -72.667 -44.667 -109 -126 -109c-78 0 -118.333 36.333 -121 109z
M495.001 1008h37.999c-2 -24.667 -10.167 -45.334 -24.5 -62.001s-33.5 -25 -57.5 -25c-9.33301 0 -28 5 -56 15c-34 12 -53.667 18 -59 18c-8.66699 0 -16.667 -4.16699 -24 -12.5s-11.666 -16.833 -12.999 -25.5h-38c2 24.667 10.167 45.334 24.5 62.001s33.5 25 57.5 25
c8.66699 0 27.334 -5 56.001 -15c34 -12 53.667 -18 59 -18c8.66699 0 16.667 4.16699 24 12.5s11.666 16.833 12.999 25.5z" />
    <glyph glyph-name="glyph302" unicode="&#x1eb5;" horiz-adv-x="444" 
d="M287 165l0.000976562 135c-8 -4.66699 -49.667 -24.667 -125 -60c-32.667 -15.333 -49 -47.333 -49 -96c0 -30.667 5 -53 15 -67c12 -16.667 33 -25 63 -25c29.333 0 52.666 11.333 69.999 34s26 49 26 79zM417.001 58l0.000976562 -58.001
c-8 -1.33301 -14 -2.66602 -18 -3.99902c-36 -1.33301 -60.667 3 -74 13s-22 32 -26 66h-2c-10 -25.333 -26.333 -46.666 -49 -63.999s-47.334 -26 -74.001 -26c-52 0 -89.667 14.667 -113 44c-20 26 -30 65.667 -30 119c0 68 26.667 113 80 135l167 70
c10 8 15 29.333 15 64c0 31.333 -6.83301 53.666 -20.5 66.999s-36.167 20 -67.5 20c-33.333 0 -56 -8.33301 -68 -25c-9.33301 -14 -13.666 -38.333 -12.999 -73h-71c-4 110 51 165 165 165c100.667 0 151 -50.333 151 -151v-319c0 -23.333 4.66699 -37.333 14 -42
c7.33301 -2 18.666 -2.33301 33.999 -1zM109.002 705.999h35.002c8.66699 -37.333 34 -56 76 -56c41.333 0 66.666 18.667 75.999 56h35c-2.66699 -65.333 -40.334 -98 -113.001 -98c-70.667 0 -107 32.667 -109 98zM414.004 807.999h34.002c-5.33301 -52 -30 -78 -74 -78
c-6.66699 0 -23.334 4.33301 -50.001 13c-33.333 10.667 -51 16 -53 16c-8 0 -15.333 -3.66699 -22 -11s-10.667 -15 -12 -23h-34c2 22 9.5 40.5 22.5 55.5s30.167 22.5 51.5 22.5c10 0 26.667 -4.33301 50 -13c29.333 -10.667 47 -16 53 -16
c19.333 0 30.666 11.333 33.999 34z" />
    <glyph glyph-name="glyph303" unicode="&#x1eb6;" horiz-adv-x="556" 
d="M11 0l214 750h110l211 -750h-92l-59 216h-237l-55 -216h-92zM376 291l-97 399h-2l-99 -399h198zM317 -119h-77v84h77v-84zM166 895h39.001c9.33301 -41.333 37.666 -62 84.999 -62c46 0 74 20.667 84 62h39c-2.66699 -72.667 -44.667 -109 -126 -109
c-78 0 -118.333 36.333 -121 109z" />
    <glyph glyph-name="glyph304" unicode="&#x1eb7;" horiz-adv-x="444" 
d="M287 165l0.000976562 135c-8 -4.66699 -49.667 -24.667 -125 -60c-32.667 -15.333 -49 -47.333 -49 -96c0 -30.667 5 -53 15 -67c12 -16.667 33 -25 63 -25c29.333 0 52.666 11.333 69.999 34s26 49 26 79zM417.001 58l0.000976562 -58.001
c-8 -1.33301 -14 -2.66602 -18 -3.99902c-36 -1.33301 -60.667 3 -74 13s-22 32 -26 66h-2c-10 -25.333 -26.333 -46.666 -49 -63.999s-47.334 -26 -74.001 -26c-52 0 -89.667 14.667 -113 44c-20 26 -30 65.667 -30 119c0 68 26.667 113 80 135l167 70
c10 8 15 29.333 15 64c0 31.333 -6.83301 53.666 -20.5 66.999s-36.167 20 -67.5 20c-33.333 0 -56 -8.33301 -68 -25c-9.33301 -14 -13.666 -38.333 -12.999 -73h-71c-4 110 51 165 165 165c100.667 0 151 -50.333 151 -151v-319c0 -23.333 4.66699 -37.333 14 -42
c7.33301 -2 18.666 -2.33301 33.999 -1zM252.002 -121.001h-69v76h69v-76zM108.002 704.999h34.999c8.66699 -37.333 34.334 -56 77.001 -56c42 0 67 18.667 75 56h36c-2.66699 -65.333 -40.667 -98 -114 -98c-70 0 -106.333 32.667 -109 98z" />
    <glyph glyph-name="glyph305" unicode="&#x1eb8;" 
d="M451 0h-377v750h375v-75h-292v-248h274v-75h-274v-277h294v-75zM300 -129h-77v84h77v-84z" />
    <glyph glyph-name="glyph306" unicode="&#x1eb9;" horiz-adv-x="444" 
d="M125 336h188c-2.66699 55.333 -6.66699 91.333 -12 108c-12.667 40 -39 60 -79 60c-40.667 0 -68 -19.667 -82 -59c-7.33301 -20.667 -12.333 -57 -15 -109zM317 185h74.002c2.66699 -58 -10 -105 -38 -141c-30 -39.333 -73.333 -59 -130 -59c-120 0 -180 98 -180 294
c0 76 11 139 33 189c30 68.667 78.333 103 145 103c78.667 0 129.667 -33.667 153 -101c10.667 -30.667 17.667 -97 21 -199h-270c2 -76 5 -122 9 -138c13.333 -54 43.666 -81 90.999 -81c34.667 0 60 14.333 76 43c13.333 24 18.666 54 15.999 90zM253.002 -131h-69v76h69
v-76z" />
    <glyph glyph-name="glyph307" unicode="&#x1eba;" 
d="M451 0h-377v750h375v-75h-292v-248h274v-75h-274v-277h294v-75zM276 786l-30.998 0.00195312c0 21.333 0.833008 34.833 2.5 40.5s8.5 15.5 20.5 29.5l31 37c4.66699 6 7 13.667 7 23c0 13.333 -4 24.833 -12 34.5s-18.333 14.5 -31 14.5
c-30.667 0 -45.334 -21.667 -44.001 -65h-34c-2 26.667 3.66699 49 17 67s33 27 59 27c23.333 0 43.333 -6.66699 60 -20s25 -31.333 25 -54c0 -20.667 -7.33301 -38.334 -22 -53.001l-45 -45c-2.66699 -4.66699 -4.33398 -8.33398 -5.00098 -11.001s-1 -5 -1 -7
s0.333008 -4 1 -6c1.33301 -6 2 -10 2 -12z" />
    <glyph glyph-name="glyph308" unicode="&#x1ebb;" horiz-adv-x="444" 
d="M125 336h188c-2.66699 55.333 -6.66699 91.333 -12 108c-12.667 40 -39 60 -79 60c-40.667 0 -68 -19.667 -82 -59c-7.33301 -20.667 -12.333 -57 -15 -109zM317 185h74.002c2.66699 -58 -10 -105 -38 -141c-30 -39.333 -73.333 -59 -130 -59c-120 0 -180 98 -180 294
c0 76 11 139 33 189c30 68.667 78.333 103 145 103c78.667 0 129.667 -33.667 153 -101c10.667 -30.667 17.667 -97 21 -199h-270c2 -76 5 -122 9 -138c13.333 -54 43.666 -81 90.999 -81c34.667 0 60 14.333 76 43c13.333 24 18.666 54 15.999 90zM233.002 613
l-30.998 0.00195312c0 21.333 0.833008 34.833 2.5 40.5s8.5 15.5 20.5 29.5l31 37c4.66699 6 7 13.667 7 23c0 13.333 -4 24.833 -12 34.5s-18.333 14.5 -31 14.5c-30.667 0 -45.334 -21.667 -44.001 -65h-34c-2 26.667 3.66699 49 17 67s33 27 59 27
c23.333 0 43.333 -6.66699 60 -20s25 -31.333 25 -54c0 -20.667 -7.33301 -38.334 -22 -53.001l-45 -45c-2.66699 -4.66699 -4.33398 -8.33398 -5.00098 -11.001s-1 -5 -1 -7s0.333008 -4 1 -6c1.33301 -6 2 -10 2 -12z" />
    <glyph glyph-name="glyph309" unicode="&#x1ebc;" 
d="M451 0h-377v750h375v-75h-292v-248h274v-75h-274v-277h294v-75zM359 906h37.999c-2 -24.667 -10.167 -45.334 -24.5 -62.001s-33.5 -25 -57.5 -25c-9.33301 0 -28 5 -56 15c-34 12 -53.667 18 -59 18c-8.66699 0 -16.667 -4.16699 -24 -12.5
s-11.666 -16.833 -12.999 -25.5h-38c2 24.667 10.167 45.334 24.5 62.001s33.5 25 57.5 25c8.66699 0 27.334 -5 56.001 -15c34 -12 53.667 -18 59 -18c8.66699 0 16.667 4.16699 24 12.5s11.666 16.833 12.999 25.5z" />
    <glyph glyph-name="glyph310" unicode="&#x1ebd;" horiz-adv-x="444" 
d="M125 336h188c-2.66699 55.333 -6.66699 91.333 -12 108c-12.667 40 -39 60 -79 60c-40.667 0 -68 -19.667 -82 -59c-7.33301 -20.667 -12.333 -57 -15 -109zM317 185h74.002c2.66699 -58 -10 -105 -38 -141c-30 -39.333 -73.333 -59 -130 -59c-120 0 -180 98 -180 294
c0 76 11 139 33 189c30 68.667 78.333 103 145 103c78.667 0 129.667 -33.667 153 -101c10.667 -30.667 17.667 -97 21 -199h-270c2 -76 5 -122 9 -138c13.333 -54 43.666 -81 90.999 -81c34.667 0 60 14.333 76 43c13.333 24 18.666 54 15.999 90zM305.002 711h33.999
c-1.33301 -22 -8.66602 -40.667 -21.999 -56s-30.666 -23 -51.999 -23c-5.33301 0 -22 4.66699 -50 14c-32 10.667 -49.667 16 -53 16c-7.33301 0 -14.333 -3.66699 -21 -11s-10.667 -15 -12 -23h-34c3.33301 52 27.666 78 72.999 78c9.33301 0 26.333 -4.33301 51 -13
c30 -10.667 47.667 -16 53 -16c18.667 0 29.667 11.333 33 34z" />
    <glyph glyph-name="glyph311" unicode="&#x1ebe;" 
d="M451 0h-377v750h375v-75h-292v-248h274v-75h-274v-277h294v-75zM314 786l-53 75l-53 -75h-64l79 112h75l80 -112h-64zM377 861l80 127h98l-118 -127h-60z" />
    <glyph glyph-name="glyph312" unicode="&#x1ebf;" horiz-adv-x="444" 
d="M125 336h188c-2.66699 55.333 -6.66699 91.333 -12 108c-12.667 40 -39 60 -79 60c-40.667 0 -68 -19.667 -82 -59c-7.33301 -20.667 -12.333 -57 -15 -109zM317 185h74.002c2.66699 -58 -10 -105 -38 -141c-30 -39.333 -73.333 -59 -130 -59c-120 0 -180 98 -180 294
c0 76 11 139 33 189c30 68.667 78.333 103 145 103c78.667 0 129.667 -33.667 153 -101c10.667 -30.667 17.667 -97 21 -199h-270c2 -76 5 -122 9 -138c13.333 -54 43.666 -81 90.999 -81c34.667 0 60 14.333 76 43c13.333 24 18.666 54 15.999 90zM266.002 598l-48 67
l-48 -67h-57l71 100h67l72 -100h-57zM322.002 665l72 114h89l-107 -114h-54z" />
    <glyph glyph-name="glyph313" unicode="&#x1ec0;" 
d="M451 0h-377v750h375v-75h-292v-248h274v-75h-274v-277h294v-75zM314 785l-53 75l-53 -75h-64l79 112h75l80 -112h-64zM-35 987h98l80 -127h-60z" />
    <glyph glyph-name="glyph314" unicode="&#x1ec1;" horiz-adv-x="444" 
d="M125 336h188c-2.66699 55.333 -6.66699 91.333 -12 108c-12.667 40 -39 60 -79 60c-40.667 0 -68 -19.667 -82 -59c-7.33301 -20.667 -12.333 -57 -15 -109zM317 185h74.002c2.66699 -58 -10 -105 -38 -141c-30 -39.333 -73.333 -59 -130 -59c-120 0 -180 98 -180 294
c0 76 11 139 33 189c30 68.667 78.333 103 145 103c78.667 0 129.667 -33.667 153 -101c10.667 -30.667 17.667 -97 21 -199h-270c2 -76 5 -122 9 -138c13.333 -54 43.666 -81 90.999 -81c34.667 0 60 14.333 76 43c13.333 24 18.666 54 15.999 90zM265.002 598l-47 67
l-48 -67h-57l71 100h67l72 -100h-58zM-48.998 779h89l72 -114h-54z" />
    <glyph glyph-name="glyph315" unicode="&#x1ec2;" 
d="M451 0h-377v750h375v-75h-292v-248h274v-75h-274v-277h294v-75zM314 786l-53 75l-53 -75h-64l79 112h75l80 -112h-64zM428 841l-30.998 0.00195312c0 21.333 0.833008 34.833 2.5 40.5s8.5 15.5 20.5 29.5l31 37c4.66699 6 7 13.667 7 23c0 13.333 -4 24.833 -12 34.5
s-18.333 14.5 -31 14.5c-30.667 0 -45.334 -21.667 -44.001 -65h-34c-2 26.667 3.66699 49 17 67s33 27 59 27c23.333 0 43.333 -6.66699 60 -20s25 -31.333 25 -54c0 -20.667 -7.33301 -38.334 -22 -53.001l-45 -45c-2.66699 -4.66699 -4.33398 -8.33398 -5.00098 -11.001
s-1 -5 -1 -7s0.333008 -4 1 -6c1.33301 -6 2 -10 2 -12z" />
    <glyph glyph-name="glyph316" unicode="&#x1ec3;" horiz-adv-x="444" 
d="M125 336h188c-2.66699 55.333 -6.66699 91.333 -12 108c-12.667 40 -39 60 -79 60c-40.667 0 -68 -19.667 -82 -59c-7.33301 -20.667 -12.333 -57 -15 -109zM317 185h74.002c2.66699 -58 -10 -105 -38 -141c-30 -39.333 -73.333 -59 -130 -59c-120 0 -180 98 -180 294
c0 76 11 139 33 189c30 68.667 78.333 103 145 103c78.667 0 129.667 -33.667 153 -101c10.667 -30.667 17.667 -97 21 -199h-270c2 -76 5 -122 9 -138c13.333 -54 43.666 -81 90.999 -81c34.667 0 60 14.333 76 43c13.333 24 18.666 54 15.999 90zM265.002 598l-48 68
l-48 -68h-57l71 101h67l72 -101h-57zM384.002 649l-30.998 0.00195312c0 21.333 0.833008 34.833 2.5 40.5s8.5 15.5 20.5 29.5l31 37c4.66699 6 7 13.667 7 23c0 13.333 -4 24.833 -12 34.5s-18.333 14.5 -31 14.5c-30.667 0 -45.334 -21.667 -44.001 -65h-34
c-2 26.667 3.66699 49 17 67s33 27 59 27c23.333 0 43.333 -6.66699 60 -20s25 -31.333 25 -54c0 -20.667 -7.33301 -38.334 -22 -53.001l-45 -45c-2.66699 -4.66699 -4.33398 -8.33398 -5.00098 -11.001s-1 -5 -1 -7s0.333008 -4 1 -6c1.33301 -6 2 -10 2 -12z" />
    <glyph glyph-name="glyph317" unicode="&#x1ec4;" 
d="M451 0h-377v750h375v-75h-292v-248h274v-75h-274v-277h294v-75zM314 785l-53 75l-53 -75h-64l79 112h75l80 -112h-64zM359 1009h37.999c-2 -24.667 -10.167 -45.334 -24.5 -62.001s-33.5 -25 -57.5 -25c-9.33301 0 -28 5 -56 15c-34 12 -53.667 18 -59 18
c-8.66699 0 -16.667 -4.16699 -24 -12.5s-11.666 -16.833 -12.999 -25.5h-38c2 24.667 10.167 45.334 24.5 62.001s33.5 25 57.5 25c8.66699 0 27.334 -5 56.001 -15c34 -12 53.667 -18 59 -18c8.66699 0 16.667 4.16699 24 12.5s11.666 16.833 12.999 25.5z" />
    <glyph glyph-name="glyph318" unicode="&#x1ec5;" horiz-adv-x="444" 
d="M125 336h188c-2.66699 55.333 -6.66699 91.333 -12 108c-12.667 40 -39 60 -79 60c-40.667 0 -68 -19.667 -82 -59c-7.33301 -20.667 -12.333 -57 -15 -109zM317 185h74.002c2.66699 -58 -10 -105 -38 -141c-30 -39.333 -73.333 -59 -130 -59c-120 0 -180 98 -180 294
c0 76 11 139 33 189c30 68.667 78.333 103 145 103c78.667 0 129.667 -33.667 153 -101c10.667 -30.667 17.667 -97 21 -199h-270c2 -76 5 -122 9 -138c13.333 -54 43.666 -81 90.999 -81c34.667 0 60 14.333 76 43c13.333 24 18.666 54 15.999 90zM265.002 598l-48 68
l-48 -68h-57l71 101h67l72 -101h-57zM305.002 800h33.999c-1.33301 -22 -8.66602 -40.667 -21.999 -56s-30.666 -23 -51.999 -23c-5.33301 0 -22 4.66699 -50 14c-32 10.667 -49.667 16 -53 16c-7.33301 0 -14.333 -3.66699 -21 -11s-10.667 -15 -12 -23h-34
c3.33301 52 27.666 78 72.999 78c9.33301 0 26.333 -4.33301 51 -13c30 -10.667 47.667 -16 53 -16c18.667 0 29.667 11.333 33 34z" />
    <glyph glyph-name="glyph319" unicode="&#x1ec6;" 
d="M451 0h-377v750h375v-75h-292v-248h274v-75h-274v-277h294v-75zM314 786l-53 75l-53 -75h-64l79 112h75l80 -112h-64zM300 -129h-77v84h77v-84z" />
    <glyph glyph-name="glyph320" unicode="&#x1ec7;" horiz-adv-x="444" 
d="M125 336h188c-2.66699 55.333 -6.66699 91.333 -12 108c-12.667 40 -39 60 -79 60c-40.667 0 -68 -19.667 -82 -59c-7.33301 -20.667 -12.333 -57 -15 -109zM317 185h74.002c2.66699 -58 -10 -105 -38 -141c-30 -39.333 -73.333 -59 -130 -59c-120 0 -180 98 -180 294
c0 76 11 139 33 189c30 68.667 78.333 103 145 103c78.667 0 129.667 -33.667 153 -101c10.667 -30.667 17.667 -97 21 -199h-270c2 -76 5 -122 9 -138c13.333 -54 43.666 -81 90.999 -81c34.667 0 60 14.333 76 43c13.333 24 18.666 54 15.999 90zM266.002 598l-48 67
l-48 -67h-57l71 100h67l72 -100h-57zM253.002 -131h-69v76h69v-76z" />
    <glyph glyph-name="glyph321" unicode="&#x1ec8;" horiz-adv-x="278" 
d="M181 0h-83v750h83v-750zM153 785l-30.998 0.00195312c0 21.333 0.833008 34.833 2.5 40.5s8.5 15.5 20.5 29.5l31 37c4.66699 6 7 13.667 7 23c0 13.333 -4 24.833 -12 34.5s-18.333 14.5 -31 14.5c-30.667 0 -45.334 -21.667 -44.001 -65h-34
c-2 26.667 3.66699 49 17 67s33 27 59 27c23.333 0 43.333 -6.66699 60 -20s25 -31.333 25 -54c0 -20.667 -7.33301 -38.334 -22 -53.001l-45 -45c-2.66699 -4.66699 -4.33398 -8.33398 -5.00098 -11.001s-1 -5 -1 -7s0.333008 -4 1 -6c1.33301 -6 2 -10 2 -12z" />
    <glyph glyph-name="glyph322" unicode="&#x1ec9;" horiz-adv-x="222" 
d="M151 0h-79v556h79v-556zM126 598l-30.998 0.00195312c0 21.333 0.833008 34.833 2.5 40.5s8.5 15.5 20.5 29.5l31 37c4.66699 6 7 13.667 7 23c0 13.333 -4 24.833 -12 34.5s-18.333 14.5 -31 14.5c-30.667 0 -45.334 -21.667 -44.001 -65h-34
c-2 26.667 3.66699 49 17 67s33 27 59 27c23.333 0 43.333 -6.66699 60 -20s25 -31.333 25 -54c0 -20.667 -7.33301 -38.334 -22 -53.001l-45 -45c-2.66699 -4.66699 -4.33398 -8.33398 -5.00098 -11.001s-1 -5 -1 -7s0.333008 -4 1 -6c1.33301 -6 2 -10 2 -12z" />
    <glyph glyph-name="glyph323" unicode="&#x1eca;" horiz-adv-x="278" 
d="M181 0h-83v750h83v-750zM178 -130h-77v84h77v-84z" />
    <glyph glyph-name="glyph324" unicode="&#x1ecb;" horiz-adv-x="222" 
d="M151 0h-79v556h79v-556zM146 -121h-69v76h69v-76zM146 616h-69v76h69v-76z" />
    <glyph glyph-name="glyph325" unicode="&#x1ecc;" horiz-adv-x="611" 
d="M59 391c-0.666992 110 13.002 194.333 41.002 253c39.333 80.667 108.666 121 207.999 121c98 0 166.333 -40.667 205 -122c27.333 -58 40.666 -142 39.999 -252c-0.666992 -127.333 -14.667 -221.333 -42 -282c-38 -84.667 -106.333 -127 -205 -127
s-167 42.333 -205 127c-27.333 60.667 -41.333 154.667 -42 282zM467.002 389c1.33301 200.667 -53.002 301 -163.002 301c-107.333 0 -160.333 -100.333 -159 -301c0.666992 -119.333 10.334 -201.666 29.001 -246.999c23.333 -56.667 67.333 -85 132 -85
s108.667 28.333 132 85c18.667 45.333 28.334 127.666 29.001 246.999zM346 -143h-77v84h77v-84z" />
    <glyph glyph-name="glyph326" unicode="&#x1ecd;" 
d="M449 297c0 -90.667 -11.002 -160 -33.002 -208c-31.333 -69.333 -86.666 -104 -165.999 -104s-134.666 34.667 -165.999 104c-22 48 -33 117.333 -33 208c0 182.667 66.333 274 199 274s199 -91.333 199 -274zM366.998 272c0 66 -5 115 -15 147
c-17.333 56.667 -51.333 85 -102 85c-50 0 -84 -28.333 -102 -85c-10 -32 -15 -81 -15 -147c0 -146.667 39 -220 117 -220c49.333 0 83 26.333 101 79c10.667 31.333 16 78.333 16 141zM282.998 -131h-69v76h69v-76z" />
    <glyph glyph-name="glyph327" unicode="&#x1ece;" horiz-adv-x="611" 
d="M59 391c-0.666992 110 13.002 194.333 41.002 253c39.333 80.667 108.666 121 207.999 121c98 0 166.333 -40.667 205 -122c27.333 -58 40.666 -142 39.999 -252c-0.666992 -127.333 -14.667 -221.333 -42 -282c-38 -84.667 -106.333 -127 -205 -127
s-167 42.333 -205 127c-27.333 60.667 -41.333 154.667 -42 282zM467.002 389c1.33301 200.667 -53.002 301 -163.002 301c-107.333 0 -160.333 -100.333 -159 -301c0.666992 -119.333 10.334 -201.666 29.001 -246.999c23.333 -56.667 67.333 -85 132 -85
s108.667 28.333 132 85c18.667 45.333 28.334 127.666 29.001 246.999zM323 804l-30.998 0.00195312c0 21.333 0.833008 34.833 2.5 40.5s8.5 15.5 20.5 29.5l31 37c4.66699 6 7 13.667 7 23c0 13.333 -4 24.833 -12 34.5s-18.333 14.5 -31 14.5
c-30.667 0 -45.334 -21.667 -44.001 -65h-34c-2 26.667 3.66699 49 17 67s33 27 59 27c23.333 0 43.333 -6.66699 60 -20s25 -31.333 25 -54c0 -20.667 -7.33301 -38.334 -22 -53.001l-45 -45c-2.66699 -4.66699 -4.33398 -8.33398 -5.00098 -11.001s-1 -5 -1 -7
s0.333008 -4 1 -6c1.33301 -6 2 -10 2 -12z" />
    <glyph glyph-name="glyph328" unicode="&#x1ecf;" 
d="M449 297c0 -90.667 -11.002 -160 -33.002 -208c-31.333 -69.333 -86.666 -104 -165.999 -104s-134.666 34.667 -165.999 104c-22 48 -33 117.333 -33 208c0 182.667 66.333 274 199 274s199 -91.333 199 -274zM366.998 272c0 66 -5 115 -15 147
c-17.333 56.667 -51.333 85 -102 85c-50 0 -84 -28.333 -102 -85c-10 -32 -15 -81 -15 -147c0 -146.667 39 -220 117 -220c49.333 0 83 26.333 101 79c10.667 31.333 16 78.333 16 141zM264.998 613l-30.998 0.00195312c0 21.333 0.833008 34.833 2.5 40.5
s8.5 15.5 20.5 29.5l31 37c4.66699 6 7 13.667 7 23c0 13.333 -4 24.833 -12 34.5s-18.333 14.5 -31 14.5c-30.667 0 -45.334 -21.667 -44.001 -65h-34c-2 26.667 3.66699 49 17 67s33 27 59 27c23.333 0 43.333 -6.66699 60 -20s25 -31.333 25 -54
c0 -20.667 -7.33301 -38.334 -22 -53.001l-45 -45c-2.66699 -4.66699 -4.33398 -8.33398 -5.00098 -11.001s-1 -5 -1 -7s0.333008 -4 1 -6c1.33301 -6 2 -10 2 -12z" />
    <glyph glyph-name="glyph329" unicode="&#x1ed0;" horiz-adv-x="611" 
d="M59 391c-0.666992 110 13.002 194.333 41.002 253c39.333 80.667 108.666 121 207.999 121c98 0 166.333 -40.667 205 -122c27.333 -58 40.666 -142 39.999 -252c-0.666992 -127.333 -14.667 -221.333 -42 -282c-38 -84.667 -106.333 -127 -205 -127
s-167 42.333 -205 127c-27.333 60.667 -41.333 154.667 -42 282zM467.002 389c1.33301 200.667 -53.002 301 -163.002 301c-107.333 0 -160.333 -100.333 -159 -301c0.666992 -119.333 10.334 -201.666 29.001 -246.999c23.333 -56.667 67.333 -85 132 -85
s108.667 28.333 132 85c18.667 45.333 28.334 127.666 29.001 246.999zM361 778l-53 75l-53 -75h-64l79 112h75l80 -112h-64zM424 853l80 127h98l-118 -127h-60z" />
    <glyph glyph-name="glyph330" unicode="&#x1ed1;" 
d="M449 297c0 -90.667 -11.002 -160 -33.002 -208c-31.333 -69.333 -86.666 -104 -165.999 -104s-134.666 34.667 -165.999 104c-22 48 -33 117.333 -33 208c0 182.667 66.333 274 199 274s199 -91.333 199 -274zM366.998 272c0 66 -5 115 -15 147
c-17.333 56.667 -51.333 85 -102 85c-50 0 -84 -28.333 -102 -85c-10 -32 -15 -81 -15 -147c0 -146.667 39 -220 117 -220c49.333 0 83 26.333 101 79c10.667 31.333 16 78.333 16 141zM297.998 598l-48 67l-48 -67h-57l71 100h67l72 -100h-57zM353.998 665l72 114h89
l-107 -114h-54z" />
    <glyph glyph-name="glyph331" unicode="&#x1ed2;" horiz-adv-x="611" 
d="M59 391c-0.666992 110 13.002 194.333 41.002 253c39.333 80.667 108.666 121 207.999 121c98 0 166.333 -40.667 205 -122c27.333 -58 40.666 -142 39.999 -252c-0.666992 -127.333 -14.667 -221.333 -42 -282c-38 -84.667 -106.333 -127 -205 -127
s-167 42.333 -205 127c-27.333 60.667 -41.333 154.667 -42 282zM467.002 389c1.33301 200.667 -53.002 301 -163.002 301c-107.333 0 -160.333 -100.333 -159 -301c0.666992 -119.333 10.334 -201.666 29.001 -246.999c23.333 -56.667 67.333 -85 132 -85
s108.667 28.333 132 85c18.667 45.333 28.334 127.666 29.001 246.999zM360 778l-53 75l-53 -75h-64l79 112h75l80 -112h-64zM11 980h98l80 -127h-60z" />
    <glyph glyph-name="glyph332" unicode="&#x1ed3;" 
d="M449 297c0 -90.667 -11.002 -160 -33.002 -208c-31.333 -69.333 -86.666 -104 -165.999 -104s-134.666 34.667 -165.999 104c-22 48 -33 117.333 -33 208c0 182.667 66.333 274 199 274s199 -91.333 199 -274zM366.998 272c0 66 -5 115 -15 147
c-17.333 56.667 -51.333 85 -102 85c-50 0 -84 -28.333 -102 -85c-10 -32 -15 -81 -15 -147c0 -146.667 39 -220 117 -220c49.333 0 83 26.333 101 79c10.667 31.333 16 78.333 16 141zM296.998 598l-47 67l-48 -67h-57l71 100h67l72 -100h-58zM-17.002 779h89l72 -114h-54z
" />
    <glyph glyph-name="glyph333" unicode="&#x1ed4;" horiz-adv-x="611" 
d="M59 391c-0.666992 110 13.002 194.333 41.002 253c39.333 80.667 108.666 121 207.999 121c98 0 166.333 -40.667 205 -122c27.333 -58 40.666 -142 39.999 -252c-0.666992 -127.333 -14.667 -221.333 -42 -282c-38 -84.667 -106.333 -127 -205 -127
s-167 42.333 -205 127c-27.333 60.667 -41.333 154.667 -42 282zM467.002 389c1.33301 200.667 -53.002 301 -163.002 301c-107.333 0 -160.333 -100.333 -159 -301c0.666992 -119.333 10.334 -201.666 29.001 -246.999c23.333 -56.667 67.333 -85 132 -85
s108.667 28.333 132 85c18.667 45.333 28.334 127.666 29.001 246.999zM361 778l-53 75l-53 -75h-64l79 112h75l80 -112h-64zM475 833l-30.998 0.00195312c0 21.333 0.833008 34.833 2.5 40.5s8.5 15.5 20.5 29.5l31 37c4.66699 6 7 13.667 7 23
c0 13.333 -4 24.833 -12 34.5s-18.333 14.5 -31 14.5c-30.667 0 -45.334 -21.667 -44.001 -65h-34c-2 26.667 3.66699 49 17 67s33 27 59 27c23.333 0 43.333 -6.66699 60 -20s25 -31.333 25 -54c0 -20.667 -7.33301 -38.334 -22 -53.001l-45 -45
c-2.66699 -4.66699 -4.33398 -8.33398 -5.00098 -11.001s-1 -5 -1 -7s0.333008 -4 1 -6c1.33301 -6 2 -10 2 -12z" />
    <glyph glyph-name="glyph334" unicode="&#x1ed5;" 
d="M449 297c0 -90.667 -11.002 -160 -33.002 -208c-31.333 -69.333 -86.666 -104 -165.999 -104s-134.666 34.667 -165.999 104c-22 48 -33 117.333 -33 208c0 182.667 66.333 274 199 274s199 -91.333 199 -274zM366.998 272c0 66 -5 115 -15 147
c-17.333 56.667 -51.333 85 -102 85c-50 0 -84 -28.333 -102 -85c-10 -32 -15 -81 -15 -147c0 -146.667 39 -220 117 -220c49.333 0 83 26.333 101 79c10.667 31.333 16 78.333 16 141zM297.998 598l-48 68l-48 -68h-57l71 101h67l72 -101h-57zM416.998 649
l-30.998 0.00195312c0 21.333 0.833008 34.833 2.5 40.5s8.5 15.5 20.5 29.5l31 37c4.66699 6 7 13.667 7 23c0 13.333 -4 24.833 -12 34.5s-18.333 14.5 -31 14.5c-30.667 0 -45.334 -21.667 -44.001 -65h-34c-2 26.667 3.66699 49 17 67s33 27 59 27
c23.333 0 43.333 -6.66699 60 -20s25 -31.333 25 -54c0 -20.667 -7.33301 -38.334 -22 -53.001l-45 -45c-2.66699 -4.66699 -4.33398 -8.33398 -5.00098 -11.001s-1 -5 -1 -7s0.333008 -4 1 -6c1.33301 -6 2 -10 2 -12z" />
    <glyph glyph-name="glyph335" unicode="&#x1ed6;" horiz-adv-x="611" 
d="M59 391c-0.666992 110 13.002 194.333 41.002 253c39.333 80.667 108.666 121 207.999 121c98 0 166.333 -40.667 205 -122c27.333 -58 40.666 -142 39.999 -252c-0.666992 -127.333 -14.667 -221.333 -42 -282c-38 -84.667 -106.333 -127 -205 -127
s-167 42.333 -205 127c-27.333 60.667 -41.333 154.667 -42 282zM467.002 389c1.33301 200.667 -53.002 301 -163.002 301c-107.333 0 -160.333 -100.333 -159 -301c0.666992 -119.333 10.334 -201.666 29.001 -246.999c23.333 -56.667 67.333 -85 132 -85
s108.667 28.333 132 85c18.667 45.333 28.334 127.666 29.001 246.999zM361 778l-53 75l-53 -75h-64l79 112h75l80 -112h-64zM406 1002h37.999c-2 -24.667 -10.167 -45.334 -24.5 -62.001s-33.5 -25 -57.5 -25c-9.33301 0 -28 5 -56 15c-34 12 -53.667 18 -59 18
c-8.66699 0 -16.667 -4.16699 -24 -12.5s-11.666 -16.833 -12.999 -25.5h-38c2 24.667 10.167 45.334 24.5 62.001s33.5 25 57.5 25c8.66699 0 27.334 -5 56.001 -15c34 -12 53.667 -18 59 -18c8.66699 0 16.667 4.16699 24 12.5s11.666 16.833 12.999 25.5z" />
    <glyph glyph-name="glyph336" unicode="&#x1ed7;" 
d="M449 297c0 -90.667 -11.002 -160 -33.002 -208c-31.333 -69.333 -86.666 -104 -165.999 -104s-134.666 34.667 -165.999 104c-22 48 -33 117.333 -33 208c0 182.667 66.333 274 199 274s199 -91.333 199 -274zM366.998 272c0 66 -5 115 -15 147
c-17.333 56.667 -51.333 85 -102 85c-50 0 -84 -28.333 -102 -85c-10 -32 -15 -81 -15 -147c0 -146.667 39 -220 117 -220c49.333 0 83 26.333 101 79c10.667 31.333 16 78.333 16 141zM296.998 598l-48 68l-48 -68h-57l71 101h67l72 -101h-57zM336.998 800h33.999
c-1.33301 -22 -8.66602 -40.667 -21.999 -56s-30.666 -23 -51.999 -23c-5.33301 0 -22 4.66699 -50 14c-32 10.667 -49.667 16 -53 16c-7.33301 0 -14.333 -3.66699 -21 -11s-10.667 -15 -12 -23h-34c3.33301 52 27.666 78 72.999 78c9.33301 0 26.333 -4.33301 51 -13
c30 -10.667 47.667 -16 53 -16c18.667 0 29.667 11.333 33 34z" />
    <glyph glyph-name="glyph337" unicode="&#x1ed8;" horiz-adv-x="611" 
d="M59 391c-0.666992 110 13.002 194.333 41.002 253c39.333 80.667 108.666 121 207.999 121c98 0 166.333 -40.667 205 -122c27.333 -58 40.666 -142 39.999 -252c-0.666992 -127.333 -14.667 -221.333 -42 -282c-38 -84.667 -106.333 -127 -205 -127
s-167 42.333 -205 127c-27.333 60.667 -41.333 154.667 -42 282zM467.002 389c1.33301 200.667 -53.002 301 -163.002 301c-107.333 0 -160.333 -100.333 -159 -301c0.666992 -119.333 10.334 -201.666 29.001 -246.999c23.333 -56.667 67.333 -85 132 -85
s108.667 28.333 132 85c18.667 45.333 28.334 127.666 29.001 246.999zM361 778l-53 75l-53 -75h-64l79 112h75l80 -112h-64zM346 -143h-77v84h77v-84z" />
    <glyph glyph-name="glyph338" unicode="&#x1ed9;" 
d="M449 297c0 -90.667 -11.002 -160 -33.002 -208c-31.333 -69.333 -86.666 -104 -165.999 -104s-134.666 34.667 -165.999 104c-22 48 -33 117.333 -33 208c0 182.667 66.333 274 199 274s199 -91.333 199 -274zM366.998 272c0 66 -5 115 -15 147
c-17.333 56.667 -51.333 85 -102 85c-50 0 -84 -28.333 -102 -85c-10 -32 -15 -81 -15 -147c0 -146.667 39 -220 117 -220c49.333 0 83 26.333 101 79c10.667 31.333 16 78.333 16 141zM297.998 598l-48 67l-48 -67h-57l71 100h67l72 -100h-57zM282.998 -131h-69v76h69v-76z
" />
    <glyph glyph-name="glyph339" unicode="&#x1eda;" horiz-adv-x="611" 
d="M467 389c1.33301 200.667 -53.002 301 -163.002 301c-107.333 0 -160.333 -100.333 -159 -301c0.666992 -119.333 10.334 -201.666 29.001 -246.999c23.333 -56.667 67.333 -85 132 -85s108.667 28.333 132 85c18.667 45.333 28.334 127.666 29.001 246.999zM476.998 698
c51.333 -58 76.666 -160.332 75.999 -306.999c-0.666992 -127.333 -14.667 -221.333 -42 -282c-38 -84.667 -106.333 -127 -205 -127s-167 42.333 -205 127c-27.333 60.667 -41.333 154.667 -42 282c-0.666992 110 13 194.333 41 253c39.333 80.667 108.666 121 207.999 121
c63.333 0 113.333 -16.333 150 -49c4.66699 4 16.334 10.667 35.001 20l20 10c32.667 16 49 36.667 49 62c0 22.667 -12.667 34 -38 34c-14.667 0 -27.667 -11 -39 -33l-28 5c18.667 36 42.334 54 71.001 54c8 0 16.667 -1.66699 26 -5c27.333 -10 41 -29.667 41 -59
c0 -31.333 -17 -55 -51 -71l-57 -27c-4 -2.66699 -7.33301 -5.33398 -10 -8.00098zM277.998 828.001l80 127h98l-118 -127h-60z" />
    <glyph glyph-name="glyph340" unicode="&#x1edb;" 
d="M367 272c0 66 -5 115 -15 147c-17.333 56.667 -51.333 85 -102 85c-50 0 -84 -28.333 -102 -85c-10 -32 -15 -81 -15 -147c0 -146.667 39 -220 117 -220c49.333 0 83 26.333 101 79c10.667 31.333 16 78.333 16 141zM389 513c40 -46.667 59.9961 -118.667 59.9961 -216
c0 -90.667 -11 -160 -33 -208c-31.333 -69.333 -86.666 -104 -165.999 -104s-134.666 34.667 -165.999 104c-22 48 -33 117.333 -33 208c0 182.667 66.333 274 199 274c50 0 91 -14 123 -42c2.66699 -0.666992 7.33398 0.666016 14.001 3.99902c14 10 23.333 23.667 28 41
l-28 5l11 40h59c-3.33301 -13.333 -9.66602 -32.666 -18.999 -57.999c-5.33301 -20.667 -21.333 -36.667 -48 -48h-1zM220.996 628l72 114h89l-107 -114h-54z" />
    <glyph glyph-name="glyph341" unicode="&#x1edc;" horiz-adv-x="611" 
d="M467 389c1.33301 200.667 -53.002 301 -163.002 301c-107.333 0 -160.333 -100.333 -159 -301c0.666992 -119.333 10.334 -201.666 29.001 -246.999c23.333 -56.667 67.333 -85 132 -85s108.667 28.333 132 85c18.667 45.333 28.334 127.666 29.001 246.999zM476.998 698
c51.333 -58 76.666 -160.332 75.999 -306.999c-0.666992 -127.333 -14.667 -221.333 -42 -282c-38 -84.667 -106.333 -127 -205 -127s-167 42.333 -205 127c-27.333 60.667 -41.333 154.667 -42 282c-0.666992 110 13 194.333 41 253c39.333 80.667 108.666 121 207.999 121
c63.333 0 113.333 -16.333 150 -49c4.66699 4 16.334 10.667 35.001 20l20 10c32.667 16 49 36.667 49 62c0 22.667 -12.667 34 -38 34c-14.667 0 -27.667 -11 -39 -33l-28 5c18.667 36 42.334 54 71.001 54c8 0 16.667 -1.66699 26 -5c27.333 -10 41 -29.667 41 -59
c0 -31.333 -17 -55 -51 -71l-57 -27c-4 -2.66699 -7.33301 -5.33398 -10 -8.00098zM158.998 955.001h98l80 -127h-60z" />
    <glyph glyph-name="glyph342" unicode="&#x1edd;" 
d="M367 272c0 66 -5 115 -15 147c-17.333 56.667 -51.333 85 -102 85c-50 0 -84 -28.333 -102 -85c-10 -32 -15 -81 -15 -147c0 -146.667 39 -220 117 -220c49.333 0 83 26.333 101 79c10.667 31.333 16 78.333 16 141zM389 513c40 -46.667 59.9961 -118.667 59.9961 -216
c0 -90.667 -11 -160 -33 -208c-31.333 -69.333 -86.666 -104 -165.999 -104s-134.666 34.667 -165.999 104c-22 48 -33 117.333 -33 208c0 182.667 66.333 274 199 274c50 0 91 -14 123 -42c2.66699 -0.666992 7.33398 0.666016 14.001 3.99902c14 10 23.333 23.667 28 41
l-28 5l11 40h59c-3.33301 -13.333 -9.66602 -32.666 -18.999 -57.999c-5.33301 -20.667 -21.333 -36.667 -48 -48h-1zM113.996 742h89l72 -114h-54z" />
    <glyph glyph-name="glyph343" unicode="&#x1ede;" horiz-adv-x="611" 
d="M467 389c1.33301 200.667 -53.002 301 -163.002 301c-107.333 0 -160.333 -100.333 -159 -301c0.666992 -119.333 10.334 -201.666 29.001 -246.999c23.333 -56.667 67.333 -85 132 -85s108.667 28.333 132 85c18.667 45.333 28.334 127.666 29.001 246.999zM476.998 698
c51.333 -58 76.666 -160.332 75.999 -306.999c-0.666992 -127.333 -14.667 -221.333 -42 -282c-38 -84.667 -106.333 -127 -205 -127s-167 42.333 -205 127c-27.333 60.667 -41.333 154.667 -42 282c-0.666992 110 13 194.333 41 253c39.333 80.667 108.666 121 207.999 121
c63.333 0 113.333 -16.333 150 -49c4.66699 4 16.334 10.667 35.001 20l20 10c32.667 16 49 36.667 49 62c0 22.667 -12.667 34 -38 34c-14.667 0 -27.667 -11 -39 -33l-28 5c18.667 36 42.334 54 71.001 54c8 0 16.667 -1.66699 26 -5c27.333 -10 41 -29.667 41 -59
c0 -31.333 -17 -55 -51 -71l-57 -27c-4 -2.66699 -7.33301 -5.33398 -10 -8.00098zM322.998 819.001l-30.998 0.00195312c0 21.333 0.833008 34.833 2.5 40.5s8.5 15.5 20.5 29.5l31 37c4.66699 6 7 13.667 7 23c0 13.333 -4 24.833 -12 34.5s-18.333 14.5 -31 14.5
c-30.667 0 -45.334 -21.667 -44.001 -65h-34c-2 26.667 3.66699 49 17 67s33 27 59 27c23.333 0 43.333 -6.66699 60 -20s25 -31.333 25 -54c0 -20.667 -7.33301 -38.334 -22 -53.001l-45 -45c-2.66699 -4.66699 -4.33398 -8.33398 -5.00098 -11.001s-1 -5 -1 -7
s0.333008 -4 1 -6c1.33301 -6 2 -10 2 -12z" />
    <glyph glyph-name="glyph344" unicode="&#x1edf;" 
d="M367 272c0 66 -5 115 -15 147c-17.333 56.667 -51.333 85 -102 85c-50 0 -84 -28.333 -102 -85c-10 -32 -15 -81 -15 -147c0 -146.667 39 -220 117 -220c49.333 0 83 26.333 101 79c10.667 31.333 16 78.333 16 141zM389 513c40 -46.667 59.9961 -118.667 59.9961 -216
c0 -90.667 -11 -160 -33 -208c-31.333 -69.333 -86.666 -104 -165.999 -104s-134.666 34.667 -165.999 104c-22 48 -33 117.333 -33 208c0 182.667 66.333 274 199 274c50 0 91 -14 123 -42c2.66699 -0.666992 7.33398 0.666016 14.001 3.99902c14 10 23.333 23.667 28 41
l-28 5l11 40h59c-3.33301 -13.333 -9.66602 -32.666 -18.999 -57.999c-5.33301 -20.667 -21.333 -36.667 -48 -48h-1zM264.996 618l-30.998 0.00195312c0 21.333 0.833008 34.833 2.5 40.5s8.5 15.5 20.5 29.5l31 37c4.66699 6 7 13.667 7 23c0 13.333 -4 24.833 -12 34.5
s-18.333 14.5 -31 14.5c-30.667 0 -45.334 -21.667 -44.001 -65h-34c-2 26.667 3.66699 49 17 67s33 27 59 27c23.333 0 43.333 -6.66699 60 -20s25 -31.333 25 -54c0 -20.667 -7.33301 -38.334 -22 -53.001l-45 -45c-2.66699 -4.66699 -4.33398 -8.33398 -5.00098 -11.001
s-1 -5 -1 -7s0.333008 -4 1 -6c1.33301 -6 2 -10 2 -12z" />
    <glyph glyph-name="glyph345" unicode="&#x1ee0;" horiz-adv-x="611" 
d="M467 389c1.33301 200.667 -53.002 301 -163.002 301c-107.333 0 -160.333 -100.333 -159 -301c0.666992 -119.333 10.334 -201.666 29.001 -246.999c23.333 -56.667 67.333 -85 132 -85s108.667 28.333 132 85c18.667 45.333 28.334 127.666 29.001 246.999zM476.998 698
c51.333 -58 76.666 -160.332 75.999 -306.999c-0.666992 -127.333 -14.667 -221.333 -42 -282c-38 -84.667 -106.333 -127 -205 -127s-167 42.333 -205 127c-27.333 60.667 -41.333 154.667 -42 282c-0.666992 110 13 194.333 41 253c39.333 80.667 108.666 121 207.999 121
c63.333 0 113.333 -16.333 150 -49c4.66699 4 16.334 10.667 35.001 20l20 10c32.667 16 49 36.667 49 62c0 22.667 -12.667 34 -38 34c-14.667 0 -27.667 -11 -39 -33l-28 5c18.667 36 42.334 54 71.001 54c8 0 16.667 -1.66699 26 -5c27.333 -10 41 -29.667 41 -59
c0 -31.333 -17 -55 -51 -71l-57 -27c-4 -2.66699 -7.33301 -5.33398 -10 -8.00098zM405.998 925.001h37.999c-2 -24.667 -10.167 -45.334 -24.5 -62.001s-33.5 -25 -57.5 -25c-9.33301 0 -28 5 -56 15c-34 12 -53.667 18 -59 18c-8.66699 0 -16.667 -4.16699 -24 -12.5
s-11.666 -16.833 -12.999 -25.5h-38c2 24.667 10.167 45.334 24.5 62.001s33.5 25 57.5 25c8.66699 0 27.334 -5 56.001 -15c34 -12 53.667 -18 59 -18c8.66699 0 16.667 4.16699 24 12.5s11.666 16.833 12.999 25.5z" />
    <glyph glyph-name="glyph346" unicode="&#x1ee1;" 
d="M367 272c0 66 -5 115 -15 147c-17.333 56.667 -51.333 85 -102 85c-50 0 -84 -28.333 -102 -85c-10 -32 -15 -81 -15 -147c0 -146.667 39 -220 117 -220c49.333 0 83 26.333 101 79c10.667 31.333 16 78.333 16 141zM389 513c40 -46.667 59.9961 -118.667 59.9961 -216
c0 -90.667 -11 -160 -33 -208c-31.333 -69.333 -86.666 -104 -165.999 -104s-134.666 34.667 -165.999 104c-22 48 -33 117.333 -33 208c0 182.667 66.333 274 199 274c50 0 91 -14 123 -42c2.66699 -0.666992 7.33398 0.666016 14.001 3.99902c14 10 23.333 23.667 28 41
l-28 5l11 40h59c-3.33301 -13.333 -9.66602 -32.666 -18.999 -57.999c-5.33301 -20.667 -21.333 -36.667 -48 -48h-1zM336.996 711h33.999c-1.33301 -22 -8.66602 -40.667 -21.999 -56s-30.666 -23 -51.999 -23c-5.33301 0 -22 4.66699 -50 14c-32 10.667 -49.667 16 -53 16
c-7.33301 0 -14.333 -3.66699 -21 -11s-10.667 -15 -12 -23h-34c3.33301 52 27.666 78 72.999 78c9.33301 0 26.333 -4.33301 51 -13c30 -10.667 47.667 -16 53 -16c18.667 0 29.667 11.333 33 34z" />
    <glyph glyph-name="glyph347" unicode="&#x1ee2;" horiz-adv-x="611" 
d="M467 389c1.33301 200.667 -53.002 301 -163.002 301c-107.333 0 -160.333 -100.333 -159 -301c0.666992 -119.333 10.334 -201.666 29.001 -246.999c23.333 -56.667 67.333 -85 132 -85s108.667 28.333 132 85c18.667 45.333 28.334 127.666 29.001 246.999zM476.998 698
c51.333 -58 76.666 -160.332 75.999 -306.999c-0.666992 -127.333 -14.667 -221.333 -42 -282c-38 -84.667 -106.333 -127 -205 -127s-167 42.333 -205 127c-27.333 60.667 -41.333 154.667 -42 282c-0.666992 110 13 194.333 41 253c39.333 80.667 108.666 121 207.999 121
c63.333 0 113.333 -16.333 150 -49c4.66699 4 16.334 10.667 35.001 20l20 10c32.667 16 49 36.667 49 62c0 22.667 -12.667 34 -38 34c-14.667 0 -27.667 -11 -39 -33l-28 5c18.667 36 42.334 54 71.001 54c8 0 16.667 -1.66699 26 -5c27.333 -10 41 -29.667 41 -59
c0 -31.333 -17 -55 -51 -71l-57 -27c-4 -2.66699 -7.33301 -5.33398 -10 -8.00098zM345.998 -142.999h-77v84h77v-84z" />
    <glyph glyph-name="glyph348" unicode="&#x1ee3;" 
d="M367 272c0 66 -5 115 -15 147c-17.333 56.667 -51.333 85 -102 85c-50 0 -84 -28.333 -102 -85c-10 -32 -15 -81 -15 -147c0 -146.667 39 -220 117 -220c49.333 0 83 26.333 101 79c10.667 31.333 16 78.333 16 141zM389 513c40 -46.667 59.9961 -118.667 59.9961 -216
c0 -90.667 -11 -160 -33 -208c-31.333 -69.333 -86.666 -104 -165.999 -104s-134.666 34.667 -165.999 104c-22 48 -33 117.333 -33 208c0 182.667 66.333 274 199 274c50 0 91 -14 123 -42c2.66699 -0.666992 7.33398 0.666016 14.001 3.99902c14 10 23.333 23.667 28 41
l-28 5l11 40h59c-3.33301 -13.333 -9.66602 -32.666 -18.999 -57.999c-5.33301 -20.667 -21.333 -36.667 -48 -48h-1zM282.996 -131h-69v76h69v-76z" />
    <glyph glyph-name="glyph349" unicode="&#x1ee4;" horiz-adv-x="611" 
d="M81 181l0.00195312 569h83v-539c0 -102.667 47.333 -154 142 -154s142 51.333 142 154v539h83v-569c0 -67.333 -21.333 -118 -64 -152c-38.667 -31.333 -92.334 -47 -161.001 -47s-122.334 15.667 -161.001 47c-42.667 34 -64 84.667 -64 152zM346.002 -143h-77v84h77
v-84z" />
    <glyph glyph-name="glyph350" unicode="&#x1ee5;" 
d="M345 0v73h-2c-28 -58.667 -72 -88 -132 -88c-89.333 0 -134 47.333 -134 142v429h79v-432c0 -48 23.667 -72 71 -72c78.667 0 118 49 118 147v357h79v-556h-79zM283 -122h-69v76h69v-76z" />
    <glyph glyph-name="glyph351" unicode="&#x1ee6;" horiz-adv-x="611" 
d="M81 181l0.00195312 569h83v-539c0 -102.667 47.333 -154 142 -154s142 51.333 142 154v539h83v-569c0 -67.333 -21.333 -118 -64 -152c-38.667 -31.333 -92.334 -47 -161.001 -47s-122.334 15.667 -161.001 47c-42.667 34 -64 84.667 -64 152zM323.002 777
l-30.998 0.00195312c0 21.333 0.833008 34.833 2.5 40.5s8.5 15.5 20.5 29.5l31 37c4.66699 6 7 13.667 7 23c0 13.333 -4 24.833 -12 34.5s-18.333 14.5 -31 14.5c-30.667 0 -45.334 -21.667 -44.001 -65h-34c-2 26.667 3.66699 49 17 67s33 27 59 27
c23.333 0 43.333 -6.66699 60 -20s25 -31.333 25 -54c0 -20.667 -7.33301 -38.334 -22 -53.001l-45 -45c-2.66699 -4.66699 -4.33398 -8.33398 -5.00098 -11.001s-1 -5 -1 -7s0.333008 -4 1 -6c1.33301 -6 2 -10 2 -12z" />
    <glyph glyph-name="glyph352" unicode="&#x1ee7;" 
d="M345 0v73h-2c-28 -58.667 -72 -88 -132 -88c-89.333 0 -134 47.333 -134 142v429h79v-432c0 -48 23.667 -72 71 -72c78.667 0 118 49 118 147v357h79v-556h-79zM265 598l-30.998 0.00195312c0 21.333 0.833008 34.833 2.5 40.5s8.5 15.5 20.5 29.5l31 37
c4.66699 6 7 13.667 7 23c0 13.333 -4 24.833 -12 34.5s-18.333 14.5 -31 14.5c-30.667 0 -45.334 -21.667 -44.001 -65h-34c-2 26.667 3.66699 49 17 67s33 27 59 27c23.333 0 43.333 -6.66699 60 -20s25 -31.333 25 -54c0 -20.667 -7.33301 -38.334 -22 -53.001l-45 -45
c-2.66699 -4.66699 -4.33398 -8.33398 -5.00098 -11.001s-1 -5 -1 -7s0.333008 -4 1 -6c1.33301 -6 2 -10 2 -12z" />
    <glyph glyph-name="glyph353" unicode="&#x1ee8;" horiz-adv-x="611" 
d="M531 718l0.00195312 -536.999c0 -67.333 -21.333 -118 -64 -152c-38.667 -31.333 -92.334 -47 -161.001 -47s-122.334 15.667 -161.001 47c-42.667 34 -64 84.667 -64 152v569h83v-539c0 -102.667 47.333 -154 142 -154s142 51.333 142 154v539h83v-1
c21.333 15.333 32 32.666 32 51.999c0 24 -9 37.333 -27 40c-4.66699 0.666992 -8.66699 1 -12 1c-19.333 0 -31.666 -12.667 -36.999 -38h-28c9.33301 42.667 31.333 64 66 64c19.333 0 35.833 -6.33301 49.5 -19s20.5 -28.667 20.5 -48c0 -21.333 -8.66699 -40 -26 -56
c-4.66699 -4 -17.334 -13 -38.001 -27zM278.002 804.001l80 127h98l-118 -127h-60z" />
    <glyph glyph-name="glyph354" unicode="&#x1ee9;" 
d="M424 519v-518.999h-79v73h-2c-28 -58.667 -72 -88 -132 -88c-89.333 0 -134 47.333 -134 142v429h79v-432c0 -48 23.667 -72 71 -72c78.667 0 118 49 118 147v357h79v-1c2.66699 7.33301 4 15.666 4 24.999h-27v40h56c0 -26 -0.333008 -42.333 -1 -49
c0 -18.667 -10.667 -36 -32 -52zM221 613.001l72 114h89l-107 -114h-54z" />
    <glyph glyph-name="glyph355" unicode="&#x1eea;" horiz-adv-x="611" 
d="M531 718l0.00195312 -536.999c0 -67.333 -21.333 -118 -64 -152c-38.667 -31.333 -92.334 -47 -161.001 -47s-122.334 15.667 -161.001 47c-42.667 34 -64 84.667 -64 152v569h83v-539c0 -102.667 47.333 -154 142 -154s142 51.333 142 154v539h83v-1
c21.333 15.333 32 32.666 32 51.999c0 24 -9 37.333 -27 40c-4.66699 0.666992 -8.66699 1 -12 1c-19.333 0 -31.666 -12.667 -36.999 -38h-28c9.33301 42.667 31.333 64 66 64c19.333 0 35.833 -6.33301 49.5 -19s20.5 -28.667 20.5 -48c0 -21.333 -8.66699 -40 -26 -56
c-4.66699 -4 -17.334 -13 -38.001 -27zM159.002 931.001h98l80 -127h-60z" />
    <glyph glyph-name="glyph356" unicode="&#x1eeb;" 
d="M424 519v-518.999h-79v73h-2c-28 -58.667 -72 -88 -132 -88c-89.333 0 -134 47.333 -134 142v429h79v-432c0 -48 23.667 -72 71 -72c78.667 0 118 49 118 147v357h79v-1c2.66699 7.33301 4 15.666 4 24.999h-27v40h56c0 -26 -0.333008 -42.333 -1 -49
c0 -18.667 -10.667 -36 -32 -52zM114 727.001h89l72 -114h-54z" />
    <glyph glyph-name="glyph357" unicode="&#x1eec;" horiz-adv-x="611" 
d="M531 718l0.00195312 -536.999c0 -67.333 -21.333 -118 -64 -152c-38.667 -31.333 -92.334 -47 -161.001 -47s-122.334 15.667 -161.001 47c-42.667 34 -64 84.667 -64 152v569h83v-539c0 -102.667 47.333 -154 142 -154s142 51.333 142 154v539h83v-1
c21.333 15.333 32 32.666 32 51.999c0 24 -9 37.333 -27 40c-4.66699 0.666992 -8.66699 1 -12 1c-19.333 0 -31.666 -12.667 -36.999 -38h-28c9.33301 42.667 31.333 64 66 64c19.333 0 35.833 -6.33301 49.5 -19s20.5 -28.667 20.5 -48c0 -21.333 -8.66699 -40 -26 -56
c-4.66699 -4 -17.334 -13 -38.001 -27zM323.002 792.001l-30.998 0.00195312c0 21.333 0.833008 34.833 2.5 40.5s8.5 15.5 20.5 29.5l31 37c4.66699 6 7 13.667 7 23c0 13.333 -4 24.833 -12 34.5s-18.333 14.5 -31 14.5c-30.667 0 -45.334 -21.667 -44.001 -65h-34
c-2 26.667 3.66699 49 17 67s33 27 59 27c23.333 0 43.333 -6.66699 60 -20s25 -31.333 25 -54c0 -20.667 -7.33301 -38.334 -22 -53.001l-45 -45c-2.66699 -4.66699 -4.33398 -8.33398 -5.00098 -11.001s-1 -5 -1 -7s0.333008 -4 1 -6c1.33301 -6 2 -10 2 -12z" />
    <glyph glyph-name="glyph358" unicode="&#x1eed;" 
d="M424 519v-518.999h-79v73h-2c-28 -58.667 -72 -88 -132 -88c-89.333 0 -134 47.333 -134 142v429h79v-432c0 -48 23.667 -72 71 -72c78.667 0 118 49 118 147v357h79v-1c2.66699 7.33301 4 15.666 4 24.999h-27v40h56c0 -26 -0.333008 -42.333 -1 -49
c0 -18.667 -10.667 -36 -32 -52zM265 613.001l-30.998 0.00195312c0 21.333 0.833008 34.833 2.5 40.5s8.5 15.5 20.5 29.5l31 37c4.66699 6 7 13.667 7 23c0 13.333 -4 24.833 -12 34.5s-18.333 14.5 -31 14.5c-30.667 0 -45.334 -21.667 -44.001 -65h-34
c-2 26.667 3.66699 49 17 67s33 27 59 27c23.333 0 43.333 -6.66699 60 -20s25 -31.333 25 -54c0 -20.667 -7.33301 -38.334 -22 -53.001l-45 -45c-2.66699 -4.66699 -4.33398 -8.33398 -5.00098 -11.001s-1 -5 -1 -7s0.333008 -4 1 -6c1.33301 -6 2 -10 2 -12z" />
    <glyph glyph-name="glyph359" unicode="&#x1eee;" horiz-adv-x="611" 
d="M531 718l0.00195312 -536.999c0 -67.333 -21.333 -118 -64 -152c-38.667 -31.333 -92.334 -47 -161.001 -47s-122.334 15.667 -161.001 47c-42.667 34 -64 84.667 -64 152v569h83v-539c0 -102.667 47.333 -154 142 -154s142 51.333 142 154v539h83v-1
c21.333 15.333 32 32.666 32 51.999c0 24 -9 37.333 -27 40c-4.66699 0.666992 -8.66699 1 -12 1c-19.333 0 -31.666 -12.667 -36.999 -38h-28c9.33301 42.667 31.333 64 66 64c19.333 0 35.833 -6.33301 49.5 -19s20.5 -28.667 20.5 -48c0 -21.333 -8.66699 -40 -26 -56
c-4.66699 -4 -17.334 -13 -38.001 -27zM406.002 920.001h37.999c-2 -24.667 -10.167 -45.334 -24.5 -62.001s-33.5 -25 -57.5 -25c-9.33301 0 -28 5 -56 15c-34 12 -53.667 18 -59 18c-8.66699 0 -16.667 -4.16699 -24 -12.5s-11.666 -16.833 -12.999 -25.5h-38
c2 24.667 10.167 45.334 24.5 62.001s33.5 25 57.5 25c8.66699 0 27.334 -5 56.001 -15c34 -12 53.667 -18 59 -18c8.66699 0 16.667 4.16699 24 12.5s11.666 16.833 12.999 25.5z" />
    <glyph glyph-name="glyph360" unicode="&#x1eef;" 
d="M424 519v-518.999h-79v73h-2c-28 -58.667 -72 -88 -132 -88c-89.333 0 -134 47.333 -134 142v429h79v-432c0 -48 23.667 -72 71 -72c78.667 0 118 49 118 147v357h79v-1c2.66699 7.33301 4 15.666 4 24.999h-27v40h56c0 -26 -0.333008 -42.333 -1 -49
c0 -18.667 -10.667 -36 -32 -52zM337 696.001h33.999c-1.33301 -22 -8.66602 -40.667 -21.999 -56s-30.666 -23 -51.999 -23c-5.33301 0 -22 4.66699 -50 14c-32 10.667 -49.667 16 -53 16c-7.33301 0 -14.333 -3.66699 -21 -11s-10.667 -15 -12 -23h-34
c3.33301 52 27.666 78 72.999 78c9.33301 0 26.333 -4.33301 51 -13c30 -10.667 47.667 -16 53 -16c18.667 0 29.667 11.333 33 34z" />
    <glyph glyph-name="glyph361" unicode="&#x1ef0;" horiz-adv-x="611" 
d="M531 718l0.00195312 -536.999c0 -67.333 -21.333 -118 -64 -152c-38.667 -31.333 -92.334 -47 -161.001 -47s-122.334 15.667 -161.001 47c-42.667 34 -64 84.667 -64 152v569h83v-539c0 -102.667 47.333 -154 142 -154s142 51.333 142 154v539h83v-1
c21.333 15.333 32 32.666 32 51.999c0 24 -9 37.333 -27 40c-4.66699 0.666992 -8.66699 1 -12 1c-19.333 0 -31.666 -12.667 -36.999 -38h-28c9.33301 42.667 31.333 64 66 64c19.333 0 35.833 -6.33301 49.5 -19s20.5 -28.667 20.5 -48c0 -21.333 -8.66699 -40 -26 -56
c-4.66699 -4 -17.334 -13 -38.001 -27zM346.002 -142.999h-77v84h77v-84z" />
    <glyph glyph-name="glyph362" unicode="&#x1ef1;" 
d="M424 519v-518.999h-79v73h-2c-28 -58.667 -72 -88 -132 -88c-89.333 0 -134 47.333 -134 142v429h79v-432c0 -48 23.667 -72 71 -72c78.667 0 118 49 118 147v357h79v-1c2.66699 7.33301 4 15.666 4 24.999h-27v40h56c0 -26 -0.333008 -42.333 -1 -49
c0 -18.667 -10.667 -36 -32 -52zM283 -121.999h-69v76h69v-76z" />
    <glyph glyph-name="glyph363" unicode="&#x1ef2;" horiz-adv-x="556" 
d="M103 750l175 -376l176 376h92l-227 -459v-291h-83v291l-225 459h92zM132 916h98l80 -127h-60z" />
    <glyph glyph-name="glyph364" unicode="&#x1ef3;" horiz-adv-x="444" 
d="M182 -13l-177.001 569h82l125 -482h2l129 482h82l-165 -531c-9.33301 -30.667 -26.333 -78 -51 -142c-27.333 -48.667 -69.666 -73 -126.999 -73c-18.667 0 -37.667 3 -57 9v70c18 -8 37.667 -12 59 -12c32 0 55 11.333 69 34zM83.999 712h89l72 -114h-54z" />
    <glyph glyph-name="glyph365" unicode="&#x1ef4;" horiz-adv-x="556" 
d="M103 750l175 -376l176 376h92l-227 -459v-291h-83v291l-225 459h92zM315 -130h-77v84h77v-84z" />
    <glyph glyph-name="glyph366" unicode="&#x1ef5;" horiz-adv-x="444" 
d="M182 -13l-177.001 569h82l125 -482h2l129 482h82l-165 -531c-9.33301 -30.667 -26.333 -78 -51 -142c-27.333 -48.667 -69.666 -73 -126.999 -73c-18.667 0 -37.667 3 -57 9v70c18 -8 37.667 -12 59 -12c32 0 55 11.333 69 34zM338.999 -122h-69v76h69v-76z" />
    <glyph glyph-name="glyph367" unicode="&#x1ef6;" horiz-adv-x="556" 
d="M103 750l175 -376l176 376h92l-227 -459v-291h-83v291l-225 459h92zM296 777l-30.998 0.00195312c0 21.333 0.833008 34.833 2.5 40.5s8.5 15.5 20.5 29.5l31 37c4.66699 6 7 13.667 7 23c0 13.333 -4 24.833 -12 34.5s-18.333 14.5 -31 14.5
c-30.667 0 -45.334 -21.667 -44.001 -65h-34c-2 26.667 3.66699 49 17 67s33 27 59 27c23.333 0 43.333 -6.66699 60 -20s25 -31.333 25 -54c0 -20.667 -7.33301 -38.334 -22 -53.001l-45 -45c-2.66699 -4.66699 -4.33398 -8.33398 -5.00098 -11.001s-1 -5 -1 -7
s0.333008 -4 1 -6c1.33301 -6 2 -10 2 -12z" />
    <glyph glyph-name="glyph368" unicode="&#x1ef7;" horiz-adv-x="444" 
d="M182 -13l-177.001 569h82l125 -482h2l129 482h82l-165 -531c-9.33301 -30.667 -26.333 -78 -51 -142c-27.333 -48.667 -69.666 -73 -126.999 -73c-18.667 0 -37.667 3 -57 9v70c18 -8 37.667 -12 59 -12c32 0 55 11.333 69 34zM232.999 597l-30.998 0.00195312
c0 21.333 0.833008 34.833 2.5 40.5s8.5 15.5 20.5 29.5l31 37c4.66699 6 7 13.667 7 23c0 13.333 -4 24.833 -12 34.5s-18.333 14.5 -31 14.5c-30.667 0 -45.334 -21.667 -44.001 -65h-34c-2 26.667 3.66699 49 17 67s33 27 59 27c23.333 0 43.333 -6.66699 60 -20
s25 -31.333 25 -54c0 -20.667 -7.33301 -38.334 -22 -53.001l-45 -45c-2.66699 -4.66699 -4.33398 -8.33398 -5.00098 -11.001s-1 -5 -1 -7s0.333008 -4 1 -6c1.33301 -6 2 -10 2 -12z" />
    <glyph glyph-name="glyph369" unicode="&#x1ef8;" horiz-adv-x="556" 
d="M103 750l175 -376l176 376h92l-227 -459v-291h-83v291l-225 459h92zM376 888h37.999c-2 -24.667 -10.167 -45.334 -24.5 -62.001s-33.5 -25 -57.5 -25c-9.33301 0 -28 5 -56 15c-34 12 -53.667 18 -59 18c-8.66699 0 -16.667 -4.16699 -24 -12.5
s-11.666 -16.833 -12.999 -25.5h-38c2 24.667 10.167 45.334 24.5 62.001s33.5 25 57.5 25c8.66699 0 27.334 -5 56.001 -15c34 -12 53.667 -18 59 -18c8.66699 0 16.667 4.16699 24 12.5s11.666 16.833 12.999 25.5z" />
    <glyph glyph-name="glyph370" unicode="&#x1ef9;" horiz-adv-x="444" 
d="M182 -13l-177.001 569h82l125 -482h2l129 482h82l-165 -531c-9.33301 -30.667 -26.333 -78 -51 -142c-27.333 -48.667 -69.666 -73 -126.999 -73c-18.667 0 -37.667 3 -57 9v70c18 -8 37.667 -12 59 -12c32 0 55 11.333 69 34zM304.999 681h33.999
c-1.33301 -22 -8.66602 -40.667 -21.999 -56s-30.666 -23 -51.999 -23c-5.33301 0 -22 4.66699 -50 14c-32 10.667 -49.667 16 -53 16c-7.33301 0 -14.333 -3.66699 -21 -11s-10.667 -15 -12 -23h-34c3.33301 52 27.666 78 72.999 78c9.33301 0 26.333 -4.33301 51 -13
c30 -10.667 47.667 -16 53 -16c18.667 0 29.667 11.333 33 34z" />
    <glyph glyph-name="endash" unicode="&#x2013;" 
d="M0 275v70h500v-70h-500z" />
    <glyph glyph-name="emdash" unicode="&#x2014;" horiz-adv-x="1000" 
d="M0 275v70h1000v-70h-1000z" />
    <glyph glyph-name="quoteleft" unicode="&#x2018;" horiz-adv-x="222" 
d="M158 767v-45c-32.667 -6.66699 -49 -40.667 -49 -102h49v-99h-94l1 99c0.666992 80 31.667 129 93 147z" />
    <glyph glyph-name="quoteright" unicode="&#x2019;" horiz-adv-x="222" 
d="M64 504v45c32.667 6.66699 49 40.667 49 102h-49v99h94v-98c0 -80 -31.333 -129.333 -94 -148z" />
    <glyph glyph-name="quotesinglbase" unicode="&#x201a;" horiz-adv-x="222" 
d="M64 -146v45.001c32.667 6.66699 49 40.667 49 102h-49v99h94v-100c0 -78.667 -31.333 -127.334 -94 -146.001z" />
    <glyph glyph-name="quotedblleft" unicode="&#x201c;" horiz-adv-x="389" 
d="M156 767v-45c-32.667 -6.66699 -49 -40.667 -49 -102h49v-99h-94l1 99c0.666992 80 31.667 129 93 147zM327 767v-45c-32.667 -6.66699 -49 -40.667 -49 -102h49v-99h-94v99c0 79.333 31.333 128.333 94 147z" />
    <glyph glyph-name="quotedblright" unicode="&#x201d;" horiz-adv-x="389" 
d="M62 504v45c32.667 6.66699 49 40.667 49 102h-49v99h94v-99c0 -79.333 -31.333 -128.333 -94 -147zM233 504v45c32.667 6.66699 49 40.667 49 102h-49v99h94l-1 -99c-0.666992 -80 -31.667 -129 -93 -147z" />
    <glyph glyph-name="quotedblbase" unicode="&#x201e;" horiz-adv-x="389" 
d="M233 -146v44.999c32.667 6.66699 49 40.334 49 101.001h-49v100h94l-1 -100c-0.666992 -79.333 -31.667 -128 -93 -146zM62 -146.001v44.999c32.667 6.66699 49 40.334 49 101.001h-49v100h94v-100c0 -79.333 -31.333 -128 -94 -146z" />
    <glyph glyph-name="dagger" unicode="&#x2020;" 
d="M210 -176v633h-170v70h170v223h80v-223h171v-70h-171v-633h-80z" />
    <glyph glyph-name="daggerdbl" unicode="&#x2021;" 
d="M211 51h-172v70h171v328h-169v70h170v231h80v-231h171v-70h-171v-328h171v-70h-171v-227h-80v227z" />
    <glyph glyph-name="bullet" unicode="&#x2022;" horiz-adv-x="333" 
d="M318 375c0 -42 -14.833 -78 -44.5 -108s-65.5 -45 -107.5 -45c-41.333 0 -76.833 15 -106.5 45s-44.5 66 -44.5 108s14.667 78.167 44 108.5s65 45.5 107 45.5s77.833 -15 107.5 -45s44.5 -66.333 44.5 -109z" />
    <glyph glyph-name="ellipsis" unicode="&#x2026;" horiz-adv-x="1000" 
d="M212 0h-91v100h91v-100zM545 0h-91v100h91v-100zM878 100v-100h-91v100h91z" />
    <glyph glyph-name="perthousand" unicode="&#x2030;" horiz-adv-x="1111" 
d="M718 186c0 -60.667 -7.66602 -104.667 -22.999 -132c-20.667 -36.667 -58.334 -54.667 -113.001 -54c-89.333 0.666992 -134 63.667 -134 189c0 115.333 46.333 173 139 173c87.333 0 131 -58.667 131 -176zM582.001 306c-29.333 0 -49 -16.667 -59 -50
c-5.33301 -18 -8 -47 -8 -87c0 -75.333 22.667 -113 68 -113s68 37.667 68 113c0 38.667 -3 67.667 -9 87c-10 33.333 -30 50 -60 50zM579.001 750l-341 -766h-53l339 766h55zM317.001 560c0 -60 -8.33301 -103.335 -25 -130.002
c-20.667 -35.333 -58.667 -52.666 -114 -51.999c-51.333 0.666992 -87.333 19.667 -108 57c-15.333 28.667 -23 71.334 -23 128.001c0 115.333 46.333 173 139 173c87.333 0 131 -58.667 131 -176zM181.001 679.998c-29.333 0 -49 -17 -59 -51
c-5.33301 -18 -8 -47.333 -8 -88c0 -71.333 22.667 -107 68 -107s68 35.667 68 107c0 38.667 -3 68 -9 88c-10 34 -30 51 -60 51zM1071 185.998c0 -60.667 -7.33203 -104.667 -21.999 -132c-20.667 -37.333 -58.334 -55.333 -113.001 -54c-90 2 -135 65 -135 189
c0 115.333 46.333 173 139 173c87.333 0 131 -58.667 131 -176zM935.002 305.998c-29.333 0 -49 -16.667 -59 -50c-5.33301 -18 -8 -47 -8 -87c0 -75.333 22.667 -113 68 -113s68 37.667 68 113c0 38.667 -3 67.667 -9 87c-10 33.333 -30 50 -60 50z" />
    <glyph glyph-name="guilsinglleft" unicode="&#x2039;" horiz-adv-x="278" 
d="M64 342l151 153v-83l-100 -102l100 -102v-83l-151 156v61z" />
    <glyph glyph-name="guilsinglright" unicode="&#x203a;" horiz-adv-x="278" 
d="M214 278l-151 -153v83l100 102l-100 102v83l151 -156v-61z" />
    <glyph glyph-name="fraction" unicode="&#x2044;" horiz-adv-x="167" 
d="M-174 0l452 750h63l-452 -750h-63z" />
    <glyph glyph-name="franc" unicode="&#x20a3;" horiz-adv-x="1035" 
d="M157 0h-83v750h352v-75h-269v-246h250v-75h-250v-354zM809 556l0.000976562 -91h2c32 71.333 86.333 103.666 163 96.999v-78c-11.333 2 -22.333 3 -33 3c-42.667 0 -74.834 -14.167 -96.501 -42.5s-32.5 -64.166 -32.5 -107.499v-337h-79v556h76z" />
    <glyph glyph-name="u20AB" unicode="&#x20ab;" horiz-adv-x="393" 
d="M197 501c-32 0 -60 -29.333 -84 -88c-13.333 -32.667 -20 -62.667 -20 -90c0 -34 13 -51 39 -51c27.333 0 52 23.667 74 71c18.667 40 28 75.667 28 107c0 34 -12.333 51 -37 51zM200 267c-35.333 -41.333 -70.667 -62.001 -106 -62.001c-60.667 0 -91 34 -91 102
c0 54 18 105 54 153c39.333 52 85 78 137 78c22.667 0 43 -8 61 -24l20 75h-100l10 36h100l2 16c0 20.667 -16 31.334 -48 32.001l7 33c44.667 1.33301 87.334 6 128.001 14l15 3c4 0 6 -3 6 -9c-0.666992 -1.33301 -1.66699 -5.33301 -3 -12l-19 -77h65l-10 -36h-65
l-69 -280c-3.33301 -13.333 -5 -22.333 -5 -27c0 -10 4 -15 12 -15c4 0 20.333 14 49 42l20 -18c-46.667 -57.333 -85.667 -86 -117 -86c-28.667 0 -46.334 20.667 -53.001 62zM8.99902 159.999h221v-56h-221v56z" />
    <glyph glyph-name="trademark" unicode="&#x2122;" horiz-adv-x="750" 
d="M719 750v-421h-55v361h-2l-118 -361h-32l-115 361h-2v-361h-55v421h89l99 -297l103 297h88zM280 750v-60h-109v-361h-61v361h-110v60h280z" />
    <glyph glyph-name="minus" unicode="&#x2212;" 
d="M44 219v70h413v-70h-413z" />
    <glyph glyph-name="SF370000" unicode="&#x255f;" horiz-adv-x="718" 
d="M11 0l214 750h110l211 -750h-92l-59 216h-237l-55 -216h-92zM376 291l-97 399h-2l-99 -399h198z" />
    <glyph glyph-name="SF420000" unicode="&#x2560;" horiz-adv-x="681" 
d="M451 0h-377v750h375v-75h-292v-248h274v-75h-274v-277h294v-75z" />
    <glyph glyph-name="SF190000" unicode="&#x2561;" horiz-adv-x="429" 
d="M181 0h-83v750h83v-750z" />
    <glyph glyph-name="SF200000" unicode="&#x2562;" horiz-adv-x="773" 
d="M59 391c-0.666992 109.333 13.001 193.333 41.001 252c38.667 81.333 108 122 208 122c98 0 166.333 -40.667 205 -122c27.333 -58 40.666 -142 39.999 -252c-0.666992 -127.333 -14.667 -221.333 -42 -282c-38 -84.667 -106.333 -127 -205 -127s-167 42.333 -205 127
c-27.333 60.667 -41.333 154.667 -42 282zM467.001 389c1.33301 200.667 -53.002 301 -163.002 301c-107.333 0 -160.333 -100.333 -159 -301c0.666992 -119.333 10.334 -201.666 29.001 -246.999c23.333 -56.667 67.333 -85 132 -85s108.667 28.333 132 85
c18.667 45.333 28.334 127.666 29.001 246.999z" />
    <glyph glyph-name="SF230000" unicode="&#x2563;" horiz-adv-x="811" 
d="M81 181l0.000976562 569h83v-539c0 -102.667 47.333 -154 142 -154s142 51.333 142 154v539h83v-569c0 -66.667 -21.333 -117.334 -64 -152.001c-38.667 -31.333 -92.334 -47 -161.001 -47c-68 0 -121.667 15.667 -161 47c-42.667 34.667 -64 85.334 -64 152.001z" />
    <glyph glyph-name="SF470000" unicode="&#x2564;" horiz-adv-x="699" 
d="M103 750l175 -376l176 376h92l-227 -459v-291h-83v291l-225 459h92z" />
    <glyph glyph-name="SF480000" unicode="&#x2565;" horiz-adv-x="541" 
d="M287 165l0.000976562 135c-8 -4.66699 -49.667 -24.667 -125 -60c-32.667 -15.333 -49 -47.333 -49 -96c0 -30.667 5 -53 15 -67c12 -16.667 33 -25 63 -25c29.333 0 52.666 11.333 69.999 34s26 49 26 79zM417.001 58v-58.002c-8 -1.33301 -14 -2.66602 -18 -3.99902
c-36 -1.33301 -60.667 2.83398 -74 12.501s-22 31.834 -26 66.501h-2c-10 -25.333 -26 -46.333 -48 -63c-24 -18 -49 -27 -75 -27c-52 0 -89.667 14.667 -113 44c-20 26 -30 65.667 -30 119c0 68 26.667 113 80 135l167 70c10 8 15 29.333 15 64
c0 31.333 -6.83301 53.666 -20.5 66.999s-36.167 20 -67.5 20c-33.333 0 -56 -8.33301 -68 -25c-9.33301 -14 -13.666 -38.333 -12.999 -73h-71c-4 110 51 165 165 165c100.667 0 151 -50.333 151 -151v-319c0 -23.333 4.66699 -37.333 14 -42
c7.33301 -2 18.666 -2.33301 33.999 -1z" />
    <glyph glyph-name="SF410000" unicode="&#x2566;" horiz-adv-x="431" 
d="M125 336h188c-2.66699 55.333 -6.66699 91.333 -12 108c-12.667 40 -39 60 -79 60c-40.667 0 -68 -19.667 -82 -59c-7.33301 -20 -12.333 -56.333 -15 -109zM317 185h74.002c2.66699 -58 -10 -105 -38 -141c-30 -39.333 -73.333 -59 -130 -59c-120 0 -180 98 -180 294
c0 75.333 11 138.333 33 189c30.667 68.667 79 103 145 103c78.667 0 129.667 -33.667 153 -101c10.667 -30.667 17.667 -97 21 -199h-270c2 -75.333 5 -121.333 9 -138c13.333 -54 43.666 -81 90.999 -81c34.667 0 60 14.333 76 43c13.333 24 18.666 54 15.999 90z" />
    <glyph glyph-name="SF450000" unicode="&#x2567;" horiz-adv-x="314" 
d="M151 0h-79v556h79v-556zM151 650h-79v100h79v-100z" />
    <glyph glyph-name="SF460000" unicode="&#x2568;" horiz-adv-x="314" 
d="M151 0h-79v556h79v-556z" />
    <glyph glyph-name="SF400000" unicode="&#x2569;" horiz-adv-x="498" 
d="M449 297c0 -91.333 -11.001 -161.001 -33.001 -209.001c-31.333 -68.667 -86.666 -103 -165.999 -103c-78.667 0 -134 34.333 -166 103c-22 48.667 -33 118.334 -33 209.001c0 182.667 66.333 274 199 274s199 -91.333 199 -274zM366.999 271.999
c0 66.667 -5 115.667 -15 147c-17.333 56.667 -51.333 85 -102 85c-50 0 -84 -28.333 -102 -85c-10 -32.667 -15 -81.667 -15 -147c0 -146.667 39 -220 117 -220c49.333 0 83 26.333 101 79c10.667 32 16 79 16 141z" />
    <glyph glyph-name="SF540000" unicode="&#x256a;" horiz-adv-x="557" 
d="M345 0v73h-2c-28 -58.667 -72 -88 -132 -88c-89.333 0 -134 47.333 -134 142v429h79v-432c0 -48 23.667 -72 71 -72c78.667 0 118 49 118 147v357h79v-556h-79z" />
    <glyph glyph-name="SF530000" unicode="&#x256b;" horiz-adv-x="497" 
d="M182 -13l-177.001 568.999h82l125 -482h2l129 482h82l-165 -531c-11.333 -35.333 -28.333 -82.666 -51 -141.999c-27.333 -48.667 -69.666 -73 -126.999 -73c-18.667 0 -37.667 3 -57 9v70c18 -8 37.667 -12 59 -12c32 0 55 11.333 69 34z" />
    <glyph glyph-name="circle" unicode="&#x25cb;" horiz-adv-x="718" 
d="M461 856l-66 94l-66 -94h-80l99 141h93l100 -141h-80zM302 1044l89 141h109l-131 -141h-67z" />
    <glyph glyph-name="H18533" unicode="&#x25cf;" horiz-adv-x="718" 
d="M461 856l-66 94l-66 -94h-80l99 141h93l100 -141h-80zM346 1186h109l89 -141h-67z" />
    <glyph glyph-name="invbullet" unicode="&#x25d8;" horiz-adv-x="718" 
d="M461 856l-66 94l-66 -94h-80l99 141h93l100 -141h-80zM614 903c6 18.667 9.66602 40.001 10.999 64.001c0.666992 7.33301 3.33398 11.666 8.00098 12.999c1.33301 0 4 0.333008 8 1c44.667 7.33301 67 25.333 67 54c0 23.333 -9.33301 35 -28 35
c-3.33301 0 -8 -0.333008 -14 -1s-10.667 -1 -14 -1c-14 0 -21 6 -21 18c0 18.667 10.667 28 32 28c30.667 0 55.667 -8 75 -24c20.667 -18 29.667 -42 27 -72c-4 -39.333 -33 -66.333 -87 -81c-16.667 -4.66699 -27 -16 -31 -34h-33z" />
    <glyph glyph-name="invcircle" unicode="&#x25d9;" horiz-adv-x="718" 
d="M461 856l-66 94l-66 -94h-80l99 141h93l100 -141h-80zM564 1169h48c-2.66699 -31.333 -12.334 -56.666 -29.001 -75.999c-18.667 -22 -43 -33 -73 -33c-14 0 -37.667 6 -71 18c-37.333 13.333 -61.666 20 -72.999 20s-21.5 -4.66699 -30.5 -14
s-14.167 -19.666 -15.5 -30.999h-48c2.66699 31.333 12.334 56.666 29.001 75.999c18.667 22 43 33 73 33c14 0 37.667 -6 71 -18c37.333 -13.333 61.666 -20 72.999 -20s21.5 4.66699 30.5 14s14.167 19.666 15.5 30.999z" />
    <glyph glyph-name="fi" unicode="&#xf001;" 
d="M425 750v-100h-79v100h79zM427 556v-556h-79v556h79zM93 0v488.999h-81v67h80v47c0 52.667 6.66699 88.334 20 107.001c20 28 55.667 42 107 42c12 0 25.333 -0.666992 40 -2v-67c-12.667 1.33301 -23 2 -31 2c-22.667 0 -38 -6.33301 -46 -19
c-6.66699 -9.33301 -10 -26.333 -10 -51v-59h87v-67h-87v-489h-79z" />
    <glyph glyph-name="fl" unicode="&#xf002;" 
d="M93 0v488.999h-81v67h80v47c0 52.667 6.66699 88.334 20 107.001c20 28 55.667 42 107 42c12 0 25.333 -0.666992 40 -2v-67c-12.667 1.33301 -23 2 -31 2c-22.667 0 -38 -6.33301 -46 -19c-6.66699 -9.33301 -10 -26.333 -10 -51v-59h87v-67h-87v-489h-79z
M425 -0.000976562h-79v750h79v-750z" />
    <glyph glyph-name=".null" horiz-adv-x="0" 
 />
    <glyph glyph-name="glyph2" horiz-adv-x="250" 
 />
    <glyph glyph-name="periodcentered" horiz-adv-x="250" 
d="M171 204h-91v100h91v-100z" />
    <glyph glyph-name="HT" horiz-adv-x="250" 
 />
    <glyph glyph-name="nonmarkingreturn" horiz-adv-x="250" 
 />
    <glyph glyph-name="glyph231" horiz-adv-x="278" 
 />
    <glyph glyph-name="glyph232" horiz-adv-x="278" 
 />
    <glyph glyph-name="glyph275" horiz-adv-x="249" 
 />
    <glyph glyph-name="glyph276" horiz-adv-x="249" 
 />
    <glyph glyph-name="glyph261" 
d="M253 522c6 18.667 9.66602 40.001 10.999 64.001c0.666992 7.33301 3.33398 11.666 8.00098 12.999c1.33301 0 4 0.333008 8 1c44.667 7.33301 67 25.333 67 54c0 23.333 -9.33301 35 -28 35c-3.33301 0 -8 -0.333008 -14 -1s-10.667 -1 -14 -1c-14 0 -21 6 -21 18
c0 18.667 10.667 28 32 28c30.667 0 55.667 -8 75 -24c20.667 -18 29.667 -42 27 -72c-4 -39.333 -33 -66.333 -87 -81c-16.667 -4.66699 -27 -16 -31 -34h-33z" />
    <glyph glyph-name="glyph262" horiz-adv-x="541" 
d="M258 624l-66 94l-66 -94h-80l99 141h93l100 -141h-80zM98 813l89 141h109l-131 -141h-67z" />
    <glyph glyph-name="glyph263" horiz-adv-x="541" 
d="M258 624l-66 94l-66 -94h-80l99 141h93l100 -141h-80zM143 954h109l89 -141h-67z" />
    <glyph glyph-name="glyph264" horiz-adv-x="541" 
d="M258 624l-66 94l-66 -94h-80l99 141h93l100 -141h-80zM411 671c6 18.667 9.66602 40.001 10.999 64.001c0.666992 7.33301 3.33398 11.666 8.00098 12.999c1.33301 0 4 0.333008 8 1c44.667 7.33301 67 25.333 67 54c0 23.333 -9.33301 35 -28 35
c-3.33301 0 -8 -0.333008 -14 -1s-10.667 -1 -14 -1c-14 0 -21 6 -21 18c0 18.667 10.667 28 32 28c30.667 0 55.667 -8 75 -24c20.667 -18 29.667 -42 27 -72c-4 -39.333 -33 -66.333 -87 -81c-16.667 -4.66699 -27 -16 -31 -34h-33z" />
    <glyph glyph-name="glyph265" horiz-adv-x="541" 
d="M258 624l-66 94l-66 -94h-80l99 141h93l100 -141h-80zM361 937h48c-2.66699 -31.333 -12.334 -56.666 -29.001 -75.999c-18.667 -22 -43 -33 -73 -33c-14 0 -37.667 6 -71 18c-37.333 13.333 -61.666 20 -72.999 20s-21.5 -4.66699 -30.5 -14
s-14.167 -19.666 -15.5 -30.999h-48c2.66699 31.333 12.334 56.666 29.001 75.999c18.667 22 43 33 73 33c14 0 37.667 -6 71 -18c37.333 -13.333 61.666 -20 72.999 -20s21.5 4.66699 30.5 14s14.167 19.666 15.5 30.999z" />
    <glyph glyph-name="glyph266" horiz-adv-x="541" 
d="M42 764h49.001c11.333 -51.333 46.666 -77 105.999 -77c58 0 93 25.667 105 77h49c-4 -90.667 -56.667 -136 -158 -136c-96.667 0 -147 45.333 -151 136zM177.001 813l89 141h109l-131 -141h-67z" />
    <glyph glyph-name="glyph267" horiz-adv-x="541" 
d="M42 764h49.001c11.333 -51.333 46.666 -77 105.999 -77c58 0 93 25.667 105 77h49c-4 -90.667 -56.667 -136 -158 -136c-96.667 0 -147 45.333 -151 136zM90.001 954h109l89 -141h-67z" />
    <glyph glyph-name="glyph268" horiz-adv-x="541" 
d="M42 764h49.001c11.333 -51.333 46.666 -77 105.999 -77c58 0 93 25.667 105 77h49c-4 -90.667 -56.667 -136 -158 -136c-96.667 0 -147 45.333 -151 136zM306.001 671c6 18.667 9.66602 40.001 10.999 64.001c0.666992 7.33301 3.33398 11.666 8.00098 12.999
c1.33301 0 4 0.333008 8 1c44.667 7.33301 67 25.333 67 54c0 23.333 -9.33301 35 -28 35c-3.33301 0 -8 -0.333008 -14 -1s-10.667 -1 -14 -1c-14 0 -21 6 -21 18c0 18.667 10.667 28 32 28c30.667 0 55.667 -8 75 -24c20.667 -18 29.667 -42 27 -72
c-4 -39.333 -33 -66.333 -87 -81c-16.667 -4.66699 -27 -16 -31 -34h-33z" />
    <glyph glyph-name="glyph269" horiz-adv-x="541" 
d="M42 764h49.001c11.333 -51.333 46.666 -77 105.999 -77c58 0 93 25.667 105 77h49c-4 -90.667 -56.667 -136 -158 -136c-96.667 0 -147 45.333 -151 136zM361.001 937h48c-2.66699 -31.333 -12.334 -56.666 -29.001 -75.999c-18.667 -22 -43 -33 -73 -33
c-14 0 -37.667 6 -71 18c-37.333 13.333 -61.666 20 -72.999 20s-21.5 -4.66699 -30.5 -14s-14.167 -19.666 -15.5 -30.999h-48c2.66699 31.333 12.334 56.666 29.001 75.999c18.667 22 43 33 73 33c14 0 37.667 -6 71 -18c37.333 -13.333 61.666 -20 72.999 -20
s21.5 4.66699 30.5 14s14.167 19.666 15.5 30.999z" />
    <glyph glyph-name="glyph270" horiz-adv-x="249" 
 />
  </font>
</defs>
</svg>
