<?xml version="1.0" encoding="UTF-8"?>
<!-- Generator: Adobe Illustrator 22.0.0, SVG Export Plug-In . SVG Version: 6.00 Build 0)  -->
<svg version="1.0" id="Layer_1" xmlns="http://www.w3.org/2000/svg" xmlns:xlink="http://www.w3.org/1999/xlink" x="0px" y="0px" viewBox="0 0 128 128" enable-background="new 0 0 128 128" xml:space="preserve">
<g>
	<g>
		<path d="M27.4,84.7l4.4,12.4l0,0l4.1-12.4h3.8l-7.1,18.9h-2.1l-7-18.9H27.4z"/>
		<path d="M46.8,84.7v18.4h-3.6V84.7H46.8z"/>
		<path d="M51.8,103.1V84.7h5.1c2.7,0,4.8,0.9,6.4,2.6c1.6,1.7,2.4,3.9,2.4,6.6c0,2.6-0.8,4.8-2.5,6.6s-3.8,2.6-6.4,2.6H51.8z     M55.4,87.8V100H56c4.1,0,6.1-2,6.1-6.1c0-4-2-6.1-6.1-6.1H55.4z"/>
		<path d="M79.5,87.8h-5.9v4h5.7V95h-5.7v5h5.9v3.1H70V84.7h9.5V87.8z"/>
		<path d="M92.5,103.6c-2.7,0-4.9-1-6.6-2.9c-1.7-1.8-2.5-4.1-2.5-6.8c0-2.7,0.8-5,2.5-6.8c1.7-1.9,3.9-2.8,6.5-2.8s4.9,1,6.6,2.8    c1.7,1.9,2.5,4.1,2.5,6.8c0,2.7-0.8,5-2.5,6.8C97.4,102.6,95.2,103.6,92.5,103.6z M92.5,87.8c-1.6,0-2.9,0.6-3.9,1.9    c-1,1.2-1.5,2.5-1.5,4.1c0,1.5,0.5,2.9,1.5,4.2c1.1,1.4,2.4,2.1,3.8,2.1s2.8-0.7,3.8-2.1c1-1.3,1.5-2.7,1.5-4.2    c0-1.6-0.5-3-1.5-4.1C95.4,88.4,94.1,87.8,92.5,87.8z"/>
	</g>
	<polygon points="50.1,24.4 50.1,55.7 77.9,40.1  "/>
</g>
</svg>