<?xml version="1.0" standalone="no"?>
<!DOCTYPE svg PUBLIC "-//W3C//DTD SVG 1.1//EN" "http://www.w3.org/Graphics/SVG/1.1/DTD/svg11.dtd" >
<svg xmlns="http://www.w3.org/2000/svg" xmlns:xlink="http://www.w3.org/1999/xlink" version="1.1">
<metadata></metadata>
<defs>
<font id="samsungone400" horiz-adv-x="0" >
<font-face units-per-em="2048" ascent="1588" descent="-460" />
<missing-glyph horiz-adv-x="462" />
<glyph unicode="fi" horiz-adv-x="1250" d="M42 946v122h186v136q0 164 95 255t265 91q62 0 102 -10v-128q-60 8 -102 8q-106 0 -161 -55t-55 -161v-136h280v-122h-280v-946h-144v946h-186zM882 1366q0 52 27 80t77 28t77 -28t27 -78q0 -52 -27 -80t-77 -28t-77 28t-27 78zM914 0v1068h144v-1068h-144z" />
<glyph unicode="fl" horiz-adv-x="1330" d="M42 946v122h186v136q0 164 95 255t265 91q62 0 102 -10v-128q-60 8 -102 8q-106 0 -161 -55t-55 -161v-136h280v-122h-280v-946h-144v946h-186zM906 218v1322h144v-1316q0 -56 26 -81t84 -25q34 0 80 8l14 -122q-60 -16 -124 -16q-224 0 -224 230z" />
<glyph />
<glyph />
<glyph horiz-adv-x="520" />
<glyph unicode="&#x9;" horiz-adv-x="1024" />
<glyph horiz-adv-x="462" />
<glyph unicode=" "  horiz-adv-x="462" />
<glyph unicode="&#x09;" horiz-adv-x="462" />
<glyph unicode="&#xa0;" horiz-adv-x="462" />
<glyph unicode="!" horiz-adv-x="692" d="M236 86q0 52 29 82t81 30t81 -29t29 -81q0 -54 -29 -84t-81 -30t-81 30t-29 82zM258 1448h172l-28 -1058h-116z" />
<glyph unicode="&#x22;" horiz-adv-x="724" d="M136 1448h158l-34 -462h-90zM430 1448h158l-34 -462h-90z" />
<glyph unicode="#" horiz-adv-x="1302" d="M82 420v108h276l60 392h-254v108h272l66 420h124l-66 -420h280l66 420h124l-66 -420h256v-108h-274l-60 -392h248v-108h-266l-66 -420h-124l66 420h-280l-66 -420h-124l66 420h-258zM482 528h280l60 392h-280z" />
<glyph unicode="$" horiz-adv-x="1088" d="M102 118l50 122q158 -92 328 -100v534l-32 8q-168 46 -250 136t-82 234q0 166 95 266t269 116v184h124v-184q166 -12 326 -78l-48 -122q-152 60 -278 72v-516l34 -10q168 -48 250 -137t82 -233q0 -168 -96 -270t-270 -124v-186h-124v182q-100 6 -200 34t-178 72z M260 1074q0 -102 50 -159t164 -89l6 -2v482q-112 -12 -166 -69t-54 -163zM604 146q114 14 168 75t54 171q0 100 -50 157t-164 87l-8 2v-492z" />
<glyph unicode="%" horiz-adv-x="1840" d="M122 1036q0 216 74 327t218 111t218 -111t74 -327t-74 -327t-218 -111t-218 111t-74 327zM258 1036q0 -166 38 -245t118 -79t118 79t38 245t-38 245t-118 79t-118 -79t-38 -245zM462 0l770 1448h146l-770 -1448h-146zM1134 412q0 216 74 327t218 111t218 -111t74 -327 t-74 -327t-218 -111t-218 111t-74 327zM1270 412q0 -166 38 -245t118 -79t118 79t38 245t-38 245t-118 79t-118 -79t-38 -245z" />
<glyph unicode="&#x26;" horiz-adv-x="1284" d="M128 324q0 98 40 173t132 149l146 116l-62 72q-86 102 -121 175t-35 153q0 148 97 230t269 82t268 -80t96 -224q0 -98 -55 -180t-193 -194l-64 -52l266 -316l146 304h148l-172 -360l-28 -56l208 -248l-106 -90l-182 214q-162 -218 -420 -218q-178 0 -278 92t-100 258z M284 324q0 -108 58 -163t170 -55q102 0 182 47t144 143l-304 360l-106 -86q-80 -64 -112 -119t-32 -127zM376 1164q0 -56 27 -109t99 -139l56 -66l80 64q102 80 137 130t35 114q0 92 -55 139t-163 47q-106 0 -161 -46t-55 -134z" />
<glyph unicode="'" horiz-adv-x="430" d="M136 1448h158l-34 -462h-90z" />
<glyph unicode="(" horiz-adv-x="656" d="M128 682q0 238 77 473t215 415l112 -84q-124 -168 -189 -371t-65 -431t65 -431t189 -371l-112 -84q-138 180 -215 413t-77 471z" />
<glyph unicode=")" horiz-adv-x="656" d="M124 -118q124 168 189 371t65 431t-65 431t-189 371l112 84q138 -180 215 -415t77 -473t-77 -471t-215 -413z" />
<glyph unicode="*" horiz-adv-x="1072" d="M136 1100l44 132l306 -116l-16 332h132l-16 -332l306 116l44 -132l-318 -88l204 -258l-104 -84l-182 278l-182 -278l-104 84l204 258z" />
<glyph unicode="+" horiz-adv-x="1142" d="M116 668v138h384v418h142v-418h384v-138h-384v-418h-142v418h-384z" />
<glyph unicode="," horiz-adv-x="466" d="M24 -280q78 84 112 165t34 183q0 54 -8 118h160q8 -64 8 -116q0 -126 -57 -229t-177 -197z" />
<glyph unicode="-" horiz-adv-x="810" d="M114 526v130h582v-130h-582z" />
<glyph unicode="." horiz-adv-x="492" d="M136 86q0 52 29 82t81 30t81 -29t29 -81q0 -54 -29 -84t-81 -30t-81 30t-29 82z" />
<glyph unicode="/" horiz-adv-x="874" d="M54 -172l640 1646h128l-640 -1646h-128z" />
<glyph unicode="0" horiz-adv-x="1240" d="M142 724q0 384 118 567t360 183t360 -183t118 -567t-118 -567t-360 -183t-360 183t-118 567zM294 724q0 -318 79 -468t247 -150t247 150t79 468t-79 468t-247 150t-247 -150t-79 -468z" />
<glyph unicode="1" horiz-adv-x="874" d="M76 1292l406 156h124v-1448h-146v1284l-340 -118z" />
<glyph unicode="2" horiz-adv-x="1058" d="M86 1342q74 60 189 96t227 36q184 0 297 -99t113 -263q0 -98 -47 -199t-155 -235l-450 -550h668v-128h-840v130l508 626q94 114 131 190t37 150q0 112 -72 176t-198 64q-86 0 -175 -30t-161 -82z" />
<glyph unicode="3" horiz-adv-x="1118" d="M86 84l62 130q80 -48 170 -75t174 -27q150 0 234 86t84 240q0 144 -81 225t-227 81q-78 0 -136 -18l-56 70l446 524h-648v128h814v-128l-386 -452q128 0 225 -53t150 -151t53 -226q0 -138 -59 -243t-166 -163t-247 -58q-102 0 -213 30t-193 80z" />
<glyph unicode="4" horiz-adv-x="1154" d="M70 322v130l576 996h208v-996h190v-130h-190v-322h-142v322h-642zM228 452h484v860z" />
<glyph unicode="5" horiz-adv-x="1100" d="M102 76l62 130q72 -44 156 -69t162 -25q152 0 238 90t86 248q0 152 -82 237t-226 85q-70 0 -136 -20t-112 -56l-90 50l44 702h694v-128h-568l-32 -466q50 24 113 38t123 14q126 0 222 -57t149 -160t53 -239q0 -142 -59 -250t-167 -167t-250 -59q-100 0 -203 28t-177 74z " />
<glyph unicode="6" horiz-adv-x="1126" d="M110 460q0 136 59 274t195 320l316 420l120 -86l-318 -408q-60 -80 -98 -134q42 22 99 36t117 14q128 0 226 -56t152 -159t54 -239q0 -138 -57 -245t-161 -165t-240 -58q-138 0 -243 61t-163 171t-58 254zM262 466q0 -170 83 -266t231 -96q142 0 223 89t81 243 q0 158 -85 249t-233 91q-138 0 -250 -72q-50 -100 -50 -238z" />
<glyph unicode="7" horiz-adv-x="982" d="M46 1320v128h858v-128l-578 -1340l-134 56l564 1284h-710z" />
<glyph unicode="8" horiz-adv-x="1166" d="M110 356q0 128 86 237t228 161q-112 40 -181 140t-69 222q0 160 112 259t296 99q186 0 298 -99t112 -259q0 -122 -69 -219t-181 -137q142 -42 228 -148t86 -240q0 -118 -59 -208t-166 -140t-249 -50q-140 0 -247 47t-166 134t-59 201zM262 374q0 -126 85 -198t235 -72 t236 71t86 195q0 102 -88 191t-242 143q-146 -52 -229 -139t-83 -191zM324 1106q0 -100 72 -179t198 -117q116 40 182 118t66 174q0 112 -69 178t-191 66q-120 0 -189 -64t-69 -176z" />
<glyph unicode="9" horiz-adv-x="1126" d="M94 1006q0 138 57 245t161 165t240 58q138 0 243 -61t163 -171t58 -254q0 -136 -59 -274t-195 -320l-316 -420l-120 86l318 408q60 80 98 134q-42 -22 -99 -36t-117 -14q-128 0 -226 56t-152 159t-54 239zM246 1012q0 -158 85 -249t233 -91q138 0 250 72q50 100 50 238 q0 170 -83 266t-231 96q-142 0 -223 -89t-81 -243z" />
<glyph unicode=":" horiz-adv-x="572" d="M176 86q0 52 29 82t81 30t81 -29t29 -81q0 -54 -29 -84t-81 -30t-81 30t-29 82zM176 782q0 52 29 82t81 30t81 -29t29 -81q0 -54 -29 -84t-81 -30t-81 30t-29 82z" />
<glyph unicode=";" horiz-adv-x="572" d="M74 -280q78 84 112 165t34 183q0 54 -8 118h160q8 -64 8 -116q0 -126 -57 -229t-177 -197zM176 782q0 52 29 82t81 30t81 -29t29 -81q0 -54 -29 -84t-81 -30t-81 30t-29 82z" />
<glyph unicode="&#x3c;" horiz-adv-x="854" d="M112 730l524 598l106 -98l-444 -500l444 -500l-106 -98z" />
<glyph unicode="=" horiz-adv-x="1142" d="M162 432v138h818v-138h-818zM162 890v138h818v-138h-818z" />
<glyph unicode="&#x3e;" horiz-adv-x="854" d="M112 230l444 500l-444 500l106 98l524 -598l-524 -598z" />
<glyph unicode="?" horiz-adv-x="1028" d="M114 1354q172 120 382 120q188 0 293 -94t105 -260q0 -100 -45 -175t-159 -161q-100 -76 -134 -132t-34 -146q0 -46 6 -116h-146q-6 76 -6 122q0 110 47 188t177 180q80 62 109 110t29 118q0 224 -242 224q-80 0 -158 -26t-162 -80zM346 86q0 52 29 82t81 30t81 -29 t29 -81q0 -54 -29 -84t-81 -30t-81 30t-29 82z" />
<glyph unicode="@" horiz-adv-x="1610" d="M148 724q0 222 83 392t234 264t349 94q196 0 345 -86t231 -243t82 -363q0 -186 -81 -300t-215 -114q-56 0 -101 21t-67 57q-68 -82 -192 -82q-136 0 -211 94t-75 264t82 266t230 96q56 0 113 -17t103 -49v-420q0 -124 106 -124q86 0 135 81t49 227q0 268 -141 417 t-393 149q-250 0 -390 -165t-140 -459q0 -296 146 -462t406 -166q166 0 292 68l50 -110q-66 -38 -156 -59t-186 -21q-204 0 -360 94t-242 264t-86 392zM654 722q0 -124 46 -188t134 -64q60 0 106 32v454q-50 22 -104 22q-90 0 -136 -65t-46 -191z" />
<glyph unicode="A" horiz-adv-x="1332" d="M64 0l518 1448h168l518 -1448h-162l-136 396h-610l-136 -396h-160zM404 528h520l-260 756z" />
<glyph unicode="B" horiz-adv-x="1288" d="M196 0v1448h148h328q202 0 314 -104t112 -290q0 -236 -184 -290q132 -34 199 -123t67 -233q0 -192 -115 -300t-321 -108h-470h-78zM344 134h408q134 0 203 70t69 204t-71 202t-209 68h-400v-544zM344 810h328q134 0 203 62t69 182q0 128 -71 194t-209 66h-320v-504z" />
<glyph unicode="C" horiz-adv-x="1198" d="M108 696q0 232 78 409t220 273t330 96q96 0 191 -24t175 -70l-56 -122q-164 78 -314 78q-220 0 -344 -165t-124 -461q0 -292 125 -443t369 -151q178 0 300 70l56 -120q-62 -44 -160 -67t-208 -23q-200 0 -343 86t-219 248t-76 386z" />
<glyph unicode="D" horiz-adv-x="1378" d="M196 0v1448h386q324 0 496 -184t172 -540t-174 -540t-502 -184h-378zM344 134h238q252 0 382 150t130 440q0 292 -132 441t-388 149h-230v-1180z" />
<glyph unicode="E" horiz-adv-x="1148" d="M196 0v1448h836v-134h-688v-506h516v-136h-516v-538h712v-134h-860z" />
<glyph unicode="F" horiz-adv-x="1072" d="M196 0v1448h824v-134h-676v-530h552v-136h-552v-648h-148z" />
<glyph unicode="G" horiz-adv-x="1336" d="M128 724q0 234 77 403t222 258t347 89q104 0 203 -24t169 -66l-46 -126q-170 80 -330 80q-240 0 -363 -155t-123 -459t124 -460t366 -156q132 0 258 40v474h-268v134h416v-684q-74 -46 -181 -72t-225 -26q-202 0 -347 89t-222 258t-77 403z" />
<glyph unicode="H" horiz-adv-x="1400" d="M196 0v1448h148v-646h712v646h148v-1448h-148v668h-712v-668h-148z" />
<glyph unicode="I" horiz-adv-x="548" d="M200 0v1448h148v-1448h-148z" />
<glyph unicode="J" horiz-adv-x="904" d="M20 62l58 122q118 -74 248 -74q122 0 183 63t61 187v1088h148v-1088q0 -184 -103 -285t-289 -101q-92 0 -172 23t-134 65z" />
<glyph unicode="K" horiz-adv-x="1232" d="M196 0v1448h148v-814l664 814h182l-558 -662l588 -786h-182l-504 668l-190 -226v-442h-148z" />
<glyph unicode="L" horiz-adv-x="1054" d="M196 0v1448h148v-1312h650v-136h-798z" />
<glyph unicode="M" horiz-adv-x="1686" d="M196 0v1448h178l470 -1000l466 1000h180v-1448h-144v1214l-426 -912h-156l-426 912v-1214h-142z" />
<glyph unicode="N" horiz-adv-x="1444" d="M196 0v1448h138l770 -1194v1194h144v-1448h-138l-770 1196v-1196h-144z" />
<glyph unicode="O" horiz-adv-x="1424" d="M128 724q0 368 150 559t434 191t434 -191t150 -559t-150 -559t-434 -191t-434 191t-150 559zM284 724q0 -304 108 -460t320 -156t320 156t108 460t-108 460t-320 156t-320 -156t-108 -460z" />
<glyph unicode="P" horiz-adv-x="1190" d="M196 0v1448h148h346q212 0 330 -121t118 -339t-121 -341t-335 -123h-338v-524h-148zM344 658h346q144 0 218 84t74 246q0 160 -76 243t-224 83h-338v-656z" />
<glyph unicode="Q" horiz-adv-x="1424" d="M128 724q0 368 150 559t434 191t434 -191t150 -559q0 -230 -60 -391t-174 -251l254 -278l-104 -108l-272 318q-104 -40 -228 -40q-284 0 -434 191t-150 559zM284 724q0 -304 108 -460t320 -156t320 156t108 460t-108 460t-320 156t-320 -156t-108 -460z" />
<glyph unicode="R" horiz-adv-x="1262" d="M196 0v1448h148h328q208 0 326 -117t118 -325q0 -172 -83 -284t-233 -146l382 -576h-182l-362 562h-294v-562h-148zM344 696h328q142 0 215 78t73 232q0 152 -75 230t-221 78h-320v-618z" />
<glyph unicode="S" horiz-adv-x="1120" d="M92 90l54 130q186 -108 388 -108q154 0 240 69t86 189q0 102 -57 165t-175 95l-164 46q-184 52 -271 148t-87 250q0 182 123 290t331 108q104 0 213 -23t199 -65l-52 -130q-204 82 -364 82q-140 0 -219 -65t-79 -177q0 -102 57 -165t175 -95l164 -46q184 -52 271 -148 t87 -250q0 -124 -59 -218t-167 -145t-252 -51q-118 0 -235 30t-207 84z" />
<glyph unicode="T" horiz-adv-x="1052" d="M64 1312v136h536h388v-136h-388v-1312h-148v1312h-388z" />
<glyph unicode="U" horiz-adv-x="1368" d="M186 514v934h148v-934q0 -200 89 -303t261 -103t261 103t89 303v934h148v-934q0 -254 -132 -397t-368 -143q-234 0 -365 143t-131 397z" />
<glyph unicode="V" horiz-adv-x="1260" d="M72 1448h162l398 -1276l396 1276h160l-474 -1448h-168z" />
<glyph unicode="W" horiz-adv-x="1788" d="M76 1448h158l298 -1266l280 1264h164l284 -1260l296 1262h156l-372 -1448h-168l-280 1214l-278 -1214h-168z" />
<glyph unicode="X" horiz-adv-x="1212" d="M66 0l456 730l-442 718h178l352 -592l358 592h174l-450 -710l454 -738h-178l-364 612l-364 -612h-174z" />
<glyph unicode="Y" horiz-adv-x="1172" d="M56 1448h166l366 -754l364 754h164l-458 -928v-520h-148v520z" />
<glyph unicode="Z" horiz-adv-x="1102" d="M92 0v134l738 1182h-714v132h882v-132l-738 -1184h746v-132h-914z" />
<glyph unicode="[" horiz-adv-x="700" d="M196 -174v1716h438v-120h-300v-1476h300v-120h-438z" />
<glyph unicode="\" horiz-adv-x="874" d="M52 1474h128l640 -1646h-128z" />
<glyph unicode="]" horiz-adv-x="700" d="M66 -54h300v1476h-300v120h438v-1716h-438v120z" />
<glyph unicode="^" horiz-adv-x="818" d="M48 1062l278 386h164l280 -386h-174l-186 278l-188 -278h-174z" />
<glyph unicode="_" horiz-adv-x="1194" d="M196 -152h802v-140h-802v140z" />
<glyph unicode="`" horiz-adv-x="1000" d="M248 1548v20h170l190 -318v-20h-112z" />
<glyph unicode="a" horiz-adv-x="1056" d="M90 296q0 190 158 281t490 93v74q0 104 -65 159t-189 55q-130 0 -252 -58l-38 122q142 72 306 72q172 0 277 -86t105 -252v-756h-134v130q-104 -152 -322 -152q-158 0 -247 84t-89 234zM236 306q0 -96 56 -146t166 -50q86 0 154 32t126 98v310q-258 -2 -380 -61 t-122 -183z" />
<glyph unicode="b" horiz-adv-x="1148" d="M188 0v986v554h144v-594q108 148 300 148q190 0 296 -150t106 -418q0 -260 -113 -406t-313 -146q-86 0 -160 35t-126 99v-108h-134zM332 230q52 -58 124 -91t152 -33q136 0 206 106t70 314q0 212 -73 320t-215 108q-78 0 -142 -31t-122 -99v-594z" />
<glyph unicode="c" horiz-adv-x="958" d="M106 538q0 166 58 292t163 195t243 69q76 0 156 -23t146 -63l-56 -118q-130 70 -250 70q-146 0 -228 -108t-82 -302q0 -216 85 -327t251 -111q124 0 238 68l54 -116q-56 -42 -136 -65t-168 -23q-224 0 -349 148t-125 414z" />
<glyph unicode="d" horiz-adv-x="1148" d="M114 542q0 260 113 406t313 146q82 0 153 -32t123 -90v568h144v-1458v-82h-134v136q-54 -80 -133 -121t-177 -41q-190 0 -296 150t-106 418zM264 542q0 -212 73 -320t215 -108q78 0 142 31t122 99v594q-52 58 -124 91t-152 33q-136 0 -206 -106t-70 -314z" />
<glyph unicode="e" horiz-adv-x="1076" d="M110 534q0 264 116 412t322 148q202 0 314 -136t112 -378q0 -48 -6 -84h-712q8 -190 93 -287t243 -97q150 0 276 84l56 -116q-62 -50 -151 -77t-189 -27q-224 0 -349 148t-125 410zM260 618h568q-2 164 -77 255t-207 91q-128 0 -199 -87t-85 -259z" />
<glyph unicode="f" horiz-adv-x="722" d="M42 946v122h186v136q0 164 95 255t265 91q62 0 102 -10v-128q-60 8 -102 8q-106 0 -161 -55t-55 -161v-136h280v-122h-280v-946h-144v946h-186z" />
<glyph unicode="g" horiz-adv-x="1154" d="M114 572q0 246 114 384t316 138q88 0 162 -36t126 -102v112h134v-1076q0 -204 -122 -318t-340 -114q-80 0 -157 16t-131 44l44 130q112 -56 244 -56q156 0 237 76t81 222v190q-108 -148 -302 -148q-190 0 -298 142t-108 396zM264 572q0 -196 74 -297t220 -101 q78 0 142 31t122 99v534q-54 60 -126 92t-152 32q-138 0 -209 -98t-71 -292z" />
<glyph unicode="h" horiz-adv-x="1164" d="M188 0v1540h144v-576q134 130 320 130q158 0 246 -89t88 -249v-756h-144v746q0 208 -228 208q-158 0 -282 -106v-848h-144z" />
<glyph unicode="i" horiz-adv-x="528" d="M160 1366q0 52 27 80t77 28t77 -28t27 -78q0 -52 -27 -80t-77 -28t-77 28t-27 78zM192 0v1068h144v-1068h-144z" />
<glyph unicode="j" horiz-adv-x="528" d="M-82 -318q108 38 166 83t83 112t25 175v1016h144v-1016q0 -144 -33 -232t-111 -149t-224 -111zM160 1366q0 52 27 80t77 28t77 -28t27 -78q0 -52 -27 -80t-77 -28t-77 28t-27 78z" />
<glyph unicode="k" horiz-adv-x="1070" d="M188 0v1540h144v-1028l482 556h178l-404 -450l426 -618h-178l-348 506l-156 -172v-334h-144z" />
<glyph unicode="l" horiz-adv-x="608" d="M184 218v1322h144v-1316q0 -56 26 -81t84 -25q34 0 80 8l14 -122q-60 -16 -124 -16q-224 0 -224 230z" />
<glyph unicode="m" horiz-adv-x="1766" d="M188 0v1068h134v-114q134 140 320 140q102 0 176 -43t110 -121q142 164 342 164q150 0 234 -89t84 -249v-756h-144v746q0 102 -54 155t-158 53q-146 0 -278 -112q8 -34 8 -86v-756h-144v746q0 102 -55 155t-159 53q-76 0 -142 -26t-130 -80v-848h-144z" />
<glyph unicode="n" horiz-adv-x="1160" d="M188 0v1068h134v-114q134 140 328 140q156 0 244 -90t88 -248v-756h-144v746q0 102 -58 155t-168 53q-80 0 -148 -25t-132 -81v-848h-144z" />
<glyph unicode="o" horiz-adv-x="1110" d="M114 534q0 274 114 417t328 143q212 0 326 -143t114 -417t-114 -417t-328 -143q-212 0 -326 143t-114 417zM264 534q0 -212 74 -321t216 -109q144 0 218 109t74 321t-74 321t-216 109q-144 0 -218 -109t-74 -321z" />
<glyph unicode="p" horiz-adv-x="1148" d="M188 -414v1400v82h134v-136q54 80 133 121t177 41q190 0 296 -150t106 -418q0 -260 -113 -406t-313 -146q-82 0 -153 32t-123 90v-510h-144zM332 230q52 -58 124 -91t152 -33q136 0 206 106t70 314q0 212 -73 320t-215 108q-78 0 -142 -31t-122 -99v-594z" />
<glyph unicode="q" horiz-adv-x="1148" d="M114 542q0 260 113 406t313 146q86 0 160 -35t126 -99v108h134v-986v-496h-144v536q-108 -148 -300 -148q-190 0 -296 150t-106 418zM264 542q0 -212 73 -320t215 -108q78 0 142 31t122 99v594q-52 58 -124 91t-152 33q-136 0 -206 -106t-70 -314z" />
<glyph unicode="r" horiz-adv-x="796" d="M188 0v1068h134v-148q116 170 292 170q70 0 134 -26l-34 -142q-76 22 -140 22q-78 0 -137 -34t-105 -104v-806h-144z" />
<glyph unicode="s" horiz-adv-x="926" d="M84 70l52 124q144 -88 304 -88q120 0 181 45t61 133q0 68 -38 108t-120 60l-142 34q-146 34 -215 106t-69 190q0 146 97 228t271 82q88 0 174 -21t154 -57l-58 -124q-140 72 -274 72q-108 0 -164 -43t-56 -125q0 -64 38 -103t120 -59l142 -34q146 -34 215 -108t69 -196 q0 -150 -102 -234t-284 -84q-98 0 -192 25t-164 69z" />
<glyph unicode="t" horiz-adv-x="764" d="M42 946v122h186v320h144v-320h322v-122h-322v-586q0 -126 49 -185t153 -59q54 0 110 18l24 -124q-68 -24 -156 -24q-160 0 -242 89t-82 265v606h-186z" />
<glyph unicode="u" horiz-adv-x="1144" d="M174 312v756h144v-746q0 -102 56 -155t164 -53q84 0 150 30t124 96v828h144v-1068h-134v128q-118 -154 -322 -154q-154 0 -240 90t-86 248z" />
<glyph unicode="v" horiz-adv-x="1038" d="M64 1068h158l300 -908l296 908h156l-374 -1068h-160z" />
<glyph unicode="w" horiz-adv-x="1558" d="M68 1068h156l242 -908l238 908h152l240 -908l240 908h154l-318 -1068h-160l-234 856l-234 -856h-160z" />
<glyph unicode="x" horiz-adv-x="1012" d="M72 0l352 540l-338 528h174l248 -406l258 406h170l-348 -520l352 -548h-174l-264 426l-260 -426h-170z" />
<glyph unicode="y" horiz-adv-x="1030" d="M64 1068h158l296 -894l292 894h156l-380 -1084q-52 -144 -169 -251t-295 -171l-52 128q144 50 234 123t140 177z" />
<glyph unicode="z" horiz-adv-x="926" d="M88 0v122l574 824h-558v122h724v-122l-574 -824h582v-122h-748z" />
<glyph unicode="{" horiz-adv-x="746" d="M56 624v120q114 2 169 40t55 118v252q0 132 33 216t107 134t204 78l36 -126q-96 -22 -148 -57t-74 -92t-22 -153v-252q0 -90 -37 -143t-117 -73q80 -20 117 -74t37 -146v-250q0 -98 22 -155t74 -92t148 -57l-36 -124q-130 28 -204 77t-107 133t-33 218v250q0 80 -55 118 t-169 40z" />
<glyph unicode="|" horiz-adv-x="506" d="M196 -500v2132h114v-2132h-114z" />
<glyph unicode="}" horiz-adv-x="746" d="M86 -88q96 22 148 57t74 92t22 155v250q0 92 37 146t117 74q-80 20 -117 73t-37 143v252q0 96 -22 153t-74 92t-148 57l36 126q130 -28 204 -78t107 -134t33 -216v-252q0 -80 55 -118t169 -40v-120q-114 -2 -169 -40t-55 -118v-250q0 -134 -33 -218t-107 -133t-204 -77z " />
<glyph unicode="~" horiz-adv-x="1142" d="M116 696q134 158 284 158q54 0 94 -17t94 -51q50 -30 82 -45t74 -15q50 0 97 28t95 86l90 -92q-134 -158 -284 -158q-54 0 -94 17t-94 51q-50 30 -82 45t-74 15q-50 0 -97 -28t-95 -86z" />
<glyph unicode="&#xa1;" horiz-adv-x="692" d="M236 980q0 54 29 84t81 30t81 -30t29 -82t-29 -82t-81 -30t-81 29t-29 81zM262 -380l28 1058h116l28 -1058h-172z" />
<glyph unicode="&#xa2;" horiz-adv-x="946" d="M106 564q0 198 99 331t267 161v230h124v-224q66 -4 132 -22t116 -50l-54 -112q-88 46 -194 56v-752q98 6 208 66l52 -110q-54 -36 -123 -59t-137 -27v-222h-124v230q-174 30 -270 161t-96 343zM252 576q0 -166 54 -260t166 -122v734q-108 -22 -164 -111t-56 -241z" />
<glyph unicode="&#xa3;" horiz-adv-x="1060" d="M124 666v126h192q-16 48 -46 112t-44 112t-14 114q0 164 100 254t280 90q216 0 344 -126l-74 -122q-106 106 -270 106q-110 0 -167 -50t-57 -148q0 -48 12 -87t38 -99q6 -14 24 -60t30 -96h334v-126h-318v-30q0 -296 -198 -504h642v-132h-790v132l68 82q130 156 130 398 q0 38 -2 54h-214z" />
<glyph unicode="&#xa4;" horiz-adv-x="1180" d="M114 92l140 176q-108 130 -108 358q0 226 108 356l-140 176l106 84l140 -170q96 54 230 54t230 -54l140 170l106 -84l-140 -176q108 -130 108 -356q0 -228 -108 -358l140 -176l-106 -84l-140 170q-96 -54 -230 -54t-230 54l-140 -170zM302 626q0 -182 73 -275t215 -93 t215 93t73 275q0 180 -73 273t-215 93t-215 -93t-73 -273z" />
<glyph unicode="&#xa5;" horiz-adv-x="1080" d="M56 1448h162l322 -786l324 786h160l-358 -784h232v-122h-288v-164h288v-124h-288v-254h-144v254h-288v124h288v164h-288v122h232z" />
<glyph unicode="&#xa6;" horiz-adv-x="506" d="M196 396h114v-896h-114v896zM196 738v894h114v-894h-114z" />
<glyph unicode="&#xa7;" horiz-adv-x="1062" d="M140 -328l56 130q180 -92 332 -92q126 0 186 53t60 165q0 92 -44 144t-146 80l-124 36q-164 46 -242 136t-78 232q0 176 112 292q-104 96 -104 258q0 172 107 269t299 97q86 0 173 -19t155 -53l-52 -130q-138 66 -280 66q-130 0 -192 -54t-62 -166q0 -92 44 -145t146 -81 l124 -36q160 -46 236 -135t76 -231q0 -172 -108 -290q108 -94 108 -262q0 -170 -104 -266t-290 -96q-94 0 -197 26t-191 72zM278 576q0 -94 49 -151t159 -89l124 -36q42 -12 96 -34q78 84 78 204q0 94 -47 149t-153 87l-124 36q-42 12 -100 38q-82 -84 -82 -204z" />
<glyph unicode="&#xa8;" horiz-adv-x="1000" d="M216 1362q0 48 26 76t72 28q48 0 74 -27t26 -75q0 -50 -26 -77t-74 -27q-46 0 -72 27t-26 75zM586 1362q0 48 26 76t72 28q48 0 74 -27t26 -75q0 -50 -26 -77t-74 -27q-46 0 -72 27t-26 75z" />
<glyph unicode="&#xa9;" horiz-adv-x="1660" d="M184 724q0 236 77 405t223 257t346 88t346 -88t223 -257t77 -405t-77 -405t-223 -257t-346 -88t-346 88t-223 257t-77 405zM296 724q0 -306 140 -474t394 -168t394 168t140 474t-140 474t-394 168t-394 -168t-140 -474zM546 726q0 172 80 269t224 97q56 0 111 -15t97 -41 l-48 -98q-86 46 -162 46q-90 0 -137 -64t-47 -186q0 -134 51 -202t149 -68q82 0 158 46l42 -96q-40 -28 -94 -43t-114 -15q-146 0 -228 97t-82 273z" />
<glyph unicode="&#xaa;" horiz-adv-x="1036" d="M150 844q0 152 124 219t410 67v54q0 74 -51 112t-149 38q-100 0 -214 -50l-38 112q120 64 266 64q152 0 237 -69t85 -191v-536q-72 -38 -158 -58t-170 -20q-162 0 -252 68t-90 190zM192 254v120h630v-120h-630zM286 848q0 -68 52 -103t154 -35q114 0 192 32v276 q-212 0 -305 -40t-93 -130z" />
<glyph unicode="&#xab;" horiz-adv-x="1158" d="M86 570l418 482l98 -94l-340 -386l340 -390l-100 -94zM546 570l418 482l98 -94l-340 -386l340 -390l-100 -94z" />
<glyph unicode="&#xac;" horiz-adv-x="1142" d="M144 834v138h854v-138v-336h-142v336h-712z" />
<glyph unicode="&#xad;" horiz-adv-x="810" d="M114 526v130h582v-130h-582z" />
<glyph unicode="&#xae;" horiz-adv-x="1660" d="M184 724q0 236 77 405t223 257t346 88t346 -88t223 -257t77 -405t-77 -405t-223 -257t-346 -88t-346 88t-223 257t-77 405zM296 724q0 -306 140 -474t394 -168t394 168t140 474t-140 474t-394 168t-394 -168t-140 -474zM612 368v712h236q104 0 163 -62t59 -174 q0 -82 -32 -139t-92 -83l154 -254h-138l-132 234h-104v-234h-114zM726 706h122q100 0 100 130q0 134 -110 134h-112v-264z" />
<glyph unicode="&#xaf;" horiz-adv-x="1000" d="M216 1282v116h568v-116h-568z" />
<glyph unicode="&#xb0;" horiz-adv-x="896" d="M112 1132q0 150 94 245t242 95t242 -95t94 -245t-94 -245t-242 -95t-242 95t-94 245zM256 1132q0 -90 53 -147t139 -57t139 57t53 147t-53 147t-139 57t-139 -57t-53 -147z" />
<glyph unicode="&#xb1;" horiz-adv-x="1142" d="M116 182v134h910v-134h-910zM116 820v138h384v366h142v-366h384v-138h-384v-366h-142v366h-384z" />
<glyph unicode="&#xb2;" horiz-adv-x="750" d="M66 1454q64 46 141 73t153 27q124 0 193 -63t69 -177q0 -66 -30 -125t-108 -141l-264 -274h420v-112h-572v112l328 348q54 56 73 94t19 86q0 64 -35 97t-103 33q-52 0 -111 -20t-115 -58z" />
<glyph unicode="&#xb3;" horiz-adv-x="798" d="M66 726l50 110q96 -66 220 -66q96 0 145 41t49 121q0 156 -182 156q-54 0 -96 -12l-44 60l270 292h-394v112h540v-112l-234 -234h2q128 0 201 -69t73 -191q0 -136 -87 -211t-243 -75q-78 0 -149 20t-121 58z" />
<glyph unicode="&#xb4;" horiz-adv-x="1000" d="M400 1230v20l206 318h170v-20l-264 -318h-112z" />
<glyph unicode="&#xb5;" horiz-adv-x="1172" d="M188 -414v1094v388h144v-726q0 -114 57 -172t169 -58q88 0 156 31t126 97v828h144v-1068h-132v130q-116 -156 -324 -156q-138 0 -196 84v-472h-144z" />
<glyph unicode="&#xb6;" horiz-adv-x="1144" d="M68 1046q0 190 121 296t337 106h290h132v-1448h-132v1314h-160v-1314h-130v648h-8q-212 0 -331 105t-119 293z" />
<glyph unicode="&#xb7;" horiz-adv-x="492" d="M136 666q0 52 29 82t81 30t81 -29t29 -81q0 -54 -29 -84t-81 -30t-81 30t-29 82z" />
<glyph unicode="&#xb8;" horiz-adv-x="1000" d="M294 -408l30 88q96 -38 166 -38q108 0 108 78t-100 78q-46 0 -88 -18l-42 48l92 212l114 -12l-100 -152q28 4 40 4q98 0 152 -42t54 -118q0 -82 -61 -128t-169 -46q-110 0 -196 46z" />
<glyph unicode="&#xb9;" horiz-adv-x="660" d="M56 1442l258 98h98v-878h-128v742l-192 -66z" />
<glyph unicode="&#xba;" horiz-adv-x="1048" d="M154 1024q0 214 97 326t275 112q176 0 272 -112t96 -326q0 -216 -96 -328t-274 -112t-274 112t-96 328zM210 254v120h630v-120h-630zM294 1024q0 -156 58 -237t172 -81t172 81t58 237t-58 236t-170 80q-114 0 -173 -80t-59 -236z" />
<glyph unicode="&#xbb;" horiz-adv-x="1158" d="M96 182l340 386l-340 390l100 94l416 -482l-418 -482zM556 182l340 386l-340 390l100 94l416 -482l-418 -482z" />
<glyph unicode="&#xbc;" horiz-adv-x="1754" d="M56 1350l258 98h98v-878h-128v742l-192 -66zM348 44l854 1424l108 -64l-854 -1424zM1028 176v110l352 592h184v-592h116v-110h-116v-176h-124v176h-412zM1160 286h280v482z" />
<glyph unicode="&#xbd;" horiz-adv-x="1824" d="M56 1350l258 98h98v-878h-128v742l-192 -66zM348 44l854 1424l108 -64l-854 -1424zM1144 792q64 46 141 73t153 27q124 0 193 -63t69 -177q0 -66 -30 -125t-108 -141l-264 -274h420v-112h-572v112l328 348q54 56 73 94t19 86q0 64 -35 97t-103 33q-52 0 -111 -20 t-115 -58z" />
<glyph unicode="&#xbe;" horiz-adv-x="1928" d="M66 634l50 110q96 -66 220 -66q96 0 145 41t49 121q0 156 -182 156q-54 0 -96 -12l-44 60l270 292h-394v112h540v-112l-234 -234h2q128 0 201 -69t73 -191q0 -136 -87 -211t-243 -75q-78 0 -149 20t-121 58zM522 44l854 1424l108 -64l-854 -1424zM1202 176v110l352 592 h184v-592h116v-110h-116v-176h-124v176h-412zM1334 286h280v482z" />
<glyph unicode="&#xbf;" horiz-adv-x="928" d="M134 -52q0 100 45 175t159 161q100 76 134 132t34 146q0 48 -6 116h146q6 -74 6 -122q0 -110 -47 -188t-177 -180q-80 -62 -109 -110t-29 -118q0 -224 242 -224q80 0 158 26t162 80l62 -128q-172 -120 -382 -120q-188 0 -293 94t-105 260zM462 980q0 54 29 84t81 30 t81 -30t29 -82t-29 -82t-81 -30t-81 29t-29 81z" />
<glyph unicode="&#xc0;" horiz-adv-x="1332" d="M64 0l518 1448h168l518 -1448h-162l-136 396h-610l-136 -396h-160zM310 1828v24h190l288 -266v-24h-132zM404 528h520l-260 756z" />
<glyph unicode="&#xc1;" horiz-adv-x="1332" d="M64 0l518 1448h168l518 -1448h-162l-136 396h-610l-136 -396h-160zM404 528h520l-260 756zM542 1562v24l306 266h190v-24l-364 -266h-132z" />
<glyph unicode="&#xc2;" horiz-adv-x="1332" d="M64 0l518 1448h168l518 -1448h-162l-136 396h-610l-136 -396h-160zM350 1562v24l234 266h164l234 -266v-24h-122l-196 188l-198 -188h-116zM404 528h520l-260 756z" />
<glyph unicode="&#xc3;" horiz-adv-x="1332" d="M64 0l518 1448h168l518 -1448h-162l-136 396h-610l-136 -396h-160zM340 1584q4 116 52 183t134 67q52 0 92 -21t88 -59q36 -28 58 -41t46 -13q70 0 86 130h96q-4 -116 -52 -183t-134 -67q-52 0 -92 21t-88 59q-36 28 -58 41t-46 13q-70 0 -86 -130h-96zM404 528h520 l-260 756z" />
<glyph unicode="&#xc4;" horiz-adv-x="1332" d="M64 0l518 1448h168l518 -1448h-162l-136 396h-610l-136 -396h-160zM374 1702q0 48 26 76t72 28q48 0 74 -27t26 -75q0 -50 -26 -77t-74 -27q-46 0 -72 27t-26 75zM404 528h520l-260 756zM760 1702q0 48 26 76t72 28q48 0 74 -27t26 -75q0 -50 -26 -77t-74 -27 q-46 0 -72 27t-26 75z" />
<glyph unicode="&#xc5;" horiz-adv-x="1332" d="M64 0l518 1448h168l518 -1448h-162l-136 396h-610l-136 -396h-160zM404 528h520l-260 756zM434 1750q0 100 61 156t171 56t171 -56t61 -156t-61 -156t-171 -56t-171 56t-61 156zM544 1750q0 -122 122 -122t122 122t-122 122t-122 -122z" />
<glyph unicode="&#xc6;" horiz-adv-x="1796" d="M-4 0l786 1448h152h746v-134h-660v-506h488v-136h-488v-538h684v-134h-828v380h-512l-204 -380h-164zM434 512h442v828z" />
<glyph unicode="&#xc7;" horiz-adv-x="1198" d="M108 696q0 232 78 409t220 273t330 96q96 0 191 -24t175 -70l-56 -122q-164 78 -314 78q-220 0 -344 -165t-124 -461q0 -292 125 -443t369 -151q178 0 300 70l56 -120q-62 -44 -160 -67t-208 -23h-4l-66 -100q28 4 40 4q98 0 152 -42t54 -118q0 -82 -61 -128t-169 -46 q-110 0 -196 46l30 88q96 -38 166 -38q108 0 108 78t-100 78q-46 0 -88 -18l-42 48l68 156q-252 34 -391 219t-139 493z" />
<glyph unicode="&#xc8;" horiz-adv-x="1148" d="M196 0v1448h836v-134h-688v-506h516v-136h-516v-538h712v-134h-860zM270 1828v24h190l288 -266v-24h-132z" />
<glyph unicode="&#xc9;" horiz-adv-x="1148" d="M196 0v1448h836v-134h-688v-506h516v-136h-516v-538h712v-134h-860zM502 1562v24l306 266h190v-24l-364 -266h-132z" />
<glyph unicode="&#xca;" horiz-adv-x="1148" d="M196 0v1448h836v-134h-688v-506h516v-136h-516v-538h712v-134h-860zM310 1562v24l234 266h164l234 -266v-24h-122l-196 188l-198 -188h-116z" />
<glyph unicode="&#xcb;" horiz-adv-x="1148" d="M196 0v1448h836v-134h-688v-506h516v-136h-516v-538h712v-134h-860zM334 1702q0 48 26 76t72 28q48 0 74 -27t26 -75q0 -50 -26 -77t-74 -27q-46 0 -72 27t-26 75zM720 1702q0 48 26 76t72 28q48 0 74 -27t26 -75q0 -50 -26 -77t-74 -27q-46 0 -72 27t-26 75z" />
<glyph unicode="&#xcc;" horiz-adv-x="548" d="M-82 1828v24h190l288 -266v-24h-132zM200 0v1448h148v-1448h-148z" />
<glyph unicode="&#xcd;" horiz-adv-x="548" d="M150 1562v24l306 266h190v-24l-364 -266h-132zM200 0v1448h148v-1448h-148z" />
<glyph unicode="&#xce;" horiz-adv-x="548" d="M-42 1562v24l234 266h164l234 -266v-24h-122l-196 188l-198 -188h-116zM200 0v1448h148v-1448h-148z" />
<glyph unicode="&#xcf;" horiz-adv-x="548" d="M-18 1702q0 48 26 76t72 28q48 0 74 -27t26 -75q0 -50 -26 -77t-74 -27q-46 0 -72 27t-26 75zM200 0v1448h148v-1448h-148zM368 1702q0 48 26 76t72 28q48 0 74 -27t26 -75q0 -50 -26 -77t-74 -27q-46 0 -72 27t-26 75z" />
<glyph unicode="&#xd0;" horiz-adv-x="1376" d="M58 668v130h136v650h386q324 0 496 -184t172 -540t-174 -540t-502 -184h-378v668h-136zM342 134h238q252 0 382 150t130 440q0 292 -132 441t-388 149h-230v-516h382v-130h-382v-534z" />
<glyph unicode="&#xd1;" horiz-adv-x="1444" d="M196 0v1448h138l770 -1194v1194h144v-1448h-138l-770 1196v-1196h-144zM396 1584q4 116 52 183t134 67q52 0 92 -21t88 -59q36 -28 58 -41t46 -13q70 0 86 130h96q-4 -116 -52 -183t-134 -67q-52 0 -92 21t-88 59q-36 28 -58 41t-46 13q-70 0 -86 -130h-96z" />
<glyph unicode="&#xd2;" horiz-adv-x="1424" d="M128 724q0 368 150 559t434 191t434 -191t150 -559t-150 -559t-434 -191t-434 191t-150 559zM284 724q0 -304 108 -460t320 -156t320 156t108 460t-108 460t-320 156t-320 -156t-108 -460zM356 1828v24h190l288 -266v-24h-132z" />
<glyph unicode="&#xd3;" horiz-adv-x="1424" d="M128 724q0 368 150 559t434 191t434 -191t150 -559t-150 -559t-434 -191t-434 191t-150 559zM284 724q0 -304 108 -460t320 -156t320 156t108 460t-108 460t-320 156t-320 -156t-108 -460zM588 1562v24l306 266h190v-24l-364 -266h-132z" />
<glyph unicode="&#xd4;" horiz-adv-x="1424" d="M128 724q0 368 150 559t434 191t434 -191t150 -559t-150 -559t-434 -191t-434 191t-150 559zM284 724q0 -304 108 -460t320 -156t320 156t108 460t-108 460t-320 156t-320 -156t-108 -460zM396 1562v24l234 266h164l234 -266v-24h-122l-196 188l-198 -188h-116z" />
<glyph unicode="&#xd5;" horiz-adv-x="1424" d="M128 724q0 368 150 559t434 191t434 -191t150 -559t-150 -559t-434 -191t-434 191t-150 559zM284 724q0 -304 108 -460t320 -156t320 156t108 460t-108 460t-320 156t-320 -156t-108 -460zM386 1584q4 116 52 183t134 67q52 0 92 -21t88 -59q36 -28 58 -41t46 -13 q70 0 86 130h96q-4 -116 -52 -183t-134 -67q-52 0 -92 21t-88 59q-36 28 -58 41t-46 13q-70 0 -86 -130h-96z" />
<glyph unicode="&#xd6;" horiz-adv-x="1424" d="M128 724q0 368 150 559t434 191t434 -191t150 -559t-150 -559t-434 -191t-434 191t-150 559zM284 724q0 -304 108 -460t320 -156t320 156t108 460t-108 460t-320 156t-320 -156t-108 -460zM420 1702q0 48 26 76t72 28q48 0 74 -27t26 -75q0 -50 -26 -77t-74 -27 q-46 0 -72 27t-26 75zM806 1702q0 48 26 76t72 28q48 0 74 -27t26 -75q0 -50 -26 -77t-74 -27q-46 0 -72 27t-26 75z" />
<glyph unicode="&#xd7;" horiz-adv-x="1142" d="M156 398l322 338l-322 338l94 96l322 -336l320 336l94 -96l-322 -338l322 -338l-94 -96l-320 336l-322 -336z" />
<glyph unicode="&#xd8;" horiz-adv-x="1424" d="M68 4l172 216q-112 188 -112 504q0 368 150 559t434 191q250 0 398 -150l110 144h136v-24l-172 -216q112 -188 112 -504q0 -368 -150 -559t-434 -191q-250 0 -398 150l-110 -144h-136v24zM280 724q0 -242 58 -382l686 872q-106 130 -312 130q-214 0 -323 -157t-109 -463z M400 234q106 -130 312 -130q214 0 323 157t109 463q0 242 -58 382z" />
<glyph unicode="&#xd9;" horiz-adv-x="1368" d="M186 514v934h148v-934q0 -200 89 -303t261 -103t261 103t89 303v934h148v-934q0 -254 -132 -397t-368 -143q-234 0 -365 143t-131 397zM328 1828v24h190l288 -266v-24h-132z" />
<glyph unicode="&#xda;" horiz-adv-x="1368" d="M186 514v934h148v-934q0 -200 89 -303t261 -103t261 103t89 303v934h148v-934q0 -254 -132 -397t-368 -143q-234 0 -365 143t-131 397zM560 1562v24l306 266h190v-24l-364 -266h-132z" />
<glyph unicode="&#xdb;" horiz-adv-x="1368" d="M186 514v934h148v-934q0 -200 89 -303t261 -103t261 103t89 303v934h148v-934q0 -254 -132 -397t-368 -143q-234 0 -365 143t-131 397zM368 1562v24l234 266h164l234 -266v-24h-122l-196 188l-198 -188h-116z" />
<glyph unicode="&#xdc;" horiz-adv-x="1368" d="M186 514v934h148v-934q0 -200 89 -303t261 -103t261 103t89 303v934h148v-934q0 -254 -132 -397t-368 -143q-234 0 -365 143t-131 397zM392 1702q0 48 26 76t72 28q48 0 74 -27t26 -75q0 -50 -26 -77t-74 -27q-46 0 -72 27t-26 75zM778 1702q0 48 26 76t72 28 q48 0 74 -27t26 -75q0 -50 -26 -77t-74 -27q-46 0 -72 27t-26 75z" />
<glyph unicode="&#xdd;" horiz-adv-x="1172" d="M56 1448h166l366 -754l364 754h164l-458 -928v-520h-148v520zM460 1562v24l306 266h190v-24l-364 -266h-132z" />
<glyph unicode="&#xde;" horiz-adv-x="1226" d="M196 0v1448h148v-254h336q212 0 330 -119t118 -333q0 -216 -119 -336t-333 -120h-332v-286h-148zM344 420h336q144 0 218 82t74 240q0 156 -75 237t-221 81h-332v-640z" />
<glyph unicode="&#xdf;" horiz-adv-x="1192" d="M188 0v1124q0 202 106 314t294 112q170 0 265 -91t95 -253q0 -130 -62 -225t-184 -149q188 -34 292 -151t104 -301q0 -186 -108 -290t-300 -104q-120 0 -224 30l38 130q88 -30 186 -30q130 0 197 66t67 196q0 162 -107 252t-315 102v124q142 62 209 147t67 201 q0 106 -55 161t-163 55q-128 0 -193 -75t-65 -221v-1124h-144z" />
<glyph unicode="&#xe0;" horiz-adv-x="1056" d="M90 296q0 190 158 281t490 93v74q0 104 -65 159t-189 55q-130 0 -252 -58l-38 122q142 72 306 72q172 0 277 -86t105 -252v-756h-134v130q-104 -152 -322 -152q-158 0 -247 84t-89 234zM236 306q0 -96 56 -146t166 -50q86 0 154 32t126 98v310q-258 -2 -380 -61 t-122 -183zM252 1548v20h170l190 -318v-20h-112z" />
<glyph unicode="&#xe1;" horiz-adv-x="1056" d="M90 296q0 190 158 281t490 93v74q0 104 -65 159t-189 55q-130 0 -252 -58l-38 122q142 72 306 72q172 0 277 -86t105 -252v-756h-134v130q-104 -152 -322 -152q-158 0 -247 84t-89 234zM236 306q0 -96 56 -146t166 -50q86 0 154 32t126 98v310q-258 -2 -380 -61 t-122 -183zM404 1230v20l206 318h170v-20l-264 -318h-112z" />
<glyph unicode="&#xe2;" horiz-adv-x="1056" d="M90 296q0 190 158 281t490 93v74q0 104 -65 159t-189 55q-130 0 -252 -58l-38 122q142 72 306 72q172 0 277 -86t105 -252v-756h-134v130q-104 -152 -322 -152q-158 0 -247 84t-89 234zM224 1230v20l204 318h152l204 -318v-20h-110l-174 226l-172 -226h-104zM236 306 q0 -96 56 -146t166 -50q86 0 154 32t126 98v310q-258 -2 -380 -61t-122 -183z" />
<glyph unicode="&#xe3;" horiz-adv-x="1056" d="M90 296q0 190 158 281t490 93v74q0 104 -65 159t-189 55q-130 0 -252 -58l-38 122q142 72 306 72q172 0 277 -86t105 -252v-756h-134v130q-104 -152 -322 -152q-158 0 -247 84t-89 234zM178 1244q4 116 52 183t134 67q52 0 92 -21t88 -59q36 -28 58 -41t46 -13 q70 0 86 130h96q-4 -116 -52 -183t-134 -67q-52 0 -92 21t-88 59q-36 28 -58 41t-46 13q-70 0 -86 -130h-96zM236 306q0 -96 56 -146t166 -50q86 0 154 32t126 98v310q-258 -2 -380 -61t-122 -183z" />
<glyph unicode="&#xe4;" horiz-adv-x="1056" d="M90 296q0 190 158 281t490 93v74q0 104 -65 159t-189 55q-130 0 -252 -58l-38 122q142 72 306 72q172 0 277 -86t105 -252v-756h-134v130q-104 -152 -322 -152q-158 0 -247 84t-89 234zM220 1362q0 48 26 76t72 28q48 0 74 -27t26 -75q0 -50 -26 -77t-74 -27 q-46 0 -72 27t-26 75zM236 306q0 -96 56 -146t166 -50q86 0 154 32t126 98v310q-258 -2 -380 -61t-122 -183zM590 1362q0 48 26 76t72 28q48 0 74 -27t26 -75q0 -50 -26 -77t-74 -27q-46 0 -72 27t-26 75z" />
<glyph unicode="&#xe5;" horiz-adv-x="1056" d="M90 296q0 190 158 281t490 93v74q0 104 -65 159t-189 55q-130 0 -252 -58l-38 122q142 72 306 72q172 0 277 -86t105 -252v-756h-134v130q-104 -152 -322 -152q-158 0 -247 84t-89 234zM236 306q0 -96 56 -146t166 -50q86 0 154 32t126 98v310q-258 -2 -380 -61 t-122 -183zM274 1420q0 100 61 156t169 56t169 -56t61 -156t-61 -156t-169 -56t-169 56t-61 156zM382 1420q0 -124 122 -124t122 124t-122 124t-122 -124z" />
<glyph unicode="&#xe6;" horiz-adv-x="1656" d="M90 296q0 184 153 271t475 89v88q0 106 -62 160t-182 54q-126 0 -242 -58l-38 122q78 40 156 56t140 16q118 0 201 -46t121 -132q50 84 134 131t192 47q196 0 306 -136t110 -378q0 -50 -6 -84h-692q8 -190 91 -287t235 -97q140 0 266 84l54 -116q-60 -50 -147 -77 t-181 -27q-124 0 -219 50t-155 146q-82 -100 -176 -147t-208 -47q-154 0 -240 84t-86 234zM236 306q0 -96 54 -146t158 -50q88 0 162 42t140 130q-36 108 -36 252v2q-244 -2 -361 -58t-117 -172zM860 618h548q-2 164 -74 255t-200 91q-122 0 -191 -88t-83 -258z" />
<glyph unicode="&#xe7;" horiz-adv-x="958" d="M106 538q0 166 58 292t163 195t243 69q76 0 156 -23t146 -63l-56 -118q-130 70 -250 70q-146 0 -228 -108t-82 -302q0 -216 85 -327t251 -111q124 0 238 68l54 -116q-56 -42 -136 -65t-168 -23h-10l-66 -100q28 4 40 4q98 0 152 -42t54 -118q0 -82 -61 -128t-169 -46 q-110 0 -196 46l30 88q96 -38 166 -38q108 0 108 78t-100 78q-46 0 -88 -18l-42 48l70 160q-172 34 -267 177t-95 373z" />
<glyph unicode="&#xe8;" horiz-adv-x="1076" d="M110 534q0 264 116 412t322 148q202 0 314 -136t112 -378q0 -48 -6 -84h-712q8 -190 93 -287t243 -97q150 0 276 84l56 -116q-62 -50 -151 -77t-189 -27q-224 0 -349 148t-125 410zM260 618h568q-2 164 -77 255t-207 91q-128 0 -199 -87t-85 -259zM296 1548v20h170 l190 -318v-20h-112z" />
<glyph unicode="&#xe9;" horiz-adv-x="1076" d="M110 534q0 264 116 412t322 148q202 0 314 -136t112 -378q0 -48 -6 -84h-712q8 -190 93 -287t243 -97q150 0 276 84l56 -116q-62 -50 -151 -77t-189 -27q-224 0 -349 148t-125 410zM260 618h568q-2 164 -77 255t-207 91q-128 0 -199 -87t-85 -259zM448 1230v20l206 318 h170v-20l-264 -318h-112z" />
<glyph unicode="&#xea;" horiz-adv-x="1076" d="M110 534q0 264 116 412t322 148q202 0 314 -136t112 -378q0 -48 -6 -84h-712q8 -190 93 -287t243 -97q150 0 276 84l56 -116q-62 -50 -151 -77t-189 -27q-224 0 -349 148t-125 410zM260 618h568q-2 164 -77 255t-207 91q-128 0 -199 -87t-85 -259zM268 1230v20l204 318 h152l204 -318v-20h-110l-174 226l-172 -226h-104z" />
<glyph unicode="&#xeb;" horiz-adv-x="1076" d="M110 534q0 264 116 412t322 148q202 0 314 -136t112 -378q0 -48 -6 -84h-712q8 -190 93 -287t243 -97q150 0 276 84l56 -116q-62 -50 -151 -77t-189 -27q-224 0 -349 148t-125 410zM260 618h568q-2 164 -77 255t-207 91q-128 0 -199 -87t-85 -259zM264 1362q0 48 26 76 t72 28q48 0 74 -27t26 -75q0 -50 -26 -77t-74 -27q-46 0 -72 27t-26 75zM634 1362q0 48 26 76t72 28q48 0 74 -27t26 -75q0 -50 -26 -77t-74 -27q-46 0 -72 27t-26 75z" />
<glyph unicode="&#xec;" horiz-adv-x="528" d="M12 1548v20h170l190 -318v-20h-112zM192 0v1068h144v-1068h-144z" />
<glyph unicode="&#xed;" horiz-adv-x="528" d="M164 1230v20l206 318h170v-20l-264 -318h-112zM192 0v1068h144v-1068h-144z" />
<glyph unicode="&#xee;" horiz-adv-x="528" d="M-16 1230v20l204 318h152l204 -318v-20h-110l-174 226l-172 -226h-104zM192 0v1068h144v-1068h-144z" />
<glyph unicode="&#xef;" horiz-adv-x="528" d="M4 1362q0 48 26 76t72 28t72 -28t26 -74q0 -50 -26 -77t-72 -27t-72 27t-26 75zM192 0v1068h144v-1068h-144zM328 1362q0 48 26 76t72 28t72 -28t26 -74q0 -50 -26 -77t-72 -27t-72 27t-26 75z" />
<glyph unicode="&#xf0;" horiz-adv-x="1110" d="M104 516q0 264 111 401t317 137q98 0 175 -45t121 -127q-68 254 -266 412l-242 -154l-54 88l212 124q-82 50 -174 82l-56 20l38 106l56 -20q146 -54 246 -118l198 124l54 -88l-166 -98q164 -132 243 -326t79 -462q0 -294 -115 -446t-331 -152t-331 138t-115 404zM254 516 q0 -202 75 -307t221 -105t222 105t76 307q0 194 -79 303t-219 109q-146 0 -221 -105t-75 -307z" />
<glyph unicode="&#xf1;" horiz-adv-x="1160" d="M188 0v1068h134v-114q134 140 328 140q156 0 244 -90t88 -248v-756h-144v746q0 102 -58 155t-168 53q-80 0 -148 -25t-132 -81v-848h-144zM260 1244q4 116 52 183t134 67q52 0 92 -21t88 -59q36 -28 58 -41t46 -13q70 0 86 130h96q-4 -116 -52 -183t-134 -67 q-52 0 -92 21t-88 59q-36 28 -58 41t-46 13q-70 0 -86 -130h-96z" />
<glyph unicode="&#xf2;" horiz-adv-x="1110" d="M114 534q0 274 114 417t328 143q212 0 326 -143t114 -417t-114 -417t-328 -143q-212 0 -326 143t-114 417zM264 534q0 -212 74 -321t216 -109q144 0 218 109t74 321t-74 321t-216 109q-144 0 -218 -109t-74 -321zM304 1548v20h170l190 -318v-20h-112z" />
<glyph unicode="&#xf3;" horiz-adv-x="1110" d="M114 534q0 274 114 417t328 143q212 0 326 -143t114 -417t-114 -417t-328 -143q-212 0 -326 143t-114 417zM264 534q0 -212 74 -321t216 -109q144 0 218 109t74 321t-74 321t-216 109q-144 0 -218 -109t-74 -321zM456 1230v20l206 318h170v-20l-264 -318h-112z" />
<glyph unicode="&#xf4;" horiz-adv-x="1110" d="M114 534q0 274 114 417t328 143q212 0 326 -143t114 -417t-114 -417t-328 -143q-212 0 -326 143t-114 417zM264 534q0 -212 74 -321t216 -109q144 0 218 109t74 321t-74 321t-216 109q-144 0 -218 -109t-74 -321zM276 1230v20l204 318h152l204 -318v-20h-110l-174 226 l-172 -226h-104z" />
<glyph unicode="&#xf5;" horiz-adv-x="1110" d="M114 534q0 274 114 417t328 143q212 0 326 -143t114 -417t-114 -417t-328 -143q-212 0 -326 143t-114 417zM230 1244q4 116 52 183t134 67q52 0 92 -21t88 -59q36 -28 58 -41t46 -13q70 0 86 130h96q-4 -116 -52 -183t-134 -67q-52 0 -92 21t-88 59q-36 28 -58 41t-46 13 q-70 0 -86 -130h-96zM264 534q0 -212 74 -321t216 -109q144 0 218 109t74 321t-74 321t-216 109q-144 0 -218 -109t-74 -321z" />
<glyph unicode="&#xf6;" horiz-adv-x="1110" d="M114 534q0 274 114 417t328 143q212 0 326 -143t114 -417t-114 -417t-328 -143q-212 0 -326 143t-114 417zM264 534q0 -212 74 -321t216 -109q144 0 218 109t74 321t-74 321t-216 109q-144 0 -218 -109t-74 -321zM272 1362q0 48 26 76t72 28q48 0 74 -27t26 -75 q0 -50 -26 -77t-74 -27q-46 0 -72 27t-26 75zM642 1362q0 48 26 76t72 28q48 0 74 -27t26 -75q0 -50 -26 -77t-74 -27q-46 0 -72 27t-26 75z" />
<glyph unicode="&#xf7;" horiz-adv-x="1142" d="M144 668v138h854v-138h-854zM468 378q0 48 29 77t75 29t75 -29t29 -77t-29 -77t-75 -29t-75 29t-29 77zM468 1094q0 48 29 77t75 29t75 -29t29 -77t-29 -77t-75 -29t-75 29t-29 77z" />
<glyph unicode="&#xf8;" horiz-adv-x="1110" d="M54 0l140 172q-80 138 -80 360q0 276 114 419t328 143q182 0 290 -108l80 102h130v-20l-140 -172q80 -138 80 -362q0 -274 -114 -417t-326 -143q-180 0 -292 108l-80 -102h-130v20zM260 534q0 -146 30 -242l474 590q-72 86 -208 86q-146 0 -221 -110t-75 -324zM346 186 q72 -86 208 -86q146 0 221 110t75 324q0 146 -30 242z" />
<glyph unicode="&#xf9;" horiz-adv-x="1144" d="M174 312v756h144v-746q0 -102 56 -155t164 -53q84 0 150 30t124 96v828h144v-1068h-134v128q-118 -154 -322 -154q-154 0 -240 90t-86 248zM314 1548v20h170l190 -318v-20h-112z" />
<glyph unicode="&#xfa;" horiz-adv-x="1144" d="M174 312v756h144v-746q0 -102 56 -155t164 -53q84 0 150 30t124 96v828h144v-1068h-134v128q-118 -154 -322 -154q-154 0 -240 90t-86 248zM466 1230v20l206 318h170v-20l-264 -318h-112z" />
<glyph unicode="&#xfb;" horiz-adv-x="1144" d="M174 312v756h144v-746q0 -102 56 -155t164 -53q84 0 150 30t124 96v828h144v-1068h-134v128q-118 -154 -322 -154q-154 0 -240 90t-86 248zM286 1230v20l204 318h152l204 -318v-20h-110l-174 226l-172 -226h-104z" />
<glyph unicode="&#xfc;" horiz-adv-x="1144" d="M174 312v756h144v-746q0 -102 56 -155t164 -53q84 0 150 30t124 96v828h144v-1068h-134v128q-118 -154 -322 -154q-154 0 -240 90t-86 248zM282 1362q0 48 26 76t72 28q48 0 74 -27t26 -75q0 -50 -26 -77t-74 -27q-46 0 -72 27t-26 75zM652 1362q0 48 26 76t72 28 q48 0 74 -27t26 -75q0 -50 -26 -77t-74 -27q-46 0 -72 27t-26 75z" />
<glyph unicode="&#xfd;" horiz-adv-x="1030" d="M64 1068h158l296 -894l292 894h156l-380 -1084q-52 -144 -169 -251t-295 -171l-52 128q144 50 234 123t140 177zM418 1230v20l206 318h170v-20l-264 -318h-112z" />
<glyph unicode="&#xfe;" horiz-adv-x="1148" d="M188 -414v1400v554h144v-594q108 148 300 148q190 0 296 -150t106 -418q0 -260 -113 -406t-313 -146q-82 0 -153 32t-123 90v-510h-144zM332 230q52 -58 124 -91t152 -33q136 0 206 106t70 314q0 212 -73 320t-215 108q-78 0 -142 -31t-122 -99v-594z" />
<glyph unicode="&#xff;" horiz-adv-x="1030" d="M64 1068h158l296 -894l292 894h156l-380 -1084q-52 -144 -169 -251t-295 -171l-52 128q144 50 234 123t140 177zM234 1362q0 48 26 76t72 28q48 0 74 -27t26 -75q0 -50 -26 -77t-74 -27q-46 0 -72 27t-26 75zM604 1362q0 48 26 76t72 28q48 0 74 -27t26 -75 q0 -50 -26 -77t-74 -27q-46 0 -72 27t-26 75z" />
<glyph unicode="&#x100;" horiz-adv-x="1332" d="M64 0l518 1448h168l518 -1448h-162l-136 396h-610l-136 -396h-160zM382 1622v116h568v-116h-568zM404 528h520l-260 756z" />
<glyph unicode="&#x101;" horiz-adv-x="1056" d="M90 296q0 190 158 281t490 93v74q0 104 -65 159t-189 55q-130 0 -252 -58l-38 122q142 72 306 72q172 0 277 -86t105 -252v-756h-134v130q-104 -152 -322 -152q-158 0 -247 84t-89 234zM220 1282v116h568v-116h-568zM236 306q0 -96 56 -146t166 -50q86 0 154 32t126 98 v310q-258 -2 -380 -61t-122 -183z" />
<glyph unicode="&#x102;" horiz-adv-x="1332" d="M64 0l518 1448h168l518 -1448h-162l-136 396h-610l-136 -396h-160zM386 1860h102q24 -166 180 -166q158 0 182 166h96q-6 -136 -80 -213t-200 -77t-200 77t-80 213zM404 528h520l-260 756z" />
<glyph unicode="&#x103;" horiz-adv-x="1056" d="M90 296q0 190 158 281t490 93v74q0 104 -65 159t-189 55q-130 0 -252 -58l-38 122q142 72 306 72q172 0 277 -86t105 -252v-756h-134v130q-104 -152 -322 -152q-158 0 -247 84t-89 234zM224 1520h102q24 -166 180 -166q158 0 182 166h96q-6 -136 -80 -213t-200 -77 t-200 77t-80 213zM236 306q0 -96 56 -146t166 -50q86 0 154 32t126 98v310q-258 -2 -380 -61t-122 -183z" />
<glyph unicode="&#x104;" horiz-adv-x="1332" d="M64 0l518 1448h168l518 -1448q-88 -50 -134 -108t-46 -122q0 -88 96 -88q66 0 134 36l42 -94q-40 -28 -92 -43t-108 -15q-94 0 -148 47t-54 131q0 74 44 142t124 114h-20l-136 396h-610l-136 -396h-160zM404 528h520l-260 756z" />
<glyph unicode="&#x105;" horiz-adv-x="1056" d="M90 296q0 190 158 281t490 93v74q0 104 -65 159t-189 55q-130 0 -252 -58l-38 122q142 72 306 72q172 0 277 -86t105 -252v-756q-88 -50 -134 -108t-46 -122q0 -88 96 -88q66 0 134 36l42 -94q-40 -28 -92 -43t-108 -15q-94 0 -148 47t-54 131q0 76 47 145t131 117v128 q-62 -80 -142 -118t-182 -38q-158 0 -247 84t-89 234zM236 306q0 -96 56 -146t166 -50q86 0 154 32t126 98v310q-258 -2 -380 -61t-122 -183z" />
<glyph unicode="&#x106;" horiz-adv-x="1198" d="M108 696q0 232 78 409t220 273t330 96q96 0 191 -24t175 -70l-56 -122q-164 78 -314 78q-220 0 -344 -165t-124 -461q0 -292 125 -443t369 -151q178 0 300 70l56 -120q-62 -44 -160 -67t-208 -23q-200 0 -343 86t-219 248t-76 386zM578 1562v24l306 266h190v-24 l-364 -266h-132z" />
<glyph unicode="&#x107;" horiz-adv-x="958" d="M106 538q0 166 58 292t163 195t243 69q76 0 156 -23t146 -63l-56 -118q-130 70 -250 70q-146 0 -228 -108t-82 -302q0 -216 85 -327t251 -111q124 0 238 68l54 -116q-56 -42 -136 -65t-168 -23q-224 0 -349 148t-125 414zM428 1230v20l206 318h170v-20l-264 -318h-112z " />
<glyph unicode="&#x108;" horiz-adv-x="1198" d="M108 696q0 232 78 409t220 273t330 96q96 0 191 -24t175 -70l-56 -122q-164 78 -314 78q-220 0 -344 -165t-124 -461q0 -292 125 -443t369 -151q178 0 300 70l56 -120q-62 -44 -160 -67t-208 -23q-200 0 -343 86t-219 248t-76 386zM386 1562v24l234 266h164l234 -266v-24 h-122l-196 188l-198 -188h-116z" />
<glyph unicode="&#x109;" horiz-adv-x="958" d="M106 538q0 166 58 292t163 195t243 69q76 0 156 -23t146 -63l-56 -118q-130 70 -250 70q-146 0 -228 -108t-82 -302q0 -216 85 -327t251 -111q124 0 238 68l54 -116q-56 -42 -136 -65t-168 -23q-224 0 -349 148t-125 414zM248 1230v20l204 318h152l204 -318v-20h-110 l-174 226l-172 -226h-104z" />
<glyph unicode="&#x10a;" horiz-adv-x="1198" d="M108 696q0 232 78 409t220 273t330 96q96 0 191 -24t175 -70l-56 -122q-164 78 -314 78q-220 0 -344 -165t-124 -461q0 -292 125 -443t369 -151q178 0 300 70l56 -120q-62 -44 -160 -67t-208 -23q-200 0 -343 86t-219 248t-76 386zM598 1706q0 52 27 80t77 28t77 -28 t27 -78q0 -52 -27 -80t-77 -28t-77 28t-27 78z" />
<glyph unicode="&#x10b;" horiz-adv-x="958" d="M106 538q0 166 58 292t163 195t243 69q76 0 156 -23t146 -63l-56 -118q-130 70 -250 70q-146 0 -228 -108t-82 -302q0 -216 85 -327t251 -111q124 0 238 68l54 -116q-56 -42 -136 -65t-168 -23q-224 0 -349 148t-125 414zM424 1366q0 52 27 80t77 28t77 -28t27 -78 q0 -52 -27 -80t-77 -28t-77 28t-27 78z" />
<glyph unicode="&#x10c;" horiz-adv-x="1198" d="M108 696q0 232 78 409t220 273t330 96q96 0 191 -24t175 -70l-56 -122q-164 78 -314 78q-220 0 -344 -165t-124 -461q0 -292 125 -443t369 -151q178 0 300 70l56 -120q-62 -44 -160 -67t-208 -23q-200 0 -343 86t-219 248t-76 386zM386 1828v24h122l198 -188l196 188h116 v-24l-234 -266h-164z" />
<glyph unicode="&#x10d;" horiz-adv-x="958" d="M106 538q0 166 58 292t163 195t243 69q76 0 156 -23t146 -63l-56 -118q-130 70 -250 70q-146 0 -228 -108t-82 -302q0 -216 85 -327t251 -111q124 0 238 68l54 -116q-56 -42 -136 -65t-168 -23q-224 0 -349 148t-125 414zM248 1548v20h110l172 -226l174 226h104v-20 l-204 -318h-152z" />
<glyph unicode="&#x10e;" horiz-adv-x="1378" d="M196 0v1448h386q324 0 496 -184t172 -540t-174 -540t-502 -184h-378zM344 134h238q252 0 382 150t130 440q0 292 -132 441t-388 149h-230v-1180zM360 1828v24h122l198 -188l196 188h116v-24l-234 -266h-164z" />
<glyph unicode="&#x10f;" horiz-adv-x="1148" d="M114 542q0 260 113 406t313 146q82 0 153 -32t123 -90v568h144v-1458v-82h-134v136q-54 -80 -133 -121t-177 -41q-190 0 -296 150t-106 418zM264 542q0 -212 73 -320t215 -108q78 0 142 31t122 99v594q-52 58 -124 91t-152 33q-136 0 -206 -106t-70 -314zM1116 1120v420 h144v-20l-54 -400h-90z" />
<glyph unicode="&#x110;" horiz-adv-x="1376" d="M58 668v130h136v650h386q324 0 496 -184t172 -540t-174 -540t-502 -184h-378v668h-136zM342 134h238q252 0 382 150t130 440q0 292 -132 441t-388 149h-230v-516h382v-130h-382v-534z" />
<glyph unicode="&#x111;" horiz-adv-x="1152" d="M114 524q0 252 114 393t316 141q82 0 153 -32t123 -90v308h-460v106h460v190h144v-190h136v-106h-136v-1244h-134v136q-54 -80 -133 -121t-177 -41q-192 0 -299 145t-107 405zM264 524q0 -202 74 -306t218 -104q78 0 142 31t122 99v558q-50 58 -124 91t-152 33 q-138 0 -209 -102t-71 -300z" />
<glyph unicode="&#x112;" horiz-adv-x="1148" d="M196 0v1448h836v-134h-688v-506h516v-136h-516v-538h712v-134h-860zM342 1622v116h568v-116h-568z" />
<glyph unicode="&#x113;" horiz-adv-x="1076" d="M110 534q0 264 116 412t322 148q202 0 314 -136t112 -378q0 -48 -6 -84h-712q8 -190 93 -287t243 -97q150 0 276 84l56 -116q-62 -50 -151 -77t-189 -27q-224 0 -349 148t-125 410zM260 618h568q-2 164 -77 255t-207 91q-128 0 -199 -87t-85 -259zM264 1282v116h568v-116 h-568z" />
<glyph unicode="&#x114;" horiz-adv-x="1148" d="M196 0v1448h836v-134h-688v-506h516v-136h-516v-538h712v-134h-860zM346 1860h102q24 -166 180 -166q158 0 182 166h96q-6 -136 -80 -213t-200 -77t-200 77t-80 213z" />
<glyph unicode="&#x115;" horiz-adv-x="1076" d="M110 534q0 264 116 412t322 148q202 0 314 -136t112 -378q0 -48 -6 -84h-712q8 -190 93 -287t243 -97q150 0 276 84l56 -116q-62 -50 -151 -77t-189 -27q-224 0 -349 148t-125 410zM260 618h568q-2 164 -77 255t-207 91q-128 0 -199 -87t-85 -259zM268 1520h102 q24 -166 180 -166q158 0 182 166h96q-6 -136 -80 -213t-200 -77t-200 77t-80 213z" />
<glyph unicode="&#x116;" horiz-adv-x="1148" d="M196 0v1448h836v-134h-688v-506h516v-136h-516v-538h712v-134h-860zM522 1706q0 52 27 80t77 28t77 -28t27 -78q0 -52 -27 -80t-77 -28t-77 28t-27 78z" />
<glyph unicode="&#x117;" horiz-adv-x="1076" d="M110 534q0 264 116 412t322 148q202 0 314 -136t112 -378q0 -48 -6 -84h-712q8 -190 93 -287t243 -97q150 0 276 84l56 -116q-62 -50 -151 -77t-189 -27q-224 0 -349 148t-125 410zM260 618h568q-2 164 -77 255t-207 91q-128 0 -199 -87t-85 -259zM444 1366q0 52 27 80 t77 28t77 -28t27 -78q0 -52 -27 -80t-77 -28t-77 28t-27 78z" />
<glyph unicode="&#x118;" horiz-adv-x="1148" d="M196 0v1448h836v-134h-688v-506h516v-136h-516v-538h712v-134q-88 -50 -134 -108t-46 -122q0 -88 96 -88q66 0 134 36l42 -94q-40 -28 -92 -43t-108 -15q-94 0 -148 47t-54 131q0 74 44 142t124 114h-718z" />
<glyph unicode="&#x119;" horiz-adv-x="1076" d="M110 534q0 264 116 412t322 148q202 0 314 -136t112 -378q0 -48 -6 -84h-712q8 -190 93 -287t243 -97q150 0 276 84l56 -116q-20 -16 -72 -44q-98 -56 -153 -126t-55 -140q0 -88 96 -88q66 0 134 36l42 -94q-40 -28 -92 -43t-108 -15q-94 0 -148 47t-54 131q0 64 34 125 t96 111q-44 -4 -60 -4q-224 0 -349 147t-125 411zM260 618h568q-2 164 -77 255t-207 91q-128 0 -199 -87t-85 -259z" />
<glyph unicode="&#x11a;" horiz-adv-x="1148" d="M196 0v1448h836v-134h-688v-506h516v-136h-516v-538h712v-134h-860zM310 1828v24h122l198 -188l196 188h116v-24l-234 -266h-164z" />
<glyph unicode="&#x11b;" horiz-adv-x="1076" d="M110 534q0 264 116 412t322 148q202 0 314 -136t112 -378q0 -48 -6 -84h-712q8 -190 93 -287t243 -97q150 0 276 84l56 -116q-62 -50 -151 -77t-189 -27q-224 0 -349 148t-125 410zM260 618h568q-2 164 -77 255t-207 91q-128 0 -199 -87t-85 -259zM268 1548v20h110 l172 -226l174 226h104v-20l-204 -318h-152z" />
<glyph unicode="&#x11c;" horiz-adv-x="1336" d="M128 724q0 234 77 403t222 258t347 89q104 0 203 -24t169 -66l-46 -126q-170 80 -330 80q-240 0 -363 -155t-123 -459t124 -460t366 -156q132 0 258 40v474h-268v134h416v-684q-74 -46 -181 -72t-225 -26q-202 0 -347 89t-222 258t-77 403zM402 1562v24l234 266h164 l234 -266v-24h-122l-196 188l-198 -188h-116z" />
<glyph unicode="&#x11d;" horiz-adv-x="1154" d="M114 572q0 246 114 384t316 138q88 0 162 -36t126 -102v112h134v-1076q0 -204 -122 -318t-340 -114q-80 0 -157 16t-131 44l44 130q112 -56 244 -56q156 0 237 76t81 222v190q-108 -148 -302 -148q-190 0 -298 142t-108 396zM264 572q0 -196 74 -297t220 -101 q78 0 142 31t122 99v534q-54 60 -126 92t-152 32q-138 0 -209 -98t-71 -292zM290 1230v20l204 318h152l204 -318v-20h-110l-174 226l-172 -226h-104z" />
<glyph unicode="&#x11e;" horiz-adv-x="1336" d="M128 724q0 234 77 403t222 258t347 89q104 0 203 -24t169 -66l-46 -126q-170 80 -330 80q-240 0 -363 -155t-123 -459t124 -460t366 -156q132 0 258 40v474h-268v134h416v-684q-74 -46 -181 -72t-225 -26q-202 0 -347 89t-222 258t-77 403zM438 1860h102 q24 -166 180 -166q158 0 182 166h96q-6 -136 -80 -213t-200 -77t-200 77t-80 213z" />
<glyph unicode="&#x11f;" horiz-adv-x="1154" d="M114 572q0 246 114 384t316 138q88 0 162 -36t126 -102v112h134v-1076q0 -204 -122 -318t-340 -114q-80 0 -157 16t-131 44l44 130q112 -56 244 -56q156 0 237 76t81 222v190q-108 -148 -302 -148q-190 0 -298 142t-108 396zM264 572q0 -196 74 -297t220 -101 q78 0 142 31t122 99v534q-54 60 -126 92t-152 32q-138 0 -209 -98t-71 -292zM290 1520h102q24 -166 180 -166q158 0 182 166h96q-6 -136 -80 -213t-200 -77t-200 77t-80 213z" />
<glyph unicode="&#x120;" horiz-adv-x="1336" d="M128 724q0 234 77 403t222 258t347 89q104 0 203 -24t169 -66l-46 -126q-170 80 -330 80q-240 0 -363 -155t-123 -459t124 -460t366 -156q132 0 258 40v474h-268v134h416v-684q-74 -46 -181 -72t-225 -26q-202 0 -347 89t-222 258t-77 403zM614 1706q0 52 27 80t77 28 t77 -28t27 -78q0 -52 -27 -80t-77 -28t-77 28t-27 78z" />
<glyph unicode="&#x121;" horiz-adv-x="1154" d="M114 572q0 246 114 384t316 138q88 0 162 -36t126 -102v112h134v-1076q0 -204 -122 -318t-340 -114q-80 0 -157 16t-131 44l44 130q112 -56 244 -56q156 0 237 76t81 222v190q-108 -148 -302 -148q-190 0 -298 142t-108 396zM264 572q0 -196 74 -297t220 -101 q78 0 142 31t122 99v534q-54 60 -126 92t-152 32q-138 0 -209 -98t-71 -292zM466 1366q0 52 27 80t77 28t77 -28t27 -78q0 -52 -27 -80t-77 -28t-77 28t-27 78z" />
<glyph unicode="&#x122;" horiz-adv-x="1336" d="M128 724q0 234 77 403t222 258t347 89q104 0 203 -24t169 -66l-46 -126q-170 80 -330 80q-240 0 -363 -155t-123 -459t124 -460t366 -156q132 0 258 40v474h-268v134h416v-684q-74 -46 -181 -72t-225 -26q-202 0 -347 89t-222 258t-77 403zM556 -476q52 58 73 111t21 133 q0 30 -4 66h144q4 -36 4 -64q0 -90 -42 -161t-138 -147z" />
<glyph unicode="&#x123;" horiz-adv-x="1154" d="M114 572q0 246 114 384t316 138q88 0 162 -36t126 -102v112h134v-1076q0 -204 -122 -318t-340 -114q-80 0 -157 16t-131 44l44 130q112 -56 244 -56q156 0 237 76t81 222v190q-108 -148 -302 -148q-190 0 -298 142t-108 396zM264 572q0 -196 74 -297t220 -101 q78 0 142 31t122 99v534q-54 60 -126 92t-152 32q-138 0 -209 -98t-71 -292zM490 1298q0 90 42 161t138 147l58 -62q-52 -58 -73 -111t-21 -133q0 -30 4 -66h-144q-4 36 -4 64z" />
<glyph unicode="&#x124;" horiz-adv-x="1400" d="M196 0v1448h148v-646h712v646h148v-1448h-148v668h-712v-668h-148zM384 1562v24l234 266h164l234 -266v-24h-122l-196 188l-198 -188h-116z" />
<glyph unicode="&#x125;" horiz-adv-x="1164" d="M-56 1654v24l234 266h164l234 -266v-24h-122l-196 188l-198 -188h-116zM188 0v1540h144v-576q134 130 320 130q158 0 246 -89t88 -249v-756h-144v746q0 208 -228 208q-158 0 -282 -106v-848h-144z" />
<glyph unicode="&#x126;" horiz-adv-x="1400" d="M58 1060v124h138v264h148v-264h712v264h148v-264h138v-124h-138v-1060h-148v668h-712v-668h-148v1060h-138zM344 802h712v258h-712v-258z" />
<glyph unicode="&#x127;" horiz-adv-x="1168" d="M52 1244v106h136v190h144v-190h460v-106h-460v-316q134 130 322 130q158 0 247 -89t89 -249v-720h-144v710q0 208 -230 208q-82 0 -151 -26t-133 -80v-812h-144v1244h-136z" />
<glyph unicode="&#x128;" horiz-adv-x="548" d="M-18 1584q0 118 46 184t130 66q48 0 79 -20t69 -60q28 -30 46 -43t44 -13q34 0 53 32t23 100h94q0 -118 -46 -184t-130 -66q-48 0 -79 20t-69 60q-28 30 -46 43t-44 13q-34 0 -53 -32t-23 -100h-94zM200 0v1448h148v-1448h-148z" />
<glyph unicode="&#x129;" horiz-adv-x="528" d="M-28 1244q0 118 46 184t130 66q48 0 79 -20t69 -60q28 -30 46 -43t44 -13q34 0 53 32t23 100h94q0 -118 -46 -184t-130 -66q-48 0 -79 20t-69 60q-28 30 -46 43t-44 13q-34 0 -53 -32t-23 -100h-94zM192 0v1068h144v-1068h-144z" />
<glyph unicode="&#x12a;" horiz-adv-x="548" d="M-10 1622v116h568v-116h-568zM200 0v1448h148v-1448h-148z" />
<glyph unicode="&#x12b;" horiz-adv-x="528" d="M40 1282v116h448v-116h-448zM192 0v1068h144v-1068h-144z" />
<glyph unicode="&#x12c;" horiz-adv-x="548" d="M-6 1860h102q24 -166 180 -166q158 0 182 166h96q-6 -136 -80 -213t-200 -77t-200 77t-80 213zM200 0v1448h148v-1448h-148z" />
<glyph unicode="&#x12d;" horiz-adv-x="528" d="M-16 1520h102q24 -166 180 -166q158 0 182 166h96q-6 -136 -80 -213t-200 -77t-200 77t-80 213zM192 0v1068h144v-1068h-144z" />
<glyph unicode="&#x12e;" horiz-adv-x="548" d="M80 -256q0 68 36 136t100 120h-16v1448h148v-1448q-138 -116 -138 -230q0 -88 96 -88q66 0 134 36l42 -94q-40 -28 -92 -43t-108 -15q-94 0 -148 48t-54 130z" />
<glyph unicode="&#x12f;" horiz-adv-x="528" d="M68 -256q0 68 36 136t100 120h-12v1068h144v-1068q-138 -116 -138 -230q0 -88 96 -88q66 0 134 36l42 -94q-40 -28 -92 -43t-108 -15q-94 0 -148 48t-54 130zM160 1366q0 52 27 80t77 28t77 -28t27 -78q0 -52 -27 -80t-77 -28t-77 28t-27 78z" />
<glyph unicode="&#x130;" horiz-adv-x="548" d="M170 1706q0 52 27 80t77 28t77 -28t27 -78q0 -52 -27 -80t-77 -28t-77 28t-27 78zM200 0v1448h148v-1448h-148z" />
<glyph unicode="&#x131;" horiz-adv-x="528" d="M192 0v1068h144v-1068h-144z" />
<glyph unicode="&#x132;" horiz-adv-x="1282" d="M196 0v1448h148v-1448h-148zM498 34l50 128q120 -52 214 -52q104 0 158 63t54 187v1088h148v-1088q0 -182 -95 -284t-265 -102q-66 0 -137 16t-127 44z" />
<glyph unicode="&#x133;" horiz-adv-x="1056" d="M160 1366q0 52 27 80t77 28t77 -28t27 -78q0 -52 -27 -80t-77 -28t-77 28t-27 78zM192 0v1068h144v-1068h-144zM446 -318q108 38 166 83t83 112t25 175v1016h144v-1016q0 -144 -33 -232t-111 -149t-224 -111zM688 1366q0 52 27 80t77 28t77 -28t27 -78q0 -52 -27 -80 t-77 -28t-77 28t-27 78z" />
<glyph unicode="&#x134;" horiz-adv-x="904" d="M20 62l58 122q118 -74 248 -74q122 0 183 63t61 187v1088h148v-1088q0 -184 -103 -285t-289 -101q-92 0 -172 23t-134 65zM328 1562v24l234 266h164l234 -266v-24h-122l-196 188l-198 -188h-116z" />
<glyph unicode="&#x135;" horiz-adv-x="528" d="M-82 -318q108 38 166 83t83 112t25 175v1016h144v-1016q0 -144 -33 -232t-111 -149t-224 -111zM-16 1230v20l204 318h152l204 -318v-20h-110l-174 226l-172 -226h-104z" />
<glyph unicode="&#x136;" horiz-adv-x="1232" d="M196 0v1448h148v-814l664 814h182l-558 -662l588 -786h-182l-504 668l-190 -226v-442h-148zM510 -476q52 58 73 111t21 133q0 30 -4 66h144q4 -36 4 -64q0 -90 -42 -161t-138 -147z" />
<glyph unicode="&#x137;" horiz-adv-x="1070" d="M188 0v1540h144v-1028l482 556h178l-404 -450l426 -618h-178l-348 506l-156 -172v-334h-144zM412 -476q52 58 73 111t21 133q0 30 -4 66h144q4 -36 4 -64q0 -90 -42 -161t-138 -147z" />
<glyph unicode="&#x138;" horiz-adv-x="1070" d="M188 0v1068h144v-556l482 556h178l-404 -450l426 -618h-178l-348 506l-156 -172v-334h-144z" />
<glyph unicode="&#x139;" horiz-adv-x="1054" d="M184 1562v24l306 266h190v-24l-364 -266h-132zM196 0v1448h148v-1312h650v-136h-798z" />
<glyph unicode="&#x13a;" horiz-adv-x="608" d="M132 1654v24l306 266h190v-24l-364 -266h-132zM184 218v1322h144v-1316q0 -56 26 -81t84 -25q34 0 80 8l14 -122q-60 -16 -124 -16q-224 0 -224 230z" />
<glyph unicode="&#x13b;" horiz-adv-x="1054" d="M196 0v1448h148v-1312h650v-136h-798zM438 -476q52 58 73 111t21 133q0 30 -4 66h144q4 -36 4 -64q0 -90 -42 -161t-138 -147z" />
<glyph unicode="&#x13c;" horiz-adv-x="608" d="M184 218v1322h144v-1316q0 -56 26 -81t84 -25q34 0 80 8l14 -122q-60 -16 -124 -16q-224 0 -224 230zM186 -476q52 58 73 111t21 133q0 30 -4 66h144q4 -36 4 -64q0 -90 -42 -161t-138 -147z" />
<glyph unicode="&#x13d;" horiz-adv-x="1054" d="M196 0v1448h148v-1312h650v-136h-798zM594 1120v420h144v-20l-54 -400h-90z" />
<glyph unicode="&#x13e;" horiz-adv-x="612" d="M184 218v1322h144v-1316q0 -56 26 -81t84 -25q34 0 80 8l14 -122q-60 -16 -124 -16q-224 0 -224 230zM502 1120v420h144v-20l-54 -400h-90z" />
<glyph unicode="&#x13f;" horiz-adv-x="1054" d="M196 0v1448h148v-1312h650v-136h-798zM680 780q0 52 27 80t77 28t77 -28t27 -78q0 -52 -27 -80t-77 -28t-77 28t-27 78z" />
<glyph unicode="&#x140;" horiz-adv-x="746" d="M184 218v1322h144v-1316q0 -56 26 -81t84 -25q34 0 80 8l14 -122q-60 -16 -124 -16q-224 0 -224 230zM524 776q0 52 27 80t77 28t77 -28t27 -78q0 -52 -27 -80t-77 -28t-77 28t-27 78z" />
<glyph unicode="&#x141;" horiz-adv-x="1062" d="M76 466v132l128 74v776h148v-690l444 270h20v-132l-464 -272v-488h650v-136h-798v534l-108 -68h-20z" />
<glyph unicode="&#x142;" horiz-adv-x="684" d="M60 582v128l172 118v712h144v-612l194 140h20v-128l-214 -148v-568q0 -56 26 -81t84 -25q34 0 80 8l14 -122q-60 -16 -124 -16q-224 0 -224 230v474l-152 -110h-20z" />
<glyph unicode="&#x143;" horiz-adv-x="1444" d="M196 0v1448h138l770 -1194v1194h144v-1448h-138l-770 1196v-1196h-144zM598 1562v24l306 266h190v-24l-364 -266h-132z" />
<glyph unicode="&#x144;" horiz-adv-x="1160" d="M188 0v1068h134v-114q134 140 328 140q156 0 244 -90t88 -248v-756h-144v746q0 102 -58 155t-168 53q-80 0 -148 -25t-132 -81v-848h-144zM486 1230v20l206 318h170v-20l-264 -318h-112z" />
<glyph unicode="&#x145;" horiz-adv-x="1444" d="M196 0v1448h138l770 -1194v1194h144v-1448h-138l-770 1196v-1196h-144zM560 -476q52 58 73 111t21 133q0 30 -4 66h144q4 -36 4 -64q0 -90 -42 -161t-138 -147z" />
<glyph unicode="&#x146;" horiz-adv-x="1160" d="M188 0v1068h134v-114q134 140 328 140q156 0 244 -90t88 -248v-756h-144v746q0 102 -58 155t-168 53q-80 0 -148 -25t-132 -81v-848h-144zM426 -476q52 58 73 111t21 133q0 30 -4 66h144q4 -36 4 -64q0 -90 -42 -161t-138 -147z" />
<glyph unicode="&#x147;" horiz-adv-x="1444" d="M196 0v1448h138l770 -1194v1194h144v-1448h-138l-770 1196v-1196h-144zM406 1828v24h122l198 -188l196 188h116v-24l-234 -266h-164z" />
<glyph unicode="&#x148;" horiz-adv-x="1160" d="M188 0v1068h134v-114q134 140 328 140q156 0 244 -90t88 -248v-756h-144v746q0 102 -58 155t-168 53q-80 0 -148 -25t-132 -81v-848h-144zM306 1548v20h110l172 -226l174 226h104v-20l-204 -318h-152z" />
<glyph unicode="&#x149;" horiz-adv-x="1160" d="M-108 1162q64 68 92 137t28 159q0 38 -4 82h140q4 -44 4 -80q0 -102 -49 -189t-155 -169zM188 0v1068h134v-114q134 140 328 140q156 0 244 -90t88 -248v-756h-144v746q0 102 -58 155t-168 53q-80 0 -148 -25t-132 -81v-848h-144z" />
<glyph unicode="&#x14a;" horiz-adv-x="1444" d="M196 0v1448h138l770 -1194v1194h144v-1448v-74q0 -172 -93 -269t-259 -97q-76 0 -147 21t-119 59l56 118q102 -66 210 -66q102 0 155 59t53 175v84l-764 1186v-1196h-144z" />
<glyph unicode="&#x14b;" horiz-adv-x="1160" d="M188 0v1068h134v-114q134 140 328 140q156 0 244 -90t88 -248v-756v-114q0 -154 -78 -240t-216 -86q-64 0 -124 18t-100 50l50 114q94 -54 174 -54q74 0 112 50t38 148v348v512q0 102 -58 155t-168 53q-80 0 -148 -25t-132 -81v-848h-144z" />
<glyph unicode="&#x14c;" horiz-adv-x="1424" d="M128 724q0 368 150 559t434 191t434 -191t150 -559t-150 -559t-434 -191t-434 191t-150 559zM284 724q0 -304 108 -460t320 -156t320 156t108 460t-108 460t-320 156t-320 -156t-108 -460zM428 1622v116h568v-116h-568z" />
<glyph unicode="&#x14d;" horiz-adv-x="1110" d="M114 534q0 274 114 417t328 143q212 0 326 -143t114 -417t-114 -417t-328 -143q-212 0 -326 143t-114 417zM264 534q0 -212 74 -321t216 -109q144 0 218 109t74 321t-74 321t-216 109q-144 0 -218 -109t-74 -321zM272 1282v116h568v-116h-568z" />
<glyph unicode="&#x14e;" horiz-adv-x="1424" d="M128 724q0 368 150 559t434 191t434 -191t150 -559t-150 -559t-434 -191t-434 191t-150 559zM284 724q0 -304 108 -460t320 -156t320 156t108 460t-108 460t-320 156t-320 -156t-108 -460zM432 1860h102q24 -166 180 -166q158 0 182 166h96q-6 -136 -80 -213t-200 -77 t-200 77t-80 213z" />
<glyph unicode="&#x14f;" horiz-adv-x="1110" d="M114 534q0 274 114 417t328 143q212 0 326 -143t114 -417t-114 -417t-328 -143q-212 0 -326 143t-114 417zM264 534q0 -212 74 -321t216 -109q144 0 218 109t74 321t-74 321t-216 109q-144 0 -218 -109t-74 -321zM276 1520h102q24 -166 180 -166q158 0 182 166h96 q-6 -136 -80 -213t-200 -77t-200 77t-80 213z" />
<glyph unicode="&#x150;" horiz-adv-x="1424" d="M128 724q0 368 150 559t434 191t434 -191t150 -559t-150 -559t-434 -191t-434 191t-150 559zM284 724q0 -304 108 -460t320 -156t320 156t108 460t-108 460t-320 156t-320 -156t-108 -460zM460 1562v24l202 266h166v-24l-260 -266h-108zM772 1562v24l200 266h166v-24 l-258 -266h-108z" />
<glyph unicode="&#x151;" horiz-adv-x="1110" d="M114 534q0 274 114 417t328 143q212 0 326 -143t114 -417t-114 -417t-328 -143q-212 0 -326 143t-114 417zM264 534q0 -212 74 -321t216 -109q144 0 218 109t74 321t-74 321t-216 109q-144 0 -218 -109t-74 -321zM342 1230v20l124 318h154v-20l-182 -318h-96zM624 1230 v20l124 318h154v-20l-182 -318h-96z" />
<glyph unicode="&#x152;" horiz-adv-x="1920" d="M128 724q0 354 151 539t433 185h362h730v-134h-660v-506h488v-136h-488v-538h684v-134h-828h-288q-282 0 -433 185t-151 539zM284 724q0 -290 109 -440t319 -150h288v1180h-288q-210 0 -319 -150t-109 -440z" />
<glyph unicode="&#x153;" horiz-adv-x="1762" d="M114 532q0 276 110 419t320 143q120 0 211 -57t143 -165q44 106 134 164t212 58q196 0 306 -136t110 -378q0 -50 -6 -84h-690v-8q10 -184 91 -280t233 -96q140 0 266 84l54 -116q-60 -50 -147 -77t-181 -27q-130 0 -227 56t-155 164q-52 -108 -143 -165t-211 -57 q-206 0 -318 143t-112 415zM264 532q0 -210 71 -319t209 -109q140 0 211 109t71 321t-71 321t-211 109q-138 0 -209 -110t-71 -322zM966 618h548q-2 164 -74 255t-200 91q-122 0 -191 -88t-83 -258z" />
<glyph unicode="&#x154;" horiz-adv-x="1262" d="M196 0v1448h148h328q208 0 326 -117t118 -325q0 -172 -83 -284t-233 -146l382 -576h-182l-362 562h-294v-562h-148zM344 696h328q142 0 215 78t73 232q0 152 -75 230t-221 78h-320v-618zM508 1562v24l306 266h190v-24l-364 -266h-132z" />
<glyph unicode="&#x155;" horiz-adv-x="796" d="M188 0v1068h134v-148q116 170 292 170q70 0 134 -26l-34 -142q-76 22 -140 22q-78 0 -137 -34t-105 -104v-806h-144zM362 1230v20l206 318h170v-20l-264 -318h-112z" />
<glyph unicode="&#x156;" horiz-adv-x="1262" d="M196 0v1448h148h328q208 0 326 -117t118 -325q0 -172 -83 -284t-233 -146l382 -576h-182l-362 562h-294v-562h-148zM344 696h328q142 0 215 78t73 232q0 152 -75 230t-221 78h-320v-618zM508 -476q52 58 73 111t21 133q0 30 -4 66h144q4 -36 4 -64q0 -90 -42 -161 t-138 -147z" />
<glyph unicode="&#x157;" horiz-adv-x="796" d="M98 -476q52 58 73 111t21 133q0 30 -4 66h144q4 -36 4 -64q0 -90 -42 -161t-138 -147zM188 0v1068h134v-148q116 170 292 170q70 0 134 -26l-34 -142q-76 22 -140 22q-78 0 -137 -34t-105 -104v-806h-144z" />
<glyph unicode="&#x158;" horiz-adv-x="1262" d="M196 0v1448h148h328q208 0 326 -117t118 -325q0 -172 -83 -284t-233 -146l382 -576h-182l-362 562h-294v-562h-148zM316 1828v24h122l198 -188l196 188h116v-24l-234 -266h-164zM344 696h328q142 0 215 78t73 232q0 152 -75 230t-221 78h-320v-618z" />
<glyph unicode="&#x159;" horiz-adv-x="796" d="M182 1548v20h110l172 -226l174 226h104v-20l-204 -318h-152zM188 0v1068h134v-148q116 170 292 170q70 0 134 -26l-34 -142q-76 22 -140 22q-78 0 -137 -34t-105 -104v-806h-144z" />
<glyph unicode="&#x15a;" horiz-adv-x="1120" d="M92 90l54 130q186 -108 388 -108q154 0 240 69t86 189q0 102 -57 165t-175 95l-164 46q-184 52 -271 148t-87 250q0 182 123 290t331 108q104 0 213 -23t199 -65l-52 -130q-204 82 -364 82q-140 0 -219 -65t-79 -177q0 -102 57 -165t175 -95l164 -46q184 -52 271 -148 t87 -250q0 -124 -59 -218t-167 -145t-252 -51q-118 0 -235 30t-207 84zM412 1562v24l306 266h190v-24l-364 -266h-132z" />
<glyph unicode="&#x15b;" horiz-adv-x="926" d="M84 70l52 124q144 -88 304 -88q120 0 181 45t61 133q0 68 -38 108t-120 60l-142 34q-146 34 -215 106t-69 190q0 146 97 228t271 82q88 0 174 -21t154 -57l-58 -124q-140 72 -274 72q-108 0 -164 -43t-56 -125q0 -64 38 -103t120 -59l142 -34q146 -34 215 -108t69 -196 q0 -150 -102 -234t-284 -84q-98 0 -192 25t-164 69zM348 1230v20l206 318h170v-20l-264 -318h-112z" />
<glyph unicode="&#x15c;" horiz-adv-x="1120" d="M92 90l54 130q186 -108 388 -108q154 0 240 69t86 189q0 102 -57 165t-175 95l-164 46q-184 52 -271 148t-87 250q0 182 123 290t331 108q104 0 213 -23t199 -65l-52 -130q-204 82 -364 82q-140 0 -219 -65t-79 -177q0 -102 57 -165t175 -95l164 -46q184 -52 271 -148 t87 -250q0 -124 -59 -218t-167 -145t-252 -51q-118 0 -235 30t-207 84zM220 1562v24l234 266h164l234 -266v-24h-122l-196 188l-198 -188h-116z" />
<glyph unicode="&#x15d;" horiz-adv-x="926" d="M84 70l52 124q144 -88 304 -88q120 0 181 45t61 133q0 68 -38 108t-120 60l-142 34q-146 34 -215 106t-69 190q0 146 97 228t271 82q88 0 174 -21t154 -57l-58 -124q-140 72 -274 72q-108 0 -164 -43t-56 -125q0 -64 38 -103t120 -59l142 -34q146 -34 215 -108t69 -196 q0 -150 -102 -234t-284 -84q-98 0 -192 25t-164 69zM168 1230v20l204 318h152l204 -318v-20h-110l-174 226l-172 -226h-104z" />
<glyph unicode="&#x15e;" horiz-adv-x="1120" d="M92 90l54 130q186 -108 388 -108q154 0 240 69t86 189q0 102 -57 165t-175 95l-164 46q-184 52 -271 148t-87 250q0 182 123 290t331 108q104 0 213 -23t199 -65l-52 -130q-204 82 -364 82q-140 0 -219 -65t-79 -177q0 -102 57 -165t175 -95l164 -46q184 -52 271 -148 t87 -250q0 -176 -113 -286t-305 -126l-68 -102q28 4 40 4q98 0 152 -42t54 -118q0 -82 -61 -128t-169 -46q-110 0 -196 46l30 88q96 -38 166 -38q108 0 108 78t-100 78q-46 0 -88 -18l-42 48l64 150q-106 6 -209 35t-183 77z" />
<glyph unicode="&#x15f;" horiz-adv-x="926" d="M84 70l52 124q144 -88 304 -88q120 0 181 45t61 133q0 68 -38 108t-120 60l-142 34q-146 34 -215 106t-69 190q0 146 97 228t271 82q88 0 174 -21t154 -57l-58 -124q-140 72 -274 72q-108 0 -164 -43t-56 -125q0 -64 38 -103t120 -59l142 -34q146 -34 215 -108t69 -196 q0 -138 -86 -220t-242 -96l-68 -102q28 4 40 4q98 0 152 -42t54 -118q0 -82 -61 -128t-169 -46q-110 0 -196 46l30 88q96 -38 166 -38q108 0 108 78t-100 78q-46 0 -88 -18l-42 48l64 150q-86 6 -165 30t-139 62z" />
<glyph unicode="&#x160;" horiz-adv-x="1120" d="M92 90l54 130q186 -108 388 -108q154 0 240 69t86 189q0 102 -57 165t-175 95l-164 46q-184 52 -271 148t-87 250q0 182 123 290t331 108q104 0 213 -23t199 -65l-52 -130q-204 82 -364 82q-140 0 -219 -65t-79 -177q0 -102 57 -165t175 -95l164 -46q184 -52 271 -148 t87 -250q0 -124 -59 -218t-167 -145t-252 -51q-118 0 -235 30t-207 84zM220 1828v24h122l198 -188l196 188h116v-24l-234 -266h-164z" />
<glyph unicode="&#x161;" horiz-adv-x="926" d="M84 70l52 124q144 -88 304 -88q120 0 181 45t61 133q0 68 -38 108t-120 60l-142 34q-146 34 -215 106t-69 190q0 146 97 228t271 82q88 0 174 -21t154 -57l-58 -124q-140 72 -274 72q-108 0 -164 -43t-56 -125q0 -64 38 -103t120 -59l142 -34q146 -34 215 -108t69 -196 q0 -150 -102 -234t-284 -84q-98 0 -192 25t-164 69zM168 1548v20h110l172 -226l174 226h104v-20l-204 -318h-152z" />
<glyph unicode="&#x162;" horiz-adv-x="1052" d="M64 1312v136h536h388v-136h-388v-1312h-18l-82 -124q28 4 40 4q98 0 152 -42t54 -118q0 -82 -61 -128t-169 -46q-110 0 -196 46l30 88q96 -38 166 -38q108 0 108 78t-100 78q-46 0 -88 -18l-42 48l74 172h-16v1312h-388z" />
<glyph unicode="&#x163;" horiz-adv-x="764" d="M42 946v122h186v320h144v-320h322v-122h-322v-586q0 -126 49 -185t153 -59q54 0 110 18l24 -124q-68 -24 -156 -24q-22 0 -58 4l-74 -114q28 4 40 4q98 0 152 -42t54 -118q0 -82 -61 -128t-169 -46q-110 0 -196 46l30 88q96 -38 166 -38q108 0 108 78t-100 78 q-46 0 -88 -18l-42 48l82 188q-168 74 -168 324v606h-186z" />
<glyph unicode="&#x164;" horiz-adv-x="1052" d="M64 1312v136h536h388v-136h-388v-1312h-148v1312h-388zM210 1828v24h122l198 -188l196 188h116v-24l-234 -266h-164z" />
<glyph unicode="&#x165;" horiz-adv-x="764" d="M42 946v122h186v320h144v-320h322v-122h-322v-586q0 -126 49 -185t153 -59q54 0 110 18l24 -124q-68 -24 -156 -24q-160 0 -242 89t-82 265v606h-186zM538 1170v370h144v-20l-48 -350h-96z" />
<glyph unicode="&#x166;" horiz-adv-x="1052" d="M64 1312v136h536h388v-136h-388v-542h248v-130h-248v-640h-148v640h-248v130h248v542h-388z" />
<glyph unicode="&#x167;" horiz-adv-x="764" d="M42 590v118h186v238h-186v122h186v320h144v-320h322v-122h-322v-238h322v-118h-322v-230q0 -126 49 -185t153 -59q54 0 110 18l24 -124q-68 -24 -156 -24q-160 0 -242 89t-82 265v250h-186z" />
<glyph unicode="&#x168;" horiz-adv-x="1368" d="M186 514v934h148v-934q0 -200 89 -303t261 -103t261 103t89 303v934h148v-934q0 -254 -132 -397t-368 -143q-234 0 -365 143t-131 397zM358 1584q4 116 52 183t134 67q52 0 92 -21t88 -59q36 -28 58 -41t46 -13q70 0 86 130h96q-4 -116 -52 -183t-134 -67q-52 0 -92 21 t-88 59q-36 28 -58 41t-46 13q-70 0 -86 -130h-96z" />
<glyph unicode="&#x169;" horiz-adv-x="1144" d="M174 312v756h144v-746q0 -102 56 -155t164 -53q84 0 150 30t124 96v828h144v-1068h-134v128q-118 -154 -322 -154q-154 0 -240 90t-86 248zM240 1244q4 116 52 183t134 67q52 0 92 -21t88 -59q36 -28 58 -41t46 -13q70 0 86 130h96q-4 -116 -52 -183t-134 -67 q-52 0 -92 21t-88 59q-36 28 -58 41t-46 13q-70 0 -86 -130h-96z" />
<glyph unicode="&#x16a;" horiz-adv-x="1368" d="M186 514v934h148v-934q0 -200 89 -303t261 -103t261 103t89 303v934h148v-934q0 -254 -132 -397t-368 -143q-234 0 -365 143t-131 397zM400 1622v116h568v-116h-568z" />
<glyph unicode="&#x16b;" horiz-adv-x="1144" d="M174 312v756h144v-746q0 -102 56 -155t164 -53q84 0 150 30t124 96v828h144v-1068h-134v128q-118 -154 -322 -154q-154 0 -240 90t-86 248zM282 1282v116h568v-116h-568z" />
<glyph unicode="&#x16c;" horiz-adv-x="1368" d="M186 514v934h148v-934q0 -200 89 -303t261 -103t261 103t89 303v934h148v-934q0 -254 -132 -397t-368 -143q-234 0 -365 143t-131 397zM404 1860h102q24 -166 180 -166q158 0 182 166h96q-6 -136 -80 -213t-200 -77t-200 77t-80 213z" />
<glyph unicode="&#x16d;" horiz-adv-x="1144" d="M174 312v756h144v-746q0 -102 56 -155t164 -53q84 0 150 30t124 96v828h144v-1068h-134v128q-118 -154 -322 -154q-154 0 -240 90t-86 248zM286 1520h102q24 -166 180 -166q158 0 182 166h96q-6 -136 -80 -213t-200 -77t-200 77t-80 213z" />
<glyph unicode="&#x16e;" horiz-adv-x="1368" d="M186 514v934h148v-934q0 -200 89 -303t261 -103t261 103t89 303v934h148v-934q0 -254 -132 -397t-368 -143q-234 0 -365 143t-131 397zM452 1750q0 100 61 156t171 56t171 -56t61 -156t-61 -156t-171 -56t-171 56t-61 156zM562 1750q0 -122 122 -122t122 122t-122 122 t-122 -122z" />
<glyph unicode="&#x16f;" horiz-adv-x="1144" d="M174 312v756h144v-746q0 -102 56 -155t164 -53q84 0 150 30t124 96v828h144v-1068h-134v128q-118 -154 -322 -154q-154 0 -240 90t-86 248zM336 1420q0 100 61 156t169 56t169 -56t61 -156t-61 -156t-169 -56t-169 56t-61 156zM444 1420q0 -124 122 -124t122 124 t-122 124t-122 -124z" />
<glyph unicode="&#x170;" horiz-adv-x="1368" d="M186 514v934h148v-934q0 -200 89 -303t261 -103t261 103t89 303v934h148v-934q0 -254 -132 -397t-368 -143q-234 0 -365 143t-131 397zM432 1562v24l202 266h166v-24l-260 -266h-108zM744 1562v24l200 266h166v-24l-258 -266h-108z" />
<glyph unicode="&#x171;" horiz-adv-x="1144" d="M174 312v756h144v-746q0 -102 56 -155t164 -53q84 0 150 30t124 96v828h144v-1068h-134v128q-118 -154 -322 -154q-154 0 -240 90t-86 248zM352 1230v20l124 318h154v-20l-182 -318h-96zM634 1230v20l124 318h154v-20l-182 -318h-96z" />
<glyph unicode="&#x172;" horiz-adv-x="1368" d="M186 514v934h148v-934q0 -200 88 -303t260 -103t262 103t90 303v934h148v-934q0 -154 -48 -260t-150 -190l-56 -46q-72 -58 -113 -124t-41 -124q0 -88 96 -88q66 0 134 36l42 -94q-40 -28 -92 -43t-108 -15q-94 0 -148 48t-54 130q0 126 114 236q-36 -6 -76 -6 q-234 0 -365 143t-131 397z" />
<glyph unicode="&#x173;" horiz-adv-x="1144" d="M174 312v756h144v-746q0 -102 56 -155t164 -53q84 0 150 30t124 96v828h144v-1068q-88 -50 -134 -108t-46 -122q0 -88 96 -88q64 0 134 36l42 -94q-40 -28 -92 -43t-108 -15q-94 0 -148 47t-54 131q0 78 48 147t132 115v128q-70 -82 -149 -121t-177 -39q-154 0 -240 90 t-86 248z" />
<glyph unicode="&#x174;" horiz-adv-x="1788" d="M76 1448h158l298 -1266l280 1264h164l284 -1260l296 1262h156l-372 -1448h-168l-280 1214l-278 -1214h-168zM578 1562v24l234 266h164l234 -266v-24h-122l-196 188l-198 -188h-116z" />
<glyph unicode="&#x175;" horiz-adv-x="1558" d="M68 1068h156l242 -908l238 908h152l240 -908l240 908h154l-318 -1068h-160l-234 856l-234 -856h-160zM502 1230v20l204 318h152l204 -318v-20h-110l-174 226l-172 -226h-104z" />
<glyph unicode="&#x176;" horiz-adv-x="1172" d="M56 1448h166l366 -754l364 754h164l-458 -928v-520h-148v520zM268 1562v24l234 266h164l234 -266v-24h-122l-196 188l-198 -188h-116z" />
<glyph unicode="&#x177;" horiz-adv-x="1030" d="M64 1068h158l296 -894l292 894h156l-380 -1084q-52 -144 -169 -251t-295 -171l-52 128q144 50 234 123t140 177zM238 1230v20l204 318h152l204 -318v-20h-110l-174 226l-172 -226h-104z" />
<glyph unicode="&#x178;" horiz-adv-x="1172" d="M56 1448h166l366 -754l364 754h164l-458 -928v-520h-148v520zM292 1702q0 48 26 76t72 28q48 0 74 -27t26 -75q0 -50 -26 -77t-74 -27q-46 0 -72 27t-26 75zM678 1702q0 48 26 76t72 28q48 0 74 -27t26 -75q0 -50 -26 -77t-74 -27q-46 0 -72 27t-26 75z" />
<glyph unicode="&#x179;" horiz-adv-x="1102" d="M92 0v134l738 1182h-714v132h882v-132l-738 -1184h746v-132h-914zM424 1562v24l306 266h190v-24l-364 -266h-132z" />
<glyph unicode="&#x17a;" horiz-adv-x="926" d="M88 0v122l574 824h-558v122h724v-122l-574 -824h582v-122h-748zM358 1230v20l206 318h170v-20l-264 -318h-112z" />
<glyph unicode="&#x17b;" horiz-adv-x="1102" d="M92 0v134l738 1182h-714v132h882v-132l-738 -1184h746v-132h-914zM444 1706q0 52 27 80t77 28t77 -28t27 -78q0 -52 -27 -80t-77 -28t-77 28t-27 78z" />
<glyph unicode="&#x17c;" horiz-adv-x="926" d="M88 0v122l574 824h-558v122h724v-122l-574 -824h582v-122h-748zM354 1366q0 52 27 80t77 28t77 -28t27 -78q0 -52 -27 -80t-77 -28t-77 28t-27 78z" />
<glyph unicode="&#x17d;" horiz-adv-x="1102" d="M92 0v134l738 1182h-714v132h882v-132l-738 -1184h746v-132h-914zM232 1828v24h122l198 -188l196 188h116v-24l-234 -266h-164z" />
<glyph unicode="&#x17e;" horiz-adv-x="926" d="M88 0v122l574 824h-558v122h724v-122l-574 -824h582v-122h-748zM178 1548v20h110l172 -226l174 226h104v-20l-204 -318h-152z" />
<glyph unicode="&#x17f;" horiz-adv-x="560" d="M188 0v1188v16q0 164 90 255t250 91q62 0 102 -10v-128q-60 8 -102 8q-96 0 -146 -55t-50 -161v-36v-1168h-144z" />
<glyph unicode="&#x180;" horiz-adv-x="1152" d="M52 1244v106h136v190h144v-190h460v-106h-460v-334q108 148 300 148t299 -145t107 -405q0 -252 -114 -393t-316 -141q-86 0 -160 35t-126 99v-108h-134v1244h-136zM332 230q50 -58 124 -91t152 -33q138 0 209 102t71 300q0 202 -74 306t-218 104q-78 0 -142 -31t-122 -99 v-558z" />
<glyph unicode="&#x181;" horiz-adv-x="1388" d="M-4 1160q0 136 79 212t221 76h148h328q202 0 314 -104t112 -290q0 -236 -184 -290q132 -34 199 -123t67 -233q0 -192 -115 -300t-321 -108h-470h-78v1316q-80 0 -120 -39t-40 -115q0 -30 6 -76h-140q-6 30 -6 74zM444 134h408q134 0 203 70t69 204t-71 202t-209 68h-400 v-544zM444 810h328q134 0 203 62t69 182q0 128 -71 194t-209 66h-320v-504z" />
<glyph unicode="&#x182;" horiz-adv-x="1246" d="M196 0v1448h148h692v-124h-692v-424h324q224 0 347 -116t123 -336q0 -214 -124 -331t-338 -117h-480zM344 134h324q152 0 233 78t81 236q0 160 -79 239t-227 79h-332v-632z" />
<glyph unicode="&#x183;" horiz-adv-x="1148" d="M188 0v986v554h144h534v-118h-534v-476q108 148 300 148q190 0 296 -150t106 -418q0 -260 -113 -406t-313 -146q-86 0 -160 35t-126 99v-108h-134zM332 230q52 -58 124 -91t152 -33q136 0 206 106t70 314q0 212 -73 320t-215 108q-78 0 -142 -31t-122 -99v-594z" />
<glyph unicode="&#x184;" horiz-adv-x="1208" d="M76 1176v66l180 206h106v-398v-150h324q224 0 347 -116t123 -336q0 -214 -124 -331t-338 -117h-480v1050zM362 134h324q152 0 233 78t81 236q0 160 -79 239t-227 79h-332v-632z" />
<glyph unicode="&#x185;" horiz-adv-x="1150" d="M68 1290v50l164 200h102v-386v-208q108 148 300 148q190 0 296 -150t106 -418q0 -260 -113 -406t-313 -146q-86 0 -160 35t-126 99v-108h-134v986v168zM334 230q52 -58 124 -91t152 -33q136 0 206 106t70 314q0 212 -73 320t-215 108q-78 0 -142 -31t-122 -99v-594z" />
<glyph unicode="&#x186;" horiz-adv-x="1198" d="M84 1382q62 44 160 67t208 23q200 0 343 -86t219 -248t76 -386q0 -232 -78 -409t-220 -273t-330 -96q-96 0 -191 24t-175 70l56 122q166 -78 314 -78q220 0 344 165t124 461q0 292 -125 443t-369 151q-178 0 -300 -70z" />
<glyph unicode="&#x187;" horiz-adv-x="1386" d="M108 696q0 232 78 409t220 273t330 96q126 0 246 -40q8 126 83 197t203 71q44 0 74 -6v-128q-44 6 -76 6q-80 0 -122 -44t-42 -128v-144h-56q-164 78 -314 78q-220 0 -344 -165t-124 -461q0 -292 125 -443t369 -151q178 0 300 70l56 -120q-62 -44 -160 -67t-208 -23 q-200 0 -343 86t-219 248t-76 386z" />
<glyph unicode="&#x188;" horiz-adv-x="1146" d="M106 538q0 166 58 292t163 195t243 69q82 0 182 -30q10 126 84 196t202 70q44 0 74 -6v-126q-44 6 -76 6q-80 0 -122 -44t-42 -130v-140h-56q-130 70 -250 70q-146 0 -228 -108t-82 -302q0 -216 85 -327t251 -111q124 0 238 68l54 -116q-56 -42 -136 -65t-168 -23 q-224 0 -349 148t-125 414z" />
<glyph unicode="&#x189;" horiz-adv-x="1376" d="M58 668v130h136v650h386q324 0 496 -184t172 -540t-174 -540t-502 -184h-378v668h-136zM342 134h238q252 0 382 150t130 440q0 292 -132 441t-388 149h-230v-516h382v-130h-382v-534z" />
<glyph unicode="&#x18a;" horiz-adv-x="1478" d="M-4 1160q0 136 79 212t221 76h386q324 0 496 -184t172 -540t-174 -540t-502 -184h-378v1316q-80 0 -120 -39t-40 -115q0 -30 6 -76h-140q-6 30 -6 74zM444 134h238q252 0 382 150t130 440q0 292 -132 441t-388 149h-230v-1180z" />
<glyph unicode="&#x18b;" horiz-adv-x="1246" d="M108 448q0 220 123 336t347 116h324v424h-692v124h840v-1448h-480q-214 0 -338 117t-124 331zM264 448q0 -158 81 -236t233 -78h324v632h-332q-148 0 -227 -79t-79 -239z" />
<glyph unicode="&#x18c;" horiz-adv-x="1148" d="M114 542q0 260 113 406t313 146q82 0 153 -32t123 -90v450h-534v118h678v-1458v-82h-134v136q-54 -80 -133 -121t-177 -41q-190 0 -296 150t-106 418zM264 542q0 -212 73 -320t215 -108q78 0 142 31t122 99v594q-52 58 -124 91t-152 33q-136 0 -206 -106t-70 -314z" />
<glyph unicode="&#x18d;" horiz-adv-x="1108" d="M114 626q0 110 47 218t147 179t250 71q128 0 227 -60t154 -166t55 -236q0 -162 -87 -298t-255 -204q110 -72 157 -129t47 -143q0 -80 -41 -148t-122 -109t-197 -41q-100 0 -165 21t-131 57l56 124q72 -38 121 -54t125 -16q104 0 155 41t51 103q0 60 -47 106t-143 106 q-44 28 -66 44q-100 68 -171 135t-119 166t-48 233zM262 630q0 -166 70 -260t202 -170q134 42 222 151t88 277q0 152 -80 244t-212 92q-130 0 -210 -92t-80 -242z" />
<glyph unicode="&#x18e;" horiz-adv-x="1148" d="M92 0v134h712v538h-516v136h516v506h-688v134h836v-1448h-860z" />
<glyph unicode="&#x18f;" horiz-adv-x="1370" d="M98 678q0 52 8 100h986q-12 258 -138 402t-340 144q-186 0 -376 -106l-62 128q86 60 202 93t240 33q302 0 463 -191t161 -559q0 -366 -147 -556t-423 -190q-170 0 -300 80t-202 238t-72 384zM250 646q2 -250 114 -390t312 -140q192 0 297 134t119 396h-842z" />
<glyph unicode="&#x190;" horiz-adv-x="1088" d="M100 414q0 266 262 348q-206 90 -206 328q0 188 133 286t345 98q104 0 199 -25t167 -67l-52 -118q-158 74 -308 74q-146 0 -238 -65t-92 -195t78 -199t222 -69h208v-132h-224q-152 0 -245 -62t-93 -202q0 -146 100 -222t288 -76q180 0 352 84l64 -122q-88 -50 -203 -76 t-233 -26q-240 0 -382 113t-142 325z" />
<glyph unicode="&#x191;" horiz-adv-x="1072" d="M-54 -418l22 128q38 -12 90 -12q70 0 104 42t34 130v462v1116h824v-134h-676v-530h552v-136h-552v-648v-128q0 -152 -73 -230t-213 -78q-62 0 -112 18z" />
<glyph unicode="&#x192;" horiz-adv-x="1098" d="M42 -410l20 134q40 -6 68 -6q84 0 134 50t64 146l110 796h-228v122h246l46 332q20 146 108 228t224 82q66 0 128 -20t104 -58l-72 -110q-76 54 -164 54q-158 0 -182 -176l-46 -332h308v-122h-326l-110 -796q-20 -156 -110 -244t-226 -88q-40 0 -96 8z" />
<glyph unicode="&#x193;" horiz-adv-x="1502" d="M128 724q0 234 77 403t222 258t347 89q132 0 252 -38q10 126 84 196t202 70q44 0 74 -6v-128q-46 6 -76 6q-80 0 -122 -44t-42 -128v-22v-122h-46q-170 80 -330 80q-240 0 -363 -155t-123 -459t124 -460t366 -156q132 0 258 40v474h-268v134h416v-684q-74 -46 -181 -72 t-225 -26q-202 0 -347 89t-222 258t-77 403z" />
<glyph unicode="&#x194;" horiz-adv-x="1260" d="M72 1448h162l398 -952l396 952h160l-482 -1124l100 -242q46 -110 46 -196q0 -106 -58 -166t-162 -60t-161 59t-57 165q0 86 46 198l98 234zM546 -114q0 -100 86 -100q82 0 82 98q0 70 -46 176l-38 88l-38 -88q-46 -110 -46 -174z" />
<glyph unicode="&#x195;" horiz-adv-x="1818" d="M188 0v1540h144v-576q134 130 320 130q158 0 246 -89t88 -249v-350v-14q0 -142 58 -215t170 -73q136 0 201 110t65 344q0 162 -15 279t-45 231h150q60 -226 60 -510q0 -288 -107 -436t-315 -148q-172 0 -269 100t-97 278v208v186q0 208 -228 208q-158 0 -282 -106v-848 h-144z" />
<glyph unicode="&#x196;" horiz-adv-x="584" d="M196 210v1238h148v-1232q0 -48 22 -71t68 -23q34 0 80 8l14 -128q-60 -16 -124 -16q-102 0 -155 57t-53 167z" />
<glyph unicode="&#x197;" horiz-adv-x="628" d="M60 680v130h180v638h148v-638h180v-130h-180v-680h-148v680h-180z" />
<glyph unicode="&#x198;" horiz-adv-x="1248" d="M196 0v1448h148v-814l524 682q64 84 123 121t129 37q116 0 196 -92l-86 -108q-68 62 -116 62q-30 0 -64 -27t-86 -91l-338 -422l594 -796h-182l-508 674l-186 -230v-444h-148z" />
<glyph unicode="&#x199;" horiz-adv-x="1070" d="M188 0v1068v206q0 136 67 206t197 70q62 0 114 -18l-20 -116q-38 12 -94 12q-62 0 -91 -37t-29 -115v-542v-222l482 556h178l-404 -450l426 -618h-178l-348 506l-156 -172v-334h-144z" />
<glyph unicode="&#x19a;" horiz-adv-x="674" d="M60 722v118h172v700h144v-700h192v-118h-192v-498q0 -56 26 -81t84 -25q34 0 80 8l14 -122q-60 -16 -124 -16q-224 0 -224 230v504h-172z" />
<glyph unicode="&#x19b;" horiz-adv-x="1030" d="M64 0l380 1078q-14 30 -50 86l-238 -122h-20v110l180 92q-92 80 -246 134l52 128q198 -72 322 -196l228 116h20v-110l-178 -90q44 -64 72 -142l380 -1084h-156l-292 894l-296 -894h-158z" />
<glyph unicode="&#x19c;" horiz-adv-x="1776" d="M196 312v1136h148v-1126q0 -102 52 -155t152 -53q134 0 268 118q-6 36 -6 80v1136h148v-1126q0 -102 53 -155t155 -53q138 0 266 114v1220h148v-1448h-138v114q-66 -68 -146 -104t-168 -36q-102 0 -174 42t-110 122q-70 -80 -155 -122t-179 -42q-146 0 -230 90t-84 248z " />
<glyph unicode="&#x19d;" horiz-adv-x="1444" d="M-58 -418l22 128q38 -12 92 -12q72 0 106 42t34 130v462v1116h138l770 -1194v1194h144v-1448h-138l-770 1196v-1196v-128q0 -152 -72 -230t-212 -78q-64 0 -114 18z" />
<glyph unicode="&#x19e;" horiz-adv-x="1160" d="M188 0v1068h134v-114q134 140 328 140q156 0 244 -90t88 -248v-756v-414h-144v544v616q0 102 -58 155t-168 53q-80 0 -148 -25t-132 -81v-848h-144z" />
<glyph unicode="&#x19f;" horiz-adv-x="1424" d="M128 724q0 368 150 559t434 191t434 -191t150 -559t-150 -559t-434 -191t-434 191t-150 559zM284 666q8 -274 117 -416t311 -142t311 142t117 416h-856zM284 794h856q-12 268 -120 407t-308 139t-308 -139t-120 -407z" />
<glyph unicode="&#x1a0;" horiz-adv-x="1424" d="M128 724q0 368 150 559t434 191q54 0 90 -6t82 -18q8 -2 51 -12t109 -10q110 0 156 43t46 133q0 50 -10 122h138q10 -60 10 -118q0 -130 -69 -197t-221 -75q202 -190 202 -612q0 -366 -151 -558t-433 -192q-284 0 -434 191t-150 559zM284 724q0 -304 108 -460t320 -156 q210 0 319 157t109 459t-109 459t-319 157q-212 0 -320 -156t-108 -460z" />
<glyph unicode="&#x1a1;" horiz-adv-x="1130" d="M114 534q0 274 114 417t328 143q52 0 120 -12q56 -14 118 -14q112 0 157 35t45 121q0 50 -10 122h130q10 -60 10 -118q0 -122 -65 -183t-203 -71q138 -138 138 -440q0 -274 -114 -417t-326 -143q-214 0 -328 143t-114 417zM264 534q0 -212 74 -321t218 -109 q142 0 216 109t74 321t-74 321t-216 109q-144 0 -218 -109t-74 -321z" />
<glyph unicode="&#x1a2;" horiz-adv-x="1754" d="M128 724q0 374 142 560t442 186q44 0 106 -6q202 -16 382 -16h358v-1864h-148v1730h-210v-1238q-178 -98 -488 -98q-284 0 -434 190t-150 556zM284 724q0 -302 108 -457t320 -155q210 0 340 44v1162q-72 4 -106 8q-24 2 -94 6t-140 4q-212 0 -320 -155t-108 -457z" />
<glyph unicode="&#x1a3;" horiz-adv-x="1440" d="M114 534q0 274 114 415t328 141q32 0 104 -8q136 -14 266 -14h326v-1480h-144v1350h-182v-912q-210 -48 -372 -48q-214 0 -327 141t-113 415zM264 534q0 -210 74 -318t216 -108q132 0 228 18v818l-52 6q-94 8 -136 10h-38q-144 0 -218 -107t-74 -319z" />
<glyph unicode="&#x1a4;" horiz-adv-x="1290" d="M-4 1160q0 136 79 212t221 76h148h346q212 0 330 -121t118 -339t-121 -341t-335 -123h-338v-524h-148v1316q-80 0 -120 -39t-40 -115q0 -30 6 -76h-140q-6 30 -6 74zM444 658h346q144 0 218 84t74 246q0 160 -76 243t-224 83h-338v-656z" />
<glyph unicode="&#x1a5;" horiz-adv-x="1148" d="M188 -414v1196v286v206q0 136 67 206t197 70q62 0 114 -18l-20 -116q-38 12 -94 12q-62 0 -91 -37t-29 -115v-330q108 148 300 148q190 0 296 -150t106 -418q0 -260 -113 -406t-313 -146q-82 0 -153 32t-123 90v-510h-144zM332 230q52 -58 124 -91t152 -33q136 0 206 106 t70 314q0 212 -73 320t-215 108q-78 0 -142 -31t-122 -99v-594z" />
<glyph unicode="&#x1a6;" horiz-adv-x="1252" d="M196 0v1448h148v-162h326q206 0 321 -110t115 -294q0 -140 -69 -240t-199 -140l474 -722h-180l-450 696h-20h-318v-476h-148zM344 610h326q140 0 210 72t70 200q0 126 -73 198t-215 72h-318v-542z" />
<glyph unicode="&#x1a7;" horiz-adv-x="1120" d="M108 390q0 154 87 250t271 148l164 46q118 32 175 95t57 165q0 112 -79 177t-219 65q-158 0 -364 -82l-52 130q90 42 199 65t213 23q208 0 331 -108t123 -290q0 -154 -87 -250t-271 -148l-164 -46q-118 -32 -175 -95t-57 -165q0 -120 86 -189t240 -69q202 0 388 108 l54 -130q-90 -54 -207 -84t-235 -30q-144 0 -252 51t-167 145t-59 218z" />
<glyph unicode="&#x1a8;" horiz-adv-x="926" d="M100 294q0 122 69 196t215 108l142 34q82 20 120 59t38 103q0 82 -56 125t-164 43q-134 0 -274 -72l-58 124q68 36 154 57t174 21q174 0 271 -82t97 -228q0 -118 -69 -190t-215 -106l-142 -34q-82 -20 -120 -60t-38 -108q0 -88 61 -133t181 -45q160 0 304 88l52 -124 q-70 -44 -164 -69t-192 -25q-182 0 -284 84t-102 234z" />
<glyph unicode="&#x1a9;" horiz-adv-x="1146" d="M112 0v134l490 600l-490 582v132h942v-132h-772l498 -582l-498 -602h772v-132h-942z" />
<glyph unicode="&#x1aa;" horiz-adv-x="588" d="M-90 1344q0 108 64 169t176 61t181 -65t69 -171v-1314v-112q0 -106 50 -161t146 -55q42 0 102 8v-128q-40 -10 -102 -10q-160 0 -250 91t-90 255v202v1046q-42 -38 -124 -38q-100 0 -161 57t-61 165zM54 1344q0 -106 100 -106t100 106q0 50 -27 77t-73 27 q-100 0 -100 -104z" />
<glyph unicode="&#x1ab;" horiz-adv-x="764" d="M42 946v122h186v320h144v-320h322v-122h-322v-586q0 -126 49 -185t153 -59q54 0 110 18l24 -124v-168q0 -136 -65 -206t-191 -70q-70 0 -122 18l20 116q38 -12 102 -12q66 0 98 37t32 115v146h-30q-160 0 -242 89t-82 265v606h-186z" />
<glyph unicode="&#x1ac;" horiz-adv-x="1052" d="M10 1160q0 136 79 212t219 76h292h388v-136h-388v-1312h-148v1312h-142q-160 0 -160 -150q0 -30 6 -76h-140q-6 30 -6 74z" />
<glyph unicode="&#x1ad;" horiz-adv-x="764" d="M42 946v122h186v136q0 164 95 255t265 91q62 0 102 -10v-128q-60 8 -102 8q-106 0 -161 -55t-55 -161v-136h322v-122h-322v-586q0 -126 49 -185t153 -59q54 0 110 18l24 -124q-68 -24 -156 -24q-160 0 -242 89t-82 265v606h-186z" />
<glyph unicode="&#x1ae;" horiz-adv-x="1052" d="M64 1312v136h536h388v-136h-388v-1442q0 -88 34 -130t104 -42q50 0 90 12l22 -128q-50 -18 -112 -18q-140 0 -213 78t-73 230v460v980h-388z" />
<glyph unicode="&#x1af;" horiz-adv-x="1368" d="M186 514v934h148v-934q0 -200 89 -303t261 -103t261 103t89 303v934h50q112 0 157 35t45 121q0 50 -10 122h138q10 -60 10 -118q0 -118 -57 -178t-185 -74v-842q0 -254 -132 -397t-368 -143q-234 0 -365 143t-131 397z" />
<glyph unicode="&#x1b0;" horiz-adv-x="1144" d="M174 312v756h144v-746q0 -102 56 -155t164 -53q84 0 150 30t124 96v828h42q112 0 157 35t45 121q0 50 -10 122h130q10 -60 10 -118q0 -114 -55 -175t-175 -75v-978h-134v128q-118 -154 -322 -154q-154 0 -240 90t-86 248z" />
<glyph unicode="&#x1b1;" horiz-adv-x="1464" d="M128 1312v136h514v-126q-174 -128 -256 -297t-82 -393q0 -260 108 -392t320 -132t320 132t108 392q0 224 -82 393t-256 297v126h514v-136h-304q140 -136 212 -310t72 -380q0 -304 -154 -475t-430 -171t-430 171t-154 475q0 206 72 380t212 310h-304z" />
<glyph unicode="&#x1b2;" horiz-adv-x="1368" d="M186 514v934h148v-934q0 -200 89 -303t261 -103t261 103t89 303v414v240q0 88 -34 130t-104 42q-50 0 -90 -12l-22 128q52 18 112 18q140 0 213 -78t73 -230v-460v-192q0 -254 -132 -397t-368 -143q-234 0 -365 143t-131 397z" />
<glyph unicode="&#x1b3;" horiz-adv-x="1296" d="M56 1448h166l364 -754l288 594q48 98 107 144t139 46q98 0 154 -66t66 -194l-126 -24q-10 74 -33 108t-61 34q-32 0 -58 -24t-52 -80l-352 -712v-520h-148v520z" />
<glyph unicode="&#x1b4;" horiz-adv-x="1246" d="M64 1068h158l296 -894l296 906q72 218 254 218q96 0 151 -64t63 -188l-122 -22q-10 70 -33 104t-61 34q-36 0 -63 -33t-53 -107l-364 -1038q-52 -144 -169 -251t-295 -171l-52 128q144 50 234 123t140 177z" />
<glyph unicode="&#x1b5;" horiz-adv-x="1102" d="M92 0v134l350 560h-270v126h348l310 496h-714v132h882v-132l-310 -496h238v-126h-316l-350 -562h746v-132h-914z" />
<glyph unicode="&#x1b6;" horiz-adv-x="926" d="M88 0v122l256 368h-208v106h282l244 350h-558v122h724v-122l-244 -350h216v-106h-290l-256 -368h582v-122h-748z" />
<glyph unicode="&#x1b7;" horiz-adv-x="1128" d="M32 82l64 122q84 -40 184 -64t194 -24q186 0 286 81t100 241q0 158 -115 227t-331 69h-82v126l418 454h-644v134h824v-136l-418 -454q246 -16 375 -117t129 -303q0 -226 -147 -344t-393 -118q-118 0 -236 27t-208 79z" />
<glyph unicode="&#x1b8;" horiz-adv-x="1128" d="M112 438q0 202 129 303t375 117l-418 454v136h824v-134h-644l418 -454v-126h-82q-216 0 -331 -69t-115 -227q0 -160 100 -241t286 -81q94 0 194 24t184 64l64 -122q-90 -52 -208 -79t-236 -27q-246 0 -393 118t-147 344z" />
<glyph unicode="&#x1b9;" horiz-adv-x="1006" d="M96 12q0 198 127 299t349 115l-402 516v126h744v-124h-576l392 -516v-122h-86q-182 0 -290 -70t-108 -228q0 -152 90 -235t256 -83q82 0 151 15t151 51l52 -116q-72 -42 -169 -61t-197 -19q-216 0 -350 114t-134 338z" />
<glyph unicode="&#x1ba;" horiz-adv-x="918" d="M20 -146q0 242 360 250q106 4 163 15t93 50t36 121q0 114 -82 164t-266 50h-68v116l312 324h-508v124h688v-128l-316 -320q202 -14 296 -91t94 -229q0 -132 -60 -202t-154 -95t-226 -29q-94 -2 -157 -23t-63 -95q0 -128 228 -128q70 0 167 20t185 62l50 -118 q-112 -50 -210 -69t-202 -19q-172 0 -266 64t-94 186z" />
<glyph unicode="&#x1bb;" horiz-adv-x="1058" d="M86 1342q74 60 189 96t227 36q184 0 297 -99t113 -263q0 -78 -29 -156t-93 -172h138v-126h-234l-434 -530h668v-128h-840v130l428 528h-402v126h504q80 102 113 172t33 140q0 112 -72 176t-198 64q-86 0 -175 -30t-161 -82z" />
<glyph unicode="&#x1bc;" horiz-adv-x="1082" d="M52 1320v128h262h600v-128h-550v-410l146 -12q234 -20 349 -131t115 -317q0 -142 -57 -250t-165 -167t-254 -59q-100 0 -203 28t-177 74l62 130q72 -44 156 -69t162 -25q158 0 241 89t83 249q0 154 -87 234t-277 92l-238 16v528h-168z" />
<glyph unicode="&#x1bd;" horiz-adv-x="938" d="M44 946v122h226h516v-122h-456v-280l108 -8q188 -14 294 -95t106 -235q0 -166 -109 -260t-301 -94q-82 0 -171 23t-155 59l52 116q62 -32 133 -49t141 -17q124 0 192 56t68 166q0 102 -79 155t-205 59l-214 14v390h-146z" />
<glyph unicode="&#x1be;" horiz-adv-x="990" d="M114 80l52 124q72 -44 159 -71t165 -27q120 0 181 44t61 126q0 52 -22 87t-54 57t-92 52q-70 34 -113 65t-73 86t-30 137v186h-186v122h186v320h144v-320h322v-122h-322v-178q0 -72 42 -113t128 -85q70 -36 112 -67t72 -84t30 -133q0 -146 -102 -228t-284 -82 q-96 0 -200 29t-176 75z" />
<glyph unicode="&#x1bf;" horiz-adv-x="1122" d="M188 -414v1482h134v-152q132 178 340 178q164 0 255 -108t91 -298q0 -120 -41 -216t-132 -188t-251 -200l-252 -170v-328h-144zM332 68l212 144q176 120 245 222t69 240t-59 209t-173 71q-78 0 -149 -37t-145 -115v-734z" />
<glyph unicode="&#x1c0;" horiz-adv-x="532" d="M200 0v1540h132v-1540h-132z" />
<glyph unicode="&#x1c1;" horiz-adv-x="826" d="M200 0v1540h132v-1540h-132zM494 0v1540h132v-1540h-132z" />
<glyph unicode="&#x1c2;" horiz-adv-x="692" d="M60 484v126h220v322h-220v126h220v482h132v-482h220v-126h-220v-322h220v-126h-220v-484h-132v484h-220z" />
<glyph unicode="&#x1c3;" horiz-adv-x="692" d="M236 86q0 52 29 82t81 30t81 -29t29 -81q0 -54 -29 -84t-81 -30t-81 30t-29 82zM256 1540h172l-26 -1170h-116z" />
<glyph unicode="&#x1c4;" horiz-adv-x="2380" d="M196 0v1448h386q324 0 496 -184t172 -540t-174 -540t-502 -184h-378zM344 134h238q252 0 382 150t130 440q0 292 -132 441t-388 149h-230v-1180zM1370 0v134l738 1182h-714v132h882v-132l-738 -1184h746v-132h-914zM1510 1828v24h122l198 -188l196 188h116v-24l-234 -266 h-164z" />
<glyph unicode="&#x1c5;" horiz-adv-x="2224" d="M196 0v1448h386q324 0 496 -184t172 -540t-174 -540t-502 -184h-378zM344 134h238q252 0 382 150t130 440q0 292 -132 441t-388 149h-230v-1180zM1386 0v122l574 824h-558v122h724v-122l-574 -824h582v-122h-748zM1440 1488v24h122l198 -188l196 188h116v-24l-234 -266 h-164z" />
<glyph unicode="&#x1c6;" horiz-adv-x="2014" d="M114 542q0 260 113 406t313 146q82 0 153 -32t123 -90v568h144v-1458v-82h-134v136q-54 -80 -133 -121t-177 -41q-190 0 -296 150t-106 418zM264 542q0 -212 73 -320t215 -108q78 0 142 31t122 99v594q-52 58 -124 91t-152 33q-136 0 -206 -106t-70 -314zM1176 0v122 l574 824h-558v122h724v-122l-574 -824h582v-122h-748zM1266 1548v20h110l172 -226l174 226h104v-20l-204 -318h-152z" />
<glyph unicode="&#x1c7;" horiz-adv-x="1944" d="M196 0v1448h148v-1312h650v-136h-798zM1134 34l50 128q120 -52 214 -52q104 0 158 63t54 187v1088h148v-1088q0 -182 -95 -284t-265 -102q-66 0 -137 16t-127 44z" />
<glyph unicode="&#x1c8;" horiz-adv-x="1582" d="M196 0v1448h148v-1312h650v-136h-798zM972 -318q108 38 166 83t83 112t25 175v1016h144v-1016q0 -144 -33 -232t-111 -149t-224 -111zM1214 1366q0 52 27 80t77 28t77 -28t27 -78q0 -52 -27 -80t-77 -28t-77 28t-27 78z" />
<glyph unicode="&#x1c9;" horiz-adv-x="1126" d="M184 218v1322h144v-1316q0 -56 26 -81t84 -25q34 0 80 8l14 -122q-60 -16 -124 -16q-224 0 -224 230zM476 -318q108 38 166 83t83 112t25 175v1016h144v-1016q0 -144 -33 -232t-111 -149t-224 -111zM718 1366q0 52 27 80t77 28t77 -28t27 -78q0 -52 -27 -80t-77 -28 t-77 28t-27 78z" />
<glyph unicode="&#x1ca;" horiz-adv-x="2234" d="M196 0v1448h138l770 -1194v1194h144v-1448h-138l-770 1196v-1196h-144zM1424 34l50 128q120 -52 214 -52q104 0 158 63t54 187v1088h148v-1088q0 -182 -95 -284t-265 -102q-66 0 -137 16t-127 44z" />
<glyph unicode="&#x1cb;" horiz-adv-x="1932" d="M196 0v1448h138l770 -1194v1194h144v-1448h-138l-770 1196v-1196h-144zM1322 -318q108 38 166 83t83 112t25 175v1016h144v-1016q0 -144 -33 -232t-111 -149t-224 -111zM1564 1366q0 52 27 80t77 28t77 -28t27 -78q0 -52 -27 -80t-77 -28t-77 28t-27 78z" />
<glyph unicode="&#x1cc;" horiz-adv-x="1648" d="M188 0v1068h134v-114q134 140 328 140q156 0 244 -90t88 -248v-756h-144v746q0 102 -58 155t-168 53q-80 0 -148 -25t-132 -81v-848h-144zM1038 -318q108 38 166 83t83 112t25 175v1016h144v-1016q0 -144 -33 -232t-111 -149t-224 -111zM1280 1366q0 52 27 80t77 28 t77 -28t27 -78q0 -52 -27 -80t-77 -28t-77 28t-27 78z" />
<glyph unicode="&#x1cd;" horiz-adv-x="1332" d="M64 0l518 1448h168l518 -1448h-162l-136 396h-610l-136 -396h-160zM350 1828v24h122l198 -188l196 188h116v-24l-234 -266h-164zM404 528h520l-260 756z" />
<glyph unicode="&#x1ce;" horiz-adv-x="1056" d="M90 296q0 190 158 281t490 93v74q0 104 -65 159t-189 55q-130 0 -252 -58l-38 122q142 72 306 72q172 0 277 -86t105 -252v-756h-134v130q-104 -152 -322 -152q-158 0 -247 84t-89 234zM224 1548v20h110l172 -226l174 226h104v-20l-204 -318h-152zM236 306q0 -96 56 -146 t166 -50q86 0 154 32t126 98v310q-258 -2 -380 -61t-122 -183z" />
<glyph unicode="&#x1cf;" horiz-adv-x="548" d="M-42 1828v24h122l198 -188l196 188h116v-24l-234 -266h-164zM200 0v1448h148v-1448h-148z" />
<glyph unicode="&#x1d0;" horiz-adv-x="528" d="M-16 1548v20h110l172 -226l174 226h104v-20l-204 -318h-152zM192 0v1068h144v-1068h-144z" />
<glyph unicode="&#x1d1;" horiz-adv-x="1424" d="M128 724q0 368 150 559t434 191t434 -191t150 -559t-150 -559t-434 -191t-434 191t-150 559zM284 724q0 -304 108 -460t320 -156t320 156t108 460t-108 460t-320 156t-320 -156t-108 -460zM396 1828v24h122l198 -188l196 188h116v-24l-234 -266h-164z" />
<glyph unicode="&#x1d2;" horiz-adv-x="1110" d="M114 534q0 274 114 417t328 143q212 0 326 -143t114 -417t-114 -417t-328 -143q-212 0 -326 143t-114 417zM264 534q0 -212 74 -321t216 -109q144 0 218 109t74 321t-74 321t-216 109q-144 0 -218 -109t-74 -321zM276 1548v20h110l172 -226l174 226h104v-20l-204 -318 h-152z" />
<glyph unicode="&#x1d3;" horiz-adv-x="1368" d="M186 514v934h148v-934q0 -200 89 -303t261 -103t261 103t89 303v934h148v-934q0 -254 -132 -397t-368 -143q-234 0 -365 143t-131 397zM368 1828v24h122l198 -188l196 188h116v-24l-234 -266h-164z" />
<glyph unicode="&#x1d4;" horiz-adv-x="1144" d="M174 312v756h144v-746q0 -102 56 -155t164 -53q84 0 150 30t124 96v828h144v-1068h-134v128q-118 -154 -322 -154q-154 0 -240 90t-86 248zM286 1548v20h110l172 -226l174 226h104v-20l-204 -318h-152z" />
<glyph unicode="&#x1d5;" horiz-adv-x="1368" d="M186 514v934h148v-934q0 -200 89 -303t261 -103t261 103t89 303v934h148v-934q0 -254 -132 -397t-368 -143q-234 0 -365 143t-131 397zM400 1858v108h568v-108h-568zM406 1656q0 48 25 74t71 26t71 -26t25 -72t-26 -73t-70 -27t-70 26t-26 72zM770 1656q0 48 25 74t71 26 t71 -26t25 -72t-26 -73t-70 -27t-70 26t-26 72z" />
<glyph unicode="&#x1d6;" horiz-adv-x="1144" d="M174 312v756h144v-746q0 -102 56 -155t164 -53q84 0 150 30t124 96v828h144v-1068h-134v128q-118 -154 -322 -154q-154 0 -240 90t-86 248zM282 1518v108h568v-108h-568zM288 1316q0 48 25 74t71 26t71 -26t25 -72t-26 -73t-70 -27t-70 26t-26 72zM652 1316q0 48 25 74 t71 26t71 -26t25 -72t-26 -73t-70 -27t-70 26t-26 72z" />
<glyph unicode="&#x1d7;" horiz-adv-x="1368" d="M186 514v934h148v-934q0 -200 89 -303t261 -103t261 103t89 303v934h148v-934q0 -254 -132 -397t-368 -143q-234 0 -365 143t-131 397zM406 1656q0 48 25 74t71 26t71 -26t25 -72t-26 -73t-70 -27t-70 26t-26 72zM634 1804v20l162 254h138v-20l-204 -254h-96zM770 1656 q0 48 25 74t71 26t71 -26t25 -72t-26 -73t-70 -27t-70 26t-26 72z" />
<glyph unicode="&#x1d8;" horiz-adv-x="1144" d="M174 312v756h144v-746q0 -102 56 -155t164 -53q84 0 150 30t124 96v828h144v-1068h-134v128q-118 -154 -322 -154q-154 0 -240 90t-86 248zM288 1316q0 48 25 74t71 26t71 -26t25 -72t-26 -73t-70 -27t-70 26t-26 72zM516 1464v20l162 254h138v-20l-204 -254h-96z M652 1316q0 48 25 74t71 26t71 -26t25 -72t-26 -73t-70 -27t-70 26t-26 72z" />
<glyph unicode="&#x1d9;" horiz-adv-x="1368" d="M186 514v934h148v-934q0 -200 89 -303t261 -103t261 103t89 303v934h148v-934q0 -254 -132 -397t-368 -143q-234 0 -365 143t-131 397zM400 2066v20h110l178 -178l176 178h104v-20l-208 -258h-152zM406 1656q0 48 25 74t71 26t71 -26t25 -72t-26 -73t-70 -27t-70 26 t-26 72zM770 1656q0 48 25 74t71 26t71 -26t25 -72t-26 -73t-70 -27t-70 26t-26 72z" />
<glyph unicode="&#x1da;" horiz-adv-x="1144" d="M174 312v756h144v-746q0 -102 56 -155t164 -53q84 0 150 30t124 96v828h144v-1068h-134v128q-118 -154 -322 -154q-154 0 -240 90t-86 248zM282 1732v20h110l178 -194l176 194h104v-20l-208 -278h-152zM288 1316q0 48 25 74t71 26t71 -26t25 -72t-26 -73t-70 -27t-70 26 t-26 72zM652 1316q0 48 25 74t71 26t71 -26t25 -72t-26 -73t-70 -27t-70 26t-26 72z" />
<glyph unicode="&#x1db;" horiz-adv-x="1368" d="M186 514v934h148v-934q0 -200 89 -303t261 -103t261 103t89 303v934h148v-934q0 -254 -132 -397t-368 -143q-234 0 -365 143t-131 397zM406 1656q0 48 25 74t71 26t71 -26t25 -72t-26 -73t-70 -27t-70 26t-26 72zM452 2058v20h138l150 -254v-20h-96zM770 1656q0 48 25 74 t71 26t71 -26t25 -72t-26 -73t-70 -27t-70 26t-26 72z" />
<glyph unicode="&#x1dc;" horiz-adv-x="1144" d="M174 312v756h144v-746q0 -102 56 -155t164 -53q84 0 150 30t124 96v828h144v-1068h-134v128q-118 -154 -322 -154q-154 0 -240 90t-86 248zM288 1316q0 48 25 74t71 26t71 -26t25 -72t-26 -73t-70 -27t-70 26t-26 72zM334 1718v20h138l150 -254v-20h-96zM652 1316 q0 48 25 74t71 26t71 -26t25 -72t-26 -73t-70 -27t-70 26t-26 72z" />
<glyph unicode="&#x1dd;" horiz-adv-x="1076" d="M102 488q0 48 6 84h712q-8 190 -93 287t-243 97q-150 0 -276 -84l-56 116q62 50 151 77t189 27q224 0 349 -148t125 -410q0 -264 -116 -412t-322 -148q-202 0 -314 136t-112 378zM248 450q2 -164 77 -255t207 -91q128 0 199 87t85 259h-568z" />
<glyph unicode="&#x1de;" horiz-adv-x="1332" d="M64 0l518 1448h168l518 -1448h-162l-136 396h-610l-136 -396h-160zM374 1702q0 48 26 76t72 28q48 0 74 -27t26 -75q0 -50 -26 -77t-74 -27q-46 0 -72 27t-26 75zM382 1926v116h568v-116h-568zM404 528h520l-260 756zM760 1702q0 48 26 76t72 28q48 0 74 -27t26 -75 q0 -50 -26 -77t-74 -27q-46 0 -72 27t-26 75z" />
<glyph unicode="&#x1df;" horiz-adv-x="1056" d="M90 296q0 190 158 281t490 93v74q0 104 -65 159t-189 55q-130 0 -252 -58l-38 122q142 72 306 72q172 0 277 -86t105 -252v-756h-134v130q-104 -152 -322 -152q-158 0 -247 84t-89 234zM220 1362q0 48 26 76t72 28q48 0 74 -27t26 -75q0 -50 -26 -77t-74 -27 q-46 0 -72 27t-26 75zM220 1574v116h568v-116h-568zM236 306q0 -96 56 -146t166 -50q86 0 154 32t126 98v310q-258 -2 -380 -61t-122 -183zM590 1362q0 48 26 76t72 28q48 0 74 -27t26 -75q0 -50 -26 -77t-74 -27q-46 0 -72 27t-26 75z" />
<glyph unicode="&#x1e0;" horiz-adv-x="1332" d="M64 0l518 1448h168l518 -1448h-162l-136 396h-610l-136 -396h-160zM382 1926v116h568v-116h-568zM404 528h520l-260 756zM562 1706q0 52 27 80t77 28t77 -28t27 -78q0 -52 -27 -80t-77 -28t-77 28t-27 78z" />
<glyph unicode="&#x1e1;" horiz-adv-x="1056" d="M90 296q0 190 158 281t490 93v74q0 104 -65 159t-189 55q-130 0 -252 -58l-38 122q142 72 306 72q172 0 277 -86t105 -252v-756h-134v130q-104 -152 -322 -152q-158 0 -247 84t-89 234zM220 1574v116h568v-116h-568zM236 306q0 -96 56 -146t166 -50q86 0 154 32t126 98 v310q-258 -2 -380 -61t-122 -183zM400 1366q0 52 27 80t77 28t77 -28t27 -78q0 -52 -27 -80t-77 -28t-77 28t-27 78z" />
<glyph unicode="&#x1e2;" horiz-adv-x="1796" d="M-4 0l786 1448h152h746v-134h-660v-506h488v-136h-488v-538h684v-134h-828v380h-512l-204 -380h-164zM434 512h442v828zM664 1622v116h568v-116h-568z" />
<glyph unicode="&#x1e3;" horiz-adv-x="1656" d="M90 296q0 184 153 271t475 89v88q0 106 -62 160t-182 54q-126 0 -242 -58l-38 122q78 40 156 56t140 16q118 0 201 -46t121 -132q50 84 134 131t192 47q196 0 306 -136t110 -378q0 -50 -6 -84h-692q8 -190 91 -287t235 -97q140 0 266 84l54 -116q-60 -50 -147 -77 t-181 -27q-124 0 -219 50t-155 146q-82 -100 -176 -147t-208 -47q-154 0 -240 84t-86 234zM236 306q0 -96 54 -146t158 -50q88 0 162 42t140 130q-36 108 -36 252v2q-244 -2 -361 -58t-117 -172zM566 1282v116h568v-116h-568zM860 618h548q-2 164 -74 255t-200 91 q-122 0 -191 -88t-83 -258z" />
<glyph unicode="&#x1e4;" horiz-adv-x="1344" d="M128 724q0 234 77 403t222 258t347 89q104 0 203 -24t169 -66l-46 -126q-170 80 -330 80q-240 0 -363 -155t-123 -459t124 -460t366 -156q132 0 258 40v176h-268v126h268v172h-268v134h416v-306h148v-126h-148v-252q-74 -46 -181 -72t-225 -26q-202 0 -347 89t-222 258 t-77 403z" />
<glyph unicode="&#x1e5;" horiz-adv-x="1154" d="M74 -56h746q2 16 2 48v190q-108 -148 -302 -148q-190 0 -298 142t-108 396q0 246 114 384t316 138q88 0 162 -36t126 -102v112h134v-1076q0 -32 -2 -48h142v-106h-162q-40 -134 -154 -206t-286 -72q-80 0 -157 16t-131 44l44 130q112 -56 244 -56q220 0 288 144h-718v106 zM264 572q0 -196 74 -297t220 -101q78 0 142 31t122 99v518l2 14q-54 60 -127 93t-153 33q-138 0 -209 -98t-71 -292z" />
<glyph unicode="&#x1e6;" horiz-adv-x="1336" d="M128 724q0 234 77 403t222 258t347 89q104 0 203 -24t169 -66l-46 -126q-170 80 -330 80q-240 0 -363 -155t-123 -459t124 -460t366 -156q132 0 258 40v474h-268v134h416v-684q-74 -46 -181 -72t-225 -26q-202 0 -347 89t-222 258t-77 403zM402 1828v24h122l198 -188 l196 188h116v-24l-234 -266h-164z" />
<glyph unicode="&#x1e7;" horiz-adv-x="1154" d="M114 572q0 246 114 384t316 138q88 0 162 -36t126 -102v112h134v-1076q0 -204 -122 -318t-340 -114q-80 0 -157 16t-131 44l44 130q112 -56 244 -56q156 0 237 76t81 222v190q-108 -148 -302 -148q-190 0 -298 142t-108 396zM264 572q0 -196 74 -297t220 -101 q78 0 142 31t122 99v534q-54 60 -126 92t-152 32q-138 0 -209 -98t-71 -292zM290 1548v20h110l172 -226l174 226h104v-20l-204 -318h-152z" />
<glyph unicode="&#x1e8;" horiz-adv-x="1232" d="M196 0v1448h148v-814l664 814h182l-558 -662l588 -786h-182l-504 668l-190 -226v-442h-148zM326 1828v24h122l198 -188l196 188h116v-24l-234 -266h-164z" />
<glyph unicode="&#x1e9;" horiz-adv-x="1070" d="M-56 1920v24h122l198 -188l196 188h116v-24l-234 -266h-164zM188 0v1540h144v-1028l482 556h178l-404 -450l426 -618h-178l-348 506l-156 -172v-334h-144z" />
<glyph unicode="&#x1ea;" horiz-adv-x="1424" d="M128 724q0 368 150 559t434 191t434 -191t150 -559q0 -278 -88 -453t-274 -265q-202 -98 -202 -236q0 -88 96 -88q66 0 134 36l42 -94q-40 -28 -92 -43t-108 -15q-94 0 -148 47t-54 131q0 66 34 125t96 105h-20q-284 0 -434 191t-150 559zM284 724q0 -304 108 -460 t320 -156t320 156t108 460t-108 460t-320 156t-320 -156t-108 -460z" />
<glyph unicode="&#x1eb;" horiz-adv-x="1110" d="M114 534q0 274 114 417t328 143q212 0 326 -143t114 -417q0 -200 -60 -326t-186 -192q-108 -56 -159 -116t-51 -130q0 -88 96 -88q66 0 134 36l42 -94q-40 -28 -92 -43t-108 -15q-94 0 -148 47t-54 131q0 66 34 125t96 105q-206 4 -316 147t-110 413zM264 534 q0 -212 74 -321t216 -109q144 0 218 109t74 321t-74 321t-216 109q-144 0 -218 -109t-74 -321z" />
<glyph unicode="&#x1ec;" horiz-adv-x="1424" d="M128 724q0 368 150 559t434 191t434 -191t150 -559q0 -278 -88 -453t-274 -265q-202 -98 -202 -236q0 -88 96 -88q66 0 134 36l42 -94q-40 -28 -92 -43t-108 -15q-94 0 -148 47t-54 131q0 66 34 125t96 105h-20q-284 0 -434 191t-150 559zM284 724q0 -304 108 -460 t320 -156t320 156t108 460t-108 460t-320 156t-320 -156t-108 -460zM428 1622v116h568v-116h-568z" />
<glyph unicode="&#x1ed;" horiz-adv-x="1110" d="M114 534q0 274 114 417t328 143q212 0 326 -143t114 -417q0 -200 -60 -326t-186 -192q-108 -56 -159 -116t-51 -130q0 -88 96 -88q66 0 134 36l42 -94q-40 -28 -92 -43t-108 -15q-94 0 -148 47t-54 131q0 66 34 125t96 105q-206 4 -316 147t-110 413zM264 534 q0 -212 74 -321t216 -109q144 0 218 109t74 321t-74 321t-216 109q-144 0 -218 -109t-74 -321zM272 1282v116h568v-116h-568z" />
<glyph unicode="&#x1ee;" horiz-adv-x="1128" d="M32 82l64 122q84 -40 184 -64t194 -24q186 0 286 81t100 241q0 158 -115 227t-331 69h-82v126l418 454h-644v134h824v-136l-418 -454q246 -16 375 -117t129 -303q0 -226 -147 -344t-393 -118q-118 0 -236 27t-208 79zM188 1828v24h122l198 -188l196 188h116v-24 l-234 -266h-164z" />
<glyph unicode="&#x1ef;" horiz-adv-x="1006" d="M60 -360l52 116q82 -36 151 -51t151 -15q166 0 256 83t90 235q0 158 -108 228t-290 70h-86v122l392 516h-576v124h744v-126l-402 -516q222 -14 349 -115t127 -299q0 -224 -134 -338t-350 -114q-100 0 -197 19t-169 61zM176 1548v20h110l172 -226l174 226h104v-20 l-204 -318h-152z" />
<glyph unicode="&#x1f0;" horiz-adv-x="528" d="M-82 -318q108 38 166 83t83 112t25 175v1016h144v-1016q0 -144 -33 -232t-111 -149t-224 -111zM-16 1548v20h110l172 -226l174 226h104v-20l-204 -318h-152z" />
<glyph unicode="&#x1f1;" horiz-adv-x="2380" d="M196 0v1448h386q324 0 496 -184t172 -540t-174 -540t-502 -184h-378zM344 134h238q252 0 382 150t130 440q0 292 -132 441t-388 149h-230v-1180zM1370 0v134l738 1182h-714v132h882v-132l-738 -1184h746v-132h-914z" />
<glyph unicode="&#x1f2;" horiz-adv-x="2224" d="M196 0v1448h386q324 0 496 -184t172 -540t-174 -540t-502 -184h-378zM344 134h238q252 0 382 150t130 440q0 292 -132 441t-388 149h-230v-1180zM1386 0v122l574 824h-558v122h724v-122l-574 -824h582v-122h-748z" />
<glyph unicode="&#x1f3;" horiz-adv-x="2014" d="M114 542q0 260 113 406t313 146q82 0 153 -32t123 -90v568h144v-1458v-82h-134v136q-54 -80 -133 -121t-177 -41q-190 0 -296 150t-106 418zM264 542q0 -212 73 -320t215 -108q78 0 142 31t122 99v594q-52 58 -124 91t-152 33q-136 0 -206 -106t-70 -314zM1176 0v122 l574 824h-558v122h724v-122l-574 -824h582v-122h-748z" />
<glyph unicode="&#x1f4;" horiz-adv-x="1336" d="M128 724q0 234 77 403t222 258t347 89q104 0 203 -24t169 -66l-46 -126q-170 80 -330 80q-240 0 -363 -155t-123 -459t124 -460t366 -156q132 0 258 40v474h-268v134h416v-684q-74 -46 -181 -72t-225 -26q-202 0 -347 89t-222 258t-77 403zM594 1562v24l306 266h190v-24 l-364 -266h-132z" />
<glyph unicode="&#x1f5;" horiz-adv-x="1154" d="M114 572q0 246 114 384t316 138q88 0 162 -36t126 -102v112h134v-1076q0 -204 -122 -318t-340 -114q-80 0 -157 16t-131 44l44 130q112 -56 244 -56q156 0 237 76t81 222v190q-108 -148 -302 -148q-190 0 -298 142t-108 396zM264 572q0 -196 74 -297t220 -101 q78 0 142 31t122 99v534q-54 60 -126 92t-152 32q-138 0 -209 -98t-71 -292zM470 1230v20l206 318h170v-20l-264 -318h-112z" />
<glyph unicode="&#x1f6;" horiz-adv-x="2036" d="M196 0v1448h148v-646h712v646h148v-1056q0 -142 58 -215t170 -73q136 0 201 110t65 344q0 162 -15 279t-45 231h150q60 -226 60 -510q0 -288 -107 -436t-315 -148q-174 0 -272 100t-98 278v316h-712v-668h-148z" />
<glyph unicode="&#x1f7;" horiz-adv-x="1150" d="M196 -414v1862h144v-140q72 74 169 120t195 46q182 0 288 -114t106 -310q0 -144 -50 -259t-155 -220t-279 -225l-270 -184v-576h-148zM344 324l226 154q148 102 229 191t112 172t31 183q0 158 -66 234t-200 76q-86 0 -176 -42t-156 -114v-854z" />
<glyph unicode="&#x1f8;" horiz-adv-x="1444" d="M196 0v1448h138l770 -1194v1194h144v-1448h-138l-770 1196v-1196h-144zM366 1828v24h190l288 -266v-24h-132z" />
<glyph unicode="&#x1f9;" horiz-adv-x="1160" d="M188 0v1068h134v-114q134 140 328 140q156 0 244 -90t88 -248v-756h-144v746q0 102 -58 155t-168 53q-80 0 -148 -25t-132 -81v-848h-144zM334 1548v20h170l190 -318v-20h-112z" />
<glyph unicode="&#x1fa;" horiz-adv-x="1332" d="M64 0l480 1340q-112 52 -112 190q0 100 61 156t171 56t171 -56t61 -156q0 -136 -108 -188l480 -1342h-162l-136 396h-610l-136 -396h-160zM404 528h520l-260 756zM542 1530q0 -122 122 -122t122 122t-122 122t-122 -122zM560 1818v24l286 250h190v-24l-344 -250h-132z " />
<glyph unicode="&#x1fb;" horiz-adv-x="1056" d="M90 296q0 190 158 281t490 93v74q0 104 -65 159t-189 55q-130 0 -252 -58l-38 122q142 72 306 72q172 0 277 -86t105 -252v-756h-134v130q-104 -152 -322 -152q-158 0 -247 84t-89 234zM236 306q0 -96 56 -146t166 -50q86 0 154 32t126 98v310q-258 -2 -380 -61 t-122 -183zM274 1420q0 100 61 156t169 56t169 -56t61 -156t-61 -156t-169 -56t-169 56t-61 156zM382 1420q0 -124 122 -124t122 124t-122 124t-122 -124zM454 1706v20l162 254h138v-20l-204 -254h-96z" />
<glyph unicode="&#x1fc;" horiz-adv-x="1796" d="M-4 0l786 1448h152h746v-134h-660v-506h488v-136h-488v-538h684v-134h-828v380h-512l-204 -380h-164zM434 512h442v828zM824 1562v24l306 266h190v-24l-364 -266h-132z" />
<glyph unicode="&#x1fd;" horiz-adv-x="1656" d="M90 296q0 184 153 271t475 89v88q0 106 -62 160t-182 54q-126 0 -242 -58l-38 122q78 40 156 56t140 16q118 0 201 -46t121 -132q50 84 134 131t192 47q196 0 306 -136t110 -378q0 -50 -6 -84h-692q8 -190 91 -287t235 -97q140 0 266 84l54 -116q-60 -50 -147 -77 t-181 -27q-124 0 -219 50t-155 146q-82 -100 -176 -147t-208 -47q-154 0 -240 84t-86 234zM236 306q0 -96 54 -146t158 -50q88 0 162 42t140 130q-36 108 -36 252v2q-244 -2 -361 -58t-117 -172zM750 1230v20l206 318h170v-20l-264 -318h-112zM860 618h548q-2 164 -74 255 t-200 91q-122 0 -191 -88t-83 -258z" />
<glyph unicode="&#x1fe;" horiz-adv-x="1424" d="M68 4l172 216q-112 188 -112 504q0 368 150 559t434 191q250 0 398 -150l110 144h136v-24l-172 -216q112 -188 112 -504q0 -368 -150 -559t-434 -191q-250 0 -398 150l-110 -144h-136v24zM280 724q0 -242 58 -382l686 872q-106 130 -312 130q-214 0 -323 -157t-109 -463z M400 234q106 -130 312 -130q214 0 323 157t109 463q0 242 -58 382zM588 1562v24l306 266h190v-24l-364 -266h-132z" />
<glyph unicode="&#x1ff;" horiz-adv-x="1110" d="M54 0l140 172q-80 138 -80 360q0 276 114 419t328 143q182 0 290 -108l80 102h130v-20l-140 -172q80 -138 80 -362q0 -274 -114 -417t-326 -143q-180 0 -292 108l-80 -102h-130v20zM260 534q0 -146 30 -242l474 590q-72 86 -208 86q-146 0 -221 -110t-75 -324zM346 186 q72 -86 208 -86q146 0 221 110t75 324q0 146 -30 242zM460 1230v20l206 318h170v-20l-264 -318h-112z" />
<glyph unicode="&#x200;" horiz-adv-x="1332" d="M64 0l518 1448h168l518 -1448h-162l-136 396h-610l-136 -396h-160zM256 1828v24h166l182 -266v-24h-108zM404 528h520l-260 756zM566 1828v24h166l184 -266v-24h-108z" />
<glyph unicode="&#x201;" horiz-adv-x="1056" d="M90 296q0 190 158 281t490 93v74q0 104 -65 159t-189 55q-130 0 -252 -58l-38 122q142 72 306 72q172 0 277 -86t105 -252v-756h-134v130q-104 -152 -322 -152q-158 0 -247 84t-89 234zM182 1548v20h154l108 -318v-20h-96zM236 306q0 -96 56 -146t166 -50q86 0 154 32 t126 98v310q-258 -2 -380 -61t-122 -183zM464 1548v20h154l108 -318v-20h-96z" />
<glyph unicode="&#x202;" horiz-adv-x="1332" d="M64 0l518 1448h168l518 -1448h-162l-136 396h-610l-136 -396h-160zM386 1582q6 136 80 213t200 77t200 -77t80 -213h-102q-24 166 -180 166q-158 0 -182 -166h-96zM404 528h520l-260 756z" />
<glyph unicode="&#x203;" horiz-adv-x="1056" d="M90 296q0 190 158 281t490 93v74q0 104 -65 159t-189 55q-130 0 -252 -58l-38 122q142 72 306 72q172 0 277 -86t105 -252v-756h-134v130q-104 -152 -322 -152q-158 0 -247 84t-89 234zM224 1242q6 136 80 213t200 77t200 -77t80 -213h-102q-24 166 -180 166 q-158 0 -182 -166h-96zM236 306q0 -96 56 -146t166 -50q86 0 154 32t126 98v310q-258 -2 -380 -61t-122 -183z" />
<glyph unicode="&#x204;" horiz-adv-x="1148" d="M196 0v1448h836v-134h-688v-506h516v-136h-516v-538h712v-134h-860zM216 1828v24h166l182 -266v-24h-108zM526 1828v24h166l184 -266v-24h-108z" />
<glyph unicode="&#x205;" horiz-adv-x="1076" d="M110 534q0 264 116 412t322 148q202 0 314 -136t112 -378q0 -48 -6 -84h-712q8 -190 93 -287t243 -97q150 0 276 84l56 -116q-62 -50 -151 -77t-189 -27q-224 0 -349 148t-125 410zM226 1548v20h154l108 -318v-20h-96zM260 618h568q-2 164 -77 255t-207 91 q-128 0 -199 -87t-85 -259zM508 1548v20h154l108 -318v-20h-96z" />
<glyph unicode="&#x206;" horiz-adv-x="1148" d="M196 0v1448h836v-134h-688v-506h516v-136h-516v-538h712v-134h-860zM346 1582q6 136 80 213t200 77t200 -77t80 -213h-102q-24 166 -180 166q-158 0 -182 -166h-96z" />
<glyph unicode="&#x207;" horiz-adv-x="1076" d="M110 534q0 264 116 412t322 148q202 0 314 -136t112 -378q0 -48 -6 -84h-712q8 -190 93 -287t243 -97q150 0 276 84l56 -116q-62 -50 -151 -77t-189 -27q-224 0 -349 148t-125 410zM260 618h568q-2 164 -77 255t-207 91q-128 0 -199 -87t-85 -259zM268 1242q6 136 80 213 t200 77t200 -77t80 -213h-102q-24 166 -180 166q-158 0 -182 -166h-96z" />
<glyph unicode="&#x208;" horiz-adv-x="548" d="M-136 1828v24h166l182 -266v-24h-108zM174 1828v24h166l184 -266v-24h-108zM200 0v1448h148v-1448h-148z" />
<glyph unicode="&#x209;" horiz-adv-x="528" d="M-58 1548v20h154l108 -318v-20h-96zM192 0v1068h144v-1068h-144zM224 1548v20h154l108 -318v-20h-96z" />
<glyph unicode="&#x20a;" horiz-adv-x="548" d="M-6 1582q6 136 80 213t200 77t200 -77t80 -213h-102q-24 166 -180 166q-158 0 -182 -166h-96zM200 0v1448h148v-1448h-148z" />
<glyph unicode="&#x20b;" horiz-adv-x="528" d="M-16 1242q6 136 80 213t200 77t200 -77t80 -213h-102q-24 166 -180 166q-158 0 -182 -166h-96zM192 0v1068h144v-1068h-144z" />
<glyph unicode="&#x20c;" horiz-adv-x="1424" d="M128 724q0 368 150 559t434 191t434 -191t150 -559t-150 -559t-434 -191t-434 191t-150 559zM284 724q0 -304 108 -460t320 -156t320 156t108 460t-108 460t-320 156t-320 -156t-108 -460zM302 1828v24h166l182 -266v-24h-108zM612 1828v24h166l184 -266v-24h-108z" />
<glyph unicode="&#x20d;" horiz-adv-x="1110" d="M114 534q0 274 114 417t328 143q212 0 326 -143t114 -417t-114 -417t-328 -143q-212 0 -326 143t-114 417zM234 1548v20h154l108 -318v-20h-96zM264 534q0 -212 74 -321t216 -109q144 0 218 109t74 321t-74 321t-216 109q-144 0 -218 -109t-74 -321zM516 1548v20h154 l108 -318v-20h-96z" />
<glyph unicode="&#x20e;" horiz-adv-x="1424" d="M128 724q0 368 150 559t434 191t434 -191t150 -559t-150 -559t-434 -191t-434 191t-150 559zM284 724q0 -304 108 -460t320 -156t320 156t108 460t-108 460t-320 156t-320 -156t-108 -460zM432 1582q6 136 80 213t200 77t200 -77t80 -213h-102q-24 166 -180 166 q-158 0 -182 -166h-96z" />
<glyph unicode="&#x20f;" horiz-adv-x="1110" d="M114 534q0 274 114 417t328 143q212 0 326 -143t114 -417t-114 -417t-328 -143q-212 0 -326 143t-114 417zM264 534q0 -212 74 -321t216 -109q144 0 218 109t74 321t-74 321t-216 109q-144 0 -218 -109t-74 -321zM276 1242q6 136 80 213t200 77t200 -77t80 -213h-102 q-24 166 -180 166q-158 0 -182 -166h-96z" />
<glyph unicode="&#x210;" horiz-adv-x="1262" d="M196 0v1448h148h328q208 0 326 -117t118 -325q0 -172 -83 -284t-233 -146l382 -576h-182l-362 562h-294v-562h-148zM222 1828v24h166l182 -266v-24h-108zM344 696h328q142 0 215 78t73 232q0 152 -75 230t-221 78h-320v-618zM532 1828v24h166l184 -266v-24h-108z" />
<glyph unicode="&#x211;" horiz-adv-x="796" d="M140 1548v20h154l108 -318v-20h-96zM188 0v1068h134v-148q116 170 292 170q70 0 134 -26l-34 -142q-76 22 -140 22q-78 0 -137 -34t-105 -104v-806h-144zM422 1548v20h154l108 -318v-20h-96z" />
<glyph unicode="&#x212;" horiz-adv-x="1262" d="M196 0v1448h148h328q208 0 326 -117t118 -325q0 -172 -83 -284t-233 -146l382 -576h-182l-362 562h-294v-562h-148zM344 696h328q142 0 215 78t73 232q0 152 -75 230t-221 78h-320v-618zM352 1582q6 136 80 213t200 77t200 -77t80 -213h-102q-24 166 -180 166 q-158 0 -182 -166h-96z" />
<glyph unicode="&#x213;" horiz-adv-x="796" d="M182 1242q6 136 80 213t200 77t200 -77t80 -213h-102q-24 166 -180 166q-158 0 -182 -166h-96zM188 0v1068h134v-148q116 170 292 170q70 0 134 -26l-34 -142q-76 22 -140 22q-78 0 -137 -34t-105 -104v-806h-144z" />
<glyph unicode="&#x214;" horiz-adv-x="1368" d="M186 514v934h148v-934q0 -200 89 -303t261 -103t261 103t89 303v934h148v-934q0 -254 -132 -397t-368 -143q-234 0 -365 143t-131 397zM274 1828v24h166l182 -266v-24h-108zM584 1828v24h166l184 -266v-24h-108z" />
<glyph unicode="&#x215;" horiz-adv-x="1144" d="M174 312v756h144v-746q0 -102 56 -155t164 -53q84 0 150 30t124 96v828h144v-1068h-134v128q-118 -154 -322 -154q-154 0 -240 90t-86 248zM244 1548v20h154l108 -318v-20h-96zM526 1548v20h154l108 -318v-20h-96z" />
<glyph unicode="&#x216;" horiz-adv-x="1368" d="M186 514v934h148v-934q0 -200 89 -303t261 -103t261 103t89 303v934h148v-934q0 -254 -132 -397t-368 -143q-234 0 -365 143t-131 397zM404 1582q6 136 80 213t200 77t200 -77t80 -213h-102q-24 166 -180 166q-158 0 -182 -166h-96z" />
<glyph unicode="&#x217;" horiz-adv-x="1144" d="M174 312v756h144v-746q0 -102 56 -155t164 -53q84 0 150 30t124 96v828h144v-1068h-134v128q-118 -154 -322 -154q-154 0 -240 90t-86 248zM286 1242q6 136 80 213t200 77t200 -77t80 -213h-102q-24 166 -180 166q-158 0 -182 -166h-96z" />
<glyph unicode="&#x218;" horiz-adv-x="1120" d="M92 90l54 130q186 -108 388 -108q154 0 240 69t86 189q0 102 -57 165t-175 95l-164 46q-184 52 -271 148t-87 250q0 182 123 290t331 108q104 0 213 -23t199 -65l-52 -130q-204 82 -364 82q-140 0 -219 -65t-79 -177q0 -102 57 -165t175 -95l164 -46q184 -52 271 -148 t87 -250q0 -124 -59 -218t-167 -145t-252 -51q-118 0 -235 30t-207 84zM390 -476q52 58 73 111t21 133q0 30 -4 66h144q4 -36 4 -64q0 -90 -42 -161t-138 -147z" />
<glyph unicode="&#x219;" horiz-adv-x="926" d="M84 70l52 124q144 -88 304 -88q120 0 181 45t61 133q0 68 -38 108t-120 60l-142 34q-146 34 -215 106t-69 190q0 146 97 228t271 82q88 0 174 -21t154 -57l-58 -124q-140 72 -274 72q-108 0 -164 -43t-56 -125q0 -64 38 -103t120 -59l142 -34q146 -34 215 -108t69 -196 q0 -150 -102 -234t-284 -84q-98 0 -192 25t-164 69zM294 -476q52 58 73 111t21 133q0 30 -4 66h144q4 -36 4 -64q0 -90 -42 -161t-138 -147z" />
<glyph unicode="&#x21a;" horiz-adv-x="1052" d="M64 1312v136h536h388v-136h-388v-1312h-148v1312h-388zM364 -476q52 58 73 111t21 133q0 30 -4 66h144q4 -36 4 -64q0 -90 -42 -161t-138 -147z" />
<glyph unicode="&#x21b;" horiz-adv-x="764" d="M42 946v122h186v320h144v-320h322v-122h-322v-586q0 -126 49 -185t153 -59q54 0 110 18l24 -124q-68 -24 -156 -24q-160 0 -242 89t-82 265v606h-186zM284 -476q52 58 73 111t21 133q0 30 -4 66h144q4 -36 4 -64q0 -90 -42 -161t-138 -147z" />
<glyph unicode="&#x21c;" horiz-adv-x="988" d="M28 -84q220 32 371 82t242 140t91 232q0 122 -64 205t-178 131q-108 -58 -276 -118l-44 120q200 78 304 144t140 127t36 137q0 110 -73 166t-181 56q-94 0 -159 -19t-151 -61l-54 124q170 92 376 92q176 0 286 -87t110 -255q0 -108 -44 -192t-146 -158q122 -60 198 -167 t76 -245q0 -272 -221 -403t-615 -191z" />
<glyph unicode="&#x21d;" horiz-adv-x="910" d="M48 -300q294 44 455 133t161 265q0 210 -198 300q-96 -52 -248 -110l-40 116q180 68 270 128t118 114t28 126q0 98 -62 145t-166 47q-70 0 -129 -18t-135 -54l-44 122q140 80 314 80q162 0 266 -81t104 -231q0 -98 -40 -175t-134 -145q110 -52 178 -147t68 -217 q0 -242 -198 -362t-542 -172z" />
<glyph unicode="&#x21e;" horiz-adv-x="1400" d="M196 0v1448h148v-646h712v646h148v-1448h-148v668h-712v-668h-148zM384 1828v24h122l198 -188l196 188h116v-24l-234 -266h-164z" />
<glyph unicode="&#x21f;" horiz-adv-x="1164" d="M-56 1920v24h122l198 -188l196 188h116v-24l-234 -266h-164zM188 0v1540h144v-576q134 130 320 130q158 0 246 -89t88 -249v-756h-144v746q0 208 -228 208q-158 0 -282 -106v-848h-144z" />
<glyph unicode="&#x220;" horiz-adv-x="1362" d="M196 0v1448h144v-140q164 166 414 166q196 0 309 -119t113 -323v-1292h-148v1302q0 138 -80 214t-224 76q-108 0 -201 -35t-179 -107v-1190h-148z" />
<glyph unicode="&#x221;" horiz-adv-x="1148" d="M114 542q0 260 113 406t313 146q82 0 153 -32t123 -90v568h144v-1338v-200q48 14 102 14q116 0 180 -60t64 -166t-64 -166t-178 -60q-110 0 -174 56t-72 156l-42 -44l-126 -138l-86 82l132 142q62 64 122 112v194q-54 -74 -131 -112t-171 -38q-190 0 -296 150t-106 418z M264 542q0 -212 73 -320t215 -108q78 0 142 31t122 99v594q-52 58 -124 91t-152 33q-136 0 -206 -106t-70 -314zM960 -120v-70q0 -120 106 -120q100 0 100 104q0 106 -110 106q-42 0 -96 -20z" />
<glyph unicode="&#x222;" horiz-adv-x="1288" d="M110 390q0 126 67 219t189 141q-106 46 -165 133t-59 203q0 146 88 248t244 140l48 -118q-120 -42 -173 -106t-53 -158q0 -122 85 -200t263 -78t263 78t85 200q0 94 -53 158t-173 106l48 118q156 -38 244 -140t88 -248q0 -116 -59 -203t-165 -133q122 -48 189 -141 t67 -219q0 -196 -141 -306t-393 -110t-393 110t-141 306zM266 394q0 -128 94 -207t284 -79t284 79t94 207t-94 207t-284 79t-284 -79t-94 -207z" />
<glyph unicode="&#x223;" horiz-adv-x="1180" d="M114 412q0 134 65 234t183 150q-102 50 -158 145t-56 219q0 132 68 236t186 156l70 -112q-86 -42 -130 -113t-44 -167q0 -148 75 -224t217 -76t217 76t75 224q0 96 -44 167t-130 113l70 112q118 -52 186 -156t68 -236q0 -124 -56 -219t-158 -145q118 -50 183 -150 t65 -234q0 -208 -126 -323t-350 -115t-350 115t-126 323zM264 420q0 -156 83 -236t243 -80t243 80t83 236q0 152 -83 230t-243 78t-243 -78t-83 -230z" />
<glyph unicode="&#x224;" horiz-adv-x="1102" d="M92 0v134l738 1182h-714v132h882v-132l-738 -1184h486q140 0 219 -76t79 -212q0 -44 -6 -74h-140q6 44 6 76q0 76 -40 115t-120 39h-22h-630z" />
<glyph unicode="&#x225;" horiz-adv-x="918" d="M88 0v122l574 824h-558v122h724v-122l-574 -824h364q130 -8 203 -83t73 -205q0 -44 -6 -74h-140q6 44 6 76q0 164 -160 164h-506z" />
<glyph unicode="&#x226;" horiz-adv-x="1332" d="M64 0l518 1448h168l518 -1448h-162l-136 396h-610l-136 -396h-160zM404 528h520l-260 756zM562 1706q0 52 27 80t77 28t77 -28t27 -78q0 -52 -27 -80t-77 -28t-77 28t-27 78z" />
<glyph unicode="&#x227;" horiz-adv-x="1056" d="M90 296q0 190 158 281t490 93v74q0 104 -65 159t-189 55q-130 0 -252 -58l-38 122q142 72 306 72q172 0 277 -86t105 -252v-756h-134v130q-104 -152 -322 -152q-158 0 -247 84t-89 234zM236 306q0 -96 56 -146t166 -50q86 0 154 32t126 98v310q-258 -2 -380 -61 t-122 -183zM400 1366q0 52 27 80t77 28t77 -28t27 -78q0 -52 -27 -80t-77 -28t-77 28t-27 78z" />
<glyph unicode="&#x228;" horiz-adv-x="1148" d="M196 0v1448h836v-134h-688v-506h516v-136h-516v-538h712v-134h-370l-82 -124q28 4 40 4q98 0 152 -42t54 -118q0 -82 -61 -128t-169 -46q-110 0 -196 46l30 88q96 -38 166 -38q108 0 108 78t-100 78q-46 0 -88 -18l-42 48l74 172h-376z" />
<glyph unicode="&#x229;" horiz-adv-x="1076" d="M110 534q0 264 116 412t322 148q202 0 314 -136t112 -378q0 -48 -6 -84h-712q8 -190 93 -287t243 -97q150 0 276 84l56 -116q-60 -48 -148 -75t-184 -29l-66 -100q28 4 40 4q98 0 152 -42t54 -118q0 -82 -61 -128t-169 -46q-110 0 -196 46l30 88q96 -38 166 -38 q108 0 108 78t-100 78q-46 0 -88 -18l-42 48l68 156q-180 30 -279 174t-99 376zM260 618h568q-2 164 -77 255t-207 91q-128 0 -199 -87t-85 -259z" />
<glyph unicode="&#x22a;" horiz-adv-x="1424" d="M128 724q0 368 150 559t434 191t434 -191t150 -559t-150 -559t-434 -191t-434 191t-150 559zM284 724q0 -304 108 -460t320 -156t320 156t108 460t-108 460t-320 156t-320 -156t-108 -460zM420 1702q0 48 26 76t72 28q48 0 74 -27t26 -75q0 -50 -26 -77t-74 -27 q-46 0 -72 27t-26 75zM428 1926v116h568v-116h-568zM806 1702q0 48 26 76t72 28q48 0 74 -27t26 -75q0 -50 -26 -77t-74 -27q-46 0 -72 27t-26 75z" />
<glyph unicode="&#x22b;" horiz-adv-x="1110" d="M114 534q0 274 114 417t328 143q212 0 326 -143t114 -417t-114 -417t-328 -143q-212 0 -326 143t-114 417zM264 534q0 -212 74 -321t216 -109q144 0 218 109t74 321t-74 321t-216 109q-144 0 -218 -109t-74 -321zM272 1362q0 48 26 76t72 28q48 0 74 -27t26 -75 q0 -50 -26 -77t-74 -27q-46 0 -72 27t-26 75zM272 1574v116h568v-116h-568zM642 1362q0 48 26 76t72 28q48 0 74 -27t26 -75q0 -50 -26 -77t-74 -27q-46 0 -72 27t-26 75z" />
<glyph unicode="&#x22c;" horiz-adv-x="1424" d="M128 724q0 368 150 559t434 191t434 -191t150 -559t-150 -559t-434 -191t-434 191t-150 559zM284 724q0 -304 108 -460t320 -156t320 156t108 460t-108 460t-320 156t-320 -156t-108 -460zM420 1612q0 102 47 159t129 57q48 0 78 -16t70 -50q26 -24 45 -36t45 -12 q72 0 82 110h88q0 -102 -47 -159t-129 -57q-48 0 -78 16t-70 50q-26 24 -45 36t-45 12q-72 0 -82 -110h-88zM428 1932v116h568v-116h-568z" />
<glyph unicode="&#x22d;" horiz-adv-x="1110" d="M114 534q0 274 114 417t328 143q212 0 326 -143t114 -417t-114 -417t-328 -143q-212 0 -326 143t-114 417zM230 1244q4 116 52 183t134 67q52 0 92 -21t88 -59q36 -28 58 -41t46 -13q70 0 86 130h96q-4 -116 -52 -183t-134 -67q-52 0 -92 21t-88 59q-36 28 -58 41t-46 13 q-70 0 -86 -130h-96zM264 534q0 -212 74 -321t216 -109q144 0 218 109t74 321t-74 321t-216 109q-144 0 -218 -109t-74 -321zM272 1632v116h568v-116h-568z" />
<glyph unicode="&#x22e;" horiz-adv-x="1424" d="M128 724q0 368 150 559t434 191t434 -191t150 -559t-150 -559t-434 -191t-434 191t-150 559zM284 724q0 -304 108 -460t320 -156t320 156t108 460t-108 460t-320 156t-320 -156t-108 -460zM608 1706q0 52 27 80t77 28t77 -28t27 -78q0 -52 -27 -80t-77 -28t-77 28t-27 78 z" />
<glyph unicode="&#x22f;" horiz-adv-x="1110" d="M114 534q0 274 114 417t328 143q212 0 326 -143t114 -417t-114 -417t-328 -143q-212 0 -326 143t-114 417zM264 534q0 -212 74 -321t216 -109q144 0 218 109t74 321t-74 321t-216 109q-144 0 -218 -109t-74 -321zM452 1366q0 52 27 80t77 28t77 -28t27 -78q0 -52 -27 -80 t-77 -28t-77 28t-27 78z" />
<glyph unicode="&#x230;" horiz-adv-x="1424" d="M128 724q0 368 150 559t434 191t434 -191t150 -559t-150 -559t-434 -191t-434 191t-150 559zM284 724q0 -304 108 -460t320 -156t320 156t108 460t-108 460t-320 156t-320 -156t-108 -460zM428 1926v116h568v-116h-568zM608 1706q0 52 27 80t77 28t77 -28t27 -78 q0 -52 -27 -80t-77 -28t-77 28t-27 78z" />
<glyph unicode="&#x231;" horiz-adv-x="1110" d="M114 534q0 274 114 417t328 143q212 0 326 -143t114 -417t-114 -417t-328 -143q-212 0 -326 143t-114 417zM264 534q0 -212 74 -321t216 -109q144 0 218 109t74 321t-74 321t-216 109q-144 0 -218 -109t-74 -321zM272 1574v116h568v-116h-568zM452 1366q0 52 27 80t77 28 t77 -28t27 -78q0 -52 -27 -80t-77 -28t-77 28t-27 78z" />
<glyph unicode="&#x232;" horiz-adv-x="1172" d="M56 1448h166l366 -754l364 754h164l-458 -928v-520h-148v520zM300 1622v116h568v-116h-568z" />
<glyph unicode="&#x233;" horiz-adv-x="1030" d="M64 1068h158l296 -894l292 894h156l-380 -1084q-52 -144 -169 -251t-295 -171l-52 128q144 50 234 123t140 177zM234 1282v116h568v-116h-568z" />
<glyph unicode="&#x234;" horiz-adv-x="520" d="M-64 -322l132 142q60 66 120 110v1610h144v-1536q48 14 102 14q116 0 180 -60t64 -166t-64 -166t-178 -60q-110 0 -174 56t-72 156l-42 -44l-126 -138zM332 -118v-70q0 -120 106 -120q100 0 100 104q0 106 -110 106q-42 0 -96 -20z" />
<glyph unicode="&#x235;" horiz-adv-x="1364" d="M188 0v1068h134v-114q134 140 328 140q156 0 244 -90t88 -248v-344q48 14 100 14q116 0 180 -60t64 -166t-64 -166t-178 -60q-110 0 -174 56t-72 156l-42 -44l-126 -138l-86 82l132 142q62 64 122 112v406q0 102 -58 155t-168 53q-80 0 -148 -25t-132 -81v-848h-144z M980 220q0 -120 106 -120q100 0 100 104q0 106 -110 106q-42 0 -96 -20v-70z" />
<glyph unicode="&#x236;" horiz-adv-x="780" d="M-18 86l132 142q60 66 120 110v608h-186v122h186v320h144v-320h322v-122h-322v-534q48 14 102 14q116 0 180 -60t64 -166t-64 -166t-178 -60q-110 0 -174 56t-72 156l-42 -44l-126 -138zM378 220q0 -120 106 -120q100 0 100 104q0 106 -110 106q-42 0 -96 -20v-70z" />
<glyph unicode="&#x237;" horiz-adv-x="528" d="M-82 -318q108 38 166 83t83 112t25 175v1016h144v-1016q0 -144 -33 -232t-111 -149t-224 -111z" />
<glyph unicode="&#x238;" horiz-adv-x="1776" d="M114 542q0 260 113 406t313 146q82 0 153 -32t123 -90v568h144v-594q108 148 300 148q190 0 296 -150t106 -418q0 -260 -113 -406t-313 -146q-86 0 -160 35t-126 99v-108h-124v136q-54 -80 -133 -121t-177 -41q-190 0 -296 150t-106 418zM264 542q0 -212 73 -320 t215 -108q78 0 142 31t122 99v594q-52 58 -124 91t-152 33q-136 0 -206 -106t-70 -314zM960 230q52 -58 124 -91t152 -33q136 0 206 106t70 314q0 212 -73 320t-215 108q-78 0 -142 -31t-122 -99v-594z" />
<glyph unicode="&#x239;" horiz-adv-x="1776" d="M114 542q0 260 113 406t313 146q86 0 160 -35t126 -99v108h124v-136q54 80 133 121t177 41q190 0 296 -150t106 -418q0 -260 -113 -406t-313 -146q-82 0 -153 32t-123 90v-510h-144v536q-108 -148 -300 -148q-190 0 -296 150t-106 418zM264 542q0 -212 73 -320t215 -108 q78 0 142 31t122 99v594q-52 58 -124 91t-152 33q-136 0 -206 -106t-70 -314zM960 230q52 -58 124 -91t152 -33q136 0 206 106t70 314q0 212 -73 320t-215 108q-78 0 -142 -31t-122 -99v-594z" />
<glyph unicode="&#x23a;" horiz-adv-x="1332" d="M64 0l518 1448h168l84 -234l150 406h130l-216 -586l370 -1034h-162l-136 396h-308l-224 -610h-130l224 610h-172l-136 -396h-160zM404 528h178l176 480l-94 276zM712 528h212l-102 298z" />
<glyph unicode="&#x23b;" horiz-adv-x="1198" d="M108 696q0 232 78 409t220 273t330 96q60 0 108 -8l60 154h130l-70 -180q80 -26 138 -60l-56 -122q-58 28 -134 52l-436 -1120q110 -74 282 -74q178 0 300 70l56 -120q-62 -44 -160 -67t-208 -23q-188 0 -324 76l-104 -266h-130l132 336q-104 94 -158 239t-54 335z M264 710q0 -280 116 -432l412 1054q-40 4 -60 4q-220 0 -344 -165t-124 -461z" />
<glyph unicode="&#x23c;" horiz-adv-x="958" d="M106 538q0 166 58 292t163 195t243 69q44 0 82 -6l76 194h122l-86 -224q56 -18 108 -50l-56 -118q-42 22 -100 44l-300 -778q70 -44 176 -44q124 0 238 68l54 -116q-56 -42 -136 -65t-168 -23q-120 0 -216 46l-94 -242h-122l118 308q-78 70 -119 185t-41 265zM256 550 q0 -198 72 -306l274 714q-12 2 -36 2q-146 0 -228 -108t-82 -302z" />
<glyph unicode="&#x23d;" horiz-adv-x="1052" d="M58 668v130h136v650h148v-650h382v-130h-382v-532h650v-136h-798v668h-136z" />
<glyph unicode="&#x23e;" horiz-adv-x="1052" d="M64 1312v136h536h178l72 172h130l-74 -172h82v-136h-140l-248 -584v-728h-148v382l-254 -596h-130l384 892v634h-388zM600 986l138 326h-138v-326z" />
<glyph unicode="&#x23f;" horiz-adv-x="926" d="M84 70l52 124q144 -88 304 -88q120 0 181 45t61 133q0 68 -38 108t-120 60l-142 34q-146 34 -215 106t-69 190q0 146 97 228t271 82q88 0 174 -21t154 -57l-58 -124q-140 72 -274 72q-108 0 -164 -43t-56 -125q0 -64 38 -103t120 -59l142 -34q146 -34 215 -108t69 -196 q0 -150 -102 -234t-284 -84q-26 0 -78 4q28 -34 68 -92q62 -90 111 -133t125 -43q46 0 114 16l24 -110q-66 -32 -156 -32q-84 0 -140 29t-91 72t-81 121q-48 82 -90 136t-108 96z" />
<glyph unicode="&#x240;" horiz-adv-x="918" d="M88 0v122l574 824h-558v122h724v-122l-574 -824h10q96 0 159 -33t97 -79t74 -120q46 -90 90 -134t124 -44q46 0 114 16l24 -110q-66 -32 -156 -32q-88 0 -145 31t-91 76t-72 119q-34 64 -59 101t-67 62t-104 25h-164z" />
<glyph unicode="&#x241;" horiz-adv-x="1108" d="M114 1310q84 78 199 121t239 43q200 0 311 -112t111 -314q0 -192 -103 -335t-293 -213v-500h-148v602q188 44 283 154t95 280q0 144 -67 218t-197 74q-166 0 -346 -138z" />
<glyph unicode="&#x242;" horiz-adv-x="956" d="M106 1024q72 62 169 96t203 34q166 0 259 -84t93 -234q0 -140 -84 -245t-240 -163v-428h-142v518q310 80 310 308q0 94 -53 142t-153 48q-138 0 -284 -100z" />
<glyph unicode="&#x243;" horiz-adv-x="1288" d="M58 342v126h138v980h148h328q202 0 314 -104t112 -290q0 -236 -184 -290q132 -34 199 -123t67 -233q0 -192 -115 -300t-321 -108h-470h-78v342h-138zM344 134h408q134 0 203 70t69 204t-71 202t-209 68h-400v-210h322v-126h-322v-208zM344 810h328q134 0 203 62t69 182 q0 128 -71 194t-209 66h-320v-504z" />
<glyph unicode="&#x244;" horiz-adv-x="1368" d="M48 680v130h138v638h148v-638h700v638h148v-638h138v-130h-138v-166q0 -254 -132 -397t-368 -143q-234 0 -365 143t-131 397v166h-138zM334 514q0 -200 89 -303t261 -103t261 103t89 303v166h-700v-166z" />
<glyph unicode="&#x245;" horiz-adv-x="1260" d="M72 0l474 1448h168l474 -1448h-162l-398 1276l-396 -1276h-160z" />
<glyph unicode="&#x246;" horiz-adv-x="1148" d="M196 0v1448h572l56 172h130l-56 -172h134v-134h-178l-164 -506h170v-136h-214l-174 -538h584v-134h-628l-70 -214h-130l70 214h-102zM344 142l172 530h-172v-530zM344 808h216l164 506h-380v-506z" />
<glyph unicode="&#x247;" horiz-adv-x="1076" d="M110 534q0 264 116 412t322 148q78 0 148 -22l82 210h122l-102 -264q86 -64 131 -175t45 -263q0 -48 -6 -84h-372l-140 -362q62 -22 136 -22q150 0 276 84l56 -116q-62 -50 -151 -77t-189 -27q-96 0 -178 30l-86 -226h-122l108 278q-96 70 -146 191t-50 285zM256 496 q10 -204 104 -298l114 298h-218zM260 618h262l126 328q-44 18 -104 18q-128 0 -199 -87t-85 -259zM644 618h184q0 172 -84 262z" />
<glyph unicode="&#x248;" horiz-adv-x="944" d="M20 62l58 122q118 -74 248 -74q122 0 183 63t61 187v320h-240v130h240v638h148v-638h180v-130h-180v-320q0 -184 -103 -285t-289 -101q-92 0 -172 23t-134 65z" />
<glyph unicode="&#x249;" horiz-adv-x="608" d="M-42 -318q108 38 166 83t83 112t25 175v436h-172v118h172v462h144v-462h172v-118h-172v-436q0 -144 -33 -232t-111 -149t-224 -111zM200 1366q0 52 27 80t77 28t77 -28t27 -78q0 -52 -27 -80t-77 -28t-77 28t-27 78z" />
<glyph unicode="&#x24a;" horiz-adv-x="1356" d="M128 718q0 236 61 406t178 260t279 90q106 0 204 -44t162 -120v138h148v-1448v-130q0 -88 34 -130t104 -42q52 0 90 12l22 -128q-50 -18 -112 -18q-140 0 -213 78t-73 230v290q-66 -88 -168 -138t-222 -50q-154 0 -265 88t-170 256t-59 400zM284 732q0 -302 95 -458 t279 -156q206 0 354 170v886q-64 74 -164 119t-202 45q-178 0 -270 -154t-92 -452z" />
<glyph unicode="&#x24b;" horiz-adv-x="1144" d="M114 540q0 262 111 408t311 146q84 0 155 -32t121 -92v98h144v-1068v-140q0 -88 34 -130t106 -42q56 0 94 12l20 -118q-52 -18 -114 -18q-140 0 -212 76t-72 222v260q-112 -148 -300 -148t-293 150t-105 416zM264 540q0 -210 72 -318t212 -108q78 0 142 31t122 99v594 q-52 58 -124 91t-152 33q-134 0 -203 -107t-69 -315z" />
<glyph unicode="&#x24c;" horiz-adv-x="1302" d="M56 566v130h180v752h148h328q208 0 326 -117t118 -325q0 -172 -83 -284t-233 -146l382 -576h-182l-362 562h-294v-562h-148v566h-180zM384 696h328q142 0 215 78t73 232q0 152 -75 230t-221 78h-320v-618z" />
<glyph unicode="&#x24d;" horiz-adv-x="848" d="M68 488v118h172v462h134v-148q116 170 292 170q70 0 134 -26l-34 -142q-76 22 -140 22q-78 0 -137 -34t-105 -104v-200h370v-118h-370v-488h-144v488h-172z" />
<glyph unicode="&#x24e;" horiz-adv-x="1172" d="M56 1448h166l122 -254h486l122 254h164l-126 -254h120v-124h-180l-272 -550v-520h-148v520l-270 550h-180v124h120zM404 1070l184 -376l182 376h-366z" />
<glyph unicode="&#x24f;" horiz-adv-x="1052" d="M64 624v106h130l-120 338h158l112 -338h366l110 338h156l-118 -338h130v-106h-168l-224 -640q-52 -144 -169 -251t-295 -171l-52 128q144 50 234 123t140 177l-224 634h-166zM380 624l148 -450l146 450h-294z" />
<glyph unicode="&#x250;" horiz-adv-x="1056" d="M174 312v756h134v-130q104 152 322 152q158 0 247 -84t89 -234q0 -190 -158 -281t-490 -93v-74q0 -104 65 -159t189 -55q130 0 252 58l38 -122q-142 -72 -306 -72q-172 0 -277 86t-105 252zM318 518q258 2 380 61t122 183q0 96 -56 146t-166 50q-86 0 -154 -32t-126 -98 v-310z" />
<glyph unicode="&#x251;" horiz-adv-x="1144" d="M114 540q0 262 111 408t311 146q84 0 155 -32t121 -92v98h144v-1068h-134v136q-110 -162 -310 -162q-188 0 -293 150t-105 416zM264 540q0 -210 72 -318t212 -108q78 0 142 31t122 99v594q-52 58 -124 91t-152 33q-134 0 -203 -107t-69 -315z" />
<glyph unicode="&#x252;" horiz-adv-x="1144" d="M188 0v1068h134v-136q112 162 310 162q188 0 293 -150t105 -416q0 -262 -111 -408t-311 -146q-84 0 -155 32t-121 92v-98h-144zM332 230q52 -58 124 -91t152 -33q134 0 203 107t69 315q0 210 -72 318t-212 108q-78 0 -142 -31t-122 -99v-594z" />
<glyph unicode="&#x253;" horiz-adv-x="1148" d="M188 0v782v286v206q0 136 67 206t197 70q62 0 114 -18l-20 -116q-38 12 -94 12q-62 0 -91 -37t-29 -115v-330q108 148 300 148q190 0 296 -150t106 -418q0 -260 -113 -406t-313 -146q-86 0 -160 35t-126 99v-108h-134zM332 230q52 -58 124 -91t152 -33q136 0 206 106 t70 314q0 212 -73 320t-215 108q-78 0 -142 -31t-122 -99v-594z" />
<glyph unicode="&#x254;" horiz-adv-x="958" d="M74 1004q56 42 136 65t168 23q224 0 349 -148t125 -414q0 -166 -58 -292t-163 -195t-243 -69q-76 0 -156 23t-146 63l56 118q130 -70 250 -70q146 0 228 108t82 302q0 216 -85 327t-251 111q-124 0 -238 -68z" />
<glyph unicode="&#x255;" horiz-adv-x="984" d="M106 538q0 166 58 292t163 195t243 69q76 0 156 -23t146 -63l-56 -118q-130 70 -250 70q-146 0 -228 -108t-82 -302q0 -202 72 -310l28 42q82 124 166 182t182 58q106 0 166 -64t60 -178q0 -144 -92 -224t-258 -80q-134 0 -240 62l-114 -174l-100 66l120 186 q-68 74 -104 182t-36 240zM414 154q76 -46 178 -46q100 0 152 42t52 122q0 122 -106 122q-60 0 -117 -43t-117 -135z" />
<glyph unicode="&#x256;" horiz-adv-x="1148" d="M114 542q0 260 113 406t313 146q82 0 153 -32t123 -90v568h144v-1202v-338v-156q0 -78 29 -115t91 -37q56 0 94 12l20 -116q-50 -18 -114 -18q-130 0 -197 70t-67 206v276q-108 -148 -300 -148q-190 0 -296 150t-106 418zM264 542q0 -212 73 -320t215 -108q78 0 142 31 t122 99v594q-52 58 -124 91t-152 33q-136 0 -206 -106t-70 -314z" />
<glyph unicode="&#x257;" horiz-adv-x="1148" d="M114 542q0 260 113 406t313 146q82 0 153 -32t123 -90v302q0 136 67 206t197 70q64 0 114 -18l-20 -116q-38 12 -94 12q-62 0 -91 -37t-29 -115v-334v-860v-82h-134v136q-54 -80 -133 -121t-177 -41q-190 0 -296 150t-106 418zM264 542q0 -212 73 -320t215 -108 q78 0 142 31t122 99v594q-52 58 -124 91t-152 33q-136 0 -206 -106t-70 -314z" />
<glyph unicode="&#x258;" horiz-adv-x="1076" d="M102 580q0 242 112 378t314 136q206 0 322 -148t116 -412q0 -262 -125 -410t-349 -148q-100 0 -189 27t-151 77l56 116q126 -84 276 -84q158 0 243 97t93 287h-712q-6 36 -6 84zM248 618h568q-14 172 -85 259t-199 87q-132 0 -207 -91t-77 -255z" />
<glyph unicode="&#x259;" horiz-adv-x="1076" d="M102 488q0 48 6 84h712q-8 190 -93 287t-243 97q-150 0 -276 -84l-56 116q62 50 151 77t189 27q224 0 349 -148t125 -410q0 -264 -116 -412t-322 -148q-202 0 -314 136t-112 378zM248 450q2 -164 77 -255t207 -91q128 0 199 87t85 259h-568z" />
<glyph unicode="&#x25a;" horiz-adv-x="1366" d="M102 468q0 34 4 62l704 130q-22 146 -105 221t-221 75q-150 0 -276 -84l-56 116q62 50 151 77t189 27q186 0 307 -106t155 -298l240 42l-8 -56q-6 -44 -6 -76q0 -82 42 -125t122 -43h22l-22 -118q-134 0 -213 70t-87 196l-78 -16v-28q0 -264 -116 -412t-322 -148 q-200 0 -313 131t-113 363zM248 432q0 -154 75 -241t209 -87q142 0 215 109t73 321v4z" />
<glyph unicode="&#x25b;" horiz-adv-x="902" d="M96 302q0 202 208 264q-82 34 -125 93t-43 149q0 142 106 214t264 72q84 0 163 -19t139 -51l-40 -120q-66 28 -125 44t-127 16q-104 0 -169 -41t-65 -137q0 -88 65 -133t167 -45h162v-122h-164q-266 0 -266 -176q0 -204 284 -204q70 0 143 18t129 46l52 -116 q-66 -38 -157 -58t-185 -20q-194 0 -305 84t-111 242z" />
<glyph unicode="&#x25c;" horiz-adv-x="902" d="M48 50l52 116q54 -28 124 -44t136 -16q146 0 221 51t75 153q0 176 -266 176h-164v122h162q102 0 167 45t65 133q0 96 -67 138t-173 42t-246 -60l-40 120q58 30 141 50t161 20q164 0 267 -72t103 -216q0 -90 -43 -149t-125 -93q208 -62 208 -264q0 -158 -118 -242 t-310 -84q-92 0 -178 18t-152 56z" />
<glyph unicode="&#x25d;" horiz-adv-x="1194" d="M48 50l52 116q54 -28 124 -44t136 -16q146 0 221 51t75 153q0 176 -266 176h-164v122h162q102 0 167 45t65 133q0 96 -67 138t-173 42t-246 -60l-40 120q58 30 141 50t161 20q132 0 226 -47t128 -141l272 46l-8 -56q-6 -44 -6 -76q0 -82 42 -125t122 -43h22l-22 -118 q-134 0 -213 70t-87 196l-108 -20q-12 -152 -166 -216q208 -62 208 -264q0 -158 -118 -242t-310 -84q-92 0 -178 18t-152 56z" />
<glyph unicode="&#x25e;" horiz-adv-x="1070" d="M114 534q0 278 114 420t338 142q162 0 265 -73t103 -215q0 -90 -43 -149t-125 -93q208 -62 208 -264q0 -156 -117 -241t-299 -85q-218 0 -331 142t-113 416zM264 534q0 -220 69 -324t217 -104q124 0 199 53t75 151q0 176 -266 176h-124v122h122q102 0 167 45t65 133 q0 96 -68 138t-166 42q-148 0 -219 -105t-71 -327z" />
<glyph unicode="&#x25f;" horiz-adv-x="608" d="M-42 -318q108 38 166 83t83 112t25 175v436h-172v118h172v462h144v-462h172v-118h-172v-436q0 -144 -33 -232t-111 -149t-224 -111z" />
<glyph unicode="&#x260;" horiz-adv-x="1154" d="M114 572q0 246 114 384t316 138q82 0 153 -32t123 -90v302q0 136 67 206t197 70q64 0 114 -18l-20 -116q-38 12 -94 12q-62 0 -91 -37t-29 -115v-208h2v-1076q0 -204 -122 -318t-340 -114q-80 0 -157 16t-131 44l44 130q112 -56 244 -56q156 0 237 76t81 222v190 q-108 -148 -302 -148q-190 0 -298 142t-108 396zM264 572q0 -196 74 -297t220 -101q78 0 142 31t122 99v430h-2v106q-54 58 -126 90t-150 32q-138 0 -209 -98t-71 -292z" />
<glyph unicode="&#x261;" horiz-adv-x="1154" d="M114 572q0 246 114 384t316 138q88 0 162 -36t126 -102v112h134v-1076q0 -204 -122 -318t-340 -114q-80 0 -157 16t-131 44l44 130q112 -56 244 -56q156 0 237 76t81 222v190q-108 -148 -302 -148q-190 0 -298 142t-108 396zM264 572q0 -196 74 -297t220 -101 q78 0 142 31t122 99v534q-54 60 -126 92t-152 32q-138 0 -209 -98t-71 -292z" />
<glyph unicode="&#x262;" horiz-adv-x="1144" d="M120 534q0 262 141 407t395 145q90 0 173 -20t143 -54l-44 -118q-136 62 -276 62q-188 0 -285 -107t-97 -315q0 -210 98 -317t288 -107q96 0 196 26v312h-216v130h360v-520q-64 -36 -154 -57t-186 -21q-254 0 -395 146t-141 408z" />
<glyph unicode="&#x263;" horiz-adv-x="1038" d="M64 1068h158l300 -712l296 712h156l-382 -880l88 -206q54 -126 54 -212q0 -100 -56 -155t-156 -55q-98 0 -154 55t-56 153q0 88 54 214l84 200zM440 -230q0 -90 82 -90q78 0 78 88q0 66 -54 192l-26 60l-26 -60q-54 -126 -54 -190z" />
<glyph unicode="&#x264;" horiz-adv-x="1064" d="M-36 978q52 60 105 88t115 28q78 0 133 -45t117 -159l100 -184l100 184q62 114 116 159t130 45q62 0 115 -28t105 -88l-86 -98q-50 46 -79 63t-55 17q-34 0 -63 -29t-73 -109l-138 -248l84 -154q38 -70 55 -123t17 -105q0 -104 -60 -161t-168 -57q-106 0 -166 57t-60 159 q0 52 17 106t55 124l80 148l-142 254q-46 80 -74 109t-60 29q-28 0 -59 -17t-79 -61zM436 192q0 -98 98 -98q94 0 94 96q0 78 -60 184l-36 64l-36 -64q-60 -106 -60 -182z" />
<glyph unicode="&#x265;" horiz-adv-x="1144" d="M174 312v756h144v-746q0 -102 56 -155t164 -53q84 0 150 30t124 96v828h144v-1482h-144v530q-114 -142 -312 -142q-154 0 -240 90t-86 248z" />
<glyph unicode="&#x266;" horiz-adv-x="1164" d="M188 0v1180v94q0 136 67 206t197 70q62 0 114 -18l-20 -116q-38 12 -94 12q-62 0 -91 -37t-29 -115v-312q134 130 320 130q158 0 246 -89t88 -249v-756h-144v746q0 208 -228 208q-158 0 -282 -106v-848h-144z" />
<glyph unicode="&#x267;" horiz-adv-x="1164" d="M188 0v1180v94q0 136 67 206t197 70q62 0 114 -18l-20 -116q-38 12 -94 12q-62 0 -91 -37t-29 -115v-312q134 130 320 130q158 0 246 -89t88 -249v-756v-114q0 -154 -78 -240t-216 -86q-64 0 -124 18t-100 50l50 114q94 -54 174 -54q74 0 112 50t38 148v348v512 q0 208 -228 208q-158 0 -282 -106v-848h-144z" />
<glyph unicode="&#x268;" horiz-adv-x="608" d="M60 488v118h172v462h144v-462h172v-118h-172v-488h-144v488h-172zM200 1366q0 52 27 80t77 28t77 -28t27 -78q0 -52 -27 -80t-77 -28t-77 28t-27 78z" />
<glyph unicode="&#x269;" horiz-adv-x="740" d="M184 340v728h144v-708q0 -126 49 -185t153 -59q54 0 110 18l24 -124q-68 -24 -156 -24q-160 0 -242 89t-82 265z" />
<glyph unicode="&#x26a;" horiz-adv-x="528" d="M192 0v1068h144v-1068h-144z" />
<glyph unicode="&#x26b;" horiz-adv-x="766" d="M40 694q4 116 52 183t134 67q26 0 48 -6v602h144v-686q30 -22 50 -33t42 -11q70 0 86 130h96q-4 -116 -52 -183t-134 -67q-44 0 -88 20v-486q0 -56 26 -81t84 -25q34 0 80 8l14 -122q-60 -16 -124 -16q-224 0 -224 230v590q-28 16 -52 16q-70 0 -86 -130h-96z" />
<glyph unicode="&#x26c;" horiz-adv-x="860" d="M34 774q0 116 67 182t185 66q46 0 86 -14v532h144v-846l26 10l222 80l40 -112l-220 -80l-68 -24v-344q0 -56 26 -81t84 -25q34 0 80 8l14 -122q-60 -16 -124 -16q-224 0 -224 230v314q-40 -8 -80 -8q-122 0 -190 66t-68 184zM172 772q0 -58 31 -89t89 -31q38 0 80 6v224 q-40 10 -82 10q-118 0 -118 -120z" />
<glyph unicode="&#x26d;" horiz-adv-x="520" d="M188 -206v1322v424h144v-1540v-200q0 -56 26 -81t84 -25q34 0 80 8l14 -122q-60 -16 -124 -16q-224 0 -224 230z" />
<glyph unicode="&#x26e;" horiz-adv-x="1228" d="M188 0v1540h144v-472h726v-126l-402 -516q222 -14 349 -115t127 -299q0 -224 -134 -338t-350 -114q-100 0 -197 19t-169 61l52 116q82 -36 151 -51t151 -15q166 0 256 83t90 235q0 158 -108 228t-290 70h-86v122l392 516h-558v-944h-144z" />
<glyph unicode="&#x26f;" horiz-adv-x="1762" d="M174 312v756h144v-746q0 -102 54 -155t158 -53q146 0 278 112q-8 34 -8 86v756h144v-746q0 -102 55 -155t159 -53q76 0 142 26t130 80v848h144v-1068h-134v114q-134 -140 -320 -140q-102 0 -176 43t-110 121q-142 -164 -342 -164q-150 0 -234 89t-84 249z" />
<glyph unicode="&#x270;" horiz-adv-x="1762" d="M174 312v756h144v-746q0 -102 54 -155t158 -53q146 0 278 112q-8 34 -8 86v756h144v-746q0 -102 55 -155t159 -53q76 0 142 26t130 80v848h144v-1482h-144v518q-130 -130 -310 -130q-102 0 -176 43t-110 121q-142 -164 -342 -164q-150 0 -234 89t-84 249z" />
<glyph unicode="&#x271;" horiz-adv-x="1766" d="M188 0v1068h134v-114q134 140 320 140q102 0 176 -43t110 -121q142 164 342 164q150 0 234 -89t84 -249v-756v-138q0 -146 -72 -222t-212 -76q-62 0 -114 18l20 118q40 -12 94 -12q72 0 106 42t34 130v512v374q0 102 -54 155t-158 53q-146 0 -278 -112q8 -34 8 -86v-756 h-144v746q0 102 -55 155t-159 53q-76 0 -142 -26t-130 -80v-848h-144z" />
<glyph unicode="&#x272;" horiz-adv-x="1160" d="M-66 -418l20 118q40 -12 94 -12q72 0 106 42t34 130v512v696h134v-114q134 140 328 140q156 0 244 -90t88 -248v-756h-144v746q0 102 -58 155t-168 53q-80 0 -148 -25t-132 -81v-848v-138q0 -146 -72 -222t-212 -76q-64 0 -114 18z" />
<glyph unicode="&#x273;" horiz-adv-x="1160" d="M188 0v1068h134v-114q134 140 328 140q156 0 244 -90t88 -248v-756v-142q0 -88 34 -130t106 -42q56 0 94 12l20 -116q-50 -18 -114 -18q-140 0 -212 75t-72 221v472v414q0 102 -58 155t-168 53q-80 0 -148 -25t-132 -81v-848h-144z" />
<glyph unicode="&#x274;" horiz-adv-x="1254" d="M188 0v1068h136l602 -824v824h140v-1068h-136l-602 824v-824h-140z" />
<glyph unicode="&#x275;" horiz-adv-x="1110" d="M114 534q0 274 114 417t328 143q212 0 326 -143t114 -417t-114 -417t-328 -143q-212 0 -326 143t-114 417zM260 488q18 -388 294 -388q138 0 212 98t84 290h-590zM262 606h586q-12 178 -86 270t-206 92t-207 -92t-87 -270z" />
<glyph unicode="&#x276;" horiz-adv-x="1610" d="M120 534q0 262 125 398t361 136h288h612v-130h-532v-328h392v-130h-392v-350h552v-130h-692h-228q-236 0 -361 135t-125 399zM270 534q0 -200 85 -302t251 -102h228v808h-228q-166 0 -251 -102t-85 -302z" />
<glyph unicode="&#x277;" horiz-adv-x="1520" d="M134 450q0 304 165 474t461 170t461 -170t165 -474q0 -224 -92 -350t-258 -126q-214 0 -276 218q-32 -114 -104 -166t-170 -52q-166 0 -259 125t-93 351zM284 446q0 -168 51 -255t151 -87q104 0 153 74t49 194v142h144v-140q0 -138 55 -204t147 -66q100 0 151 87t51 255 q0 254 -121 386t-355 132t-355 -132t-121 -386z" />
<glyph unicode="&#x278;" horiz-adv-x="1152" d="M114 534q0 252 102 393t292 163v392h136v-392q190 -20 292 -161t102 -395q0 -252 -102 -393t-292 -163v-392h-136v392q-190 20 -292 161t-102 395zM260 534q0 -382 248 -428v856q-122 -24 -185 -132t-63 -296zM644 106q122 24 185 132t63 296q0 382 -248 428v-856z" />
<glyph unicode="&#x279;" horiz-adv-x="796" d="M48 4l34 142q76 -22 140 -22q78 0 137 34t105 104v806h144v-1068h-134v148q-116 -170 -292 -170q-70 0 -134 26z" />
<glyph unicode="&#x27a;" horiz-adv-x="796" d="M48 4l34 142q76 -22 140 -22q78 0 137 34t105 104v806v472h144v-882v-658h-134v148q-116 -170 -292 -170q-70 0 -134 26z" />
<glyph unicode="&#x27b;" horiz-adv-x="796" d="M48 4l34 142q76 -22 140 -22q78 0 137 34t105 104v806h144v-1068v-140q0 -88 34 -130t106 -42q56 0 94 12l20 -118q-50 -18 -114 -18q-140 0 -212 76t-72 222v272q-116 -156 -282 -156q-70 0 -134 26z" />
<glyph unicode="&#x27c;" horiz-adv-x="796" d="M188 322v746h134v-148q116 170 292 170q70 0 134 -26l-34 -142q-76 22 -140 22q-78 0 -137 -34t-105 -104v-806v-414h-144v736z" />
<glyph unicode="&#x27d;" horiz-adv-x="796" d="M188 -138v510v696h134v-148q116 170 292 170q70 0 134 -26l-34 -142q-76 22 -140 22q-78 0 -137 -34t-105 -104v-946q0 -88 34 -130t106 -42q56 0 94 12l20 -118q-50 -18 -114 -18q-140 0 -212 76t-72 222z" />
<glyph unicode="&#x27e;" horiz-adv-x="654" d="M188 0v524v258q0 146 72 221t212 75q62 0 114 -18l-20 -116q-38 12 -94 12q-72 0 -106 -42t-34 -130v-508v-276h-144z" />
<glyph unicode="&#x27f;" horiz-adv-x="654" d="M68 1060q50 18 114 18q140 0 212 -75t72 -221v-506v-276h-144v524v260q0 88 -34 130t-106 42q-54 0 -94 -12z" />
<glyph unicode="&#x280;" horiz-adv-x="1088" d="M188 0v1068h144h254q176 0 273 -88t97 -246q0 -128 -65 -211t-185 -111l310 -412h-176l-286 398h-222v-398h-144zM332 524h254q220 0 220 208q0 102 -58 155t-168 53h-248v-416z" />
<glyph unicode="&#x281;" horiz-adv-x="1088" d="M188 0v1068h144v-398h222l286 398h176l-310 -412q120 -28 185 -111t65 -211q0 -158 -97 -246t-273 -88h-304h-94zM332 128h248q110 0 168 53t58 155q0 208 -220 208h-254v-416z" />
<glyph unicode="&#x282;" horiz-adv-x="926" d="M84 70l52 124q144 -88 304 -88q120 0 181 45t61 133q0 68 -38 108t-120 60l-142 34q-146 34 -215 106t-69 190q0 146 97 228t271 82q88 0 174 -21t154 -57l-58 -124q-140 72 -274 72q-108 0 -164 -43t-56 -125q0 -64 38 -103t120 -59l142 -34q146 -34 215 -108t69 -196 q0 -150 -102 -234t-284 -84q-116 0 -224 34v-152q0 -172 146 -172q64 0 100 14l20 -118q-50 -18 -120 -18q-136 0 -207 75t-71 221v210z" />
<glyph unicode="&#x283;" horiz-adv-x="560" d="M-110 -296q60 -8 102 -8q96 0 146 55t50 161v202v1074v16q0 164 90 255t250 91q62 0 102 -10v-128q-60 8 -102 8q-96 0 -146 -55t-50 -161v-36v-1168v-88q0 -164 -90 -255t-250 -91q-62 0 -102 10v128z" />
<glyph unicode="&#x284;" horiz-adv-x="604" d="M-42 -318q108 38 166 83t83 112t25 175v436h-172v118h172v462v136q0 164 90 255t250 91q62 0 102 -10v-128q-60 8 -102 8q-96 0 -146 -55t-50 -161v-236v-362h172v-118h-172v-436q0 -144 -33 -232t-111 -149t-224 -111z" />
<glyph unicode="&#x285;" horiz-adv-x="622" d="M-8 954v128q40 10 102 10q160 0 250 -91t90 -255v-132v-614v-88q0 -106 50 -161t146 -55q42 0 102 8v-128q-40 -10 -102 -10q-160 0 -250 91t-90 255v148v618v68q0 106 -50 161t-146 55q-42 0 -102 -8z" />
<glyph unicode="&#x286;" horiz-adv-x="692" d="M-82 -186q0 118 68 184t190 66q38 0 70 -9t74 -29v1142v36q0 164 90 255t250 91q62 0 102 -10v-128q-60 8 -102 8q-96 0 -146 -55t-50 -161v-36v-1232l288 -190l-68 -94l-230 152q-24 -114 -97 -176t-187 -62q-118 0 -185 66t-67 182zM56 -184q0 -120 118 -120 q70 0 107 48t39 146q-82 46 -144 46q-58 0 -89 -31t-31 -89z" />
<glyph unicode="&#x287;" horiz-adv-x="764" d="M56 1378q70 24 156 24q160 0 242 -89t82 -265v-606h186v-122h-186v-320h-144v320h-322v122h322v586q0 126 -49 185t-153 59q-52 0 -110 -18z" />
<glyph unicode="&#x288;" horiz-adv-x="750" d="M42 946v122h186v320h144v-320h322v-122h-322v-1088q0 -88 34 -130t106 -42q54 0 94 12l20 -116q-50 -18 -114 -18q-140 0 -212 75t-72 221v472v614h-186z" />
<glyph unicode="&#x289;" horiz-adv-x="1208" d="M42 488v118h164v462h144v-462h494v462h144v-462h164v-118h-164v-488h-134v128q-118 -154 -322 -154q-154 0 -240 90t-86 248v176h-164zM350 322q0 -102 56 -155t164 -53q84 0 150 30t124 96v248h-494v-166z" />
<glyph unicode="&#x28a;" horiz-adv-x="1130" d="M114 946v122h378v-126q-110 -88 -161 -202t-51 -266q0 -182 72 -276t214 -94q140 0 212 94t72 276q0 154 -51 267t-161 201v126h378v-122h-204q188 -184 188 -478q0 -232 -115 -362t-319 -130q-206 0 -321 130t-115 362q0 294 188 478h-204z" />
<glyph unicode="&#x28b;" horiz-adv-x="1110" d="M174 352v716h144v-676q0 -142 58 -215t170 -73q136 0 201 110t65 344v104q0 142 -39 216t-113 74q-40 0 -74 -8l-14 122q18 8 50 12t58 4q140 0 211 -105t71 -307v-112q0 -288 -107 -436t-315 -148q-172 0 -269 100t-97 278z" />
<glyph unicode="&#x28c;" horiz-adv-x="1038" d="M64 0l374 1068h160l376 -1068h-158l-300 908l-296 -908h-156z" />
<glyph unicode="&#x28d;" horiz-adv-x="1558" d="M68 0l318 1068h160l234 -856l234 856h160l316 -1068h-156l-242 908l-238 -908h-152l-240 908l-240 -908h-154z" />
<glyph unicode="&#x28e;" horiz-adv-x="1030" d="M64 0l380 1084q52 144 169 251t295 171l52 -128q-144 -50 -234 -123t-140 -177l380 -1078h-158l-296 894l-292 -894h-156z" />
<glyph unicode="&#x28f;" horiz-adv-x="978" d="M48 1068h158l284 -544l284 544h156l-370 -696v-372h-144v372z" />
<glyph unicode="&#x290;" horiz-adv-x="926" d="M88 0v122l574 824h-558v122h724v-122l-574 -824h582v-122v-158q0 -78 31 -116t97 -38q56 0 102 14l20 -118q-52 -18 -122 -18q-126 0 -191 70t-65 208v156h-620z" />
<glyph unicode="&#x291;" horiz-adv-x="1078" d="M88 0v122l574 824h-558v122h724v-122l-574 -824h226l78 142q122 218 306 218q96 0 150 -56t54 -154q0 -128 -90 -200t-248 -72h-184l-108 -194l-104 54l78 140h-324zM614 122h118q100 0 152 35t52 103q0 94 -92 94q-102 0 -182 -144z" />
<glyph unicode="&#x292;" horiz-adv-x="1006" d="M60 -360l52 116q82 -36 151 -51t151 -15q166 0 256 83t90 235q0 158 -108 228t-290 70h-86v122l392 516h-576v124h744v-126l-402 -516q222 -14 349 -115t127 -299q0 -224 -134 -338t-350 -114q-100 0 -197 19t-169 61z" />
<glyph unicode="&#x293;" horiz-adv-x="1052" d="M60 -138q0 116 68 180t190 64q106 0 188 -55t166 -185l56 -84q78 78 78 226q0 158 -108 228t-290 70h-86v122l392 516h-576v124h744v-126l-402 -516q222 -14 349 -115t127 -299q0 -114 -39 -203t-113 -147l98 -148l-100 -66l-100 154q-106 -42 -242 -42q-188 0 -294 80 t-106 222zM192 -142q0 -82 66 -125t194 -43q100 0 174 28l-54 82q-60 92 -122 135t-132 43q-62 0 -94 -31t-32 -89z" />
<glyph unicode="&#x294;" horiz-adv-x="1108" d="M114 1402q84 78 199 121t239 43q200 0 311 -112t111 -314q0 -192 -105 -336t-295 -214v-590h-144v694q188 46 284 155t96 279q0 144 -68 218t-198 74q-166 0 -346 -138z" />
<glyph unicode="&#x295;" horiz-adv-x="1112" d="M134 1116q0 212 119 331t331 119q252 0 414 -168l-92 -116q-72 70 -151 104t-171 34q-142 0 -214 -74t-72 -220q0 -168 96 -278t284 -154v-694h-144v576q-190 60 -295 201t-105 339z" />
<glyph unicode="&#x296;" horiz-adv-x="1112" d="M114 142l92 116q72 -70 151 -104t171 -34q142 0 214 74t72 220q0 168 -96 278t-284 154v694h144v-576q190 -60 295 -201t105 -339q0 -212 -119 -331t-331 -119q-252 0 -414 168z" />
<glyph unicode="&#x297;" horiz-adv-x="992" d="M106 330q0 238 58 410t166 263t260 91q80 0 163 -25t153 -71l-62 -118q-132 78 -258 78q-162 0 -246 -157t-84 -459q0 -332 86 -488t270 -156q136 0 246 76l60 -114q-58 -46 -143 -73t-175 -27q-244 0 -369 195t-125 575z" />
<glyph unicode="&#x298;" horiz-adv-x="1704" d="M128 762q0 246 87 423t250 271t387 94t387 -94t250 -271t87 -423t-87 -423t-250 -271t-387 -94t-387 94t-250 271t-87 423zM284 762q0 -310 150 -482t418 -172t418 172t150 482t-150 482t-418 172t-418 -172t-150 -482zM742 766q0 52 29 82t81 30t81 -29t29 -81 q0 -54 -29 -84t-81 -30t-81 30t-29 82z" />
<glyph unicode="&#x299;" horiz-adv-x="1110" d="M188 0v1068h144h256q168 0 261 -78t93 -218q0 -160 -144 -210q212 -52 212 -254q0 -146 -96 -227t-268 -81h-382h-76zM332 128h322q100 0 153 46t53 132q0 88 -54 133t-160 45h-314v-356zM332 610h256q100 0 153 40t53 120q0 168 -214 168h-248v-328z" />
<glyph unicode="&#x29a;" horiz-adv-x="1070" d="M96 302q0 202 208 264q-82 34 -125 93t-43 149q0 142 106 215t266 73q220 0 334 -142t114 -420q0 -274 -116 -416t-340 -142q-182 0 -293 84t-111 242zM246 310q0 -100 70 -152t192 -52q154 0 226 104t72 324q0 222 -72 327t-224 105q-98 0 -163 -42t-65 -138 q0 -88 65 -133t167 -45h122v-122h-124q-266 0 -266 -176z" />
<glyph unicode="&#x29b;" horiz-adv-x="1320" d="M120 534q0 262 141 407t395 145q100 0 194 -26q10 128 85 199t203 71q44 0 74 -6v-126q-46 6 -76 6q-80 0 -122 -44t-42 -130v-22v-114h-44q-136 62 -276 62q-188 0 -285 -107t-97 -315q0 -210 98 -317t288 -107q96 0 196 26v312h-216v130h360v-520q-64 -36 -154 -57 t-186 -21q-254 0 -395 146t-141 408z" />
<glyph unicode="&#x29c;" horiz-adv-x="1218" d="M188 0v1068h144v-462h554v462h144v-1068h-144v478h-554v-478h-144z" />
<glyph unicode="&#x29d;" horiz-adv-x="656" d="M-82 -186q0 118 68 184t190 66q76 0 144 -34v1038h144v-1068v-74l254 -218l-78 -86l-190 162q-28 -106 -100 -162t-180 -56q-118 0 -185 66t-67 182zM56 -184q0 -120 118 -120q70 0 107 48t39 146q-36 24 -70 35t-74 11q-58 0 -89 -31t-31 -89zM288 1366q0 52 27 80 t77 28t77 -28t27 -78q0 -52 -27 -80t-77 -28t-77 28t-27 78z" />
<glyph unicode="&#x29e;" horiz-adv-x="1070" d="M56 1068h178l348 -506l156 172v334h144v-1482h-144v970l-482 -556h-178l404 450z" />
<glyph unicode="&#x29f;" horiz-adv-x="912" d="M188 0v1068h144v-938h528v-130h-672z" />
<glyph unicode="&#x2a0;" horiz-adv-x="1148" d="M114 542q0 260 113 406t313 146q82 0 153 -32t123 -90v302q0 136 67 206t197 70q64 0 114 -18l-20 -116q-38 12 -94 12q-62 0 -91 -37t-29 -115v-334v-860v-496h-144v536q-108 -148 -300 -148q-190 0 -296 150t-106 418zM264 542q0 -212 73 -320t215 -108q78 0 142 31 t122 99v594q-52 58 -124 91t-152 33q-136 0 -206 -106t-70 -314z" />
<glyph unicode="&#x2a1;" horiz-adv-x="1108" d="M114 1402q84 78 199 121t239 43q200 0 311 -112t111 -314q0 -192 -105 -336t-295 -214v-160h216v-130h-216v-300h-144v300h-208v130h208v264q188 46 284 155t96 279q0 144 -68 218t-198 74q-166 0 -346 -138z" />
<glyph unicode="&#x2a2;" horiz-adv-x="1112" d="M134 1116q0 212 119 331t331 119q252 0 414 -168l-92 -116q-72 70 -151 104t-171 34q-142 0 -214 -74t-72 -220q0 -168 96 -278t284 -154v-264h208v-130h-208v-300h-144v300h-216v130h216v146q-190 60 -295 201t-105 339z" />
<glyph unicode="&#x2a3;" horiz-adv-x="1796" d="M114 542q0 260 113 406t313 146q82 0 153 -32t123 -90v568h144v-472h112h626v-122l-574 -824h582v-122h-748h-132v136q-54 -80 -133 -121t-177 -41q-190 0 -296 150t-106 418zM264 542q0 -212 73 -320t215 -108q78 0 142 31t122 99v594q-52 58 -124 91t-152 33 q-136 0 -206 -106t-70 -314zM960 124l572 822h-572v-822z" />
<glyph unicode="&#x2a4;" horiz-adv-x="1876" d="M114 542q0 260 113 406t313 146q82 0 153 -32t123 -90v568h144v-472h112h634v-126l-402 -516q222 -14 349 -115t127 -299q0 -224 -134 -338t-350 -114q-100 0 -197 19t-169 61l52 116q82 -36 151 -51t151 -15q166 0 256 83t90 235q0 158 -108 228t-290 70h-86v122 l392 516h-576v2h-2v-864v-82h-134v136q-54 -80 -133 -121t-177 -41q-190 0 -296 150t-106 418zM264 542q0 -212 73 -320t215 -108q78 0 142 31t122 99v594q-52 58 -124 91t-152 33q-136 0 -206 -106t-70 -314z" />
<glyph unicode="&#x2a5;" horiz-adv-x="1948" d="M114 542q0 260 113 406t313 146q82 0 153 -32t123 -90v568h144v-472h112h626v-122l-574 -824h226l78 142q122 218 306 218q96 0 150 -56t54 -154q0 -128 -90 -200t-248 -72h-184l-108 -194l-104 54l78 140h-324h-132v136q-54 -80 -133 -121t-177 -41q-190 0 -296 150 t-106 418zM264 542q0 -212 73 -320t215 -108q78 0 142 31t122 99v594q-52 58 -124 91t-152 33q-136 0 -206 -106t-70 -314zM960 124l572 822h-572v-822zM1484 122h118q100 0 152 35t52 103q0 94 -92 94q-102 0 -182 -144z" />
<glyph unicode="&#x2a6;" horiz-adv-x="1510" d="M42 946v122h186v320h144v-320h514q72 24 164 24q88 0 174 -21t154 -57l-58 -124q-140 72 -274 72q-108 0 -164 -43t-56 -125q0 -64 38 -103t120 -59l142 -34q144 -34 214 -105t70 -181q0 -166 -147 -252t-433 -86q-310 0 -456 104t-146 322v546h-186zM372 406 q0 -164 110 -234t366 -70q214 0 316 48t102 148q0 60 -38 97t-120 57l-142 34q-146 34 -215 106t-69 190q0 96 42 164h-352v-540z" />
<glyph unicode="&#x2a7;" horiz-adv-x="1204" d="M42 946v122h186v320h144v-320h322h138v120v16q0 164 90 255t250 91q62 0 102 -10v-128q-60 8 -102 8q-96 0 -146 -55t-50 -161v-36v-1168v-88q0 -164 -90 -255t-250 -91q-62 0 -102 10v128q60 -8 102 -8q96 0 146 55t50 161v202v832h-266h-194v-586q0 -126 49 -185 t153 -59q54 0 110 18l24 -124q-68 -24 -156 -24q-160 0 -242 89t-82 265v606h-186z" />
<glyph unicode="&#x2a8;" horiz-adv-x="1468" d="M42 946v122h186v320h144v-320h526q66 26 156 26q76 0 156 -23t146 -63l-56 -118q-130 70 -250 70q-146 0 -228 -108t-82 -302q0 -198 72 -310q8 14 28 42q86 124 166 182t182 58q106 0 166 -64t60 -178q0 -144 -92 -224t-258 -80q-152 0 -266 80q-96 -70 -246 -70 q-160 0 -242 89t-82 265v606h-186zM372 360q0 -126 49 -185t153 -59q80 0 132 28q-116 154 -116 394q0 126 34 230t96 178h-348v-586zM896 156q72 -48 180 -48q100 0 152 42t52 122q0 122 -106 122q-72 0 -124 -47t-110 -131z" />
<glyph unicode="&#x2a9;" horiz-adv-x="1762" d="M42 946v122h186v136q0 164 95 255t265 91q62 0 102 -10v-128q-60 8 -102 8q-106 0 -161 -55t-55 -161v-136h280h244h28v-114q134 140 328 140q156 0 244 -90t88 -248v-756v-114q0 -154 -78 -240t-216 -86q-64 0 -124 18t-100 50l50 114q94 -54 174 -54q74 0 112 50 t38 148v348v512q0 102 -58 155t-168 53q-80 0 -148 -25t-132 -81v-848h-144v946h-266h-152v-946h-144v946h-186z" />
<glyph unicode="&#x2aa;" horiz-adv-x="1346" d="M184 400v1140h144v-1134q0 -164 96 -234t316 -70q186 0 274 48t88 148q0 60 -38 97t-120 57l-142 34q-146 34 -215 106t-69 190q0 146 97 228t271 82q88 0 174 -21t154 -57l-58 -124q-140 72 -274 72q-108 0 -164 -43t-56 -125q0 -64 38 -103t120 -59l142 -34 q144 -34 214 -105t70 -181q0 -166 -132 -252t-390 -86q-278 0 -409 104t-131 322z" />
<glyph unicode="&#x2ab;" horiz-adv-x="1168" d="M188 0v1540h144v-472h92h646v-122l-574 -824h582v-122h-748h-142zM332 124l572 822h-558h-14v-822z" />
<glyph unicode="&#x2ac;" horiz-adv-x="1090" d="M68 618h140l136 -494l136 494h132l136 -494l136 494h132l-198 -618h-140l-134 468l-130 -468h-148zM68 1448h140l136 -494l136 494h132l136 -494l136 494h132l-198 -618h-140l-134 468l-130 -468h-148z" />
<glyph unicode="&#x2ad;" horiz-adv-x="1072" d="M156 0h124v482h512v-482h124v614h-760v-614zM156 834h124v482h512v-482h124v614h-760v-614z" />
<glyph unicode="&#x2ae;" horiz-adv-x="1224" d="M0 1068q52 18 114 18q140 0 212 -75t72 -221v-468q0 -102 56 -155t164 -53q84 0 150 30t124 96v828h144v-1482h-144v530q-114 -142 -312 -142q-154 0 -240 90t-86 248v396v84q0 88 -34 130t-106 42q-54 0 -94 -12z" />
<glyph unicode="&#x2af;" horiz-adv-x="1224" d="M0 1068q52 18 114 18q140 0 212 -75t72 -221v-468q0 -102 56 -155t164 -53q84 0 150 30t124 96v828h144v-1082v-148q0 -78 29 -114t91 -36q56 0 94 12l20 -118q-50 -18 -114 -18q-130 0 -197 70t-67 206v276q-114 -142 -312 -142q-154 0 -240 90t-86 248v396v84 q0 88 -34 130t-106 42q-54 0 -94 -12z" />
<glyph unicode="&#x2b0;" horiz-adv-x="1048" d="M208 668v1116h138v-418q106 102 248 102q122 0 189 -67t67 -185v-548h-136v532q0 68 -42 103t-122 35q-112 0 -204 -74v-596h-138z" />
<glyph unicode="&#x2b1;" horiz-adv-x="1048" d="M208 668v852v82q0 98 54 148t158 50q54 0 102 -18l-20 -110q-30 8 -74 8t-63 -20t-19 -66v-228q106 102 248 102q122 0 189 -67t67 -185v-548h-136v532q0 68 -42 103t-122 35q-112 0 -204 -74v-596h-138z" />
<glyph unicode="&#x2b2;" horiz-adv-x="540" d="M-14 462q86 28 131 59t64 78t19 123v726h138v-728q0 -108 -28 -176t-93 -113t-185 -83zM178 1664q0 42 24 66t68 24q42 0 66 -24t24 -64q0 -44 -24 -67t-66 -23q-44 0 -68 24t-24 64z" />
<glyph unicode="&#x2b3;" horiz-adv-x="730" d="M208 668v780h126v-116q88 132 226 132q52 0 102 -18l-30 -132q-58 16 -106 16q-112 0 -180 -92v-570h-138z" />
<glyph unicode="&#x2b4;" horiz-adv-x="730" d="M68 670l30 132q54 -16 104 -16q60 0 103 23t79 71v568h138v-780h-126v116q-86 -132 -226 -132q-54 0 -102 18z" />
<glyph unicode="&#x2b5;" horiz-adv-x="668" d="M68 670l30 132q54 -16 104 -16q60 0 103 23t79 71v568h138v-780v-96q0 -52 22 -76t72 -24q48 0 78 10l20 -114q-52 -16 -102 -16q-228 0 -228 214v202q-84 -116 -214 -116q-54 0 -102 18z" />
<glyph unicode="&#x2b6;" horiz-adv-x="984" d="M216 668v780h138v-274h154l212 274h164l-236 -288q90 -24 138 -86t48 -154q0 -120 -78 -186t-220 -66h-216h-104zM354 788h178q160 0 160 134t-156 134h-182v-268z" />
<glyph unicode="&#x2b7;" horiz-adv-x="1300" d="M88 1448h142l176 -650l174 650h142l174 -646l174 646h142l-242 -780h-150l-170 616l-170 -616h-152z" />
<glyph unicode="&#x2b8;" horiz-adv-x="884" d="M84 1448h144l214 -636l216 636h142l-282 -768q-44 -120 -138 -201t-244 -129l-48 118q108 36 176 82t108 112z" />
<glyph unicode="&#x2b9;" horiz-adv-x="398" d="M104 1034v20l74 442h156v-20l-126 -442h-104z" />
<glyph unicode="&#x2ba;" horiz-adv-x="684" d="M104 1034v20l74 442h156v-20l-126 -442h-104zM390 1034v20l74 442h156v-20l-126 -442h-104z" />
<glyph unicode="&#x2bb;" horiz-adv-x="384" d="M96 1200q0 102 49 189t155 169l56 -60q-64 -68 -92 -137t-28 -159q0 -38 4 -82h-140q-4 44 -4 80z" />
<glyph unicode="&#x2bc;" horiz-adv-x="384" d="M28 1162q64 68 92 137t28 159q0 38 -4 82h140q4 -44 4 -80q0 -102 -49 -189t-155 -169z" />
<glyph unicode="&#x2bd;" horiz-adv-x="384" d="M96 1460q0 36 4 80h140q-4 -44 -4 -82q0 -90 28 -159t92 -137l-56 -60q-106 82 -155 169t-49 189z" />
<glyph unicode="&#x2be;" horiz-adv-x="330" d="M60 1208v88q122 0 122 124t-122 124v88q108 0 169 -56t61 -156t-61 -156t-169 -56z" />
<glyph unicode="&#x2bf;" horiz-adv-x="330" d="M40 1420q0 100 61 156t169 56v-88q-122 0 -122 -124t122 -124v-88q-108 0 -169 56t-61 156z" />
<glyph unicode="&#x2c0;" horiz-adv-x="980" d="M134 1674q70 60 163 94t193 34q160 0 248 -82t88 -230q0 -136 -80 -240t-228 -160v-422h-138v508q146 38 220 115t74 189q0 188 -194 188q-132 0 -270 -98z" />
<glyph unicode="&#x2c1;" horiz-adv-x="982" d="M154 1474q0 154 94 241t264 87q208 0 336 -132l-80 -100q-116 98 -252 98q-104 0 -157 -48t-53 -140q0 -108 74 -185t220 -119v-508h-138v414q-148 50 -228 151t-80 241z" />
<glyph unicode="&#x2c2;" horiz-adv-x="776" d="M132 1196l412 434l100 -92l-334 -342l334 -340l-100 -94z" />
<glyph unicode="&#x2c3;" horiz-adv-x="776" d="M132 856l334 340l-334 342l100 92l412 -434l-412 -434z" />
<glyph unicode="&#x2c4;" horiz-adv-x="956" d="M84 876l394 714l394 -714l-114 -66l-280 528l-278 -528z" />
<glyph unicode="&#x2c5;" horiz-adv-x="956" d="M84 1516l114 66l280 -528l278 528l116 -66l-394 -714z" />
<glyph unicode="&#x2c6;" horiz-adv-x="1000" d="M220 1230v20l204 318h152l204 -318v-20h-110l-172 226l-174 -226h-104z" />
<glyph unicode="&#x2c7;" horiz-adv-x="1000" d="M220 1548v20h110l174 -226l172 226h104v-20l-204 -318h-152z" />
<glyph unicode="&#x2c8;" horiz-adv-x="384" d="M136 1230v448h112v-448h-112z" />
<glyph unicode="&#x2c9;" horiz-adv-x="1000" d="M216 1282v116h568v-116h-568z" />
<glyph unicode="&#x2ca;" horiz-adv-x="1000" d="M400 1230v20l206 318h170v-20l-264 -318h-112z" />
<glyph unicode="&#x2cb;" horiz-adv-x="1000" d="M248 1548v20h170l190 -318v-20h-112z" />
<glyph unicode="&#x2cc;" horiz-adv-x="384" d="M136 -160h112v-448h-112v448z" />
<glyph unicode="&#x2cd;" horiz-adv-x="796" d="M114 -216h568v-116h-568v116z" />
<glyph unicode="&#x2ce;" horiz-adv-x="706" d="M114 -168h190l288 -266v-24h-132l-346 266v24z" />
<glyph unicode="&#x2cf;" horiz-adv-x="724" d="M114 -434l306 266h190v-24l-364 -266h-132v24z" />
<glyph unicode="&#x2d0;" horiz-adv-x="592" d="M114 0l162 316h40l162 -316h-364zM114 1068h364l-162 -316h-40z" />
<glyph unicode="&#x2d1;" horiz-adv-x="592" d="M114 1068h364l-162 -316h-40z" />
<glyph unicode="&#x2d2;" horiz-adv-x="610" d="M180 348v88q122 0 122 124t-122 124v88q108 0 169 -56t61 -156t-61 -156t-169 -56z" />
<glyph unicode="&#x2d3;" horiz-adv-x="610" d="M200 560q0 100 61 156t169 56v-88q-122 0 -122 -124t122 -124v-88q-108 0 -169 56t-61 156z" />
<glyph unicode="&#x2d4;" horiz-adv-x="852" d="M174 598v104h504v-104h-198v-240h-108v240h-198z" />
<glyph unicode="&#x2d5;" horiz-adv-x="852" d="M174 390v104h198v240h108v-240h198v-104h-504z" />
<glyph unicode="&#x2d6;" horiz-adv-x="998" d="M136 540v124h298v302h130v-302h298v-124h-298v-302h-130v302h-298z" />
<glyph unicode="&#x2d7;" horiz-adv-x="998" d="M136 538v126h726v-126h-726z" />
<glyph unicode="&#x2d8;" horiz-adv-x="1000" d="M220 1520h102q24 -166 180 -166q158 0 182 166h96q-6 -136 -80 -213t-200 -77t-200 77t-80 213z" />
<glyph unicode="&#x2d9;" horiz-adv-x="1000" d="M396 1366q0 52 27 80t77 28t77 -28t27 -78q0 -52 -27 -80t-77 -28t-77 28t-27 78z" />
<glyph unicode="&#x2da;" horiz-adv-x="1000" d="M270 1420q0 100 61 156t169 56t169 -56t61 -156t-61 -156t-169 -56t-169 56t-61 156zM378 1420q0 -124 122 -124t122 124t-122 124t-122 -124z" />
<glyph unicode="&#x2db;" horiz-adv-x="1000" d="M154 -256q0 82 54 155t148 119l108 -18q-88 -50 -134 -108t-46 -122q0 -88 96 -88q66 0 134 36l42 -94q-40 -28 -92 -43t-108 -15q-94 0 -148 47t-54 131z" />
<glyph unicode="&#x2dc;" horiz-adv-x="1000" d="M174 1244q4 116 52 183t134 67q52 0 92 -21t88 -59q36 -28 58 -41t46 -13q70 0 86 130h96q-4 -116 -52 -183t-134 -67q-52 0 -92 21t-88 59q-36 28 -58 41t-46 13q-70 0 -86 -130h-96z" />
<glyph unicode="&#x2dd;" horiz-adv-x="1000" d="M286 1230v20l124 318h154v-20l-182 -318h-96zM568 1230v20l124 318h154v-20l-182 -318h-96z" />
<glyph unicode="&#x2de;" horiz-adv-x="360" d="M-152 896l340 58l-8 -56q-6 -44 -6 -76q0 -82 42 -125t122 -43h22l-22 -118q-134 0 -213 70t-87 196l-178 -34z" />
<glyph unicode="&#x2df;" horiz-adv-x="832" d="M174 1338l162 148l-162 146l74 76l168 -152l166 152l76 -76l-164 -146l164 -148l-76 -74l-166 150l-168 -150z" />
<glyph unicode="&#x2e0;" horiz-adv-x="892" d="M84 1448h144l218 -478l216 478h146l-296 -618l72 -160q42 -96 42 -160q0 -76 -47 -118t-131 -42q-86 0 -132 42t-46 118q0 70 42 160l70 156zM384 520q0 -70 64 -70q28 0 44 18t16 50q0 50 -40 130l-22 46l-22 -46q-40 -86 -40 -128z" />
<glyph unicode="&#x2e1;" horiz-adv-x="590" d="M204 838v946h138v-924q0 -42 19 -60t61 -18q12 0 60 4l12 -116q-68 -12 -104 -12q-186 0 -186 180z" />
<glyph unicode="&#x2e2;" horiz-adv-x="822" d="M104 724l48 114q110 -66 242 -66q86 0 130 28t44 82q0 44 -30 69t-94 39l-110 24q-112 26 -165 78t-53 138q0 112 78 174t218 62q70 0 140 -17t126 -45l-52 -112q-110 52 -218 52q-158 0 -158 -100q0 -40 29 -65t93 -39l108 -24q114 -26 168 -79t54 -143q0 -116 -81 -180 t-227 -64q-80 0 -156 20t-134 54z" />
<glyph unicode="&#x2e3;" horiz-adv-x="882" d="M92 668l272 396l-260 384h156l182 -280l192 280h154l-270 -382l272 -398h-156l-196 296l-192 -296h-154z" />
<glyph unicode="&#x2e4;" horiz-adv-x="982" d="M154 1474q0 154 94 241t264 87q208 0 336 -132l-80 -100q-116 98 -252 98q-104 0 -157 -48t-53 -140q0 -108 74 -185t220 -119v-508h-138v414q-148 50 -228 151t-80 241z" />
<glyph unicode="&#x2e5;" horiz-adv-x="840" d="M60 1428v112h592v-1540h-118v1428h-474z" />
<glyph unicode="&#x2e6;" horiz-adv-x="840" d="M60 1070v112h474v358h118v-470v-1070h-118v1070h-474z" />
<glyph unicode="&#x2e7;" horiz-adv-x="840" d="M60 714v112h474v714h118v-826v-714h-118v714h-474z" />
<glyph unicode="&#x2e8;" horiz-adv-x="840" d="M60 358v112h474v1070h118v-1182v-358h-118v358h-474z" />
<glyph unicode="&#x2e9;" horiz-adv-x="840" d="M60 0v112h474v1428h118v-1540h-592z" />
<glyph unicode="&#x2ea;" horiz-adv-x="860" d="M188 0v1068h116v-956h496v-112h-612z" />
<glyph unicode="&#x2eb;" horiz-adv-x="860" d="M188 0v590v478h116v-478h496v-112h-496v-478h-116z" />
<glyph unicode="&#x2ec;" horiz-adv-x="788" d="M114 -120h110l172 -226l174 226h104v-20l-204 -318h-152l-204 318v20z" />
<glyph unicode="&#x2ed;" horiz-adv-x="1018" d="M182 986v126h654v-126h-654zM182 1322v126h654v-126h-654z" />
<glyph unicode="&#x2ee;" horiz-adv-x="668" d="M28 1162q64 68 92 137t28 159q0 38 -4 82h140q4 -44 4 -80q0 -102 -49 -189t-155 -169zM312 1162q64 68 92 137t28 159q0 38 -4 82h140q4 -44 4 -80q0 -102 -49 -189t-155 -169z" />
<glyph unicode="&#x2ef;" horiz-adv-x="956" d="M84 146l114 66l280 -528l278 528l116 -66l-394 -714z" />
<glyph unicode="&#x2f0;" horiz-adv-x="956" d="M84 -494l394 714l394 -714l-114 -66l-280 528l-278 -528z" />
<glyph unicode="&#x2f1;" horiz-adv-x="776" d="M132 -174l412 434l100 -92l-334 -342l334 -340l-100 -94z" />
<glyph unicode="&#x2f2;" horiz-adv-x="776" d="M132 168l100 92l412 -434l-412 -434l-100 94l334 340z" />
<glyph unicode="&#x2f3;" horiz-adv-x="688" d="M114 -354q0 100 61 156t169 56t169 -56t61 -156t-61 -156t-169 -56t-169 56t-61 156zM222 -354q0 -124 122 -124t122 124t-122 124t-122 -124z" />
<glyph unicode="&#x2f4;" horiz-adv-x="740" d="M180 708v20h170l190 -318v-20h-112z" />
<glyph unicode="&#x2f5;" horiz-adv-x="916" d="M176 708v20h154l108 -318v-20h-96zM458 708v20h154l108 -318v-20h-96z" />
<glyph unicode="&#x2f6;" horiz-adv-x="932" d="M196 390v20l124 318h154v-20l-182 -318h-96zM478 390v20l124 318h154v-20l-182 -318h-96z" />
<glyph unicode="&#x2f7;" horiz-adv-x="880" d="M114 -450q4 116 52 183t134 67q52 0 92 -21t88 -59q36 -28 58 -41t46 -13q70 0 86 130h96q-4 -116 -52 -183t-134 -67q-52 0 -92 21t-88 59q-36 28 -58 41t-46 13q-70 0 -86 -130h-96z" />
<glyph unicode="&#x2f8;" horiz-adv-x="584" d="M196 794q0 44 25 68t71 24t71 -24t25 -68t-25 -68t-71 -24t-71 24t-25 68zM196 1294q0 44 25 68t71 24t71 -24t25 -68t-25 -68t-71 -24t-71 24t-25 68z" />
<glyph unicode="&#x2f9;" horiz-adv-x="744" d="M208 1004v444h338v-104h-230v-340h-108z" />
<glyph unicode="&#x2fa;" horiz-adv-x="744" d="M198 1344v104h338v-444h-108v340h-230z" />
<glyph unicode="&#x2fb;" horiz-adv-x="744" d="M208 0v444h108v-340h230v-104h-338z" />
<glyph unicode="&#x2fc;" horiz-adv-x="744" d="M198 0v104h230v340h108v-444h-338z" />
<glyph unicode="&#x2fd;" horiz-adv-x="994" d="M116 -40h132v-232h498v232h132v-372h-630h-132v372z" />
<glyph unicode="&#x2fe;" horiz-adv-x="954" d="M116 -40h132v-232h630v-140h-762v372z" />
<glyph unicode="&#x2ff;" horiz-adv-x="1092" d="M124 -354l220 192h124v-20l-164 -134h656v-96h-656l164 -134v-20h-124l-220 192v20z" />
<glyph unicode="&#x300;" d="M-812 1548v20h170l190 -318v-20h-112z" />
<glyph unicode="&#x301;" d="M-660 1230v20l206 318h170v-20l-264 -318h-112z" />
<glyph unicode="&#x302;" d="M-840 1230v20l204 318h152l204 -318v-20h-110l-174 226l-172 -226h-104z" />
<glyph unicode="&#x303;" d="M-886 1244q4 116 52 183t134 67q52 0 92 -21t88 -59q36 -28 58 -41t46 -13q70 0 86 130h96q-4 -116 -52 -183t-134 -67q-52 0 -92 21t-88 59q-36 28 -58 41t-46 13q-70 0 -86 -130h-96z" />
<glyph unicode="&#x304;" d="M-844 1282v116h568v-116h-568z" />
<glyph unicode="&#x305;" d="M-962 1650v140h802v-140h-802z" />
<glyph unicode="&#x306;" d="M-840 1520h102q24 -166 180 -166q158 0 182 166h96q-6 -136 -80 -213t-200 -77t-200 77t-80 213z" />
<glyph unicode="&#x307;" d="M-664 1366q0 52 27 80t77 28t77 -28t27 -78q0 -52 -27 -80t-77 -28t-77 28t-27 78z" />
<glyph unicode="&#x308;" d="M-844 1362q0 48 26 76t72 28q48 0 74 -27t26 -75q0 -50 -26 -77t-74 -27q-46 0 -72 27t-26 75zM-474 1362q0 48 26 76t72 28q48 0 74 -27t26 -75q0 -50 -26 -77t-74 -27q-46 0 -72 27t-26 75z" />
<glyph unicode="&#x309;" d="M-726 1542q36 24 85 39t97 15q78 0 122 -37t44 -101q0 -44 -18 -67t-52 -45q-28 -18 -42 -33t-14 -43q0 -16 4 -40h-120q-4 24 -4 46q0 46 18 69t54 45q24 12 36 25t12 35q0 46 -60 46q-62 0 -122 -40z" />
<glyph unicode="&#x30a;" d="M-790 1420q0 100 61 156t169 56t169 -56t61 -156t-61 -156t-169 -56t-169 56t-61 156zM-682 1420q0 -124 122 -124t122 124t-122 124t-122 -124z" />
<glyph unicode="&#x30b;" d="M-774 1230v20l124 318h154v-20l-182 -318h-96zM-492 1230v20l124 318h154v-20l-182 -318h-96z" />
<glyph unicode="&#x30c;" d="M-840 1548v20h110l172 -226l174 226h104v-20l-204 -318h-152z" />
<glyph unicode="&#x30d;" d="M-616 1230v448h112v-448h-112z" />
<glyph unicode="&#x30e;" d="M-736 1230v448h112v-448h-112zM-496 1230v448h112v-448h-112z" />
<glyph unicode="&#x30f;" d="M-882 1548v20h154l108 -318v-20h-96zM-600 1548v20h154l108 -318v-20h-96z" />
<glyph unicode="&#x310;" d="M-856 1520h102q12 -84 62 -127t134 -43q86 0 136 43t62 127h96q-6 -136 -84 -213t-212 -77t-212 77t-84 213zM-664 1566q0 52 27 80t77 28t77 -28t27 -78q0 -52 -27 -80t-77 -28t-77 28t-27 78z" />
<glyph unicode="&#x311;" d="M-840 1242q6 136 80 213t200 77t200 -77t80 -213h-102q-24 166 -180 166q-158 0 -182 -166h-96z" />
<glyph unicode="&#x312;" d="M-640 1298q0 90 42 161t138 147l58 -62q-52 -58 -73 -111t-21 -133q0 -30 4 -66h-144q-4 36 -4 64z" />
<glyph unicode="&#x313;" d="M-702 1272q52 58 73 111t21 133q0 30 -4 66h144q4 -36 4 -64q0 -90 -42 -161t-138 -147z" />
<glyph unicode="&#x314;" d="M-652 1518q0 28 4 64h144q-4 -36 -4 -66q0 -80 21 -133t73 -111l-58 -62q-96 76 -138 147t-42 161z" />
<glyph unicode="&#x315;" d="M-244 1256q42 56 57 106t15 132q0 44 -4 88h144q4 -44 4 -72q0 -88 -34 -157t-118 -153z" />
<glyph unicode="&#x316;" d="M-808 -168h190l288 -266v-24h-132l-346 266v24z" />
<glyph unicode="&#x317;" d="M-804 -434l306 266h190v-24l-364 -266h-132v24z" />
<glyph unicode="&#x318;" d="M-790 -302h318v164h108v-432h-108v164h-318v104z" />
<glyph unicode="&#x319;" d="M-756 -138h108v-164h318v-104h-318v-164h-108v432z" />
<glyph unicode="&#x31a;" d="M-790 1464v104h444v-338h-108v234h-336z" />
<glyph unicode="&#x31b;" d="M-292 972l2 96q112 0 157 35t45 121q0 50 -10 122h130q10 -60 10 -118q0 -136 -78 -196t-256 -60z" />
<glyph unicode="&#x31c;" d="M-710 -354q0 100 61 156t169 56v-88q-122 0 -122 -124t122 -124v-88q-108 0 -169 56t-61 156z" />
<glyph unicode="&#x31d;" d="M-812 -378h198v240h108v-240h198v-104h-504v104z" />
<glyph unicode="&#x31e;" d="M-812 -226h504v-104h-198v-240h-108v240h-198v104z" />
<glyph unicode="&#x31f;" d="M-772 -302h158v164h108v-164h158v-104h-158v-164h-108v164h-158v104z" />
<glyph unicode="&#x320;" d="M-764 -300h408v-108h-408v108z" />
<glyph unicode="&#x321;" d="M-322 -418l22 128q38 -12 90 -12q70 0 104 42t34 130v198h148v-196q0 -152 -73 -230t-213 -78q-60 0 -112 18z" />
<glyph unicode="&#x322;" d="M-76 68h148v-208q0 -84 31 -123t97 -39q50 0 90 12l22 -128q-50 -18 -112 -18q-136 0 -206 75t-70 223v206z" />
<glyph unicode="&#x323;" d="M-664 -302q0 52 27 80t77 28t77 -28t27 -78q0 -52 -27 -80t-77 -28t-77 28t-27 78z" />
<glyph unicode="&#x324;" d="M-844 -296q0 48 26 76t72 28q48 0 74 -27t26 -75q0 -50 -26 -77t-74 -27q-46 0 -72 27t-26 75zM-474 -296q0 48 26 76t72 28q48 0 74 -27t26 -75q0 -50 -26 -77t-74 -27q-46 0 -72 27t-26 75z" />
<glyph unicode="&#x325;" d="M-790 -354q0 100 61 156t169 56t169 -56t61 -156t-61 -156t-169 -56t-169 56t-61 156zM-682 -354q0 -124 122 -124t122 124t-122 124t-122 -124z" />
<glyph unicode="&#x326;" d="M-722 -476q52 58 73 111t21 133q0 30 -4 66h144q4 -36 4 -64q0 -90 -42 -161t-138 -147z" />
<glyph unicode="&#x327;" d="M-766 -408l30 88q94 -38 166 -38q108 0 108 78t-100 78q-46 0 -88 -18l-42 48l92 212l114 -12l-100 -152q28 4 40 4q98 0 152 -42t54 -118q0 -82 -61 -128t-169 -46q-110 0 -196 46z" />
<glyph unicode="&#x328;" d="M-746 -256q0 82 54 155t148 119l108 -18q-88 -50 -134 -108t-46 -122q0 -88 96 -88q64 0 134 36l42 -94q-40 -28 -92 -43t-108 -15q-94 0 -148 47t-54 131z" />
<glyph unicode="&#x329;" d="M-616 -160h112v-448h-112v448z" />
<glyph unicode="&#x32a;" d="M-812 -206h504v-104v-260h-108v260h-288v-260h-108v328v36z" />
<glyph unicode="&#x32b;" d="M-876 -220h80q4 -58 29 -89t69 -31q90 0 100 120h66h14q4 -58 29 -89t69 -31q90 0 100 120h74q0 -100 -47 -157t-129 -57q-94 0 -140 80q-44 -80 -138 -80q-82 0 -129 57t-47 157z" />
<glyph unicode="&#x32c;" d="M-876 -168h122l196 -188l198 188h116v-24l-234 -266h-164l-234 266v24z" />
<glyph unicode="&#x32d;" d="M-876 -434l234 266h164l234 -266v-24h-122l-198 188l-196 -188h-116v24z" />
<glyph unicode="&#x32e;" d="M-840 -154h102q24 -166 180 -166q158 0 182 166h96q-6 -136 -80 -213t-200 -77t-200 77t-80 213z" />
<glyph unicode="&#x32f;" d="M-840 -452q6 136 80 213t200 77t200 -77t80 -213h-102q-24 166 -180 166q-158 0 -182 -166h-96z" />
<glyph unicode="&#x330;" d="M-886 -450q4 116 52 183t134 67q52 0 92 -21t88 -59q36 -28 58 -41t46 -13q70 0 86 130h96q-4 -116 -52 -183t-134 -67q-52 0 -92 21t-88 59q-36 28 -58 41t-46 13q-70 0 -86 -130h-96z" />
<glyph unicode="&#x331;" d="M-844 -216h568v-116h-568v116z" />
<glyph unicode="&#x332;" d="M-960 -246h802v-140h-802v140z" />
<glyph unicode="&#x333;" d="M-960 -246h800v-120h-800v120zM-960 -486h800v-120h-800v120z" />
<glyph unicode="&#x334;" d="M-886 388q4 116 52 183t134 67q52 0 92 -21t88 -59q36 -28 58 -41t46 -13q70 0 86 130h96q-4 -116 -52 -183t-134 -67q-52 0 -92 21t-88 59q-36 28 -58 41t-46 13q-70 0 -86 -130h-96z" />
<glyph unicode="&#x335;" d="M-872 492v116h624v-116h-624z" />
<glyph unicode="&#x336;" d="M-1268 494v112h1416v-112h-1416z" />
<glyph unicode="&#x337;" d="M-1056 0l872 1088h130v-20l-872 -1088h-130v20z" />
<glyph unicode="&#x338;" d="M-1356 4l1152 1464h136v-24l-1152 -1464h-136v24z" />
<glyph unicode="&#x339;" d="M-640 -142q108 0 169 -56t61 -156t-61 -156t-169 -56v88q122 0 122 124t-122 124v88z" />
<glyph unicode="&#x33a;" d="M-812 -138h108v-260h288v260h108v-328v-36h-504v104v260z" />
<glyph unicode="&#x33b;" d="M-752 -160h384v-288v-100h-280h-104v288v100zM-648 -260v-188h176v188h-176z" />
<glyph unicode="&#x33c;" d="M-876 -422q0 100 47 157t129 57q94 0 138 -80q46 80 140 80q82 0 129 -57t47 -157h-80q-4 58 -29 89t-69 31q-90 0 -100 -120h-66h-14q-4 58 -29 89t-69 31q-90 0 -100 -120h-74z" />
<glyph unicode="&#x33d;" d="M-802 1338l162 148l-162 146l74 76l168 -152l166 152l76 -76l-164 -146l164 -148l-76 -74l-166 150l-168 -150z" />
<glyph unicode="&#x33e;" d="M-678 1222v96q130 16 130 86q0 24 -12 44t-40 54q-38 44 -58 80t-20 86q0 84 64 134t178 52v-96q-122 -16 -122 -86q0 -24 12 -44t40 -54q38 -44 58 -80t20 -86q0 -86 -66 -134t-184 -52z" />
<glyph unicode="&#x33f;" d="M-962 1650v120h800v-120h-800zM-962 1890v120h800v-120h-800z" />
<glyph unicode="&#x340;" d="M-812 1548v20h170l190 -318v-20h-112z" />
<glyph unicode="&#x341;" d="M-660 1230v20l206 318h170v-20l-264 -318h-112z" />
<glyph unicode="&#x342;" d="M-326 1244q4 116 52 183t134 67q52 0 92 -21t88 -59q36 -28 58 -41t46 -13q70 0 86 130h96q-4 -116 -52 -183t-134 -67q-52 0 -92 21t-88 59q-36 28 -58 41t-46 13q-70 0 -86 -130h-96z" />
<glyph unicode="&#x344;" d="M-840 1362q0 48 26 76t72 28q48 0 74 -27t26 -75q0 -50 -26 -77t-74 -27q-46 0 -72 26t-26 76zM-596 1230v22l62 316h162v-20l-122 -318h-102zM-360 1362q0 48 26 76t72 28q48 0 74 -27t26 -75q0 -50 -26 -77t-74 -27q-46 0 -72 26t-26 76z" />
<glyph unicode="&#x346;" d="M-812 1230v328v36h504v-104v-260h-108v260h-288v-260h-108z" />
<glyph unicode="&#x347;" d="M-758 -202h396v-104h-396v104zM-758 -402h396v-104h-396v104z" />
<glyph unicode="&#x348;" d="M-736 -160h112v-448h-112v448zM-496 -160h112v-448h-112v448z" />
<glyph unicode="&#x349;" d="M-790 -168h444v-290h-108v186h-336v104z" />
<glyph unicode="&#x34a;" d="M-900 1248q4 114 55 179t139 65q68 0 138 -44l80 132l70 -42l-82 -138q26 -20 47 -30t43 -10q72 0 90 128h100q-4 -114 -55 -179t-139 -65q-76 0 -150 52l-80 -134l-70 42l84 138q-26 16 -43 24t-37 8q-72 0 -90 -126h-100z" />
<glyph unicode="&#x34b;" d="M-900 1422q4 110 55 172t139 62q54 0 96 -20t90 -56q38 -26 61 -38t49 -12q72 0 90 122h100q-4 -110 -55 -172t-139 -62q-54 0 -96 20t-90 56q-38 26 -61 38t-49 12q-72 0 -90 -122h-100zM-658 1278q0 48 26 74t72 26t72 -26t26 -72t-26 -72t-72 -26t-72 25t-26 71z M-658 1792q0 48 26 74t72 26t72 -26t26 -72t-26 -72t-72 -26t-72 25t-26 71z" />
<glyph unicode="&#x34c;" d="M-900 1246q4 110 55 172t139 62q54 0 96 -20t90 -56q38 -26 61 -38t49 -12q72 0 90 122h100q-4 -110 -55 -172t-139 -62q-54 0 -96 20t-90 56q-38 26 -61 38t-49 12q-72 0 -90 -122h-100zM-900 1506q4 110 55 172t139 62q54 0 96 -20t90 -56q38 -26 61 -38t49 -12 q72 0 90 122h100q-4 -110 -55 -172t-139 -62q-54 0 -96 20t-90 56q-38 26 -61 38t-49 12q-72 0 -90 -122h-100z" />
<glyph unicode="&#x34d;" d="M-1000 -354l220 192h124v-20l-164 -134h520l-164 134v20h124l220 -192v-20l-220 -192h-124v20l164 134h-520l164 -134v-20h-124l-220 192v20z" />
<glyph unicode="&#x34e;" d="M-762 -366l192 220h20l192 -220v-124h-20l-134 164v-280h-96v280l-134 -164h-20v124z" />
<glyph unicode="&#x34f;" />
<glyph unicode="&#x350;" d="M-718 1230v20l210 182l-210 182v20h136l220 -192v-20l-220 -192h-136z" />
<glyph unicode="&#x351;" d="M-710 1420q0 100 61 156t169 56v-88q-122 0 -122 -124t122 -124v-88q-108 0 -169 56t-61 156z" />
<glyph unicode="&#x352;" d="M-856 1376q6 136 84 213t212 77t212 -77t84 -213h-102q-12 84 -62 127t-134 43q-86 0 -136 -43t-62 -127h-96zM-664 1328q0 52 27 80t77 28t77 -28t27 -78q0 -52 -27 -80t-77 -28t-77 28t-27 78z" />
<glyph unicode="&#x353;" d="M-802 -208l74 76l168 -152l166 152l76 -76l-164 -146l164 -148l-76 -74l-166 150l-168 -150l-74 74l162 148z" />
<glyph unicode="&#x354;" d="M-758 -354l220 192h136v-20l-210 -182l210 -182v-20h-136l-220 192v20z" />
<glyph unicode="&#x355;" d="M-718 -162h136l220 -192v-20l-220 -192h-136v20l210 182l-210 182v20z" />
<glyph unicode="&#x356;" d="M-966 -162h136l220 -192v-20l-220 -192h-136v20l210 182l-210 182v20zM-558 -406l192 220h20l192 -220v-136h-20l-182 210l-182 -210h-20v136z" />
<glyph unicode="&#x357;" d="M-640 1208v88q122 0 122 124t-122 124v88q108 0 169 -56t61 -156t-61 -156t-169 -56z" />
<glyph unicode="&#x358;" d="M-224 1366q0 52 27 80t77 28t77 -28t27 -78q0 -52 -27 -80t-77 -28t-77 28t-27 78z" />
<glyph unicode="&#x359;" d="M-802 -350l30 92l176 -68l-12 190h96l-12 -190l176 68l30 -92l-184 -50l120 -148l-74 -58l-104 162l-104 -162l-74 58l120 148z" />
<glyph unicode="&#x35a;" d="M-966 -354q0 100 61 156t169 56q114 0 176 -62q62 62 176 62q108 0 169 -56t61 -156t-61 -156t-169 -56q-114 0 -176 62q-62 -62 -176 -62q-108 0 -169 56t-61 156zM-858 -354q0 -124 122 -124t122 124t-122 124t-122 -124zM-506 -354q0 -124 122 -124t122 124t-122 124 t-122 -124z" />
<glyph unicode="&#x35b;" d="M-770 1386l126 290h110l-80 -184h264l-126 -290h-110l80 184h-264z" />
<glyph unicode="&#x35c;" d="M-570 -202l72 60q168 -186 500 -186q164 0 292 47t210 139l66 -60q-76 -120 -227 -187t-343 -67t-343 67t-227 187z" />
<glyph unicode="&#x35d;" d="M-570 1476l72 60q168 -186 500 -186q164 0 292 47t210 139l66 -60q-76 -120 -227 -187t-343 -67t-343 67t-227 187z" />
<glyph unicode="&#x35e;" d="M-644 1284v112h1288v-112h-1288z" />
<glyph unicode="&#x35f;" d="M-644 -218h1288v-112h-1288v112z" />
<glyph unicode="&#x360;" d="M-606 1244q4 124 86 193t226 69q80 0 152 -19t174 -55q86 -34 151 -51t131 -17q88 0 138 35t58 103h96q-4 -124 -86 -193t-226 -69q-80 0 -152 19t-174 55q-86 34 -151 51t-131 17q-88 0 -138 -35t-58 -103h-96z" />
<glyph unicode="&#x361;" d="M-570 1290q76 120 227 187t343 67t343 -67t227 -187l-72 -60q-168 186 -500 186q-164 0 -292 -47t-210 -139z" />
<glyph unicode="&#x362;" d="M-1056 -316h856l-164 134v20h124l220 -192v-20l-220 -192h-124v20l164 134h-856v96z" />
<glyph unicode="&#x363;" d="M-740 1348q0 80 69 120t211 42v18q0 88 -90 88q-56 0 -118 -28l-26 68q44 18 79 28t85 10q86 0 125 -41t39 -105v-318h-84v70q-62 -80 -158 -80q-62 0 -97 34t-35 94zM-654 1354q0 -60 64 -60t130 68v86q-100 0 -147 -23t-47 -71z" />
<glyph unicode="&#x364;" d="M-772 1456q0 116 52 177t152 61q92 0 143 -56t51 -160q0 -28 -4 -52h-298q8 -60 42 -92t90 -32q64 0 120 26l32 -64q-72 -44 -162 -44q-106 0 -162 60t-56 176zM-676 1490h210q-2 60 -29 91t-77 31q-96 0 -104 -122z" />
<glyph unicode="&#x365;" d="M-616 1816q0 56 56 56t56 -56q0 -28 -15 -43t-41 -15t-41 15t-15 43zM-608 1230v454h96v-454h-96z" />
<glyph unicode="&#x366;" d="M-764 1456q0 118 53 178t151 60t150 -60t52 -178t-53 -177t-151 -59q-96 0 -149 60t-53 176zM-668 1456q0 -152 106 -152q110 0 110 152q0 78 -26 116t-82 38q-108 0 -108 -154z" />
<glyph unicode="&#x367;" d="M-758 1366v318h96v-292q0 -90 68 -90q56 0 108 54v328h96v-454h-86v66q-64 -76 -148 -76q-64 0 -99 39t-35 107z" />
<glyph unicode="&#x368;" d="M-756 1456q0 108 56 173t152 65q84 0 142 -42l-30 -70q-76 30 -112 30q-52 0 -82 -42t-30 -114q0 -152 116 -152q56 0 112 28l32 -68q-58 -44 -142 -44q-102 0 -158 61t-56 175z" />
<glyph unicode="&#x369;" d="M-774 1450q0 116 45 180t117 64q92 0 136 -62v244h96v-646h-86v70q-28 -42 -63 -61t-83 -19q-80 0 -121 59t-41 171zM-678 1460q0 -78 24 -118t70 -40q62 0 108 60v188q-16 28 -44 44t-62 16q-46 0 -71 -38t-25 -112z" />
<glyph unicode="&#x36a;" d="M-746 1230v646h96v-246q58 64 154 64q58 0 91 -39t33 -107v-318h-96v292q0 90 -70 90q-58 0 -112 -54v-328h-96z" />
<glyph unicode="&#x36b;" d="M-876 1230v454h86v-66q58 76 158 76q88 0 116 -76q58 76 158 76q58 0 90 -38t32 -108v-318h-96v292q0 90 -66 90q-54 0 -108 -54v-10v-318h-96v292q0 90 -70 90q-54 0 -108 -54v-328h-96z" />
<glyph unicode="&#x36c;" d="M-674 1230v454h86v-84q42 92 124 92q30 0 56 -10l-18 -82q-18 8 -46 8q-30 0 -54 -17t-52 -57v-304h-96z" />
<glyph unicode="&#x36d;" d="M-722 1600v84h64v110h96v-110h116v-84h-116v-222q0 -68 50 -68q24 0 54 6l16 -78q-40 -14 -86 -14q-130 0 -130 128v248h-64z" />
<glyph unicode="&#x36e;" d="M-766 1684h94l108 -378l102 378h92l-146 -454h-104z" />
<glyph unicode="&#x36f;" d="M-780 1230l158 230l-150 224h102l98 -154l102 154h98l-156 -218l158 -236h-102l-106 166l-104 -166h-98z" />
<glyph unicode="&#x370;" horiz-adv-x="1178" d="M196 0v1448h148v-646h770v-134h-770v-668h-148z" />
<glyph unicode="&#x371;" horiz-adv-x="1066" d="M188 0v1068h150v-448h672v-128h-672v-492h-150z" />
<glyph unicode="&#x372;" horiz-adv-x="1052" d="M64 1312v136h536h388v-136h-388v-1312h-148v1312h-388z" />
<glyph unicode="&#x373;" horiz-adv-x="732" d="M64 1312v136h604v-136h-228v-1312h-148v1312h-228z" />
<glyph unicode="&#x374;" d="M-50 1190v22l84 356h170v-20l-144 -358h-110z" />
<glyph unicode="&#x375;" d="M-50 -302l144 358h110v-22l-84 -356h-170v20z" />
<glyph unicode="&#x376;" horiz-adv-x="1444" d="M196 0v1448h144v-1194l770 1194h138v-1448h-144v1196l-770 -1196h-138z" />
<glyph unicode="&#x377;" horiz-adv-x="1202" d="M188 0v1068h154v-780l500 780h172v-1068h-154v848l-546 -848h-126z" />
<glyph unicode="&#x37a;" d="M-68 -102h128v-140q0 -54 22 -75t58 -21q26 0 56 12l18 -102q-58 -16 -104 -16q-88 0 -133 45t-45 157v140z" />
<glyph unicode="&#x37b;" horiz-adv-x="958" d="M74 64l54 116q114 -68 238 -68q166 0 251 111t85 327q0 194 -82 302t-228 108q-120 0 -250 -70l-56 118q66 40 146 63t156 23q138 0 243 -69t163 -195t58 -292q0 -266 -125 -414t-349 -148q-88 0 -168 23t-136 65z" />
<glyph unicode="&#x37c;" horiz-adv-x="958" d="M106 538q0 166 58 292t163 195t243 69q76 0 156 -23t146 -63l-56 -118q-130 70 -250 70q-146 0 -228 -108t-82 -302q0 -216 85 -327t251 -111q124 0 238 68l54 -116q-56 -42 -136 -65t-168 -23q-224 0 -349 148t-125 414zM474 570q0 52 27 80t77 28t77 -28t27 -78 q0 -52 -27 -80t-77 -28t-77 28t-27 78z" />
<glyph unicode="&#x37d;" horiz-adv-x="958" d="M74 64l54 116q114 -68 238 -68q166 0 251 111t85 327q0 194 -82 302t-228 108q-120 0 -250 -70l-56 118q66 40 146 63t156 23q138 0 243 -69t163 -195t58 -292q0 -266 -125 -414t-349 -148q-88 0 -168 23t-136 65zM276 572q0 50 27 78t77 28t77 -28t27 -80q0 -50 -27 -78 t-77 -28t-77 28t-27 80z" />
<glyph unicode="&#x37e;" horiz-adv-x="572" d="M74 -280q78 84 112 165t34 183q0 54 -8 118h160q8 -64 8 -116q0 -126 -57 -229t-177 -197zM176 782q0 52 29 82t81 30t81 -29t29 -81q0 -54 -29 -84t-81 -30t-81 30t-29 82z" />
<glyph unicode="&#x384;" d="M-50 1230v22l104 316h170v-20l-164 -318h-110z" />
<glyph unicode="&#x385;" d="M-280 1362q0 48 26 76t72 28q48 0 74 -27t26 -75q0 -50 -26 -77t-74 -27q-46 0 -72 26t-26 76zM-36 1230v22l62 316h162v-20l-122 -318h-102zM200 1362q0 48 26 76t72 28q48 0 74 -27t26 -75q0 -50 -26 -77t-74 -27q-46 0 -72 26t-26 76z" />
<glyph unicode="&#x386;" horiz-adv-x="1332" d="M64 0l518 1448h168l518 -1448h-162l-136 396h-610l-136 -396h-160zM64 1110v22l104 316h170v-20l-164 -318h-110zM404 528h520l-260 756z" />
<glyph unicode="&#x387;" horiz-adv-x="492" d="M136 956q0 52 29 82t81 30t81 -29t29 -81q0 -54 -29 -84t-81 -30t-81 30t-29 82z" />
<glyph unicode="&#x388;" horiz-adv-x="1148" d="M-176 1110v22l104 316h170v-20l-164 -318h-110zM196 0v1448h836v-134h-688v-506h516v-136h-516v-538h712v-134h-860z" />
<glyph unicode="&#x389;" horiz-adv-x="1400" d="M-216 1110v22l104 316h170v-20l-164 -318h-110zM196 0v1448h148v-646h712v646h148v-1448h-148v668h-712v-668h-148z" />
<glyph unicode="&#x38a;" horiz-adv-x="548" d="M-176 1110v22l104 316h170v-20l-164 -318h-110zM200 0v1448h148v-1448h-148z" />
<glyph unicode="&#x38c;" horiz-adv-x="1424" d="M-116 1110v22l104 316h170v-20l-164 -318h-110zM128 724q0 368 150 559t434 191t434 -191t150 -559t-150 -559t-434 -191t-434 191t-150 559zM284 724q0 -304 108 -460t320 -156t320 156t108 460t-108 460t-320 156t-320 -156t-108 -460z" />
<glyph unicode="&#x38e;" horiz-adv-x="1172" d="M-314 1110v22l104 316h170v-20l-164 -318h-110zM56 1448h166l366 -754l364 754h164l-458 -928v-520h-148v520z" />
<glyph unicode="&#x38f;" horiz-adv-x="1464" d="M-112 1110v22l104 316h170v-20l-164 -318h-110zM128 0v136h304q-130 126 -207 299t-77 389q0 198 71 344t203 225t310 79t310 -79t203 -225t71 -344q0 -216 -77 -389t-207 -299h304v-136h-514v126q146 108 242 280t96 414q0 232 -106 376t-322 144t-322 -144t-106 -376 q0 -242 96 -414t242 -280v-126h-514z" />
<glyph unicode="&#x390;" horiz-adv-x="724" d="M-36 1362q0 48 26 76t72 28q48 0 74 -27t26 -75q0 -50 -26 -77t-74 -27q-46 0 -72 26t-26 76zM188 340v728h144v-708q0 -126 49 -185t153 -59q54 0 110 18l24 -124q-68 -24 -156 -24q-160 0 -242 89t-82 265zM208 1230v22l62 316h162v-20l-122 -318h-102zM444 1362 q0 48 26 76t72 28q48 0 74 -27t26 -75q0 -50 -26 -77t-74 -27q-46 0 -72 26t-26 76z" />
<glyph unicode="&#x391;" horiz-adv-x="1332" d="M64 0l518 1448h168l518 -1448h-162l-136 396h-610l-136 -396h-160zM404 528h520l-260 756z" />
<glyph unicode="&#x392;" horiz-adv-x="1288" d="M196 0v1448h148h328q202 0 314 -104t112 -290q0 -236 -184 -290q132 -34 199 -123t67 -233q0 -192 -115 -300t-321 -108h-470h-78zM344 134h408q134 0 203 70t69 204t-71 202t-209 68h-400v-544zM344 810h328q134 0 203 62t69 182q0 128 -71 194t-209 66h-320v-504z" />
<glyph unicode="&#x393;" horiz-adv-x="1032" d="M196 0v1448h784v-134h-636v-1314h-148z" />
<glyph unicode="&#x394;" horiz-adv-x="1358" d="M64 0v72l532 1376h166l532 -1376v-72h-1230zM242 132h870l-436 1152z" />
<glyph unicode="&#x395;" horiz-adv-x="1148" d="M196 0v1448h836v-134h-688v-506h516v-136h-516v-538h712v-134h-860z" />
<glyph unicode="&#x396;" horiz-adv-x="1102" d="M92 0v134l738 1182h-714v132h882v-132l-738 -1184h746v-132h-914z" />
<glyph unicode="&#x397;" horiz-adv-x="1400" d="M196 0v1448h148v-646h712v646h148v-1448h-148v668h-712v-668h-148z" />
<glyph unicode="&#x398;" horiz-adv-x="1424" d="M128 724q0 368 150 559t434 191q282 0 433 -191t151 -559q0 -366 -151 -558t-433 -192q-284 0 -434 191t-150 559zM284 724q0 -304 108 -460t320 -156q210 0 319 157t109 459t-109 459t-319 157q-212 0 -320 -156t-108 -460zM414 662v136h596v-136h-596z" />
<glyph unicode="&#x399;" horiz-adv-x="548" d="M200 0v1448h148v-1448h-148z" />
<glyph unicode="&#x39a;" horiz-adv-x="1232" d="M196 0v1448h148v-814l664 814h182l-558 -662l588 -786h-182l-504 668l-190 -226v-442h-148z" />
<glyph unicode="&#x39b;" horiz-adv-x="1250" d="M64 0l478 1448h166l478 -1448h-162l-402 1276l-398 -1276h-160z" />
<glyph unicode="&#x39c;" horiz-adv-x="1686" d="M196 0v1448h178l470 -1000l466 1000h180v-1448h-144v1214l-426 -912h-156l-426 912v-1214h-142z" />
<glyph unicode="&#x39d;" horiz-adv-x="1444" d="M196 0v1448h138l770 -1194v1194h144v-1448h-138l-770 1196v-1196h-144z" />
<glyph unicode="&#x39e;" horiz-adv-x="1196" d="M92 0v138h1012v-138h-1012zM114 1310v138h968v-138h-968zM226 672v138h744v-138h-744z" />
<glyph unicode="&#x39f;" horiz-adv-x="1424" d="M128 724q0 368 150 559t434 191t434 -191t150 -559t-150 -559t-434 -191t-434 191t-150 559zM284 724q0 -304 108 -460t320 -156t320 156t108 460t-108 460t-320 156t-320 -156t-108 -460z" />
<glyph unicode="&#x3a0;" horiz-adv-x="1360" d="M196 0v1448h968v-1448h-148v1314h-672v-1314h-148z" />
<glyph unicode="&#x3a1;" horiz-adv-x="1190" d="M196 0v1448h148h346q212 0 330 -121t118 -339t-121 -341t-335 -123h-338v-524h-148zM344 658h346q144 0 218 84t74 246q0 160 -76 243t-224 83h-338v-656z" />
<glyph unicode="&#x3a3;" horiz-adv-x="1102" d="M92 0v120l394 594l-378 598v136h890v-134h-712l356 -574v-20l-382 -586h746v-134h-914z" />
<glyph unicode="&#x3a4;" horiz-adv-x="1052" d="M64 1312v136h536h388v-136h-388v-1312h-148v1312h-388z" />
<glyph unicode="&#x3a5;" horiz-adv-x="1172" d="M56 1448h166l366 -754l364 754h164l-458 -928v-520h-148v520z" />
<glyph unicode="&#x3a6;" horiz-adv-x="1528" d="M108 724q0 192 73 333t204 219t307 90v122h144v-122q174 -12 306 -90t205 -219t73 -333q0 -194 -73 -334t-205 -218t-306 -90v-122h-144v122q-176 12 -307 90t-204 218t-73 334zM260 724q0 -232 118 -360t318 -146v1014q-198 -18 -317 -147t-119 -361zM832 218 q198 18 317 146t119 360t-119 361t-317 147v-1014z" />
<glyph unicode="&#x3a7;" horiz-adv-x="1212" d="M66 0l456 730l-442 718h178l352 -592l358 592h174l-450 -710l454 -738h-178l-364 612l-364 -612h-174z" />
<glyph unicode="&#x3a8;" horiz-adv-x="1500" d="M176 894v554h148v-554q0 -188 91 -278t261 -108v940h148v-940q172 16 262 106t90 280v554h148v-554q0 -246 -134 -376t-366 -144v-374h-148v374q-232 16 -366 146t-134 374z" />
<glyph unicode="&#x3a9;" horiz-adv-x="1464" d="M128 0v136h304q-130 126 -207 299t-77 389q0 198 71 344t203 225t310 79t310 -79t203 -225t71 -344q0 -216 -77 -389t-207 -299h304v-136h-514v126q146 108 242 280t96 414q0 232 -106 376t-322 144t-322 -144t-106 -376q0 -242 96 -414t242 -280v-126h-514z" />
<glyph unicode="&#x3aa;" horiz-adv-x="548" d="M-18 1702q0 48 26 76t72 28q48 0 74 -27t26 -75q0 -50 -26 -77t-74 -27q-46 0 -72 27t-26 75zM200 0v1448h148v-1448h-148zM368 1702q0 48 26 76t72 28q48 0 74 -27t26 -75q0 -50 -26 -77t-74 -27q-46 0 -72 27t-26 75z" />
<glyph unicode="&#x3ab;" horiz-adv-x="1172" d="M56 1448h166l366 -754l364 754h164l-458 -928v-520h-148v520zM292 1702q0 48 26 76t72 28q48 0 74 -27t26 -75q0 -50 -26 -77t-74 -27q-46 0 -72 27t-26 75zM678 1702q0 48 26 76t72 28q48 0 74 -27t26 -75q0 -50 -26 -77t-74 -27q-46 0 -72 27t-26 75z" />
<glyph unicode="&#x3ac;" horiz-adv-x="1246" d="M114 522q0 300 120 436t302 136q126 0 206 -60t124 -178q18 122 66 238l124 -40q-46 -104 -81 -271t-35 -295q0 -200 42 -286t128 -86q42 0 72 8l14 -122q-44 -16 -110 -16q-100 0 -161 57t-79 167q-46 -106 -118 -171t-200 -65q-198 0 -306 147t-108 401zM264 524 q0 -182 66 -296t198 -114q104 0 168 68t92 167t28 199q0 170 -65 292t-211 122q-276 0 -276 -438zM506 1230v22l104 316h170v-20l-164 -318h-110z" />
<glyph unicode="&#x3ad;" horiz-adv-x="988" d="M126 274q0 110 62 177t144 87q-176 58 -176 248q0 132 99 219t307 87q196 0 330 -86l-54 -114q-58 32 -121 51t-147 19q-140 0 -204 -53t-64 -131q0 -92 74 -133t182 -41h142v-122h-142q-136 0 -209 -47t-73 -143q0 -92 69 -139t197 -47q86 0 162 15t146 57l54 -116 q-122 -88 -366 -88q-220 0 -316 85t-96 215zM504 1230v22l104 316h170v-20l-164 -318h-110z" />
<glyph unicode="&#x3ae;" horiz-adv-x="1182" d="M148 1054l124 40q16 -36 40 -118l12 -44q74 82 168 122t194 40q148 0 233 -90t85 -248v-1170h-144v1160q0 102 -55 155t-161 53q-74 0 -151 -27t-139 -79v-848h-144v686q0 118 -12 199t-50 169zM484 1230v22l104 316h170v-20l-164 -318h-110z" />
<glyph unicode="&#x3af;" horiz-adv-x="724" d="M188 340v728h144v-708q0 -126 49 -185t153 -59q54 0 110 18l24 -124q-68 -24 -156 -24q-160 0 -242 89t-82 265zM194 1230v22l104 316h170v-20l-164 -318h-110z" />
</font>
</defs>
</svg>
