<svg xmlns="http://www.w3.org/2000/svg" xmlns:xlink="http://www.w3.org/1999/xlink" version="1.1" id="Capa_1" x="0px" y="0px" viewBox="0 0 511.995 511.995" style="enable-background:new 0 0 511.995 511.995;" xml:space="preserve">
										<g>
											<path d="M438.057,141.696c-6.046,0-11.729,2.355-16.004,6.629l-95.806,95.806c-8.825,8.825-8.825,23.184,0,32.009     c4.275,4.274,9.959,6.629,16.004,6.629s11.729-2.354,16.004-6.629l64.339-64.339c2.929-2.93,2.929-7.678,0-10.607     c-2.929-2.928-7.678-2.928-10.606,0l-64.339,64.339c-1.442,1.442-3.359,2.236-5.397,2.236c-2.039,0-3.956-0.794-5.398-2.236     c-1.442-1.441-2.236-3.358-2.236-5.396c0-2.039,0.794-3.956,2.236-5.397l95.806-95.807c1.441-1.441,3.358-2.235,5.397-2.235     c2.039,0,3.956,0.794,5.397,2.235c1.442,1.442,2.236,3.359,2.236,5.398c0,2.039-0.794,3.955-2.235,5.396l-6.765,6.765     c-2.929,2.93-2.929,7.678,0,10.607c2.929,2.928,7.678,2.928,10.607,0l6.765-6.765c4.275-4.274,6.629-9.958,6.629-16.004     s-2.354-11.729-6.629-16.005C449.787,144.05,444.103,141.696,438.057,141.696z"></path>
											<path d="M500.347,135.642l-33.604-33.604c-15.511-15.511-40.75-15.509-56.26,0l-55.294,55.294l-18.196-56.003     c-1.711-5.268-5.372-9.553-10.306-12.067c-4.935-2.514-10.553-2.957-15.82-1.245l-37.891,12.312     c-0.993,0.323-2.082,0.104-2.841-0.575c-6.527-5.818-13.664-11.006-21.212-15.418c-0.876-0.512-1.42-1.478-1.42-2.521V41.981     c0-11.433-9.301-20.734-20.733-20.734h-88.253c-11.433,0-20.733,9.302-20.733,20.734v39.852c0,1.044-0.543,2.01-1.419,2.521     c-7.538,4.408-14.666,9.592-21.185,15.405c-0.76,0.677-1.848,0.897-2.843,0.576L54.422,88.016     c-10.873-3.533-22.593,2.438-26.126,13.312L1.025,185.26c-1.711,5.267-1.27,10.885,1.245,15.82     c2.515,4.934,6.8,8.594,12.067,10.306l37.88,12.309c0.995,0.323,1.746,1.139,1.96,2.129c1.851,8.555,4.574,16.95,8.094,24.953     c0.411,0.934,0.285,2.041-0.329,2.886l-23.404,32.212c-3.255,4.48-4.571,9.96-3.704,15.43c0.866,5.471,3.811,10.275,8.291,13.53     l36.539,26.549c1.331,0.968,2.874,1.434,4.402,1.434c2.319-0.001,4.606-1.072,6.074-3.093c2.435-3.351,1.692-8.041-1.659-10.476     l-36.541-26.549c-1.239-0.9-2.053-2.229-2.293-3.741c-0.239-1.513,0.125-3.028,1.025-4.268l23.404-32.214     c3.736-5.143,4.474-11.94,1.924-17.739c-3.116-7.084-5.526-14.515-7.164-22.087c-1.339-6.189-5.932-11.256-11.986-13.223     l-37.88-12.309c-1.457-0.474-2.642-1.485-3.337-2.851c-0.695-1.364-0.817-2.918-0.344-4.375l27.272-83.932     c0.978-3.008,4.219-4.657,7.225-3.682l37.917,12.32c6.043,1.962,12.734,0.566,17.46-3.646     c5.778-5.153,12.095-9.746,18.774-13.652c5.457-3.191,8.847-9.119,8.847-15.471V41.981c0-3.162,2.572-5.734,5.733-5.734h88.253     c3.162,0,5.733,2.572,5.733,5.734v39.832c0,6.354,3.392,12.282,8.851,15.473c6.69,3.909,13.015,8.507,18.799,13.664     c4.725,4.212,11.414,5.61,17.459,3.644l37.89-12.312c1.457-0.474,3.01-0.351,4.374,0.345c1.365,0.695,2.377,1.881,2.851,3.337     l20.558,63.272l-61.378,61.378c-5.4,5.4-7.893,13.125-6.668,20.662l1.336,8.226c0.645,3.969-0.667,8.035-3.51,10.878     l-7.147,7.147l-1.493-1.493c-7.702-7.701-20.236-7.702-27.939,0.001l-9.815,9.814c-7.702,7.702-7.703,20.236,0,27.94     l14.958,14.958l-14.789,14.789l-16.289-22.42c-3.737-5.142-9.976-7.94-16.27-7.313c-7.751,0.775-15.527,0.774-23.274-0.003     c-6.294-0.626-12.535,2.169-16.274,7.313l-23.388,32.191c-0.9,1.239-2.229,2.054-3.742,2.293     c-1.512,0.243-3.027-0.124-4.268-1.024l-6.309-4.583c-3.352-2.436-8.041-1.691-10.476,1.659     c-2.435,3.352-1.691,8.041,1.66,10.476l6.308,4.583c3.581,2.602,7.8,3.965,12.144,3.965c1.09,0,2.189-0.086,3.287-0.26     c5.47-0.866,10.275-3.81,13.531-8.291l23.387-32.191c0.615-0.845,1.624-1.308,2.641-1.205c8.739,0.875,17.524,0.878,26.268,0.003     c1.017-0.11,2.026,0.36,2.639,1.204l17.685,24.342l-40.193,40.193c-1.452,1.452-3.16,2.561-5.079,3.296l-33.035,12.661     c-7.097,2.72-12.599,8.397-15.094,15.576l-10.182,29.294c-2.018,5.809-0.513,12.37,3.834,16.718l14.019,14.019     c3.066,3.065,7.232,4.718,11.46,4.718c1.767,0,3.545-0.289,5.257-0.884l29.294-10.182c7.179-2.494,12.856-7.996,15.577-15.094     l12.66-33.035c0.735-1.918,1.845-3.627,3.297-5.079l65.721-65.721l14.959,14.959c3.852,3.852,8.911,5.776,13.97,5.776     c5.059,0,10.119-1.926,13.97-5.776l9.815-9.815c7.703-7.703,7.703-20.237,0-27.94l-1.492-1.492l7.146-7.146     c2.843-2.844,6.908-4.158,10.879-3.51l8.225,1.335c7.539,1.226,15.262-1.267,20.662-6.666l128.576-128.576     c7.514-7.515,11.652-17.505,11.652-28.131C512,153.147,507.862,143.157,500.347,135.642z M197.313,415.868     c-2.95,2.95-5.203,6.422-6.697,10.318l-12.66,33.035c-1.135,2.96-3.501,5.253-6.495,6.294l-29.294,10.181     c-0.412,0.145-0.877,0.036-1.187-0.272l-14.019-14.019c-0.309-0.309-0.416-0.774-0.272-1.186l10.182-29.294     c1.04-2.992,3.334-5.359,6.294-6.494l33.034-12.66c3.897-1.493,7.369-3.746,10.318-6.696l65.721-65.721l10.795,10.795     L197.313,415.868z M315.746,355.291l-9.816,9.815c-1.854,1.855-4.872,1.855-6.726,0l-20.251-20.251     c-0.004-0.004-0.007-0.008-0.011-0.012c-0.004-0.004-0.008-0.007-0.012-0.011l-21.382-21.382     c-0.003-0.003-0.005-0.006-0.008-0.009s-0.006-0.005-0.009-0.008l-20.253-20.253c-1.855-1.855-1.855-4.873-0.001-6.728     l9.815-9.814c1.855-1.856,4.873-1.854,6.727,0l6.795,6.795c0,0,0,0,0.001,0.001c0,0,0,0,0,0.001l55.129,55.128     C317.601,350.42,317.601,353.437,315.746,355.291z M489.742,181.295L361.165,309.871c-2,2-4.858,2.921-7.65,2.468l-8.224-1.335     c-8.714-1.417-17.646,1.464-23.891,7.708l-7.147,7.147l-37.727-37.726l7.146-7.146c6.244-6.243,9.126-15.175,7.709-23.892     l-1.336-8.226c-0.454-2.79,0.469-5.649,2.468-7.648l128.576-128.576c9.663-9.663,25.385-9.663,35.048,0l33.604,33.605     c4.681,4.681,7.259,10.904,7.259,17.523C497,170.391,494.422,176.615,489.742,181.295z"></path>
											<path d="M182.663,241.77c24.192,0,43.873-19.682,43.873-43.873s-19.682-43.873-43.873-43.873     c-24.192,0-43.873,19.682-43.873,43.873S158.471,241.77,182.663,241.77z M182.663,169.023c15.921,0,28.874,12.953,28.874,28.874     s-12.953,28.874-28.874,28.874c-15.921,0-28.874-12.953-28.874-28.874S166.742,169.023,182.663,169.023z"></path>
											<path d="M182.663,265.556c37.307,0,67.659-30.352,67.659-67.659s-30.352-67.659-67.659-67.659s-67.659,30.353-67.659,67.659     S145.355,265.556,182.663,265.556z M182.663,145.238c29.037,0,52.659,23.623,52.659,52.659s-23.623,52.659-52.659,52.659     s-52.659-23.623-52.659-52.659S153.626,145.238,182.663,145.238z"></path>
										</g>
									</svg>