<?xml version="1.0" encoding="utf-8"?>
<!-- Generator: Adobe Illustrator 23.0.4, SVG Export Plug-In . SVG Version: 6.00 Build 0)  -->
<svg version="1.1" id="Layer_1" xmlns="http://www.w3.org/2000/svg" xmlns:xlink="http://www.w3.org/1999/xlink" x="0px" y="0px"
	 viewBox="0 0 800 800" style="enable-background:new 0 0 800 800;" xml:space="preserve">
<style type="text/css">
	.st0{fill:#FFFFFF;}
	.st1{fill:#F72121;}
	.st2{fill:#46960C;}
	.st3{fill:#060403;}
	.st4{fill:#050303;}
	.st5{fill:#070404;}
	.st6{fill:#090707;}
	.st7{fill:#070102;}
	.st8{fill:#F7F7F7;}
	.st9{fill:#FCFDFD;}
	.st10{fill:#F4F8F5;}
	.st11{fill:#FA3E9C;}
	.st12{fill:#010100;}
	.st13{fill:#050603;}
</style>
<g>
	<polygon class="st0" points="247.9,622.6 261.3,494.8 310,465.8 407.6,449.6 479.6,446.7 528.9,479.2 570.2,546.5 594,622.5 	"/>
	<path class="st1" d="M42.6,276.7c-0.4,1.4-0.7,2.4-1,3.4c-0.9,2.8-1.2,5.6-2,8.4c-0.1,0.5-0.2,1-0.3,1.4c-0.2,0.7-0.3,1.5-0.7,2.1
		c-0.5,0.8-1.4,0.3-2.1,0.4c-1.1,0.2-1.6,1-2.5,2c0.3-2.3,0.9-4.1,1.7-5.9C37.5,284.5,39.3,280.4,42.6,276.7z"/>
	<path class="st1" d="M31.1,312.7c-0.2-5.7,0.6-10.8,2.4-15.8c-0.1,1.8-0.2,3.6-0.4,5.4c-0.1,1.6-0.3,3.1,0.1,4.7
		c0.1,0.5,0,1.2,0.1,1.7c0.1,0.8-0.2,1.4-0.7,2C32.1,311.2,31.7,311.8,31.1,312.7z"/>
	<path class="st2" d="M41.5,324.7c0.3,0,0.5,0.1,0.5,0.5C41.7,325.2,41.6,325,41.5,324.7z"/>
	<path class="st1" d="M654.7,622.8c0,0.4,0,0.9-0.5,1c-0.7,0.1-1.5,0.1-2.2,0.1c-14.9,0-29.7,0-44.6,0c-11,0-21.9,0-32.9,0
		c-0.9,0-1.8-0.1-2.7-0.1c0.2-0.6,0.4-1.3,0.4-1.9c0.2-4.4,0.5-8.8-0.3-13.2c-1-5.3-2-10.6-2.5-15.9c-0.3-3.2-0.7-6.4-1.9-9.5
		c-0.1-0.3-0.1-0.7-0.1-1c-0.2-0.9-0.3-1.8-0.5-2.7c-0.6-2.3-1.6-4.5-1.9-6.9c0-0.4-0.3-0.8-0.4-1.2c-0.3-0.7-0.5-1.4-0.7-2.1
		c-0.6-2.7-1.4-5.5-2.6-8c-1.3-2.7-2.2-5.5-3.3-8.3c-0.4-1.1-1.1-2-1.6-3.1c-2-4.7-4.2-9.4-7.2-13.6c-0.1-0.1-0.2-0.3-0.2-0.4
		c-1.7-4.1-4.5-7.5-7.1-11c-2-2.7-4.3-5-6.6-7.4c-1.5-1.6-3.4-2.9-4.6-4.9c-0.1-0.1-0.2-0.3-0.3-0.4c-2.4-2.1-4.7-4.2-7.1-6.3
		c-0.3-0.3-0.7-0.5-1-0.7c-1.4-1-2.9-1.9-4.2-3c-2-1.8-4.5-2.8-6.7-4.2c-1.1-0.7-2.3-1.2-3.5-1.9c-1.5-1-3-2.1-4.7-2.8
		c-3.6-1.6-6.8-4.1-10.5-5.6c-1.2-0.5-2.2-1.5-3.4-2c-1.1-0.5-2.2-0.8-3.2-1.3c-2.5-1.4-5.1-2.3-7.8-3.3c-6.6-2.7-13.4-4.4-20.2-6.2
		c-4-1.1-8-2-12.1-2.9c-3.7-0.8-7.5-1.3-11.2-2c-3.1-0.6-6.2-0.9-9.4-0.9c-1.4,0-2.9,0.1-4.2-0.2c-2.9-0.6-5.8-0.4-8.7-0.4
		c-2.4,0-4.8-0.1-7.2,0.4c-0.6,0.1-1.3,0-2-0.1c-1.6-0.3-3.2-0.7-4.9-0.9c-4.9-0.8-9.8-0.1-14.6,0.9c-1.9,0.4-3.7,0.7-5.6,1.2
		c-2.9,0.7-5.9,0.8-8.7,2.1c-0.2,0.1-0.5,0.1-0.7,0.1c-0.7-0.1-1.3,0.2-1.9,0.4c-4.2,0.9-8.2,2.5-12.4,3.5c-3.3,0.7-6.6,1.7-9.8,2.8
		c-1.3,0.4-2.4,1.1-3.7,1.3c-1.3,0.2-2.5,0.7-3.8,1.2c-2.6,0.9-4.9,2.5-7.5,3.3c-1.3,0.4-2.5,0.9-3.6,1.7c-1.2,0.7-2.5,1.3-3.8,1.9
		c-4.2,1.9-8.2,4.4-11.9,7.2c-4.6,3.4-9.1,6.9-13.5,10.6c-4.6,3.9-8.7,8.1-12.6,12.7c-1,1.1-1.8,2.4-2.8,3.5c-2,2.1-3.6,4.6-5.2,7
		c-1.8,2.8-3.7,5.5-5.4,8.4c-1.5,2.6-3,5.2-4.3,7.8c-1.6,3.3-3.2,6.5-4.4,10c-1,2.9-2,5.8-2.7,8.8c-0.5,2.2-1.6,4.2-1.5,6.5
		c-0.9,1.7-0.9,3.5-1.3,5.3c-0.6,2.5-0.8,5.1-1,7.7c-0.3,3.1-0.4,6.3-0.7,9.4c-0.2,2.1,0.2,4.3-0.2,6.4c-0.1,0.5,0.1,1,0.1,1.5
		c0.1,0.7,0.1,1.3,0.1,2c0,3.6-0.1,7.1,0.7,10.7c0.3,1.1,0.1,2.3,0.4,3.5c0.5,2.4,1.1,4.7,1.6,7c-0.6,0-1.1,0.1-1.7,0.1
		c-5.4,0-10.7,0-16.1,0c-0.6,0-1.1-0.1-1.7-0.1c0.5-1.6-0.1-3.1-0.6-4.6c-0.3-1.2-0.8-2.4-1.1-3.6c-0.6-2.5-1-5-1.8-7.5
		c-0.8-2.5-1.5-5-2-7.7c-0.3-1.8-0.9-3.5-1.1-5.3c-0.2-2.1-0.8-4.2-1-6.4c-0.2-2.6-1-5.2-0.9-7.9c-0.9-3.9-0.7-7.9-1.6-11.8
		c-0.1-0.2-0.1-0.5-0.1-0.7c-0.3-3.6-0.6-7.3-0.9-10.9c-0.3-3.3-0.5-6.6-0.8-9.9c-0.3-4-0.7-7.9-1.1-11.9c-0.1-0.9-0.1-1.8-0.2-2.7
		c-0.2-3.1-0.6-6.1-0.6-9.2c0-2.9-0.5-5.8-0.2-8.7c-0.6-4.2,0-8.5-0.5-12.7c-0.2-1.8,0-3.6,0.1-5.4c0.1-1.6-0.1-3.2,0.1-4.7
		c0.4-3.1,0.8-6.2,1.4-9.3c0.3-1.4,0.3-2.8,0.8-4.1c0.6-1.9,0.8-3.9,1.1-5.9c0.1-0.9,0-1.7-0.8-2.2c-0.6-0.4-1.7-0.1-2.5,0.6
		c-0.1,0.1-0.3,0.2-0.3,0.4c-0.5,1.6-1.9,2.8-2.1,4.5c-0.3,1.8-1.3,3.4-1.5,5.3c0,0.4-0.3,0.8-0.5,1.1c-0.2,0.5-0.6,0.8-1.1,0.8
		c-2.1,0.1-4.1,0.2-6.2,0.2c-3.2,0.1-6.3,0.1-9.5,0.1c-2.2,0-4.5,0.1-6.7,0c-3.7-0.2-7.3-0.5-10.9-0.7c-0.4,0-0.8-0.1-1.2-0.2
		c-2.4-0.4-4.7-0.8-7.1-1.2c-2.2-0.4-4.4-0.8-6.6-1.3c-2.1-0.5-4.1-1.1-6.2-1.7c-2.9-0.8-5.8-1.4-8.6-2.4c-4.9-1.7-10-2.9-15-4.5
		c-3.8-1.2-7.4-2.9-11.3-3.8c-0.2,0-0.3-0.1-0.4-0.2c-3.2-1.9-6.8-3.1-10-4.9c-2-1.1-4.2-2-6.2-3.1c-1.3-0.7-2.6-1.4-4-1.9
		c-1.3-0.5-2.6-1.2-3.7-2c-1.1-0.8-2.3-1.4-3.4-2.1c-1.1-0.7-2.3-1.4-3.4-2.1c-2.4-1.7-4.7-3.4-7.2-5c-1.7-1.1-3.2-2.4-4.6-3.8
		c-2.2-2.1-4.2-4.4-6.4-6.6c-2.1-2.1-4.1-4.3-6-6.7c-2-2.5-3.9-5-6.2-7.1c-0.5-0.5-1-1.1-1.4-1.7c-1.3-1.6-2.5-3.3-3.8-4.9
		c-1.8-2.3-3.7-4.5-5.2-7c-1.8-2.8-3.6-5.5-5.1-8.5c-1-2-2.2-3.9-3.1-6c-2.2-5.1-4.4-10.2-6.3-15.5c-2.1-5.8-3.6-11.7-5.1-17.7
		c-0.6-2.3-1-4.7-1.9-7c-0.6-1.6-0.5-3.4-0.8-5.4c1.5,0.6,2.8,0.8,4.1,0.7c0.3,0,0.6,0.3,0.6,0.7c0.5,2.4,1.5,4.6,2,6.9
		c0.8,3.7,2.7,6.9,4.5,10.2c0.1,0.2,0.3,0.4,0.4,0.6c2,1.9,4.3,3.4,7.1,3.9c2,0.3,3.9,1,5.8,1.5c1.6,0.4,3.1,1.1,4.8,1.3
		c1.9,0.3,3.6,1.3,5.5,1.4c0.7,0,1.3,0,2,0.2c5,1.3,6,1.4,11,1.2c0.6,0,1.2,0,1.7,0.1c1,0.2,1.9,0.4,2.9,0.6
		c1.8,0.3,3.7,0.4,5.4,0.1c1.9-0.3,3.6-0.2,5.4,0.3c0.4,0.1,0.8,0.2,1.2,0.3c1.9,0.1,3.8,0.1,5.7,0.2c2.5,0,5-0.3,7.5,0
		c1.2,0.1,2.5,0.1,3.7,0c3.2-0.3,6.4-0.2,9.6-0.7c0.4-0.1,0.8,0,1.2,0c2.6-0.2,5.2-0.5,7.9-0.9c4.1-0.6,7.9-2,11.6-3.6
		c1.5,0.1,3.1,0,4.6,0.2c1.4,0.2,2.3-0.4,2.9-1.6c0.1-0.3,0.3-0.6,0.4-0.9c1.6-0.4,3.1-0.9,4.4-2c2.7-2.3,4.9-4.9,6.4-8.1
		c0.2-0.4,0.4-0.7,0.7-1.1c1.4-1.6,2-3.7,3.4-5.2c0.2-0.2,0.4-0.6,0.4-0.9c0.1-1.2,0.9-2.1,1.7-3c0.6-0.7,1-1.5,1.4-2.3
		c0.7-1.6,1.7-3,2.6-4.5c0.5-0.8,0.9-1.6,1.3-2.4c0.5,0.7,1.1,1.5,1.6,2.3c0.8,1.3,1.5,2.6,2.3,3.8c2.3,3.4,4.6,6.7,6.9,10
		c1.2,1.8,2.8,3.2,4,5c0.9,1.3,2.1,2.6,3.1,3.9c3,4,6,7.9,9.4,11.5c0.2,0.2,0.5,0.5,0.7,0.7c1.2,2.2,3.2,3.8,4.9,5.6
		c2.7,2.9,5.7,5.5,8.6,8.3c1.4,1.3,2.9,2.4,4.3,3.7c1.8,1.6,3.9,2.8,6.2,3.6c0.8,0.3,1.5,0.8,2.4,0.4l-0.1,0
		c0.1,0.1,0.3,0.3,0.4,0.4c0.8,0.5,1.7,1.1,2.5,1.6c0.9,0.6,1.3,1.4,1.1,2.5c-0.1,0.6-0.2,1.1-0.3,1.7c-0.1,0.6-0.3,1.1-0.4,1.7
		c-0.2,2.6-0.1,5.1,0.2,7.7c0.1,0.5,0.1,1.1,0.7,1.4c1.3-1.4,2.3-3,3.1-4.8c0.6,0.3,1.3,0.4,1.9,0.1c0.6-0.3,1-0.8,1.3-1.5
		c0.6-1.5,1.3-2.9,1.7-4.4c1-3,1.8-6,3-9c0.7-1.8,1.2-3.6,1.8-5.4c0.8-2.1,1.6-4.2,2.6-6.2c0.8-1.7,1.9-3.3,2.8-4.9
		c2-3.4,4-6.9,5.9-10.4c2.1-3.9,4.5-7.5,6.7-11.3c1.2-2,2.4-4,3.6-5.9c3.4-5.4,6.9-10.7,10.8-15.7c3.1-4,6.1-8.1,9.5-11.8
		c1.9-2.1,3.7-4.3,5.6-6.3c2.2-2.3,5-4.1,7-6.7c0.1-0.1,0.3-0.2,0.4-0.3c0.8-0.2,1.2-0.8,1.8-1.3c1.6-1.4,3.3-2.8,5-4.1
		c3.5-2.6,7.1-5.2,10.6-7.8c1.5-1.1,3.3-2,4.8-3.1c2.5-1.9,5.5-3.1,8-5c0.5-0.3,1.1-0.5,1.6-0.6c0.7-0.2,1.4-0.6,1.9-1.2
		c0.5-0.1,1-0.2,1.4-0.4c1.4-0.7,2.8-1.3,4.3-1.7c1.5-0.4,2.8-1.2,4.3-1.7c2.8-0.9,5.5-2.2,8.2-3.3c0.7-0.3,1.4-0.5,1.7-1.3l0-0.1
		c0.5,0.1,1-0.1,1.3-0.5c2.4-0.8,4.8-1.7,7.3-2.4c2.4-0.7,4.9-1.3,7.4-1.9c0.9-0.2,1.8-0.3,2.7-0.6c3.2-1.1,6.6-1.4,9.9-2.2
		c3.4-0.9,7-1.3,10.4-2.2c1.4-0.4,2.9-0.8,4.3-1c2-0.3,4.1-0.6,6.2-0.8c3.5-0.3,6.9-0.6,10.4-0.9c2.2-0.2,2.9-1,3-3.4
		c0.3,0,0.7,0,1,0.1c-0.3,0.5-0.7,1-0.4,1.6c0.3,0.7,0.9,1,1.5,1.2c0.3,0.1,0.7,0.1,1,0.1c3.1,0.7,6.3,0.4,9.4,0.8
		c6.1,0.7,12.2,1.7,18.1,3c4,0.9,7.9,2.1,11.6,3.6c3.4,1.4,7.1,2.4,10.3,4.2c0.8,0.5,1.8,0.6,2.5,1.1c1.3,1,2.9,1.6,4.3,2.5
		c2.4,1.5,5,2.7,7.3,4.2c2.4,1.5,4.9,2.8,7.1,4.5c2.8,2.1,5.9,3.7,8.8,5.6c2,1.2,3.9,2.5,5.9,3.8c2.1,1.4,4.1,2.8,6.1,4.2
		c2.4,1.7,4.7,3.3,7.1,5c0.1,0,0.1,0.1,0.2,0.2c2.2,2.2,4.7,4,7,5.9c1.5,1.2,2.6,2.8,4.1,3.9c1.5,1.1,2.9,2.3,4.1,3.6
		c1.1,1.3,2.2,2.5,3.4,3.6c1.1,1.1,2.2,2.1,3.2,3.2c2.9,3.3,5.8,6.6,8.7,9.9c3,3.5,6.1,6.8,8.9,10.4c3.4,4.4,6.6,8.9,9.7,13.6
		c1.3,2,2.7,4,4.1,6c1.3,2,2.7,4,3.9,6c1.6,2.6,3.3,5.2,5,7.7c0.3,0.4,0.5,0.9,0.9,1.2c0.6,0.5,0.9,1.2,1.2,1.9
		c1.3,2.9,3.3,5.4,4.8,8.1c1.8,3.2,3.9,6.4,5.8,9.6c2.2,3.7,4.2,7.5,6.3,11.3c0.7,1.2,1.6,2.4,2,3.7c0.6,1.8,1.5,3.3,2.3,4.9
		c0.8,1.7,1.8,3.3,2.2,5.2c-3.8,1.2-7.7,1.9-11.3,3.3c-3.7,1.4-7.6,2.3-11.1,4.2c-3.4,1.8-6.9,3.3-9.9,5.7c-0.3,0.2-0.6,0.4-0.9,0.5
		c-1.2,0.5-2.2,1.2-3.1,2c-3.1,2.6-6.4,5-9.4,7.8c-1.4,1.3-2.8,2.5-4.3,3.8c-1.3,1.1-2.3,2.4-3.2,3.8c-0.4,0.5-0.4,1.1,0,1.6
		c0.3,0.5,1.1,0.6,1.8,0.2c0.7-0.4,1.4-0.9,2.1-1.4c1.2-0.8,2.2-1.8,3.5-2.3c0.9,0.2,1.7-0.2,2.4-0.6c1.8-1,3.7-1.9,5.4-3.1
		c1.8-1.3,3.9-1.9,5.8-2.7c1.1-0.5,2.3-0.8,3.5-1.3c1.2-0.5,2.5-0.9,3.7-1.4c1.7-0.6,3.4-1.3,5.2-1.8c2.4-0.7,4.9-1.4,7.4-2.1
		c2.1-0.6,4.1-1.2,6.2-1.9c1.8-0.5,3.7-1,5.5-1.6c2.4-0.8,4.7-1.7,7.1-2.4c2.9-0.7,5.7-1.7,8.6-2.5c0.7-0.2,1.4-0.5,2.2-0.6
		c3.9-0.5,7.9-1,11.9-1c2.1,0,4.1,0.3,6.2,0.5c5.5,0.5,11.1,1,16.6,1.4c5.6,0.4,11.1,1.1,16.5,2c1.7,0.3,3.4,0.5,5.1,1.2
		c3.1,1.3,6.3,2.6,9.3,4.1c3,1.5,5.5,3.7,8.6,4.9c1.6,1.5,3.6,2.4,5.4,3.4c2.6,1.5,5.1,3.1,7.6,4.7c0.4,0.2,0.8,0.4,1,0.7
		c1,1.4,2.7,1.9,3.6,3.4c2.1,1.2,3.3,3.2,4.9,4.9c2.5,2.7,4.7,5.6,6.9,8.4c1.4,1.8,2.8,3.7,4.1,5.6c1.6,2.4,3.6,4.5,5.1,7
		c0.3,0.5,0.8,0.8,1.2,1.2c0.2,0.8,0.7,1.5,1,2.2c1,1.8,2.6,3.3,3.2,5.3c-0.5,2.2,0.5,4.1,1.3,5.9c1,2.2,2.4,4.3,3.6,6.5
		c0.5,0.9,1.1,1.9,1.5,2.9c0.8,2.2,2.5,4.1,2.6,6.6c0,0.3,0.2,0.6,0.3,0.9c1.7,4.3,3,8.8,4.4,13.2c1.3,4.2,2.4,8.4,3.3,12.7
		c0.3,1.5,0.1,3.2,0.6,4.7c0.5,1.6,0.4,3.1,0.4,4.6c0,1.4,0.2,2.8,0.1,4.2c-0.2,3-0.4,6-0.8,8.9c-0.3,2.2-1,4.4-1.5,6.5
		c-0.6,2.6-1.3,5.1-1.9,7.7c-0.2,0.7-0.4,1.4-0.6,2.1c-0.8,2.6-2.1,5-2.9,7.7c-0.5,1.8-1.5,3.5-2.6,5.1c-3.1,4.1-6.6,7.7-10.6,10.8
		c-0.4,0.3-7.3,3.5-7.8,3.7c-2.2,0.5-4.3,1.2-6.5,1.8c-2.1,0.6-4.2,1-6.3,1.4c-3.8,0.7-7.6,1-11.4,1.4c-2.8-0.1-5.2-1.6-7.9-2
		c-2.2-1.4-4.8-1.8-7-3.1c-1.5-0.8-3.2-1.4-4.5-2.6c-1.3-1.1-2.8-2.1-4-3.3c-1.4-1.4-3-2.7-3.9-4.5c-0.7-1.2-1.3-2.5-2-3.7
		c-1.7-3.4-3-7-4.9-10.4c-0.5-0.9-0.6-1.9-1.1-2.8c-1.5-2.6-2-5.6-3.6-8.2c0-0.1-0.1-0.2-0.1-0.2c-0.5-1.8-1.2-3.4-1.9-5.1
		c-1.4-3.3-2.9-6.5-4.1-9.9c-0.7-2.1-1.8-4.1-2.3-6.3c-0.1-0.6-0.4-1.1-0.7-1.6c-1.2-2.5-2.4-4.9-3.5-7.4c-1.1-2.5-2.4-4.9-4.2-7
		c-0.2-0.2-0.4-0.5-0.6-0.8c-1-2.1-2.2-4.1-4-5.6c-0.4-0.4-0.8-0.9-1.1-1.4c-0.6-1.1-1.4-2.1-2.4-2.9c-1.3-1.1-2.5-2.4-3.8-3.6
		c-0.2-0.2-0.5-0.4-0.8-0.6c-3.3-2.6-6.8-5-10.5-7.1c-6.1-3.5-12.4-6.2-19.4-7.4c-3.7-0.7-7.4-0.8-11.1-0.9
		c-4.7-0.2-9.3,0.7-13.9,1.1c-1.1,0.1-2.1,0.5-3.1,0.9c-0.3,0.1-0.7,0.1-1,0.1c-3.1,0.4-6,1.3-8.8,2.5c-2.9,1.2-5.7,2.8-8.5,4.2
		c-0.6,0.3-0.9,0.6-1.2,1.2c-0.2,0.5-0.3,1,0.1,1.4c0.4,0.5,0.9,0.8,1.5,0.6c1.6-0.6,3.4-0.7,4.9-1.7c0.5-0.3,1.1-0.5,1.6-0.6
		c1-0.3,2.1-0.5,3.1-0.8c4.9-1.4,9.7-2.9,14.8-2.9c0.2,0,0.5,0,0.7-0.1c2.6-0.4,5.3-0.3,8-0.3c1.2,0,2.4-0.1,3.5,0.1
		c2.2,0.5,4.4,0.3,6.6,0.8c1.4,0.3,2.8,0.5,4.1,1c0.7,0.2,1.4,0.4,2.1,0.7c1.3,0.4,2.8,0.7,4,1.3c2.8,1.3,5.5,2.7,8.1,4.3
		c4,2.3,7.7,5.2,11.2,8.3c2.1,1.9,4.2,4,5.9,6.3c1.5,2,2.7,4.2,4.3,6.1c0.5,0.6,0.6,1.3,0.4,2.1c-0.3,1.4-0.2,2.8,0.2,4.2
		c0.8,3.1,1.8,6.2,2.1,9.5c0.2,2.2,0.7,4.4,0.8,6.7c0.1,3.3,0.6,6.6,0.8,9.9c0.3,4.5,0.5,9,0.7,13.4c0.1,2.8,0.3,5.6,0.4,8.4
		c0.1,2.2,0.1,4.5,0.2,6.7c0,0.7,0,1.3,0.1,2c0.2,1.9-0.2,3.8-0.2,5.7c0,1.2-0.2,2.5-0.4,3.7c-0.3,1.7-0.3,3.3-0.3,5
		C653.6,621.8,654,622.3,654.7,622.8z M393.4,456.4c2,0.2,4-0.9,5.8-2.4c2.4-2.1,4.4-4.4,5.5-7.6c1.7-4.8,2.7-9.6,2.7-14.6
		c0-1.6-0.1-3.2,0-4.7c0.2-3.1,0-6.1-0.2-9.1c-0.2-3.7-0.3-7.4-0.6-11.2c-0.3-3.3-0.5-6.6-1-9.9c-0.3-2-0.5-3.9-0.7-5.9
		c-0.3-2.1-0.5-4.1-0.8-6.2c-0.3-2.4-0.8-4.7-1-7.1c-0.3-2.7-1-5.2-1.9-7.7c-0.6-1.6-1.1-3.1-1.2-4.8c0-1-0.5-1.9-0.8-2.9
		c-0.2-0.5-0.5-0.9-1-1.1c-1.6-0.8-3.5,0-4,1.7c-0.1,0.3-0.2,0.7-0.1,1c0.1,0.8-0.4,1.2-1,1.5c-3.3,1.8-6.4,3.9-9.3,6.2
		c-3.3,2.7-6.8,5-10.6,6.9c-4.7,2.4-9.6,4.1-14.7,5.4c-3.1,0.8-6.4,0.9-9.6,0.6c-0.8-0.1-1.5-0.3-2.1-0.8c-0.8-0.6-0.9-1-0.5-1.9
		c0.3-0.7,0.8-1.3,1.1-2c0.4-0.9-0.2-1.9-1.2-1.9c-0.6,0-1.2,0.1-1.6,0.5c-0.4,0.4-0.9,0.7-1.3,1.1c-2.2,2.5-2.8,5.2-0.2,7.7
		c0.8,0.8,1.6,1.4,2.7,1.7c2.5,0.9,5,1.3,7.6,1c1.3-0.1,2.6-0.3,4-0.4c0.9-0.1,1.2,0.2,1.4,1c0.4,2.4,0.9,4.7,1.2,7.1
		c0.4,2.9,1,5.7,1.6,8.5c0.9,4.4,2.1,8.7,3.5,12.9c1.2,3.5,2.5,7,3.9,10.5c0.6,1.6,1.5,3.1,2.2,4.7c1.3,3.2,3.2,6.2,4.9,9.2
		c1,1.7,2.3,3,3.4,4.5c1.8,2.5,4.1,4.6,6.7,6.3C388.1,455.8,390.3,456.6,393.4,456.4z M325.6,352.7c-1.3,1.6-2.3,3.1-3.9,4.1
		c-1.3,0.8-2.5,1.9-3.6,3c-1.8,1.9-4,3.5-5.9,5.4c-1.3,1.2-2.6,2.3-3.9,3.5c-1.1,1-2.2,2-3.3,3c-1.7,1.7-1.8,4-0.4,5.8
		c0.6,0.7,1.2,1.1,2.1,1.1c1.3,0,2.7-0.2,3.8-1.1c1.5-1.2,3-2.4,4.5-3.6c0.2-0.2,0.4-0.5,0.6-0.8c0.5-0.9,1.2-1.6,2.1-2
		c0.5-0.2,0.9-0.7,1.4-1.1c1.7-1.5,3.3-3,5-4.5c1.2-1.1,2.6-2.1,3.5-3.5c1.9-1.1,3.3-2.7,4.9-4.2c1.2-1.1,2.4-2.3,3.5-3.5
		c0.7-0.7,1.2-1.7,1-2.7c-0.5-2.2-1.5-4-3.9-4.7c-1.4-0.4-2.6-1-4.1-0.9c-0.6,0.1-1.1-0.2-1.6-0.5c-0.5-0.3-1.1-0.5-1.6-0.6
		c-4.7-1.5-9.4-3.2-14-5.2c-2.1-0.9-4.2-2-6.3-3c-0.8-0.4-1.7-0.8-2.6-0.4c-2.3,1-2.7,3.3-0.8,5c0.2,0.2,0.5,0.4,0.8,0.6
		c0.8,0.8,2,1.2,2.9,1.9c2.7,2,5.8,3.3,8.8,4.6C318.1,350,321.7,351.3,325.6,352.7z M400.7,332c0.5-1.1,1.2-2.1,2.1-3
		c0.9-1,1.8-2,2.5-3.1c1.9-3,4.2-5.5,6.3-8.3c1.2-1.6,2.4-3.1,3.8-4.6c1.4-1.6,0.7-4-0.6-5.2c-1.2-1.1-3-0.9-4.5,0.6
		c-1.5,1.6-2.8,3.3-4.2,4.9c-1.9,2.3-3.6,4.8-5.6,7c-2.8,3-4.9,6.4-7.7,9.3c-0.4,0.4-0.8,0.8-1.1,1.3c-1.4,2.1-0.6,4.6,1.7,5.6
		c0.7,0.3,1.4,0.5,2,1c1.1,0.8,2.4,1.2,3.6,1.7c1.5,0.6,3.2,1,4.7,1.5c0.9,0.3,1.7,0.6,2.6,0.8c3.3,0.7,6.6,1.4,10,2.1
		c2,0.5,4,1.1,6,1.6c1.8,0.4,3.5,1,5.3,1.3c2.6,0.4,3.9-0.5,4.6-3c0.5-1.7,0-2.8-1.5-3.8c-0.9-0.6-1.9-1-2.9-1.3
		c-5.5-1.5-11.1-2.8-16.7-3.8c-2.7-0.5-5.4-0.9-8.1-1.4C402.2,332.9,401.3,332.7,400.7,332z M375,302c-0.4,2.6,0.7,5,1.6,7.4
		c0.6,1.8,2.8,3,4.6,2.4c2.6-0.8,4.9-1.9,6.3-4.5c1.5-2.9,3.5-5.5,6.4-7.1c0.8-0.4,1.6-1,2.4-1.3c1.4-0.5,2.1-1.5,2.6-2.8
		c0.4-1,0.3-2,0.5-2.9c0.1-0.7-0.2-1.3-0.7-1.8c-1-0.9-1.9-1.9-3.1-2.4c-2.2-1-4.7-0.9-7-1.3c-2.7,0.6-5.5,1.1-8,2.6
		c-1,0.6-1.5,1.5-2.2,2.3c-1.2,1.5-2.6,3.1-3,5.1C375.1,299.1,374.7,300.5,375,302z M338.1,319.2c-0.1-1.1,0-2.1-0.4-3.2
		c-0.9-2.9-2.9-4.8-5.4-6.2c-2.5-1.4-5.2-1.9-8.1-2.1c-2.8-0.1-5,0.7-7.2,2.3c-1.9,1.3-3.2,3-4.2,5.1c-0.7,1.5-0.9,2.9-0.6,4.3
		c0.6,3.5,2.9,5.1,6.7,4.3c1.4-0.3,2.7-0.7,4.1-1c1.3-0.3,2.6-0.4,3.9-0.6c0.7-0.1,1.3,0.1,1.8,0.6c0.4,0.3,0.7,0.7,1.1,1
		c1.2,1.1,2.7,1.4,4.2,1.3c2.5-0.2,4.2-2.2,4.2-4.8C338.2,319.9,338.1,319.5,338.1,319.2z M289.2,394.1c0-0.9-0.8-3.1-1.5-4.1
		c-1.6-2.2-3.1-4.4-4.7-6.7c-0.3-0.5-0.7-0.9-1.1-1.3c-1-0.9-2.1-1.1-3.4-0.4c-1.3,0.6-1.9,1.6-1.7,3c0.2,1.3,0.5,2.6,1.4,3.7
		c0.4,0.4,0.8,0.9,1,1.4c0.5,1.1,1.5,1.7,2.2,2.6c0.8,1,1.7,1.8,2.7,2.5c0.8,0.5,1.6,1,2.4,1.3C288,396.4,289.2,395.5,289.2,394.1z
		 M438.9,344.7c0,0.6,0.1,1.3,0.6,1.7c1.5,1.3,2.9,2.7,4.5,3.9c1.9,1.4,3.5,1,4.9-0.9c0.5-0.7,0.7-1.5,0.3-2.3
		c-1.3-2.5-3.2-4.4-5.8-5.5C441.4,340.7,439,342.4,438.9,344.7z M459.8,341.6c-0.1-0.2-0.1-0.5-0.3-0.8c-1.5-2.8-3.9-4.7-6.7-6
		c-0.9-0.4-1.8-0.1-2.6,0.3c-1.5,0.8-1.8,2.4-0.6,3.7c1.3,1.4,2.7,2.7,4,4.1c0.8,0.8,1.8,1.2,2.8,1.5
		C458,344.9,459.9,343.4,459.8,341.6z M299.9,391c0.3,0,0.5,0,0.7,0c0.8,0,1.2-0.3,1-1.1c-0.3-1.3-0.6-2.5-1.2-3.7
		c-0.9-1.8-2.5-2.8-3.8-4.2c-0.6-0.6-1.4-0.9-2.3-0.9c-1.2,0-2.6,1.1-2.9,2.3c-0.3,1.2,0,2.3,1,3.1c0.8,0.6,1.6,1.2,2.2,2
		C296,390.4,298.1,390.7,299.9,391z"/>
	<path class="st3" d="M419.5,265.8c-0.1,2.4-0.8,3.2-3,3.4c-3.5,0.3-6.9,0.6-10.4,0.9c-2.1,0.2-4.1,0.5-6.2,0.8
		c-1.4,0.2-2.9,0.6-4.3,1c-3.4,0.9-7,1.3-10.4,2.2c-3.3,0.8-6.7,1.1-9.9,2.2c-0.9,0.3-1.8,0.4-2.7,0.6c-2.5,0.6-5,1.1-7.4,1.9
		c-2.5,0.7-4.8,1.6-7.3,2.4c-0.5,0-1-0.1-1.3,0.5c0,0,0,0.1,0,0.1c-0.3,0.1-0.7,0.1-1,0.2c-4,1.5-8.1,2.9-12.1,4.4
		c-2.5,1-5.1,1.9-7.5,3.2c-1.9,0.7-3.7,1.3-5.6,2.1c-1.4,0.6-2.9,1.2-4.3,1.8c-1.7,0.7-3.4,1.7-5,2.7c-3.6,2-7.3,4-10.6,6.5
		c-2.5,1.1-4.3,3-6.5,4.5c-1.5,1-2.7,2.5-4.4,3.2c-0.3,0.1-0.4,0.5-0.7,0.7c-0.7,0.6-1.3,1.3-2,1.8c-3.3,2.7-6.6,5.3-9.6,8.3
		c-2.3,2.3-4.6,4.5-6.8,6.9c-1.4,1.4-2.3,3.2-4,4.5c-1.9,3.3-4.5,6-6.4,9.2c-2.3,3.8-4.8,7.5-7.2,11.4c-1.2,2-2.2,4.1-3.3,6.1
		c-0.7,1.4-1.8,2.7-2.2,4.1c-0.6,1.9-1.6,3.7-2.5,5.4c-1.1,2-2.1,4-2.9,6.2c-1.7,4.6-3.7,9.1-5.2,13.7c-1.8,5.6-3.5,11.2-5.1,16.8
		c-0.3,1.1-1.1,2-1.5,3c-0.4,1.1-0.9,2.1-1.5,3.1c-0.3,0.4-0.6,0.8-0.7,1.3c-0.8,1.7-1.7,3.3-3.1,4.8c-0.6-0.3-0.7-0.9-0.7-1.4
		c-0.3-2.5-0.4-5.1-0.2-7.7c0-0.6,0.3-1.1,0.4-1.7c0.1-0.6,0.2-1.1,0.3-1.7c0.2-1.1-0.3-1.9-1.1-2.5c-0.8-0.6-1.6-1.1-2.5-1.6
		c0-0.2-0.2-0.4-0.4-0.4l0.1,0c-0.5-0.8-1.3-1.3-1.9-1.9c-2.8-2.5-5.7-4.8-8.4-7.3c-1.9-1.8-3.7-3.8-5.5-5.7c-2.4-2.6-4.8-5.2-7-8
		c-2.3-2.9-4.5-5.9-6.7-8.9c-2.6-3.5-5.4-6.9-8.1-10.3c-1.9-2.5-3.7-5.1-5.5-7.6c-2.8-4.1-5.5-8.3-8.1-12.6c-0.2-0.4-0.4-0.8-1-0.8
		c-0.5,1.2-0.9,2.4-1.8,3.4c-0.2,0.2-0.1,0.6-0.2,1c-0.4,0.8-0.8,1.6-1.3,2.4c-0.9,1.5-1.9,2.9-2.6,4.5c-0.4,0.8-0.9,1.6-1.4,2.3
		c-0.7,0.9-1.5,1.7-1.7,3c0,0.3-0.2,0.7-0.4,0.9c-1.4,1.5-2,3.6-3.4,5.2c-0.3,0.3-0.5,0.7-0.7,1.1c-1.5,3.2-3.7,5.8-6.4,8.1
		c-1.3,1.1-2.8,1.7-4.4,2c-1.4-0.2-2.8,0.1-4.1-0.5c-0.2-0.1-0.6,0-0.7,0.2c-0.8,1.2-2.3,1.6-3.1,2.7c-3.7,1.6-7.5,3-11.6,3.6
		c-2.6,0.4-5.2,0.6-7.9,0.9c-0.4,0-0.8-0.1-1.2,0c-3.2,0.5-6.4,0.4-9.6,0.7c-1.2,0.1-2.5,0.2-3.7,0c-2.5-0.3-5,0-7.5,0
		c-1.9,0-3.8-0.1-5.7-0.2c-0.4,0-0.8-0.1-1.2-0.3c-1.8-0.5-3.5-0.6-5.4-0.3c-1.8,0.3-3.6,0.2-5.4-0.1c-1-0.2-1.9-0.4-2.9-0.6
		c-0.6-0.1-1.2-0.2-1.7-0.1c-5,0.2-6,0.1-11-1.2c-0.6-0.2-1.3-0.2-2-0.2c-1.9,0-3.6-1.1-5.5-1.4c-1.6-0.2-3.2-0.9-4.8-1.3
		c-1.9-0.5-3.8-1.2-5.8-1.5c-2.8-0.5-5-2-7.1-3.9c-0.2-0.2-0.3-0.4-0.4-0.6c-1.7-3.3-3.6-6.6-4.5-10.2c-0.5-2.4-1.5-4.6-2-6.9
		c-0.1-0.4-0.3-0.7-0.6-0.7c-1.3,0.1-2.6-0.1-4.1-0.7c0.3,2.1,0.2,3.8,0.8,5.4c0.9,2.3,1.3,4.6,1.9,7c1.4,6,3,11.9,5.1,17.7
		c1.9,5.2,4.1,10.3,6.3,15.5c0.9,2.1,2.1,4,3.1,6c1.5,3,3.3,5.7,5.1,8.5c1.6,2.4,3.4,4.7,5.2,7c1.3,1.6,2.5,3.3,3.8,4.9
		c0.5,0.6,0.9,1.2,1.4,1.7c2.3,2.2,4.2,4.7,6.2,7.1c1.9,2.3,3.9,4.6,6,6.7c2.2,2.2,4.2,4.5,6.4,6.6c1.4,1.4,2.9,2.7,4.6,3.8
		c2.5,1.6,4.8,3.3,7.2,5c1.1,0.8,2.2,1.5,3.4,2.1c1.1,0.7,2.3,1.3,3.4,2.1c1.1,0.8,2.4,1.5,3.7,2c1.4,0.5,2.7,1.2,4,1.9
		c2,1.1,4.2,2,6.2,3.1c3.3,1.8,6.8,3,10,4.9c0.1,0.1,0.3,0.2,0.4,0.2c3.9,0.9,7.5,2.6,11.3,3.8c5,1.6,10.1,2.8,15,4.5
		c2.8,1,5.8,1.6,8.6,2.4c2.1,0.6,4.1,1.2,6.2,1.7c2.2,0.5,4.4,0.9,6.6,1.3c2.4,0.4,4.7,0.8,7.1,1.2c0.4,0.1,0.8,0.1,1.2,0.2
		c3.6,0.3,7.3,0.6,10.9,0.7c2.2,0.1,4.5,0,6.7,0c3.2,0,6.3-0.1,9.5-0.1c2.1,0,4.1-0.1,6.2-0.2c0.6,0,0.9-0.3,1.1-0.8
		c0.2-0.4,0.4-0.8,0.5-1.1c0.1-1.9,1.2-3.5,1.5-5.3c0.3-1.7,1.7-2.9,2.1-4.5c0-0.1,0.2-0.3,0.3-0.4c0.8-0.7,1.9-1,2.5-0.6
		c0.8,0.5,0.9,1.4,0.8,2.2c-0.3,2-0.6,4-1.1,5.9c-0.4,1.4-0.5,2.8-0.8,4.1c-0.6,3.1-1.1,6.2-1.4,9.3c-0.2,1.6,0,3.1-0.1,4.7
		c-0.2,1.8-0.3,3.7-0.1,5.4c0.4,4.2-0.2,8.5,0.5,12.7c-0.3,2.9,0.2,5.8,0.2,8.7c0,3.1,0.4,6.1,0.6,9.2c0.1,0.9,0.1,1.8,0.2,2.7
		c0.4,4,0.7,7.9,1.1,11.9c0.3,3.3,0.5,6.6,0.8,9.9c0.3,3.6,0.6,7.3,0.9,10.9c0,0.2,0.1,0.5,0.1,0.7c1,3.9,0.8,7.9,1.6,11.8
		c-0.2,2.7,0.6,5.2,0.9,7.9c0.2,2.1,0.7,4.2,1,6.4c0.2,1.8,0.7,3.5,1.1,5.3c0.5,2.6,1.2,5.1,2,7.7c0.8,2.4,1.2,5,1.8,7.5
		c0.3,1.2,0.8,2.4,1.1,3.6c0.4,1.5,1.1,3,0.6,4.6c-0.6,0.4-1.2,1-1.8,1.3c-1.3,0.7-2.7,0.4-3.6-0.7c-0.5-0.7-1-1.4-1.2-2.2
		c-0.6-2.7-1.8-5.2-2.1-7.9c-0.2-1.4-0.8-2.7-1.2-4.1c-0.8-2.9-1.5-5.8-2.2-8.7c-0.2-1-0.3-2-0.4-2.9c-0.4-2.3-0.8-4.5-1.2-6.8
		c-0.2-0.8-0.3-1.6-0.3-2.5c0-0.4,0.1-0.9-0.1-1.2c-0.6-1.5-0.6-3.1-0.6-4.7c0-0.6-0.1-1.1-0.3-1.7c-0.4-1.2-0.6-2.4-0.3-3.7
		c0.2-0.7,0.3-1.6-0.1-2.2c-0.7-1.2-0.6-2.6-0.7-3.9c-0.2-2.1-0.6-4.3-0.8-6.4c-0.4-3.9-0.9-7.7-0.9-11.6c0-1.2,0-2.5-0.5-3.7
		c-0.1-0.3-0.2-0.6-0.2-1c-0.2-2.9-0.5-5.8-0.7-8.7c-0.3-3.3-0.6-6.6-0.7-9.9c-0.1-4.4-0.7-8.8-0.3-13.2c0-0.5,0.1-1,0-1.5
		c-0.7-3.5-0.3-7.1-0.4-10.7c-0.2-4.2,0.2-8.5,0.7-12.7c0.2-1.3,0.4-2.6,0.4-4c-0.7-0.3-1.3,0.2-1.9,0.2c-0.7,0-1.3,0.1-2,0.2
		c-1.6,0.2-3.1,0.6-4.7,0.7c-3.1,0.2-6.1,0.5-9.2,0.5c-3.4,0-6.8,0-10.1-0.3c-4.8-0.4-9.7-1-14.5-1.9c-4.2-0.7-8.4-1.7-12.6-2.7
		c-1.8-0.4-3.7-1-5.5-1.6c-2.1-0.8-4.3-1.4-6.5-1.9c-1.3-0.3-2.5-0.7-3.8-1.2c-2-0.7-4.1-1.2-6.2-1.8c-2.2-0.6-4.4-1.5-6.6-2.3
		c-2.3-0.8-4.7-1.6-7-2.5c-0.9-0.4-1.9-0.6-2.8-1.1c-1.6-0.8-3.1-1.5-4.8-2.1c-2.3-0.9-4.4-2.2-6.6-3.3c-1.7-0.9-3.4-1.8-5.1-2.6
		c-3.6-1.8-7.1-3.6-10.4-5.8c-0.7-0.5-1.5-0.8-2.2-1.2c-0.6-0.3-1.3-0.5-1.7-1c-1-0.9-2-1.6-3.2-2.2c-1.1-0.5-2-1.5-3-2.2
		c-2.2-1.6-4.4-3.3-6.3-5.3c-1.9-2-3.9-3.8-5.8-5.8c-1.4-1.4-2.6-3-3.9-4.5c-0.7-0.8-1.5-1.5-2.2-2.3c-5.8-6.4-11.4-13-16.3-20.1
		c-5.6-8.1-10.3-16.7-14.1-25.8c-3.7-8.9-6.7-18.1-8.7-27.5c-1-4.7-1.8-9.5-2.6-14.2c-0.3-2-0.6-3.9-0.9-5.9
		c-0.1-0.8-0.5-1.6-0.8-2.4c-1-2.4-1.4-4.9-1.3-7.6c0.1-1.8,0-3.6,0.4-5.5c0.2-0.9,0.1-1.8,0-2.7c-0.5-3.1-0.5-6.1-0.3-9.2
		c0.1-1.3-0.1-2.7,0-4c0.4-3.4,0.4-6.9,1.3-10.3c0.9-3.3,1.2-6.6,2.8-9.7c0.5-1,0.6-2.2,1-3.3c1-2.7,2.3-5.3,3.8-7.8
		c2.1-3.4,4.1-6.8,6.8-9.7c1.1-1.2,1.9-2.5,2.9-3.7c0.2-0.2,0.3-0.4,0.5-0.6c2.6-2.1,3.6-5,4.6-8c0.4-1.3,1.1-2.6,1.6-3.9
		c0.2-0.5,0.4-1.1,0.6-1.6c0.1-0.3,0.1-0.7,0.3-1c1.4-2.2,2-4.8,3.3-6.9c0.5-0.8,0.9-1.6,1-2.5c0-0.6,0.3-1.1,0.7-1.6
		c0.8-1.1,1.3-2.3,1.8-3.5c2.1-4.7,4.5-9.2,7.1-13.7c1-1.7,1.9-3.5,2.9-5.2c1.9-2.9,3.6-5.9,5.4-8.9c0.8-1.3,1.4-2.8,2.7-3.8
		c1.4-2.7,3.6-4.9,5.3-7.5c0.6-0.9,1.3-1.5,2.1-2.1c3.4-2,6.9-3.9,10.6-5.3c1.3-0.5,2.5-1.1,4-0.9c0.8,0.1,1.7-0.5,2.6-0.8
		c0.8-0.3,1.5-0.7,2.4-0.6c0.2,0,0.6,0.1,0.7-0.1c1.5-1.2,3.3-0.7,5-0.9c0.8-0.1,1.6-0.1,2.4-0.4c0.7-0.3,1.6-0.3,2.4-0.3
		c2.6,0,5.3-0.2,7.9-0.3c0.5,0,0.7-0.2,0.8-0.7c0.2-1.4,0.9-2.7,1.3-4c0.9-3,2.2-5.9,3.4-8.8c1-2.4,2-4.7,3.2-7
		c0.6-1.2,1-2.5,1.5-3.7c1.6-3.4,2.9-6.9,4.4-10.3c1.1-2.5,2.2-5,3.9-7.2c0.5-0.6,0.7-1.3,0.9-2c0.5-1.6,1-3.4,2.6-4.4
		c0.5-0.4,0.6-1,0.8-1.5c1.1-2.5,3.4-3.6,6.1-3c2.3,0.5,4.6,0.7,6.9,0.8c3.9,0.2,7.8,0.3,11.6,0.5c1.4,0.1,2.8,0.3,4.1,0.8
		c1.9,0.6,3.8,1,5.7,1.6c1.2,0.4,2.2,1.1,3.3,1.6c0.3,0.1,0.5,0.5,0.8,0.5c2.1,0.3,3.6,1.7,5.4,2.5c1.2,0.5,1.8,1.3,2.1,2.5
		c0.2,0.8,0.6,1.6,0.4,2.4c-0.6,2.4-0.2,5-1.6,7.2c-0.1,0.2-0.2,0.5-0.2,0.7c-0.5,4.7-2.2,9.2-3.3,13.8c-1,4.1-2,8.2-3.3,12.2
		c-1,3.2-1.6,6.6-2.2,9.9c-0.3,1.5-0.6,3.1-0.5,4.7c0.1,0.9-0.3,1.8-0.7,2.6c-0.3,0.5-0.2,1,0.3,1.3c0.4,0.3,0.8,0.6,1.1,1
		c0.3,0.4,0.6,0.5,1.1,0.4c0.5-0.1,1,0,1.5,0.1c3,0.6,4.7,2.6,6.1,5c2.1,3.6,3.3,7.6,4.7,11.5c0.3,0.9,0.6,1.9,0.8,2.9
		c0.2,1.1,0.6,2.2,0.9,3.3c1.3,3.9,2.6,7.8,3,12c0.1,1.5,0.3,3,1,4.3c0.3,0.5,0.4,1.1,0.5,1.7c0.1,1.7,0.5,3.3,1,4.8
		c0.6,1.8,0.5,3.6,0.5,5.4c0,0.5,0,1.1-0.3,1.4c-0.9,1.3-0.8,2.9-1.3,4.3c-0.2,0.6-0.1,1.3-0.2,2c0,0.1,0.1,0.3,0.2,0.3
		c0.2,0.1,0.3,0,0.4-0.2c0.3-0.4,0.2-1,0.9-1.1c-0.3,3.8-0.3,7.6-0.8,11.4c-0.5,3.7-1.4,7.3-2,11c-0.5,2.9-1.2,5.7-2.1,8.4
		c-0.2,0.7-0.2,1.5-0.4,2.2c-0.7,2.7-1.6,5.4-2.6,8c-0.7,1.7-1,3.5-1.6,5.2c-0.9,2.8-1.7,5.6-2.8,8.2c-1,2.4-1.5,4.9-2.9,7.1
		c-0.3,0.4-0.4,0.9-0.5,1.4c-0.1,1-0.4,1.9-1.1,2.7c-0.2,0.2-0.3,0.6-0.4,0.9c-0.6,2.4-1.5,4.6-2.5,6.7c-0.4,0.9-0.3,1.6,0.2,2.3
		c1.3,2.1,2.5,4.3,3.9,6.4c2.2,3.5,4.4,7.1,6.8,10.4c2,2.8,3.6,5.7,6,8.2c1.2,1.2,2,2.6,3,3.9c2.5,3.4,5,6.8,7.5,10.2
		c2,2.7,4,5.4,6.4,7.9c0.9,0.9,1.7,1.9,2.4,2.9c0.7,1,1.7,1.8,2.6,2.7c3.6,3.6,7.3,7.2,11.2,10.5c1.2,1,2.4,2,3.8,3.2
		c0.7-1.7,0.8-3.3,1.3-4.8c1.6-4.6,2.7-9.4,4.7-13.9c0.9-2.1,1.5-4.4,2.4-6.5c0.8-1.9,1.6-3.9,2.5-5.7c0.9-1.8,1.7-3.6,2.6-5.3
		c1.1-2,2-4.2,3.1-6.2c2-4,4.4-7.8,6.6-11.7c1.5-2.8,3.5-5.2,5-8c0.1-0.1,0.2-0.3,0.3-0.4c0.7-1.1,2-1.7,2.5-3
		c0.5-1.3,1.4-2.2,2.2-3.3c1-1.3,2.1-2.6,3.3-3.7c0.8-0.7,1.4-1.6,2-2.5c2.1-2.9,4.6-5.4,7.3-7.7c1.1-1,2.1-2.1,3.2-3.1
		c2.9-2.6,6-5,9.1-7.4c3.1-2.3,6.2-4.7,9.3-7.1c1.1-0.8,2.3-1.6,3.6-2.3c1.4-0.7,2.5-1.9,3.9-2.6c2.5-1.3,4.7-3,7.3-4.2
		c2-0.9,3.8-2,5.7-3c0.5,0,1,0,1.3-0.5l0,0c1.1,0,1.3-0.2,1.6-1c0,0,0,0,0,0c0.4,0.3,0.8,0.1,1.2-0.1c1.3-0.5,2.6-1.1,3.9-1.6
		c4.4-1.7,8.8-3.3,13.2-5.2c3.5-1.5,7.2-2.5,10.7-3.8c1.6-0.6,3.4-0.9,5-1.4c2.8-0.8,5.5-1.9,8.4-2.1c0.2,0,0.5-0.1,0.7-0.2
		c3.1-1.1,6.3-1.5,9.4-2.1c1.5-0.3,3.1-0.4,4.7-0.7c2.4-0.6,4.9-1.1,7.3-1.4c0.3,0,0.6-0.2,0.9-0.4c3-0.6,6-1.2,9-1.7
		c3.7-0.7,7.5-0.7,11.3-0.7c1.1,0,2.3,0.2,3.4,0.2C417.3,264.1,418.5,264.6,419.5,265.8z M42,325.1L42,325.1
		c-0.1,2.1-0.1,4.1,0.5,6.2c0.5,1.8,0.9,3.5,1.3,5.3c0.2,1.1,0.1,2.2,0.4,3.2c1,2.9,1.2,6,2.1,8.9c1.2,3.6,1.9,7.4,2.2,11.2
		c0.1,1.1,0.6,1.9,1.6,2.3c1.2,0.4,2.3,0.8,3.6,1c2.3,0.4,4.6,0.7,6.8,1.1c1.4,0.3,2.8,0.1,4.2,0.6c1,0.3,1.9,0.5,2.9,0.7
		c1,0.2,2.2-0.3,3.2,0.5c1,0.7,2-0.1,2.9,0.2c1,0.3,2,0.3,3,0.4c1.5,0,3,0.2,4.5,0.4c1.6,0.1,3.1,0.6,4.7,0.6
		c4.2,0,8.5-0.3,12.7,0.6c0.2,0,0.3,0.1,0.5,0c1.3-0.4,2.6-0.3,3.9-0.2c2,0.1,4.1,0.1,6.1,0.2c2.1,0.1,4.1-0.3,6.2,0
		c0.2,0,0.5,0,0.7-0.1c0.7-0.3,1.5-0.2,2.2-0.2c2.3-0.1,4.7-0.1,7-0.2c0.9,0,1.9-0.5,2.7-0.3c1.2,0.3,2.4,0.1,3.4-0.2
		c2-0.6,4.1-0.8,6.1-1.1c3.2-0.4,6.4-0.7,9.6,0c1.6,0.4,3.2,0.2,4.7-0.8c1.7-1.2,3.2-2.4,4.2-4.1c1.6-2.8,3.6-5.4,5.3-8.2
		c1.3-2.2,2.6-4.4,3.7-6.7c0.6-1.3,1.2-2.6,2-3.7c1.2-1.7,2.2-3.5,3-5.5c0.2-0.5,0.4-0.9,0.8-1.3c1.1-1,1.7-2.2,1.9-3.7
		c0.1-0.4,0.3-0.8,0.5-1.2c2-3.9,3.8-7.9,5.3-12.1c0.7-1.9,1.8-3.8,2.3-5.8c1.1-3.8,2.9-7.4,3.9-11.3c1.3-2.1,1.3-4.8,2.6-6.9
		c0.3-2.8,1.7-5.3,2.4-8c0.8-3,2.2-5.9,3-9c0.1-0.3,0.2-0.6,0.4-0.9c1-1.4,1.3-3.1,1.4-4.7c0.2-2.8-0.1-5.6,0.4-8.4
		c0.4-2.4,0.5-4.8,0.9-7.2c0.2-1.1,0.2-2.2-0.6-3.1c-0.7-1-1-2.1-1.2-3.2c-0.1-0.4-0.1-0.8-0.2-1.2c-1.4-4.7-1.9-9.6-3.2-14.3
		c-0.1-2.9-1.4-5.6-2.1-8.4c-0.8-3-1.8-6-2.8-9c-0.2-0.6-0.3-1.1-0.6-1.6c-0.4-0.9-0.7-1.8-0.9-2.8c-0.2-1.4-0.9-2.6-1.6-3.9
		c-0.9-1.8-2.8-2.9-3.4-4.8c0-0.1-0.2-0.3-0.4-0.3c-1.3-0.7-2.4-1.7-4-1.9c-1.4-0.2-2.7-0.6-4.2-0.6c-1.2-0.1-2.3-0.2-3.4-0.6
		c-1.9-0.7-3.7-1.5-5.7-1.5c-3-1.1-6.2-1.2-9.2-1.8c-2.8-0.6-5.7-0.8-8.6-1.1c-1.2-0.1-2.4-0.7-3.7-0.5c-1.2,0.1-2.3-0.1-3.5-0.3
		c-1.3-0.2-2.6-0.8-3.9-0.5c-1.3,0.4-2.6,0.3-3.9,0c-1.2-0.2-2.3-0.6-3.6-0.4c-2.2,0.3-4.5,0.2-6.7,0.1c-1.1-0.1-2-0.7-3.1-0.4
		c-1.1,0.3-2.3,0.4-3.4,0.6c-0.6,0.1-1.1,0.2-1.7,0.2c-3.5,0.2-7.1,0.4-10.5,1.4c-0.2,0-0.3,0.1-0.5,0c-1-0.4-1.8,0.1-2.6,0.5
		c-0.7,0.4-1.5,0.6-2.3,0.8c-1.3,0.4-2.6,0.5-3.9,0.6c-1.5,0.2-2.6,0.8-3.6,1.9c-2.1,2.2-3.3,4.9-5,7.4c-1.4,2-2.7,3.9-3.8,6.1
		c-1,2-2.4,3.8-3.4,5.8c-2.1,3.8-4.2,7.7-6.2,11.6c-1.3,2.4-2.5,4.8-3.6,7.3c-0.5,1.2-1.1,2.4-1.9,3.5c-0.8,1.3-1.4,2.6-1.9,4.1
		c-0.2,0.6-0.4,1.3-0.7,1.9c-1.3,3-2.6,5.9-3.9,8.9c-1.3,3-2.6,6.1-3.7,9.2c-1.2,3.2-2.7,6.2-4,9.3c-0.6,1.4-1.3,2.7-1.7,4.1
		c-0.6,2-1.2,4-2.4,5.7c-0.2,0.3-0.2,0.6-0.4,0.9c-1.2,2.9-1.9,6-2.8,9c-0.6,2.1-0.8,4.2-1.2,6.4c-0.3,1.5-0.4,2.9-0.4,4.4
		c0,0.9,0.1,1.7,0.9,2.5c0.8,0.8,1.1,1.9,0.9,3c-0.2,1-0.2,2.2-0.8,3.1c-0.3,0.5-0.3,1.1-0.2,1.7c0.2,2.4,0.8,4.7,0.7,7.2
		c0,0.5,0.1,1,0.5,1.4C41.6,325,41.7,325.2,42,325.1z M132.9,184.6c0.9,0.8,1.9,0.7,2.9,0.7c1.8-0.1,3.6,0.2,5.4,0.5
		c2.6,0.4,5.3,0.5,7.9,0.6c1.6,0.1,3.4,0.2,4.9,0.8c1.6,0.7,3.3,0.5,4.8,1.1c2.9,0,5.7,0.9,8.5,1.8c1.3,0.4,2.6,0.8,4.1,1.3
		c0.5-1.5,1.4-2.7,0.8-4.4c-0.2-0.5,0-1.2,0.1-1.7c0.2-0.9,0.3-1.8,0.3-2.7c0-0.6,0-1.2,0.1-1.7c1-3.5,0.8-7.1,1.2-10.6
		c0.3-2.9,1-5.7,0.7-8.6c0.5-1.6,0.2-3.3,0.7-4.9c0.2-0.5,0.1-1.2-0.1-1.8c-0.8-0.3-1.7-1-2.7-1c-2.3-0.2-4.5-0.8-6.8-1
		c-3.4-0.3-6.7-1-10.1-1.5c-0.6-0.1-1.2-0.1-1.7-0.2c-0.3,0-0.7,0-0.8,0.4c-0.4,1-1.3,1.7-1.7,2.7c-0.9,2.1-2,4.2-3.3,6.1
		c-0.6,1-1.5,1.8-1.9,2.9c-1.4,3.7-3.8,6.8-5.9,10.1C137.7,177.1,135.5,181.1,132.9,184.6z M42.6,276.7c-3.3,3.7-5.1,7.8-6.9,11.9
		c-0.8,1.8-1.4,3.7-1.7,5.9c0.9-0.9,1.4-1.8,2.5-2c0.7-0.1,1.6,0.3,2.1-0.4c0.4-0.6,0.5-1.4,0.7-2.1c0.1-0.5,0.2-1,0.3-1.4
		c0.7-2.8,1-5.7,2-8.4C41.9,279.1,42.2,278.1,42.6,276.7z M31.1,312.7c0.6-0.9,1-1.5,1.5-2c0.5-0.6,0.8-1.2,0.7-2
		c-0.1-0.6,0-1.2-0.1-1.7c-0.4-1.6-0.2-3.1-0.1-4.7c0.1-1.8,0.3-3.6,0.4-5.4C31.7,301.9,30.8,307,31.1,312.7z"/>
	<path class="st4" d="M654.7,622.8c-0.7-0.4-1-1-1-1.9c0-1.7,0-3.3,0.3-5c0.2-1.2,0.4-2.5,0.4-3.7c0-1.9,0.3-3.8,0.2-5.7
		c-0.1-0.6,0-1.3-0.1-2c-0.1-2.2-0.1-4.5-0.2-6.7c-0.1-2.8-0.2-5.6-0.4-8.4c-0.2-4.5-0.4-9-0.7-13.4c-0.2-3.3-0.6-6.6-0.8-9.9
		c-0.1-2.3-0.6-4.4-0.8-6.7c-0.3-3.2-1.3-6.3-2.1-9.5c-0.4-1.4-0.5-2.8-0.2-4.2c0.2-0.8,0.1-1.5-0.4-2.1c-1.6-1.9-2.9-4.1-4.3-6.1
		c-1.7-2.4-3.8-4.4-5.9-6.3c-3.5-3.1-7.2-5.9-11.2-8.3c-2.7-1.5-5.4-2.9-8.1-4.3c-1.3-0.6-2.7-0.9-4-1.3c-0.7-0.2-1.4-0.4-2.1-0.7
		c-1.3-0.5-2.7-0.7-4.1-1c-2.2-0.5-4.4-0.3-6.6-0.8c-1.1-0.2-2.3-0.1-3.5-0.1c-2.7,0-5.3,0-8,0.3c-0.2,0-0.5,0.1-0.7,0.1
		c-5.1,0-10,1.5-14.8,2.9c-1,0.3-2.1,0.5-3.1,0.8c-0.6,0.2-1.1,0.3-1.6,0.6c-1.5,1-3.3,1.2-4.9,1.7c-0.6,0.2-1.1-0.1-1.5-0.6
		c-0.3-0.5-0.3-0.9-0.1-1.4c0.2-0.6,0.6-1,1.2-1.2c2.8-1.4,5.6-3,8.5-4.2c2.8-1.2,5.8-2.1,8.8-2.5c0.3,0,0.7,0,1-0.1
		c1-0.3,2-0.7,3.1-0.9c4.6-0.4,9.2-1.3,13.9-1.1c3.7,0.1,7.4,0.3,11.1,0.9c7,1.3,13.3,3.9,19.4,7.4c3.7,2.1,7.1,4.5,10.5,7.1
		c0.3,0.2,0.5,0.4,0.8,0.6c1.3,1.2,2.5,2.4,3.8,3.6c0.9,0.8,1.8,1.8,2.4,2.9c0.3,0.5,0.7,1,1.1,1.4c1.8,1.6,3,3.5,4,5.6
		c0.1,0.3,0.3,0.6,0.6,0.8c1.8,2.1,3.1,4.5,4.2,7c1.1,2.5,2.3,5,3.5,7.4c0.3,0.5,0.6,1,0.7,1.6c0.4,2.2,1.6,4.2,2.3,6.3
		c1.1,3.4,2.7,6.6,4.1,9.9c0.7,1.7,1.5,3.3,1.9,5.1c0,0.1,0,0.2,0.1,0.2c1.6,2.6,2.1,5.6,3.6,8.2c0.5,0.9,0.6,1.9,1.1,2.8
		c1.9,3.3,3.2,6.9,4.9,10.4c0.6,1.3,1.3,2.5,2,3.7c1,1.8,2.5,3.1,3.9,4.5c1.2,1.2,2.7,2.2,4,3.3c1.3,1.1,3,1.7,4.5,2.6
		c2.2,1.2,4.8,1.7,7,3.1c2.7,0.4,5.1,1.9,7.9,2c0.3,0.5,0.7,0.7,1.2,0.8c1.7,0.2,3.5,0.5,5.2,0.4c1.5-0.1,3-0.2,4.5-0.2
		c2.4,0,4.6-0.3,6.8-1c4.8-1.4,9.5-2.7,14-5c3.6-1.9,6.6-4.4,9.7-6.9c0.9-1.7,2.5-2.8,3.5-4.5c0.6-1,1.1-2,2-2.9
		c0.7-0.7,1.1-1.6,1.5-2.6c0.3-0.8,0.6-1.5,0.9-2.3c0.7-2.2,2.2-4.1,2.9-6.3c0.3-1.1,0.6-2.2,1-3.3c1.4-4.3,2.7-8.7,3.4-13.2
		c0.4-3.2,0.7-6.5,0.5-9.3c-0.1-1.3-0.2-2.6-0.1-3.9c0.1-3.3-0.2-6.6-0.8-9.9c-0.4-2.1-1.3-4.1-1.5-6.3c-0.1-1.5-0.2-3.2-1.1-4.6
		c-0.1-0.2,0-0.5-0.1-0.7c-0.2-1.3-0.6-2.6-0.8-3.9c-0.6-3.7-2-7.2-2.9-10.8c-0.1-0.6-0.4-1.1-0.7-1.6c-1.5-2.7-3-5.5-4.4-8.1
		c-0.3-0.2-0.3,1-0.8,0.1c-0.8-1.3-1.4-2.7-2.3-3.8c-1.8-2.4-3.3-4.9-4.8-7.5c-0.4-0.7-0.8-1.5-1.4-2c0-0.2,0-0.3-0.1-0.5
		c-1.2-2.2-2.3-4.3-3.5-6.4c-0.1-0.3-0.5-0.4-0.7-0.6c-1.6-4.1-4.2-7.4-6.7-10.9c-2.1-2.9-4.2-5.8-6.5-8.4c-2.7-3-5.3-6.1-8.2-9
		c-1.1-1.1-2.4-2.1-3.4-3.3c-2.2-2.6-5.1-4.5-7.4-7c-2.2-2.4-5.1-3.9-7.6-5.9c-3.1-2.5-6.6-4.4-10.2-6c-4.4-2-8.9-3.7-13.5-4.9
		c-2.4-0.6-4.8-1.4-7.2-1.8c-2.3-0.5-4.5-1.7-7-1.1c-0.1,0-0.2,0-0.2,0c-2.9-0.9-6-0.1-8.9-0.7c-0.2,0-0.3,0-0.5,0
		c-3.5,0.3-6.9,0.8-10.4,0.8c-0.4,0-0.8,0-1.2,0.1c-4.3,0.4-8.5,1.2-12.9,1.4c-0.3,0-0.7,0-1,0.1c-3.5,0.9-7,1-10.5,1.8
		c-4.6,1-9.3,1.5-13.9,2.6c-3.1,0.8-6.3,1.5-9.3,2.7c-3.8,1.4-7.5,2.9-11,5c-3.4,2.1-6.8,4-10,6.4c-1.7,1.3-3.3,2.7-5.2,3.9
		c-1.6,1-2.9,2.4-4.4,3.6c0,0,0,0.2,0,0.2c-1.3,0.6-2.3,1.6-3.5,2.3c-0.7,0.4-1.4,0.9-2.1,1.4c-0.7,0.4-1.5,0.2-1.8-0.2
		c-0.4-0.5-0.4-1.1,0-1.6c0.9-1.4,1.9-2.7,3.2-3.8c1.4-1.3,2.9-2.5,4.3-3.8c2.9-2.8,6.2-5.2,9.4-7.8c1-0.8,1.9-1.6,3.1-2
		c0.3-0.1,0.6-0.3,0.9-0.5c3-2.4,6.5-3.9,9.9-5.7c3.6-1.9,7.4-2.8,11.1-4.2c3.7-1.3,7.5-2.1,11.3-3.3c-0.4-1.9-1.4-3.5-2.2-5.2
		c-0.8-1.6-1.7-3.2-2.3-4.9c-0.4-1.3-1.4-2.4-2-3.7c-2.1-3.8-4.1-7.6-6.3-11.3c-1.9-3.2-3.9-6.4-5.8-9.6c-1.6-2.7-3.5-5.3-4.8-8.1
		c-0.3-0.7-0.6-1.3-1.2-1.9c-0.4-0.3-0.6-0.8-0.9-1.2c-1.7-2.6-3.4-5.1-5-7.7c-1.2-2-2.6-4-3.9-6c-1.3-2-2.7-4-4.1-6
		c-3.1-4.6-6.3-9.2-9.7-13.6c-2.8-3.6-5.9-7-8.9-10.4c-2.9-3.3-5.8-6.6-8.7-9.9c-1-1.1-2.1-2.1-3.2-3.2c-1.2-1.2-2.3-2.4-3.4-3.6
		c-1.2-1.4-2.6-2.5-4.1-3.6c-1.5-1.2-2.6-2.7-4.1-3.9c-2.4-2-4.9-3.7-7-5.9c-0.1-0.1-0.1-0.1-0.2-0.2c-2.4-1.7-4.7-3.4-7.1-5
		c-2-1.4-4.1-2.9-6.1-4.2c-1.9-1.3-3.9-2.5-5.9-3.8c-2.9-1.9-6-3.5-8.8-5.6c-2.3-1.7-4.8-3-7.1-4.5c-2.4-1.5-4.9-2.7-7.3-4.2
		c-1.4-0.9-3-1.5-4.3-2.5c-0.7-0.5-1.7-0.7-2.5-1.1c-3.2-1.9-6.9-2.9-10.3-4.2c-3.8-1.5-7.7-2.7-11.6-3.6c-6-1.3-12-2.4-18.1-3
		c-3.1-0.3-6.3,0-9.4-0.8c-0.3-0.1-0.7-0.1-1-0.1c-0.7-0.2-1.3-0.5-1.5-1.2c-0.2-0.6,0.1-1.1,0.4-1.6c1-0.7,2.1-0.9,3.3-1
		c4.3-0.2,8.6-0.5,12.9,0c2.8,0.3,5.6,0.6,8.4,1.2c3.1,0.7,6.2,0.7,9.2,1.6c0.5-0.7,0.5-1.4,0.5-2c0.8-8.6,2.1-17.2,3.6-25.7
		c2.5-13.2,5.5-26.2,10.4-38.7c1.4-3.6,3.1-7.2,5-10.6c1.7-2.8,3.6-5.4,6-7.6c2.5-2.2,5.4-3.8,8.8-4.4c3.4-0.6,6.7-0.2,9.7,1.4
		c3.1,1.6,6.3,2.9,9.6,4.2c3.4,1.4,6.7,2.9,9.7,5c4.1,2.7,7.4,6.2,9.6,10.6c2.7,5.3,3.4,10.9,2.7,16.7c-0.7,6.3-2.8,12.1-5.5,17.8
		c-3,6.3-6.6,12.1-10.5,17.8c-6.9,9.9-14.6,19.2-23,27.9c-0.5,0.5-1,1.1-1.5,1.7c0,0.1,0,0.1-0.1,0.3c0.8,0.5,1.6,1.1,2.4,1.6
		c2.7,1.6,5.4,3.1,8.2,4.7c0.4,0.2,0.9,0.5,1.3,0.8c1.2,1,2.4,1.7,3.8,2.3c1.4,0.6,2.6,1.7,3.9,2.6c2.6,1.7,5.3,3.4,8,5.1
		c1.8,1.2,3.7,2.3,5.1,3.9c0.9,1,2.4,1.1,3.2,2.3c2.2,1.3,4,3.2,6.1,4.7c0.2,0.1,0.4,0.3,0.6,0.5c3.4,3.1,6.8,6.1,10,9.3
		c2.4,2.3,4.7,4.7,6.9,7.2c2.6,2.8,5,5.8,7.6,8.5c2.5,2.6,4.9,5.4,7.2,8.2c3.2,3.9,6.3,7.9,9.2,12c2.7,3.8,5.3,7.8,8,11.6
		c1.3,1.8,2.6,3.7,3.7,5.6c1,1.8,2.1,3.5,3.2,5.3c1,1.6,2.1,3.2,3.1,4.7c1.2,1.8,2.5,3.5,3.4,5.5c0.2,0.4,0.3,0.8,0.6,1.1
		c2.9,4.1,5.3,8.5,7.8,12.7c1.9,3.1,3.7,6.3,5.3,9.6c0.8,1.6,1.8,2.9,2.5,4.5c1.6,3.4,3.3,6.8,5,10.2c0.1,0.3,0.3,0.6,0.4,0.9
		c1,2.1,1.1,2.1,3.4,1.7c2.8-0.5,5.6-0.8,8.3-1.3c1.7-0.3,3.4-0.5,5.2-0.8c0.6-0.1,1.2-0.1,1.7-0.2c0.7-0.1,1.5-0.1,2.2-0.2
		c3-0.5,6.1-0.8,9.1-1c2.1-0.1,4.3-0.6,6.4-0.6c5.1,0,10.3,0,15.4,0.8c3.5,0.6,7,1.3,10.4,2.4c1.6,0.5,3.4,0.8,5,1.3
		c3.9,1.4,7.9,2.5,11.6,4.4c3.5,1.8,6.9,3.5,10,5.9c2.9,2.2,5.9,4.3,8.6,6.7c2.4,2.2,5,4.4,7.2,6.8c1.5,1.6,3.3,3.1,4.8,4.7
		c2.9,3.2,6,6.2,8.6,9.6c2.3,3,4.6,6.1,6.8,9.2c1.2,1.6,2.3,3.3,3.2,5c1.7,3,3.4,6,5.4,8.9c2.5,3.6,4.7,7.4,6.7,11.3
		c1.8,3.6,3.7,7,5.4,10.6c1.1,2.2,2,4.6,3.3,6.7c1.4,2.1,2.1,4.3,2.6,6.6c0.9,3.5,1.7,7.1,2.3,10.7c0.4,2.4,1.1,4.7,1.7,7
		c0.6,2.2,1.1,4.5,1.2,6.8c0.1,2,0.3,4,0.4,6c0,1.6,0,3.1,0.1,4.7c0.1,1.5,0.1,3,0,4.5c-0.1,2.1-0.3,4.1-0.8,6.2
		c-0.3,1.3-0.5,2.6-0.7,3.9c-0.5,3.4-1.5,6.6-2.7,9.8c-0.7,1.9-1.6,3.8-2.2,5.8c-0.6,1.9-1.5,3.7-2.4,5.4c-0.9,1.7-1.5,3.5-2.9,4.9
		c-0.2,0.2-0.5,0.5-0.6,0.8c-0.7,2.6-2.6,4.4-4.3,6.3c-2,2.4-4.5,4.4-7.1,6.2c-1.4,0.9-2.9,1.9-4.5,2.6c-1.9,0.9-3.7,1.9-5.6,2.6
		c-0.9,0.4-1.9,0.8-2.9,0.8c-1.2,0-2,0.7-3.1,0.9c-3,0.5-5.9,1-8.8,1.4c-0.7,0.1-1.3,0.3-1.9,0.5c-4.8,2-9.7,1.9-14.7,0.7
		c-3.6-0.9-7.1-2.2-10.5-3.6c-0.6-0.3-1.3-0.4-1.9-0.6c-0.6-0.2-1.3-0.4-1.9-0.7c-2.8-1.4-5.7-2.6-8.3-4.5c-1.4-1-2.7-2.2-4-3.4
		c-1.7-1.6-3.2-3.3-4.7-5.1c-1.2-1.6-2.2-3.3-2.9-5.1c-0.1-0.4-0.4-0.7-0.6-1.1c-0.2-0.4-0.6-0.8-0.7-1.3c-0.8-2.3-1.9-4.5-3.1-6.7
		c-1.1-2.2-2.2-4.5-3-6.8c-1.7-4.7-3.9-9.1-5.7-13.7c-0.5-1.2-1-2.4-1.5-3.7c-0.5-1.2-0.9-2.4-1.4-3.7c-0.8,0.6-0.2,1.2-0.3,1.8
		c-0.1,0.7-0.2,1.4,0,2c0.4,1.6,0.2,3.1,0.3,4.7c0.5,4.5,0.5,8.9,0.8,13.4c0.2,2.6,0,5.3,0.1,7.9c0.1,2.6,0.1,5.1,0.2,7.7
		c0.2,4.3-0.3,8.5-0.9,12.6c-0.3,2.2-1.2,4.3-2.1,6.4C656.3,622.3,655.4,622.4,654.7,622.8z M459.5,269.1c2.5,1.1,5,1.5,7.2,2.5
		c1.2,0.5,1.7,0.3,2.5-0.9c3.4-5,6.7-10.1,10.1-15.1c4.5-6.8,9-13.6,13.2-20.5c2.8-4.6,5.4-9.2,7.6-14c1.1-2.4,2-4.8,2.5-7.3
		c0.5-2.3,0.4-2.1-1.4-3.5c-0.5-0.4-1.1-0.7-1.7-1.1c-2.2-1.2-4.4-2.4-6.6-3.6c-0.9-0.5-1-0.4-1.6,0.4c-0.8,1.2-1.7,2.5-2.4,3.8
		c-1.7,2.9-3.4,5.9-5,8.9c-5.3,10-10.1,20.2-14.9,30.4C465.8,255.7,462.7,262.3,459.5,269.1z"/>
	<path class="st5" d="M257.4,623.7c-0.5-2.3-1.1-4.7-1.6-7c-0.2-1.1-0.1-2.3-0.4-3.5c-0.9-3.5-0.7-7.1-0.7-10.7c0-0.7-0.1-1.3-0.1-2
		c0-0.5-0.2-1-0.1-1.5c0.3-2.1-0.1-4.3,0.2-6.4c0.4-3.1,0.4-6.3,0.7-9.4c0.2-2.6,0.4-5.1,1-7.7c0.4-1.8,0.4-3.6,1.3-5.3
		c-0.1-2.3,1-4.4,1.5-6.5c0.7-3,1.7-5.9,2.7-8.8c1.2-3.5,2.8-6.7,4.4-10c1.3-2.7,2.9-5.2,4.3-7.8c1.6-2.9,3.6-5.6,5.4-8.4
		c1.5-2.4,3.2-4.8,5.2-7c1-1.1,1.9-2.3,2.8-3.5c3.9-4.6,8-8.8,12.6-12.7c4.4-3.7,8.9-7.2,13.5-10.6c3.7-2.8,7.7-5.2,11.9-7.2
		c1.3-0.6,2.6-1.1,3.8-1.9c1.1-0.7,2.3-1.3,3.6-1.7c2.6-0.8,4.9-2.4,7.5-3.3c1.3-0.4,2.5-1,3.8-1.2c1.3-0.2,2.5-0.9,3.7-1.3
		c3.2-1.1,6.5-2,9.8-2.8c4.2-1,8.2-2.5,12.4-3.5c0.6-0.1,1.2-0.5,1.9-0.4c0.2,0,0.5,0,0.7-0.1c2.7-1.3,5.8-1.4,8.7-2.1
		c1.9-0.5,3.7-0.8,5.6-1.2c4.8-1,9.7-1.6,14.6-0.9c1.6,0.3,3.3,0.6,4.9,0.9c0.6,0.1,1.3,0.3,2,0.1c2.4-0.4,4.8-0.4,7.2-0.4
		c2.9,0,5.8-0.2,8.7,0.4c1.4,0.3,2.8,0.2,4.2,0.2c3.2,0,6.3,0.3,9.4,0.9c3.7,0.7,7.5,1.2,11.2,2c4.1,0.9,8.1,1.8,12.1,2.9
		c6.8,1.8,13.7,3.5,20.2,6.2c2.6,1.1,5.3,1.9,7.8,3.3c1,0.6,2.1,0.9,3.2,1.3c1.2,0.5,2.2,1.5,3.4,2c3.7,1.5,6.9,4,10.5,5.6
		c1.6,0.7,3.2,1.8,4.7,2.8c1.1,0.7,2.3,1.3,3.5,1.9c2.3,1.4,4.7,2.4,6.7,4.2c1.3,1.1,2.8,2,4.2,3c0.3,0.2,0.7,0.4,1,0.7
		c2.4,2.1,4.7,4.2,7.1,6.3c0.1,0.1,0.2,0.2,0.3,0.4c1.2,2,3.1,3.2,4.6,4.9c2.3,2.4,4.7,4.7,6.6,7.4c2.6,3.5,5.4,6.9,7.1,11
		c0.1,0.2,0.2,0.3,0.2,0.4c3,4.2,5.2,8.9,7.2,13.6c0.5,1.1,1.1,2,1.6,3.1c1.1,2.8,2,5.6,3.3,8.3c1.2,2.5,2,5.3,2.6,8
		c0.2,0.7,0.4,1.4,0.7,2.1c0.2,0.4,0.4,0.8,0.4,1.2c0.3,2.4,1.3,4.6,1.9,6.9c0.2,0.9,0.3,1.8,0.5,2.7c0.1,0.3,0,0.7,0.1,1
		c1.2,3,1.6,6.3,1.9,9.5c0.5,5.4,1.5,10.6,2.5,15.9c0.8,4.4,0.6,8.8,0.3,13.2c0,0.7-0.3,1.3-0.4,1.9c-0.5,0.4-0.9,0.7-1.4,1.1
		c-2.7,2.1-5.7-0.6-5.9-2.9c0-0.5,0-1,0.1-1.5c0.4-2.8,0.2-5.6-0.1-8.4c-0.2-2-0.9-3.9-0.8-5.9c0-0.3-0.2-0.6-0.3-0.9
		c-0.6-1.5-0.9-3-1-4.6c-0.2-2.4-0.4-4.8-0.7-7.2c-0.4-2.9-1.1-5.7-1.8-8.5c-2.7-11.3-6.7-22.2-11.6-32.8
		c-2.6-5.6-5.3-11.1-8.5-16.4c-1.6-2.7-3.4-5.3-5.3-7.8c-1.5-2-3.3-3.7-4.9-5.6c-1.5-1.7-3.3-3.2-4.6-5.2c-0.2-0.3-0.6-0.5-0.9-0.8
		c-0.5-0.4-1.2-0.7-1.5-1.2c-1.2-1.6-2.9-2.7-4.5-3.9c-1.8-1.3-3.6-2.7-5.3-4.1c-0.5-0.4-1.1-0.8-1.7-1.1c-1.6-0.7-3.1-1.6-4.5-2.6
		c-1.7-1.1-3.5-2.1-5.4-3.1c-1.7-0.9-3.4-1.8-4.9-2.9c-0.4-0.3-0.9-0.5-1.3-0.7c-0.4-0.2-0.9-0.3-1.1-0.5c-0.9-1-2.1-1.2-3.2-1.8
		c-1.7-0.8-3.3-1.9-5.1-2.7c-2.1-0.9-3.9-2.4-6.2-3c-1.4-0.3-2.7-1.1-4.1-1.7c-3.8-1.6-7.7-2.5-11.5-3.9c-2.8-1.1-5.8-1.5-8.6-2.4
		c-3.4-1.1-6.9-1.6-10.2-2.9c-1.6-0.6-3.4-0.6-5.1-1c-4-1-8.1-1.5-12.2-2.1c-4.9-0.8-9.9-1.1-14.8-1.4c-2.5-0.2-4.9-0.6-7.4-0.4
		c-1.6,0.1-3.1-0.2-4.7-0.4c-1.8-0.2-3.6-0.6-5.4-0.5c-1.7,0-3.4,0-5.2,0.3c-3.2,0.6-6.4,1-9.5,1.7c-3.8,0.8-7.5,2-11.3,2.8
		c-4.6,1-8.9,2.6-13.4,3.8c-2.6,0.7-5.2,1.6-7.8,2.3c-2.5,0.7-4.8,1.7-7.2,2.6c-3.1,1.2-6.1,2.5-9.2,3.8c-1.2,0.5-2.4,1.1-3.6,1.7
		c-3.2,1.6-6.3,3.2-9.4,5c-1.7,1-3.2,2.3-4.9,3.4c-3.9,2.8-7.7,5.8-11.4,8.9c-2.3,1.9-4.7,3.7-6.7,5.9c-0.4,0.5-1,0.8-1.5,1.3
		c-0.3,0.2-0.6,0.4-0.8,0.6c-3.2,4-6.4,8.1-9.6,12c-2.1,2.5-3.5,5.4-5.4,8.1c-2.5,3.6-4.5,7.5-6.4,11.5c-0.8,1.7-1.7,3.4-2.5,5.1
		c-0.8,1.7-1.4,3.5-2,5.3c-1.5,4.6-2.8,9.2-3.7,13.9c-0.5,2.7-1.6,5.3-1.3,8.1c-0.6,3.9-0.8,7.9-1,11.9c-0.1,1.5-0.1,3-0.1,4.4
		c-0.1,4,0.2,7.9,0.4,11.9c0.2,3.8,0.7,7.6,2.1,11.2c0.1,0.4,0.2,0.8,0.3,1.2c0.9,1.9,0.2,3.3-1.2,4.7c-1.4,1.3-3.2,1.2-4.3-0.3
		C258.1,624.6,258,624,257.4,623.7z"/>
	<path class="st6" d="M335.6,214.5c-0.9-0.2-1.6,0.2-2.3,0.4c-1.3,0.4-2.5,0.9-3.8,1.3c-0.5,0.2-0.9,0.3-1.5,0.2
		c-1.2-0.2-1.7-1.5-0.9-2.5c1.1-1.4,2.6-2,4.1-2.7c0.6-0.3,1.2-0.5,1.8-0.8c1-0.5,1.3-1.1,0.9-2c-0.4-1-0.7-2.1-1.1-3
		c-1.2-2.6-1.6-5.4-2.6-8c-0.2-0.5-0.3-1.1-0.3-1.7c0-1.3,0.8-2.2,2.1-2.3c1.4-0.1,2.4,0.3,3,1.7c1,2.4,2,4.7,3,7.1
		c0.6,1.5,1,3,1.5,4.4c0.3,0.9,0.9,1.1,1.8,0.8c1.9-0.7,3.9-1.5,5.8-2c4.1-1.2,8-2.7,12.2-3.3c1.6-0.2,3.2-0.3,4.7-0.3
		c2.2,0,4.3-0.2,6.5-0.3c1,0,1-0.2,1-1.2c0-1.4-0.1-2.8-0.1-4.2c0.1-2.3,2-3.4,4-2.4c0.7,0.3,1.1,0.9,1.2,1.8
		c0.1,1.8,0.3,3.6,0.5,5.4c0.2,2.8,0.3,5.6,0.5,8.4c0,0.4,0,0.8,0.4,1.3c4.1-0.3,8.2,0.7,12.5,1.5c-1.8,0.7-3.4,0.9-5,1.5
		c-1.6,0.6-3.3,1-4.9,1.6c-0.5,0.2-0.9,0.3-1.4,0.3c-1.3,0.1-1.3,0.2-1.3,1.6c0,3.7,0,7.4-0.2,11.2c-0.1,1.2-0.3,2.3-0.5,3.4
		c-0.4,1.7-0.4,3.5-0.6,5.2c-0.1,0.6-0.1,1.2-0.2,1.7c0,0.1-0.2,0.3-0.3,0.3c-0.4,0.1-0.4-0.2-0.4-0.4c-0.4-2-0.7-3.9-1-5.9
		c-0.1-0.5-0.2-1-0.3-1.5c-0.6-1.6-0.4-3.3-0.7-4.9c-0.3-1.6-0.6-3.1-0.6-4.7c-0.1-1.6-0.3-3.1-0.4-4.6c-1.2-0.3-2,0.3-3,0.5
		c-3.1,0.4-6.2,1.3-9.2,2.1c-1.6,0.4-3.2,0.7-4.7,1.4c-0.7,0.3-1.5,0.6-2.4,0.6c-0.5,0-1,0.2-1.4,0.4c-2.4,1-4.7,2-7.2,3.1
		c0.3,1.2,0.4,2.4,0.7,3.4c0.7,2.6,1.5,5.3,1.8,8c0.1,0.9,0.7,1.7,0.9,2.6c0.5,2.6,1.2,5.2,1.7,7.8c0.1,0.6,0.2,1.2,0.1,1.7
		c-0.1,0.6,0,1.1,0.3,1.7c0.2,0.4,0.4,0.8,0.3,1.2c-0.1,2.5,0.7,4.9,1.3,7.3c0.1,0.4,0.1,0.8,0.2,1.6c-1.2-1.9-2.1-3.5-3-5
		c-1.1-1.9-2.5-3.5-3.5-5.4c-1.9-4.1-3.4-8.2-4.3-12.7c-0.3-1.5-0.9-2.8-1.2-4.3c-0.3-1.5-1-3-1.2-4.7c-1.7,0.5-3.1,1.2-4.4,2
		c-2.8,1.6-5.6,3.2-8.4,4.9c-1.5,0.9-2.9,1.9-4.4,2.9c-0.6,0.4-1.3,0.6-2.1,0.7c-1,0-1.5-0.8-1.1-1.7c0.3-0.7,0.7-1.3,1.3-1.8
		c1.8-1.9,3.8-3.7,6-5.2c2.2-1.4,4.4-3,6.6-4.4c1.4-0.9,2.9-1.7,4.3-2.4c0.5-0.3,0.9-0.6,0.6-1.2
		C336.6,219.4,336.5,216.8,335.6,214.5z M343.4,219.7c0.5-0.2,0.9-0.3,1.3-0.5c3.1-1.4,6.2-2.6,9.5-3.6c3.6-1.1,7.1-2.2,10.8-2.8
		c2.2-0.4,4.3-1,6.5-1.5c0.4-0.1,0.6-0.3,0.7-0.6c0.1-0.9,0.6-1.8,0.2-2.7c-0.4-1-0.3-2.1-0.3-3.2c0-0.6,0-1.2-0.1-1.7
		c-0.1-0.6-0.5-0.9-1-0.7c-1.4,0.4-2.9,0.8-4.3,1.4c-5.5,2.4-11.3,3.8-16.9,5.8c-2.5,0.9-5,1.6-7.5,2.5c-0.3,0.1-0.5,0.3-0.9,0.5
		C342.4,214.8,342.3,217.3,343.4,219.7z"/>
	<path class="st6" d="M314.3,222.6c-2.5,3.3-4.9,6.7-7.4,10c-0.9,1.2-2,2.4-3,3.6c-0.3,0.4-0.6,0.8-0.8,1.2
		c-0.3,0.5-0.2,0.9,0.1,1.4c1.7,2.9,3.7,5.7,5.6,8.5c2.2,3.3,4.4,6.6,5.8,10.4c0.8,2.2,2,4.2,3.2,6.2c0.5,0.9,1.1,1.7,1.4,2.6
		c-0.2,0-0.3,0.1-0.3,0.3c-1.9-1.6-3.5-3.5-5.2-5.4c-0.5-0.5-1-1.1-1.6-1.5c-2.3-1.7-4.3-3.6-5.8-6.1c-0.3-0.5-0.8-0.9-1.2-1.3
		c-0.4-0.5-1-0.9-1.3-1.5c-1.2-2.5-3.5-4.2-5-6.5c-0.3-0.5-0.7-0.5-1.2,0c-2.1,2.5-3.9,5.4-5.8,8.1c-0.9,1.4-1.8,2.8-2.6,4.2
		c-1.6,2.8-3.1,5.7-4.6,8.5c-0.2,0.4-0.3,0.7-0.5,1.1c-0.2,0.6,0,1.2,0.5,1.5c2.1,1.3,3.5,3.2,5.1,5.1c0.7,0.9,1.5,1.7,2.4,2.7
		c-2.7-0.8-5.5-0.7-7.9-2.1c-0.1,0-0.2-0.1-0.2-0.1c-0.9-0.3-1.8-0.9-2.6-0.7c-0.9,0.2-0.9,1.5-1.2,2.3c-0.9,1.9-1.9,3.9-2.9,5.8
		c-0.6,1.1-1.8,1.2-2.7,0.4c-0.9-0.8-1-1.7-0.8-2.7c0.5-2.7,1.1-5.3,2.5-7.8c0.5-0.8,0.4-1.2-0.4-1.6c-1.3-0.6-2.4-1.5-3.5-2.4
		c-0.4-0.3-0.8-0.7-1.2-0.9c-3.3-1.7-6.1-4.2-9.4-6.1c-0.6-0.4-1.2-0.9-1.7-1.4c-0.9-0.9-0.9-1.9-0.4-3c0.4-1,1.2-1.2,2.2-1.3
		c2.1-0.2,3.7,0.8,5.3,1.8c3.5,2.3,7,4.7,10.6,7c0.1,0.1,0.3,0.2,0.4,0.3c1.1,0.6,1.1,0.6,1.7-0.4c1.1-2.1,2.1-4.1,3.2-6.2
		c1.9-3.5,4-6.9,6.3-10.1c1.7-2.3,3.4-4.5,5.1-6.7c0.4-0.5,0.3-0.8,0-1.3c-1.6-2.1-3.2-4.2-4.8-6.3c-2-2.7-4.2-5.3-6.4-8
		c-1.2-1.4-2.3-2.8-3.5-4.2c-1.3-1.4-1.3-3.4-0.2-4.8c0.6-0.8,1.4-1.1,2.4-0.9c0.8,0.1,1.4,0.5,2,0.9c0.7,0.5,1.3,1,1.9,1.6
		c3.2,3.7,6.7,7.1,9.4,11.2c1.3,1.9,2.9,3.6,4.5,5.4c1.7-1.2,2.7-2.9,4.2-4.1c1.5-1.2,3-2.4,4.5-3.6c1.5-1.2,3-2.3,4.7-3.2
		c0.3,0.1,0.3-0.1,0.3-0.3c0.2-0.1,0.3-0.2,0.5-0.4C314,222.2,314.2,222.4,314.3,222.6z"/>
	<path class="st6" d="M147.9,560.3c-2.4-0.8-4.9-1.6-7.3-2.5c-4.9-1.8-9.9-3.4-14.4-6c-2-1.2-4.2-2-6.1-3.3c-1.7-1.2-3.6-2-5.3-3.1
		c-1.7-1.2-3.5-2.1-5.1-3.5c-0.8-0.6-1.7-1-2.5-1.6c-3.7-2.5-7.3-5.2-10.8-8c-2.2-1.8-4.2-3.8-6.2-5.7c-2.6-2.4-5-5-7.4-7.7
		c-2.5-2.9-4.9-5.8-7.3-8.8c-1.8-2.3-3.5-4.6-5.1-7.1c-1.9-3-3.8-6-5.5-9.2c-2.4-4.6-4.5-9.4-6.3-14.3c-0.9-2.3-1.8-4.6-2.5-7
		c-1.3-4.3-2.5-8.6-3.5-12.9c-0.8-3.7-1.2-7.5-1.9-11.2c-0.2-1,0-1.8,0.5-2.6c0.4-0.7,1.5-0.6,1.9,0c0.1,0.2,0.3,0.4,0.3,0.7
		c0.3,2.2,1.1,4.3,1.7,6.4c0.9,3.2,1.9,6.3,2.9,9.5c1.2,3.8,2.7,7.5,4.2,11.2c0.7,1.8,1.6,3.6,2.3,5.5c0.4,1.1,1,2.2,1.6,3.3
		c1,2,2.1,4,2.9,6.1c0.4,1,1.1,1.8,1.7,2.7c1.5,2.5,2.9,5,4.5,7.4c2,3.1,4.4,6,6.5,9.1c1.7,2.4,3.7,4.5,5.5,6.7
		c2.9,3.5,6.2,6.7,9.5,9.8c3.6,3.5,7.6,6.4,11.5,9.5c3,2.3,6.2,4.4,9.4,6.5c1.2,0.9,2.4,1.8,3.7,2.6c2.2,1.4,4.5,2.8,6.7,4.2
		c3.2,2.1,6.5,4,9.7,6c3.7,2.3,7.3,4.6,10.9,6.9C148.4,560.1,148.1,560.2,147.9,560.3z"/>
	<path class="st6" d="M121.3,521c-0.6-0.1-1.3-0.1-1.9-0.5c-1.7-1-3.6-1.6-5.5-2.2c-2.5-0.8-4.6-2.1-6.7-3.6
		c-0.3-0.2-0.5-0.4-0.8-0.6c-2.9-1.6-5.4-3.8-7.7-6.2c-2.6-2.6-5.2-5.3-7.6-8.1c-2.3-2.6-4.4-5.4-6.5-8.2c-1-1.3-2-2.6-2.7-4.1
		c-0.7-1.6-2-2.8-2.9-4.3c-2-3.3-3.9-6.6-5.3-10.1c-1.5-3.8-2.9-7.8-3.5-11.9c-0.3-2-0.3-4,0.2-5.9c0.3-1.1,1-1.5,2-1.3
		c0.4,0.1,0.8,0.3,1,0.7c0.2,0.5,0.4,1.1,0.5,1.7c0.7,4.1,2.5,7.9,3.7,11.8c0.2,0.5,0.5,1.1,0.8,1.6c1.2,2.1,1.9,4.4,3.4,6.3
		c0.6,0.8,0.5,1.8,1.1,2.5c1.9,2.3,3.2,5,5,7.4c1.7,2.3,3.4,4.7,5.1,7.1c0.7,1,1.6,1.9,2.4,2.8c3.7,4.3,7.6,8.3,11.6,12.3
		c1.9,1,3.1,3,4.9,4.2c1.1,0.7,1.7,2,3,2.5c1.3,1.7,3.1,2.7,4.8,3.9c0.9,0.6,1.7,1.3,2.5,2.1C121.8,520.7,121.6,520.8,121.3,521z"/>
	<path class="st6" d="M704.5,423.1c-3-1.9-6.1-3.7-9.1-5.5c-2.7-1.6-5.5-3-8.1-4.8c-2.5-1.7-5.4-2.8-8.1-4.2
		c-1.7-0.9-3.7-1.5-5.4-2.4c-1.2-0.6-2.6-0.9-4-1.4c-4.2-1.4-8.4-2.5-12.7-3.4c-2.1-0.4-4.2-1-6.3-1.3c-1.4-0.2-2.8-0.2-4.2-0.5
		c-1.4-0.3-2.8-0.5-4.2-0.6c-0.9,0-1.8-0.2-2.7-0.5c-1-0.3-1.3-1.7-0.5-2.4c0.6-0.5,1.2-0.8,2-0.8c3.1-0.1,6.3-0.3,9.4,0.2
		c5.1,0.8,10.1,1.7,15.1,3c4.4,1.1,8.6,2.8,12.9,4.3c1.5,1.2,3.4,1.6,5.1,2.5c1.7,0.9,3.4,1.7,5,2.7c4.9,3,9.6,6.3,13.2,10.9
		c0.7,0.9,1.5,1.8,2.2,2.7c-0.1,0.3,0.1,0.3,0.3,0.3c0.1,0.1,0.2,0.3,0.4,0.4c0,0,0,0.1,0,0.1l0.1,0c0.1,0.1,0.2,0.3,0.4,0.4
		C705.1,422.8,704.8,422.9,704.5,423.1z"/>
	<path class="st6" d="M409.9,237.9c-0.7-4.3-1.1-8.1-0.7-12c0.2-1.7,0-3.5,0.6-5.2c0.2-0.5-0.1-1.1-0.1-1.7c0-0.9,0.8-1.9-0.1-2.5
		c-0.7-0.5-1.6,0-2.4,0c-3.1,0.1-6.1,0.2-9.2,0.3c-1.1,0-1.7-0.7-1.6-1.8c0.1-1.3,0.9-2.3,2.1-2.7c1-0.3,2-0.6,3.2-0.6
		c2.6-0.1,5.1-0.3,7.7-0.4c1.1-0.1,1.1-0.1,1.3-1.3c0.3-2.1,0.7-4.3,0.8-6.4c0.1-2.7,0.4-5.4,0.6-8.2c0-0.4,0-0.8,0.1-1.2
		c0.5-1.8,2.7-2.3,4-1.1c0.2,0.2,0.5,0.6,0.4,0.8c-0.1,1.3,0.4,2.6,0.2,3.9c-0.5,4.4-0.7,8.9-1.1,13.4c0.7,0.2,1.4,0.5,2.1,0.4
		c2.3-0.1,4.4,0.8,6.4,1.8c0.7,0.3,1.4,0.6,2,1c0.4,0.3,1.4,0.1,1.2,0.9c-0.1,0.5-0.9,0.3-1.3,0.3c-1.2-0.1-2.3,0.4-3.4,0.5
		c-2.1,0.3-4.3,0.4-6.4,0.4c-1.1,0-1.4,0.2-1.5,1.2c-0.2,3.6-0.8,7.2-1.4,10.8C412.8,231.8,412,234.9,409.9,237.9z"/>
	<path class="st6" d="M690.3,397.7c-3.3-1-6-1.9-8.8-2.8c-1.8-0.6-3.7-1-5.4-1.7c-2.6-1-5.3-1.8-8-2.6c-3.5-1-7-2-10.5-2.7
		c-3.5-0.8-7-1.2-10.5-1.7c-2.7-0.3-5.4-0.3-8.2,0.1c-1,0.2-2,0.2-3,0.2c-0.9,0-1.4-1.1-0.9-1.8c0.7-1,1.5-1.7,2.7-2.1
		c3.2-1.1,6.6-1.6,10-1.3c5.3,0.5,10.5,1.5,15.6,2.8c4.7,1.2,9.1,2.8,13.5,4.9c3.2,1.6,6.1,3.7,9.1,5.6
		C687.2,395.5,688.5,396.5,690.3,397.7z"/>
	<path class="st1" d="M392.1,266.3c-0.3,0.1-0.6,0.3-0.9,0.4c-2.5,0.4-4.9,0.8-7.3,1.4c-1.5,0.4-3.1,0.5-4.7,0.7
		c-3.2,0.6-6.4,1-9.4,2.1c-0.2,0.1-0.5,0.1-0.7,0.2c-2.9,0.2-5.6,1.3-8.4,2.1c-1.7,0.5-3.4,0.8-5,1.4c-3.5,1.4-7.2,2.4-10.7,3.8
		c-4.4,1.8-8.8,3.4-13.2,5.2c-1.3,0.5-2.6,1.1-3.9,1.6c-0.4,0.1-0.8,0.3-1.2,0.1c1.5-1.4,3.4-2,5.1-2.9c9.9-4.9,20.2-8.7,30.9-11.3
		c5.8-1.4,11.7-2.5,17.6-3.3c3.4-0.5,6.9-0.9,10.4-1.3C391.1,266.3,391.6,266.3,392.1,266.3z"/>
	<path class="st2" d="M147.9,560.3c0.2-0.1,0.5-0.2,0.7-0.3c1.1,0.4,2.1,1.1,3.5,1.9C150.4,561.5,149,561.1,147.9,560.3z"/>
	<path class="st2" d="M121.3,521c0.3-0.1,0.6-0.3,0.9-0.4c0.9,0.4,1.7,0.9,2.7,2C123.3,521.9,122.2,521.7,121.3,521z"/>
	<path class="st2" d="M704.5,423.1c0.3-0.1,0.6-0.3,0.9-0.4c0.7,0.8,1.4,1.5,2.1,2.3C706.4,424.4,705.3,424,704.5,423.1z"/>
	<path class="st2" d="M318.9,266.8c0-0.2,0.1-0.3,0.3-0.3c0.9,0.6,1.1,1.7,1.7,2.5C320.1,268.4,319.3,267.7,318.9,266.8z"/>
	<path class="st2" d="M314.3,222.6c-0.2-0.2-0.3-0.4-0.5-0.6c0.7-0.6,1.3-1.1,2.1-1.7c0.1,0.7-0.4,0.9-0.7,1.3
		C315,221.9,314.6,222.3,314.3,222.6z"/>
	<path class="st1" d="M326.7,285.2c-0.3,0.8-0.5,0.9-1.6,1C325.4,285.5,326,285.3,326.7,285.2z"/>
	<path class="st1" d="M325.1,286.2c-0.2,0.6-0.7,0.6-1.3,0.5C324.2,286.3,324.6,286,325.1,286.2z"/>
	<path class="st2" d="M704.6,421.7c-0.2,0-0.4-0.1-0.3-0.3C704.5,421.4,704.6,421.5,704.6,421.7z"/>
	<path class="st2" d="M313.3,222.4c0,0.2,0,0.4-0.3,0.3C313,222.5,313.1,222.3,313.3,222.4z"/>
	<polygon class="st2" points="705,422.2 704.9,422.2 704.9,422.1 705,422.1 	"/>
	<path class="st7" d="M393.4,456.4c-3.1,0.2-5.3-0.6-7.3-1.9c-2.6-1.7-4.9-3.8-6.7-6.3c-1.1-1.5-2.4-2.9-3.4-4.5
		c-1.8-3-3.6-5.9-4.9-9.2c-0.7-1.6-1.6-3.1-2.2-4.7c-1.4-3.5-2.7-6.9-3.9-10.5c-1.4-4.3-2.6-8.6-3.5-12.9c-0.6-2.8-1.1-5.7-1.6-8.5
		c-0.3-2.4-0.8-4.7-1.2-7.1c-0.1-0.8-0.5-1.1-1.4-1c-1.3,0.1-2.6,0.3-4,0.4c-2.6,0.2-5.1-0.2-7.6-1c-1.1-0.4-1.9-1-2.7-1.7
		c-2.5-2.5-2-5.2,0.2-7.7c0.4-0.4,0.9-0.7,1.3-1.1c0.5-0.4,1-0.5,1.6-0.5c1,0,1.7,1,1.2,1.9c-0.3,0.7-0.8,1.3-1.1,2
		c-0.4,0.9-0.3,1.4,0.5,1.9c0.6,0.5,1.3,0.7,2.1,0.8c3.2,0.4,6.5,0.3,9.6-0.6c5.1-1.3,10-3,14.7-5.4c3.8-1.9,7.3-4.2,10.6-6.9
		c2.9-2.4,6-4.4,9.3-6.2c0.6-0.3,1.1-0.7,1-1.5c0-0.3,0-0.7,0.1-1c0.5-1.7,2.4-2.5,4-1.7c0.5,0.2,0.8,0.6,1,1.1
		c0.4,0.9,0.8,1.8,0.8,2.9c0.1,1.7,0.6,3.2,1.2,4.8c0.9,2.5,1.6,5,1.9,7.7c0.3,2.4,0.7,4.7,1,7.1c0.3,2.1,0.5,4.1,0.8,6.2
		c0.2,2,0.5,3.9,0.7,5.9c0.4,3.3,0.7,6.6,1,9.9c0.3,3.7,0.4,7.4,0.6,11.2c0.2,3,0.4,6.1,0.2,9.1c-0.1,1.5,0,3.1,0,4.7
		c0,5-1.1,9.8-2.7,14.6c-1.1,3.1-3,5.5-5.5,7.6C397.4,455.5,395.4,456.6,393.4,456.4z M399.4,396c0.3-1-0.2-1.9-0.3-2.8
		c-0.4-2.6-0.7-5.3-1.1-7.9c-0.2-1.2-0.3-2.5-0.4-3.7c-0.2-1.8-0.4-3.6-0.7-5.4c-0.3-1.6-0.6-3.3-1.4-4.7c-0.2-0.4-0.3-0.9-0.4-1.4
		c-0.1-0.3,0-0.7-0.4-0.8c-0.4-0.1-0.6,0.2-0.8,0.4c-1.7,2.1-3.7,3.8-5.7,5.6c-3.2,2.9-6.9,5.2-10.6,7.3c-2.7,1.5-5.5,3.1-8.5,4
		c-1.4,0.4-2.8,0.9-4.2,1.4c-1.3,0.5-1.3,0.5-1,1.7c0.9,3.9,2,7.9,2.8,11.8c0.8,4,2,7.9,3,11.8c0.8,3.1,2.3,5.9,2.9,9
		c0.9,1.3,0.9,3,1.8,4.3c0.6,0.9,0.9,2,1.3,3c0.2,0.6,0.3,1.3,0.7,1.8c1.3,1.8,1.6,4,3.1,5.6c1.7,3.8,4.3,6.9,7.2,9.8
		c1.3,1.4,2.8,2.6,4.7,3.2c0.5,0.2,0.9,0.4,1.4,0.3c1.9-0.5,3.5-1.4,4.7-3c1.6-2.2,2.5-4.8,3-7.3c0.6-3.2,1.2-6.5,1-9.9
		c0-0.6,0-1.2,0-1.7c0-1.4,0-2.8,0-4.2c-0.1-3.1-0.3-6.1-0.5-9.2c-0.2-3.6-0.4-7.1-0.7-10.7C400,401.5,399.7,398.7,399.4,396z"/>
	<path class="st8" d="M563.4,460.5c0-0.1,0-0.2,0-0.2c1.4-1.2,2.8-2.6,4.4-3.6c1.8-1.2,3.5-2.6,5.2-3.9c3.2-2.4,6.6-4.4,10-6.4
		c3.5-2.1,7.2-3.6,11-5c3-1.1,6.2-1.9,9.3-2.7c4.6-1.2,9.3-1.6,13.9-2.6c3.5-0.8,7.1-0.9,10.5-1.8c0.3-0.1,0.7-0.1,1-0.1
		c4.3-0.2,8.6-1,12.9-1.4c0.4,0,0.8-0.1,1.2-0.1c3.5-0.1,6.9-0.5,10.4-0.8c0.2,0,0.3,0,0.5,0c2.9,0.6,6-0.2,8.9,0.7
		c0.1,0,0.2,0.1,0.2,0c2.5-0.6,4.7,0.6,7,1.1c2.4,0.5,4.8,1.2,7.2,1.8c4.7,1.2,9.1,2.9,13.5,4.9c3.6,1.6,7.1,3.5,10.2,6
		c2.5,2,5.4,3.6,7.6,5.9c2.3,2.5,5.2,4.4,7.4,7c1,1.2,2.3,2.2,3.4,3.3c2.8,2.9,5.5,6,8.2,9c2.4,2.7,4.4,5.6,6.5,8.4
		c2.5,3.5,5.2,6.8,6.7,10.9c-0.2,0-0.3,0.1-0.5,0.1c-0.4-0.4-0.9-0.7-1.2-1.2c-1.5-2.5-3.5-4.6-5.1-7c-1.3-1.9-2.7-3.7-4.1-5.6
		c-2.2-2.9-4.4-5.8-6.9-8.4c-1.6-1.7-2.8-3.7-4.9-4.9c-0.9-1.4-2.6-2-3.6-3.4c-0.2-0.3-0.6-0.5-1-0.7c-2.5-1.6-5-3.2-7.6-4.7
		c-1.9-1.1-3.8-2-5.4-3.4c-3.1-1.2-5.7-3.4-8.6-4.9c-3-1.5-6.2-2.8-9.3-4.1c-1.6-0.7-3.4-0.9-5.1-1.2c-5.5-0.9-11-1.6-16.5-2
		c-5.5-0.4-11.1-0.9-16.6-1.4c-2.1-0.2-4.1-0.5-6.2-0.5c-4,0.1-7.9,0.5-11.9,1c-0.7,0.1-1.4,0.4-2.2,0.6c-2.9,0.9-5.7,1.8-8.6,2.5
		c-2.4,0.6-4.7,1.6-7.1,2.4c-1.8,0.6-3.6,1-5.5,1.6c-2.1,0.6-4.1,1.3-6.2,1.9c-2.5,0.7-4.9,1.3-7.4,2.1c-1.7,0.5-3.4,1.2-5.2,1.8
		c-1.2,0.4-2.5,0.8-3.7,1.4c-1.1,0.5-2.4,0.8-3.5,1.3c-1.9,0.9-4,1.5-5.8,2.7c-1.7,1.2-3.5,2.1-5.4,3.1
		C565.1,460.3,564.3,460.6,563.4,460.5z"/>
	<path class="st8" d="M238.1,412.9c0.1-0.5,0.4-0.9,0.7-1.3c0.6-1,1.1-2,1.5-3.1c0.4-1,1.2-1.9,1.5-3c1.6-5.6,3.2-11.3,5.1-16.8
		c1.5-4.6,3.6-9.1,5.2-13.7c0.8-2.2,1.8-4.2,2.9-6.2c1-1.7,1.9-3.5,2.5-5.4c0.5-1.5,1.5-2.8,2.2-4.1c1.1-2,2.1-4.1,3.3-6.1
		c2.3-3.8,4.8-7.5,7.2-11.4c1.9-3.2,4.6-5.9,6.4-9.2c1.6-1.2,2.6-3,4-4.5c2.2-2.3,4.5-4.6,6.8-6.9c3-3,6.3-5.6,9.6-8.3
		c0.7-0.6,1.4-1.2,2-1.8c0.2-0.2,0.4-0.6,0.7-0.7c1.8-0.7,2.9-2.2,4.4-3.2c2.2-1.4,4.1-3.4,6.5-4.5c3.3-2.6,7-4.5,10.6-6.5
		c1.6-0.9,3.3-2,5-2.7c1.4-0.6,2.9-1.2,4.3-1.8c1.8-0.8,3.7-1.4,5.6-2.1c0.2,0.2,0.3,0.3,0.5,0.5c-0.5,0.6-1.1,0.9-1.9,1.2
		c-0.5,0.2-1.2,0.3-1.6,0.6c-2.5,1.9-5.5,3.1-8,5c-1.5,1.1-3.2,2-4.8,3.1c-3.5,2.6-7.1,5.2-10.6,7.8c-1.7,1.3-3.4,2.7-5,4.1
		c-0.6,0.5-1,1.1-1.8,1.3c-0.2,0-0.3,0.2-0.4,0.3c-2,2.6-4.8,4.3-7,6.7c-1.9,2-3.7,4.2-5.6,6.3c-3.4,3.7-6.4,7.8-9.5,11.8
		c-3.9,5-7.5,10.3-10.8,15.7c-1.2,2-2.5,3.9-3.6,5.9c-2.2,3.8-4.7,7.4-6.7,11.3c-1.9,3.5-3.9,6.9-5.9,10.4c-0.9,1.6-2,3.2-2.8,4.9
		c-1,2-1.8,4.1-2.6,6.2c-0.7,1.8-1.1,3.6-1.8,5.4c-1.2,2.9-2,6-3,9c-0.5,1.5-1.2,2.9-1.7,4.4c-0.3,0.6-0.7,1.2-1.3,1.5
		C239.4,413.3,238.7,413.2,238.1,412.9z"/>
	<path class="st8" d="M745.1,498.4c0.6,0.6,1,1.3,1.4,2c1.5,2.6,2.9,5.2,4.8,7.5c0.9,1.2,1.6,2.5,2.3,3.8c0.5,0.9,0.5-0.3,0.8-0.1
		c1.4,2.7,2.9,5.4,4.4,8.1c0.3,0.5,0.6,1,0.7,1.6c0.9,3.6,2.3,7.1,2.9,10.8c0.2,1.3,0.5,2.6,0.8,3.9c0,0.2,0,0.5,0.1,0.7
		c0.9,1.4,1,3,1.1,4.6c0.2,2.2,1.1,4.1,1.5,6.3c0.6,3.3,0.9,6.5,0.8,9.9c0,1.3,0.1,2.6,0.1,3.9c0.2,2.8-0.1,6.1-0.5,9.3
		c-0.6,4.5-2,8.9-3.4,13.2c-0.4,1.1-0.6,2.2-1,3.3c-0.7,2.2-2.3,4.1-2.9,6.3c-0.2,0.8-0.6,1.5-0.9,2.3c-0.3,1-0.7,1.9-1.5,2.6
		c-0.9,0.8-1.4,1.9-2,2.9c-0.9,1.7-2.5,2.8-3.5,4.5c-3,2.5-6.1,5.1-9.7,6.9c-4.5,2.3-9.2,3.6-14,5c-2.2,0.7-4.5,1.1-6.8,1
		c-1.5,0-3,0.1-4.5,0.2c-1.7,0.1-3.5-0.2-5.2-0.4c-0.5-0.1-0.9-0.3-1.2-0.8c3.8-0.4,7.6-0.7,11.4-1.4c2.1-0.4,4.2-0.8,6.3-1.4
		c2.2-0.6,4.3-1.3,6.5-1.8c0.5-0.1,7.4-3.3,7.8-3.7c4-3.1,7.6-6.8,10.6-10.8c1.2-1.5,2.1-3.3,2.6-5.1c0.8-2.6,2.1-5.1,2.9-7.7
		c0.2-0.7,0.4-1.4,0.6-2.1c0.6-2.6,1.3-5.1,1.9-7.7c0.5-2.2,1.2-4.3,1.5-6.5c0.4-3,0.6-5.9,0.8-8.9c0.1-1.4-0.1-2.8-0.1-4.2
		c0-1.6,0.1-3.1-0.4-4.6c-0.5-1.5-0.3-3.1-0.6-4.7c-0.8-4.3-2-8.5-3.3-12.7c-1.4-4.4-2.7-8.9-4.4-13.2c-0.1-0.3-0.3-0.6-0.3-0.9
		c-0.1-2.5-1.7-4.4-2.6-6.6c-0.4-1-1-1.9-1.5-2.9c-1.2-2.2-2.6-4.2-3.6-6.5c-0.8-1.8-1.8-3.7-1.3-5.9
		C744.7,498.4,744.9,498.4,745.1,498.4z"/>
	<path class="st7" d="M325.6,352.7c-3.8-1.5-7.5-2.8-11.1-4.3c-3-1.3-6.1-2.6-8.8-4.6c-0.9-0.7-2.1-1-2.9-1.9
		c-0.2-0.2-0.5-0.4-0.8-0.6c-1.8-1.7-1.5-3.9,0.8-5c0.9-0.4,1.8,0,2.6,0.4c2.1,1,4.1,2.1,6.3,3c4.6,2,9.2,3.7,14,5.2
		c0.5,0.2,1.1,0.4,1.6,0.6c0.5,0.3,1,0.5,1.6,0.5c1.5-0.1,2.7,0.5,4.1,0.9c2.4,0.7,3.4,2.5,3.9,4.7c0.2,1-0.3,2-1,2.7
		c-1.1,1.2-2.3,2.4-3.5,3.5c-1.6,1.5-3,3.2-4.9,4.2c-0.9,1.4-2.3,2.4-3.5,3.5c-1.7,1.5-3.3,3-5,4.5c-0.4,0.4-0.8,0.8-1.4,1.1
		c-1,0.4-1.6,1.1-2.1,2c-0.2,0.3-0.3,0.6-0.6,0.8c-1.5,1.2-3,2.4-4.5,3.6c-1.1,0.9-2.4,1-3.8,1.1c-0.9,0-1.6-0.4-2.1-1.1
		c-1.5-1.9-1.4-4.1,0.4-5.8c1.1-1.1,2.2-2,3.3-3c1.3-1.2,2.6-2.3,3.9-3.5c1.9-1.8,4-3.4,5.9-5.4c1.1-1.1,2.3-2.2,3.6-3
		C323.3,355.8,324.3,354.4,325.6,352.7z"/>
	<path class="st7" d="M400.7,332c0.6,0.7,1.4,0.9,2.2,1c2.7,0.5,5.4,0.9,8.1,1.4c5.6,1,11.2,2.3,16.7,3.8c1,0.3,2,0.8,2.9,1.3
		c1.6,1,2,2.1,1.5,3.8c-0.7,2.5-2,3.4-4.6,3c-1.8-0.3-3.6-0.8-5.3-1.3c-2-0.5-4-1.1-6-1.6c-3.3-0.7-6.6-1.4-10-2.1
		c-0.9-0.2-1.8-0.5-2.6-0.8c-1.6-0.5-3.2-0.9-4.7-1.5c-1.2-0.5-2.5-0.9-3.6-1.7c-0.6-0.4-1.3-0.7-2-1c-2.3-1-3-3.5-1.7-5.6
		c0.3-0.5,0.7-0.9,1.1-1.3c2.8-2.9,5-6.4,7.7-9.3c2-2.2,3.7-4.6,5.6-7c1.4-1.7,2.7-3.4,4.2-4.9c1.4-1.5,3.3-1.7,4.5-0.6
		c1.3,1.2,2,3.6,0.6,5.2c-1.3,1.5-2.6,3-3.8,4.6c-2.1,2.8-4.5,5.3-6.3,8.3c-0.7,1.1-1.6,2.1-2.5,3.1
		C401.9,329.9,401.2,330.9,400.7,332z"/>
	<path class="st9" d="M375,302c-0.3-1.5,0.1-2.9,0.4-4.3c0.4-2,1.7-3.6,3-5.1c0.7-0.8,1.2-1.8,2.2-2.3c2.5-1.4,5.2-2,8-2.6
		c2.4,0.4,4.8,0.3,7,1.3c1.2,0.5,2.2,1.5,3.1,2.4c0.5,0.5,0.8,1.2,0.7,1.8c-0.1,1-0.1,2-0.5,2.9c-0.5,1.3-1.2,2.3-2.6,2.8
		c-0.8,0.3-1.6,0.9-2.4,1.3c-3,1.6-5,4.1-6.4,7.1c-1.3,2.6-3.7,3.7-6.3,4.5c-1.9,0.6-4-0.6-4.6-2.4C375.7,307,374.6,304.6,375,302z"
		/>
	<path class="st9" d="M338.1,319.2c0,0.3,0.1,0.7,0.1,1c0,2.6-1.6,4.6-4.2,4.8c-1.5,0.1-3-0.2-4.2-1.3c-0.4-0.3-0.7-0.7-1.1-1
		c-0.5-0.5-1.1-0.7-1.8-0.6c-1.3,0.2-2.6,0.4-3.9,0.6c-1.4,0.3-2.7,0.7-4.1,1c-3.8,0.8-6.1-0.8-6.7-4.3c-0.3-1.5-0.1-2.9,0.6-4.3
		c1-2.1,2.4-3.7,4.2-5.1c2.2-1.5,4.4-2.4,7.2-2.3c2.9,0.1,5.6,0.7,8.1,2.1c2.5,1.4,4.5,3.3,5.4,6.2
		C338.1,317.1,337.9,318.1,338.1,319.2z"/>
	<path class="st10" d="M176.6,341.8c0.1-0.3,0-0.8,0.2-1c0.9-1,1.3-2.2,1.8-3.4c0.6,0,0.8,0.4,1,0.8c2.5,4.3,5.2,8.5,8.1,12.6
		c1.8,2.6,3.6,5.1,5.5,7.6c2.7,3.5,5.5,6.8,8.1,10.3c2.2,3,4.4,6,6.7,8.9c2.2,2.8,4.6,5.4,7,8c1.8,1.9,3.6,3.9,5.5,5.7
		c2.7,2.5,5.6,4.9,8.4,7.3c0.7,0.6,1.5,1,1.9,1.9c-0.9,0.3-1.6-0.2-2.4-0.4c-2.3-0.8-4.3-2-6.2-3.6c-1.4-1.3-3-2.4-4.3-3.7
		c-2.8-2.8-5.8-5.4-8.6-8.3c-1.7-1.8-3.7-3.4-4.9-5.6c-0.2-0.3-0.4-0.5-0.7-0.7c-3.4-3.6-6.4-7.5-9.4-11.5c-1-1.3-2.1-2.6-3.1-3.9
		c-1.2-1.8-2.8-3.3-4-5c-2.3-3.3-4.6-6.7-6.9-10c-0.8-1.2-1.5-2.6-2.3-3.8C177.6,343.2,177.1,342.5,176.6,341.8z"/>
	<path class="st11" d="M289.2,394.1c0,1.5-1.2,2.4-2.7,1.9c-0.8-0.3-1.7-0.8-2.4-1.3c-1-0.7-1.9-1.5-2.7-2.5
		c-0.7-0.9-1.7-1.5-2.2-2.6c-0.2-0.5-0.7-0.9-1-1.4c-0.9-1.1-1.2-2.4-1.4-3.7c-0.2-1.4,0.4-2.4,1.7-3c1.4-0.6,2.4-0.5,3.4,0.4
		c0.4,0.4,0.8,0.9,1.1,1.3c1.6,2.2,3.2,4.4,4.7,6.7C288.4,390.9,289.2,393.2,289.2,394.1z"/>
	<path class="st11" d="M438.9,344.7c0-2.3,2.4-4.1,4.5-3.1c2.5,1.1,4.5,3,5.8,5.5c0.4,0.8,0.3,1.6-0.3,2.3c-1.4,1.9-3,2.3-4.9,0.9
		c-1.6-1.2-3-2.6-4.5-3.9C439,346,438.9,345.3,438.9,344.7z"/>
	<path class="st11" d="M459.8,341.6c0,1.8-1.8,3.3-3.4,2.9c-1-0.3-2-0.7-2.8-1.5c-1.3-1.4-2.7-2.7-4-4.1c-1.2-1.3-0.9-2.9,0.6-3.7
		c0.8-0.4,1.7-0.8,2.6-0.3c2.8,1.3,5.2,3.2,6.7,6C459.7,341.2,459.8,341.5,459.8,341.6z"/>
	<path class="st11" d="M299.9,391c-1.9-0.3-3.9-0.6-5.4-2.4c-0.6-0.8-1.4-1.4-2.2-2c-1-0.8-1.3-1.9-1-3.1c0.3-1.2,1.7-2.3,2.9-2.3
		c0.9,0,1.7,0.4,2.3,0.9c1.3,1.3,2.9,2.4,3.8,4.2c0.6,1.2,0.9,2.5,1.2,3.7c0.2,0.7-0.2,1-1,1.1C300.4,391,300.3,391,299.9,391z"/>
	<path class="st10" d="M336.6,290.2c-0.2-0.2-0.3-0.3-0.5-0.5c2.4-1.4,4.9-2.3,7.5-3.3c4-1.5,8.1-3,12.1-4.4c0.3-0.1,0.6-0.2,1-0.2
		c-0.3,0.8-1,1-1.7,1.3c-2.7,1.1-5.4,2.4-8.2,3.3c-1.5,0.5-2.8,1.3-4.3,1.7c-1.5,0.4-2.9,1-4.3,1.7C337.6,290,337.1,290,336.6,290.2
		z"/>
	<path class="st2" d="M146.3,373.5c0.9-1.1,2.3-1.5,3.1-2.7c0.1-0.1,0.5-0.3,0.7-0.2c1.3,0.6,2.7,0.3,4.1,0.5
		c-0.1,0.3-0.3,0.6-0.4,0.9c-0.5,1.3-1.5,1.8-2.9,1.6C149.4,373.6,147.8,373.6,146.3,373.5z"/>
	<path class="st10" d="M745.1,498.4c-0.2,0-0.4,0-0.5,0c-0.7-2-2.3-3.4-3.2-5.3c-0.4-0.7-0.9-1.4-1-2.2c0.2,0,0.3,0,0.5-0.1
		c0.2,0.2,0.6,0.4,0.7,0.6c1.2,2.1,2.4,4.3,3.5,6.4C745.1,498.1,745,498.2,745.1,498.4z"/>
	<path class="st2" d="M356.6,281.7c0.3-0.6,0.8-0.5,1.3-0.5C357.6,281.6,357.1,281.7,356.6,281.7z"/>
	<path class="st10" d="M230.7,400.5c0.2,0.1,0.4,0.2,0.4,0.4C231,400.8,230.9,400.7,230.7,400.5z"/>
	<path class="st2" d="M128.6,195c1.3,0.3,2.6,0.3,3.9,0c1.3-0.4,2.6,0.2,3.9,0.5c1.2,0.2,2.3,0.5,3.5,0.3c1.3-0.1,2.4,0.4,3.7,0.5
		c2.9,0.2,5.8,0.5,8.6,1.1c3.1,0.6,6.3,0.8,9.2,1.8c2.1-0.1,3.8,0.8,5.7,1.5c1.1,0.4,2.3,0.5,3.4,0.6c1.4,0.1,2.8,0.5,4.2,0.6
		c1.6,0.2,2.7,1.2,4,1.9c0.1,0.1,0.3,0.2,0.4,0.3c0.6,2,2.5,3,3.4,4.8c0.6,1.3,1.3,2.5,1.6,3.9c0.2,1,0.5,1.9,0.9,2.8
		c0.3,0.5,0.4,1.1,0.6,1.6c0.9,3,2,6,2.8,9c0.7,2.8,2,5.5,2.1,8.4c1.3,4.7,1.8,9.6,3.2,14.3c0.1,0.4,0.2,0.8,0.2,1.2
		c0.2,1.1,0.5,2.3,1.2,3.2c0.7,0.9,0.7,1.9,0.6,3.1c-0.4,2.4-0.5,4.8-0.9,7.2c-0.5,2.8-0.3,5.6-0.4,8.4c-0.1,1.6-0.3,3.3-1.4,4.7
		c-0.2,0.3-0.4,0.6-0.4,0.9c-0.8,3.1-2.2,5.9-3,9c-0.7,2.7-2.1,5.2-2.4,8c-1.4,2.1-1.3,4.8-2.6,6.9c-1,3.9-2.8,7.4-3.9,11.3
		c-0.6,2-1.6,3.8-2.3,5.8c-1.6,4.1-3.3,8.1-5.3,12.1c-0.2,0.4-0.4,0.8-0.5,1.2c-0.3,1.4-0.9,2.7-1.9,3.7c-0.3,0.3-0.6,0.8-0.8,1.3
		c-0.8,1.9-1.8,3.7-3,5.5c-0.8,1.2-1.4,2.4-2,3.7c-1.1,2.3-2.4,4.5-3.7,6.7c-1.7,2.8-3.6,5.4-5.3,8.2c-1,1.8-2.6,3-4.2,4.1
		c-1.5,1.1-3,1.2-4.7,0.8c-3.2-0.7-6.4-0.4-9.6,0c-2,0.3-4.1,0.5-6.1,1.1c-1.1,0.3-2.2,0.5-3.4,0.2c-0.8-0.2-1.8,0.2-2.7,0.3
		c-2.3,0.1-4.7,0.1-7,0.2c-0.7,0-1.5,0-2.2,0.2c-0.2,0.1-0.5,0.2-0.7,0.1c-2.1-0.3-4.1,0.2-6.2,0c-2-0.1-4.1-0.1-6.1-0.2
		c-1.3,0-2.6-0.2-3.9,0.2c-0.2,0-0.3,0-0.5,0c-4.2-0.9-8.4-0.5-12.7-0.6c-1.6,0-3.1-0.4-4.7-0.6c-1.5-0.1-3-0.3-4.5-0.4
		c-1,0-2-0.1-3-0.4c-0.9-0.3-1.9,0.5-2.9-0.2c-0.9-0.7-2.1-0.2-3.2-0.5c-1-0.2-1.9-0.5-2.9-0.7c-1.4-0.4-2.8-0.3-4.2-0.6
		c-2.3-0.4-4.6-0.7-6.8-1.1c-1.2-0.2-2.4-0.6-3.6-1c-1-0.4-1.5-1.1-1.6-2.3c-0.3-3.8-1-7.6-2.2-11.2c-1-2.9-1.1-6-2.1-8.9
		c-0.4-1-0.3-2.1-0.4-3.2c-0.3-1.8-0.7-3.6-1.3-5.3c-0.6-2-0.6-4.1-0.5-6.2c1.1,0,1.9,0.8,2.9,1c-0.1,1.6,0.6,2.7,1.8,3.6
		c1,0.9,2.2,1.4,3.5,1.9c3,1.2,6.2,1.7,9.2,2.8c0.6,0.2,1.3,0.2,2,0.3c1.4,0.1,2.8,0.1,4.1,0.7c0.6,0.3,1.5,0.1,2.2,0.2
		c1.8,0.1,3.6,0.3,5.4,0.4c0.9,0.1,1.8,0.1,2.7,0.1c2.1,0,4.2,0,6.2,0c1.4,0,2.9,0.1,4.2-0.1c1.4-0.3,2.8-0.3,4.2-0.3
		c1.9-0.1,3.8,0,5.7-0.3c1.8-0.2,3.6-0.1,5.4-0.8c0.6-0.2,1.2,0,1.7,0.2c0.5,0.2,1,0.2,1.5,0.1c0.9-0.3,1.8-0.2,2.7-0.2
		c1.2,0,2.5-0.1,3.7-0.3c1.3-0.2,2.5-1.1,3.8-0.3c0.1,0.1,0.3,0,0.5,0c1.4-0.3,2.7-0.7,4.1-1c2.2-0.6,4.1-1.9,6.1-2.8
		c0.4-0.2,0.8-0.3,0.9-0.8c-0.6-0.3-1.2-0.5-1.8-0.8c-1.9-1.1-4.2-0.9-6.2-1.8c-0.2-0.1-0.5,0-0.7,0c-1.8-0.1-3.6,0.5-5.4,0
		c-0.2,0-0.3,0-0.5,0c-2.1,0.6-4.3,0.4-6.4,0.3c-0.4-0.5-0.9-0.4-1.4-0.4c-1.3-0.1-2.7,0-4-0.2c-1.5-0.2-3-0.3-4.5-0.4
		c-1.5-0.1-2.9-0.1-4.4-0.3c-2.5-0.4-5.1-0.4-7.7-0.6c-1.7-0.1-3.5,0-5.2-0.3c-1.3-0.2-2.6-0.4-3.9-0.2c-0.5,0.1-1,0-1.5-0.1
		c-4.4-0.5-8.8-0.6-13.2-1c-2.3-0.2-4.7,0.2-6.9-0.8c-0.2-0.1-0.5-0.1-0.7-0.1c-1.6-0.2-3.3-0.4-4.9-0.7c-1.1-0.2-2.3-0.5-3.4-0.9
		c-1-0.4-1.6-1-1.6-2.3c0.2-4.1,0.8-8.1,1.6-12.1c1.1-5.3,2.5-10.6,3.8-16c0.2-0.6,0.3-1.3,0.7-1.9c0.9-1.5,1.2-3.1,1.7-4.7
		c0.1-0.3,0.1-0.7,0.2-1c1.3-2.1,1.9-4.6,3-6.8c0.4-0.9,1-1.7,1.3-2.7c0.9-2.8,2.7-5.3,3.3-8.3c1.8-2.7,2.3-6,3.8-8.9
		c0.2-0.4,0.2-0.8,0.3-1.2c0.1-0.4,0.3-0.8,0.4-1.2c2-4.4,4.2-8.6,6-13.1c0.1-0.2,0.2-0.5,0.4-0.6c1.1-1.2,1.6-2.7,2.2-4.1
		c0.4-0.9,0.8-1.9,1.3-2.7c1.8-2.6,3.2-5.4,4.7-8.2c0.9-1.6,1.6-3.3,2.6-4.8c1.5-2.3,2.2-5,3.6-7.3c0.7-1.2,1.1-2.6,1.6-3.9
		c0.2-0.5,0.3-0.9,0.7-1.3c0.9-1,1.8-1.9,2.7-2.9c1.9-2,4.3-3,6.8-3.9c1.3-0.5,2.7-0.8,4.1-1.1c2.7-0.6,5.5-1.2,8.2-1.8
		c1-0.2,1.9-0.6,2.9-0.7c1.5-0.1,3-0.5,4.4-0.8c1.5-0.3,3-1.1,4.6-0.7c3-0.7,6-1,9-1.4C128.5,195,128.5,195,128.6,195z M161.3,302.6
		c-0.6,0.4-0.5,1.2-0.9,1.7c-2-0.8-4.1-0.5-6.1,0.1c-0.1,0-0.2,0.1-0.2,0.1c-1.5,0-2.7,0.7-3.6,1.9c-0.3,0.4-0.7,0.6-1.2,0.9
		c-1.7,0.9-3.2,2-4,3.9c-0.1,0.3-0.3,0.6-0.6,0.8c-1.5,1-2.2,2.6-3,4.2c-0.8,1.5-1.2,3.1-1.8,4.6c-1.2,2.7-2.1,5.4-2.1,8.4
		c0,0.4-0.1,0.8-0.2,1.2c-0.6,2.9-1.1,5.9-0.5,8.9c0.3,1.6,0.5,3.3,0.7,4.9c0.5,3.1,1.6,5.6,3.9,7.8c1.8,1.7,5.3,2.5,7.8,1.3
		c0.2-0.1,0.4-0.2,0.7-0.3c2.1-0.9,3.8-2.4,5.5-3.8c0.8-0.6,1.6-1.2,2.2-2c1.9-2.6,4-5.1,5-8.3c0.2-0.5,0.5-1,0.8-1.5
		c1.5-2.4,2.3-4.9,3-7.6c0.7-3.1,1.2-6.2,1.2-9.4c0-0.2,0-0.5,0-0.7c0.7-2.9-0.2-5.6-1.1-8.2c-0.7-2.1-2.3-3.6-3.6-5.3
		c-0.1-0.1-0.1-0.3,0-0.4c0.9-0.5,1.6-1.2,2-2.1c1.2-2.4,2.4-4.9,3.3-7.5c0.3-0.9,0.5-1.8,0.8-2.6c1.4-3.7,2.7-7.5,3.5-11.4
		c1.1-4.7,2.3-9.3,3.4-14c0.6-2.9,1.2-5.8,1.6-8.8c0.4-2.9,1.2-5.7,1.8-8.5c0.5-2.8,0.8-5.6,1.3-8.3c0.8-3.8,1.2-7.7,1.6-11.6
		c0.2-2.1,0.2-4.2,0-6.2c-0.3-3.5-0.9-7.1-1-10.6c0,0-0.1-0.1-0.1-0.1c-0.5,0.1-0.6,0.6-0.6,1c-0.1,1.5-0.7,2.9-1.1,4.3
		c-0.7,2.8-1.8,5.5-1.9,8.4c0,0.6-0.2,1.2-0.6,1.6c-0.5,2-1.1,4.1-1.6,6.1c-0.1,0.4-0.2,0.8,0,1.2c-0.1,0.2-0.3,0.4-0.4,0.6
		c-0.9,4.5-1.7,8.9-2.6,13.4c-0.5,2.2-0.1,4.5-1.3,6.5c-0.8,5.5-2.1,10.9-3.2,16.3c-1.2,5.9-2.8,11.8-4.4,17.6
		c-0.5,1.8-0.8,3.5-1.3,5.3C162,298.4,161.6,300.4,161.3,302.6z M91,229.7c-0.2-0.4,0.2-0.8-0.2-1.2c-0.2,0.2-0.4,0.3-0.5,0.5
		c-1.4,1.7-2.9,3.4-4.2,5.2c-1.7,2.4-3.6,4.6-4.7,7.3c-0.2,0.5-0.5,1.1-0.9,1.5c-1,0.9-1.5,2.2-2.1,3.3c-0.8,1.6-1.7,3.2-2.4,4.8
		c-0.9,2.1-2.1,4.1-3.2,6.2c-1.3,2.8-2.7,5.5-3.9,8.3c-1.2,2.6-2.3,5.1-3.3,7.7c-0.4,1.1-0.8,2.2-1.5,3.1c-0.8,1.1-0.3,2.5-0.9,3.6
		c-0.2,0.4-0.3,0.8-0.5,1.1c-1,1.5-1.2,3.4-1.9,5.1c-0.5,1.2-0.5,2.4,0.1,3.6c0.6,1.2,1.5,1.8,2.8,1.8c1.1,0,1.9-0.4,2.6-1.2
		c0.4-0.5,0.8-1,1.2-1.6c0.3,0.3,0.6,0.6,0.9,0.8c1.3,0.9,2.1,0.7,2.9-0.6c0.6-1.1,1.3-2.1,1.8-3.3c1.1-2.3,2.2-4.6,3.2-7
		c1.6-3.7,2.8-7.6,4.7-11.2c0.3-1.8,1.1-3.4,1.7-5.2c0.7-2.3,1.6-4.5,2.5-6.7c0.8-2,1.6-4,2.3-6c1-3.3,2.1-6.6,3.1-9.9
		c1.6-5,2.5-10.1,3.9-15.1c0-0.2,0-0.3,0-0.5c0.3-0.1,0.5-0.4,0.4-0.7c0-0.1-0.2-0.2-0.2-0.3c0,0.1-0.1,0.1-0.1,0.2
		c0,0.3,0,0.6-0.1,0.9c-0.7,0.1-0.8,0.7-1.1,1.2C92.6,226.9,92.1,228.5,91,229.7z M123.9,293.4c0.1,1.2,0.2,2.3-0.2,3.5
		c-0.3,1,0,2,0.4,2.9c0.2,0.6,0.7,0.9,1.4,0.9c0.5,0,0.9-0.3,1.2-0.7c0.1-0.2,0.2-0.5,0.3-0.7c1.6-2.9,2.4-6.2,3.4-9.3
		c0.9-2.7,1.4-5.6,2.6-8.3c0.2-0.5,0.3-1.1,0.4-1.7c0.3-1.1,0.3-2.3,0.8-3.4c1.4-3,2.1-6.3,3-9.4c1-3.5,2.2-7,3-10.5
		c0.7-3.3,1.7-6.6,2.5-9.9c1.1-4.3,2.5-8.6,3.5-13c1-4.5,1.8-8.9,1.7-13.5c0-0.3,0.2-0.8-0.3-1c-1.4,2.3-2.7,4.6-4,6.8
		c-0.2,0.3-0.4,0.6-0.4,0.9c-0.1,1.4-0.9,2.5-1.5,3.7c-0.4,0.8-0.8,1.7-0.9,2.6c-1.1,1.2-2.3,2.4-3,3.9c-1,1.8-1.9,3.6-2.9,5.5
		c-2,4-3.7,8.1-5,12.4c-0.2,0.6-0.5,1.2-0.8,1.8c-0.2,0.5-0.5,1-0.8,1.6c-1.5,3.9-3.3,7.8-4.2,11.9c-0.3,1.5-1.2,2.7-1.6,4.2
		c-0.7,2.5-1.2,5-2.1,7.4c-1.2,3.2-1.2,6.5-1.8,9.7c-0.2,0.9,0,1.8,0.4,2.7c0.6,1.2,2.1,1.5,3.1,0.6
		C122.8,294.5,123.3,293.9,123.9,293.4z M93.2,293.1c-0.1,1.1-0.2,2.1-0.2,3.2c0,0.7,0.2,1.3,0.5,1.9c0.4,0.6,1.3,0.6,1.7,0.1
		c0.2-0.3,0.5-0.6,0.5-0.8c0.1-1.4,0.9-2.5,1.2-3.8c1.4-5.8,3.3-11.5,4.7-17.3c0.1-0.6,0.5-1.2,0.7-1.9c0.2-0.5,0.4-1.1,0.5-1.7
		c0.6-2.1,0.8-4.2,1.8-6.1c0-0.1,0.1-0.2,0.1-0.2c0.5-2.3,1.2-4.5,1.9-6.7c0.9-3.2,1.7-6.4,2.6-9.6c0.2-0.6,0.5-1.2,0.7-1.9
		c0.2-0.5,0.4-0.9,0.5-1.4c1-2.9,2-5.8,3-8.7c0.7-2,1.4-3.9,1.9-5.9c0.2-0.7,0.4-1.4,0.7-2.1c1.4-3.3,2.5-6.7,3.1-10.2
		c0.1-0.4,0.3-0.9,0.2-1.2c-0.3-1.2,0.1-2.3,0.3-3.4c0.3-1.3,0.3-1.3,0-2.9c-0.9,0.8-1.4,1.7-2,2.6c-0.3,0.5-0.6,1-1.1,1.4
		c-0.8,0.6-1.1,1.4-1.6,2.2c-0.6,1.1-1.1,2.2-1.6,3.4c-0.4,0.9-1.1,1.8-1.2,2.7c-0.4,2.5-2,4.6-2.4,7c-0.2,0.9-0.8,1.6-0.8,2.6
		c0,0.3-0.2,0.7-0.3,0.9c-1.3,2.1-1.8,4.4-2.5,6.7c-0.3,1.1-0.5,2.3-0.9,3.3c-0.2,0.2-0.5,0.4-0.7,0.7c-0.7,1-1,2.3-1.6,3.3
		c-1.8,2.9-2.6,6.1-3.8,9.2c-0.7,1.8-1.3,3.6-1.8,5.4c-0.6,2.6-1.4,5.1-2.4,7.6c-0.2,0.5-0.3,0.9-0.5,1.4c-0.8,2.7-1.5,5.4-2.3,8.1
		c-0.9,2.9-1,5.9-1.5,8.8c-0.1,0.3,0,0.7,0,1c0,0.7,0.2,1.3,0.7,1.8C91.7,293.1,92.4,293.4,93.2,293.1z"/>
	<path class="st10" d="M45,326.1c-1-0.2-1.8-1-2.9-1c0,0,0,0,0,0c0-0.4-0.2-0.5-0.5-0.5c-0.4-0.4-0.5-0.8-0.5-1.4
		c0.1-2.4-0.5-4.8-0.7-7.2c0-0.6-0.1-1.1,0.2-1.7c0.6-1,0.6-2.1,0.8-3.1c0.2-1.1-0.1-2.2-0.9-3c-0.7-0.7-0.8-1.5-0.9-2.5
		c-0.1-1.5,0.1-3,0.4-4.4c0.4-2.1,0.5-4.3,1.2-6.4c0.9-3,1.5-6.1,2.8-9c0.1-0.3,0.2-0.6,0.4-0.9c1.2-1.7,1.8-3.7,2.4-5.7
		c0.4-1.4,1.1-2.8,1.7-4.1c1.4-3.1,2.9-6.2,4-9.3c1.2-3.1,2.4-6.1,3.7-9.2c1.3-3,2.6-5.9,3.9-8.9c0.3-0.6,0.4-1.2,0.7-1.9
		c0.5-1.4,1.1-2.8,1.9-4.1c0.7-1.1,1.3-2.3,1.9-3.5c1.1-2.5,2.3-4.9,3.6-7.3c2-3.9,4.1-7.7,6.2-11.6c1.1-2,2.4-3.8,3.4-5.8
		c1.1-2.1,2.5-4.1,3.8-6.1c1.7-2.4,2.9-5.2,5-7.4c1-1.1,2.2-1.8,3.6-1.9c1.3-0.1,2.6-0.2,3.9-0.6c0.8-0.2,1.6-0.5,2.3-0.8
		c0.8-0.4,1.6-0.9,2.6-0.5c0.1,0.1,0.3,0,0.5,0c3.4-1,7-1.1,10.5-1.4c0.6,0,1.2-0.1,1.7-0.2c1.1-0.2,2.3-0.3,3.4-0.6
		c1.1-0.3,2.1,0.3,3.1,0.4c2.2,0.1,4.5,0.2,6.7-0.1c1.3-0.2,2.4,0.2,3.6,0.4c-0.1,0-0.2,0-0.3,0c-3,0.4-6.1,0.7-9,1.4
		c-1.6-0.4-3.1,0.4-4.6,0.7c-1.5,0.3-2.9,0.7-4.4,0.8c-1,0-1.9,0.5-2.9,0.7c-2.7,0.6-5.5,1.2-8.2,1.8c-1.4,0.3-2.8,0.6-4.1,1.1
		c-2.5,0.9-4.9,1.9-6.8,3.9c-0.9,1-1.8,2-2.7,2.9c-0.4,0.4-0.5,0.8-0.7,1.3c-0.5,1.3-0.9,2.7-1.6,3.9c-1.4,2.4-2.1,5-3.6,7.3
		c-1,1.5-1.8,3.2-2.6,4.8c-1.5,2.8-2.9,5.6-4.7,8.2c-0.6,0.8-0.9,1.8-1.3,2.7c-0.6,1.5-1.2,2.9-2.2,4.1c-0.2,0.2-0.3,0.4-0.4,0.6
		c-1.8,4.5-4,8.8-6,13.1c-0.2,0.4-0.3,0.8-0.4,1.2c-0.1,0.4-0.1,0.9-0.3,1.2c-1.5,2.8-2,6.1-3.8,8.9c-0.6,3-2.3,5.5-3.3,8.3
		c-0.3,1-0.9,1.8-1.3,2.7c-1.1,2.2-1.6,4.7-3,6.8c-0.2,0.3-0.1,0.6-0.2,1c-0.5,1.6-0.8,3.2-1.7,4.7c-0.3,0.6-0.5,1.2-0.7,1.9
		c-1.3,5.3-2.7,10.6-3.8,16c-0.8,4-1.5,8-1.6,12.1c0,1.2,0.6,1.9,1.6,2.3c1.1,0.4,2.2,0.7,3.4,0.9c1.6,0.3,3.3,0.5,4.9,0.7
		c0.2,0,0.5,0,0.7,0.1c2.2,1,4.6,0.6,6.9,0.8c4.4,0.3,8.8,0.4,13.2,1c0.5,0.1,1,0.1,1.5,0.1c1.3-0.2,2.6,0,3.9,0.2
		c1.7,0.3,3.5,0.2,5.2,0.3c2.6,0.2,5.2,0.1,7.7,0.6c1.5,0.3,3,0.2,4.4,0.3c1.5,0.1,3,0.2,4.5,0.4c1.3,0.2,2.6,0.2,4,0.2
		c0.5,0,1-0.1,1.4,0.4c-1.4,0.4-2.9,0.4-4.4,0.6c-2.9,0.3-5.8,0-8.6,0.9c-0.3,0.1-0.7,0.1-1,0c-1.6-0.6-3.2,0.5-4.8,0
		c-1.1,0.7-2.2,0.3-3.4,0.2c-0.6,0-1.2-0.2-1.7-0.1c-2.2,0.6-4.4,0-6.6,0.4c-0.3,0-0.7,0-1,0c-3.2-0.5-6.4-0.2-9.6-0.9
		c-0.2-0.1-0.5-0.1-0.7,0c-1.2,0.2-2.3-0.3-3.4-0.4c-1.3,0-2.4-0.4-3.6-0.8c-0.8-0.3-1.6-0.4-2.4-0.7c-1.6-0.8-3.6-0.6-5.1-1.7
		c-0.7-0.4-1.6-0.5-2.4-0.3C45.8,324.5,45.3,325.3,45,326.1z"/>
	<path class="st11" d="M399.4,396c0.3,2.7,0.6,5.5,0.8,8.3c0.3,3.6,0.5,7.1,0.7,10.7c0.2,3.1,0.3,6.1,0.5,9.2c0.1,1.4,0,2.8,0,4.2
		c0,0.6-0.1,1.2,0,1.7c0.2,3.3-0.4,6.6-1,9.9c-0.5,2.6-1.4,5.1-3,7.3c-1.2,1.6-2.8,2.6-4.7,3c-0.5,0.1-1-0.1-1.4-0.3
		c-1.9-0.6-3.3-1.9-4.7-3.2c-2.9-2.9-5.5-6-7.2-9.8c-1.5-1.6-1.9-3.9-3.1-5.6c-0.4-0.5-0.5-1.2-0.7-1.8c-0.4-1-0.7-2-1.3-3
		c-0.8-1.3-0.9-3-1.8-4.3c-0.6-3.1-2.1-5.9-2.9-9c-1-3.9-2.2-7.8-3-11.8c-0.8-4-1.8-7.9-2.8-11.8c-0.3-1.3-0.3-1.3,1-1.7
		c1.4-0.5,2.8-1,4.2-1.4c3-0.9,5.8-2.5,8.5-4c3.8-2.1,7.4-4.4,10.6-7.3c2-1.8,4-3.5,5.7-5.6c0.2-0.2,0.4-0.6,0.8-0.4
		c0.4,0.1,0.3,0.5,0.4,0.8c0.1,0.5,0.2,1,0.4,1.4c0.8,1.5,1.1,3.1,1.4,4.7c0.4,1.8,0.5,3.6,0.7,5.4c0.2,1.2,0.3,2.5,0.4,3.7
		c0.3,2.6,0.7,5.3,1.1,7.9C399.2,394.1,399.6,395,399.4,396z"/>
	<path class="st12" d="M163.3,306.1c1.3,1.7,2.9,3.2,3.6,5.3c0.9,2.7,1.8,5.3,1.1,8.2c-0.1,0.2,0,0.5,0,0.7c0,3.2-0.5,6.3-1.2,9.4
		c-0.6,2.7-1.5,5.2-3,7.6c-0.3,0.5-0.7,1-0.8,1.5c-1,3.2-3,5.7-5,8.3c-0.6,0.8-1.5,1.3-2.2,2c-1.7,1.4-3.4,2.9-5.5,3.8
		c-0.2,0.1-0.4,0.2-0.7,0.3c-2.5,1.2-6,0.4-7.8-1.3c-2.3-2.2-3.4-4.7-3.9-7.8c-0.3-1.6-0.4-3.3-0.7-4.9c-0.6-3-0.1-5.9,0.5-8.9
		c0.1-0.4,0.2-0.8,0.2-1.2c-0.1-3,0.9-5.7,2.1-8.4c0.7-1.5,1-3.1,1.8-4.6c0.8-1.6,1.5-3.1,3-4.2c0.3-0.2,0.5-0.5,0.6-0.8
		c0.8-1.9,2.2-3,4-3.9c0.5-0.2,0.9-0.5,1.2-0.9c0.9-1.2,2.1-1.9,3.6-1.9c0.1,0,0.2-0.1,0.2-0.1c2-0.6,4-0.9,6.1-0.1
		c0.4,0.7,0.8,1.4,1.8,1.4C162.6,305.7,163,306,163.3,306.1z"/>
	<path class="st3" d="M45,326.1c0.3-0.9,0.9-1.6,1.8-1.9c0.8-0.2,1.7-0.2,2.4,0.3c1.6,1,3.5,0.9,5.1,1.7c0.7,0.3,1.6,0.5,2.4,0.7
		c1.2,0.4,2.3,0.8,3.6,0.8c1.1,0,2.2,0.6,3.4,0.4c0.2,0,0.5,0,0.7,0c3.2,0.7,6.4,0.3,9.6,0.9c0.3,0.1,0.7,0.1,1,0
		c2.2-0.3,4.4,0.2,6.6-0.4c0.5-0.1,1.1,0.1,1.7,0.1c1.1,0.1,2.3,0.5,3.4-0.2c1.6,0.5,3.2-0.6,4.8,0c0.3,0.1,0.7,0.1,1,0
		c2.8-0.9,5.7-0.6,8.6-0.9c1.5-0.2,2.9-0.2,4.4-0.6c2.2,0.1,4.3,0.3,6.4-0.3c0.2,0,0.3-0.1,0.5,0c1.8,0.4,3.6-0.1,5.4,0
		c0.2,0,0.5-0.1,0.7,0c2,0.9,4.3,0.7,6.2,1.8c0.6,0.3,1.2,0.5,1.8,0.8c-0.1,0.5-0.5,0.6-0.9,0.8c-2,1-3.9,2.2-6.1,2.8
		c-1.4,0.4-2.7,0.7-4.1,1c-0.2,0-0.4,0.1-0.5,0c-1.4-0.7-2.6,0.1-3.8,0.3c-1.2,0.2-2.5,0.2-3.7,0.3c-0.9,0-1.8-0.1-2.7,0.2
		c-0.5,0.2-1,0.1-1.5-0.1c-0.6-0.2-1.1-0.4-1.7-0.2c-1.7,0.7-3.6,0.6-5.4,0.8c-1.9,0.2-3.8,0.2-5.7,0.3c-1.4,0-2.8,0.1-4.2,0.3
		c-1.4,0.3-2.8,0.1-4.2,0.1c-2.1,0-4.2,0-6.2,0c-0.9,0-1.8-0.1-2.7-0.1c-1.8-0.1-3.6-0.2-5.4-0.4c-0.7-0.1-1.6,0.1-2.2-0.2
		c-1.3-0.6-2.7-0.6-4.1-0.7c-0.7,0-1.4-0.1-2-0.3c-3-1.1-6.2-1.6-9.2-2.8c-1.2-0.5-2.4-1-3.5-1.9C45.5,328.8,44.8,327.7,45,326.1z"
		/>
	<path class="st13" d="M177.4,229.2c0.4-0.5,0.6-1,0.6-1.6c0.1-2.9,1.2-5.6,1.9-8.4c0.4-1.4,1-2.8,1.1-4.3c0-0.4,0.1-0.8,0.6-1
		c0.1,0.1,0.1,0.1,0.1,0.1c0.1,3.6,0.7,7.1,1,10.6c0.2,2.1,0.2,4.2,0,6.2c-0.4,3.9-0.9,7.8-1.6,11.6c-0.5,2.8-0.8,5.6-1.3,8.3
		c-0.5,2.8-1.3,5.6-1.8,8.5c-0.4,3-1,5.9-1.6,8.8c-1,4.7-2.3,9.3-3.4,14c-0.9,3.9-2.2,7.7-3.5,11.4c-0.3,0.9-0.5,1.8-0.8,2.6
		c-0.9,2.6-2,5.1-3.3,7.5c-0.5,0.9-1.2,1.6-2,2.1c-1.2-0.1-1.8-0.8-2-2c0-0.4-0.1-0.8-0.1-1.2c0.9-2,1.6-4,1.9-6.1
		c0.4-1.2,0.9-2.3,1.2-3.5c1-3.9,2.1-7.8,3-11.7c0.8-3.3,1.8-6.5,2.5-9.8c0.4-1.7,0.4-3.5,1-5.1c0.6-1.5,0.9-3,1-4.6
		c0-0.3,0.1-0.7,0.2-1c0.6-3.2,1.2-6.5,1.8-9.7c0.1-0.7,0.2-1.3,0.3-2c0.8-3.5,1.4-7,1.7-10.5l0.1,0c0,0-0.1,0-0.1,0
		c0.1-0.5,0.1-1,0.2-1.5c0.1-0.2,0.3-0.4,0.3-0.6C176.8,234,177.3,231.6,177.4,229.2z"/>
	<path class="st13" d="M105.1,245.4c0.4-1.1,0.6-2.2,0.9-3.3c0.7-2.3,1.2-4.6,2.5-6.7c0.2-0.3,0.3-0.6,0.3-0.9
		c0-0.9,0.6-1.7,0.8-2.6c0.4-2.5,2.1-4.5,2.4-7c0.1-0.9,0.8-1.8,1.2-2.7c0.5-1.1,1.1-2.3,1.6-3.4c0.4-0.8,0.8-1.7,1.6-2.2
		c0.5-0.3,0.7-0.9,1.1-1.4c0.6-0.9,1.1-1.8,2-2.6c0.3,1.6,0.3,1.6,0,2.9c-0.3,1.1-0.7,2.2-0.3,3.4c0.1,0.4-0.1,0.8-0.2,1.2
		c-0.6,3.5-1.7,6.9-3.1,10.2c-0.3,0.7-0.5,1.4-0.7,2.1c-0.5,2-1.2,4-1.9,5.9c-1,2.9-2,5.8-3,8.7c-0.2,0.5-0.4,0.9-0.5,1.4
		c-0.2,0.6-0.5,1.2-0.7,1.9c-0.9,3.2-1.6,6.4-2.6,9.6c-0.7,2.2-1.4,4.4-1.9,6.7c0,0.1,0,0.2-0.1,0.2c-1,1.9-1.2,4.1-1.8,6.1
		c-0.1,0.6-0.3,1.1-0.5,1.7c-0.2,0.6-0.5,1.2-0.7,1.9c-1.3,5.8-3.2,11.5-4.7,17.3c-0.3,1.3-1,2.4-1.2,3.8c0,0.3-0.3,0.6-0.5,0.8
		c-0.4,0.5-1.4,0.5-1.7-0.1c-0.4-0.6-0.6-1.2-0.5-1.9c0-1.1,0.1-2.1,0.2-3.2c-0.1-0.8-0.2-1.6-0.1-2.5c0.4-3.7,1.5-7.3,2.1-10.9
		c0.1-0.3,0.1-0.7,0.3-1c0.7-1.5,0.8-3.2,1.3-4.8c0.7-1.9,0.9-4,1.6-6c0.6-1.9,1.4-3.7,1.7-5.7c0.4-2.3,0.9-4.5,1.8-6.7
		c0.4-1.1,0.7-2.2,1.1-3.3C103.8,250.1,104.1,247.6,105.1,245.4z"/>
	<path class="st13" d="M140.8,233.3c0.1-0.9,0.5-1.7,0.9-2.6c0.5-1.2,1.3-2.3,1.5-3.7c0-0.3,0.2-0.6,0.4-0.9c1.3-2.3,2.7-4.5,4-6.8
		c0.6,0.2,0.3,0.7,0.3,1c0,4.6-0.7,9.1-1.7,13.5c-1,4.4-2.4,8.6-3.5,13c-0.8,3.3-1.8,6.5-2.5,9.9c-0.8,3.6-1.9,7-3,10.5
		c-0.9,3.2-1.6,6.4-3,9.4c-0.5,1-0.5,2.2-0.8,3.4c-0.1,0.6-0.2,1.2-0.4,1.7c-1.2,2.7-1.7,5.5-2.6,8.3c-1,3.1-1.8,6.4-3.4,9.3
		c-0.1,0.2-0.2,0.5-0.3,0.7c-0.3,0.4-0.7,0.7-1.2,0.7c-0.7,0-1.1-0.3-1.4-0.9c-0.4-0.9-0.7-1.9-0.4-2.9c0.4-1.1,0.3-2.3,0.2-3.5
		c0.7-2.7,1.3-5.5,2.1-8.2c0.7-2.5,1.6-5,2.3-7.6c0.3-1.1,0.5-2.2,1-3.3c0.5-1.1,0.2-2.5,1-3.5c0.1-1.8,1-3.3,1.4-5
		c0.6-2.5,1-5,2.4-7.3c0.2-0.3,0.2-0.6,0.2-0.9c-0.1-2.6,1.2-5,1.7-7.5c0.3-1.5,1.1-2.9,1.1-4.6c0-0.4,0.1-0.8,0.3-1.2
		c0.8-1.4,0.9-3,1.4-4.5c0.3-1.1,0.6-2.2,1-3.3C140.2,235.5,140.5,234.4,140.8,233.3z"/>
	<path class="st13" d="M94.4,224.3c0,0.2,0,0.3,0,0.5c-1.5,5-2.4,10.1-3.9,15.1c-1,3.3-2.1,6.6-3.1,9.9c-0.6,2-1.5,4-2.3,6
		c-0.9,2.2-1.8,4.4-2.5,6.7c-0.5,1.7-1.3,3.4-1.7,5.2c-1.9,3.6-3.2,7.5-4.7,11.2c-1,2.4-2,4.7-3.2,7c-0.6,1.1-1.2,2.2-1.8,3.3
		c-0.8,1.3-1.6,1.5-2.9,0.6c-0.3-0.2-0.6-0.5-0.9-0.8c0.1-2.2,0.5-4.4,1.3-6.5c0.3-0.7,0.7-1.3,0.9-2c1.3-3.8,2.8-7.6,4.4-11.3
		c1-2.3,1.8-4.6,2.5-6.9c0.6-2.2,1.6-4.3,2.5-6.5c0.4-0.9,0.8-1.8,1.1-2.8c1.2-3.9,2.8-7.6,4.4-11.3c0.8-1.7,1.6-3.5,2.5-5.1
		c1.3-2.3,2.6-4.6,4-6.9c1.1-1.3,1.6-2.8,2.4-4.2C93.7,225,93.8,224.4,94.4,224.3L94.4,224.3z"/>
	<path class="st8" d="M91,229.7c-1.3,2.3-2.7,4.5-4,6.9c-0.9,1.7-1.7,3.4-2.5,5.1c-1.7,3.7-3.3,7.4-4.4,11.3
		c-0.3,0.9-0.8,1.8-1.1,2.8c-0.8,2.1-1.8,4.3-2.5,6.5c-0.7,2.4-1.6,4.7-2.5,6.9c-1.6,3.7-3.1,7.5-4.4,11.3c-0.2,0.7-0.7,1.3-0.9,2
		c-0.8,2.1-1.2,4.3-1.3,6.5c-0.4,0.5-0.7,1.1-1.2,1.6c-0.7,0.8-1.6,1.2-2.6,1.2c-1.3,0-2.2-0.6-2.8-1.8c-0.6-1.2-0.6-2.5-0.1-3.6
		c0.7-1.7,0.8-3.6,1.9-5.1c0.2-0.3,0.3-0.8,0.5-1.1c0.6-1.1,0.1-2.5,0.9-3.6c0.7-1,1-2,1.5-3.1c1-2.6,2.2-5.2,3.3-7.7
		c1.3-2.8,2.6-5.6,3.9-8.3c1-2.1,2.3-4.1,3.2-6.2c0.7-1.7,1.6-3.2,2.4-4.8c0.6-1.2,1.1-2.4,2.1-3.3c0.4-0.4,0.7-0.9,0.9-1.5
		c1.1-2.7,3.1-4.9,4.7-7.3c1.3-1.8,2.8-3.5,4.2-5.2c0.1-0.2,0.3-0.3,0.5-0.5C91.2,228.9,90.9,229.4,91,229.7z"/>
	<path class="st8" d="M140.8,233.3c-0.3,1.1-0.5,2.3-1,3.3c-0.4,1.1-0.7,2.2-1,3.3c-0.4,1.5-0.5,3.1-1.4,4.5
		c-0.2,0.3-0.4,0.8-0.3,1.2c0.1,1.6-0.8,3-1.1,4.6c-0.5,2.5-1.8,4.8-1.7,7.5c0,0.3-0.1,0.7-0.2,0.9c-1.4,2.2-1.8,4.8-2.4,7.3
		c-0.4,1.7-1.3,3.2-1.4,5c-0.9,1-0.5,2.4-1,3.5c-0.5,1.1-0.7,2.2-1,3.3c-0.6,2.6-1.6,5-2.3,7.6c-0.8,2.7-1.4,5.4-2.1,8.2
		c-0.5,0.5-1,1.1-1.6,1.6c-1,0.9-2.5,0.6-3.1-0.6c-0.4-0.8-0.5-1.7-0.4-2.7c0.5-3.3,0.6-6.6,1.8-9.7c0.9-2.4,1.4-4.9,2.1-7.4
		c0.4-1.4,1.3-2.7,1.6-4.2c0.9-4.1,2.7-8,4.2-11.9c0.2-0.5,0.5-1,0.8-1.6c0.3-0.6,0.6-1.2,0.8-1.8c1.3-4.3,3-8.4,5-12.4
		c0.9-1.9,1.9-3.7,2.9-5.5C138.5,235.7,139.6,234.5,140.8,233.3z"/>
	<path class="st10" d="M105.1,245.4c-1,2.3-1.4,4.7-2.1,7.1c-0.3,1.1-0.6,2.2-1.1,3.3c-0.8,2.2-1.4,4.4-1.8,6.7
		c-0.3,2-1.1,3.8-1.7,5.7c-0.7,2-0.9,4-1.6,6c-0.5,1.6-0.6,3.2-1.3,4.8c-0.1,0.3-0.2,0.6-0.3,1c-0.6,3.7-1.7,7.2-2.1,10.9
		c-0.1,0.8-0.1,1.7,0.1,2.5c-0.8,0.3-1.5,0-2.1-0.6c-0.5-0.5-0.7-1.1-0.7-1.8c0-0.3,0-0.7,0-1c0.5-2.9,0.6-6,1.5-8.8
		c0.9-2.7,1.5-5.4,2.3-8.1c0.1-0.5,0.3-0.9,0.5-1.4c1-2.5,1.8-5,2.4-7.6c0.5-1.8,1-3.7,1.8-5.4c1.3-3.1,2.1-6.3,3.8-9.2
		c0.6-1,0.9-2.3,1.6-3.3C104.6,245.8,104.9,245.6,105.1,245.4z"/>
	<path class="st10" d="M176.1,237c-0.1,0.5-0.1,1-0.2,1.5c0,0,0,0,0,0c-0.4,3.5-1,7-1.7,10.5c-0.1,0.6-0.2,1.3-0.3,2
		c-0.6,3.2-1.2,6.5-1.8,9.7c-0.1,0.3-0.2,0.7-0.2,1c0,1.6-0.4,3.1-1,4.6c-0.6,1.6-0.6,3.4-1,5.1c-0.7,3.3-1.7,6.6-2.5,9.8
		c-1,3.9-2,7.8-3,11.7c-0.3,1.2-0.8,2.3-1.2,3.5c-0.1-0.2-0.3-0.3-0.5-0.1c0.4-1.8,0.8-3.6,1.3-5.3c1.6-5.8,3.2-11.7,4.4-17.6
		c1.1-5.4,2.3-10.8,3.2-16.3c1.1-2,0.8-4.4,1.3-6.5c1-4.4,1.8-8.9,2.6-13.4c0-0.2,0.2-0.4,0.4-0.6
		C175.8,236.7,175.8,236.9,176.1,237z"/>
	<path class="st11" d="M176.1,237c-0.3-0.1-0.3-0.3-0.3-0.5c-0.2-0.4-0.1-0.8,0-1.2c0.5-2,1.1-4.1,1.6-6.1c-0.1,2.4-0.6,4.8-1,7.2
		C176.3,236.6,176.2,236.8,176.1,237z"/>
	<path class="st11" d="M162.7,296.3c0.2-0.2,0.4-0.1,0.5,0.1c-0.3,2.1-1,4.2-1.9,6.1c0,0,0,0,0,0C161.6,300.4,162,298.4,162.7,296.3
		z"/>
	<path class="st10" d="M161.3,302.6C161.3,302.6,161.3,302.5,161.3,302.6c0,0.4,0,0.8,0.1,1.2c0.1,1.2,0.8,1.9,2,2
		c-0.1,0.1-0.1,0.3,0,0.4c-0.4-0.1-0.7-0.4-1.1-0.4c-1,0-1.4-0.7-1.8-1.4C160.8,303.8,160.7,303,161.3,302.6z"/>
	<path class="st6" d="M94.5,224.3c0-0.3,0-0.6,0.1-0.9c0-0.1,0.1-0.1,0.1-0.2c0.1,0.1,0.2,0.2,0.2,0.3
		C94.9,223.9,94.7,224.1,94.5,224.3C94.4,224.3,94.5,224.3,94.5,224.3z"/>
	<polygon class="st11" points="175.9,238.5 175.9,238.5 176,238.5 	"/>
</g>
</svg>
