<svg xmlns="http://www.w3.org/2000/svg" height="" viewBox="0 -30 512 512" width=""><path d="m484.296875 206.074219h-20.113281l-176.605469-177.59375c-1.640625-15.976563-15.175781-28.480469-31.578125-28.480469s-29.9375 12.503906-31.578125 28.480469l-176.605469 177.59375h-20.113281c-15.273437 0-27.703125 12.425781-27.703125 27.703125v189.910156c0 15.277344 12.429688 27.703125 27.703125 27.703125h366.839844c4.140625 0 7.5-3.359375 7.5-7.5s-3.359375-7.5-7.5-7.5h-366.839844c-7.003906 0-12.703125-5.699219-12.703125-12.703125v-189.910156c0-7.003906 5.699219-12.703125 12.703125-12.703125h96.828125c4.144531 0 7.5-3.359375 7.5-7.5 0-4.144531-3.355469-7.5-7.5-7.5h-55.558594l158.847656-159.738281c5.296876 10.179687 15.9375 17.152343 28.179688 17.152343s22.882812-6.972656 28.175781-17.152343l158.851563 159.734374h-283.496094c-4.144531 0-7.5 3.359376-7.5 7.5 0 4.144532 3.355469 7.5 7.5 7.5h324.765625c7.003906 0 12.703125 5.699219 12.703125 12.703126v189.914062c0 7.003906-5.699219 12.703125-12.703125 12.703125h-54.796875c-4.144531 0-7.5 3.355469-7.5 7.5 0 4.140625 3.355469 7.5 7.5 7.5h54.796875c15.273437 0 27.703125-12.429687 27.703125-27.703125v-189.910156c0-15.277344-12.429688-27.703125-27.703125-27.703125zm-228.296875-157.585938c-9.230469 0-16.742188-7.511719-16.742188-16.746093 0-9.230469 7.511719-16.742188 16.742188-16.742188s16.742188 7.511719 16.742188 16.742188c0 9.234374-7.511719 16.746093-16.742188 16.746093zm0 0"></path><path d="m233.347656 255.976562v145.511719c0 12.492188 10.164063 22.652344 22.652344 22.652344s22.652344-10.164063 22.652344-22.652344v-145.511719c0-12.492187-10.164063-22.652343-22.652344-22.652343s-22.652344 10.160156-22.652344 22.652343zm30.304688 0v145.511719c0 4.21875-3.433594 7.652344-7.652344 7.652344s-7.652344-3.433594-7.652344-7.652344v-145.511719c0-4.21875 3.433594-7.652343 7.652344-7.652343s7.652344 3.433593 7.652344 7.652343zm0 0"></path><path d="m178.648438 233.320312c-9.917969 0-18.839844 6.640626-21.691407 16.148438l-21.957031 73.1875-21.957031-73.1875c-3.328125-11.097656-15.035157-18.058594-26.371094-15.65625-12.78125 2.707031-20.785156 16.128906-17.023437 28.675781l43.65625 145.511719c2.894531 9.65625 11.613281 16.144531 21.695312 16.144531 10.078125 0 18.800781-6.488281 21.695312-16.144531l43.65625-145.511719c4.289063-14.292969-6.761718-29.167969-21.703124-29.167969zm7.335937 24.855469-43.65625 145.511719c-.976563 3.261719-3.921875 5.453125-7.328125 5.453125s-6.351562-2.191406-7.328125-5.453125l-43.652344-145.511719c-1.246093-4.140625 1.308594-8.585937 5.492188-9.625 3.898437-.972656 8.011719 1.382813 9.164062 5.230469l29.140625 97.132812c.953125 3.171876 3.871094 5.34375 7.183594 5.34375s6.234375-2.171874 7.183594-5.34375l29.144531-97.136718c1.257813-4.191406 5.964844-6.507813 10.054687-4.949219 3.695313 1.40625 5.734376 5.5625 4.601563 9.347656zm0 0"></path><path d="m443.308594 292.355469c0-32.550781-26.480469-59.03125-59.027344-59.03125h-50.929688c-12.492187 0-22.652343 10.160156-22.652343 22.652343v145.511719c0 12.492188 10.160156 22.652344 22.652343 22.652344 12.488282 0 22.652344-10.164063 22.652344-22.652344v-50.105469h28.273438c32.550781 0 59.03125-26.480468 59.03125-59.027343zm-59.03125 44.027343h-35.773438c-4.144531 0-7.5 3.359376-7.5 7.5v57.605469c0 4.21875-3.433594 7.652344-7.652344 7.652344s-7.652343-3.433594-7.652343-7.652344v-145.511719c0-4.21875 3.433593-7.652343 7.652343-7.652343h50.929688c24.277344 0 44.027344 19.75 44.027344 44.03125 0 24.277343-19.75 44.027343-44.03125 44.027343zm0 0"></path><path d="m384.277344 263.628906h-35.773438c-4.144531 0-7.5 3.355469-7.5 7.5v42.449219c0 4.144531 3.355469 7.5 7.5 7.5h35.773438c15.839844 0 28.726562-12.886719 28.726562-28.726563 0-15.839843-12.886718-28.722656-28.726562-28.722656zm0 42.449219h-28.273438v-27.449219h28.273438c7.570312 0 13.726562 6.15625 13.726562 13.726563 0 7.566406-6.15625 13.722656-13.726562 13.722656zm0 0"></path></svg>