<?xml version="1.0" encoding="utf-8"?>
<!-- Generator: Adobe Illustrator 23.0.4, SVG Export Plug-In . SVG Version: 6.00 Build 0)  -->
<svg version="1.1" id="Layer_1" xmlns="http://www.w3.org/2000/svg" xmlns:xlink="http://www.w3.org/1999/xlink" x="0px" y="0px"
	 viewBox="0 0 800 800" style="enable-background:new 0 0 800 800;" xml:space="preserve">
<style type="text/css">
	.st0{fill:#F62121;}
	.st1{fill:#030202;}
	.st2{fill:#F82D2D;}
	.st3{fill:#050302;}
	.st4{fill:#0B0A05;}
	.st5{fill:#F5F49E;}
	.st6{fill:#010101;}
	.st7{fill:#FFFEFE;}
	.st8{fill:#FCFDFD;}
	.st9{fill:#BAB33C;}
	.st10{fill:#E0DB7C;}
	.st11{fill:#F04D77;}
	.st12{fill:#FEFEFE;}
</style>
<g>
	<path class="st0" d="M640.2,638.6c-0.6,0-1.3,0.1-1.9,0.1c-17.2,0-34.3,0-51.5,0c-0.6,0-1.3-0.1-1.9-0.1c0-0.2-0.1-0.4-0.1-0.6
		c0.2-1.7,0.7-3.4,0.2-5.2c0-0.1,0-0.2,0-0.2c0.3-2,0-4,0-5.9c0-1.3,0.1-2.7-0.2-4c-0.3-1.5-0.4-3-0.4-4.5c0-2.7-0.3-5.4-0.7-8
		c-0.2-1.5-0.6-3-0.6-4.5c0-1.4-0.2-2.8-0.4-4.2c-0.3-2.4-0.9-4.7-1.4-7c-0.7-3.6-1.4-7.1-2.5-10.6c-0.3-1-0.5-2-0.6-3
		c-0.2-1.4-0.4-2.9-0.9-4.2c-0.5-1.4-0.9-2.9-1.3-4.3c-0.2-0.8-0.5-1.5-0.8-2.2c-0.3-0.7-0.6-1.5-0.8-2.2c-0.7-2.4-1.4-4.9-2.3-7.2
		c-1-2.8-2.1-5.7-3.1-8.5c-0.2-0.6-0.4-1.2-0.8-1.7c-1.1-1.9-1.9-3.8-2.4-5.9c-0.3-1.3-0.9-2.5-1.6-3.7c-1.4-2.7-3-5.2-3.7-8.2
		c-0.2-0.6-0.5-1.2-0.8-1.7c-1.4-2-2.6-4.2-3.6-6.4c-0.5-1.1-1.2-2.1-1.6-3.2c-0.6-1.6-1.5-3-2.5-4.3c-2-2.8-3.8-5.6-5.7-8.5
		c-1.5-2.2-2.8-4.4-4.2-6.6c-0.2-0.3-0.4-0.7-0.6-1c-0.5-1-1.2-1.9-2-2.7c-1.7-1.7-3.2-3.5-4.6-5.4c-1.1-1.5-2.3-2.9-3.6-4.1
		c-1.6-1.5-3.2-3.1-4.7-4.7c-2.8-2.9-5.9-5.6-9-8.2c-3-2.6-6.3-4.8-9.3-7.3c-0.1-0.1-0.2-0.2-0.4-0.3c-3.2-1.8-6.1-4-9.2-6
		c-3.8-2.5-7.9-4.7-11.7-7.3c-2.4-1.6-4.9-2.9-7.3-4.4c-1.8-1.1-3.8-2-5.8-2.8c-2.9-1.2-5.6-3-8.5-4.3c-3.3-1.5-6.8-2.7-10.1-4.1
		c-2.9-1.2-6-2-9-2.9c-2-0.6-4-0.9-6.1-0.7c-1.5,0.1-3,0.5-3.5,2.3c-0.6-0.2-1.2-0.3-1.9-0.5c0-0.2,0-0.5,0.1-0.7
		c3.6-11.2,6.1-22.7,7.6-34.3c0.9-6.5,1.4-13.1,1.6-19.7c0.3-9.6-0.1-19.2-1.2-28.8c-0.9-8.1-2.3-16.2-4.2-24.1
		c-3.3-14-8-27.4-14.2-40.3c-3.3-6.8-6.9-13.4-10.9-19.8c1.9-0.3,3.7-0.9,5.4-1.8c2.1-1.2,4.5-2,6.5-3.4c0.3-0.2,0.7-0.4,1.1-0.5
		c1-0.1,1.7-0.7,2.6-1.2c1.9-1,3.8-2.3,5.9-2.9c0.9-0.2,1.7-0.8,2.6-1.2c0.6-0.3,1.1-0.6,1.7-0.7c1.1-0.3,2.2-0.9,3.3-1.4
		c3.2-1.7,6.4-3.5,10-4.3c0.6-0.1,1.2-0.4,1.7-0.8c1.2-0.7,2.6-1.2,3.9-1.6c1.8-0.5,3.7-0.9,5.4-1.9c1.5-0.8,3-1.3,4.7-1.5
		c0.7-0.1,1.4-0.2,2.1-0.5c1.2-0.6,2.5-0.9,3.8-1.3c3.9-1.1,7.7-2.3,11.7-3.2c2-0.5,4-1.3,6-1.5c2.5-0.2,4.8-0.8,7.3-1.2
		c4.2-0.6,8.3-1.3,12.5-1.6c1.7-0.1,3.3-0.4,4.9-0.6c5.4-0.7,10.9-0.3,16.3-1.1c0.7-0.1,1.5-0.3,2.1-0.1c1.5,0.3,3,0.1,4.5-0.2
		c1.4-0.3,2.8-0.3,4.2-0.4c4.3-0.3,8.5,0,12.8,0.4c3.2,0.3,6.5,0.7,9.7,0.9c1.8,0.1,3.6,0.2,5.4,0.4c2.2,0.3,4.4,0.8,6.6,0.6
		c0.5,0.5,1.2,0.3,1.9,0.4l0,0c0.8,0.7,1.7,0.8,2.7,0.9c2.3,0.9,4.7,1.2,7,2.2c1.3,0.6,2.9,0.9,4.1,1.8c0.2,0.1,0.4,0.2,0.7,0.3
		c3.2,0.6,6.1,2.1,9.1,3.4c4.2,1.8,8.3,3.9,12.4,6c1.4,0.7,2.7,0.9,4.1,0.1c0.9,0.5,1.8,1.1,2.8,1.6c0.9,1.2,2.3,1.7,3.4,2.6
		c0.6,0.4,1.3,0.7,1.6,1.4c0.6,1.3,1.7,2.1,2.7,2.9c1.4,1.1,2.9,2.2,4.3,3.4c3.3,2.6,6.3,5.5,9.2,8.6c1.4,1.6,2.9,3.2,4.5,4.6
		c0.6,0.6,1.3,1.2,1.6,2c0.6,1.4,1.5,2.5,2.6,3.4c1.9,1.7,3.4,3.8,4.9,5.8c1.8,2.4,3.6,4.8,5.2,7.3c2.4,3.6,5.2,7,7.2,10.9
		c0.2,0.4,0.6,0.7,0.8,1.1c1.7,2.7,3.5,5.3,5.1,8c1,1.7,2,3.4,3.2,5c0.4,0.6,0.8,1.2,1.1,1.8c0.4,1.1,1,2,1.4,3
		c0.7,1.4,1.8,2.5,2.3,3.9c0.6,1.6,1.6,3.1,2.4,4.6c1.4,2.6,2.8,5.2,4,7.8c1.8,3.9,3.6,7.8,5,11.8c1.1,3.1,2.3,6.2,3.5,9.3
		c1.1,2.9,2.4,5.7,2.8,8.8c0.1,0.4,0.2,0.8,0.4,1.1c1.2,3.3,2.6,6.5,3.1,9.9c0.4,2.5,1.2,4.9,1.7,7.4c0.5,2.1,0.8,4.2,1.3,6.3
		c0.4,1.5,0.8,3,0.7,4.7c0,0.5,0.1,1.1,0.3,1.6c0.6,1.6,0.8,3.2,1,4.9c0.3,2.8,1.1,5.4,1.2,8.2c0.1,2.7,0.8,5.3,1.1,8
		c0.1,0.9,0.3,1.9-0.1,2.8c-0.8,0.2-1.4-0.3-2-0.7c-2.1-1.4-4.6-2.1-6.7-3.6c-0.4-0.3-1-0.5-1.5-0.7c-3.6-1.3-7.4-1.8-11.1-2.6
		c-1.6-0.3-3.3-0.3-5-0.5c-3.7-0.7-7.4-0.3-11.2-0.4c-1.3,0-2.7,0.4-4,0.4c-2.4,0-4.7,0.6-7.1,0.9c-3.6,0.5-7.1,1.8-10.6,2.8
		c-2,0.6-4,1.4-6,2.3c-1.6,0.7-3.1,1.7-4,3.3c-2.5,1.6-4.9,3.3-7.2,5.2c-0.8,0.6-1.6,1.2-2.2,2.1c-0.9-0.1-1.5,0.2-2.1,0.8
		c-1,1.1-2.1,2.2-3,3.4c-3.1,4.4-6.2,8.8-9.3,13.2c-0.3,0.4-0.5,0.8-0.7,1.2c-2.3,4.5-4.2,9.2-5.3,14.2c-0.7,3.2-1.3,6.5-1.2,9.9
		c0.1,2.1,0,4.3-0.1,6.4c-0.1,2.8,0,5.6,0.5,8.3c0.7,3.8,1.6,7.6,2.4,11.4c0.2,0.8,0.4,1.5,0.6,2.3c1.2,3.8,2.7,7.5,4.2,11.1
		c0.4,0.9,0.4,1-0.4,1.6c-0.1,0.1-0.2,0.2-0.4,0.3c-1.6,1.2-2.7,2.6-3.4,4.5c-1,2.8-1.9,5.6-2.1,8.5c0,0.6,0,1.1-0.1,1.7
		c-0.5,2.7-0.9,5.5-0.4,8.2c0.1,0.5,0.1,1,0,1.4c-0.2,1.3-0.1,2.5-0.1,3.8c0.1,3.3,0.2,6.5,0.5,9.7c0.1,1.5,0.2,3,0.5,4.5
		c0.4,1.6,0.5,3.3,0.7,4.9c0.2,1.8,0.5,3.6,1,5.4c0.1,0.3,0.1,0.6,0.1,0.9c0.2,2.9,0.9,5.8,1.5,8.7c0.6,2.9,1.8,5.7,2,8.8
		c0.1,0.7,0.4,1.4,0.6,2c0.7,2.1,1.5,4.2,2.2,6.3c0.1,0.3,0.2,0.6,0.2,0.9c0.3,1.9,1,3.7,1.7,5.4c0.9,2,1.8,3.9,2.2,6
		c0.1,0.5,0.3,0.9,0.5,1.3c1.1,2.6,2.2,5.2,3.6,7.8c0.6,1.2,1.4,2.3,1.9,3.6c0.9,2.1,1.9,4.1,3.1,6.1c1.5,2.5,2.9,5.1,4.3,7.7
		C640.2,638.2,640.2,638.4,640.2,638.6z M500.8,328.5c-0.1,0.1-0.3,0.2-0.4,0.2c-2.4,0.4-4.9,0.7-7.3,0.3c-0.6-0.1-1.3-0.1-1.9-0.1
		c-1.8,0.1-3.6,0.2-5.5,0.2c-1.4,0-2.8,0-4.3-0.1c-2.8-0.3-5.7-0.2-8.5,0.1c-2.4,0.3-4.6,1-7,1.2c-2.2,0.2-3.6,2.2-3.5,4.3
		c0,0.6,0.1,1.3,0.1,1.9c0.2,2.2,1.4,3.6,3.6,4.2c2.1,0.5,4.2,0.7,6.4,0.7c2.5,0,4.9,0.2,7.4,0.3c1,0,1.9-0.1,2.8,0.1
		c1.5,0.4,3,0.3,4.5,0.2c1.2-0.1,2.4-0.2,3.6-0.1c2.1,0.2,4.1,0.1,6.2,0.2c3.4,0.1,6.8-0.2,10.2,0.4c1.4,0.2,2.9,0.1,4.2-0.4
		c2.4-0.8,4-2.2,4.1-4.9c0-0.8,0.1-1.6,0-2.4c-0.5-3.2-1.5-6.2-3.4-8.8c-0.6-0.8-0.9-1.6-1.3-2.5c-0.8-1.9-1.6-3.8-2.6-5.6
		c-0.7-1.2-1.2-2.4-1.6-3.7c-0.9-2.9-2-5.7-3.7-8.2c-0.6-0.9-1.3-1.8-1.8-2.8c-0.5-1.1-1.1-2.1-1.9-3c-1.1-1.5-2-3-2.9-4.6
		c-0.5-1-1.2-1.9-1.9-2.7c-0.3-0.3-0.8-0.7-0.9-1.1c-1.1-2.4-3.1-4-5-5.7c-1.7-1.5-3.7-2-6-1.3c-0.5,0.2-1.1,0.3-1.6,0.5
		c-1.2,0.4-2.3,1.1-3.1,2.2c-1,1.3-1.4,2.8-0.7,4.5c0.9,2.1,1.9,4.2,2.9,6.3c0.3,0.6,0.7,1.1,1,1.6c1.3,2.3,3.2,4.3,4.3,6.8
		c0.2,0.4,0.5,0.8,0.8,1.2c2.3,2.7,4.3,5.7,6.1,8.8c0.4,0.6,0.7,1.2,1.2,1.7c2.6,2.6,4.5,5.7,6.7,8.6
		C500.5,327.5,500.9,327.9,500.8,328.5z M531.3,257.8c-1,0.1-1.8,0.1-2.6,0.3c-2.1,0.5-4,1.4-5.9,2.4c-3,1.5-5.5,3.4-6.6,6.7
		c-0.1,0.2-0.2,0.4-0.3,0.6c-0.8,1.6-0.7,3.3,0,4.8c0.9,2,2,3.9,3.7,5.4c1.8,1.6,3.3,3.4,4.3,5.6c0.9,2.1,2.4,3.9,3,6.2
		c0.1,0.2,0.2,0.4,0.4,0.6c1.9,2.7,3,5.7,4.3,8.7c1.2,2.9,2.8,5.5,4.7,7.9c1.3,1.6,3,2.4,5,1.8c0.8-0.2,1.7-0.5,2.5-0.6
		c2.2-0.3,3.8-1.5,5.1-3.2c1.6-2.1,2.8-4.6,3.9-7c0.8-1.7,1.1-3.5,1.4-5.3c0.3-1.6,0.5-3.1,0.1-4.7c-0.2-1.1-0.2-2.2-0.2-3.3
		c-0.2-3.7-1.2-7.2-2.7-10.5c-0.7-1.7-1.8-3.4-2.4-5.2c-0.2-0.7-0.7-1.3-1.1-1.8c-1.4-1.6-2.7-3.3-4.1-4.9c-1.9-2.2-4.3-3.5-7.1-4.1
		C535,258,533,258,531.3,257.8z M585.4,383.9c0,2.5,0,3,0.8,4.6c1.2,2.2,2.1,4.5,2.9,6.8c0.6,1.6,1.6,2.9,3,3.9
		c1.1,0.8,2.3,1.7,3.6,2.3c1.3,0.7,2.6,1.1,4.1,1.2c1.7,0,3.3,0.4,4.9,0.8c1.7,0.5,3.4,0.5,5.1-0.1c0.7-0.3,1.4-0.4,2-0.7
		c1.6-0.6,6.1-4.1,7-5.5c0.1-0.1,0.2-0.3,0.2-0.4c2-3.4,3.4-7,3.4-11c0-0.3,0-0.7,0.1-0.9c0.4-1.1,0.3-2.2,0.3-3.3
		c-0.1-2.5-0.7-5-1.2-7.5c-0.7-3.4-2.6-5.9-4.7-8.4c-2.6-3.1-6.2-4.6-10.2-5.2c-0.7-0.1-1.5-0.2-2.1,0c-2.9,0.7-5.6,1.6-7.9,3.6
		c-1,0.8-2,1.6-3,2.3c-1,0.7-2,1.6-2.7,2.7c-1.5,2.3-3,4.7-3.8,7.4c-0.2,0.7-0.4,1.4-0.7,2C585.7,380.2,585.3,382,585.4,383.9z
		 M625,323.5c0,0,0,0.1,0,0.1c0.6,0,1.3,0,1.9,0c1.9,0,3.8,0.1,5.7-0.4c1.6-0.4,2.9-1.1,4-2.3c1.1-1.3,1.8-2.8,2.4-4.4
		c1.5-3.7,1-7.1-1.4-10.3c-0.6-0.8-1.4-1.5-2.2-2.2c-2.3-2.3-5.3-3.4-8.4-4c-1.5-0.3-3-0.4-4.5-0.6c-0.9-0.1-1.7-0.2-2.6-0.1
		c-5.1,0.1-10.1,0.3-15.2,0.5c-0.8,0-1.6,0.1-2.3,0.4c-2.1,0.8-4.3,1.6-6.4,2.5c-3.9,1.7-7.1,4.1-8.7,8.2c-1.3,3.2-1.8,6.4,0,9.6
		c0.9,1.6,2,2.8,3.6,3.6c1.9,1,3.9,1.2,6,1c1.6-0.1,3.1-0.6,4.7-0.5c4.1,0.1,8.1-0.6,12.1-0.6c1.7,0,3.3-0.1,5-0.2
		C620.9,323.7,623,323.6,625,323.5z M477.3,380.5c0.1,0.9,0.2,1.9,0.3,2.8c0.3,2.4,0.4,4.8,2.2,6.6c0.1,0.1,0.1,0.1,0.1,0.2
		c1.5,3,4.1,4.7,7.1,6c1.8,0.8,3.7,1,5.5,1.4c2.9,0.7,5.8,0.5,8.7,0.1c2.7-0.3,5.3-0.8,8-1.1c0.5-0.1,0.9-0.1,1.4-0.3
		c0.7-0.2,1.4-0.7,2-0.4c0.7,0.3,0.8,1.1,1.2,1.7c0.4,0.7,0.9,1.3,1.1,2.1c0.5,1.6,1.5,3,2.3,4.4c1.3,2.2,3.3,3.8,4.9,5.8
		c0.7,0.9,1.7,1.4,2.8,1.7c1.5,0.4,3.1,0.8,4.6,1.3c2.9,1,6.1,0.8,9,2.1c0.1,0,0.2,0,0.2,0c3.7,0.5,7.3,1.6,11,1.9
		c0.2,0,0.5,0.1,0.7,0.2c2.6,0.7,5.2,1.3,7.8,2c1.4,0.4,2.7,1,4.1,1.1c2.4,0.2,4.7,0.8,7,1.3c1.8,0.4,3.6,0.8,5.3,1.1
		c3,0.5,5.9,1,8.9,1.8c1.6,0.5,3.2,0.8,4.9,1.1c1.1,0.2,2.1,0,3-0.6c1.1-0.7,1.3-1.8,0.5-2.9c-0.9-1.2-2.1-2.2-3.6-2.5
		c-2.2-0.4-4.3-1.2-6.4-1.9c-1-0.3-2-0.6-3-0.7c-2.7-0.3-5.3-1.1-7.9-1.6c-1.9-0.3-3.8-1.1-5.8-1.2c-0.9,0-1.7-0.1-2.5-0.5
		c-1.9-0.8-3.9-1.1-6-1.6c-1.2-0.2-2.4-0.3-3.5-0.7c-2.4-0.8-4.8-1-7.2-1.5c-1.3-0.3-2.6-0.9-3.9-1c-2.3-0.1-4.5-0.9-6.8-1.2
		c-1.3-0.1-2.6-0.6-3.9-0.8c-2.5-0.4-5-1-7.5-1.4c-0.9-0.1-1.1-0.6-1.3-1.3c-1.1-3.3-2-6.7-3.9-9.7c-0.2-0.4-0.3-0.9-0.5-1.3
		c-0.2-0.4-0.3-0.9-0.5-1.3c-1.9-3.1-3.3-6.3-4.6-9.6c-0.3-0.7-0.7-1.4-1.1-2.1c-0.7-1.4-1.6-2.7-2.2-4.2c-1.1-2.8-2.6-5.4-4.2-8
		c-0.9-1.3-1.7-2.6-2.4-4.1c-1.1-2.2-2.6-4.2-4.1-6.1c-0.7-0.9-1.7-1.5-2.9-1.5c-1,0-1.6,0.5-1.8,1.5c-0.1,0.6,0.1,1.3,0.3,1.9
		c0.1,0.5-0.1,0.8-0.5,0.9c-1,0.2-1.8,0.7-2.6,1.2c-1.8,0.9-3.6,2.1-5.3,3.2c-2.6,1.8-4.8,3.8-6.4,6.5c-0.6,1-0.8,2.2-1.3,3.3
		C477.8,376.7,477.5,378.6,477.3,380.5z"/>
	<path class="st1" d="M620.1,252.6c-1.4,0.8-2.7,0.5-4.1-0.1c-4.1-2.1-8.2-4.2-12.4-6c-3-1.3-5.8-2.9-9.1-3.4
		c-0.2,0-0.5-0.1-0.7-0.3c-1.2-0.9-2.8-1.2-4.1-1.8c-2.3-1.1-4.7-1.4-7-2.2c-0.8-0.6-1.7-0.9-2.7-0.9l0,0c-0.4-0.6-1-0.7-1.7-0.8
		c-1.7-0.8-3.5-1.3-5.3-1.5c-2.5-0.3-4.9-1.1-7.4-1.7c-1.2-0.3-2.5-0.7-3.7-0.9c-3.5-0.7-7-1.2-10.5-2c-5.1-1.2-10.4-1.3-15.6-1.9
		c-2.6-0.3-5.2-0.3-7.8-0.4c-1.8-0.1-3.6-0.3-5.5-0.2c-3.3,0.2-6.6,0.5-9.9,0.8c-2.4,0.2-4.7,0.5-7.1,0.8c-2.1,0.2-4.2,0.9-6.3,1.1
		c-2.4,0.3-4.8,0.7-7.2,1.3c-0.8,0.2-1.6,0.1-2.3,0.4c-1.9,0.7-3.9,0.9-5.8,1.3c-0.5,0.1-0.9,0.2-1.4,0.4c-2.5,0.8-5,1.6-7.6,2
		c-2,0.4-4,1.1-5.9,1.7c-3.3,0.9-6.5,2.6-10,3c-0.8,0.1-1.5,0.4-2.2,0.8c-0.7,0.4-1.4,0.7-2.2,0.9c-2,0.8-4,1.6-5.9,2.4
		c-1.5,0.6-3,1.4-4.7,1.7c-0.7,0.1-1.3,0.5-2,0.8c-0.6,0.3-1.1,0.6-1.7,0.8c-3.2,1.2-6.4,2.1-9.4,3.8c-2,1.1-4.1,2-6.2,3.1
		c-1.3,0.7-2.5,1.4-3.8,1.9c-0.7,0.3-1.4,0.5-1.9,0.9c-2.5,1.9-5.4,3.1-8.1,4.5c-2,1-2.1,1.3-0.9,3.1c0.4,0.6,0.8,1.2,1.2,1.8
		c0.6,0.7,1.1,1.6,2,2c4.1,6.3,7.7,13,10.9,19.8c6.2,12.9,10.9,26.4,14.2,40.3c1.9,8,3.3,16,4.2,24.1c1.1,9.6,1.5,19.1,1.2,28.8
		c-0.2,6.6-0.8,13.1-1.6,19.7c-1.5,11.7-4.1,23.1-7.6,34.3c-0.1,0.2-0.1,0.5-0.1,0.7c-0.6,0.6-0.6,1.4-0.9,2.2
		c-15.2,45.4-46.2,84.2-87.3,108.7c-18,10.8-37.3,18.5-57.8,23.2c-8.7,2-17.4,3.4-26.3,4.3c-4.5,0.4-9,0.8-13.5,0.9
		c-0.3,0-0.6,0.1-1,0.1c-1.1,4.1-2.3,8.1-2.9,12.2c-0.3,2.1-0.8,4.2-1.2,6.3c-0.9,5.7-1.4,11.5-1.5,17.2c-0.1,2.6,0.2,5.2,0.3,7.8
		c0.1,1.6,0,3.2-0.1,4.8c0,0.9,0.1,1.7,0.2,2.6c0.6,3.2,0.6,6.4,0.4,9.7c0,0.3-0.3,0.6-0.6,0.6c-0.7,0.1-1.4-0.1-2.1,0.2
		c-1-0.1-1.6-0.7-1.7-1.6c0-0.2-0.1-0.5-0.1-0.7c-0.4-3.1-0.5-6.3-1.1-9.4c-0.1-0.4-0.2-0.8-0.1-1.2c0.2-4.2-0.6-8.4-0.6-12.6
		c0-2.1-0.2-4.1,0.1-6.2c0.1-0.4,0-0.8,0-1.2c0.1-2,0.1-4,0.4-5.9c0.5-3.4,0.6-6.8,1.7-10c0.1-0.3,0.1-0.6,0.1-0.9
		c0.1-0.9,0.2-1.7,0.4-2.6c0.5-2.6,1.1-5.3,1.6-7.9c0.2-0.9,0-1.2-0.9-1.2c-1.3,0-2.5,0-3.8-0.1c-1.8,0-3.6-0.1-5.5-0.2
		c-1.4,0-1.4,0-1.5,1.5c-0.1,0.9-0.1,1.9-0.1,2.9c0,0.6,0,1.3-0.2,1.9c-0.5,1.7-0.3,3.3,0,4.9c0.1,0.5,0.1,1.1,0.2,1.6
		c0.1,5.5,0,10.9,0.5,16.4c0.2,2.4,0.1,4.9,0.8,7.3c0.2,0.6,0.2,1.3,0.2,1.9c0.2,2.7,0.6,5.3,1.2,8c0.5,2,0.9,4,1.2,6.1
		c0.2,1.7,0.5,3.4,1,5.1c0.3,0.8,0.3,1.7,0.3,2.6c0,1.1-0.1,1.2-1.6,1.6c-1-0.2-1.7-0.7-2-1.8c-0.3-1.2-1.1-2.3-1.4-3.5
		c-1.2-4.4-2.5-8.7-3.3-13.1c-0.5-2.7-1-5.3-1.5-7.9c-0.2-1.2-0.3-2.4-0.4-3.5c-0.3-2.2-0.6-4.4-0.7-6.6c-0.1-1.7,0-3.5-0.1-5.2
		c-0.1-3.2,0.1-6.5-0.5-9.7c-0.2-1.3-0.3-2.7,0-4c0.4-1.9,0.3-3.8,0.3-5.7c0-1.2-0.1-1.3-1.3-1.5c-5-0.6-10.1-1.3-15.1-2.2
		c-12.3-2.2-24.3-5.6-35.9-10.2c-43.2-17.1-76.9-45.5-100.7-85.4c-10.3-17.3-17.6-35.8-22.2-55.4c-2-8.4-3.4-17-4.3-25.6
		c-1.2-11.2-1.5-22.4-0.7-33.6c3-43,18.1-81.2,45.4-114.5c22.6-27.6,50.8-47.7,84.2-60.3c12-4.5,24.3-7.8,36.9-10
		c13.2-2.3,26.5-3.2,39.9-2.8c31.2,0.9,60.7,8.8,88.2,23.5c26.6,14.2,48.9,33.5,66.9,57.7c0.3,0.4,0.6,0.8,0.8,1.2
		c0.7,0.9,0.9,1,1.6,0.2c1.2-1.2,2.5-2.2,3.9-3.1c2.6-1.5,5.2-3,7.8-4.5c2.9-1.6,6-2.9,9.1-4c0.1,0,0.2,0,0.2-0.1
		c3.1-1.9,6.5-2.8,9.8-4.3c1.8-0.8,3.5-1.4,5.4-1.9c1.1-0.3,2.1-0.8,3.1-1.3c3.2-1.7,6.6-3,10.1-4.1c1.4-0.4,2.7-0.9,4.1-1.3
		c3.9-1.3,7.9-2.4,11.8-3.5c3-0.9,6.2-1.2,9.2-2.5c2.9-0.1,5.5-1.6,8.4-1.7c3-1,6.2-1.3,9.3-1.7c1.9-0.3,3.9-0.8,5.8-1.1
		c2.6-0.3,5.2-0.6,7.8-0.8c1.7-0.2,3.3-0.3,5-0.3c3.6-0.1,7.3-0.3,10.9,0c2.9,0.3,5.9,0.3,8.8,0.8c4,0.6,8.1,0.6,12,1.4
		c0.5,0.1,1.1,0.3,1.6,0.4c0.8,0.2,1.7,0.5,2.6,0.5c0.8,0.1,1.6,0.3,2.3,0.5c2.4,0.7,4.7,1.3,7.2,1.5c1.3,0.1,2.6,0.6,3.9,1
		c2.2,0.8,4.4,1.4,6.7,1.4c0.2,0,0.3,0,0.5,0c2.3,0.8,4.7,1.5,7,2.4c1,0.4,1.9,0.8,2.9,1c3.3,0.8,6.6,1.8,9.6,3.3
		c2.5,1.3,5.1,2,7.7,3.1c1.3,0.6,2.6,1.1,3.9,1.8c2.7,1.6,5.6,2.6,8.2,4.3c1.8,1.1,3.7,2.1,5.5,3.3c0.6,0.4,1.1,0.9,1.3,1.7
		C620.7,251.4,620.2,251.9,620.1,252.6z M248.8,560.5c1.1,0,2.2,0,3.3-0.1c9.5-0.6,19-1.7,28.3-3.6c13.5-2.8,26.5-6.9,39.1-12.6
		c46-20.8,79.1-58.1,96-101.5c1.1-2.8,2.3-5.6,2.9-8.5c0.6-0.7,0.7-1.6,0.9-2.4c2.5-8,4.5-16.1,5.9-24.3c1.5-8.6,2.3-17.3,2.6-26
		c0.2-7.3,0-14.6-0.7-21.9c-0.7-7.4-1.8-14.8-3.4-22.1c-4.3-20.1-11.8-39-22.4-56.6c-1.4-2.4-2.8-4.8-4.6-7
		c-0.2-0.8-0.7-1.4-1.2-2.1c-23.1-33.2-53.7-56.5-91.9-69.9c-16-5.7-32.6-8.9-49.6-9.8c-15.3-0.8-30.5,0.2-45.5,3.1
		c-14,2.7-27.5,6.9-40.5,12.7c-46,20.6-81.4,59.1-98.3,106.7c-6.1,17.1-9.5,34.7-10.4,52.8c-0.5,10.3-0.1,20.5,1.1,30.7
		c1.3,11.1,3.7,21.9,6.9,32.6C85.9,490.9,133.7,536,191.2,553c9.1,2.7,18.3,4.7,27.7,6c3.4,0.5,6.8,0.7,10.2,1
		c1.2,0.1,2.5,0.4,3.7,0.4c4.6,0.1,9.1,0.2,13.7,0.2C247.3,560.7,248,560.6,248.8,560.5z"/>
	<path class="st2" d="M640.2,638.6c0-0.2,0.1-0.4,0.1-0.6c2.5,0.4,5.1,0.2,7.6,0.1c0.3,0,0.5-0.5,0.3-0.7c-0.9-0.9-1.3-2.2-2-3.2
		c-2.5-3.8-4.3-8-6.7-11.8c-1.8-2.8-2.6-6.1-4.5-8.9c-0.3-0.4-0.3-0.9-0.5-1.3c-0.6-1.8-1.2-3.6-1.8-5.4c-1.2-3.3-2.9-6.4-3.5-9.8
		c-0.1-0.3-0.2-0.6-0.3-0.9c-1.3-3.6-2.6-7.1-3.2-10.9c-0.1-0.6-0.3-1.2-0.5-1.8c-0.8-2.9-1.7-5.8-2-8.8c-0.1-1.4-0.4-2.7-0.8-3.9
		c-0.2-0.8-0.4-1.5-0.5-2.3c-0.2-1.5-0.4-3-0.7-4.5c-0.4-1.8-0.8-3.6-0.8-5.4c-0.1-2.6-0.6-5.2-0.8-7.8c-0.2-4.4-0.6-8.8-0.2-13.3
		c0.1-0.9,0.3-1.9,0.3-2.8c-0.1-2.3,0.4-4.4,1.1-6.5c0.2-0.7,0.4-1.4,0.6-2.1c0.3-1.1,0.8-2.1,1.8-2.6c0.9-0.5,1.2-0.4,1.3,0.5
		c0.1,1,0.5,2,0.9,2.9c1.7,3.3,3.9,6.3,6,9.4c2,2.8,4.2,5.3,6.6,7.8c1.1,1.2,2.5,2,3.5,3.2c2.4,2.6,5.4,4.4,8.3,6.3
		c2.3,1.6,5,2.6,7.6,3.8c1.4,0.6,2.7,1.3,4.2,1.5c0.5,0.1,1.1,0.3,1.6,0.6c2.2,1.1,4.6,1.7,7,2.1c4.4,0.6,8.8,1.1,13.2,1.1
		c5.9,0,11.7-0.5,17.5-1.8c0.8-0.2,1.8-0.1,2.5-0.5c1.3-0.8,2.8-1,4.3-1.4c3-0.8,5.9-1.9,8.4-3.7c0.6-0.4,1.2-0.8,1.6-1.4
		c0.8-0.9,1.8-1.6,2.6-2.4c1.7-1.5,3.4-2.8,4.9-4.5c0.5-0.6,1.1-1.1,1.7-1.7c1.2-1.1,2.6-2.2,3.6-3.5c2.2-2.8,4.7-5.3,6.7-8.3
		c1.4-2.2,3.2-4.2,4.5-6.4c0.7-1.3,1.7-2.5,2.3-3.9c0.1-0.2,0.2-0.4,0.7-0.3c0.5,1.5,1,3.1,1.5,4.6c1.1,3.6,1.6,7.3,3.2,10.7
		c0.2,0.5,0.4,1.1,0.4,1.6c-0.1,1,0.3,1.9,0.6,2.8c0.2,0.5,0.5,1,0.5,1.6c0.1,2.5,0.9,4.8,1.2,7.3c0.2,2.2,1,4.3,1.3,6.5
		c0.9,5.7,1.2,11.5,1.6,17.3c0.3,3.6,0.3,7.3,0.2,10.9c0,3.1-0.7,6.1-0.7,9.2c-0.9,3.2-0.6,6.6-1.6,9.8c-0.4,1.3-0.3,2.7-0.6,4
		c-0.4,2.1-0.9,4.2-1.3,6.3c-0.4,2.4-1,4.8-1.5,7.2c-0.3,1.3-0.3,2.7-0.6,4c-0.6,3-1.3,6-2,9c-0.5,2.4-0.5,2.4,1.9,2.7
		c-0.2,0.1-0.4,0.3-0.6,0.3c-0.8,0-1.6,0-2.4,0c-32.8,0-65.5,0-98.3,0C645.1,638.7,642.6,638.6,640.2,638.6z"/>
	<path class="st3" d="M748.8,638.3c-2.4-0.3-2.4-0.3-1.9-2.7c0.7-3,1.4-6,2-9c0.3-1.3,0.3-2.7,0.6-4c0.5-2.4,1.1-4.8,1.5-7.2
		c0.4-2.1,0.8-4.2,1.3-6.3c0.3-1.3,0.1-2.7,0.6-4c1-3.2,0.7-6.6,1.6-9.8c0-3.1,0.7-6.2,0.7-9.2c0-3.6,0-7.3-0.2-10.9
		c-0.4-5.8-0.7-11.5-1.6-17.3c-0.3-2.2-1.1-4.3-1.3-6.5c-0.3-2.4-1.1-4.8-1.2-7.3c0-0.5-0.3-1.1-0.5-1.6c-0.3-0.9-0.7-1.8-0.6-2.8
		c0-0.5-0.1-1.1-0.4-1.6c-1.7-3.4-2.2-7.1-3.2-10.7c-0.5-1.6-1-3.2-1.5-4.6c-0.4-0.1-0.6,0.1-0.7,0.3c-0.7,1.4-1.6,2.6-2.3,3.9
		c-1.3,2.3-3.1,4.3-4.5,6.4c-1.9,3-4.5,5.5-6.7,8.3c-1,1.3-2.3,2.4-3.6,3.5c-0.6,0.5-1.2,1.1-1.7,1.7c-1.4,1.7-3.2,3.1-4.9,4.5
		c-0.9,0.8-1.8,1.5-2.6,2.4c-0.5,0.5-1.1,0.9-1.6,1.4c-2.6,1.8-5.4,3-8.4,3.7c-1.4,0.4-2.9,0.6-4.3,1.4c-0.7,0.4-1.7,0.3-2.5,0.5
		c-5.7,1.3-11.5,1.8-17.5,1.8c-4.5,0-8.9-0.5-13.2-1.1c-2.4-0.4-4.8-1-7-2.1c-0.5-0.2-1-0.5-1.6-0.6c-1.5-0.2-2.9-0.9-4.2-1.5
		c-2.6-1.2-5.3-2.3-7.6-3.8c-2.9-1.9-5.9-3.7-8.3-6.3c-1.1-1.2-2.4-2-3.5-3.2c-2.3-2.5-4.6-5-6.6-7.8c-2.1-3-4.3-6-6-9.4
		c-0.5-0.9-0.8-1.9-0.9-2.9c-0.1-0.9-0.4-1-1.3-0.5c-1.1,0.6-1.5,1.6-1.8,2.6c-0.2,0.7-0.3,1.4-0.6,2.1c-0.7,2.1-1.1,4.3-1.1,6.5
		c0,0.9-0.2,1.9-0.3,2.8c-0.4,4.4,0,8.8,0.2,13.3c0.1,2.6,0.7,5.2,0.8,7.8c0.1,1.8,0.5,3.6,0.8,5.4c0.3,1.5,0.5,3,0.7,4.5
		c0.1,0.8,0.2,1.5,0.5,2.3c0.4,1.3,0.7,2.6,0.8,3.9c0.3,3,1.2,5.9,2,8.8c0.2,0.6,0.4,1.2,0.5,1.8c0.6,3.8,1.9,7.3,3.2,10.9
		c0.1,0.3,0.3,0.6,0.3,0.9c0.6,3.5,2.3,6.6,3.5,9.8c0.7,1.8,1.2,3.6,1.8,5.4c0.2,0.4,0.2,0.9,0.5,1.3c1.8,2.8,2.7,6.1,4.5,8.9
		c2.4,3.8,4.1,8,6.7,11.8c0.7,1,1.1,2.3,2,3.2c0.2,0.2,0,0.7-0.3,0.7c-2.5,0-5.1,0.3-7.6-0.1c-1.4-2.6-2.7-5.2-4.3-7.7
		c-1.2-2-2.3-4-3.1-6.1c-0.5-1.2-1.3-2.4-1.9-3.6c-1.4-2.5-2.5-5.1-3.6-7.8c-0.2-0.4-0.4-0.9-0.5-1.3c-0.3-2.2-1.3-4.1-2.2-6
		c-0.8-1.7-1.4-3.5-1.7-5.4c-0.1-0.3-0.1-0.6-0.2-0.9c-0.7-2.1-1.5-4.2-2.2-6.3c-0.2-0.7-0.6-1.3-0.6-2c-0.2-3-1.4-5.9-2-8.8
		c-0.6-2.9-1.3-5.7-1.5-8.7c0-0.3-0.1-0.6-0.1-0.9c-0.5-1.8-0.8-3.5-1-5.4c-0.2-1.6-0.4-3.3-0.7-4.9c-0.3-1.5-0.4-3-0.5-4.5
		c-0.3-3.2-0.5-6.5-0.5-9.7c0-1.3-0.2-2.5,0.1-3.8c0.1-0.5,0.1-1,0-1.4c-0.5-2.8-0.1-5.5,0.4-8.2c0.1-0.5,0.1-1.1,0.1-1.7
		c0.2-3,1.1-5.7,2.1-8.5c0.7-1.9,1.8-3.3,3.4-4.5c0.1-0.1,0.3-0.2,0.4-0.3c0.7-0.6,0.8-0.7,0.4-1.6c-1.6-3.6-3-7.3-4.2-11.1
		c-0.2-0.8-0.5-1.5-0.6-2.3c-0.8-3.8-1.7-7.6-2.4-11.4c-0.5-2.7-0.7-5.5-0.5-8.3c0.1-2.1,0.1-4.3,0.1-6.4c-0.1-3.4,0.5-6.6,1.2-9.9
		c1.1-5,3.1-9.6,5.3-14.2c0.2-0.4,0.4-0.9,0.7-1.2c3.1-4.4,6.2-8.9,9.3-13.2c0.9-1.2,2-2.3,3-3.4c0.6-0.7,1.3-0.9,2.1-0.8
		c0.6,0.6,0.6,1.3,0.2,1.9c-0.3,0.4-0.7,0.7-1,1c-1,1.1-2.2,2-3,3.3c-0.7,1.1-1.4,2.1-2.1,3.1c-1.7,2.5-3.3,5-5.1,7.5
		c-0.8,1.1-1.5,2.2-2,3.5c-1.1,2.7-2.2,5.4-3.1,8.2c-0.7,2.1-1.1,4.3-1.6,6.4c-0.7,3.3-0.9,6.8-0.9,10.2c0,2.1-0.1,4.1,0,6.2
		c0.3,3,0.4,6,1.2,8.9c0.5,2.1,1.1,4.1,1.5,6.2c0.4,2.2,1,4.3,1.8,6.4c1.4,3.4,2.6,6.8,4.2,10c0.5,1,0.8,2.2,2,2.8
		c0.4,0.2,0.6,0.7,0.8,1.2c0.2,0.6,0.6,1.1,0.8,1.7c0.7,1.3,1.3,2.7,2.1,3.9c0.8,1.2,1.5,2.4,2.5,3.4c0.6,1,1.2,2,1.9,3
		c1.8,2.3,3.7,4.6,5.8,6.6c2.3,2.3,4.8,4.4,7.5,6.2c1.9,1.4,3.8,2.9,6,3.8c1,0.4,2.1,0.7,3,1.4c2.8,1.9,6.2,2.5,9.3,3.6
		c3.3,1.2,6.8,1.4,10.3,1.8c3.1,0.3,6.3,0.2,9.5,0.3c3.8,0.1,7.6-0.6,11.4-1.1c2.3-0.3,4.7-0.8,6.8-2c0.8-0.5,1.8-0.7,2.7-0.9
		c3.1-0.8,5.9-2.3,8.1-4.7c0.6-0.7,1.4-1.3,2.2-1.9c1.5-1,2.8-2.3,4.1-3.6c3-3,6.1-6,8.9-9.3c0.8-0.9,1.5-1.8,2.2-2.8
		c1.9-2.8,4.1-5.4,5.9-8.3c0.7-1.1,1.7-2.1,1.7-3.5c0-0.4,0.3-0.7,0.5-1c1.5-2.2,2.5-4.8,3.7-7.2c0.3-0.7,0.6-1.4,0.7-2.2
		c0.3-2.4,0.7-4.9,1-7.3c0.2-1.8,0.4-3.6,0.5-5.4c0.2-3.3-0.1-6.7-0.1-10c0-0.8,0-1.6-0.2-2.4c-0.4-2.3-0.9-4.5-1.3-6.8
		c0-0.3-0.1-0.5-0.3-0.7c0-0.2-0.1-0.3-0.1-0.5c-0.1-0.2-0.1-0.3-0.2-0.5c-0.3-0.4-0.3-0.9-0.3-1.3c-0.1-2-1-3.8-2.3-5.4
		c-0.2-0.5-0.6-0.9-0.5-1.5c0-0.4-0.1-0.7-0.4-0.9c-0.2-0.1-0.2-0.2-0.1-0.3c-0.1-0.2-0.2-0.4-0.3-0.6c-0.1-0.2-0.1-0.3-0.2-0.5
		c-0.1-0.1-0.2-0.3-0.3-0.4c-0.2-0.2-0.4-0.5-0.6-0.7c-1.5-2.2-2.9-4.6-4.3-6.9c-2-3.2-4.2-6.3-6.3-9.5c-2-3-4.5-5.5-6.8-8.2
		c-0.3-0.3-0.6-0.5-0.9-0.7c-2.6-1.9-5-4.1-7.8-5.8c-1.4-0.8-2.9-1.7-4.3-2.5c-1.7-0.9-3.5-1.6-5-2.7c-2.4-1.7-5.2-2.3-7.9-2.9
		c-2.6-0.6-5.3-0.9-8-1.3c-0.9-0.1-1.9-0.2-2.8-0.5c-0.9-0.3-1.9-0.3-2.8-0.3c-1.1,0-2.2,0.1-3.3,0c-1.5-0.1-3-0.1-4.5,0
		c-0.9,0.1-1.7,0.1-2.6,0c-0.7-0.1-1.4-0.1-2.1,0c-2.9,0.5-5.8,0.4-8.7,1.3c-1.2,0.4-2.4,0.7-3.7,1c-3.5,0.8-6.9,1.7-10.3,2.9
		c-1.1,0.4-2.1,0.6-3.2-0.1c0.9-1.6,2.4-2.5,4-3.3c1.9-0.9,3.9-1.8,6-2.3c3.5-1,6.9-2.3,10.6-2.8c2.4-0.3,4.7-0.9,7.1-0.9
		c1.3,0,2.7-0.4,4-0.4c3.7,0.1,7.5-0.2,11.2,0.4c1.6,0.3,3.3,0.2,5,0.5c3.7,0.8,7.5,1.3,11.1,2.6c0.5,0.2,1.1,0.3,1.5,0.7
		c2.1,1.5,4.6,2.2,6.7,3.6c0.6,0.4,1.2,0.9,2,0.7c0.3-0.9,0.2-1.9,0.1-2.8c-0.4-2.7-1-5.3-1.1-8c-0.1-2.8-0.9-5.5-1.2-8.2
		c-0.2-1.6-0.3-3.3-1-4.9c-0.2-0.5-0.3-1.1-0.3-1.6c0.1-1.6-0.4-3.1-0.7-4.7c-0.5-2.1-0.9-4.2-1.3-6.3c-0.6-2.5-1.3-4.9-1.7-7.4
		c-0.6-3.5-2-6.7-3.1-9.9c-0.1-0.4-0.3-0.7-0.4-1.1c-0.4-3.1-1.7-5.9-2.8-8.8c-1.2-3.1-2.4-6.2-3.5-9.3c-1.4-4.1-3.2-8-5-11.8
		c-1.2-2.7-2.6-5.2-4-7.8c-0.8-1.5-1.7-3-2.4-4.6c-0.5-1.4-1.7-2.5-2.3-3.9c-0.5-1-1-1.9-1.4-3c-0.2-0.7-0.7-1.3-1.1-1.8
		c-1.2-1.6-2.2-3.3-3.2-5c-1.6-2.7-3.4-5.4-5.1-8c-0.3-0.4-0.6-0.7-0.8-1.1c-2-3.9-4.8-7.2-7.2-10.9c-1.7-2.5-3.4-5-5.2-7.3
		c-1.5-2-3-4.1-4.9-5.8c-1.1-0.9-2-2-2.6-3.4c-0.3-0.8-1-1.4-1.6-2c-1.6-1.4-3-3-4.5-4.6c-2.8-3.1-5.9-6-9.2-8.6
		c-1.4-1.1-2.9-2.2-4.3-3.4c-1-0.8-2.1-1.7-2.7-2.9c-0.3-0.7-1-0.9-1.6-1.4c-1.1-0.9-2.5-1.4-3.4-2.6c-0.8-3.9-1.7-7.7-2.5-11.6
		c-2-9.6-3.6-19.3-4.6-29.1c-0.8-7.8-1.2-15.7-0.9-23.6c0.2-4.7,0.8-9.3,2.4-13.8c1-2.8,2.3-5.4,4.3-7.6c3.8-4.3,8.6-6.5,14.4-6
		c4.7,0.4,9.4,0.4,14,0.6c3.7,0.1,7.4,0.6,11.1,1.6c9.9,2.8,16.5,9.2,20.1,18.7c1.4,3.7,2.1,7.6,2.4,11.6c0.6,7.3,0,14.6-1.2,21.8
		c-2.8,17.2-8.2,33.6-14.7,49.6c-2,4.9-4.1,9.8-6.5,14.6c-0.4,0.8-0.3,1.4,0.3,2.1c2.5,2.9,5,5.9,7.1,9.1c0.6,0.9,1.3,1.8,2,2.7
		c1.2,1.7,2.1,3.7,3.6,5.3c0.2,0.2,0.4,0.5,0.5,0.8c0.7,1.8,1.9,3.3,3.2,4.7c0.6,0.6,1.1,1.4,1.5,2.2c0.7,1.7,1.9,3.1,2.6,4.8
		c0.4,0.9,1.1,1.7,1.7,2.5c1.3,1.8,2.6,3.6,3.4,5.7c0.6,1.5,1.4,2.8,2.3,4.1c0.7,1,1.5,2.1,1.8,3.3c0.1,0.3,0.3,0.6,0.4,0.8
		c1.4,2.3,2.5,4.7,3.7,7.2c0.1,0.3,0.3,0.6,0.4,0.8c1.4,2,2.2,4.4,3,6.7c0.4,1.1,0.9,2.2,1.4,3.2c1,1.8,1.7,3.6,2.2,5.5
		c0.3,1,0.7,1.9,1.2,2.9c0.7,1.5,1.3,3,1.8,4.6c0.3,1,0.7,1.9,1.1,2.9c0.6,1.7,1.3,3.4,1.6,5.2c0.4,2,1.4,3.9,2,5.8
		c1.3,4.5,2.5,9,3.4,13.6c0.3,1.3,0.6,2.6,0.9,3.9c0.3,1.2,0.7,2.4,0.7,3.7c0,0.2,0,0.5,0.1,0.7c0.8,2,1,4.2,1.3,6.2
		c0.6,4.3,1.7,8.5,2,12.9c0.1,2.2,0.5,4.4,0.7,6.6c0.2,2,0.5,4.1,0.6,6.1c0.1,1-0.1,2.1-0.1,3.1c-0.1,1,0.2,1.8,1,2.5
		c1.9,1.6,3.6,3.3,5.5,4.9c0.6,0.5,0.9,1.3,1.4,1.9c1.8,2.1,3.5,4.3,4.7,6.8c0.1,0.2,0.3,0.4,0.4,0.6c3.3,3.6,5.6,7.9,8.3,11.9
		c2,2.9,3.5,6,4.9,9.2c1.3,3,2.3,6.1,3.1,9.2c0.9,3.4,1.5,6.8,1.5,10.3c0,1.3,0.1,2.7,0.2,4c0.1,1.1,0,2.2,0,3.3
		c-0.1,2.4-0.3,4.7-0.6,7.1c-0.3,2-0.6,4.1-0.9,6.1c0,0.2-0.1,0.5-0.1,0.7c0.1,2.1-0.5,4.1-1.3,6c-0.7,1.5-0.3,2.8,0.5,4
		c0.8,1.2,1.4,2.4,2,3.7c0.7,1.5,1.2,3.1,1.8,4.7c0.4,1.3,0.5,2.8,1.5,4c0.1,2.5,2,4.5,2,7c0,0.7,0.6,1.5,0.7,2.2
		c0.6,2.5,1.4,4.9,1.7,7.4c0.4,3.4,1.7,6.6,1.9,10c0.4,4.7,1.4,9.4,1.4,14.2c0,4.3,0.4,8.5,0.6,12.8c0,0.5,0,1,0,1.4
		c-0.3,2.8-0.9,5.6-0.8,8.5c0,0.2,0,0.3,0,0.5c-0.8,2.4-0.9,4.8-0.8,7.3c0,0.6,0,1.2-0.2,1.6c-0.8,1.8-0.8,3.7-0.9,5.6
		c0,0.4,0,0.8-0.2,1.2c-1.1,2.4-1.5,5-1.6,7.6c0,0.9-0.3,1.7-0.5,2.5c-0.5,1.5-0.9,3-0.8,4.6c0,0.2,0,0.5-0.1,0.7
		c-1.3,3.2-1.3,6.7-2.3,9.9c-0.3,0.9-0.3,1-1.3,1.1C750.9,638.2,749.8,638,748.8,638.3z M642.5,263.4c0.2-0.8,0.4-1.4,0.5-2.1
		c0.7-3.3,1.5-6.7,2.2-10c2.8-12.9,5.7-25.7,7.6-38.8c0.6-4.2,1-8.5,1.1-12.8c0-2.2-0.2-4.4-0.7-6.6c-0.2-0.9-0.7-1.2-1.4-1.4
		c-0.8-0.2-1.7-0.5-2.5-0.6c-2.4-0.3-4.9-0.7-7.3-0.9c-3-0.3-2.5-0.8-3.2,2.3c-1.1,5-1.8,10.2-2.3,15.3c-0.9,8.2-1.5,16.4-2.1,24.7
		c-0.2,3.1-0.5,6.2-0.7,9.3c-0.3,4.9-0.7,9.8-1,14.7c-0.1,1,0,1.1,1.1,1.5c1.3,0.5,2.4,1.2,3.5,2C639,261.1,640.7,262.2,642.5,263.4
		z"/>
	<path class="st3" d="M436.6,438c0.5-1.8,2-2.2,3.5-2.3c2.1-0.2,4.1,0.1,6.1,0.7c3,0.9,6.1,1.7,9,2.9c3.4,1.4,6.8,2.6,10.1,4.1
		c2.9,1.3,5.5,3.1,8.5,4.3c2,0.8,3.9,1.7,5.8,2.8c2.4,1.5,5,2.8,7.3,4.4c3.8,2.6,7.8,4.8,11.7,7.3c3.1,2,6,4.2,9.2,6
		c0.1,0.1,0.3,0.2,0.4,0.3c3,2.6,6.3,4.8,9.3,7.3c3.1,2.6,6.1,5.3,9,8.2c1.6,1.6,3.1,3.2,4.7,4.7c1.3,1.2,2.5,2.6,3.6,4.1
		c1.4,1.9,2.9,3.8,4.6,5.4c0.8,0.8,1.5,1.6,2,2.7c0.2,0.4,0.4,0.7,0.6,1c1.4,2.2,2.7,4.5,4.2,6.6c1.9,2.8,3.7,5.7,5.7,8.5
		c1,1.4,1.9,2.8,2.5,4.3c0.4,1.1,1.1,2.1,1.6,3.2c1,2.3,2.2,4.4,3.6,6.4c0.4,0.5,0.7,1.1,0.8,1.7c0.8,3,2.4,5.5,3.7,8.2
		c0.6,1.2,1.2,2.4,1.6,3.7c0.5,2.1,1.3,4,2.4,5.9c0.3,0.5,0.5,1.2,0.8,1.7c1.1,2.8,2.1,5.6,3.1,8.5c0.8,2.4,1.6,4.8,2.3,7.2
		c0.2,0.8,0.5,1.5,0.8,2.2c0.3,0.7,0.6,1.5,0.8,2.2c0.4,1.5,0.8,2.9,1.3,4.3c0.5,1.3,0.7,2.8,0.9,4.2c0.1,1,0.3,2.1,0.6,3
		c1.1,3.5,1.8,7,2.5,10.6c0.4,2.3,1,4.6,1.4,7c0.2,1.4,0.4,2.8,0.4,4.2c0,1.5,0.4,3,0.6,4.5c0.4,2.7,0.7,5.3,0.7,8
		c0,1.5,0.1,3,0.4,4.5c0.3,1.3,0.2,2.7,0.2,4c0,2,0.4,4,0,5.9c0,0.1,0,0.2,0,0.2c0.6,1.7,0,3.4-0.2,5.2c-1,0.5-2.2,0.1-3.3,0.4
		c-2.3-0.4-2.4-0.4-2.7-2.9c-0.4-3.9-1-7.8-1.1-11.8c-0.1-3.2-0.6-6.3-1.1-9.4c-0.1-1-0.3-1.9-0.1-2.8c0.1-0.8,0.1-1.6-0.1-2.3
		c-0.8-2.8-1.2-5.7-1.1-8.7c0-0.3,0.1-0.7-0.1-0.9c-0.9-2.4-1.2-4.9-1.8-7.3c-0.1-0.3-0.3-0.6-0.3-0.9c-0.2-2.5-1.2-4.7-1.7-7.1
		c-0.4-2.2-1-4.3-1.6-6.4c-0.1-0.4-0.2-0.8-0.3-1.1c-0.1-1.2-0.4-2.4-1-3.4c-1.4-2.8-2-5.8-2.9-8.8c-0.7-2.1-1.3-4.2-2.3-6.2
		c-0.2-0.3-0.3-0.7-0.4-1.1c-0.6-2.2-1.5-4.3-2.5-6.4c-0.5-1.1-0.9-2.2-1.4-3.3c-0.6-1.6-1.2-3.2-2.1-4.8c-1.2-2.2-2.3-4.5-3.1-6.9
		c-0.1-0.3-0.2-0.6-0.4-0.9c-1.4-2.6-2.8-5.3-4.4-7.9c-0.7-1.1-1.3-2.2-1.6-3.4c-0.2-0.9-0.6-1.6-1.2-2.3c-2-2.4-3.6-5-5.2-7.7
		c-1.2-2-2.4-3.9-3.8-5.7c-0.2-0.2-0.5-0.5-0.6-0.7c-1.7-3.3-4.3-5.8-6.6-8.6c-0.9-1.1-1.7-2.3-2.6-3.4c-2.7-3.2-6-5.9-8.9-8.9
		c-2.2-2.2-4.6-4.1-7-6c-1.7-1.4-3.4-2.8-5.1-4.3c-1.1-1-2.3-1.9-3.7-2.6c-1.7-0.8-3.2-2-4.7-3.2c-2.1-1.7-4.5-3-6.7-4.5
		c-2.4-1.6-4.8-3.1-7.3-4.5c-1.9-1.1-3.8-2.2-5.7-3.4c-4.3-2.6-8.8-4.6-13.1-7.1c-2-1.1-4-2.2-6.2-2.9c-1.5-0.5-3-1.3-4.6-1.9
		c-3.3-1.3-6.6-2.7-9.9-4c-1.2-0.5-2.4-0.7-3.6-1.1c-1.1-0.3-2.1-0.8-3.1-1.2C437.3,439,437,438.5,436.6,438z"/>
	<path class="st4" d="M461.7,136c0.1,1.2,0.1,2.4,0.3,3.7c1.1,5.9,1.4,12,1.8,18c0.1,1.2,0.3,2.3,0.5,3.5c0.3,1.9,0.6,3.7,0.6,5.6
		c0,1.6,0.4,3.3,0.7,4.9c0.3,1.3,0.5,2.5,0.4,3.8c-0.1,1.1,0.4,2.2,0.5,3.3c0.1,1.7,0.5,3.3,0.3,5c-0.1,0.7,0.1,1.4,0.2,2.1
		c0.4,2.1,0.7,4.2,0.8,6.3c0.1,3,0.8,6,0.8,9c0,1.8,0.4,3.6,0.5,5.4c0.1,2.1-0.2,4.1-0.7,6.1c-0.2,0.9-0.6,1.8-1.4,2.1
		c-0.9,0.3-1.5-0.6-2.1-1.2c-1-1.1-1.5-2.4-1.9-3.8c-0.3-1.1-0.7-2.3-0.7-3.5c-0.1-1.4-0.5-2.6-0.7-4c0-0.2-0.1-0.3-0.1-0.5
		c0.4-2.1-0.2-4.1-0.4-6.1c-0.2-2.4-0.2-4.7-0.7-7.1c-0.3-1.4-0.4-2.8-0.4-4.3c-0.1-2.5-0.4-4.9-0.8-7.3c-0.4-2.4-0.5-4.9-0.7-7.3
		c-0.3-3.5-0.7-7.1-1.1-10.6c-0.4-3-0.7-6-0.9-9c-0.1-1.6,0-3.3-0.2-5c-0.2-1.2-0.3-2.3-0.6-3.5c-0.4-1.9-0.5-3.8-0.5-5.7
		c0-1.4,0-2.9-0.3-4.3c-0.2-1.4-0.1-2.7,0.1-4c0.1-1.1,0.6-2,1.2-2.8c1.2-1.6,3.5-1.3,4.2,0.6c0.2,0.6,0.4,1.2,0.4,1.9
		c0,1.4,0.3,2.8,0.6,4.2C461.8,133,461.9,134.5,461.7,136z"/>
	<path class="st4" d="M440.7,218.2c-0.1,0.4-0.2,1.1-0.4,1.8c-0.2,0.6-0.5,0.7-1.1,0.4c-1.6-0.8-2.6-2.3-3.8-3.5
		c-1.9-2.1-3.3-4.5-4.1-7.1c-0.6-1.9-1.5-3.6-2.4-5.4c-1.1-2.2-1.9-4.5-2.9-6.8c-0.9-2-1.5-4-2.1-6c-0.5-1.7-1.4-3.2-2.1-4.8
		c-1.9-4.8-3.8-9.6-5.5-14.4c-1-2.8-1.9-5.5-3-8.3c-0.3-0.8-0.6-1.6-0.8-2.5c0-0.2-0.1-0.5-0.2-0.7c-1.2-2.4-1.9-4.9-2.9-7.3
		c-1.2-2.9-2.3-5.9-3-9c-0.2-1-0.5-2-0.8-3c-0.4-1.5,0-2.8,0.8-4c0.7-1,1.9-1.1,2.9-0.4c0.6,0.4,1.1,0.9,1.4,1.6
		c1,2.2,2.2,4.4,2.8,6.8c0.3,1.3,0.8,2.5,1.4,3.8c0.9,1.7,1.8,3.5,2.2,5.5c0.2,1,0.9,1.9,1.2,2.8c0.7,2.3,1.9,4.5,2.3,6.9
		c0,0.2,0.1,0.5,0.2,0.7c2.3,5,3.9,10.2,5.9,15.3c1.1,3,2.4,5.8,3.7,8.7c0.1,0.3,0.3,0.6,0.4,0.9c0.3,2.3,1.5,4.3,2.5,6.4
		c0.7,1.4,1.2,3,1.9,4.3c1.3,2.4,2.3,5,3.4,7.6C439.7,211.5,440.4,214.7,440.7,218.2z"/>
	<path class="st0" d="M233.2,638.3c1.5-0.4,1.6-0.5,1.6-1.6c0-0.9,0-1.7-0.3-2.6c-0.6-1.6-0.8-3.4-1-5.1c-0.3-2-0.7-4.1-1.2-6.1
		c-0.6-2.6-1-5.3-1.2-8c-0.1-0.6-0.1-1.3-0.2-1.9c-0.7-2.4-0.5-4.9-0.8-7.3c-0.5-5.5-0.4-10.9-0.5-16.4c0-0.5-0.1-1.1-0.2-1.6
		c-0.3-1.7-0.5-3.3,0-4.9c0.2-0.6,0.1-1.3,0.2-1.9c0-1,0-1.9,0.1-2.9c0.1-1.5,0.1-1.5,1.5-1.5c1.8,0,3.6,0.1,5.5,0.2
		c1.3,0,2.5,0,3.8,0.1c0.9,0,1,0.3,0.9,1.2c-0.6,2.6-1.1,5.3-1.6,7.9c-0.2,0.9-0.3,1.7-0.4,2.6c0,0.3,0,0.6-0.1,0.9
		c-1.1,3.3-1.2,6.7-1.7,10c-0.3,1.9-0.3,3.9-0.4,5.9c0,0.4,0.1,0.8,0,1.2c-0.3,2.1-0.1,4.1-0.1,6.2c0,4.2,0.8,8.4,0.6,12.6
		c0,0.4,0.1,0.8,0.1,1.2c0.6,3.1,0.7,6.3,1.1,9.4c0,0.2,0.1,0.5,0.1,0.7c0.1,1,0.7,1.6,1.7,1.6c-0.2,0.1-0.4,0.3-0.6,0.3
		c-2,0-4.1,0-6.1,0C233.6,638.6,233.4,638.4,233.2,638.3z"/>
	<path class="st4" d="M416.2,230.1c0,0.2,0,0.4-0.1,0.5c-0.1,0.8-0.4,1-1.3,1c-0.9,0-1.7-0.3-2.5-0.7c-0.8-0.5-1.6-1.1-2.3-1.7
		c-1-0.9-1.9-1.9-2.9-2.8c-1.2-1.1-2.3-2.3-3.3-3.7c-1.1-1.4-2.4-2.7-3.6-4.1c-0.2-0.2-0.5-0.4-0.6-0.7c-0.5-1.2-1.5-2-2.3-3
		c-1.8-2.4-4.1-4.4-6-6.7c-1.8-2.3-3.6-4.6-5.5-6.9c-0.9-1.2-1.9-2.3-2.8-3.5c-2.2-2.8-4.5-5.5-6.7-8.3c-1-1.2-1.5-2.6-0.9-4.2
		c0.5-1.5,1.7-2.1,3.2-1.7c1.1,0.3,2,1,2.7,1.8c1.6,1.9,3.1,3.8,4.7,5.6c1.4,1.7,3,3.3,4.4,5c1.2,1.4,2.2,2.9,3.3,4.3
		c0.3,0.4,0.6,1,1,1.3c2,1.8,3.7,3.9,5.6,5.9c0.2,0.2,0.5,0.4,0.7,0.7c2.1,3.1,4.8,5.7,7.2,8.5c0.6,0.7,1,1.4,1.5,2.1
		c1.1,1.6,2.3,3,3.5,4.5c1.2,1.4,2,3,2.7,4.7C416.1,228.8,416.2,229.5,416.2,230.1z"/>
	<path class="st4" d="M499.8,204.7c-1.4-0.9-1.9-2.3-2.1-3.8c-0.2-1.3-0.1-2.7,0.2-4c0.6-2.4,1.2-4.8,1.5-7.2c0.2-1.7,1-3.1,1.3-4.8
		c0.7-4.1,1.7-8.2,2.6-12.3c0.2-0.8,0.2-1.6,0.3-2.4c0.4-2.8,1.2-5.6,2-8.3c1-3.5,2-7,2.8-10.5c0.3-1.3,1-2.5,1.6-3.7
		c0.3-0.5,0.8-1,1.3-1.4c0.8-0.6,2-0.3,2.4,0.6c0.4,1,0.7,2,0.4,3.2c-0.6,2.3-0.7,4.7-1.4,7c-0.1,0.3-0.1,0.6-0.2,0.9
		c-0.1,1.9-0.5,3.8-1,5.6c-0.9,2.7-1.2,5.6-1.6,8.4c-0.4,2.2-0.8,4.4-1.2,6.5c-0.5,2.6-1,5.3-1.5,7.9c-0.2,0.9-0.4,1.9-0.7,2.8
		c-0.5,1.3-0.9,2.7-0.9,4.2c0,1.5-0.5,2.8-1,4.1c-0.4,1.3-1,2.5-1.6,3.7C502.1,203.5,502.1,203.5,499.8,204.7z"/>
	<path class="st4" d="M543,174.1c0,1.7-0.7,3.1-1.3,4.4c-0.6,1.4-1.3,2.7-1.7,4.2c-0.3,0.9-0.7,1.8-1.2,2.6c-0.9,1.6-1.5,3.3-2,5.1
		c-0.6,2.3-2,4.1-3.2,6c-0.3,0.5-0.8,0.7-1.4,0.9c-1.2,0.3-1.8,0-2.3-1.1c-0.9-2-1.2-3.8,0-5.9c0.8-1.4,0.9-3,1.5-4.5
		c1.3-2.8,2.7-5.5,3.9-8.3c0.6-1.3,1.6-2.5,2.3-3.9c0.5-0.9,1.2-1.6,2.1-2.2c0.7-0.4,1.5-0.3,2.2,0.3
		C542.7,172.3,543,173.2,543,174.1z"/>
	<path class="st2" d="M581.5,638.3c1.1-0.3,2.2,0.1,3.3-0.4c0,0.2,0.1,0.4,0.1,0.6C583.7,638.6,582.6,639,581.5,638.3z"/>
	<path class="st5" d="M740.2,466.8c-0.1,0.2,0,0.3,0.1,0.3c-0.1,0.4,0.2,0.7,0.4,0.9c0,0.6,0.3,1,0.5,1.5c-1,0.9-1,2.1-1,3.3
		c0,1.2,0.2,2.4,0,3.6c-0.6,3.8-0.1,7.6-0.9,11.3c0.2,1.5-0.3,2.8-0.6,4.2c-0.8,3.6-1.5,7.1-2.2,10.7c-0.7,3.4-1.8,6.6-3.3,9.6
		c-0.8,1.8-1.5,3.7-2.7,5.3c-1.6,2-3.1,4-5,5.7c-1.9,1.7-3.9,3.3-5.8,4.8c-2.4,1.9-4.7,4-7.3,5.7c-2.8,1.8-5.8,3.2-8.7,4.7
		c-1.1,0.6-2.3,1.1-3.4,1.7c-0.4,0.2-0.7,0.4-1.1,0.5c-4.3,1.3-8.6,2.8-13,3.5c-2.3,0.3-4.6,0.7-6.9,0.6c-1.9-0.1-3.8-0.3-5.7-0.4
		c-2.9-0.1-5.7-0.2-8.5-0.9c-0.9-0.2-1.8-0.4-2.8-0.5c-1.1-0.1-2.2-0.5-3.2-0.9c-0.7-0.3-1.4-0.7-2.2-0.9c-2.5-0.5-4.5-1.8-6.8-2.8
		c-2.7-1.2-5.3-2.5-7.6-4.3c-0.2-0.1-0.4-0.2-0.6-0.3c-3.9-2.2-7.4-4.8-10.5-8.1c-0.2-0.2-0.4-0.5-0.7-0.6c-0.7-0.4-1.2-0.2-1.6,0.5
		c-0.5-0.3-1-0.6-1.4-1c-0.3-0.6-0.6-1.1-0.8-1.7c-0.2-0.5-0.4-0.9-0.8-1.2c-1.2-0.6-1.5-1.8-2-2.8c-1.7-3.2-2.9-6.7-4.2-10
		c-0.8-2.1-1.5-4.2-1.8-6.4c-0.3-2.1-0.9-4.1-1.5-6.2c-0.8-2.9-0.9-5.9-1.2-8.9c-0.2-2-0.1-4.1,0-6.2c0.1-3.4,0.2-6.8,0.9-10.2
		c0.5-2.2,0.9-4.3,1.6-6.4c0.9-2.8,2.1-5.5,3.1-8.2c0.5-1.3,1.2-2.4,2-3.5c1.8-2.4,3.4-5,5.1-7.5c0.7-1,1.5-2.1,2.1-3.1
		c0.8-1.3,2-2.2,3-3.3c0.3-0.3,0.7-0.6,1-1c0.5-0.7,0.5-1.3-0.2-1.9c0.5-0.9,1.4-1.5,2.2-2.1c2.3-1.9,4.7-3.6,7.2-5.2
		c1,0.7,2.1,0.5,3.2,0.1c3.4-1.2,6.8-2.1,10.3-2.9c1.2-0.3,2.5-0.6,3.7-1c2.8-0.9,5.8-0.8,8.7-1.3c0.7-0.1,1.4-0.1,2.1,0
		c0.9,0.1,1.7,0,2.6,0c1.5-0.1,3-0.1,4.5,0c1.1,0.1,2.2,0,3.3,0c1,0,1.9,0,2.8,0.3c0.9,0.3,1.9,0.3,2.8,0.5c2.7,0.4,5.3,0.7,8,1.3
		c2.8,0.6,5.5,1.3,7.9,2.9c1.5,1.1,3.3,1.8,5,2.7c1.5,0.8,2.9,1.6,4.3,2.5c2.8,1.7,5.2,3.9,7.8,5.8c0.3,0.2,0.7,0.5,0.9,0.7
		c2.3,2.7,4.8,5.2,6.8,8.2c2.1,3.1,4.3,6.3,6.3,9.5c1.4,2.3,2.8,4.6,4.3,6.9c0.2,0.3,0.4,0.5,0.6,0.7c0,0.2,0.1,0.4,0.3,0.4
		c0.1,0.2,0.1,0.3,0.2,0.5C739.9,466.4,740,466.6,740.2,466.8z M630.9,517.8L630.9,517.8c0,1.3,0.8,2.1,1.6,2.9
		c1.8,1.7,3.2,3.7,5.1,5.2c1.4,1.2,2.7,2.5,4.1,3.6c5,3.8,10.5,6.8,16.5,8.9c3.5,1.3,7.1,2.1,10.8,2.6c1.7,0.2,3.4,0.6,5.2,0.6
		c3.2-0.1,6.3,0.2,9.5-0.4c1.8-0.3,3.6-0.4,5.4-0.8c3.2-0.6,6.3-1.6,9.3-2.8c2.1-0.8,4.3-1.7,6.3-2.9c2.8-1.7,5.8-3.2,8.3-5.5
		c1.7-1.5,3.6-2.8,5.2-4.5c1.3-1.4,2.6-2.8,3.8-4.2c2.8-3.2,5.1-6.7,7-10.4c2.3-4.4,4-9.1,5.1-14c0.8-3.6,1.4-7.3,1.4-11
		c0-3.1,0.1-6.2-0.4-9.2c-0.5-3.1-0.9-6.2-1.9-9.3c-0.4-1.2-0.8-2.4-1.2-3.6c-1.3-4.1-3.4-7.8-5.7-11.5c-1.4-2.3-3.2-4.3-4.9-6.4
		c-2.5-3.2-5.6-5.8-8.7-8.4c-1.6-1.3-3.5-2.4-5.3-3.6c-3.3-2.1-6.8-3.7-10.5-5c-2.8-1-5.6-1.8-8.5-2.3c-2.5-0.4-5-0.9-7.5-1.1
		c-4.9-0.2-9.8-0.1-14.7,0.9c-3.1,0.6-6.1,1.5-9.1,2.5c-0.8,0.3-1.6,0.7-2.4,1c-0.3,0.1-0.4,0.5-0.4,0.8c-0.4,0.4-0.8,0.5-1.3,0.5
		c-0.3,0-0.5,0.1-0.6,0.3c-0.1,0.2-0.2,0.2-0.3,0.2c-0.7-0.2-1.4,0-2,0.4c-1.7,1-3.4,2-5.1,3c-3.4,2-6.1,4.9-9.2,7.4
		c-0.7,0.6-1.1,1.3-0.9,2.3c-0.2,0.4-0.4,0.7-0.8,0.8c-0.7-0.2-1.2,0.2-1.7,0.7c-0.6,0.7-1.1,1.4-1.6,2.1c-1.9,2.3-3.5,4.9-5,7.5
		c-2.2,4-3.8,8.2-5,12.5c-0.9,3.3-1.6,6.6-1.7,10c0,0.4,0,0.8-0.1,1.2c-0.4,0.9-0.3,1.9-0.3,2.8c0,2.3,0.1,4.6,0.4,6.9
		c0.3,2.8,0.7,5.6,1.3,8.4c0.7,3.4,1.9,6.7,3.3,9.9c1,2.2,2,4.5,3.4,6.5c0.2,0.3,0.5,0.6,0.9,0.6c0.1,0.1,0.2,0.2,0.2,0.3
		c-0.1,0.5,0,0.9,0.6,1c0.1,0.2,0.2,0.4,0.3,0.5c0,0.5,0.1,0.8,0.6,0.9c0.2,0.1,0.4,0.2,0.4,0.5C630.2,517.5,630.2,518,630.9,517.8z
		"/>
	<path class="st6" d="M500.8,328.5c0.1-0.6-0.3-1-0.6-1.5c-2.2-2.9-4.1-6-6.7-8.6c-0.5-0.5-0.9-1.1-1.2-1.7c-1.9-3.1-3.8-6-6.1-8.8
		c-0.3-0.4-0.6-0.7-0.8-1.2c-1-2.5-2.9-4.5-4.3-6.8c-0.3-0.6-0.7-1.1-1-1.6c-1-2.1-1.9-4.2-2.9-6.3c-0.7-1.6-0.4-3.1,0.7-4.5
		c0.8-1,1.8-1.7,3.1-2.2c0.5-0.2,1.1-0.3,1.6-0.5c2.2-0.8,4.2-0.2,6,1.3c1.9,1.6,3.9,3.2,5,5.7c0.2,0.4,0.6,0.7,0.9,1.1
		c0.8,0.8,1.4,1.7,1.9,2.7c0.9,1.6,1.8,3.2,2.9,4.6c0.7,0.9,1.3,1.9,1.9,3c0.5,1,1.2,1.9,1.8,2.8c1.7,2.5,2.8,5.3,3.7,8.2
		c0.4,1.3,0.9,2.5,1.6,3.7c1,1.8,1.8,3.7,2.6,5.6c0.4,0.9,0.7,1.7,1.3,2.5c1.9,2.6,2.9,5.6,3.4,8.8c0.1,0.8,0.1,1.6,0,2.4
		c-0.2,2.7-1.8,4.1-4.1,4.9c-1.4,0.4-2.8,0.6-4.2,0.4c-3.4-0.5-6.8-0.3-10.2-0.4c-2.1,0-4.1,0-6.2-0.2c-1.2-0.1-2.4-0.1-3.6,0.1
		c-1.5,0.2-3,0.2-4.5-0.2c-0.9-0.2-1.9-0.1-2.8-0.1c-2.5,0-4.9-0.3-7.4-0.3c-2.1,0-4.3-0.2-6.4-0.7c-2.2-0.6-3.4-2-3.6-4.2
		c-0.1-0.6-0.1-1.3-0.1-1.9c-0.1-2.1,1.3-4.2,3.5-4.3c2.4-0.2,4.7-1,7-1.2c2.8-0.3,5.7-0.4,8.5-0.1c1.4,0.1,2.8,0.1,4.3,0.1
		c1.8,0,3.6-0.1,5.5-0.2c0.6,0,1.3,0,1.9,0.1c2.5,0.4,4.9,0.1,7.3-0.3C500.5,328.8,500.7,328.6,500.8,328.5z"/>
	<path class="st7" d="M531.3,257.8c1.8,0.2,3.8,0.3,5.7,0.7c2.8,0.6,5.2,1.9,7.1,4.1c1.4,1.6,2.7,3.3,4.1,4.9
		c0.5,0.6,0.9,1.1,1.1,1.8c0.6,1.8,1.7,3.4,2.4,5.2c1.4,3.4,2.5,6.8,2.7,10.5c0.1,1.1,0,2.2,0.2,3.3c0.3,1.6,0.2,3.1-0.1,4.7
		c-0.4,1.8-0.7,3.6-1.4,5.3c-1.1,2.4-2.3,4.9-3.9,7c-1.3,1.7-2.9,2.9-5.1,3.2c-0.9,0.1-1.7,0.4-2.5,0.6c-2.1,0.6-3.8-0.2-5-1.8
		c-1.9-2.4-3.5-5.1-4.7-7.9c-1.2-3-2.4-6-4.3-8.7c-0.1-0.2-0.3-0.4-0.4-0.6c-0.6-2.2-2.1-4.1-3-6.2c-1-2.2-2.5-4-4.3-5.6
		c-1.7-1.5-2.8-3.4-3.7-5.4c-0.7-1.5-0.9-3.2,0-4.8c0.1-0.2,0.2-0.4,0.3-0.6c1.1-3.4,3.6-5.2,6.6-6.7c1.9-1,3.8-1.9,5.9-2.4
		C529.5,257.9,530.3,257.8,531.3,257.8z"/>
	<path class="st6" d="M585.4,383.9c-0.1-1.9,0.3-3.8,1.2-5.5c0.3-0.6,0.5-1.3,0.7-2c0.8-2.7,2.4-5,3.8-7.4c0.7-1.1,1.7-1.9,2.7-2.7
		c1-0.7,2-1.5,3-2.3c2.3-2,5.1-2.9,7.9-3.6c0.7-0.2,1.4-0.1,2.1,0c3.9,0.6,7.5,2.1,10.2,5.2c2.1,2.4,4,5,4.7,8.4
		c0.5,2.5,1,4.9,1.2,7.5c0.1,1.1,0.1,2.2-0.3,3.3c-0.1,0.3-0.1,0.6-0.1,0.9c0,4-1.4,7.6-3.4,11c-0.1,0.1-0.1,0.3-0.2,0.4
		c-0.9,1.4-5.5,4.9-7,5.5c-0.7,0.2-1.4,0.4-2,0.7c-1.7,0.7-3.4,0.6-5.1,0.1c-1.6-0.4-3.2-0.8-4.9-0.8c-1.5,0-2.8-0.5-4.1-1.2
		c-1.3-0.7-2.4-1.5-3.6-2.3c-1.4-1-2.3-2.3-3-3.9c-0.9-2.3-1.8-4.6-2.9-6.8C585.4,386.9,585.4,386.4,585.4,383.9z"/>
	<path class="st8" d="M413.5,269.8c-0.9-0.4-1.4-1.3-2-2c-0.4-0.6-0.8-1.2-1.2-1.8c-1.2-1.8-1.2-2.1,0.9-3.1
		c2.7-1.4,5.6-2.6,8.1-4.5c0.6-0.4,1.3-0.7,1.9-0.9c1.3-0.5,2.6-1.3,3.8-1.9c2-1.1,4.2-1.9,6.2-3.1c3-1.7,6.2-2.6,9.4-3.8
		c0.6-0.2,1.1-0.6,1.7-0.8c0.6-0.3,1.3-0.7,2-0.8c1.7-0.3,3.1-1.1,4.7-1.7c2-0.8,3.9-1.6,5.9-2.4c0.7-0.3,1.5-0.6,2.2-0.9
		c0.7-0.4,1.5-0.7,2.2-0.8c3.5-0.4,6.6-2.1,10-3c2-0.6,3.9-1.3,5.9-1.7c2.6-0.4,5.1-1.3,7.6-2c0.5-0.1,0.9-0.3,1.4-0.4
		c1.9-0.4,3.9-0.6,5.8-1.3c0.7-0.3,1.6-0.2,2.3-0.4c2.4-0.6,4.8-1,7.2-1.3c2.1-0.3,4.2-0.9,6.3-1.1c2.4-0.3,4.7-0.6,7.1-0.8
		c3.3-0.3,6.6-0.6,9.9-0.8c1.8-0.1,3.6,0.1,5.5,0.2c2.6,0.1,5.2,0.1,7.8,0.4c5.2,0.6,10.4,0.7,15.6,1.9c3.5,0.8,7,1.3,10.5,2
		c1.2,0.2,2.5,0.6,3.7,0.9c2.5,0.6,4.9,1.4,7.4,1.7c1.8,0.2,3.6,0.7,5.2,1.5c-0.2,0.1-0.2,0.2-0.2,0.4c-2.2,0.2-4.4-0.4-6.6-0.6
		c-1.8-0.2-3.6-0.2-5.4-0.4c-3.2-0.3-6.5-0.6-9.7-0.9c-4.3-0.4-8.5-0.7-12.8-0.4c-1.4,0.1-2.8,0.1-4.2,0.4c-1.4,0.3-2.9,0.6-4.5,0.2
		c-0.7-0.1-1.4,0-2.1,0.1c-5.4,0.9-10.9,0.5-16.3,1.1c-1.6,0.2-3.3,0.5-4.9,0.6c-4.2,0.3-8.3,1-12.5,1.6c-2.4,0.4-4.8,1-7.3,1.2
		c-2,0.2-4,1-6,1.5c-3.9,1-7.8,2.1-11.7,3.2c-1.3,0.4-2.6,0.6-3.8,1.3c-0.6,0.3-1.4,0.4-2.1,0.5c-1.7,0.2-3.2,0.6-4.7,1.5
		c-1.7,0.9-3.6,1.3-5.4,1.9c-1.4,0.4-2.7,0.8-3.9,1.6c-0.5,0.3-1.1,0.6-1.7,0.8c-3.6,0.8-6.8,2.6-10,4.3c-1.1,0.6-2.1,1.1-3.3,1.4
		c-0.6,0.2-1.2,0.5-1.7,0.7c-0.9,0.4-1.7,0.9-2.6,1.2c-2.2,0.6-4,1.8-5.9,2.9c-0.8,0.4-1.6,1-2.6,1.2c-0.4,0.1-0.7,0.3-1.1,0.5
		c-2.1,1.3-4.4,2.1-6.5,3.4C417.2,268.9,415.4,269.5,413.5,269.8z"/>
	<path class="st7" d="M625,323.5c-2.1,0.1-4.1,0.3-6.2,0.4c-1.7,0.1-3.3,0.2-5,0.2c-4,0-8.1,0.7-12.1,0.6c-1.6,0-3.1,0.4-4.7,0.5
		c-2.1,0.2-4.1-0.1-6-1c-1.6-0.8-2.8-2-3.6-3.6c-1.8-3.2-1.3-6.4,0-9.6c1.6-4.1,4.8-6.6,8.7-8.2c2.1-0.9,4.3-1.7,6.4-2.5
		c0.8-0.3,1.5-0.4,2.3-0.4c5.1-0.2,10.1-0.3,15.2-0.5c0.9,0,1.8,0,2.6,0.1c1.5,0.2,3,0.3,4.5,0.6c3.1,0.6,6.1,1.6,8.4,4
		c0.7,0.7,1.5,1.3,2.2,2.2c2.4,3.2,2.9,6.6,1.4,10.3c-0.6,1.5-1.3,3.1-2.4,4.4c-1.1,1.2-2.5,2-4,2.3c-1.9,0.4-3.8,0.4-5.7,0.4
		c-0.6,0-1.3,0-1.9,0C625,323.5,625,323.5,625,323.5z"/>
	<path class="st3" d="M477.3,380.5c0.2-1.9,0.4-3.8,1.3-5.5c0.5-1.1,0.7-2.3,1.3-3.3c1.6-2.7,3.9-4.8,6.4-6.5
		c1.7-1.2,3.4-2.3,5.3-3.2c0.8-0.4,1.6-1,2.6-1.2c0.5-0.1,0.6-0.4,0.5-0.9c-0.2-0.6-0.3-1.2-0.3-1.9c0.1-1,0.7-1.6,1.8-1.5
		c1.2,0,2.1,0.6,2.9,1.5c1.5,1.9,3,3.9,4.1,6.1c0.7,1.4,1.6,2.7,2.4,4.1c1.6,2.5,3.1,5.2,4.2,8c0.6,1.5,1.5,2.8,2.2,4.2
		c0.4,0.7,0.8,1.4,1.1,2.1c1.3,3.3,2.8,6.6,4.6,9.6c0.2,0.4,0.4,0.9,0.5,1.3c0.2,0.4,0.2,0.9,0.5,1.3c1.9,3,2.8,6.4,3.9,9.7
		c0.2,0.7,0.4,1.2,1.3,1.3c2.5,0.4,5,1,7.5,1.4c1.3,0.2,2.6,0.7,3.9,0.8c2.3,0.2,4.5,1,6.8,1.2c1.3,0.1,2.6,0.7,3.9,1
		c2.4,0.5,4.9,0.7,7.2,1.5c1.1,0.4,2.3,0.5,3.5,0.7c2,0.4,4.1,0.7,6,1.6c0.8,0.4,1.7,0.5,2.5,0.5c2,0.1,3.9,0.9,5.8,1.2
		c2.7,0.5,5.2,1.3,7.9,1.6c1,0.1,2,0.4,3,0.7c2.1,0.7,4.2,1.5,6.4,1.9c1.6,0.3,2.7,1.3,3.6,2.5c0.8,1.1,0.5,2.1-0.5,2.9
		c-0.9,0.6-1.9,0.8-3,0.6c-1.6-0.3-3.3-0.7-4.9-1.1c-2.9-0.8-5.9-1.3-8.9-1.8c-1.8-0.3-3.6-0.7-5.3-1.1c-2.3-0.5-4.6-1.1-7-1.3
		c-1.4-0.1-2.7-0.7-4.1-1.1c-2.6-0.7-5.2-1.3-7.8-2c-0.2-0.1-0.5-0.1-0.7-0.2c-3.7-0.3-7.3-1.4-11-1.9c-0.1,0-0.2,0-0.2,0
		c-2.9-1.3-6.1-1.1-9-2.1c-1.5-0.5-3-0.9-4.6-1.3c-1.1-0.3-2.1-0.8-2.8-1.7c-1.6-2-3.6-3.6-4.9-5.8c-0.8-1.4-1.8-2.8-2.3-4.4
		c-0.2-0.7-0.7-1.4-1.1-2.1c-0.4-0.6-0.5-1.4-1.2-1.7c-0.7-0.3-1.4,0.2-2,0.4c-0.5,0.1-0.9,0.2-1.4,0.3c-2.7,0.4-5.3,0.8-8,1.1
		c-2.9,0.4-5.8,0.6-8.7-0.1c-1.8-0.4-3.7-0.7-5.5-1.4c-3-1.3-5.6-3-7.1-6c0-0.1-0.1-0.2-0.1-0.2c-1.8-1.8-2-4.2-2.2-6.6
		C477.5,382.4,477.4,381.4,477.3,380.5z M482.9,380.3c-0.1,2.1,0.4,3.4,0.9,4.8c1,2.5,2.6,4.4,5.3,5.4c1.4,0.5,2.9,0.8,4.4,1.1
		c2,0.4,4,0.8,6.1,0.2c0.4-0.1,0.8,0,1.2-0.1c2.6-0.4,5.2-0.7,7.7-1.2c1.5-0.2,2.3-0.1,1-2.2c-0.2-0.3-0.3-0.7-0.5-1.1
		c-1.3-2.8-2.4-5.7-4.1-8.3c-0.4-0.6-0.7-1.4-0.9-2.2c-0.2-0.6-0.4-1.2-0.7-1.7c-1.9-2.6-3.2-5.5-4.7-8.3c-1.9-3.4-0.8-3.5-4.1-1.1
		c-1,0.8-2.2,1.3-3.2,2c-1.6,1-2.9,2.5-4.3,3.8C484.2,374.1,483.4,377.4,482.9,380.3z"/>
	<path class="st9" d="M580.1,237.8c1,0,1.9,0.3,2.7,0.9C581.8,238.6,580.9,238.5,580.1,237.8z"/>
	<path class="st10" d="M578.2,237.4c-0.1-0.2,0-0.3,0.2-0.4c0.6,0.1,1.3,0.2,1.7,0.8C579.5,237.7,578.8,238,578.2,237.4z"/>
	<path class="st8" d="M229.1,560c-3.4-0.3-6.8-0.6-10.2-1c-9.4-1.3-18.6-3.3-27.7-6c-57.5-17-105.3-62.1-123.8-122.3
		c-3.3-10.7-5.6-21.5-6.9-32.6c-1.2-10.2-1.6-20.4-1.1-30.7c0.9-18.1,4.3-35.7,10.4-52.8c16.9-47.6,52.4-86,98.3-106.7
		c13-5.8,26.5-10,40.5-12.7c15.1-2.9,30.2-3.9,45.5-3.1c17,0.9,33.5,4.2,49.6,9.8c38.1,13.4,68.7,36.8,91.9,69.9
		c0.5,0.6,1,1.2,1.2,2.1c-0.4,0.2-0.8,0.5-1.2,0.8c-3.6,2.8-7.2,5.6-10.8,8.3c-0.7,0.6-1.5,1.1-2.3,1.6c-0.4-0.6-0.8-1.2-1.2-1.8
		c-21-30.4-48.8-51.7-83.7-64c-14-4.9-28.5-7.8-43.3-8.7c-13.1-0.8-26.2-0.1-39.2,2.2c-13.2,2.3-25.9,6.1-38.2,11.4
		c-39,17-70,48.4-86.6,87.6c-7.1,16.7-11.3,34-12.7,52c-0.8,10.7-0.6,21.4,0.7,32.1c1.1,9.3,2.9,18.5,5.6,27.5
		c12.3,40.7,36.5,72.3,72.5,94.8c16.6,10.4,34.5,17.4,53.7,21.3c6.5,1.3,13.1,2.3,19.8,2.8c0.5,0,1.1,0,1.6,0.4
		c-0.8,3-1,6.1-1.4,9.1C229.8,554.4,229.4,557.2,229.1,560z"/>
	<path class="st8" d="M418.5,434.3c-0.7,2.9-1.8,5.7-2.9,8.5c-16.9,43.4-50,80.7-96,101.5c-12.5,5.7-25.6,9.8-39.1,12.6
		c-9.3,1.9-18.8,3-28.3,3.6c-1.1,0.1-2.2,0.1-3.3,0.1c-0.2-0.6,0.1-1.1,0.3-1.6c1.4-3.9,2.8-7.9,4.1-11.8c0.5-1.6,1.1-3.1,1.7-4.6
		c0.5-0.3,1-0.4,1.6-0.4c7.6-0.5,15.1-1.7,22.6-3.3c20.5-4.5,39.6-12.5,57-24.2c29.3-19.8,50.2-46.3,63-79.3
		c0.3-0.9,0.5-1.8,1.2-2.6C406.4,432.9,412.4,433.3,418.5,434.3z"/>
	<path class="st0" d="M418.5,434.3c-6-1-12.1-1.4-18.2-1.7c0.1-0.5,0.2-0.9,0.3-1.4c0.9-2.9,1.9-5.9,2.8-8.8
		c3.7-12.5,5.7-25.4,6.4-38.4c0.3-6.1,0.2-12.2-0.2-18.3c-0.5-7.4-1.5-14.7-2.9-21.9c-3.8-18.9-10.6-36.7-20.5-53.2
		c-1.2-2-2.4-3.9-3.6-5.9c0.8-0.5,1.5-1.1,2.3-1.6c3.6-2.8,7.2-5.6,10.8-8.3c0.4-0.3,0.8-0.5,1.2-0.8c1.7,2.2,3.1,4.6,4.6,7
		c10.7,17.6,18.1,36.5,22.4,56.6c1.6,7.3,2.7,14.7,3.4,22.1c0.7,7.3,1,14.6,0.7,21.9c-0.3,8.7-1.1,17.4-2.6,26
		c-1.4,8.2-3.4,16.3-5.9,24.3C419.2,432.7,419,433.6,418.5,434.3z"/>
	<path class="st0" d="M254.9,542.5c-0.6,1.5-1.1,3.1-1.7,4.6c-1.4,3.9-2.8,7.9-4.1,11.8c-0.2,0.5-0.4,1-0.3,1.6
		c-0.8,0.1-1.6,0.2-2.3,0.1c-4.6,0-9.1-0.1-13.7-0.2c-1.2,0-2.5-0.3-3.7-0.4c0.4-2.8,0.7-5.7,1.1-8.5c0.4-3.1,0.7-6.1,1.4-9.1
		c0.9,0,1.7,0,2.6,0c5.2,0.2,10.3,0.5,15.5,0.1C251.4,542.4,253.2,542.5,254.9,542.5z"/>
	<path class="st10" d="M744.1,476.7c0,0.2,0.1,0.3,0.1,0.5c0,0.3,0,0.5,0.3,0.7c0.4,2.3,0.9,4.5,1.3,6.8c0.1,0.8,0.2,1.6,0.2,2.4
		c-0.1,3.3,0.2,6.7,0.1,10c-0.1,1.8-0.2,3.6-0.5,5.4c-0.3,2.4-0.7,4.9-1,7.3c-0.1,0.8-0.4,1.5-0.7,2.2c-1.1,2.4-2.1,5-3.7,7.2
		c-0.2,0.3-0.5,0.7-0.5,1c0,1.5-1,2.4-1.7,3.5c-1.8,2.9-4,5.5-5.9,8.3c-0.7,1-1.4,1.9-2.2,2.8c-2.8,3.3-5.8,6.3-8.9,9.3
		c-1.3,1.3-2.6,2.6-4.1,3.6c-0.8,0.5-1.5,1.2-2.2,1.9c-2.2,2.4-5,3.9-8.1,4.7c-0.9,0.2-1.8,0.4-2.7,0.9c-2.1,1.2-4.5,1.7-6.8,2
		c-3.8,0.5-7.5,1.2-11.4,1.1c-3.2-0.1-6.4,0.1-9.5-0.3c-3.5-0.4-7-0.5-10.3-1.8c-3.1-1.2-6.4-1.7-9.3-3.6c-0.9-0.6-2-0.9-3-1.4
		c-2.2-0.9-4-2.5-6-3.8c-2.7-1.9-5.1-4-7.5-6.2c-2.1-2.1-4-4.3-5.8-6.6c-0.7-0.9-1.3-2-1.9-3c0.2-0.2,0.4-0.5,0.6-0.7
		c1.8,1.6,3.6,3.4,5.6,4.7c0.9,0.6,1.9,1.2,2.8,1.8c1.9,1.4,3.8,2.8,6.1,3.6c0.7,0.2,1.3,0.6,1.9,0.9c1.5,0.7,2.9,1.6,4.5,2.1
		c2.9,0.9,5.6,2.2,8.6,2.7c2.3,0.4,4.5,0.9,6.8,1c2,0.2,3.9,0.3,5.9,0.3c2.4,0.1,4.7,0.2,7.1,0.1c2.5-0.1,4.9-0.6,7.3-1
		c1.6-0.3,3.3-0.7,4.8-1.2c1.6-0.6,3.1-1.1,4.7-1.5c0.9-0.2,1.7-0.5,2.4-0.9c2.7-1.7,5.7-2.8,8.5-4.3c3.2-1.7,6.1-3.7,8.9-5.9
		c2.5-2,5.2-3.9,7.3-6.4c0.3-0.4,0.8-0.6,1.1-0.9c0.5-0.4,1-0.8,1.4-1.3c2.6-3.1,5.1-6.2,6.8-9.9c2.1-4.6,3.6-9.3,4.6-14.2
		c0.6-2.9,1.1-5.7,1.7-8.6c0.6-2.9,0.9-5.8,1-8.7c0.1-2.5,0.1-4.9,0.1-7.4c0-0.4,0.1-0.8,0.5-1c0,0.5,0,0.9,0.3,1.3
		C743.8,476.4,743.9,476.6,744.1,476.7z"/>
	<path class="st8" d="M642.5,263.4c-1.8-1.2-3.5-2.3-5.2-3.5c-1.1-0.8-2.2-1.5-3.5-2c-1.1-0.4-1.1-0.5-1.1-1.5
		c0.3-4.9,0.7-9.8,1-14.7c0.2-3.1,0.5-6.2,0.7-9.3c0.5-8.2,1.2-16.5,2.1-24.7c0.5-5.1,1.2-10.3,2.3-15.3c0.7-3.1,0.2-2.6,3.2-2.3
		c2.4,0.2,4.9,0.6,7.3,0.9c0.9,0.1,1.7,0.3,2.5,0.6c0.7,0.2,1.2,0.6,1.4,1.4c0.5,2.2,0.7,4.4,0.7,6.6c0,4.3-0.4,8.6-1.1,12.8
		c-1.9,13-4.8,25.9-7.6,38.8c-0.7,3.3-1.5,6.7-2.2,10C642.9,262,642.7,262.7,642.5,263.4z"/>
	<path class="st4" d="M743.6,474.9c-0.4,0.2-0.5,0.6-0.5,1c0,2.5,0,4.9-0.1,7.4c-0.1,2.9-0.4,5.8-1,8.7c-0.6,2.9-1.1,5.7-1.7,8.6
		c-1,4.9-2.5,9.6-4.6,14.2c-1.7,3.7-4.2,6.8-6.8,9.9c-0.4,0.5-0.9,0.9-1.4,1.3c-0.4,0.3-0.8,0.5-1.1,0.9c-2.1,2.5-4.8,4.4-7.3,6.4
		c-2.8,2.2-5.7,4.3-8.9,5.9c-2.8,1.5-5.8,2.6-8.5,4.3c-0.7,0.4-1.6,0.7-2.4,0.9c-1.6,0.4-3.2,0.9-4.7,1.5c-1.5,0.6-3.2,1-4.8,1.2
		c-2.4,0.4-4.8,0.9-7.3,1c-2.4,0.1-4.8,0-7.1-0.1c-2-0.1-4-0.2-5.9-0.3c-2.3-0.2-4.5-0.7-6.8-1c-3-0.5-5.7-1.8-8.6-2.7
		c-1.6-0.5-3-1.4-4.5-2.1c-0.6-0.3-1.2-0.7-1.9-0.9c-2.3-0.8-4.2-2.2-6.1-3.6c-0.9-0.6-1.9-1.2-2.8-1.8c-2.1-1.3-3.8-3.1-5.6-4.7
		c-0.1-0.2-0.2-0.4-0.4-0.6c-1.2-1.6-2.7-3-3.5-5c0.4-0.7,0.9-0.8,1.6-0.5c0.3,0.1,0.5,0.4,0.7,0.6c3,3.3,6.6,5.9,10.5,8.1
		c0.2,0.1,0.4,0.2,0.6,0.3c2.3,1.8,4.9,3.1,7.6,4.3c2.2,1,4.3,2.3,6.8,2.8c0.8,0.2,1.5,0.6,2.2,0.9c1,0.4,2.1,0.8,3.2,0.9
		c0.9,0.1,1.9,0.3,2.8,0.5c2.8,0.7,5.6,0.8,8.5,0.9c1.9,0.1,3.8,0.3,5.7,0.4c2.3,0.1,4.6-0.2,6.9-0.6c4.5-0.7,8.7-2.2,13-3.5
		c0.4-0.1,0.7-0.3,1.1-0.5c1.1-0.5,2.3-1.1,3.4-1.7c2.9-1.5,6-2.9,8.7-4.7c2.6-1.7,4.9-3.8,7.3-5.7c2-1.6,3.9-3.2,5.8-4.8
		c1.9-1.7,3.4-3.7,5-5.7c1.2-1.6,1.9-3.5,2.7-5.3c1.5-3.1,2.6-6.2,3.3-9.6c0.7-3.6,1.5-7.1,2.2-10.7c0.3-1.4,0.8-2.8,0.6-4.2
		c0.9-3.7,0.3-7.6,0.9-11.3c0.2-1.2,0-2.4,0-3.6c0-1.2,0-2.4,1-3.3C742.5,471.1,743.4,472.8,743.6,474.9z"/>
	<path class="st9" d="M629.2,525.3c0.7,2,2.2,3.4,3.5,5c0.1,0.2,0.3,0.4,0.4,0.6c-0.2,0.2-0.4,0.5-0.6,0.7c-1.1-1-1.7-2.2-2.5-3.4
		c-0.8-1.2-1.4-2.6-2.1-3.9C628.3,524.7,628.7,525,629.2,525.3z"/>
	<path class="st4" d="M740.8,468c-0.3-0.2-0.5-0.5-0.4-0.9C740.7,467.3,740.8,467.7,740.8,468z"/>
	<path class="st4" d="M744.1,476.7c-0.2-0.1-0.3-0.2-0.2-0.5C744,476.4,744,476.5,744.1,476.7z"/>
	<path class="st4" d="M744.5,477.9c-0.3-0.2-0.3-0.4-0.3-0.7C744.5,477.3,744.5,477.6,744.5,477.9z"/>
	<path class="st4" d="M740.2,466.8c-0.2-0.1-0.3-0.3-0.3-0.6C740.1,466.4,740.2,466.6,740.2,466.8z"/>
	<path class="st4" d="M739.8,465.7c-0.2-0.1-0.4-0.2-0.3-0.4C739.6,465.4,739.7,465.5,739.8,465.7z"/>
	<path class="st10" d="M654.5,429.9c0-0.3,0.1-0.7,0.4-0.8c0.8-0.4,1.6-0.7,2.4-1c3-1,6-1.8,9.1-2.5c4.8-1,9.7-1.1,14.7-0.9
		c2.5,0.1,5,0.6,7.5,1.1c2.9,0.5,5.7,1.3,8.5,2.3c3.7,1.3,7.2,2.9,10.5,5c1.8,1.2,3.7,2.2,5.3,3.6c3.1,2.5,6.2,5.2,8.7,8.4
		c1.7,2.1,3.4,4.1,4.9,6.4c2.3,3.6,4.3,7.4,5.7,11.5c0.4,1.2,0.8,2.4,1.2,3.6c1,3,1.4,6.1,1.9,9.3c0.5,3.1,0.4,6.2,0.4,9.2
		c0,3.7-0.6,7.4-1.4,11c-1.1,4.9-2.8,9.6-5.1,14c-2,3.7-4.2,7.2-7,10.4c-1.3,1.4-2.5,2.8-3.8,4.2c-1.6,1.7-3.5,2.9-5.2,4.5
		c-2.5,2.2-5.5,3.8-8.3,5.5c-2,1.2-4.1,2.1-6.3,2.9c-3,1.1-6.1,2.2-9.3,2.8c-1.8,0.3-3.6,0.5-5.4,0.8c-3.2,0.6-6.3,0.2-9.5,0.4
		c-1.7,0.1-3.5-0.4-5.2-0.6c-3.7-0.5-7.3-1.3-10.8-2.6c-5.9-2.1-11.4-5-16.5-8.9c-1.5-1.1-2.7-2.4-4.1-3.6c-1.9-1.6-3.4-3.6-5.1-5.2
		c-0.8-0.7-1.6-1.5-1.5-2.8c1.4,1,2.5,2.4,4.1,3.3c1.1,0.6,2.3,0.8,3.7,0.6c-1.1-2.3-2.5-4-4-5.8c-0.6-0.7-1.3-1.4-1.8-2.2
		c-1.8-2.6-3-5.4-4.1-8.3c-1.3-3.1-2.3-6.2-3-9.5c-0.3-1.6-0.7-3.2-1-4.9c-0.3-1.9-0.6-3.8-0.6-5.7c0-1.5,0.1-3,0-4.5
		c-0.1-1.6,0.2-3.2,0.2-4.7c0-1.4,0.3-2.7,0.4-4c0.2-2.1,1-4,1.7-5.9c0.9-2.4,1.4-4.9,2.9-7c0.4-0.6,0.7-1.3,0.9-1.9
		c0.5-1.3,1.2-2.4,2.1-3.4c1.2-1.5,2.4-3,3.4-4.6c0.9-1.4,2-2.5,3.1-3.5c0.9-0.8,1.8-1.6,2.7-2.3c1.6-1.4,3.3-2.7,5-4.1
		c0.2-0.2,0.5-0.3,0.8-0.5c1.5-0.9,2.9-1.8,4.4-2.8c2.4-1.8,5.2-3,8.1-3.9c4-1.2,8.2-1.7,12.3-2.4c1.3-0.2,2.5-0.4,3.7-0.9
		c0.1-0.1,0.2-0.2,0.3-0.3c0.1-0.3-0.1-0.4-0.3-0.5c-1.7-0.7-3.6-0.7-5.4-0.7c-1.5,0-3,0.2-4.5,0.3c-3.1,0.1-6.1,0.5-9.1,1.7
		C656.2,429.6,655.3,429.7,654.5,429.9z M649.3,494.8c-0.5,0.2-0.6,0.5-0.5,1l0,0c-0.6,0.2-1,0.5-0.7,1.3l-0.1,0.2
		c-1.2,0.3-1.4,1.3-1.6,2.3c-0.1,0.3,0,0.7,0.2,0.9c0.6,0.7,1.1,1.5,2.2,1.5c1,0.7,1.9,1.4,2.9,2c2.9,1.4,6,2,9.2,1.9
		c2.4,0,4.3-0.8,6-2.3c2.1-1.9,4-3.9,5.1-6.4c0.3-0.6,0.7-1.2,1.1-1.8c0.2,0.2,0.4,0.5,0.2,0.8c-1,2.9-0.9,5.8-0.8,8.8
		c0,1.2,0.2,2.3,1,3.3c0.2,0.4,0.4,0.8,0.6,1.2c-0.1,0.4,0,0.8,0.2,1.1c1,2,2.1,3.9,4,5.2c0.8,1.9,2.3,3,4,3.8c2,1,4.2,1.9,6.2,2.9
		c4.1,1.9,8.5,2.5,12.8,3.3c1.2,0.2,2.4,0.1,3.5-0.3c0.9-0.3,2-0.7,2-2c1-1,2.1-1.7,3.4-2.1c0.3-0.1,0.7-0.1,0.9-0.2
		c2.4-1.6,4.3-3.7,5.9-6.1c1.1-1.7,1.9-3.4,2.8-5.2c0.6-1.2,1.1-2.5,1.3-3.8c0.1-0.5,0.2-1.1,0.4-1.6c0.8-2.4,1.4-4.9,1.9-7.3
		c0.5-2.4,1-4.8,1.3-7.2c0.3-2.4,0.2-4.7-0.2-7.1c-0.3-1.8-1.2-3.1-2.9-3.7c-1.4-1.8-2.9-3.5-5.1-4.3c0.1-0.9-0.2-1.5-1-2
		c-0.9-0.5-1.8-1-2.7-1.4c-3.7-1.5-7.6-2.7-11.5-3.4c-1.2-0.2-2.3-0.5-3.5-0.3c-0.4-0.1-0.8,0-0.9,0.5l0,0c-0.6-0.1-1.2,0-1.9,0.2
		c-3.6,1.2-6.6,3.4-9,6.2c-3,3.5-5.8,7.3-7.9,11.4c-0.2,0.4-0.5,0.8-0.7,1.2c-0.2,0.3-0.5,0.3-0.9,0.2c0.2-0.5,0.3-1.1,0.5-1.6
		c1.8-3.9,3.2-7.9,4.4-12c1-3.7,2.2-7.4,3.2-11.1c0.3-1.1,0.4-2.2,0.7-3.3c0.1-0.7,0-1.2-0.3-1.8c-0.5-1.2-1.4-1.9-2.6-2.3
		c-2.6-1-5.2-2.2-7.9-3.3c-0.7-0.3-1.4-0.4-2-0.6c-1.5-0.5-2.8,0-3.9,1.2c-1.2,1.3-2.1,2.7-2.8,4.4c-0.3,0.7-0.6,1.5-0.8,2.2
		c-0.2,0.7,0.1,1.3,0.9,1.4c-0.4,1.3-0.9,2.5-1.5,3.7c0,0-0.1,0-0.4,0c0-0.8-0.1-1.5-0.1-2.3c0.2-3.6-0.3-7.2-0.5-10.9
		c0-0.7-0.2-1.2-0.6-1.8c0-0.2,0-0.4,0-0.6c0.2-0.6,0.2-1.2-0.4-1.6c-0.5-1.5-1.3-2.9-2.7-3.8c-1.8-1.1-3.5-2.1-5.6-2.5
		c-2.7-0.5-5.2-0.2-7.7,0.8c-1.5,0.6-2.3,1.8-2.3,3.3c0,1.7,0,3.5,0.3,5.2c0.5,3.3,1.6,6.4,2.5,9.7c0.5,2,1.2,3.9,1.7,5.9
		c0.3,1.1,0.1,1.4-0.9,1.8c-1.1,0.4-2.3,0.7-3.3,1.2c-1.5,0.8-3.1,1.3-4.6,1.9c-3.5,1.4-6.8,3.1-9.6,5.6c-1.1,0-1.9,0.7-1.9,1.7
		c-0.1,1.9-0.4,3.8,0.5,5.6c0,1.3,0,2.7,0.1,4c0.2,2.3,1.2,4.3,2.8,5.9c0.7,0.8,1.6,1.3,2.4,2c2.5,2.2,4.9,2.2,7.6,0.3
		c2.1-1.4,3.9-3.2,5.7-5c2.3-2.4,4.8-4.6,7.2-6.9c0.1,0.2,0.3,0.3,0.4,0.5c-0.8,2.7-2.4,4.9-3.8,7.1c-0.4,0.2-0.5,0.5-0.5,0.9l0,0
		c-0.6,0.3-1,0.8-0.9,1.5l0,0C649.3,494,649.2,494.3,649.3,494.8L649.3,494.8z"/>
	<path class="st4" d="M654.5,429.9c0.8-0.2,1.7-0.3,2.5-0.6c2.9-1.1,6-1.6,9.1-1.7c1.5-0.1,3-0.3,4.5-0.3c1.8,0,3.7,0,5.4,0.7
		c0.2,0.1,0.4,0.3,0.3,0.5c0,0.1-0.2,0.3-0.3,0.3c-1.2,0.5-2.4,0.7-3.7,0.9c-4.1,0.7-8.3,1.2-12.3,2.4c-2.9,0.9-5.7,2.1-8.1,3.9
		c-1.4,1-2.9,1.9-4.4,2.8c-0.3,0.2-0.6,0.3-0.8,0.5c-1.7,1.3-3.3,2.7-5,4.1c-0.9,0.8-1.8,1.5-2.7,2.3c-1.1,1.1-2.3,2.2-3.1,3.5
		c-1,1.6-2.2,3.1-3.4,4.6c-0.9,1.1-1.6,2.2-2.1,3.4c-0.3,0.7-0.5,1.3-0.9,1.9c-1.5,2.1-2.1,4.6-2.9,7c-0.7,1.9-1.5,3.8-1.7,5.9
		c-0.1,1.3-0.3,2.7-0.4,4c-0.1,1.6-0.3,3.2-0.2,4.7c0.1,1.5,0,3,0,4.5c0,1.9,0.3,3.8,0.6,5.7c0.2,1.6,0.6,3.3,1,4.9
		c0.7,3.3,1.7,6.5,3,9.5c1.2,2.8,2.3,5.7,4.1,8.3c0.5,0.8,1.2,1.5,1.8,2.2c1.5,1.7,2.9,3.5,4,5.8c-1.4,0.2-2.6,0-3.7-0.6
		c-1.6-0.8-2.7-2.2-4.1-3.3c0,0-0.1-0.1-0.1-0.1c-0.1-0.3-0.3-0.6-0.7-0.7c0-0.2-0.2-0.4-0.4-0.5c-0.1-0.4-0.2-0.7-0.6-0.9
		c-0.1-0.2-0.2-0.4-0.3-0.5c-0.1-0.4-0.2-0.8-0.6-1c0-0.2,0-0.3-0.2-0.3c-1-2-1.5-4.1-2.8-6c-0.2-0.3-0.3-0.6-0.4-0.9
		c-0.6-2-1.2-3.9-1.9-5.9c-0.9-2.6-1.3-5.4-2-8.1c-0.6-2.6-0.8-5.3-0.9-8c-0.1-2.9,0.3-5.9,0.3-8.8c0.1-4.4,1.3-8.6,2.7-12.7
		c0.5-1.3,1-2.7,1.6-4c0.9-2,2-4,3-5.9c0.3-0.6,0.8-1.2,1.2-1.8c1.7-2.4,3.4-4.8,5.1-7.1c0.4-0.2,0.7-0.4,0.8-0.8
		c0.1-0.1,0.3-0.1,0.4-0.2c2.1-1.8,4-3.8,6.3-5.3c0.3-0.2,0.6-0.5,0.8-0.8c1.2-1.3,2.7-2.2,4.3-3c0.5-0.2,1-0.5,1.4-0.8
		c0.8-0.8,1.7-1.4,2.7-1.8c0.5-0.2,1-0.5,1.3-1c0.2,0,0.3,0,0.3-0.2c0.3,0,0.5-0.1,0.6-0.3C653.6,430.4,654.1,430.4,654.5,429.9z"/>
	<path class="st10" d="M634.2,444.8c-1.7,2.4-3.4,4.8-5.1,7.1c-0.4,0.6-0.9,1.1-1.2,1.8c-1,2-2.1,3.9-3,5.9c-0.6,1.3-1.1,2.6-1.6,4
		c-1.5,4.1-2.7,8.3-2.7,12.7c0,2.9-0.4,5.9-0.3,8.8c0.1,2.7,0.3,5.4,0.9,8c0.6,2.7,1.1,5.4,2,8.1c0.7,1.9,1.3,3.9,1.9,5.9
		c0.1,0.3,0.2,0.6,0.4,0.9c1.3,1.8,1.8,4,2.8,6c-0.4,0-0.7-0.3-0.9-0.6c-1.4-2-2.5-4.3-3.4-6.5c-1.4-3.2-2.6-6.5-3.3-9.9
		c-0.6-2.8-1-5.6-1.3-8.4c-0.2-2.3-0.4-4.6-0.4-6.9c0-0.9-0.1-1.9,0.3-2.8c0.1-0.4,0.1-0.8,0.1-1.2c0.1-3.4,0.8-6.7,1.7-10
		c1.2-4.4,2.9-8.6,5-12.5c1.5-2.6,3.1-5.2,5-7.5c0.5-0.7,1.1-1.4,1.6-2.1C633,444.9,633.5,444.6,634.2,444.8z"/>
	<path class="st10" d="M652.2,430.9c-0.3,0.5-0.7,0.8-1.3,1c-1,0.4-1.9,1-2.7,1.8c-0.4,0.4-0.9,0.6-1.4,0.8c-1.6,0.8-3,1.7-4.3,3
		c-0.3,0.3-0.5,0.6-0.8,0.8c-2.3,1.5-4.2,3.6-6.3,5.3c-0.1,0.1-0.3,0.1-0.4,0.2c-0.2-1,0.1-1.7,0.9-2.3c3.1-2.4,5.8-5.4,9.2-7.4
		c1.7-1,3.4-2,5.1-3C650.8,431,651.5,430.8,652.2,430.9z"/>
	<path class="st10" d="M628.3,514.2c0.4,0.2,0.6,0.6,0.6,1C628.3,515.1,628.3,514.7,628.3,514.2z"/>
	<path class="st10" d="M629.2,515.7c0.4,0.2,0.5,0.5,0.6,0.9C629.3,516.5,629.2,516.2,629.2,515.7z"/>
	<path class="st10" d="M630.2,517.1c0.4,0.1,0.6,0.4,0.7,0.7C630.2,518,630.2,517.5,630.2,517.1z"/>
	<path class="st10" d="M653.1,430.4c-0.1,0.3-0.3,0.4-0.6,0.3C652.7,430.5,652.8,430.4,653.1,430.4z"/>
	<path class="st11" d="M482.9,380.3c0.5-2.9,1.3-6.2,4-8.8c1.4-1.3,2.7-2.7,4.3-3.8c1.1-0.7,2.2-1.2,3.2-2c3.3-2.4,2.2-2.4,4.1,1.1
		c1.5,2.8,2.8,5.7,4.7,8.3c0.4,0.5,0.6,1.1,0.7,1.7c0.2,0.8,0.5,1.5,0.9,2.2c1.7,2.6,2.8,5.5,4.1,8.3c0.2,0.4,0.3,0.7,0.5,1.1
		c1.2,2.1,0.4,2-1,2.2c-2.6,0.4-5.2,0.8-7.7,1.2c-0.4,0.1-0.8,0-1.2,0.1c-2.1,0.6-4.1,0.2-6.1-0.2c-1.5-0.3-2.9-0.6-4.4-1.1
		c-2.7-1-4.3-2.9-5.3-5.4C483.3,383.8,482.8,382.4,482.9,380.3z"/>
	<path class="st1" d="M254.9,542.5c-1.7,0-3.5,0-5.2,0.1c-5.2,0.4-10.3,0.1-15.5-0.1c-0.9,0-1.7,0-2.6,0c-0.4-0.5-1-0.4-1.6-0.4
		c-6.7-0.5-13.2-1.5-19.8-2.8c-19.2-3.9-37.1-10.9-53.7-21.3c-36-22.5-60.3-54.1-72.5-94.8c-2.7-9-4.5-18.2-5.6-27.5
		c-1.3-10.7-1.5-21.4-0.7-32.1c1.4-18,5.6-35.4,12.7-52c16.6-39.2,47.6-70.6,86.6-87.6c12.3-5.4,25-9.1,38.2-11.4
		c13-2.3,26-3,39.2-2.2c14.8,0.9,29.3,3.8,43.3,8.7c34.8,12.2,62.7,33.6,83.7,64c0.4,0.6,0.8,1.2,1.2,1.8c1.2,2,2.4,3.9,3.6,5.9
		c9.9,16.5,16.8,34.3,20.5,53.2c1.4,7.2,2.4,14.5,2.9,21.9c0.4,6.1,0.5,12.2,0.2,18.3c-0.6,13-2.7,25.9-6.4,38.4
		c-0.9,3-1.9,5.9-2.8,8.8c-0.1,0.4-0.2,0.9-0.3,1.4c-0.7,0.7-0.8,1.7-1.2,2.6c-12.8,33-33.7,59.5-63,79.3
		c-17.4,11.8-36.5,19.8-57,24.2c-7.5,1.6-15,2.8-22.6,3.3C255.9,542.1,255.4,542.1,254.9,542.5z M261.8,528c1.8-0.3,3.6-0.5,5.4-0.8
		c11.7-1.8,23.1-4.9,34.1-9.4c35.6-14.8,62-39.6,79.4-74c1.8-3.5,3.5-7.1,4.8-10.9c0.5-0.7,0.8-1.6,1.1-2.4c1.3-3.5,2.5-7,3.6-10.6
		c4.1-13.6,6.1-27.5,6.4-41.7c0.1-3.4-0.1-6.8-0.3-10.2c-0.4-6.7-1.2-13.4-2.5-20.1c-3.3-17.8-9.6-34.5-18.9-50
		c-0.8-1.4-1.6-2.9-2.7-4.2c-0.2-1-0.9-1.7-1.4-2.5c-17.4-25.8-40.5-44.6-69.3-56.6c-15.6-6.5-31.9-10.2-48.7-11.2
		c-11-0.7-22.1-0.1-33,1.6c-12.2,2-24,5.3-35.4,10c-55.2,23.1-91.5,76.8-93.5,135.2c-0.5,14.8,1,29.4,4.7,43.7
		c8.7,33.4,26.5,60.9,53.7,82.3c24.4,19.2,52.3,29.9,83.3,32.3c0.4,0.3,0.9,0.3,1.4,0.3c4.7,0.2,9.3,0.2,14,0.1
		C252.5,529.1,257.2,528.8,261.8,528z"/>
	<path class="st9" d="M710.3,521.3c-1.3,0.4-2.5,1.1-3.4,2.1c-1-0.5-2-0.9-3.1-1c-1.3,0-2.5-0.3-3.7-0.6c-2.5-0.6-5.2-0.8-7.6-1.8
		c-2.4-1-4.8-2.1-7.2-3c-1.8-0.7-3.7-1.4-5.2-2.7c-0.8-0.6-1.4-0.4-1.7,0.7c-0.1,0.2,0,0.5-0.1,0.7c-1.9-1.3-3-3.2-4-5.2
		c-0.2-0.4-0.3-0.7-0.2-1.1c0.6,0.2,1.3,0.7,2,0.2c0.6-0.5,0.8-1.1,0.8-1.9c0-0.5,0-1,0-1.4c-0.3-5.1,1.2-9.8,3.4-14.2
		c2.3-4.4,4.9-8.7,8.5-12.3c0.4-0.4,0.7-0.9,1-1.3c0.3-0.4,0.4-0.9,0.4-1.3c0-0.7-0.6-1.2-1.2-1.1c-0.6,0.1-1.2,0.3-1.7,0.7
		c-1.2,1-2.4,2-3.3,3.3c-0.8,1.1-1.6,2.2-2.3,3.3c-2.2,3.4-4.4,6.8-5.8,10.6c-1.3,3.5-2.2,7.1-2.2,10.9c0,1.1,0.4,2.2,0.1,3.3
		c-0.8-0.9-1-2.1-1-3.3c0-3-0.2-5.9,0.8-8.8c0.1-0.3,0-0.6-0.2-0.8c0.9-2.2,1.8-4.4,2.7-6.6c0.1-0.2,0.3-0.4,0.4-0.6
		c0.6,0.3,0.6,0.3,0.6-0.5c-0.1,0-0.2,0-0.2-0.2c0.3,0.1,0.7,0.1,0.9-0.2c0.3-0.4,0.5-0.8,0.7-1.2c2.1-4.2,4.9-7.9,7.9-11.4
		c2.4-2.8,5.4-5,9-6.2c0.6-0.2,1.2-0.3,1.9-0.2c-0.2,0.8,0.3,1.4,1,1.7c0.9,0.3,1.8,0.5,2.7,0.7c4.5,0.8,8.9,2.1,12.9,4.4
		c1,0.6,2.1,0.7,3.1-0.1c2.2,0.9,3.7,2.6,5.1,4.3c-0.5,0.2-0.8,0.6-0.7,1.1c0,0.5,0.1,0.9,0.3,1.4c0.9,2.6,1,5.2,0.6,7.9
		c-0.3,2.1-0.4,4.2-1.1,6.3c-0.1,0.2,0,0.5-0.1,0.7c-0.2,1.2-0.4,2.3-0.7,3.5c-0.5,1.8-1.1,3.5-1.5,5.2c-0.3,1.3-0.8,2.6-1.3,3.8
		c-0.2,0.4-0.4,0.8-0.6,1.3c-1.2,2.6-2.5,5.1-4.5,7.2c-0.6,0.7-1.2,1.4-1.8,2.2C709.7,520.2,709.9,520.8,710.3,521.3z M703.6,483.3
		c-0.9,1.5-1.8,2.9-2.8,4.4c-3,4.9-5.7,10-8.2,15.2c-0.4,0.8-0.7,1.8-0.9,2.7c-0.1,0.5-0.1,1.1,0.4,1.5c0.5,0.5,1,0.8,1.7,0.9
		c0.6,0.1,1.3,0.2,1.8-0.4c2.1-0.5,3.6-1.6,4.5-3.5c0.4-0.8,0.9-1.6,1.4-2.5c2-3.6,3.4-7.5,4.8-11.3c0.8-2,1-4.2,1.1-6.3
		c0.1-3.1-2.9-4.7-5.5-3.4c-1.1,0.6-2.2,1.3-3,2.3c-1.2,1.6-2.4,3.1-3.3,4.9c-0.5,1.1-1,2.2-1.7,3.1c-0.9,1.2-1.4,2.5-1.9,3.8
		c-0.5,1.2-1,2.5-0.2,3.9c1-0.4,1.6-1,2.1-1.8c1.5-2.7,3.1-5.4,4.5-8.1c0.8-1.6,1.9-2.9,2.8-4.4c0.4-0.7,1-1.2,1.7-1.6
		C703.2,482.7,703.5,482.9,703.6,483.3z M691.2,473.3c0.8-0.6,1.5-0.8,2.1-1c0.4-0.1,0.7-0.3,1-0.5c0.4-0.3,0.5-0.9,0.2-1.3
		c-0.3-0.4-1.1-0.5-1.5-0.2c-0.2,0.2-0.4,0.5-0.5,0.8C692.2,471.7,691.8,472.4,691.2,473.3z"/>
	<path class="st9" d="M628.8,483.4c-0.9-1.8-0.6-3.7-0.5-5.6c0-1,0.8-1.6,1.9-1.7c-0.1,1.4,0.2,1.7,1.3,1.3c1.1-0.4,2.2-0.8,3.3-1.2
		c1.6-0.7,3.2-1.4,4.8-2c3-1.2,6-2.4,9-3.7c3.3-1.4,3.7-3.1,2.9-5.5c-0.6-1.9-1.1-3.8-1.7-5.7c-0.6-1.9-0.8-3.9-1.5-5.7
		c-0.6-1.5-0.8-3.1-1-4.6c-0.2-1.1-0.1-2.2-0.1-3.3c0-1.1,0.2-1.4,1.3-1.6c0.5-0.1,0.9-0.2,1.4-0.2c1.3-0.1,2.7,0,4-0.1
		c1.5-0.1,2.8,0.5,4,1.2c1.2,0.7,1.9,1.7,2.1,3c0.1,0.6,0.2,1.3,0.4,1.9c0.2,0.7,0.4,1.6,1.2,1.6c0.6,0,0.7-0.9,0.9-1.5
		c0.1-0.1,0.2-0.3,0.2-0.4c0.3,0.5,0.5,1.1,0.6,1.8c0.2,3.6,0.7,7.2,0.5,10.9c0,0.7,0,1.5,0.1,2.3c0.2,0,0.3,0,0.4,0
		c0.6-1.2,1.1-2.4,1.5-3.7c1.3-0.8,2.4-1.8,3-3.2c0.1-0.1,0.1-0.3,0.2-0.4c2.1-2.6,1.7-3.3,5.3-1.7c0.1,0.1,0.3,0.1,0.5,0.1
		c2.1,0.9,4.4,1.3,6.4,2.4c1,0.5,1.3,1,1.1,2.1c-0.5,2.1-1.1,4.1-1.6,6.2c-0.8,2.7-1.6,5.5-2.5,8.2c-0.5,1.7-1,3.5-1.7,5.2
		c-1.4,3.6-2.9,7.2-4.3,10.8c-0.7,1.8-1.5,3.6-2.4,5.4c-1.2,2.4-2.8,4.4-4.8,6.1c-0.8,0.7-1.6,1.2-2.7,1.3c-3.3,0.3-6.5-0.1-9.5-1.5
		c-0.7-0.3-1.5-0.6-2.2-0.9c-1.1-0.4-1.5,0-1.9,1.4c-1.1,0-1.6-0.8-2.2-1.5c-0.2-0.2-0.3-0.6-0.2-0.9c0.2-1,0.4-2,1.6-2.3
		c0,0.6-0.1,1.1-0.1,1.7c0,0.6,0.6,0.9,1.2,0.8c0.4-0.1,0.7-0.3,1-0.6c0.7-1,1.5-1.8,2.1-2.9c0.8-1.5,1.6-3.1,2.6-4.5
		c1.7-2.4,2.6-5.1,3.8-7.7c0.5-1.1,0.1-1.8-1-2.6c-0.6-0.4-1.1-0.4-1.8-0.1c-3,1.2-5.6,3-8,5c-2,1.6-3.9,3.3-5.9,4.9
		c-1.3,1.1-2.7,2-4.3,2.5c-0.5,0.2-0.9,0.2-1.4-0.1c-2.4-1.6-4.2-3.6-4.5-6.7c-0.1-1-0.4-1.9-0.7-2.8c-0.2-0.6-0.6-1.1-1.1-1.5
		c-0.2-0.2-0.5-0.1-0.6,0.1C629.2,482.9,629,483.2,628.8,483.4z"/>
	<path class="st4" d="M648.8,501.9c0.3-1.4,0.7-1.7,1.9-1.4c0.8,0.2,1.5,0.6,2.2,0.9c3,1.4,6.2,1.8,9.5,1.5c1.1-0.1,1.9-0.6,2.7-1.3
		c2-1.7,3.7-3.7,4.8-6.1c0.9-1.8,1.7-3.6,2.4-5.4c1.4-3.6,2.9-7.2,4.3-10.8c0.7-1.7,1.2-3.4,1.7-5.2c0.8-2.7,1.7-5.4,2.5-8.2
		c0.6-2,1.1-4.1,1.6-6.2c0.3-1.1-0.1-1.6-1.1-2.1c-2.1-1-4.3-1.4-6.4-2.4c-0.1-0.1-0.3-0.1-0.5-0.1c-3.7-1.6-3.3-0.9-5.3,1.7
		c-0.1,0.1-0.2,0.3-0.2,0.4c-0.6,1.5-1.7,2.5-3,3.2c-0.8-0.1-1.1-0.7-0.9-1.4c0.2-0.8,0.5-1.5,0.8-2.2c0.7-1.6,1.6-3.1,2.8-4.4
		c1-1.1,2.3-1.6,3.9-1.2c0.7,0.2,1.4,0.4,2,0.6c2.6,1.1,5.2,2.2,7.9,3.3c1.2,0.5,2,1.2,2.6,2.3c0.3,0.6,0.4,1.2,0.3,1.8
		c-0.2,1.1-0.4,2.2-0.7,3.3c-1,3.7-2.1,7.4-3.2,11.1c-1.2,4.1-2.6,8.1-4.4,12c-0.2,0.5-0.3,1-0.5,1.6c0,0.1,0.1,0.2,0.2,0.2
		c-0.5-0.2-0.5,0.2-0.6,0.5c-0.1,0.2-0.3,0.4-0.4,0.6c-0.9,2.2-1.8,4.4-2.7,6.6c-0.4,0.6-0.8,1.2-1.1,1.8c-1.2,2.6-3.1,4.6-5.1,6.4
		c-1.7,1.5-3.7,2.3-6,2.3c-3.2,0-6.3-0.5-9.2-1.9C650.7,503.3,649.8,502.6,648.8,501.9z"/>
	<path class="st4" d="M662.9,449.3c-0.1,0.1-0.2,0.3-0.2,0.4c-0.2,0.6-0.3,1.5-0.9,1.5c-0.8,0-1-0.9-1.2-1.6
		c-0.2-0.6-0.3-1.2-0.4-1.9c-0.2-1.3-1-2.3-2.1-3c-1.2-0.7-2.5-1.3-4-1.2c-1.3,0.1-2.7,0.1-4,0.1c-0.5,0-0.9,0.1-1.4,0.2
		c-1.1,0.3-1.3,0.6-1.3,1.6c0,1.1,0,2.2,0.1,3.3c0.2,1.6,0.4,3.2,1,4.6c0.7,1.9,0.9,3.8,1.5,5.7c0.6,1.9,1.1,3.8,1.7,5.7
		c0.8,2.5,0.4,4.2-2.9,5.5c-3,1.3-6,2.5-9,3.7c-1.6,0.7-3.2,1.4-4.8,2c-1.1,0.4-2.2,0.9-3.3,1.2c-1.1,0.4-1.4,0-1.3-1.3
		c2.8-2.5,6.1-4.2,9.6-5.6c1.5-0.6,3.1-1.2,4.6-1.9c1-0.5,2.2-0.8,3.3-1.2c1-0.4,1.2-0.7,0.9-1.8c-0.5-2-1.2-3.9-1.7-5.9
		c-0.8-3.2-1.9-6.4-2.5-9.7c-0.3-1.7-0.3-3.5-0.3-5.2c0-1.5,0.8-2.7,2.3-3.3c2.5-1,5-1.2,7.7-0.8c2.1,0.4,3.8,1.5,5.6,2.5
		c1.4,0.8,2.2,2.2,2.7,3.8c0,0.6,0,1.1,0.4,1.6C662.9,448.9,662.9,449.1,662.9,449.3z"/>
	<path class="st4" d="M628.8,483.4c0.2-0.2,0.4-0.5,0.6-0.7c0.2-0.2,0.5-0.2,0.6-0.1c0.5,0.4,0.9,0.9,1.1,1.5
		c0.3,0.9,0.6,1.8,0.7,2.8c0.3,3,2.1,5,4.5,6.7c0.4,0.3,0.9,0.3,1.4,0.1c1.6-0.5,3-1.5,4.3-2.5c2-1.6,3.9-3.3,5.9-4.9
		c2.5-2,5-3.9,8-5c0.6-0.2,1.1-0.3,1.8,0.1c1,0.7,1.5,1.5,1,2.6c-1.2,2.6-2.1,5.3-3.8,7.7c-1,1.4-1.8,3-2.6,4.5
		c-0.6,1.1-1.4,1.9-2.1,2.9c-0.2,0.3-0.6,0.5-1,0.6c-0.6,0.2-1.2-0.2-1.2-0.8c0-0.5,0.1-1.1,0.1-1.7c0,0,0.1-0.2,0.1-0.2
		c0.4-0.3,0.8-0.7,0.7-1.3c0,0,0,0,0,0c0.5-0.2,0.5-0.6,0.5-1c0,0,0,0,0,0c0.5-0.2,0.5-0.5,0.5-1l0,0c0.6-0.3,0.8-0.8,0.9-1.5
		c0,0,0,0,0,0c0.4-0.2,0.5-0.5,0.5-0.9c1.5-2.3,3.1-4.5,3.8-7.1c0.5-0.4,0.7-1,0.7-1.7c-0.5,0.4-0.9,0.6-1.2,1.1
		c-2.4,2.3-4.9,4.5-7.2,6.9c-1.8,1.8-3.6,3.6-5.7,5c-2.7,1.9-5.1,1.9-7.6-0.3c-0.8-0.7-1.7-1.2-2.4-2c-1.5-1.7-2.5-3.7-2.8-5.9
		C628.8,486.1,628.8,484.8,628.8,483.4z"/>
	<path class="st4" d="M673.6,508.1c0.3-1.1-0.1-2.2-0.1-3.3c0.1-3.8,1-7.3,2.2-10.9c1.4-3.8,3.6-7.2,5.8-10.6
		c0.7-1.1,1.6-2.2,2.3-3.3c0.9-1.3,2.1-2.4,3.3-3.3c0.5-0.4,1.1-0.6,1.7-0.7c0.7-0.1,1.2,0.4,1.2,1.1c0,0.5-0.1,0.9-0.4,1.3
		c-0.3,0.5-0.6,0.9-1,1.3c-3.6,3.6-6.2,7.8-8.5,12.3c-2.2,4.4-3.7,9.1-3.4,14.2c0,0.5,0,1,0,1.4c0,0.8-0.2,1.4-0.8,1.9
		c-0.7,0.6-1.3,0.1-2-0.2C673.9,509,673.8,508.5,673.6,508.1z"/>
	<path class="st4" d="M710.3,521.3c-0.4-0.6-0.6-1.1-0.1-1.7c0.6-0.7,1.2-1.5,1.8-2.2c1.9-2.1,3.3-4.6,4.5-7.2
		c0.2-0.4,0.4-0.8,0.6-1.3c0.5-1.2,1.1-2.4,1.3-3.8c0.3-1.8,1-3.5,1.5-5.2c0.3-1.1,0.5-2.3,0.7-3.5c0-0.2,0-0.5,0.1-0.7
		c0.8-2,0.8-4.2,1.1-6.3c0.4-2.7,0.3-5.3-0.6-7.9c-0.2-0.4-0.2-0.9-0.3-1.4c-0.1-0.5,0.2-0.9,0.7-1.1c1.8,0.6,2.6,1.9,2.9,3.7
		c0.4,2.4,0.5,4.7,0.2,7.1c-0.3,2.4-0.8,4.8-1.3,7.2c-0.5,2.5-1.1,4.9-1.9,7.3c-0.2,0.5-0.3,1.1-0.4,1.6c-0.2,1.3-0.7,2.6-1.3,3.8
		c-0.9,1.8-1.8,3.5-2.8,5.2c-1.5,2.5-3.5,4.5-5.9,6.1C710.9,521.3,710.6,521.3,710.3,521.3z"/>
	<path class="st4" d="M678.2,515.8c0-0.2,0-0.5,0.1-0.7c0.3-1.1,0.9-1.4,1.7-0.7c1.6,1.3,3.4,2,5.2,2.7c2.4,0.9,4.8,2,7.2,3
		c2.4,1,5.1,1.2,7.6,1.8c1.2,0.3,2.4,0.6,3.7,0.6c1.1,0,2.2,0.5,3.1,1c0,1.3-1,1.7-2,2c-1.1,0.4-2.3,0.5-3.5,0.3
		c-4.4-0.8-8.8-1.3-12.8-3.3c-2.1-1-4.2-1.9-6.2-2.9C680.6,518.7,679,517.6,678.2,515.8z"/>
	<path class="st4" d="M716.6,474.7c-1,0.8-2,0.7-3.1,0.1c-4-2.3-8.4-3.5-12.9-4.4c-0.9-0.2-1.8-0.4-2.7-0.7c-0.7-0.3-1.1-0.8-1-1.7
		c0,0,0,0,0,0c0.4,0,0.7-0.2,0.9-0.5c1.2-0.2,2.3,0.1,3.5,0.3c4,0.7,7.8,1.9,11.5,3.4c1,0.4,1.8,0.9,2.7,1.4
		C716.4,473.2,716.7,473.8,716.6,474.7z"/>
	<path class="st9" d="M654.5,483.7c0.2-0.5,0.7-0.8,1.2-1.1c-0.1,0.7-0.3,1.2-0.7,1.7C654.8,484.1,654.7,483.9,654.5,483.7z"/>
	<path class="st9" d="M650.6,492.4c0,0.6-0.3,1.1-0.9,1.5C649.7,493.1,650,492.7,650.6,492.4z"/>
	<path class="st9" d="M662.9,448.7c-0.4-0.5-0.4-1-0.4-1.6C663.2,447.5,663.1,448.1,662.9,448.7z"/>
	<path class="st9" d="M648.8,495.7c0.1,0.6-0.3,0.9-0.7,1.3C647.8,496.3,648.2,495.9,648.8,495.7z"/>
	<path class="st9" d="M697.9,467.6c-0.2,0.3-0.5,0.5-0.9,0.5C697.1,467.7,697.4,467.5,697.9,467.6z"/>
	<path class="st9" d="M651.1,491.4c0,0.4-0.1,0.7-0.5,0.9C650.6,491.9,650.7,491.6,651.1,491.4z"/>
	<path class="st9" d="M649.8,493.8c0,0.4,0,0.8-0.5,1C649.2,494.3,649.3,494,649.8,493.8z"/>
	<path class="st9" d="M649.3,494.8c0,0.4,0,0.8-0.5,1C648.7,495.3,648.8,494.9,649.3,494.8z"/>
	<path class="st12" d="M232.5,528.7c-31-2.4-58.9-13.1-83.3-32.3c-27.1-21.3-45-48.8-53.7-82.3c-3.7-14.3-5.2-28.9-4.7-43.7
		c2-58.5,38.3-112.1,93.5-135.2c11.4-4.8,23.2-8.1,35.4-10c11-1.8,22-2.3,33-1.6c16.8,1,33.1,4.7,48.7,11.2
		c28.8,11.9,51.8,30.8,69.3,56.6c0.5,0.8,1.2,1.5,1.4,2.5c-0.8,0.3-1.3,0.9-1.9,1.5c-6.5,5.7-12.7,11.7-18.8,17.8
		c-0.5-0.5-1-1.1-1.4-1.6c-3.7-4.3-7.9-8.1-12.4-11.4c-4.2-3.1-8.7-5.6-13.5-7.5c-3.7-1.5-7.6-2.1-11.7-1.5c-1.6,0.3-2.5,1-3.1,2.5
		c-1.4,3.5-2.8,7.1-3.9,10.7c-5.4,17-9.5,34.4-12.9,51.9c-0.3,1.6-0.4,3.2-1.2,4.9c-0.2-1.3-0.5-2.4-0.6-3.5
		c-0.8-5.1-1.5-10.2-2.2-15.3c-0.8-5.7-1.6-11.3-2.1-17c-0.4-3.8-0.8-7.6-1.2-11.4c-0.5-4.4-1.1-8.8-1.6-13.2
		c-0.1-0.8-0.4-1.4-1.1-1.7c-0.6-0.3-1.2-0.5-1.8-0.6c-1.6-0.4-3.3-0.4-5-0.2c-3.2,0.3-6.3,0.9-9.4,1.7c-7.8,2-15.3,4.8-22.1,9.1
		c-1.7,1.1-3.4,2.3-5,3.6c-2.3,1.9-2.3,1.9-1.8,4.8c1,6,2.1,12,3.1,18.1c1.7,9.9,3.7,19.7,5.6,29.5c1.8,9,3.9,18,5.9,27
		c3.4,15.3,7.2,30.6,11.7,45.6c0.2,0.6,0.3,1.2,0.4,1.9c-0.2,0.3-0.4,0.7-0.6,1c-2.1,4.7-4.3,9.4-6.3,14.1
		c-8.2,19.4-15,39.3-20,59.8c-1.1,4.4-2.1,8.8-3,13.2C234,528.6,233.4,528.7,232.5,528.7z M241.6,401.3c0.1-5.9-0.4-11.9-1.1-17.9
		c-0.9-7.5-2.2-14.9-3.7-22.3c-1.6-7.6-4.2-14.8-8-21.6c-5.5-9.6-13.4-16.4-23.7-20.3c-7.3-2.8-14.9-3.8-22.7-3.5
		c-9.3,0.4-18.3,2.1-27.1,5c-7.5,2.5-14.4,6.1-20.5,11.4c-6.4,5.5-11,12.3-13.6,20.3c-1.7,4.9-2.2,10.1-2.5,15.2
		c-0.2,4,0.2,7.9,0.6,11.9c0.6,4.6,1.6,9.1,2.6,13.6c2.2,9.9,4.8,19.7,8.6,29.2c2.7,6.6,5.7,13.1,9.7,19c3.7,5.6,8.4,10.1,14,13.7
		c2.5,1.6,5.1,2.8,8,3.5c6.8,1.7,13.7,1.7,20.6,1.1c4.7-0.4,9.3-1.1,13.8-2.2c4.5-1.1,9.1-2.2,13.5-3.8c4.9-1.7,9.6-3.8,13.9-6.6
		c2.4-1.6,4.7-3.3,6.5-5.6c3.2-4.2,5.9-8.7,7.5-13.7c1.2-3.5,2-7.2,2.5-10.9C241.4,411.8,241.7,406.6,241.6,401.3z"/>
	<path class="st0" d="M351.5,313.1c6.1-6.1,12.3-12.1,18.8-17.8c0.6-0.5,1.1-1.2,1.9-1.5c1.1,1.3,1.9,2.8,2.7,4.2
		c9.3,15.6,15.6,32.2,18.9,50c1.2,6.6,2.1,13.3,2.5,20.1c0.2,3.4,0.3,6.8,0.3,10.2c-0.2,14.2-2.3,28.1-6.4,41.7
		c-1.1,3.6-2.3,7.1-3.6,10.6c-0.3,0.8-0.5,1.7-1.1,2.4c-4.4,0.3-8.8,0.9-13.2,1.6c-10,1.7-19.7,4.6-29.1,8.5
		c-16,6.8-30,16.4-42.4,28.5c-16.4,15.9-28.9,34.5-38.6,55.1c-0.2,0.4-0.4,0.9-0.3,1.4c-4.6,0.8-9.2,1-13.9,1.1
		c-4.7,0.1-9.3,0-14-0.1c-0.5,0-1,0-1.4-0.3c0.8,0,1.4-0.2,1.7-1.2c0.9-4.4,1.9-8.8,3-13.2c5-20.5,11.8-40.4,20-59.8
		c2-4.7,4.2-9.4,6.3-14.1c0.2-0.4,0.4-0.7,0.6-1c0.6,1.4,1.8,1.8,3.2,2.1c3.1,0.5,6.2,0.1,9.3-0.2c6.5-0.8,12.9-2,19.2-3.7
		c3-0.8,6-1.6,8.7-3.1c3.5-1.8,3.3-2,2.7-5.4c-1-5.9-2.2-11.9-3.4-17.8c-0.8-4-1.9-7.9-2.8-11.8c-0.2-0.7-0.4-1.3-0.1-2.2
		c0.6,0.8,1.1,1.4,1.7,2.1c3.8,5,7.5,10,11.5,14.9c4.6,5.7,9.7,10.9,15.1,15.9c0.9,0.8,1.8,1.2,2.9,1.4c2.4,0.3,4.8,0,7.1-0.4
		c6.5-1.1,12.8-3.1,18.9-5.6c3.7-1.5,7.2-3.3,10.4-5.7c2.2-1.6,4.2-3.5,5.6-5.8c1.6-2.8,1.5-4.7-0.4-7.2c-3.1-4-6.6-7.7-10.4-11.1
		c-6.4-5.9-13.2-11.2-20.1-16.4c-5.5-4.1-11.1-8-17.3-11c-0.3-0.1-0.5-0.4-0.7-0.5c0.1-0.7,0.6-1,0.9-1.4c2.6-3,5-6.2,7.4-9.4
		c7.6-10.4,13.9-21.6,18.6-33.7c0.6-1.5,1-3,1.5-4.5c0.4-1.4,0.2-2.7-0.7-3.8C352.3,314.3,351.9,313.7,351.5,313.1z"/>
	<path class="st7" d="M261.8,528c-0.1-0.5,0.1-0.9,0.3-1.4c9.8-20.5,22.3-39.2,38.6-55.1c12.4-12.1,26.4-21.7,42.4-28.5
		c9.4-4,19.1-6.8,29.1-8.5c4.4-0.7,8.8-1.3,13.2-1.6c-1.3,3.8-3,7.4-4.8,10.9c-17.4,34.4-43.8,59.2-79.4,74
		c-11,4.6-22.3,7.6-34.1,9.4C265.4,527.5,263.6,527.8,261.8,528z"/>
	<path class="st4" d="M703.6,483.3c-0.1-0.4-0.3-0.6-0.7-0.4c-0.7,0.3-1.3,0.9-1.7,1.6c-0.9,1.5-2,2.9-2.8,4.4
		c-1.4,2.7-3,5.4-4.5,8.1c-0.5,0.9-1.1,1.5-2.1,1.8c-0.8-1.4-0.3-2.7,0.2-3.9c0.5-1.3,1.1-2.6,1.9-3.8c0.7-0.9,1.1-2.1,1.7-3.1
		c0.9-1.8,2.1-3.3,3.3-4.9c0.8-1,1.8-1.8,3-2.3c2.6-1.3,5.5,0.2,5.5,3.4c0,2.1-0.3,4.3-1.1,6.3c-1.5,3.8-2.9,7.7-4.8,11.3
		c-0.5,0.8-1,1.6-1.4,2.5c-1,1.9-2.5,3-4.6,3.5c-0.7,0-1.2-0.2-1.7-0.7c-0.6-0.5-0.6-1.6,0.1-2.1c0.2-0.2,0.5-0.3,0.8-0.5
		c0.8-0.4,1.3-1,1.8-1.8c2-3.4,3.4-7.1,5-10.7c0.9-2,1.6-4.1,2.1-6.3C703.6,484.9,703.9,484.1,703.6,483.3z"/>
	<path class="st10" d="M703.6,483.3c0.3,0.8,0,1.5-0.1,2.3c-0.5,2.2-1.2,4.2-2.1,6.3c-1.5,3.6-3,7.3-5,10.7
		c-0.4,0.8-0.9,1.4-1.8,1.8c-0.3,0.1-0.6,0.3-0.8,0.5c-0.6,0.5-0.7,1.6-0.1,2.1c0.5,0.4,1.1,0.6,1.7,0.7c-0.5,0.6-1.1,0.5-1.8,0.4
		c-0.6-0.1-1.2-0.4-1.7-0.9c-0.4-0.4-0.5-1-0.4-1.5c0.2-0.9,0.5-1.8,0.9-2.7c2.5-5.2,5.2-10.3,8.2-15.2
		C701.7,486.2,702.7,484.8,703.6,483.3z"/>
	<path class="st4" d="M691.2,473.3c0.6-0.9,1-1.5,1.4-2.2c0.2-0.3,0.3-0.5,0.5-0.8c0.4-0.4,1.2-0.3,1.5,0.2c0.2,0.4,0.1,1-0.2,1.3
		c-0.3,0.2-0.7,0.4-1,0.5C692.6,472.5,692,472.7,691.2,473.3z"/>
	<path class="st10" d="M676.2,488c0.1-0.3,0.1-0.6,0.6-0.5C676.8,488.3,676.8,488.3,676.2,488z"/>
	<path class="st6" d="M241.6,401.3c0.1,5.4-0.2,10.5-0.9,15.6c-0.5,3.7-1.3,7.3-2.5,10.9c-1.7,5-4.3,9.5-7.5,13.7
		c-1.8,2.3-4,4-6.5,5.6c-4.4,2.8-9.1,4.9-13.9,6.6c-4.4,1.6-9,2.7-13.5,3.8c-4.6,1.2-9.2,1.9-13.8,2.2c-6.9,0.5-13.8,0.5-20.6-1.1
		c-2.9-0.7-5.5-1.9-8-3.5c-5.6-3.7-10.3-8.2-14-13.7c-4-6-7.1-12.4-9.7-19c-3.8-9.5-6.4-19.3-8.6-29.2c-1-4.5-2-9-2.6-13.6
		c-0.5-3.9-0.8-7.9-0.6-11.9c0.2-5.2,0.8-10.3,2.5-15.2c2.7-8,7.2-14.8,13.6-20.3c6-5.2,12.9-8.9,20.5-11.4c8.8-2.9,17.8-4.6,27.1-5
		c7.8-0.3,15.4,0.7,22.7,3.5c10.4,3.9,18.3,10.7,23.7,20.3c3.8,6.7,6.4,14,8,21.6c1.5,7.4,2.8,14.8,3.7,22.3
		C241.2,389.4,241.7,395.4,241.6,401.3z M170.4,361.4C170.4,361.4,170.4,361.4,170.4,361.4c0.1,0.2,0.1,0.5,0.1,0.7
		c0.3,4,1.2,8,1.9,12c3,15.8,6.9,31.3,11.6,46.6c0.7,2.3,1.5,4.5,2.2,6.8c0.2,0.6,0.5,0.7,1.1,0.6c1.5-0.3,3-0.5,4.4-0.9
		c0.7-0.2,0.9-0.4,0.8-1.2c-0.1-2.1-0.3-4.1-0.5-6.2c-0.5-5.1-1-10.3-1.6-15.4c-0.7-5.9-1.7-11.8-2.6-17.7
		c-1.3-7.7-2.7-15.3-4.4-22.9c-0.5-2.2-1.1-4.3-1.9-6.4c-0.5-1.4-1.5-2-2.9-2c-2.1-0.1-4.1,0.3-6,1.1c-1.5,0.6-2.3,1.6-2.1,3.3
		C170.4,360.4,170.4,360.9,170.4,361.4z"/>
	<path class="st6" d="M351.5,313.1c0.4,0.6,0.8,1.2,1.2,1.8c0.9,1.2,1.1,2.4,0.7,3.8c-0.5,1.5-0.9,3.1-1.5,4.5
		c-4.7,12.1-10.9,23.3-18.6,33.7c-2.3,3.2-4.8,6.3-7.4,9.4c-0.4,0.4-0.8,0.8-0.9,1.4c0.2,0.2,0.4,0.4,0.7,0.5
		c6.2,3,11.8,6.9,17.3,11c7,5.2,13.7,10.5,20.1,16.4c3.8,3.4,7.3,7.1,10.4,11.1c1.9,2.5,2.1,4.5,0.4,7.2c-1.4,2.4-3.4,4.2-5.6,5.8
		c-3.2,2.4-6.7,4.2-10.4,5.7c-6.1,2.5-12.4,4.5-18.9,5.6c-2.3,0.4-4.7,0.7-7.1,0.4c-1.2-0.1-2.1-0.6-2.9-1.4
		c-5.4-5-10.4-10.3-15.1-15.9c-4-4.9-7.8-9.9-11.5-14.9c-0.5-0.7-1.1-1.3-1.7-2.1c-0.4,0.9-0.1,1.6,0.1,2.2c0.9,3.9,2,7.8,2.8,11.8
		c1.2,5.9,2.4,11.8,3.4,17.8c0.6,3.5,0.8,3.6-2.7,5.4c-2.8,1.5-5.7,2.3-8.7,3.1c-6.3,1.7-12.7,2.9-19.2,3.7
		c-3.1,0.4-6.1,0.8-9.3,0.2c-1.4-0.2-2.6-0.7-3.2-2.1c-0.1-0.6-0.2-1.3-0.4-1.9c-4.5-15.1-8.2-30.3-11.7-45.6c-2-9-4.1-17.9-5.9-27
		c-1.9-9.8-3.9-19.6-5.6-29.5c-1-6-2.1-12-3.1-18.1c-0.5-2.9-0.5-2.9,1.8-4.8c1.6-1.3,3.3-2.5,5-3.6c6.8-4.4,14.3-7.2,22.1-9.1
		c3.1-0.8,6.2-1.4,9.4-1.7c1.7-0.2,3.3-0.1,5,0.2c0.6,0.1,1.2,0.4,1.8,0.6c0.7,0.3,1,0.9,1.1,1.7c0.5,4.4,1.1,8.8,1.6,13.2
		c0.4,3.8,0.9,7.6,1.2,11.4c0.6,5.7,1.3,11.4,2.1,17c0.7,5.1,1.5,10.2,2.2,15.3c0.2,1.1,0.4,2.2,0.6,3.5c0.8-1.7,0.9-3.3,1.2-4.9
		c3.5-17.5,7.6-34.9,12.9-51.9c1.1-3.6,2.5-7.2,3.9-10.7c0.6-1.5,1.5-2.2,3.1-2.5c4.1-0.6,7.9,0,11.7,1.5c4.8,2,9.3,4.4,13.5,7.5
		c4.6,3.4,8.7,7.1,12.4,11.4C350.5,312.1,351,312.6,351.5,313.1z"/>
	<path class="st8" d="M170.4,361.4c0-0.5,0-1,0-1.4c-0.2-1.7,0.7-2.7,2.1-3.3c1.9-0.8,3.9-1.2,6-1.1c1.4,0.1,2.4,0.6,2.9,2
		c0.8,2.1,1.4,4.2,1.9,6.4c1.7,7.6,3.2,15.2,4.4,22.9c1,5.9,1.9,11.8,2.6,17.7c0.6,5.1,1.1,10.3,1.6,15.4c0.2,2.1,0.3,4.1,0.5,6.2
		c0.1,0.8-0.1,1.1-0.8,1.2c-1.5,0.3-3,0.6-4.4,0.9c-0.5,0.1-0.9-0.1-1.1-0.6c-0.7-2.3-1.5-4.5-2.2-6.8c-4.7-15.3-8.6-30.9-11.6-46.6
		c-0.8-4-1.6-7.9-1.9-12C170.5,361.9,170.5,361.6,170.4,361.4C170.4,361.4,170.4,361.4,170.4,361.4z"/>
</g>
</svg>
