<?xml version="1.0" encoding="utf-8"?>
<!-- Generator: Adobe Illustrator 23.0.4, SVG Export Plug-In . SVG Version: 6.00 Build 0)  -->
<svg version="1.1" id="Layer_1" xmlns="http://www.w3.org/2000/svg" xmlns:xlink="http://www.w3.org/1999/xlink" x="0px" y="0px"
	 viewBox="0 0 800 800" style="enable-background:new 0 0 800 800;" xml:space="preserve">
<style type="text/css">
	.st0{fill:#F62121;}
	.st1{fill:#F72121;}
	.st2{fill:#F1F2F2;}
	.st3{fill:#050303;}
	.st4{fill:#060505;}
	.st5{fill:#090808;}
	.st6{fill:#080505;}
	.st7{fill:#F7AE14;}
	.st8{fill:#E4DEDE;}
	.st9{fill:#F8F9F9;}
	.st10{fill:#FDFDFD;}
	.st11{fill:#020101;}
	.st12{fill:#FFFFFF;}
	.st13{fill:#FCFDFD;}
	.st14{fill:#0A0101;}
	.st15{fill:#FBFCFC;}
</style>
<path class="st0" d="M587.3,669.2c-2.9,0.3-5.9,0.1-8.8,0.2c-0.8,0-1.7,0.2-2.5-0.2c0.2-1.2,0.4-2.4,0.5-3.6c0.2-1.5,0.5-3,0.4-4.5
	c-0.1-1.6-0.1-3.2-0.1-4.8c0-1.4-0.1-2.9-0.3-4.3c-0.5-2.8-1-5.7-1.7-8.4c-0.8-3-1.2-6.1-2.4-9c-0.1-0.3-0.2-0.6-0.2-0.9
	c-0.1-1.3-0.5-2.5-0.9-3.7c-0.9-2.6-1.7-5.2-2.6-7.7c-1.3-3.9-2.7-7.7-4.6-11.3c-2-4.1-4.3-7.9-6.8-11.7c-1.9-2.9-4.1-5.6-6.1-8.4
	c-1.6-2.3-3.5-4.3-5.3-6.5c-2.7-3.2-5.7-6-9-8.6c-2-1.6-4.2-2.9-6.3-4.3c-1.5-1-3.1-1.9-4.7-2.7c-2-1-4-2.1-6.1-3
	c-3.9-1.7-7.9-3-12-3.9c-0.5-0.1-1-0.2-1.6-0.2c-0.9,0-1.5,0.8-1.2,1.7c0.1,0.3,0.3,0.5,0.4,0.8c-1.8-0.6-3.5-1.1-5.3-1.7
	c-2.1-0.6-4.1-1.2-6.2-1.9c-0.1-0.4-0.3-0.7-0.7-0.9c-1.9-0.9-3.9-1.7-5.9-2.2c-4.1-1-8.3-1.5-12.5-2c-2-0.2-4.1-0.4-6.1-0.6
	c-2.1-0.2-4.2-0.4-6.3,0c-0.4,0.1-0.9,0-1.3-0.1c-1.1-0.1-2.1-0.3-3.2-0.2c-2.2,0.2-4.5,0.1-6.7,0.3c-2.1,0.2-4.2,0.1-6.3,0.5
	c-1.9,0.4-3.9,0.6-5.8,0.9c-2.1,0.3-4.3,0.3-6.5,0.9c-0.7,0.2-1.5,0.1-2.2,0.3c-2.1,0.6-4.3,0.7-6.4,1.3c-0.4-0.2-0.9-0.3-1.3-0.1
	c-1.1,0.4-2.2,0.3-3.3,0.6c-4,0.8-8,1.6-12,2.6c-14.9,3.6-29.2,9.1-42.6,16.5c-0.5,0.3-1,0.6-1.5,1c0,0,0.1,0.2,0.1,0.3l0,0
	c-0.1-0.1-0.3-0.2-0.4-0.2c-3.6,1.8-6.9,3.9-10.2,6.2c0,0,0,0.2,0.1,0.4l0,0c-0.2,0-0.5-0.1-0.6,0c-1.2,0.8-2.3,1.6-3.5,2.4
	c-0.1,0,0,0.3,0,0.4l0,0c-0.5-0.2-0.8,0-0.9,0.5l0.1,0c-0.3,0-0.6,0.1-0.5,0.5l0,0c-0.3,0-0.6,0-0.5,0.5l0,0
	c-0.8-0.2-1.1,0.4-1.4,0.9l0,0c-0.4,0-0.8,0.1-0.9,0.5l0.1,0c-0.6,0.1-1,0.6-1.5,1c-0.1,0.1,0,0.3,0,0.4c0,0,0,0,0,0
	c-0.6-0.3-0.8,0-0.9,0.5l0.1,0c-0.9,0.1-1.4,0.7-1.9,1.4l0.1,0c-0.3,0-0.5,0.2-0.5,0.5l0,0c-0.6,0-1,0.2-1,0.9l0,0
	c-0.4,0-0.8,0.1-1,0.5l0.1,0c-0.3,0-0.5,0.2-0.5,0.5l0.1,0c-1.4,0.6-2.4,1.6-3.3,2.8l0,0c-1.6,0.9-2.9,2.2-4.1,3.6
	c0,0.1-0.1,0.1-0.1,0.2c0,0.1,0.1,0.2,0.1,0.3l0.1,0c-0.1-0.2-0.3-0.3-0.5-0.1c-0.5,0.5-1,0.9-1.5,1.4
	c-18.1,17.7-31.8,38.3-41.1,61.8c-1,2.4-0.5,2.2-3.2,2.2c-24.8,0-49.6,0-74.4,0c-0.8,0-1.5-0.1-2.3-0.1c0.3-0.8,0.3-1.6,0.2-2.4
	c-0.4-2.4-0.5-4.7-0.5-7.1c0.1-0.1,0.1-0.1,0.2-0.2c3.9,0.2,7.7,0.5,11.6,0.5c4.9,0,9.8,0.2,14.7-0.4c1.3-0.2,2.7-0.3,4.1-0.4
	c3.5-0.3,7.1-0.5,10.5-1.6c0.5-0.1,1-0.3,1.6-0.2c1,0,2-0.2,2.9-0.5c0.8-0.3,1.6-0.5,2.4-0.8c3.6-0.9,7.1-2.2,10.3-4
	c2.2-1.2,4.5-2.1,6.5-3.7c1.9-1.6,4-3,4.5-5.8c0.1-0.4,0.4-0.6,0.8-0.7c1.4-0.3,2.7-1.1,4.2-1.1c0.6,0,1.3-0.3,1.9-0.6
	c1.5-0.7,3.1-1.2,4.6-1.9c2.1-1,4.1-1.9,6-3.2c1.4-0.9,2.7-1.9,4.1-2.8c3.3-2.1,6-4.8,8.7-7.6c1.6-1.7,2.7-3.6,4.1-5.4
	c1.8-2.3,3.2-4.8,4.6-7.3c1.6-2.9,3.1-5.9,4.2-9c0.7-1.8,1.6-3.4,2.4-5.1c1.5-3.5,2.8-7,3.8-10.6c0.3-1,0.4-2.1,0.7-3.1
	c0.9-2.8,1.1-5.6,1.5-8.5c0.4-3.6,0.1-7.3,0.5-10.9c0-0.3,0-0.6,0-0.9c-0.2-2.5-0.5-5-0.7-7.5c-0.2-2.9-0.2-5.7-1.2-8.5
	c-0.2-0.5-0.1-1.1-0.1-1.6c0-1.5-0.2-3-0.5-4.5c-0.4-1.9-0.8-3.7-1.1-5.6c-0.4-2.6-1-5.2-1.5-7.8c-1.3-5.6-2.8-11.2-5-16.5
	c-0.3-0.7-0.4-1.4-0.7-2.2c-0.2-0.6-0.5-1.3-0.7-1.9c-0.2-0.4-0.5-0.9-0.9-1c-1.5-0.2-1.3-1-1.2-2.2c0.1-1,0-2.1-0.1-3.1
	c-0.3-3.5-0.8-6.9-1.4-10.3c-0.4-2.2-0.9-4.5-0.3-6.8c0.1-0.6-0.1-1.4-0.1-2c-0.1-0.7-0.2-1.4-0.2-2c0.1-2.9-0.6-5.7-1.4-8.5
	c-0.7-2.2-1.4-4.3-2.1-6.5c-0.9-2.7-2-5.2-3-7.8c-1.7-4.4-4-8.5-6.9-12.2c-0.6-0.8-1.1-1.7-1.7-2.4c-2.8-3.2-5.8-6.2-9.2-8.7
	c-0.1-1.1-0.8-1.8-1.7-2.4c-0.4-0.5-0.8-0.9-1.2-1.4c-1.8-2.4-3.8-4.5-6.1-6.3c-0.4-0.3-0.7-0.5-1.1-0.9c-1.7-1.8-3.7-3.1-5.9-4.2
	c-0.4-0.2-1-0.3-1.2-1.1c0.9-0.9,1.4-2.2,2.1-3.3c1.4-2,2.7-4,4-6c2.3-3.5,4.8-7,7.4-10.3c1.2-1.5,2.2-3.3,3.5-4.7
	c1.8-2.1,3.4-4.4,5.4-6.4c0.6-0.6,1-1.6,1.7-2.1c2-1.4,3.3-3.5,5.2-5.1c2.1-1.8,3.9-4,6.1-5.8c1.1-0.9,2.2-1.6,3.2-2.5
	c2.8-2.2,5.5-4.5,8.3-6.6c3.3-2.4,6.6-4.8,10-7c1.9-1.2,3.8-2.5,5.8-3.5c2.1-1,4.1-2.2,6.2-3.3c1.3-0.7,2.7-1.4,4.1-1.8
	c3.2-0.8,6.3-2.2,9.4-3.4c3.5-1.3,7-2.8,10.6-3.9c2.2-0.7,4.5-1.4,6.8-1.6c1.3-0.1,2.5-0.5,3.7-0.9c0.7-0.2,1.3-0.4,2-0.4
	c2.1,0.2,4-0.5,6.1-0.6c0.8,0,1.6-0.2,2.5-0.4c0.7-0.1,1.3-0.3,2-0.3c3.2,0,6.3-0.6,9.5-1.1c2.9-0.4,5.9-0.6,8.7-1.2
	c1.9-0.4,3.9-0.4,5.9-0.8c4.1-0.8,8.2-1.4,12.3-2.1c2.3-0.4,4.6-0.7,7-0.5c3.6,0.4,7.2,0.8,10.8,1.4c5.4,0.8,10.7,1.8,15.9,3.7
	c0.8,0.3,1.6,0.3,2.4,0.7c1.6,0.8,3.3,1.5,5,2.1c1.5,0.6,3.1,1.3,4.5,2.2c2.4,1.5,4.9,2.7,7.3,4.1c0.3,0.1,0.6,0.2,0.8,0l0,0
	c-0.1,0.2-0.1,0.4,0.1,0.5c0.4,0.3,0.9,0.4,1.4,0.5c1.7,0.9,3.2,2.3,4.7,3.4c3.1,2.3,6.2,4.6,9.3,6.9c2.2,1.6,4.4,3.2,6.6,4.8
	c1.2,0.9,2.4,1.8,3.7,2.6c1.7,1.2,3.1,2.6,4.7,3.9c2.1,1.7,3.9,3.8,5.8,5.7c1.9,1.9,3.8,3.9,5.5,6.1c2.3,2.8,4.9,5.4,7.1,8.2
	c1.5,2,3.2,3.8,4.7,5.8c1.8,2.5,3.5,5.1,5.3,7.6c0.2,0.2,0.3,0.5,0.5,0.8c1,1.7,2,3.4,3.2,5c1.5,1.9,2.2,4.2,3.7,5.9
	c2.4,4.2,4.4,8.6,7.2,12.6c0.2,0.3,0.4,0.7,0.5,1c0.5,2.3,1.9,4.3,2.7,6.5c0.8,2.1,2.1,4,2.6,6.3c0.1,0.4,0.3,0.7,0.5,1
	c0.8,0.8,1.1,1.8,1.2,2.9c0,0.4,0.2,0.7,0.3,1.1c0.8,1.6,1.3,3.2,1.8,4.9c0.7,2.5,1.7,4.8,2.6,7.2c1,2.6,1.8,5.3,2.7,8
	c0.4,1.1,0.9,2.1,1.1,3.2c0.2,1,0.5,1.9,0.8,2.8c0.9,2.9,1.9,5.7,2.5,8.7c0.1,0.4,0.2,0.7,0.3,1.1c1.2,2.6,1.5,5.4,2.3,8.1
	c0.9,3.1,1.5,6.3,2.3,9.5c0.6,2.6,1.3,5.1,1.9,7.7c0.5,2,0.9,4,1.3,6c0.6,2.7,1.3,5.5,1.8,8.2c0.3,1.7,0.9,3.4,1.1,5.1
	c0.4,2.8,0.5,5.6,1.4,8.3c0.4,1.3,0.2,2.6,0.4,3.8c0.5,2.9,1,5.8,1.3,8.8c0.3,3.5,1.1,6.9,1.5,10.3c0.2,1.9,0.6,3.7,0.9,5.6
	c0.7,3.6,1.2,7.3,2,10.9c0.7,3.4,1.5,6.8,1.8,10.3c0.2,1.5,0.6,3,0.7,4.5c0.1,3,0.9,6,1.1,9c0.2,3.2,0.7,6.5,0.7,9.7
	c0,0.4-0.1,0.8,0,1.1c0.6,3.5,0.2,7,0.4,10.4c0.1,1.2-0.3,2.4-0.3,3.6c-0.1,1.4,0,2.7-0.2,4.1c-0.2,2.2-0.5,4.4-0.8,6.5
	c-0.6,4.6-1.2,9.2-2.1,13.7c-0.2,1-0.2,2.1-0.5,3.1c-0.3,1.1-0.4,2.2-0.7,3.3c-0.5,2.2-0.4,4.4-0.8,6.5c-0.3,1.3-0.6,2.6-0.6,4
	c0,1.4-0.1,2.7-0.1,4.1C587.3,668.3,587.3,668.8,587.3,669.2z M504.4,480.3c-0.8-0.2-1.6-0.1-2.4,0.1c-1.8-0.1-3.5-0.8-5.3-1.1
	c-2.8-0.5-5.5-1.1-8.2-1.6c-1.6-0.3-3.3-0.4-4.9-1c-2.7,0-5.1-1.4-7.8-1.3c-1.7-0.6-3.6-0.5-5.3-1.2c-0.3-0.1-0.7-0.1-1.1-0.2
	c-4.5-0.9-9.1-1.7-13.6-2.6c-3-0.6-6-1.4-9.1-1.8c-3.2-0.4-6.3-1.1-9.4-1.7c-3.2-0.6-6.4-0.9-9.6-1.6c-2.4-0.5-4.8-0.8-7.2-1.1
	c-3.1-0.4-6.3-1.1-9.4-1.6c-5.4-0.9-10.9-1.9-16.3-2.8c-1.2-0.2-2.3-0.7-3.5-0.9c-4.3-0.7-8.6-1.8-12.8-2.7
	c-3.9-0.9-7.8-1.7-11.7-2.5c-2.8-0.6-5.6-1.2-8.4-1.7c-2.5-0.5-5.1-0.9-7.6-1.4c-2.4-0.5-4.7-1.1-7.1-1.4c-0.8-0.1-1.5-0.4-2.1-1.2
	c-0.7-1-1.7-1.1-2.8-0.5c-0.5,0.3-0.8,0.8-0.7,1.3c0.1,0.4,0.2,0.9,0.5,1.3c0.5,0.9,0.7,1.8,0.7,2.8c0.1,1.1,0.2,2.1,0.2,3.2
	c0.1,2.6,0.9,5,1.5,7.5c0.4,1.7,1,3.3,1.4,5c0.7,2.8,1.6,5.5,2.8,8.1c0.5,1,1,2,1.4,3.1c0.6,1.9,1.5,3.6,2.4,5.4
	c1.5,3.4,3.5,6.5,5.5,9.7c0.7,1.2,1.4,2.4,2.2,3.4c1.9,2.3,3.8,4.5,5.8,6.7c0.9,1.1,2.1,1.9,3.1,3c2.1,2.4,4.6,4.2,6.9,6.2
	c3.1,2.6,6.5,5,9.9,7.2c1.6,1,3.3,1.9,4.9,2.8c1.6,0.9,3.2,1.7,4.8,2.6c1.5,0.9,3.2,1.4,4.8,2.1c4.4,1.8,8.9,3.4,13.6,4.3
	c0.3,0.1,0.6,0.1,0.9,0.2c2.2,0.7,4.5,1.1,6.8,1.5c1.1,0.2,2.2,0.3,3.3,0.6c1.1,0.3,2.4,0.4,3.6,0.5c2.3,0.2,4.5,0.5,6.8,0.7
	c2.9,0.2,5.7,0.5,8.6,0.6c3.1,0.2,6.2-0.3,9.3,0c1.5,0.2,2.9-0.3,4.3-0.3c1.8-0.1,3.6-0.2,5.4-0.5c5.1-0.6,10.1-2,15.1-3.1
	c1.4-0.3,2.8-0.7,4.1-1.2c2.4-0.8,4.8-1.8,7.2-2.7c2.9-1.1,5.6-2.6,8.3-4.1c3.4-1.9,6.4-4.4,9.3-6.9c2-1.7,3.8-3.6,5.6-5.6
	c1.1-1.2,1.9-2.5,2.9-3.7c3-3.8,5.1-8,6.6-12.5c1.3-3.9,2.1-7.9,1.9-12c0-0.4,0-0.6,0.3-0.7c0.2-0.2,0.5-0.3,0.7-0.6
	c0.5-0.5,1-1,0.7-1.8c-0.3-0.9-1-1.5-2-1.6c-0.2,0-0.5,0-0.7,0c-2.5-0.1-5,0.3-7.4,1.1c-0.1-0.2-0.3-0.5-0.4-0.5
	c-1.4,0-2.8-0.6-4.2-0.8C506.6,480.7,505.5,480.5,504.4,480.3z M404.1,373.7c-0.1-1.5-0.5-3.4-1.6-5.1c-1-1.6-2.1-3.2-2.9-4.9
	c-0.8-1.5-1.8-2.8-2.9-4c-0.5-0.5-1.1-0.8-1.5-1.3c-1.2-1.6-2.9-2.4-4.6-3.3c-2-0.9-3.9-1.9-5.9-2.8c-1.9-0.8-3.9-1.2-5.9-1.1
	c-1.1,0.1-2,0.4-3,0.8c-2.1,1-3.9,2.2-5.2,4.2c-0.2,0.2-0.4,0.4-0.7,0.6c-0.7,0.4-1.1,1.1-1.3,1.8c-0.5,1.4-1.1,2.8-1.7,4.2
	c-0.3,0.7-0.2,1.3,0,2c0.1,0.5,0.3,1,0.5,1.5c0.8,2.5,2.4,3.7,5,3.7c0.5,0,0.9,0,1.4,0c0.9,0,1.8-0.1,2.7,0.1
	c2.1,0.5,4.1,1.3,5.9,2.7c2.5,1.8,5.1,3.6,7.6,5.3c0.6,0.4,1.2,0.9,1.6,1.5c0.7,1.2,1.5,2.3,2.3,3.4c0.8,1.1,2,1.6,3.2,2
	c0.7,0.2,1.4,0.2,2-0.3c1.1-0.9,2.3-1.6,3.1-2.9C403.7,379.5,404,376.9,404.1,373.7z M381.6,413.7c-0.3-1.3-0.5-3.3-1.7-4.7
	c-2-2.4-4.3-4.5-7.2-5.8c-1-0.5-2.1-1-3.1-1.3c-1.3-0.4-2.6-0.6-4-0.1c-1.6,0.6-3.3,1-4.9,1.6c-2,0.8-3.7,1.9-5.2,3.6
	c-1.1,1.3-2.2,2.7-3,4.2c-0.8,1.4-1.2,3-1.2,4.6c0.1,3.1,1.3,5.9,3.3,8.3c0.9,1.1,2,2,3.1,3c0.6,0.6,1.3,1,2.2,1.2
	c2.9,0.8,5.7,1.3,8.7,0.8c4-0.6,7.6-2,10.2-5.2c1.4-1.7,2.1-3.7,2.5-5.7C381.5,416.9,381.5,415.6,381.6,413.7z M510.2,402
	c0.1-1.4,0.2-2.8-0.5-4c-0.9-1.8-2.2-3.3-4-4.2c-1.4-0.8-2.9-1.3-4.4-1.8c-0.4-0.2-0.9-0.1-1.3-0.1c-2.5,0.2-5,0.8-7.1,2
	c-1.9,1.1-4,2-5.8,3.5c-2.2,1.9-4.3,3.8-7,5c-1.6,1.5-3.3,2.8-5.1,4.2c-1.5,1.2-1.9,4.1-0.6,5.3c1.7,1.6,3.6,2.6,6.2,2.1
	c1.8-0.4,3.4-1.1,5.2-1.3c1.5-0.2,3.1-0.7,4.6-1.2c5-1.7,10.1-3.2,15.2-4.6c0.9-0.3,1.9-0.6,2.8-1c1.3-0.6,2.1-1.5,1.9-3
	C510.2,402.6,510.2,402.3,510.2,402z M496.2,442c0.5-0.8,1.3-0.9,2-1.1c3.8-0.9,7.3-2.5,11-3.5c2.3-0.7,4.3-1.8,6.5-2.7
	c1-0.4,1.9-1,2.5-1.9c0.5-0.7,1-1.5,1.6-2.4c-1.2-0.4-1.9-1.5-3.1-1.7c-1.6-0.2-3.2-0.2-4.7,0.3c-3.1,1-6.2,2-9.3,3.1
	c-2.1,0.7-4.2,1.6-6.4,2.3c-1.4,0.5-2.8,1.2-4.2,1.6c-1.3,0.3-2.3,1.1-3.2,2.1c-0.7,0.7-1,1.5-1,2.5c0,1.7,0.4,3.3,1.6,4.6
	c1.7,1.9,3.3,3.9,5,5.8c1.3,1.4,2.6,2.8,3.9,4.1c1.6,1.6,3.5,2.9,5.1,4.5c1.8,1.8,4.2,2.3,6.7,2.4c0.3,0,0.6,0,0.9-0.1
	c0.2-0.1,0.4-0.2,0.4-0.5c0-0.3,0-0.6,0-0.9c-0.6-2-1.3-3.8-2.9-5.3c-2.1-2-3.9-4.2-6-6.2c-1.3-1.2-2.5-2.4-3.6-3.8
	C498.2,444.1,497,443.3,496.2,442z"/>
<path class="st1" d="M149.4,341.3c1.2,2.1,3.1,3.3,5.2,4.1c1.9,0.8,3.7,1.6,5.8,1.8c1.6,0.2,3,1.1,4.4,1.7c3.7,1.5,6,4.5,8,7.7
	c0.7,1.1,1,2.4,1.4,3.6c0.5,1.4,1,2.8,1.3,4.3c0.5,2.1,1.1,4.2,1.7,6.3c0.3,1.1,0.4,2.2,0.7,3.3c0.4,1.9,0.8,3.8,1.2,5.8
	c0.1,0.4,0.3,0.9,0.4,1.3c0.1,0.4,0.3,0.7,0.3,1.1c0.1,3.3,1.2,6.5,1.6,9.8c0.1,1,0.3,2.1,0.4,3.1c0,1.7,0.2,3.3,0.5,5
	c0.4,2.3,0.3,4.7,0.4,7c0.1,2.2-0.3,4.2-0.8,6.3c-0.4,1.9-1.2,3.6-2.5,5c-0.3,0.3-0.6,0.7-0.4,1.2c0,0,0-0.1,0-0.1
	c-0.4-0.1-0.4,0.1-0.4,0.4c-0.3,0.3-0.6,0.4-1,0.4c-2.7,0.2-5.2,0.9-7.6,2c-0.3,0.2-0.7,0.3-1.1,0.3c-1.2,0.2-2.3,0.8-3.3,1.4
	c-0.8,0.4-1.5,1.1-1.7,2c-0.2,0.7-0.5,1-1.1,1.3c-0.3,0.2-0.6,0.4-0.9,0.7c-0.6,0.7-0.3,1.8,0.6,2c0.5,0.1,1,0.1,1.6,0.2
	c0.1,2.2,1,4.1,2.3,5.8c1.6,2.2,3.6,3.9,6.4,4.2c0.6,0.1,1.2,0.2,1.8,0.4c1.2,0.5,2.5,0.4,3.8,0.2c0.3,0,0.6-0.2,0.9-0.1
	c1.4,0.5,2.8,0,4.3-0.1c2.1-0.2,4.2-0.4,6.3-0.6c2.2-0.3,4.5-0.8,6.7-0.9c3.5-0.3,6.9-1.2,10.3-1.3c1.7-0.1,3.3-0.5,4.9-0.8
	c1.6-0.2,3.3-0.1,4.9-0.4c1.9-0.4,3.9-0.6,5.9-0.4c0.1,0,0.3,0,0.4,0c2-0.8,4-0.1,6.1-0.2c1.9-0.1,3.8,0.2,5.6,0.1
	c1.4,0,2.8-0.1,4.1,0.1c2.7,0.5,5.4,0.7,8.1,1.1c3.7,0.6,7.2,1.5,10.8,2.6c1.8,0.6,3.7,0.9,5.3,1.8c1.3,0.7,2.4,1.6,3.7,2.1
	c2,0.7,3.5,2.4,5.5,3c0.2,0.1,0.4,0.2,0.5,0.4c1.5,1.9,3.7,2.8,5.4,4.4c1.7,1.6,3.7,2.9,5.3,4.7c2,2.3,4.4,4.1,6.6,6.2
	c1.3,1.3,2.7,2.5,3.8,3.8c1.3,1.6,2.6,3.3,3.7,5.1c2.3,3.9,4.5,7.8,6,12.1c1.1,3.1,1.7,6.3,3.1,9.2c0.1,0.3,0.1,0.6,0.1,0.9
	c0.5,1.7,0.7,3.5,1.5,5.2c0.3,1.1,0.6,2.1,0.8,3.2c0.2,1.1,0.6,2,1.4,2.7l0-0.1c0.1,0.2,0.2,0.3,0.3,0.5c0.2,0.4,0.3,0.9,0.6,1.2
	c0.8,0.9,1.1,2,1.5,3c0.4,1.1,1.1,1.9,1.3,3.1c0.7,3.1,1.5,6.2,2.2,9.3c0.3,1.3,0.6,2.5,0.8,3.8c0.7,3.6,1.4,7.3,2,10.9
	c0.4,2.1,0.9,4.1,1.1,6.2c0.2,3.5,0.9,6.9,1.2,10.4c0.3,3.3,0.5,6.6,0.6,9.9c0.1,3.3,0.4,6.6-0.3,9.9c-0.1,0.4,0,0.8,0,1.1
	c0,0.5,0,1.1-0.1,1.6c-0.4,2.3-0.8,4.6-1.4,6.9c-0.8,3.6-1.9,7-3.3,10.4c-2.4,5.4-4.8,10.8-7.6,16c-1.6,3-3.5,5.8-5.6,8.5
	c-1.3,1.7-2.7,3.3-4.2,4.8c-2.2,2-4.5,3.8-6.8,5.7c-0.3,0.3-0.7,0.6-1.1,0.7c-1.5,0.6-2.8,1.5-4.1,2.4c-1.3,0.8-2.9,1.3-4.3,1.9
	c-0.4,0.2-0.8,0.5-1.2,0.6c-2.7,0.6-5.3,1.8-8.1,2.2c-2.3,0.3-4.6,0.8-6.9,1c-4.1,0.2-8.2,0.1-12.3,0.1c-1.2,0-2.5,0.1-3.6-0.1
	c-2.2-0.4-4.4-0.2-6.6-0.3c-0.2,0-0.3,0.1-0.2,0.4c1.3,0.6,2.7,1.2,4,1.8c1.9,0.9,6.7,2.3,8.9,2.6c3,0.4,6,0.7,9,1
	c0.3,0,0.8-0.2,1,0.4c-0.2,0.2-0.4,0.4-0.7,0.6c-2.3,1.3-4.5,2.7-7,3.7c-3.4,1.3-6.8,2.5-10.3,3.4c-3.3,0.8-6.6,1.1-9.8,1.6
	c-1,0.2-1.9,0.4-2.9,0.4c-4.8,0.1-9.6,1.1-14.5,1c-1.7,0-3.5,0.3-5.2,0.3c-1.7,0-3.4,0.2-5-0.2c-3.5-0.8-7.1-1.5-10.6-2.4
	c-2.9-0.8-5.8-1.6-8.8-2c-1.2-0.2-2.4-0.9-3.7-0.9c-0.3,0-0.5-0.3-0.8-0.4c-0.6-0.2-1.1-0.4-1.7-0.6c-2-0.5-4-1-5.9-1.6
	c-2.7-0.9-5.4-2-8-3.2c-1.2-0.5-2.5-0.8-3.4-1.8c-0.4-0.7-0.9-0.9-1.6-0.9l0,0c-0.1-0.7-0.8-0.9-1.2-1.2c-3.9-2.5-7.7-5.2-11.4-8
	c-0.5-0.4-1.1-0.8-1.7-1.1c0,0-0.2,0.2-0.3,0.3c0,0,0,0,0,0c0.1-0.1,0.2-0.3,0.2-0.3c-0.2-0.3-0.5-0.6-0.8-0.8
	c-5.6-4.5-10.9-9.3-15.8-14.5c-0.1-0.2-0.4-0.2-0.6-0.3l0.1,0.1c0-0.3-0.2-0.5-0.5-0.5l0,0c-0.2-0.5-0.4-0.9-1-1l0,0
	c0-0.3-0.1-0.5-0.5-0.5l0,0c0-0.3-0.2-0.5-0.5-0.5l0,0c-0.1-0.2-0.2-0.5-0.5-0.5l0,0c-0.2-0.8-0.5-1.4-1.4-1.4l0,0
	c0.1-0.4,0-0.6-0.5-0.5l0,0c0.4-0.7-0.3-1-0.6-1.3c-2.8-3.3-5.5-6.6-8.1-10.1c-8.1-10.7-15-22.2-20.9-34.3
	c-4.5-9.2-8.1-18.8-10.7-28.7c-0.5-2-1-3.9-1.5-5.9c-0.5-2.2-0.9-4.4-1-6.7c0-1.9-0.2-3.8-0.7-5.6c-0.1-0.4-0.2-0.8-0.1-1.1
	c0.5-1.9,0-3.8,0-5.6c-0.1-4,0.3-8,0.5-12c0-0.2,0.1-0.5,0.1-0.7c0.8-4.1,1.6-8.1,3.2-12c0.9-2.1,1.7-4.4,2.7-6.5
	c1-2.1,2-4.3,3.4-6.1c1.7-2.3,3.5-4.6,5-7c1-1.6,2.1-2.9,3.2-4.3c1-1.2,1.9-2.6,3.2-3.5c1.1-2,2.9-3.5,4-5.5
	c1.1-1.9,2.3-3.8,3.6-5.5c1-1.4,1.7-2.8,2.5-4.3c1.2-2.4,1.9-4.9,2.1-7.5c0.1-1.1,0.1-2.3-0.4-3.3c-0.3-0.6-0.4-1.3-0.3-2
	c0.2-2.1-0.3-4.1-0.6-6.1c-0.8-5-2.2-9.9-3.3-14.8c-0.8-3.6-1.9-7.2-2.9-10.7c-0.7-2.3-0.9-4.7-1.8-7c-0.1-0.3-0.1-0.7-0.1-1.1
	c-0.1-0.5-0.1-1.1-0.2-1.6c-0.6-2.3-0.9-4.7-1.3-7.1c-0.7-4.9-0.4-9.8,0.4-14.7c0.2-1.1,0.5-2.1,0.9-3c0.8-1.7,1.6-3.4,2.4-5.1
	c0.2-0.5,0.5-0.9,0.8-1.4c0.8-1.3,1.7-2.5,2.3-3.9c1.3-2.9,3.6-4.6,6.2-6c1.4-0.7,2.7-1.4,4-2.2c1.3-0.8,2.6-1.9,4.2-2.3
	c1.8-0.4,3.7-0.8,5.6-1c3.3-0.4,6.6-0.5,9.9-0.8C148.1,340.9,148.8,340.9,149.4,341.3z M164.5,397.5c0.2,0.1,0.4,0.2,0.5,0.2
	c1.6-0.4,3-1.2,4.2-2.5c1.2-1.3,2.2-2.8,3.5-4.1c1.1-1.1,1.9-2.6,2.1-4.2c0.3-1.9,0.5-3.9,0.6-5.8c0.1-1-0.1-2,0-3
	c0-1.5-0.2-2.8-0.7-4.2c-0.6-1.7-1.5-3.3-2.2-5c-1.3-3.1-2.9-5.9-5.2-8.5c-1.6-1.8-3.7-2.9-5.7-4c-1.7-0.9-3.6-1-5.5-1.2
	c-2.7-0.2-5.4,0-8.1,0.9c-4.6,1.6-8.1,4.3-10,8.9c-1.5,3.7-1.9,7.6-0.7,11.3c1.2,3.8,2.6,7.6,5,10.9c0.7,1,1.4,2,2.4,2.7
	c2,1.3,4,2.6,6.5,2.9c3.1,0.4,5.8-0.3,8.2-2.4c2.9-2.6,4-6,4.2-9.7c0.1-1.4,0-2.9-0.1-4.3c-0.3-2.9-1-5.6-3.2-7.8
	c-1.5-1.5-3.2-2.3-5.1-2.7c-1.7-0.4-3.3,0-4.7,1c-1.8,1.2-3.3,2.6-3.7,4.7c-0.5,2.4-0.6,4.8,0,7.2c0.6,2.3,2,3.9,4,4.9
	c2.7,1.5,5.1,0.7,6.4-2.2c0.6-1.3,0.9-2.7,1-4.2c0.1-1.8-0.5-3.1-2-4c-1.1-0.7-2.4-0.7-3.4,0.1c-1.2,0.9-1.4,2.4-0.4,3.6
	c0.3,0.3,0.9,0.4,1.2,0c0.2-0.3,0.4-0.7,0.6-0.9c0.1-0.1,0.4-0.2,0.6-0.2c0.2,0,0.4,0.3,0.4,0.4c0.2,1.4-0.1,2.7-0.7,4
	c-0.6,1.2-1.9,1.6-3.1,1c-1.1-0.6-1.9-1.5-2.1-2.8c-0.3-1.9-0.3-3.8,0.1-5.6c0.4-2,1.9-3.2,3.7-3.6c1.9-0.5,3.5,0.4,4.8,1.9
	c1.1,1.2,1.5,2.8,1.9,4.3c0.7,2.5,0.3,5,0,7.5c-0.3,2.4-1.5,4.3-3.3,5.7c-1.2,0.9-2.6,1.4-4,1.2c-3-0.3-5.6-1.4-7.4-3.9
	c-0.8-1-1.5-2.1-2-3.3c-1.1-2.3-2-4.7-2.9-7.2c-0.4-1.1-0.6-2.2-0.4-3.3c0.2-1.7,0.5-3.4,0.9-5.1c0.3-1.2,0.9-2.2,1.7-3.2
	c2.1-2.6,4.9-3.9,8.2-4.3c2.1-0.3,4.2-0.1,6.3,0.2c1.7,0.2,3.2,0.9,4.5,2c2.1,1.8,3.4,4.1,4.7,6.3c1.3,2.2,2,4.6,2.8,6.9
	c0.5,1.4,0.8,2.7,0.8,4.2c0.1,2.7,0,5.5-0.8,8.1c-0.2,0.5-0.3,1-0.3,1.6c-0.1,1.4-0.7,2.6-1.4,3.8
	C166.5,394.1,165.5,395.8,164.5,397.5z"/>
<path class="st2" d="M692.4,172.3c0.6,0.7,1.4,0.5,2.1,0.5c4.4,0,8.8,0,13.2,0c0.9,0,1.8,0.1,2.7,0.1c0,0.3,0,0.6-0.1,0.9
	c-0.7,2.8-1.1,5.6-1,8.5c0.1,3.9,0,7.9-0.3,11.8c-0.2,3-0.6,6-0.8,9c-0.1,1.9-0.5,3.7-0.4,5.6c0,0.8,0.1,1.5,0.8,2
	c0.4,0.2,0.4,0.6,0.3,1c-0.4,2.1-0.8,4.1-1.1,6.2c-0.6,4-1.1,8.1-1.5,12.2c-0.2,2.2-0.2,4.4-0.5,6.6c-0.4,3.4-0.4,6.8-0.7,10.2
	c-0.3,3.7-0.3,7.4-0.5,11.1c-0.2,3.9-0.4,7.9-0.5,11.8c0,1.4,0.1,2.9-0.1,4.3c-0.1,1-0.2,2-0.2,2.9c-0.2,4.5-0.3,9.1-0.5,13.6
	c-0.1,2.8-0.3,5.6-0.4,8.4c-0.2,3.5-0.3,7-0.6,10.4c-0.3,3.3-0.8,6.6-1.4,9.9c-0.2,1.1-0.2,2.4-1,3.4c-0.7-0.2-1.4-0.5-2-0.5
	c-2.3-0.2-4.7-0.2-7-0.5c-1.1-0.1-2.1,0.4-3.1,0.4c-2-0.1-3.9,0-5.9,0.1c-2.2,0.1-4.4-0.3-6.6,0.2c-1.3-0.4-2.7-0.2-4.1-0.3
	c-1.5-0.1-3-0.1-4.5-0.2c-3.1-0.3-6.2-0.5-9.3,0.1c-0.4,0.1-0.7,0-1.1-0.2c-2.4-1.6-4.9-2.9-7.6-4c-1.4-0.5-2.9-1-4.3-1.2
	c-3.6-0.6-7.2-0.5-10.8-0.7c-2.7-0.1-5.4,1-8.1,0.4c-0.1,0-0.2,0-0.2,0c-2.2,0.7-4.5,0.4-6.7,0.7c-1.9,0.3-3.9,0.5-5.8,0.7
	c-2.2,0.2-4.2,1.1-6.4,1.5c-0.7,0.1-1,0.7-1.4,1c-0.4,0-0.8,0-1.2,0.1c-0.8-0.3-1.1-0.9-1.5-1.6c-0.8-1.5-1.6-3.1-2.4-4.6
	c-0.7-1.6-1.6-3.1-2.1-4.8c-1.2-4-3.1-7.7-5.4-11.2c-0.7-1-1.5-1.9-2-3c-0.9-1.7-2.3-3-3.3-4.6c-1.2-1.7-2.9-3.1-4.8-4
	c-1.6-0.8-3.2-1.7-5-2.1c-0.3-0.1-0.6-0.1-0.9-0.1c-3-0.3-5.7,0.6-8.3,1.9c-3.8,2-6.5,5-7.9,9.2c-1.5,4.4-2.3,8.9-3.1,13.4
	c-0.4,2.1-0.6,4.2-0.8,6.3c-0.1,0.7-0.3,0.9-1,0.9c-1.4,0-2.7-0.1-4.1-0.1c-2.5,0-5,0.1-7.4-0.2c-0.2,0-0.3,0-0.5,0c-4,0-8,0.2-12,0
	c-3.9-0.2-7.7,0-11.6-0.1c-0.7,0-1.1,0.3-1.6,0.6c0-2.8-0.1-5.6-0.1-8.5c0-0.5,0.1-1,0.6-1.3c0.8-3.5,1.3-7.1,1.6-10.7
	c0.4-6.3,0.7-12.6,0.9-19c0.1-2.8,0.1-5.6,0.1-8.4c0-2.3,0-4.5-0.1-6.8c-0.1-4.4-0.4-8.7-0.5-13.1c0-1.1,0.1-2.1,0-3.2
	c-0.2-3.4-0.4-6.8-0.4-10.2c0-1.8,0.3-3.6-0.3-5.4c-0.1-0.3,0-0.6,0-0.9c0.3-0.9,0.2-1.8,0.2-2.7c-0.1-2.6,0.2-5.1-0.3-7.7
	c0-0.2,0-0.4,0.1-0.7c0.3-1.4,0.3-2.8,0-4.3c-0.2-0.8-0.2-1.6,0-2.5c0.1-0.7,0.2-1.4,0.1-2c-0.2-1.7,0-3.3,0-5c0-1.9-0.2-3.9,0-5.9
	c0-0.4-0.1-0.9-0.2-1.3c-0.2-0.7-0.2-1.3-0.2-2c0.1-3.5-0.3-6.9-0.4-10.4c0-1.9-0.5-3.7-0.6-5.6c-0.1-1.3-0.5-2.3-1.4-3.3
	c0.1-2.5-0.1-2.4,2.6-2.4c0.6,0,1.2-0.1,1.6,0.6c-0.7,0.4-1.3,0.7-2,1.1c-0.6,0.4-0.6,1.2-0.3,1.9c0.3,0.7,0.9,1,1.7,0.8
	c0.8-0.2,1.6-0.4,2.4-0.6c3.9-0.8,7.9-1.4,11.9-1.4c1.6,0,3.2,0.2,4.8,0.2c3.1,0,6.2,0.2,9.3,0.3c1.4,0.1,2.8,0.2,4.2,0.3
	c4.5,0.1,9.1,0.2,13.6,0.1c5.8-0.1,11.6-0.4,17.4-0.6c1,0,2,0,2.9-0.1c3.3-0.5,6.6-0.1,10-0.7c1.7-0.3,3.5-0.2,5.2-0.2
	c1.8,0,3.6-0.1,5.4-0.1c2.5,0,5-0.1,7.5-0.1c2.5,0,5-0.2,7.5-0.1c3.3,0.1,6.5-0.2,9.8,0c3.5,0.2,6.9-0.5,10.4-0.1c0.1,0,0.1,0,0.2,0
	c2.3-0.1,4.7-0.3,7-0.3c5.4,0.1,10.7-0.2,16-0.3c1.9,0,3.8-0.2,5.7-0.1c2,0,3.9-0.1,5.9-0.1c2.7,0,5.4-0.2,8.1-0.6
	C688.3,172.6,690.3,172.2,692.4,172.3z M664.6,215.5c0.1-2.5-0.2-5.2-0.9-7.8c-1-3.6-2.4-7-5-9.9c-1.7-1.8-3.7-3.2-6.2-3.5
	c-0.9-0.1-1.6-0.4-2.3-0.8c-2-1.2-4.2-1.7-6.5-1.7c-4-0.1-7.8,0.9-11.4,2.6c-5.3,2.5-9.8,6.1-13.5,10.5
	c-10.7,12.8-15.8,27.6-14.7,44.4c0.3,4.4,1.5,8.5,3.8,12.3c4.1,6.9,10.3,10.1,18.1,10.1c3.9,0,7.6-1.2,11-3.2c5.1-3,9.2-7,12.6-11.6
	c6.3-8.4,10.7-17.8,13.2-28C663.9,224.7,664.7,220.3,664.6,215.5z M565.5,272c2.6,0,5-0.6,7.4-2c1.2-0.7,2.3-1.5,3.4-2.3
	c1.9-1.3,3.2-3,4.1-5.1c0.7-1.5,1.3-3.1,1.8-4.6c2.3-6.6,4-13.4,5.9-20.1c2.5-8.6,4.9-17.2,8.1-25.6c1.3-3.4,2.4-6.9,3.1-10.5
	c0.3-1.7,0.7-3.4,0.3-5.2c-0.3-1.3-1.1-2.1-2.3-2.6c-0.9-0.3-1.7-0.4-2.7-0.2c-2,0.5-3.9,1.3-5.7,2.1c-3.5,1.6-7,3.2-10.5,4.9
	c-2.9,1.4-5.7,2.8-8.6,4.2c-0.7,0.4-1.5,0.7-2,1.4c-1.5,2.2-2.4,4.6-2.1,7.3c0.3,2.9,1.6,3.8,4.5,2.7c1.5-0.6,3-1.2,4.4-1.7
	c0.3-0.1,0.7-0.4,1,0c0.2,0.3,0,0.6-0.1,0.8c-0.1,0.2-0.2,0.4-0.2,0.6c-4.3,10.7-8.3,21.5-12.2,32.3c-1.8,5.1-3.6,10.2-5.3,15.2
	c-0.9,2.8-0.4,4.6,2,6.3C561.5,271.5,563.4,272.1,565.5,272z"/>
<path class="st3" d="M518,316.3c0.5-0.3,1-0.6,1.6-0.6c3.9,0,7.7-0.1,11.6,0.1c4,0.2,8,0,12,0c0.2,0,0.3,0,0.5,0
	c2.5,0.3,5,0.1,7.4,0.2c1.4,0,2.7,0.1,4.1,0.1c0.7,0,0.9-0.2,1-0.9c0.3-2.1,0.4-4.2,0.8-6.3c0.8-4.5,1.6-9.1,3.1-13.4
	c1.5-4.2,4.2-7.2,7.9-9.2c2.5-1.3,5.3-2.2,8.3-1.9c0.3,0,0.6,0.1,0.9,0.1c1.8,0.4,3.4,1.3,5,2.1c1.9,0.9,3.6,2.3,4.8,4
	c1.1,1.5,2.5,2.8,3.3,4.6c0.5,1,1.3,2,2,3c2.3,3.5,4.2,7.1,5.4,11.2c0.5,1.6,1.3,3.2,2.1,4.8c0.8,1.6,1.6,3.1,2.4,4.6
	c0.3,0.7,0.7,1.3,1.5,1.6c0.7,1.6,1.6,3.1,3,4.1c1.5,1.8,3.4,2.9,5.6,3.7c2.9,1.1,5.9,1.8,8.8,3.1c2.9,1.2,5.5,2.9,7.7,5.1
	c1.9,1.8,3.5,3.9,4.3,6.5c0.1,0.3,0.3,0.5,0.5,0.7c0.6,0.4,0.8,1.1,1.1,1.7c0.9,1.8,1.5,3.6,2.1,5.5c0.7,2.2,1.2,4.4,0.9,6.7
	c-0.1,0.8-0.4,1.6-0.5,2.4c-0.1,0.8-0.1,1.6-0.2,2.8c-0.7-1.2-1-2-1.6-2.7c-1.8-2-3.1-4.3-4.1-6.7c-0.3-0.6-0.6-1.2-0.9-1.8
	c0-0.2,0-0.5-0.1-0.7c-1.1-2.1-2.1-4.4-3.4-6.4c-1.2-1.8-2.6-3.5-4.3-4.9c-1.9-1.5-4.3-2.2-6.4-3.4c-0.8-0.4-1.6-0.2-2.5-0.3
	c-0.3-0.1-0.6-0.1-0.9-0.2c-2.5-0.9-5.1-1.8-7.4-3.3c-2.7-1.8-5.2-3.9-6.9-6.7c-0.3-0.5-0.6-1-1-1.5c-1.8-2.3-3.1-5-4.3-7.7
	c-1-2.3-2-4.7-2.9-7.1c-0.9-2.4-1.9-4.7-3.4-6.8c-0.9-1.3-1.8-2.6-2.5-4c-1.3-2.6-3.1-4.8-5.4-6.7c-1.4-1.2-3-2-5-1.8
	c-2.5,0.3-4.7,1.4-6.5,3c-2.2,2-3.4,4.6-3.8,7.5c-0.1,0.4-0.1,0.8-0.2,1.1c-0.8,2.5-1.2,5-1.5,7.5l-0.1,0.1l0.1,0.2
	c-0.3,0.3-0.3,0.6-0.2,1c-0.3,2-0.7,4.1-0.6,6.2c-0.4,0.7,0,1.1,0.6,1.5c0.2,0.1,0.4,0.4,0,0.5c-1.2,0.3-1.1,1.3-1.1,2.2
	c-0.1,2.9,0,5.7,0.3,8.6c0.2,2.5,0.9,4.9,1.2,7.4c0.2,1.5,0.7,2.9,1.3,4.3c0.9,2.1,1.7,4.2,2.5,6.3c0.5,1.3,0.9,2.6,1.7,3.7
	c0.8,1.1,0.9,2.5,1.8,3.6c1,1.3,1.6,2.9,2.3,4.4c0.5,1,0.6,2,0.6,3.1c0,0.5,0,0.9-0.4,1.2c-0.6,0.4-0.6,1.1-0.4,1.6
	c1,2.6,0.4,5.6,1.7,8.2c0,0.1,0,0.1,0,0.2c0.1,2,0.4,4.1,0.5,6.1c0,2.6,0.4,5.1,0.5,7.7c0,0.2,0,0.5,0,0.7c0,4.8-0.1,9.7-0.1,14.5
	c0,1.3-0.2,2.6-0.2,3.8c0,1.3,0.1,2.5,0,3.8c-0.2,3.5-0.2,6.9-0.4,10.4c-0.2,3.8-0.5,7.7-1,11.5c-0.5,3.4-0.9,6.9-1.5,10.3
	c-0.4,2.5-1.3,4.8-2.2,7.1c-0.3,0.7-0.5,1.2-0.1,1.9c0.3,0.4,0.2,1.1,0.6,1.5c0.6,1.9,1.2,3.7,1.8,5.6c0.8,2.3,1.6,4.6,2.3,6.9
	c0.5,1.5,0.8,3.1,1.3,4.6c0.3,0.9,0.7,1.8,1,2.8c1.3,4.3,2.2,8.8,3.3,13.2c0.2,0.7,0.6,1.4,0.7,2.1c0.7,3.3,1.4,6.6,1.9,10
	c0.6,3.7,1.2,7.4,1.4,11.2c0,0.9,0.2,1.8,0.5,2.7c0.5,1.4,1.1,2.8,1.5,4.3c0.3,0.8,0.6,1.6,0.5,2.4c0,0.4,0,0.8,0.1,1.1
	c0.8,1.3,0.8,2.7,1.1,4.1c0.6,2.6,1.3,5.1,1.8,7.7c0.8,4.2,1.5,8.3,2.1,12.5c0.5,3.3,1.1,6.6,1.6,9.8c0.1,0.6-0.2,1.4,0.4,1.6
	c0.8,0.3,1-0.7,1.4-1.2c0.2-0.2,0.4-0.5,0.5-0.7c1-1.6,1.9-3.3,2.9-4.9c3.2-5.4,6.8-10.6,9.6-16.2c2.9-5.5,6.3-10.7,9.2-16.1
	c1.5-2.9,3.4-5.5,5.1-8.3c0.2-0.3,0.5-0.6,0.7-0.9c1-1.6,2.1-3.2,2.9-4.9c0.7-1.6,1.6-3.1,2.6-4.5c0.3-0.4,0.7-0.8,0.9-1.3
	c1.3-2.9,3.1-5.5,4.6-8.3c0.9-1.7,2-3.4,3-5.1c1.2-2.1,2.4-4.2,3.5-6.4c1.1-2.1,2.3-4.1,3.2-6.2c0.6-1.5,1.4-3,2.2-4.5
	c1.7-3.5,3.1-7,4.7-10.6c0.8-1.7,1.6-3.4,2.3-5.2c0.5-1.2,1.2-2.3,1.6-3.5c0.5-1.8,1.4-3.5,2.1-5.3c0.9-2.2,1.7-4.5,2.6-6.8
	c1.1-2.9,1.8-5.9,2.7-8.9c1.2-4,2.2-8,3-12.1c0.8-3.9,2-7.8,2.1-11.8c0-0.2,0-0.5,0.1-0.7c0.7-2.6,0.8-5.2,1.1-7.8
	c0.1-1,0.2-2,0.5-2.9c0.4-0.9,0.4-1.9,0.4-2.9c0-1.4,0-2.7,0.2-4.1c0.5-3.1,0.7-6.1,0.8-9.2c0-0.5,0.1-0.9,0.2-1.3
	c0.4-1.7,0.6-3.4,0.7-5.2c0.1-1.8,0.4-3.6,0.6-5.6c0.6,0.7,0.6,1.4,0.7,2.1c0.2,1.8,0.5,3.6,0.7,5.4c0.1,1.1,0.2,2.1,0.5,3.1
	c0.3,1.3,0.2,2.7,0.3,4.1c0,0.5,0,0.9,0,1.4c0.1,2.5,0.2,5,0.4,7.5c0.1,1.2-0.4,2.4-0.1,3.6c-0.6,2.1-0.1,4.2-0.3,6.3
	c-0.2,2.3-0.3,4.7-0.9,6.9c-0.1,0.6-0.1,1.2-0.2,1.8c-0.1,2.3-0.8,4.4-1.2,6.6c-0.3,1.7-0.7,3.4-0.9,5.1c-0.3,1.9-1.2,3.6-1.2,5.5
	c-1.4,3.2-1.6,6.7-3.1,9.9c-0.8,1.7-1,3.6-1.7,5.4c-1,2.7-2.1,5.3-3.1,8c-0.3,0.8-0.6,1.5-0.9,2.3c-0.8,2.2-1.7,4.3-2.9,6.4
	c-0.5,0.9-0.5,1.8-1,2.8c-0.7,1.5-1.5,3-2.2,4.4c-0.2,0.4-0.3,0.9-0.4,1.3c-0.3,0.8-0.4,1.6-1.1,2.2c-0.2,0.2-0.4,0.5-0.5,0.8
	c-2,5.5-5,10.5-7.5,15.7c-0.4,0.2-0.6,0.5-0.5,0.9c0,0,0-0.1,0-0.1c-0.3,0.2-0.5,0.6-0.4,1c0,0,0,0,0,0c-0.4,0.2-0.5,0.5-0.5,0.9
	c0,0,0-0.1,0-0.1c-0.4,0.2-0.6,0.5-0.5,1c0,0,0,0,0,0c-0.4,0.2-0.6,0.5-0.5,0.9l0,0c-0.3,0-0.5,0.3-0.7,0.6c-0.6,1-1.1,2-1.7,2.9
	c-0.7,1.2-1.6,2.4-2.2,3.7c-0.8,1.7-1.7,3.2-2.6,4.7c-1.1,1.8-2.4,3.5-3.3,5.4c-1.3,2.7-3.5,5-4.5,7.8c-0.1,0.2-0.3,0.4-0.4,0.5
	c-0.9,1.5-1.9,2.9-2.8,4.4c-1.1,1.9-2.2,3.8-3.4,5.6c-1.3,1.9-2.1,4-3.4,5.8c-0.7,0.9-1.1,2.2-1.8,3.1c-0.2,0.3-0.2,0.6-0.1,0.9l0,0
	c-0.4,0.1-0.5,0.4-0.5,0.7c0,0,0,0,0,0c-0.4,0.2-0.5,0.5-0.5,0.9c-1.9,3.1-3.8,6.2-5.7,9.3c-0.6,1-1.2,2.1-2,3
	c-0.6,0.7-0.9,1.6-1.4,2.3c-2.2,2.8-3.5,6.2-6.1,8.7c-1.5,1.4-2.5,3.2-4.3,4.3c-0.6,0.4-0.7,0.9-0.7,1.6c0.1,1.2,0.2,2.4,0.4,3.6
	c0.8,4.6,1.6,9.1,2.4,13.6c0.5,2.9,0.9,5.8,1.3,8.7c0.5,3.7,1,7.5,1.4,11.2c0.3,3.2,0.6,6.5,0.7,9.7c0.1,2.1,0.1,4.2,0,6.3
	c0,0.2,0,0.3,0,0.5c0.5,2.9-0.1,5.9-0.1,8.8c-0.1,2-0.3,4-0.6,6.1c-0.2,1.5-0.3,3-0.5,4.5c-0.1,0.4,0,0.9-0.1,1.3
	c-0.8,3-0.8,6.1-1.5,9.2c-0.1,0.3,0,0.6-0.1,0.9c-0.9,1.7-0.8,3.7-1.1,5.5c-0.7,3.6-1.5,7.1-2.4,10.6c-0.6,2.3-1.5,4.5-2.1,6.7
	c-0.4,1.2-1.1,1.7-2.3,1.8c-0.3,0-0.6,0.1-0.9,0.1c-1,0.1-1,0.1-1.4-1.2c0.3-0.4,0.2-0.9,0.2-1.3c0.1-1.4,0.2-2.7,0.1-4.1
	c0-1.4,0.3-2.7,0.6-4c0.4-2.2,0.3-4.4,0.8-6.5c0.2-1.1,0.4-2.2,0.7-3.3c0.2-1,0.3-2.1,0.5-3.1c0.9-4.5,1.5-9.1,2.1-13.7
	c0.3-2.2,0.6-4.3,0.8-6.5c0.1-1.4,0.1-2.7,0.2-4.1c0.1-1.2,0.4-2.4,0.3-3.6c-0.2-3.5,0.2-7-0.4-10.4c-0.1-0.4,0-0.8,0-1.1
	c-0.1-3.3-0.5-6.5-0.7-9.7c-0.2-3-1-6-1.1-9c-0.1-1.5-0.5-3-0.7-4.5c-0.4-3.5-1.1-6.9-1.8-10.3c-0.8-3.6-1.3-7.3-2-10.9
	c-0.3-1.9-0.7-3.7-0.9-5.6c-0.4-3.5-1.2-6.8-1.5-10.3c-0.2-2.9-0.8-5.8-1.3-8.8c-0.2-1.3,0-2.6-0.4-3.8c-0.9-2.7-1-5.5-1.4-8.3
	c-0.3-1.7-0.8-3.4-1.1-5.1c-0.5-2.8-1.2-5.5-1.8-8.2c-0.4-2-0.8-4-1.3-6c-0.6-2.6-1.3-5.1-1.9-7.7c-0.8-3.2-1.4-6.4-2.3-9.5
	c-0.8-2.7-1.1-5.5-2.3-8.1c-0.2-0.3-0.3-0.7-0.3-1.1c-0.6-3-1.6-5.8-2.5-8.7c-0.3-0.9-0.6-1.9-0.8-2.8c-0.2-1.1-0.8-2.1-1.1-3.2
	c-0.9-2.7-1.7-5.4-2.7-8c-0.9-2.4-1.9-4.8-2.6-7.2c-0.5-1.7-1-3.3-1.8-4.9c-0.2-0.3-0.3-0.7-0.3-1.1c-0.1-1.1-0.4-2.1-1.2-2.9
	c-0.3-0.3-0.4-0.6-0.5-1c-0.5-2.2-1.8-4.1-2.6-6.3c-0.8-2.2-2.2-4.1-2.7-6.5c-0.1-0.4-0.2-0.7-0.5-1c-2.8-4-4.8-8.4-7.2-12.6
	c-1.6-1.8-2.3-4.1-3.7-5.9c-1.2-1.5-2.1-3.3-3.2-5c-0.2-0.3-0.3-0.5-0.5-0.8c-1.8-2.6-3.5-5.1-5.3-7.6c-1.5-2-3.2-3.8-4.7-5.8
	c-2.2-2.9-4.8-5.5-7.1-8.2c-1.7-2.1-3.6-4.1-5.5-6.1c-1.9-1.9-3.7-4-5.8-5.7c-1.6-1.3-3.1-2.7-4.7-3.9c-1.2-0.9-2.4-1.8-3.7-2.6
	c-2.2-1.6-4.4-3.2-6.6-4.8c-3.1-2.3-6.2-4.6-9.3-6.9c-1.6-1.2-3-2.5-4.7-3.4c-0.4-0.5-0.8-1-1.5-1c0,0,0,0,0,0
	c-0.2-0.7-0.8-1.1-1.3-1.5c-3.1-2.1-6.3-3.9-9.3-6.1c-0.2-0.2-0.5-0.3-0.8-0.4c-2.1-1.1-4.1-2.2-6.2-3.3c-1.6-0.8-3.2-1.6-4.9-2.4
	c-2.3-1-4.8-1.5-6.8-2.9c-0.1-0.1-0.3-0.1-0.4-0.1c-2.5-0.4-5-0.7-7.4-0.6c-1.3,0.1-2.7,0.3-4,0.3c-4.1,0.1-8.3,0.8-12.4,0.2
	c-0.1,0-0.3,0-0.4,0c-3.5,0.6-7,0.2-10.4,0.4c-1.6,0.1-3.2,0-4.7,0.3c-0.5,0.1-1.1,0-1.6,0c-1.7,0.2-3.4-0.2-5.2,0.1
	c-1.9,0.2-3.8,0.4-5.7,0.4c-2.1,0.1-4.1,0.4-6.1,0.8c-2.2,0.4-4.5,0.9-6.7,1.2c-2.5,0.4-5,1.1-7.5,1.7c-2.3,0.6-4.5,1.3-6.8,1.7
	c-0.7,0.1-1.4,0.2-2,0.5c-2.5,1.1-5.3,1.6-7.9,2.5c-1.2,0.4-2.4,0.7-3.6,1.2c-3.5,1.4-7,2.9-10.4,4.3c-2.1,0.9-4.3,1.4-6.1,2.9
	c-3.7,1.3-6.7,3.7-10.2,5.5c-1.6,0.8-3.1,1.8-4.6,2.8c-1.5,1-3,2-4.5,3c-2.8,1.9-5.8,3.5-8.4,5.8c-0.2,0.1-0.4,0.3-0.6,0.4
	c-1.3,0.4-2.1,1.4-3.1,2.2c-1.1,0.9-2.2,1.8-3.3,2.7c-0.3,0.2-0.7,0.4-0.9,0.7c-1.6,2.1-3.8,3.7-5.6,5.6c-1,1-2.4,1.6-2.9,3.1
	c-0.1,0.4-0.7,0.6-1,0.8c-0.2,0.2-0.6,0.3-0.7,0.5c-0.5,1.4-1.8,2.2-2.7,3.3c-1.6,2-2.9,4.2-5,5.8c-0.4,1.5-1.7,2.3-2.4,3.5
	c-0.8,1.2-1.7,2.3-2.6,3.4c-0.7,0.8-1.2,1.7-2.1,2.3c-0.8,1.7-2.5,2.8-3.5,4.5c-0.2,0.4-0.5,0.8-0.8,1.1c-1.9,1.6-3.6,3.5-6,4.5
	c-0.4,0.2-0.9,0.5-0.9,0.9c-0.5,2.6-1.9,4.7-2.9,7.1c-0.1,0.3-0.3,0.5-0.4,0.8c-0.2,0.4,0,0.7,0.4,0.9c0.3,0.1,0.5,0.3,0.8,0.4
	c1.8,0.7,3.3,2.1,5.2,2.6c2.2,1.5,4.6,2.6,6.9,3.9c3.2,1.9,6.1,4.2,9.3,6.1c0.8,0.7,1.6,1.3,2.4,2c3.4,2.5,6.4,5.5,9.2,8.7
	c0.6,0.7,1.1,1.6,1.7,2.4c2.9,3.7,5.1,7.8,6.9,12.2c1,2.6,2.1,5.2,3,7.8c0.7,2.1,1.5,4.3,2.1,6.5c0.8,2.7,1.5,5.5,1.4,8.5
	c0,0.7,0.2,1.3,0.2,2c0.1,0.7,0.3,1.4,0.1,2c-0.5,2.3,0,4.6,0.3,6.8c0.5,3.4,1,6.9,1.4,10.3c0.1,1,0.2,2.1,0.1,3.1
	c-0.1,1.2-0.3,2,1.2,2.2c0.4,0.1,0.7,0.5,0.9,1c0.3,0.6,0.5,1.3,0.7,1.9c0.2,0.7,0.4,1.5,0.7,2.2c2.2,5.3,3.7,10.9,5,16.5
	c0.6,2.6,1.1,5.2,1.5,7.8c0.3,1.8,0.7,3.7,1.1,5.6c0.3,1.5,0.5,3,0.5,4.5c0,0.5,0,1.1,0.1,1.6c0.9,2.8,1,5.6,1.2,8.5
	c0.2,2.5,0.5,5,0.7,7.5c0,0.3,0.1,0.6,0,0.9c-0.4,3.6,0,7.3-0.5,10.9c-0.3,2.8-0.6,5.7-1.5,8.5c-0.3,1-0.4,2.1-0.7,3.1
	c-1,3.7-2.3,7.2-3.8,10.6c-0.7,1.7-1.7,3.4-2.4,5.1c-1.2,3.1-2.7,6.1-4.2,9c-1.4,2.5-2.8,5-4.6,7.3c-1.4,1.8-2.5,3.8-4.1,5.4
	c-2.7,2.8-5.4,5.5-8.7,7.6c-1.4,0.9-2.7,1.9-4.1,2.8c-1.9,1.2-3.9,2.2-6,3.2c-1.5,0.7-3.1,1.1-4.6,1.9c-0.6,0.3-1.3,0.6-1.9,0.6
	c-1.5,0-2.8,0.8-4.2,1.1c-0.4,0.1-0.7,0.3-0.8,0.7c-0.5,2.7-2.6,4.2-4.5,5.8c-1.9,1.6-4.3,2.5-6.5,3.7c-3.2,1.9-6.7,3.1-10.3,4
	c-0.8,0.2-1.6,0.5-2.4,0.8c-0.9,0.3-1.9,0.5-2.9,0.5c-0.5,0-1.1,0.1-1.6,0.2c-3.4,1-7,1.3-10.5,1.6c-1.4,0.1-2.7,0.2-4.1,0.4
	c-4.9,0.6-9.8,0.4-14.7,0.4c-3.9,0-7.7-0.3-11.6-0.5c-0.1-0.2-0.2-0.2-0.3-0.1c-0.1,0.1-0.1,0.3,0.1,0.3c0,2.4,0.1,4.7,0.5,7.1
	c0.1,0.8,0.1,1.6-0.2,2.4c-0.4,0.4-0.7,0.8-1.1,1.2c-0.5,0.4-1,0.6-1.7,0.6c-1.3-0.1-2.7-1.5-2.9-2.8c-0.1-0.8,0-1.5,0-2.3
	c0-2.7-0.3-5.3-0.8-8c-3.3-0.2-6.5-1-9.8-1.6c-2-0.4-4-0.8-6-0.9c-0.3,0-0.6,0-0.9-0.2c-1.1-0.6-2.3-0.6-3.5-0.9
	c-1.6-0.3-3.1-0.6-4.5-1.5c-3.7-0.9-7-2.8-10.4-4.4c-3.6-1.6-7.2-3-10.7-4.9c-3.1-1.6-6.2-3.1-9-5.1c-1.4-1-2.9-1.8-4.2-3
	c-1.1-0.9-2.2-1.8-3.2-2.7c-1-0.9-2-1.9-2.9-2.9c-2.2-2.3-4.4-4.5-6.5-6.9c-1.5-1.6-3-3.2-4.3-5c-1-1.3-1.8-2.8-3.2-3.8
	c-0.4-0.2-0.6-0.7-0.8-1.1c-1.3-2-2.7-4-4-6c-0.4-0.6-0.7-1.1-0.9-1.8c-0.4-1.3-1.1-2.5-1.9-3.5c-1.6-2-3.2-4-4.5-6.2
	c-1.1-1.8-2.3-3.7-3.6-5.5c-1.6-2.3-2.9-4.7-4.5-7c-1.8-2.6-3-5.4-4.6-8c-0.4-0.6-0.6-1.2-0.9-1.8c-0.4-0.8-0.7-1.6-1.3-2.3
	c-0.7-0.9-1.2-1.9-1.6-3c-0.5-1.4-1.3-2.7-2-4.1c-1-2.1-2.1-4.2-3-6.3c-1.1-2.4-2-4.9-3.1-7.3c-0.2-0.4-0.2-0.9-0.3-1.3
	c0-0.4-0.1-0.7-0.3-1.1c-1.1-1.4-1.5-3-1.7-4.6c-0.3-2.3-1.1-4.6-1.6-6.8c-0.8-3.4-1.5-6.8-1.9-10.2c-0.3-2.6-0.6-5.2-0.9-7.8
	c-0.3-3.1-0.3-6.2-0.3-9.3c0-3.7,0.9-7.3,1.5-11c0.4-2.5,1.1-4.9,1.7-7.3c0.5-1.7,0.8-3.4,1.3-5c1-3.3,1.8-5.4,3.4-8.3
	c1.7-3.2,3.7-6.2,5.9-9.1c1.3-1.7,2.6-3.3,3.8-5c1.3-1.9,2.5-3.9,3.8-5.9c0.8-1.1,1.4-2.3,2-3.5c0.6-1.2,1.5-2.3,2.1-3.5
	c1.4-2.6,3.3-4.9,4.8-7.4c0.8-1.3,1.8-2.4,2.7-3.6c0.4-0.5,0.6-0.9,0.7-1.6c0-2.6-0.1-5.1-0.8-7.6c-0.4-1.7-0.8-3.4-1-5.1
	c-0.1-1.3-0.7-2.5-0.9-3.7c-0.4-2.6-1.3-5-1.9-7.4c-0.4-1.5-0.8-3.1-1.1-4.6c-0.4-1.8-0.8-3.5-1-5.3c-0.5-3.8-1.3-7.6-1.5-11.4
	c-0.1-1.4-0.6-2.8-0.3-4.3c-1-1.8-0.4-3.9-0.9-5.8c-0.2-0.9-0.2-1.8-0.1-2.7c0.1-1.9-0.4-3.9,0.4-5.8c0.2-0.6,0-1.3,0.1-2
	c0.3-2.4,1-4.7,1.8-7c0.9-2.6,2-5.1,3-7.6c1.3-3.3,3.1-6.2,5.6-8.7c0.4-0.4,0.8-0.9,1.2-1.4c0.7-0.8,1.3-1.7,2.3-2.2
	c0.2-0.1,0.4-0.2,0.6-0.4c2.7-2.9,6.2-4.4,9.9-5.8c3.2-1.2,6.5-1.9,9.9-2.2c1.3-0.1,2.7,0.1,4.1,0.1c1.3,0,2.5,0.5,3.7,0.9
	c1.6,0.5,3.2,1.5,5,1.3c0.3,0,0.4,0.2,0.3,0.5c-0.2,0.4,0,0.6,0.2,0.7c0.4,0.3,0.9,0.5,1.4,0.9c-0.7,0.6-1.5-0.2-2.1,0.4
	c-0.6-0.3-1.3-0.4-2-0.3c-3.3,0.3-6.6,0.4-9.9,0.8c-1.9,0.2-3.7,0.6-5.6,1c-1.6,0.4-2.8,1.4-4.2,2.3c-1.3,0.8-2.6,1.5-4,2.2
	c-2.6,1.3-4.9,3.1-6.2,6c-0.6,1.4-1.5,2.6-2.3,3.9c-0.3,0.5-0.6,0.9-0.8,1.4c-0.8,1.7-1.7,3.4-2.4,5.1c-0.4,1-0.8,2-0.9,3
	c-0.8,4.9-1.1,9.8-0.4,14.7c0.3,2.4,0.6,4.8,1.3,7.1c0.1,0.5,0.1,1,0.2,1.6c0,0.4,0,0.8,0.1,1.1c0.9,2.2,1.2,4.7,1.8,7
	c1,3.6,2.1,7.1,2.9,10.7c1.1,4.9,2.5,9.8,3.3,14.8c0.3,2,0.7,4,0.6,6.1c-0.1,0.7,0,1.4,0.3,2c0.6,1.1,0.5,2.2,0.4,3.3
	c-0.2,2.7-1,5.2-2.1,7.5c-0.7,1.5-1.5,3-2.5,4.3c-1.3,1.8-2.5,3.6-3.6,5.5c-1.1,2-3,3.5-4,5.5c-1.3,1-2.2,2.3-3.2,3.5
	c-1.1,1.4-2.3,2.8-3.2,4.3c-1.5,2.4-3.3,4.7-5,7c-1.4,1.9-2.4,4-3.4,6.1c-1,2.1-1.8,4.3-2.7,6.5c-1.6,3.9-2.4,7.9-3.2,12
	c0,0.2-0.1,0.4-0.1,0.7c-0.3,4-0.6,8-0.5,12c0.1,1.9,0.5,3.8,0,5.6c-0.1,0.3,0,0.8,0.1,1.1c0.5,1.8,0.7,3.7,0.7,5.6
	c0,2.3,0.5,4.5,1,6.7c0.1,1.8-0.3,3.6,0.7,5.3c0.3,2.7,1,5.3,1.8,7.9c0.8,3,1.7,5.9,2.6,8.9c0.5,1.5,1.2,2.9,1.7,4.4
	c1.1,3.7,2.6,7.2,4.4,10.7c1.1,2.1,2.3,4.1,3.5,6.1c1.2,2.2,2.3,4.5,4,6.5c0.3,0.3,0.5,0.8,0.7,1.2c0.7,2,2.2,3.6,3.2,5.4
	c0.7,1.3,1.6,2.5,2.5,3.8c1.2,1.7,2.1,3.5,3.6,4.9c0.3,0.3,0.5,0.8,0.8,1.1c2,2.7,3.9,5.4,6.2,7.8c1.6,1.7,3.2,3.4,4.8,5.1
	c0.4,0.4,0.8,0.9,1.4,1c0,0,0,0,0,0c0,0.3,0.2,0.5,0.5,0.5c0,0,0,0,0,0c0.2,0.8,0.5,1.3,1.4,1.4c0,0,0,0,0,0c0,0.3,0.2,0.5,0.5,0.5
	c0,0,0,0,0,0c0,0.3,0.1,0.6,0.5,0.5l0,0c-0.1,0.4,0,0.6,0.5,0.5c0,0,0,0,0,0c0.1,0.8,0.1,0.9,1,1c0,0,0,0,0,0
	c-0.1,0.4,0,0.7,0.5,0.5c0,0-0.1-0.1-0.1-0.1c-0.2,0.2-0.2,0.4,0,0.6c0.9,1.3,1.9,2.5,3,3.6c2.1,2.2,4.2,4.3,6.6,6.2
	c1.8,1.4,3.6,2.9,5.4,4.4c0.6,0.5,1.1,1,1.9,1.2c0,0,0,0,0,0c0.1,0.2,0.1,0.5,0.3,0.6c4.1,3.2,8.3,6.2,12.8,8.9
	c0.4,0.3,1,0.4,1.5,0.6l0,0c0.4,0.6,1,0.9,1.6,0.9c0.9,1,2.2,1.3,3.4,1.8c2.6,1.2,5.3,2.2,8,3.2c1.9,0.7,3.9,1.1,5.9,1.6
	c0.6,0.2,1.1,0.4,1.7,0.6c0.3,0.1,0.5,0.4,0.8,0.4c1.3,0,2.5,0.7,3.7,0.9c3,0.5,5.9,1.2,8.8,2c3.5,0.9,7.1,1.6,10.6,2.4
	c1.6,0.4,3.3,0.2,5,0.2c1.7,0,3.5-0.3,5.2-0.3c4.9,0,9.6-0.9,14.5-1c1,0,1.9-0.3,2.9-0.4c3.3-0.5,6.6-0.8,9.8-1.6
	c3.5-0.8,6.9-2,10.3-3.4c2.5-1,4.7-2.4,7-3.7c0.2-0.1,0.4-0.4,0.7-0.6c-0.2-0.6-0.6-0.3-1-0.4c-3-0.4-6-0.7-9-1
	c-2.2-0.3-6.9-1.7-8.9-2.6c-1.4-0.6-2.7-1.2-4-1.8c-0.1-0.3,0-0.4,0.2-0.4c2.2,0.2,4.4-0.1,6.6,0.3c1.2,0.2,2.4,0.1,3.6,0.1
	c4.1,0.1,8.2,0.2,12.3-0.1c2.3-0.1,4.6-0.6,6.9-1c2.8-0.4,5.4-1.6,8.1-2.2c0.4-0.1,0.8-0.4,1.2-0.6c1.5-0.6,3-1.1,4.3-1.9
	c1.3-0.9,2.7-1.7,4.1-2.4c0.4-0.2,0.8-0.5,1.1-0.7c2.3-1.9,4.6-3.7,6.8-5.7c1.5-1.4,2.9-3.1,4.2-4.8c2.1-2.7,3.9-5.5,5.6-8.5
	c2.8-5.2,5.2-10.6,7.6-16c1.4-3.3,2.5-6.8,3.3-10.4c0.5-2.3,0.9-4.6,1.4-6.9c0.1-0.5,0.1-1.1,0.1-1.6c0-0.4-0.1-0.8,0-1.1
	c0.7-3.3,0.4-6.6,0.3-9.9c-0.1-3.3-0.3-6.6-0.6-9.9c-0.3-3.5-1-6.9-1.2-10.4c-0.1-2.1-0.7-4.2-1.1-6.2c-0.7-3.6-1.3-7.3-2-10.9
	c-0.2-1.3-0.5-2.5-0.8-3.8c-0.7-3.1-1.5-6.2-2.2-9.3c-0.2-1.1-1-2-1.3-3.1c-0.4-1.1-0.7-2.2-1.5-3c-0.3-0.3-0.4-0.8-0.6-1.2
	c-0.1-0.2-0.2-0.3-0.3-0.5l0,0.1c-0.4-2-1-4-1.7-6c0-0.3-0.1-0.5-0.1-0.8c0-0.1,0.1-0.1,0.1-0.2c0-0.1-0.1-0.2-0.2-0.3
	c-0.3-2.3-0.7-4.6-1-6.9c-0.7-4.9-1.5-9.9-2.5-14.8c-0.3-1.5-0.6-2.9-1-4.4c-0.3-1-0.4-2-1.1-2.9c-0.1-0.2-0.3-0.4-0.3-0.6
	c0-1.5-0.8-2.7-1.4-4c-0.9-2.2-1.7-4.3-2.8-6.4c-0.7-1.4-1.4-2.9-2.2-4.2c-0.5-0.9-1-1.7-1.4-2.6c-0.3-0.7-0.6-1.3-1.3-1.8
	c-0.4-0.3-0.6-0.7-0.9-1c-1.1-1.4-2.3-2.8-4-3.6c-0.4-0.2-0.8-0.4-1.1-0.8c-1.4-1.4-3.1-2.4-4.4-3.8c-0.6-0.7-1.4-1.3-2.3-1.8
	c-1.7-1-3.3-2.2-4.9-3.3c-0.6-0.4-1.2-0.9-1.9-1.3c-2.6-1.7-5.4-2.9-8.2-4.3c-1.5-0.8-2.9-1.7-4.6-1.8c-0.5,0-1-0.3-1.5-0.5
	c-0.9-0.5-2-0.8-3-1c-1.2-0.3-2.5-0.6-3.8-0.8c-5.6-1.1-11.2-2.5-16.9-3.1c-4-0.4-7.9-1.1-11.9-1.1c-2,0-3.9-0.1-5.9,0.1
	c-3.7,0.2-7.4,0.4-11,1c-1.9,0.3-3.8,0.5-5.6,0.8c-3.1,0.5-6.1,1-9.2,1.5c-1.2,0.2-2.4,0.5-3.6,0.7c-1.9,0.2-3.7,0.4-5.5,0.9
	c-0.6,0.2-1.2,0.2-1.8,0.3c-1.9,0.3-3.7,0.6-5.6,0.8c-3.1,0.5-6,1.4-9,2.3c-1.1,0.3-2.2,0.3-3.2,1c-0.5-0.1-1.1,0-1.6-0.2
	c-0.9-0.3-1.2-1.3-0.6-2c0.2-0.3,0.6-0.5,0.9-0.7c0.6-0.3,0.9-0.7,1.1-1.3c0.2-0.9,1-1.6,1.7-2c1-0.6,2.1-1.3,3.3-1.4
	c0.4,0,0.7-0.2,1.1-0.3c2.4-1.1,4.9-1.8,7.6-2c0.4,0,0.7-0.1,1-0.4c0.2-0.1,0.5,0,0.4-0.4c0,0,0,0.1,0,0.1c0.1,0.1,0.3,0.2,0.4,0.2
	c1.7-0.4,3.3-0.7,4.9-1.3c1.1-0.4,2.2-0.7,3.4-1c1-0.2,1.5-0.6,1.7-1.7c0.3-2.3,0.6-4.6,0.6-7c0-1.3,0.2-2.5-0.1-3.8
	c-0.1-2-0.2-4.1-0.4-6.1c-0.6-7.4-1.9-14.7-3.5-22c-0.6-3-1.4-6.1-2.3-9c-0.7-2.1-1.6-4.2-2.8-6.1c-0.2-0.3-0.5-0.6-0.6-1
	c-0.9-2.5-2.9-4.4-4.5-6.5c-1.5-2.1-3.2-4-5.1-5.8c-3-2.8-6.3-5.1-10.3-6.4c-1-0.3-2-0.8-2.9-1.4c-0.5-0.3-0.8-0.7-0.7-1.3
	c0.1-0.7,0.6-1.2,1.4-1.3c0.6-0.1,1.2-0.1,1.8,0c0.2,0,0.4,0.2,0.6,0.2c2.7,0,4.9,1.3,7.4,2c0.7,0.2,1.5,0.3,2.2,0.6
	c1.6,0.6,3.3,1.2,4.6,2.4c1.1,1.1,2.6,1.8,3.8,2.9c2.8,2.6,4.8,5.8,7.2,8.7c0.1,0.2,0.3,0.4,0.4,0.6c0.7,1.6,1.8,3,2.8,4.4
	c1.5,2,2.4,4.4,3.4,6.7c0.7,1.7,1.3,3.4,2,5c0.1,0.1,0.1,0.3,0.1,0.4c0.6,3.4,2.1,6.6,2.5,10.1c0.2,1.6,0.3,3.3,0.7,4.9
	c0.6,2.5,0.5,5.1,0.8,7.7c0.3,3,0.6,6,0.3,9c0,0.4,0,0.8,0,1.1c0.3,2.8,0.3,5.6,0.5,8.4c0,0.6,0.2,0.8,0.9,0.7
	c1-0.2,1.9-0.4,2.9-0.6c3.5-0.6,7-1.4,10.5-1.6c1.7-0.1,3.4-0.6,5.2-0.2c0.3,0.1,0.7-0.1,1.1-0.2c1.9-0.3,3.7-0.4,5.7-0.2
	c1.1,0.1,2.3,0,3.4,0.1c2.9,0.1,5.9,0.3,8.8,0.8c2.2,0.4,4.3,0.7,6.5,1c0.3,0,0.6,0,0.9,0.1c2.8,1.1,5.7,1.3,8.5,2.3
	c0.9,0.3,1.7,0.6,2.6,0.9c0.5,0.2,1,0.3,1.5,0.4c0.5,0.1,0.9-0.1,1.1-0.6c0.6-1.7,1.6-3.1,2.4-4.6c0.6-1.1,1.4-2,2.2-2.8
	c0.7-0.7,1.4-1.4,2.2-2c1.1-0.8,1.9-1.7,2.1-3.1c0-0.2,0.1-0.4,0.2-0.6c2-3.8,3.8-7.7,6.5-11.2c1.4-1.8,2.8-3.7,4.2-5.6
	c1.5-2,3.2-3.8,4.7-5.9c0.9-1.2,2-2.2,3-3.4c1.4-1.5,2.7-3.1,4.1-4.5c3-2.9,5.9-5.9,9.1-8.5c2-1.6,3.8-3.5,5.9-4.9
	c2.2-1.4,4.2-2.9,6.4-4.3c2.6-1.7,5.2-3.3,7.9-5c1-0.6,2-1.3,3-2c0.7-0.5,1.5-1.1,2.3-1.4c2-0.9,3.8-2.2,5.7-3.2
	c1.3-0.6,2.5-1.3,3.8-1.9c4.5-2.2,9.1-4.4,14-5.9c0.5-0.2,1-0.3,1.5-0.6c0.8-0.6,1.8-0.8,2.7-1.1c0.7-0.2,1.4-0.4,2.1-0.8
	c1-0.6,2.3-0.6,3.4-1c1.1-0.5,2.2-0.8,3.4-1.2c1.3-0.4,2.6-0.7,4-1c1.9-0.4,3.8-1,5.7-1.5c2.3-0.7,4.6-1.1,6.9-1.5
	c0.7-0.1,1.5-0.2,2.2-0.5c0.9-0.4,1.9-0.5,2.9-0.5c0.3,0,0.6,0,0.9-0.1c2.8-0.8,5.6-1.1,8.5-1.4c1.5-0.1,3-0.4,4.5-0.3
	c1.3,0.1,2.5-0.5,3.8-0.5c2,0.1,3.9,0,5.9,0c2,0.1,3.9,0,5.9-0.2c1.1-0.1,2.3,0.3,3.5-0.1c0.1-1,0-1.9-0.1-2.9
	c-0.8-8.2-1.2-16.5-0.9-24.8c0.1-4.8,0.4-9.5,1.1-14.3c0.8-6,2.1-11.8,4.6-17.3c1.4-3.2,3.2-6.2,5.6-8.8c4.9-5.4,11.1-8.1,18.3-8.2
	c3.8-0.1,7.5,0.7,11.2,1.5c3.3,0.8,6.6,1.6,10,2.2c5.9,1.2,9.6,5,11.3,10.7c1,3.2,1.1,6.6,0.8,9.9c-0.5,5.2-1.7,10.2-3.2,15.1
	c-3,9.7-6.9,19.1-11.3,28.3c-2,4.1-4.1,8.1-6.2,12.2c-0.3,0.5-0.6,1.1-0.9,1.6c-0.2,0.4,0,0.7,0.4,0.9c0.2,0.1,0.4,0.2,0.6,0.3
	c1.6,0.4,3.1,1.1,4.6,2c0.8,0.5,1.7,0.9,2.7,1.1c0.6,0.1,1.2,0.6,1.8,0.9c2.6,1.3,5.2,2.5,7.7,3.9c1.1,0.6,2.3,1.1,3.2,2.1
	c0.2,0.2,0.3,0.3,0.5,0.4c3,1.3,5.4,3.5,8.1,5.3c2.9,1.9,5.8,3.9,8.6,5.9c2.5,1.8,5.1,3.5,7.5,5.5c0.9,0.8,2,1.4,3,2
	c2.8,1.8,5.2,4,7.9,6.1c2.1,1.6,4,3.5,5.9,5.3c0.6,0.5,1.2,1,1.5,1.7c0.3,0.5,0.7,0.8,1.1,1.1c0.3,0.2,0.6,0.5,0.8,0.8
	c1.5,2,3.4,3.6,4.9,5.6c2.2,2.7,4.6,5.3,6.7,8c2,2.6,4.1,5,5.7,7.9c0.1,0.2,0.2,0.4,0.4,0.6c1.4,1.2,2.2,2.9,3.2,4.3
	c1.7,2.2,3,4.7,4.5,7c1.4,2.1,2.5,4.3,3.7,6.4c1,1.8,2.1,3.6,3.1,5.5c1.1,2.2,2.3,4.3,3.4,6.4c1.8,3.5,3.4,7,4.9,10.7
	c0.8,2.1,1.7,4.2,2.6,6.3c0.1,0.3,0.1,0.6,0.6,0.6c0.3-1.1,0.2-2.2,0.3-3.3c0.4-2.5,0.8-5.1,0.8-7.6c0.1-2,0.4-4.1,0.3-6.1
	c-0.1-2.7,0.3-5.4,0.4-8.2c0-2,0-3.9,0.1-5.9c0.1-3.3,0.2-6.7,0.3-10c0.1-3.2,0.1-6.3,0.1-9.5c-0.1-3.4-0.2-6.8-0.4-10.2
	c-0.2-4.8-0.5-9.5-0.9-14.3c-0.1-0.8,0-1.5-0.1-2.3c-0.1-1.6-0.1-3.2-0.2-4.8c-0.1-1.9-0.7-3.6-1.6-5.4c-0.9-1.7-1.9-3.3-2.6-5
	c-0.7-1.7-1.6-3.3-2.2-5c-1.3-3.3-2.5-6.6-3.2-10.1c-0.4-2.4-1-4.7-1.2-7.2c-0.2-2.6-0.2-5.1-0.3-7.7c0-0.3,0.2-0.6-0.2-0.9
	c-2,0-4.1,0-6.2-0.1c-2.9-0.2-5.7-0.1-8.6-0.2c-2.8-0.1-5.6-0.1-8.4-0.2c-1.5,0-3-0.2-4.5-0.2c-1.8,0-3.6-0.3-5.4-0.2
	c-1.1,0-2.1-0.1-3.1-0.4C518,318.1,517.9,318,518,316.3z M448.6,324.3c0.2-0.7,0.4-1.2,0.5-1.7c0.4-1.9,0.7-3.9,1.1-5.8
	c2.2-11.4,4.5-22.7,6-34.2c0.4-3,0.8-6,0.8-9.1c0-1,0-1-0.9-1.2c-1.8-0.3-3.6-0.6-5.4-0.8c-1.4-0.2-2.7-0.3-4.1-0.4
	c-0.8-0.1-1.2,0.3-1.6,1c-0.7,1.4-1.3,2.9-1.7,4.4c-1.2,4-1.8,8.1-2.3,12.3c-0.5,4-0.8,8-1,12c-0.4,7-0.8,13.9-1.1,20.9
	c0,0.4,0,0.7,0,1.4C442.1,323.2,445.3,323.4,448.6,324.3z"/>
<path class="st0" d="M630.5,351.4c0.3,0.6,0.7,1.2,0.9,1.8c1,2.5,2.4,4.7,4.1,6.7c0.6,0.6,0.9,1.5,1.6,2.7c0.1-1.2,0.1-2,0.2-2.8
	c0.1-0.8,0.4-1.6,0.5-2.4c0.2-2.3-0.2-4.5-0.9-6.7c-0.6-1.9-1.2-3.7-2.1-5.5c-0.3-0.6-0.5-1.2-1.1-1.7c-0.2-0.2-0.4-0.4-0.5-0.7
	c-0.8-2.6-2.4-4.7-4.3-6.5c-2.3-2.1-4.8-3.8-7.7-5.1c-2.9-1.2-5.9-2-8.8-3.1c-2.2-0.8-4.1-1.9-5.6-3.7c2,0.4,4.1,0.5,6.1,0.1
	c0.2,0,0.5,0,0.7,0c1.9,0.3,3.7,0.2,5.6-0.1c1.2-0.2,2.4-0.3,3.6-0.2c0.8,0.1,1.7,0,2.5-0.1c0.9-0.2,1.8-0.2,2.7-0.2
	c1.2,0,2.4,0,3.6,0c2.7,0,5.5,0.1,8.1,0.7c3.4,0.8,6.6,2,9.6,3.9c0.4,0.2,0.8,0.4,1.2,0.6c0.8,0.4,1.6,0.8,2.3,1.4
	c1.9,1.5,3.8,3,5.6,4.6c1.7,1.5,3.8,2.5,5.3,4.2c0.3,0.3,0.8,0.4,1.2,0.6c0.5,0.2,0.8,0.6,1.2,1c1,1.4,2.3,1.8,4,1.2
	c0.7,0.1,1.1,0.5,1.2,1.2c0.3,1.4,0.6,2.8,0.8,4.2c0.2,1.2,0.3,2.4,0.3,3.6c0.3,5.8,0.6,11.6,0.5,17.4c0,0.3-0.1,0.6-0.1,0.9
	c-0.2-1.8-0.5-3.6-0.7-5.4c-0.1-0.7-0.1-1.3-0.7-2.1c-0.2,2-0.5,3.8-0.6,5.6c-0.1,1.7-0.4,3.5-0.7,5.2c-0.1,0.4-0.2,0.9-0.2,1.3
	c-0.2,3.1-0.4,6.2-0.8,9.2c-0.2,1.3-0.2,2.7-0.2,4.1c0,1,0,2-0.4,2.9c-0.4,0.9-0.4,1.9-0.5,2.9c-0.3,2.6-0.4,5.3-1.1,7.8
	c-0.1,0.2-0.1,0.4-0.1,0.7c-0.2,4-1.4,7.9-2.1,11.8c-0.8,4.1-1.9,8.1-3,12.1c-0.9,3-1.6,6-2.7,8.9c-0.9,2.2-1.6,4.5-2.6,6.8
	c-0.7,1.7-1.6,3.4-2.1,5.3c-0.3,1.2-1.1,2.3-1.6,3.5c-0.7,1.7-1.6,3.4-2.3,5.2c-1.6,3.5-3,7.1-4.7,10.6c-0.7,1.5-1.5,2.9-2.2,4.5
	c-0.9,2.2-2.2,4.1-3.2,6.2c-1.1,2.1-2.3,4.3-3.5,6.4c-1,1.7-2.1,3.4-3,5.1c-1.5,2.8-3.3,5.4-4.6,8.3c-0.2,0.5-0.6,0.9-0.9,1.3
	c-0.9,1.5-1.9,2.9-2.6,4.5c-0.8,1.7-1.9,3.3-2.9,4.9c-0.2,0.3-0.5,0.6-0.7,0.9c-1.7,2.8-3.6,5.4-5.1,8.3c-3,5.4-6.4,10.6-9.2,16.1
	c-2.9,5.6-6.4,10.8-9.6,16.2c-1,1.6-1.9,3.3-2.9,4.9c-0.2,0.3-0.3,0.5-0.5,0.7c-0.5,0.4-0.6,1.4-1.4,1.2c-0.7-0.2-0.4-1.1-0.4-1.6
	c-0.6-3.3-1.1-6.5-1.6-9.8c-0.6-4.2-1.3-8.4-2.1-12.5c-0.5-2.6-1.2-5.2-1.8-7.7c-0.3-1.4-0.4-2.9-1.1-4.1c-0.2-0.3-0.2-0.7-0.1-1.1
	c0-0.9-0.3-1.7-0.5-2.4c-0.5-1.4-1-2.8-1.5-4.3c-0.3-0.9-0.5-1.8-0.5-2.7c-0.2-3.8-0.8-7.5-1.4-11.2c-0.5-3.4-1.2-6.7-1.9-10
	c-0.1-0.7-0.6-1.4-0.7-2.1c-1.1-4.4-2-8.9-3.3-13.2c-0.3-0.9-0.7-1.8-1-2.8c-0.5-1.5-0.8-3.1-1.3-4.6c-0.7-2.3-1.6-4.6-2.3-6.9
	c-0.6-1.9-1.2-3.7-1.8-5.6c1.4-0.3,2.2-1.1,2.8-2.4c1.1-2.4,1.8-4.9,2-7.6c0-0.6,0.2-1.2,0.3-1.8c0.2-0.9,0.4-1.8,0.6-2.7
	c0.3-1.6,0.5-3.3,0.9-4.9c0.9-3.8,1.1-7.8,1.5-11.7c0.4-3.2,0.3-6.5,0.3-9.7c-0.1-6.4-0.7-12.8-1.8-19.2c-0.3-1.9-0.6-3.9-1.5-5.7
	c-0.1-2.6-0.4-5.1-0.5-7.7c0-2-0.4-4.1-0.5-6.1c0-0.1,0-0.2,0-0.2c-1.3-2.6-0.6-5.5-1.7-8.2c-0.2-0.6-0.2-1.2,0.4-1.6
	c0.4-0.3,0.5-0.8,0.4-1.2c-0.1-1.1-0.2-2.1-0.6-3.1c-0.7-1.5-1.3-3.1-2.3-4.4c-0.8-1.1-0.9-2.5-1.8-3.6c-0.8-1.1-1.2-2.4-1.7-3.7
	c-0.9-2.1-1.6-4.2-2.5-6.3c-0.6-1.4-1.2-2.8-1.3-4.3c-0.3-2.5-1-4.9-1.2-7.4c-0.3-2.9-0.4-5.7-0.3-8.6c0-0.9,0-1.9,1.1-2.2
	c0.4-0.1,0.1-0.4,0-0.5c-0.6-0.3-0.9-0.7-0.6-1.5c0.3-1.8,0.6-3.6,1.2-5.3c0.1-0.3,0-0.6,0-0.9c0.3-0.9,0.8-1.7,0.9-2.6
	c0.3-1.9,1.1-3.6,1.9-5.3c1.3-3,3.2-5.6,6-7.5c2-1.4,5.1-1.3,6.9,0.3c0.7,0.6,1.4,1.2,2,1.8c1.2,1.4,1.8,3.2,3.2,4.4
	c0.2,0.2,0.2,0.6,0.3,0.8c1.4,1.9,2.1,4.2,3.3,6.2c0.7,1.2,1.3,2.4,1.7,3.7c0.7,2,1.7,3.9,2.7,5.7c0.7,1.2,1.4,2.5,1.9,3.8
	c0.7,1.7,1.3,3.4,2.1,5c1.1,2.4,2.2,4.8,4.1,6.7c1.5,1.5,3.2,2.8,5.2,3.5c1.2,0.4,2.4,0.9,3.5,1.4c0.6,0.3,1.3,0.5,1.9,0.7
	c1.9,0.8,3.9,1.6,5.8,2.5c2.7,1.3,4.7,3.6,6.3,6.1c1.3,2.1,3,3.8,5,5.2c0.9,0.7,1.9,1.1,3.1,1.1
	C630.7,353.1,630.2,352.2,630.5,351.4z"/>
<path class="st4" d="M423.8,559.1c2.1-0.6,4.3-0.7,6.4-1.3c0.7-0.2,1.5-0.1,2.2-0.3c2.1-0.7,4.3-0.6,6.5-0.9
	c1.9-0.3,3.9-0.5,5.8-0.9c2.1-0.4,4.2-0.3,6.3-0.5c2.2-0.2,4.5-0.1,6.7-0.3c1-0.1,2.1,0.1,3.2,0.2c0.4,0,0.9,0.1,1.3,0.1
	c2.1-0.4,4.2-0.2,6.3,0c2,0.2,4.1,0.4,6.1,0.6c4.2,0.4,8.4,1,12.5,2c2,0.5,4,1.3,5.9,2.2c0.4,0.2,0.6,0.5,0.7,0.9
	c-1,0.8-2.2,1-3.4,0.8c-4.3-0.7-8.6-0.9-12.8-1.5c-4.6-0.6-9.2-0.9-13.8-0.8c-3.1,0-6.2,0-9.3,0.4c-0.4,0.1-0.8,0-1.1,0.1
	c-3.5,0.1-6.9,0.4-10.4,1c-3.1,0.5-6.3,0.9-9.4,1.4c-1.2,0.2-2.5,0.6-3.7,0.8c-2.7,0.6-5.4,1.4-8.1,1.8c-1.3,0.2-2.5,0.5-3.7,0.9
	c-1.1,0.4-2.2,0.9-3.5,0.7c-0.6-0.1-1.3,0.4-1.9,0.6c-1.2,0.4-2.4,0.9-3.7,1.1c-0.8,0.1-1.6,0.5-2.4,0.7c-3.3,0.8-6.5,1.9-9.7,3.1
	c-0.1,0-0.1,0.1-0.2,0.1c-3.6,0.9-7,2.2-10.4,3.6c-1.1,0.4-2.3,0.8-3.4,1.3c-2.1,0.8-4,2-6.1,2.9c-3,1.3-5.9,2.6-8.7,4.3
	c-2.3,1.4-4.8,2.6-7.1,4.1c-3.1,1.9-6.2,3.8-9.1,5.9c-3.1,2.2-6,4.7-8.9,7c-1.5,1.2-3,2.5-4.4,3.9c-1.7,1.6-3.5,3.1-4.9,4.9
	c-1.1,1.4-2.4,2.7-3.6,4.1c-1.3,1.5-2.6,2.9-3.9,4.4c-0.9,1.1-1.6,2.4-2.5,3.5c-2.1,2.6-4.2,5.2-5.9,8c-0.5,0.8-0.9,1.6-1.7,2.1
	c-0.3,0.2-0.5,0.6-0.7,0.9c-0.7,1.6-1.8,3-3,4.3c-0.3,0.3-0.5,0.6-0.7,0.9c-0.7,1.2-1.3,2.4-2.3,3.3c-0.4,0.4-0.7,1-1,1.5
	c-1.4,2.8-3.3,5.4-5,8.1c-0.2,0.3-0.3,0.5-0.4,0.8c-1.8,3.1-3.6,6.3-5.5,9.4c-0.5,0.9-0.9,1.8-1.1,2.7c-0.5,1.8-1.1,3.6-2,5.3
	c-0.7,1.5-2.6,2.1-4.1,1.3c-1-0.5-1.6-1.8-1.2-2.9c0.8-2.4,1.6-4.9,2.5-7.3c0.6-1.5,1.3-3,2.1-4.5c0.4-0.7,0.9-1.5,1.6-1.9
	c1.1-0.7,1.7-1.8,2.1-2.9c0.9-2.5,2.2-4.8,3.5-7.1c2.4-4.4,5.3-8.5,8.2-12.5c1.2-1.7,2.3-3.4,3.5-5c2.3-2.9,4.1-6.1,6.6-8.9
	c1.3-1.4,2.3-3,3.5-4.5c0.7-0.8,1.5-1.6,2.1-2.4c1.7-2.1,3.6-3.9,5.3-5.9c0.2-0.2,0.4-0.5,0.3-0.8c0,0-0.1,0-0.1,0
	c0.2,0.1,0.3,0.1,0.4-0.1c1.5-0.9,2.5-2.5,3.8-3.7c0.1-0.1,0-0.3,0-0.4c0,0,0,0,0,0c1.3-0.4,2.8-1.4,3.4-2.4c0-0.1-0.1-0.2-0.2-0.3
	c0,0-0.1,0-0.1,0c0.6,0.1,0.6,0.1,0.5-0.5c0,0-0.1,0-0.1,0c0.6,0.3,0.7-0.2,1-0.5l0,0c0.4,0,0.8-0.3,1-0.6c0,0-0.1-0.2-0.1-0.3
	c0,0,0,0,0,0c0.5,0.2,0.6-0.1,0.5-0.5c0,0-0.1,0-0.1,0c0.9,0,1.5-0.5,2-1.2c0,0-0.1-0.1-0.1-0.2c0,0-0.1,0-0.1,0
	c0.5,0.2,0.6,0.1,0.9-0.5c0,0,0,0,0,0c0.6-0.2,1-0.7,1.5-1.1c0,0-0.1-0.2-0.1-0.3c0,0-0.1,0-0.1,0c0.6,0.4,0.7-0.2,0.9-0.5
	c0,0,0,0,0,0c0.5-0.3,1.1-0.4,1.4-0.9c0,0,0,0,0,0c0.3,0,0.5-0.2,0.5-0.5l0,0c0.3,0,0.7,0.1,0.5-0.5c0,0-0.1,0-0.1,0
	c0.6,0.3,0.8-0.1,0.9-0.5c0,0,0,0,0,0c1.5-0.8,3.1-1.3,4.1-2.8c0,0,0,0,0,0c0.4,0,0.7-0.2,1-0.4c2.8-1.8,5.6-3.6,8.5-5
	c0.4-0.2,0.8-0.5,0.9-0.9c0,0,0,0,0,0c0.3-0.1,0.6-0.1,0.9-0.2c1.3-0.7,2.6-1.5,4-2.1c2.6-1.1,5-2.5,7.6-3.5
	c2.9-1.1,5.8-2.6,8.7-3.7c3-1.1,6-2.2,9-3.2c0.9-0.3,1.9-0.5,2.8-0.8c2-0.6,4-1.4,6-2c2.9-0.8,5.8-1.5,8.7-2.3
	c2.7-0.7,5.4-1.6,8.2-1.9c0.4,0,0.9-0.1,1.3-0.3c0.8-0.4,1.7-0.5,2.6-0.5C423.3,559.4,423.5,559.2,423.8,559.1z"/>
<path class="st5" d="M669.9,342.2c-1.6,0.6-2.9,0.2-4-1.2c-0.3-0.4-0.7-0.8-1.2-1c-1.1-2.3-3.3-3.9-4.5-6.2c-0.3-0.6-1.1-1-1.7-1.5
	c-1.3-1.2-2.2-2.6-3.7-3.6c-1.4-1-2.8-2.1-4.2-3c-1.8-1.2-3.7-2.2-5.7-2.8c-2.6-0.8-5.3-1.1-8-1.2c-2.9-0.1-5.9-0.2-8.8-0.1
	c-5.6,0.2-11.2,0.4-16.8,0.9c-1.4,0.1-2.9,0-4.3,0c-0.6,0-1.2-0.3-1.6-0.8c-0.3-0.4-0.8-0.7-0.5-1.4c0.5-0.4,0.8-0.9,1.4-1
	c2.1-0.5,4.2-1.3,6.4-1.5c1.9-0.2,3.9-0.5,5.8-0.7c2.2-0.3,4.6,0,6.7-0.7c0.1,0,0.2,0,0.2,0c2.7,0.6,5.4-0.5,8.1-0.4
	c3.6,0.2,7.3,0.1,10.8,0.7c1.5,0.2,2.9,0.7,4.3,1.2c2.7,1,5.2,2.4,7.6,4c0.3,0.2,0.7,0.3,1.1,0.2c3.1-0.6,6.2-0.5,9.3-0.1
	c1.5,0.2,3,0.2,4.5,0.2c1.4,0.1,2.7-0.2,4.1,0.3c2.2-0.5,4.4-0.1,6.6-0.2c2-0.1,3.9-0.1,5.9-0.1c1.1,0,2-0.5,3.1-0.4
	c2.3,0.2,4.7,0.3,7,0.5c0.7,0.1,1.3,0.3,2,0.5c0.7-1,0.8-2.3,1-3.4c0.6-3.3,1.1-6.6,1.4-9.9c0.3-3.5,0.4-6.9,0.6-10.4
	c0.1-2.8,0.3-5.6,0.4-8.4c0.2-4.5,0.3-9.1,0.5-13.6c0-1,0.1-2,0.2-2.9c0.2-1.4,0.1-2.9,0.1-4.3c0.1-3.9,0.4-7.9,0.5-11.8
	c0.2-3.7,0.2-7.4,0.5-11.1c0.3-3.4,0.2-6.8,0.7-10.2c0.3-2.2,0.3-4.4,0.5-6.6c0.4-4.1,0.9-8.1,1.5-12.2c0.3-2.1,0.7-4.2,1.1-6.2
	c0.1-0.4,0.1-0.8-0.3-1c-0.7-0.5-0.8-1.2-0.8-2c-0.1-1.9,0.3-3.8,0.4-5.6c0.2-3,0.6-6,0.8-9c0.3-3.9,0.4-7.8,0.3-11.8
	c-0.1-2.9,0.3-5.7,1-8.5c0.1-0.3,0-0.6,0.1-0.9c0-0.1,0.1-0.1,0.1-0.2c0.3-0.6,0.8-1,1.5-0.7c0.6,0.3,0.9,0.8,0.9,1.5
	c0,1.4-0.1,2.9-0.1,4.3c-0.1,2.5-0.2,5-0.1,7.5c0.1,2.3-0.2,4.7-0.2,7c0,2.8-0.4,5.6-0.8,8.4c-0.2,1.9-0.3,3.8-0.5,5.7
	c-0.2,1.5-0.1,3.1-1,4.6c-0.2,0.3-0.1,0.9-0.1,1.3c0.1,2.6,0.4,5.1,0.5,7.7c0.2,5.4,0.2,10.8-0.3,16.1c-0.1,0.9,0,1.8-0.1,2.7
	c-0.1,1,0.1,2-0.3,2.9c-0.1,0.2,0,0.6,0,0.9c0,0.4,0.2,0.8,0.1,1.1c-0.5,1.5-0.1,3-0.3,4.5c-0.5,3.8-0.1,7.6-0.6,11.3
	c-0.2,1.8-0.1,3.6-0.2,5.4c-0.1,2-0.4,3.9-0.3,5.9c0.1,2.1-0.1,4.2-0.2,6.3c-0.2,3.8-0.4,7.5-0.5,11.3c0,0.9,0,1.8,0,2.7
	c-0.2,3.7-0.5,7.4-0.8,11.1c0,0.2,0,0.3,0,0.5c0.1,4-0.4,8-0.9,12c-0.4,2.6-0.8,5.2-1.7,7.7c-0.2,0.4-0.3,0.9-0.5,1.2
	c-0.4,0.7-1.1,1.1-1.9,0.9c-0.9-0.3-1.6-0.1-2.4,0.1c-1,0.4-2.1,0.2-3.2,0.2c-1.6,0-3.1,0.1-4.6,0.8c-1.5,0.7-3.2,0.9-4.9,1
	c-1.7,0.1-3.3-0.2-5,0.3c-2.4-0.6-4.8,0.2-7.2-0.2c-1.5-0.3-3.2-0.1-4.8-0.1c-1.2,0-2.4,0-3.6-0.2c-1.3-0.2-2.7-0.2-4-0.2
	c-0.1,0.5,0.2,0.7,0.4,0.9c2,2,3.6,4.3,5.1,6.7c0.3,0.4,0.6,0.9,0.9,1.3c0.8,1.1,1.3,2.4,1.7,3.7
	C670.8,339.9,670.8,341.1,669.9,342.2z"/>
<path class="st5" d="M692.4,172.3c-2.1,0-4.1,0.4-6.1,0.6c-2.7,0.4-5.4,0.6-8.1,0.6c-1.9,0-3.9,0.1-5.9,0.1c-1.9,0-3.8,0.1-5.7,0.1
	c-5.3,0.1-10.7,0.4-16,0.3c-2.3,0-4.7,0.2-7,0.3c-0.1,0-0.2,0-0.2,0c-3.5-0.4-6.9,0.3-10.4,0.1c-3.2-0.2-6.5,0.1-9.8,0
	c-2.5-0.1-5,0.1-7.5,0.1c-2.5,0-5,0.1-7.5,0.1c-1.8,0-3.6,0.1-5.4,0.1c-1.7,0-3.5,0-5.2,0.2c-3.3,0.6-6.7,0.2-10,0.7
	c-1,0.2-2,0.1-2.9,0.1c-5.8,0.2-11.6,0.5-17.4,0.6c-4.5,0.1-9.1,0-13.6-0.1c-1.4,0-2.8-0.2-4.2-0.3c-3.1-0.1-6.2-0.4-9.3-0.3
	c-1.6,0-3.2-0.1-4.8-0.2c-4,0-8,0.6-11.9,1.4c-0.8,0.2-1.6,0.4-2.4,0.6c-0.7,0.2-1.4-0.2-1.7-0.8c-0.3-0.7-0.2-1.5,0.3-1.9
	c0.6-0.4,1.3-0.7,2-1.1c0.3-0.1,0.6-0.2,0.9-0.2c0.3,0.1,0.5,0,0.7-0.2c1-0.3,2-0.5,3.1-0.8c2.6-0.7,5.3-1.3,8-1.1
	c0.7,0,1.4,0,2-0.2c0.7-0.2,1.4-0.1,2,0c0.7,0.1,1.3,0.1,2,0c1.1-0.3,2.2,0.2,3.4,0.2c2.7,0,5.4,0,8.2,0.1c3.2,0.2,6.3,0.3,9.5,0.3
	c3.9,0,7.7,0.2,11.6-0.1c3-0.3,6-0.3,9.1-0.5c2-0.1,4-0.4,6.1-0.3c1.1,0,2.3-0.1,3.4-0.3c1.1-0.1,2.2-0.2,3.4-0.1
	c2.9,0.1,5.7-0.5,8.6-0.5c0.5,0,1,0.1,1.6,0.2c0.4,0,1,0.2,1.3,0.1c1.3-0.5,2.5-0.3,3.8-0.3c1,0,2-0.1,2.9-0.1c0.9,0,1.8-0.2,2.7,0
	c0.3,0.1,0.6,0.1,0.9,0c2-0.4,4.1,0,6.1-0.2c2.1-0.2,4.2-0.2,6.4-0.1c4.2,0.1,8.3-0.2,12.4,0c1.4,0.1,2.7-0.1,4.1-0.2
	c1.3-0.1,2.5,0.1,3.8,0c3.2-0.3,6.3-0.2,9.5-0.2c1.7,0,3.3-0.1,5-0.2c2.5-0.1,5,0.1,7.5-0.2c1.7-0.2,3.5,0,5.2,0.1
	c2.1,0.2,4.2,0.1,6.3,0.4c5,0.8,10,1.5,15.4,2.2C696.2,172,694.2,171.7,692.4,172.3z"/>
<path class="st6" d="M505.3,564.3c-0.1-0.3-0.3-0.5-0.4-0.8c-0.2-0.9,0.3-1.7,1.2-1.7c0.5,0,1.1,0.1,1.6,0.2c4.1,0.9,8.1,2.3,12,3.9
	c2.1,0.9,4.1,2,6.1,3c1.6,0.8,3.3,1.6,4.7,2.7c2.1,1.5,4.3,2.8,6.3,4.3c3.3,2.5,6.3,5.4,9,8.6c1.8,2.1,3.7,4.2,5.3,6.5
	c2,2.8,4.1,5.5,6.1,8.4c2.5,3.8,4.8,7.7,6.8,11.7c1.8,3.7,3.3,7.5,4.6,11.3c0.9,2.6,1.7,5.2,2.6,7.7c0.4,1.2,0.8,2.4,0.9,3.7
	c0,0.3,0.1,0.6,0.2,0.9c1.2,2.9,1.7,6,2.4,9c0.7,2.8,1.2,5.6,1.7,8.4c0.2,1.4,0.3,2.9,0.3,4.3c0,1.6-0.1,3.2,0.1,4.8
	c0.1,1.5-0.2,3-0.4,4.5c-0.1,1.2-0.3,2.4-0.5,3.6c-0.2,0.3-0.4,0.6-0.6,1c-0.1,0.3-0.4,0.5-0.7,0.5c-1.7,0-3.5-0.1-5.3-0.1
	c-0.4-1.5-0.2-2.9,0-4.3c0.6-3.7,0.8-7.5,0.4-11.2c-0.5-4.5-1.4-8.9-2.6-13.3c-0.4-1.5-0.6-3.1-1.1-4.6c-1.4-4.8-2.6-9.8-4.1-14.6
	c-0.7-2.4-1.6-4.7-2.4-7.1c-0.5-1.5-1.5-2.8-1.9-4.4c-1.1-1.1-1.5-2.6-2.3-3.9c-2.2-3.5-4.3-6.9-6.5-10.4c-1.6-1.5-2.5-3.6-4-5.2
	c-0.1-0.1-0.2-0.2-0.3-0.3c-5.6-7.5-12.9-13.1-20.9-18c-4.5-2.8-9.4-4.9-14.2-7C508.2,565.6,506.8,564.9,505.3,564.3z"/>
<path class="st5" d="M640.6,573.5c-0.1-0.7,0.4-1.2,0.7-1.7c2.3-4.1,4.7-8.1,6.8-12.3c1-2,2.3-3.9,3.3-5.9c1.1-2,2.1-4,3.1-6
	c1.7-3.6,3.5-7.2,5.1-10.9c0.9-2.1,1.9-4.1,2.6-6.2c0.6-1.9,1.4-3.7,2.2-5.5c1-2.1,1.7-4.3,2.4-6.6c0.8-2.4,1.6-4.9,2.4-7.3
	c0.8-2.5,1.8-5,2.3-7.6c0.3-1.4,0.5-2.8,0.9-4.2c0.6-2.1,1-4.2,1.4-6.4c0.2-1.1,0.3-2.3,0.5-3.4c0.9-5.4,1.4-10.9,1.6-16.4
	c0.1-2.3,0-4.5-0.2-6.8c-0.1-1,0.2-2,0.4-2.9c0.2-0.7,0.8-1.1,1.6-1.1c0.7,0,1.2,0.3,1.4,0.9c0.2,0.3,0.3,0.7,0.4,1.1
	c0.5,1.7,0.8,3.4,0.8,5.1c0.1,3.1,0.2,6.2,0.1,9.3c-0.1,3.3-0.5,6.6-0.8,9.9c-0.5,4.6-1.4,9.1-2.3,13.6c-0.2,1.2-0.6,2.3-0.9,3.5
	c-0.5,1.7-0.9,3.5-1.4,5.2c-0.3,1.2-0.7,2.3-1.1,3.5c-0.5,1.6-1.4,3.2-1.6,5c0,0.3-0.2,0.6-0.3,0.8c-0.9,2.2-1.7,4.4-2.4,6.6
	c-0.3,0.9-0.8,1.8-1.2,2.7c-1.1,2.4-2,4.9-3.2,7.3c-1.5,2.9-2.7,6-4.5,8.9c-0.9,1.5-1.7,3.2-2.7,4.7c-2.1,3.4-4.2,6.8-6.7,9.9
	c-2.1,2.6-4.3,5.1-6.4,7.7C643.5,569.8,642.1,571.7,640.6,573.5z"/>
<path class="st5" d="M517.4,175.5c0.9,0.9,1.3,2,1.4,3.3c0.1,1.9,0.5,3.7,0.6,5.6c0.1,3.5,0.5,6.9,0.4,10.4c0,0.7,0,1.4,0.2,2
	c0.1,0.4,0.2,0.9,0.2,1.3c-0.2,2,0,3.9,0,5.9c0,1.7-0.2,3.3,0,5c0.1,0.7,0,1.4-0.1,2c-0.1,0.8-0.1,1.7,0,2.5c0.3,1.4,0.3,2.8,0,4.3
	c-0.1,0.2-0.1,0.5-0.1,0.7c0.4,2.5,0.2,5.1,0.3,7.7c0,0.9,0.1,1.8-0.2,2.7c-0.1,0.3-0.1,0.6,0,0.9c0.6,1.8,0.3,3.6,0.3,5.4
	c0,3.4,0.2,6.8,0.4,10.2c0.1,1.1-0.1,2.1,0,3.2c0.2,4.4,0.4,8.7,0.5,13.1c0.1,2.3,0.1,4.5,0.1,6.8c0,2.8,0,5.6-0.1,8.4
	c-0.2,6.3-0.5,12.6-0.9,19c-0.2,3.6-0.8,7.2-1.6,10.7c-0.3-2.3-0.7-4.6-0.9-7c-0.1-1.5-0.2-3-0.1-4.5c0.1-2.1-0.2-4.2,0-6.3
	c0.1-1.3,0-2.7-0.1-4.1c-0.2-6.9-0.6-13.8-0.7-20.6c0-3.5-0.3-7.1-0.4-10.6c-0.1-3.4-0.3-6.8-0.4-10.2c0-0.9,0-1.8,0-2.7
	c-0.1-4.5-0.3-9.1-0.3-13.6c-0.1-6.3-0.1-12.7-0.1-19c0-2.6,0-5.2,0.1-7.7c0-0.4,0.1-0.9,0.2-1.3c0.1-0.5,0.2-1.1,0.2-1.6
	c-0.1-4.6-0.3-9.2-0.4-13.8c-0.1-1.9-0.1-3.8-0.2-5.7c0-0.8,0.4-1.5,0.9-2C516.7,175.4,517.1,175.5,517.4,175.5z"/>
<path class="st4" d="M259.4,361.3c-2.3-1-4.3-2.5-6.4-3.9c-3.6-2.5-6.8-5.5-10-8.5c-1.8-1.6-3.5-3.4-5.2-5.1
	c-2.1-2.1-4.1-4.2-5.9-6.5c-0.8-0.9-1.7-1.7-2.6-2.6c-0.7-0.6-1.3-1.3-1.9-2c-0.7-0.9-1.5-1.9-2.3-2.8c-1.3-0.3-1.9-1.4-2.9-2.1
	c-1-0.8-2-1.6-3-2.4c-0.4-0.3-0.7-0.6-1-0.9c-0.9-1.1-1-2.6-0.1-3.8c0.4-0.5,0.8-0.9,1.3-1.3c1-0.8,2.1-0.8,3.2-0.1
	c2.4,1.7,4.9,3.4,7,5.5c3.9,3.9,7.8,7.8,11.3,12.1c1.3,1.5,2.6,2.9,3.9,4.5c1.6,2.1,3.6,3.8,4.9,6.2c1.2,0.8,1.8,2.2,2.8,3.2
	c2.7,3,4.9,6.3,7.2,9.6c0.1,0.1,0.1,0.3,0.1,0.4C259.6,360.9,259.5,361.1,259.4,361.3z"/>
<path class="st5" d="M282.9,355.9c-2.3-3.2-4.4-6.3-6-9.6c-0.6-1.1-1.1-2.3-1.6-3.5c-1.1-2.9-2.3-5.7-3.3-8.7
	c-1.1-3.2-2.5-6.3-3.2-9.7c-0.1-0.4-0.2-0.7-0.4-1.1c-0.9-1.5-1.3-3.2-1.7-4.9c-0.2-0.9-0.5-1.7-0.9-2.6c-0.5-1.2-1.1-2.3-1.2-3.7
	c0-0.6-0.3-1.2-0.6-1.7c-1-2-1.8-4-2.5-6.1c-0.3-0.7-0.6-1.4-1-2c-0.7-1.3-0.1-2.4,0.7-3.3c0.9-1,2.1-1.5,3.5-1.1
	c0.4,0.1,0.8,0.4,1.1,0.7c0.2,0.2,0.4,0.5,0.5,0.8c1,2.2,2,4.4,2.9,6.6c0.9,2.3,1.6,4.7,2.6,7c0.9,2.3,1.6,4.7,2.3,7.1
	c0.5,1.7,0.9,3.5,1.5,5.2c0.6,1.9,1,3.8,1.5,5.7c0.4,1.6,1,3.1,1.5,4.7c0.1,0.3,0.2,0.6,0.3,0.9c1,5,2.7,9.8,3.2,14.8
	C282.2,353,282.6,354.3,282.9,355.9z"/>
<path class="st5" d="M145,654.6c-1.7-1.1-3.4-2.3-5.1-3.4c-1.2-0.8-2.4-1.6-3.5-2.5c-3.7-2.9-7.3-6-10.7-9.2c-1.7-1.7-3.5-3.4-5.2-5
	c-1.7-1.6-3.3-3.3-5-5c-3.6-3.7-7-7.5-10.1-11.6c-2.6-3.4-5.1-6.9-7.7-10.4c-0.4-0.6-0.9-1.2-1.3-1.9c-0.5-1-0.4-2.2,0.2-2.8
	c0.9-0.8,2.4-1,3.4-0.4c0.5,0.3,0.8,0.7,1.1,1.1c1.5,2,3,4,4.4,6c1.8,2.8,4.1,5.3,6,7.9c0.9,1.2,1.9,2.3,2.9,3.5c1.7,2,3.3,4,5,5.9
	c2.4,2.7,4.9,5.4,7.3,8.1c1.8,2,3.8,3.9,5.6,5.9c3.5,3.8,7.3,7.2,10.8,11c0.7,0.8,1.3,1.7,2.2,2.2
	C145.4,654.4,145.2,654.6,145,654.6z"/>
<path class="st5" d="M647.5,533.5c0.7-2.3,1.5-4.9,2.2-7.6c0.3-1.2,0.4-2.4,0.7-3.5c0.6-2.5,1.1-5,2-7.4c0.5-1.5,0.8-3,1.2-4.6
	c0.4-1.4,0.8-2.9,1.1-4.4c0.5-2.6,1-5.2,1.6-7.7c0.2-1,0.4-1.9,0.6-2.9c0.1-0.4,0.2-0.7,0.3-1.1c0.1-1.6,0.3-3.1,0.6-4.7
	c0.5-3.2,0.7-6.4,1-9.7c0.1-1.3,0-2.7,0.3-4c0.1-0.6,0.3-1.2,0.4-1.8c0.2-0.8,0.8-1.1,1.5-1.3c1.1-0.3,2.1,0.2,2.2,1.4
	c0.3,2.5,0.8,4.9,0.6,7.4c-0.1,2.7-0.2,5.4-0.7,8.1c-0.5,3.1-0.7,6.3-1.5,9.4c-0.3,1.2-0.3,2.6-0.7,3.8c-1.4,5.2-2.3,10.6-4.4,15.7
	c-1,2.5-2,5-3.7,7.2C650.9,528.3,649.4,531.2,647.5,533.5z"/>
<path class="st5" d="M137.1,662.4c-4.5-2.8-8.9-5.7-12.9-9.1c-1.6-1.4-3.3-2.6-4.9-4c-4.5-3.9-8.6-8.2-12.1-13
	c-1.5-2.1-2.8-4.3-4.2-6.4c-0.2-0.4-0.4-0.8-0.6-1.2c-0.4-1-0.2-1.9,0.4-2.8c1.1-1.4,2.6-1.4,3.5,0.1c1.3,2.1,2.9,4.1,4.3,6.1
	c2.4,3.5,5.2,6.7,8,9.8c1.4,1.6,2.7,3.2,4.2,4.8c2.1,2.2,4.2,4.3,6.4,6.4c3,3,5.9,6.1,8.7,9.2C137.7,662.5,137.4,662.4,137.1,662.4z
	"/>
<path class="st5" d="M252.3,382.4c-2.6-0.3-5.2-1.3-7.8-1.8c-3.3-0.6-6.3-2-9.4-3.3c-3.2-1.4-6.3-2.9-9.4-4.4
	c-2.8-1.4-5.7-2.9-8.5-4.2c-1.1-0.5-2.2-1.1-2.9-2.1c-0.3-0.4-0.9-0.5-1.3-0.8c-1.5-1.2-1.3-3.2,0.4-4.2c0.4-0.2,0.9-0.3,1.3-0.2
	c0.5,0.2,1,0.4,1.5,0.6c3.2,1.7,6.7,2.9,9.8,4.7c1.4,0.8,3,1.3,4.5,2.1c3,1.5,6.1,2.9,8.9,5c0.8,0.6,1.8,0.8,2.6,1.4
	c1.8,1.2,3.6,2.3,5.3,3.8c1.2,1.1,2.8,1.9,4.1,2.8C251.7,381.9,252.1,382.2,252.3,382.4z"/>
<path class="st5" d="M300.4,344.3c-1.4-3.6-3-6.9-3.7-10.4c-0.6-2.7-1.1-5.5-1.5-8.2c-0.6-4.1-1.4-8.2-2-12.3
	c-0.3-2.1-0.7-4.2-1.3-6.2c-0.3-1,0.2-1.7,1-2.3c0.8-0.7,1.7-0.7,2.5-0.4c0.6,0.2,0.9,0.8,1,1.4c0.4,1.8,0.8,3.5,1.1,5.3
	c0.6,3.3,1.1,6.7,1.6,10c0.3,1.8,0.3,3.6,0.7,5.4c0.6,2.5,0.3,5,0.7,7.4c0.4,2.5,0.3,5.1,0,7.7C300.4,342.5,300.3,343.2,300.4,344.3
	z"/>
<path class="st5" d="M322.7,334.2c-0.3-0.9-0.8-1.7-1-2.7c-0.4-1.5-0.8-3.1-0.2-4.7c0.1-0.1,0.1-0.3,0.1-0.4c-0.1-3,0.4-5.9,0.7-8.8
	c0.3-3.2,0.8-6.4,1.2-9.7c0.1-0.6,0.3-1.2,0.5-1.7c0.3-0.8,1-1.3,1.9-1.3c2.3-0.2,3,1.2,2.8,3.1c-0.1,1.2-0.5,2.4-0.6,3.6
	c-0.2,1.6-0.3,3.3-0.4,4.9c-0.2,2.5-0.8,4.9-1.2,7.4c-0.1,0.7-0.4,1.4-0.3,2.2c0,0.4-0.1,0.9-0.2,1.3
	C325.4,329.9,324.7,332.3,322.7,334.2z"/>
<path class="st5" d="M244.9,402.1c-3.3,0.2-6.6,0.9-10,0.9c-2.2,0-4.4-0.4-6.5-1c-0.7-0.2-1.4-0.5-2.2-0.6c-1.9-0.1-3.4-1.1-5.2-1.6
	c-1.3-0.4-1.9-1.9-1.4-3.2c0.3-0.7,0.8-1.1,1.6-1.1c0.8,0,1.5,0,2.3,0.1c3.7,0.8,7.3,1.7,11,2.4c1.4,0.3,2.8,0.8,4.1,1.2
	c2,0.6,3.9,1.7,5.9,2.2C244.7,401.6,244.9,401.8,244.9,402.1z"/>
<path class="st5" d="M342.8,325.4c-1.2-1.4-1.4-3.1-1.1-4.7c0.6-3.2,1.5-6.3,3-9.2c0.7-1.4,1.4-1.7,2.9-1.3c0.1,0,0.3,0.1,0.4,0.1
	c1.1,0.4,1.6,1.2,1.3,2.3c-0.2,0.7-0.4,1.3-0.6,1.9c-0.7,2.1-1.3,4.2-2,6.3C346,322.7,345,324.5,342.8,325.4z"/>
<path class="st0" d="M615.4,530.7c-0.1-0.3-0.1-0.6,0.1-0.9c0.7-1,1.1-2.2,1.8-3.1c1.3-1.8,2.1-4,3.4-5.8c1.2-1.8,2.3-3.7,3.4-5.6
	c0.9-1.5,1.9-2.9,2.8-4.4c0.1-0.2,0.3-0.3,0.4-0.5c1.1-2.9,3.2-5.1,4.5-7.8c0.9-1.9,2.2-3.6,3.3-5.4c0.9-1.5,1.9-3.1,2.6-4.7
	c0.6-1.3,1.5-2.5,2.2-3.7c0.6-1,1.1-2,1.7-2.9c0.2-0.3,0.3-0.5,0.7-0.6c0.1,0.5-0.2,0.9-0.4,1.3c-7.6,15.1-16.2,29.6-25.7,43.5
	C616,530.2,615.8,530.6,615.4,530.7z"/>
<path class="st0" d="M190,405.1c0.4,1.2,0.2,2.5,0.1,3.8c0,2.3-0.3,4.6-0.6,7c-0.1,1.1-0.7,1.6-1.7,1.7c0.3-0.9,0.6-1.8,0.8-2.8
	c0.7-2.5,0.9-5.1,1-7.8C189.6,406.4,189.5,405.7,190,405.1z"/>
<path class="st7" d="M137.1,662.4c0.3,0.1,0.6,0.1,0.8-0.3c0.9,0.6,1.6,1.4,2.1,2.4C139.1,663.8,138.1,663.1,137.1,662.4z"/>
<path class="st5" d="M259.4,361.3c0.1-0.2,0.2-0.3,0.4-0.5c0.6,0.6,1.2,1.3,2.1,2.3C260.7,362.4,260,361.9,259.4,361.3z"/>
<path class="st8" d="M145,654.6c0.3-0.1,0.4-0.2,0.4-0.5c0.8,0.4,1.5,0.9,1.7,1.8c0,0-0.1,0.1-0.1,0.1
	C146,656,145.4,655.4,145,654.6z"/>
<path class="st8" d="M587.5,667.9c0.1,0.5,0.1,0.9-0.2,1.3c0,0,0,0,0,0C587.3,668.8,587.3,668.3,587.5,667.9z"/>
<path class="st0" d="M642.3,485.2c-0.1-0.4,0.1-0.8,0.5-0.9C642.8,484.7,642.8,485,642.3,485.2z"/>
<path class="st0" d="M642.7,484.3c-0.1-0.4,0.1-0.7,0.5-1C643.3,483.7,643.2,484.1,642.7,484.3z"/>
<path class="st0" d="M643.2,483.4c0-0.4,0.1-0.7,0.5-0.9C643.7,482.8,643.6,483.2,643.2,483.4z"/>
<path class="st0" d="M643.7,482.5c0-0.4,0.1-0.7,0.4-1C644.2,481.9,644.1,482.3,643.7,482.5z"/>
<path class="st0" d="M644.1,481.5c-0.1-0.4,0-0.8,0.5-0.9C644.6,481,644.5,481.4,644.1,481.5z"/>
<path class="st0" d="M614.4,532.2c0-0.4,0.2-0.7,0.5-0.9C615,531.8,614.8,532,614.4,532.2z"/>
<path class="st0" d="M614.9,531.4c0-0.4,0-0.7,0.5-0.7C615.4,531,615.3,531.3,614.9,531.4z"/>
<path class="st8" d="M523.2,173.3c-0.2,0.3-0.4,0.3-0.7,0.2C522.7,173.3,522.9,173.2,523.2,173.3z"/>
<path class="st6" d="M512.2,482.2c2.4-0.8,4.8-1.2,7.4-1.1c0.2,0,0.5,0,0.7,0c1,0.1,1.7,0.7,2,1.6c0.3,0.7-0.3,1.3-0.7,1.8
	c-0.2,0.2-0.5,0.4-0.7,0.6c-0.3,0.2-0.3,0.4-0.3,0.7c0.1,4.1-0.7,8.1-1.9,12c-1.5,4.5-3.7,8.7-6.6,12.5c-1,1.2-1.9,2.5-2.9,3.7
	c-1.8,2-3.6,3.9-5.6,5.6c-2.9,2.5-5.9,5-9.3,6.9c-2.7,1.5-5.4,3-8.3,4.1c-2.4,0.9-4.8,1.8-7.2,2.7c-1.4,0.5-2.7,0.9-4.1,1.2
	c-5,1.1-10,2.5-15.1,3.1c-1.8,0.2-3.6,0.4-5.4,0.5c-1.4,0.1-2.8,0.5-4.3,0.3c-3.1-0.3-6.2,0.1-9.3,0c-2.9-0.1-5.7-0.4-8.6-0.6
	c-2.3-0.2-4.5-0.4-6.8-0.7c-1.2-0.1-2.4-0.2-3.6-0.5c-1.1-0.3-2.2-0.4-3.3-0.6c-2.3-0.4-4.6-0.8-6.8-1.5c-0.3-0.1-0.6-0.2-0.9-0.2
	c-4.7-0.9-9.1-2.6-13.6-4.3c-1.6-0.6-3.3-1.2-4.8-2.1c-1.6-0.9-3.2-1.6-4.8-2.6c-1.6-1-3.3-1.8-4.9-2.8c-3.4-2.2-6.8-4.6-9.9-7.2
	c-2.3-2-4.9-3.8-6.9-6.2c-0.9-1.1-2.1-1.9-3.1-3c-1.9-2.2-3.9-4.4-5.8-6.7c-0.9-1-1.5-2.3-2.2-3.4c-1.9-3.2-3.9-6.3-5.5-9.7
	c-0.8-1.8-1.8-3.5-2.4-5.4c-0.3-1.1-0.9-2.1-1.4-3.1c-1.2-2.6-2-5.4-2.8-8.1c-0.4-1.7-1.1-3.3-1.4-5c-0.6-2.5-1.4-4.9-1.5-7.5
	c-0.1-1.1-0.2-2.1-0.2-3.2c-0.1-1-0.3-1.9-0.7-2.8c-0.2-0.4-0.4-0.8-0.5-1.3c-0.1-0.6,0.2-1,0.7-1.3c1.1-0.7,2.1-0.6,2.8,0.5
	c0.5,0.8,1.3,1.1,2.1,1.2c2.4,0.2,4.7,0.9,7.1,1.4c2.5,0.5,5.1,0.9,7.6,1.4c2.8,0.5,5.6,1.1,8.4,1.7c3.9,0.8,7.8,1.6,11.7,2.5
	c4.3,1,8.5,2.1,12.8,2.7c1.2,0.2,2.3,0.7,3.5,0.9c5.5,0.9,10.9,1.8,16.3,2.8c3.1,0.5,6.2,1.2,9.4,1.6c2.4,0.3,4.8,0.6,7.2,1.1
	c3.2,0.7,6.4,1,9.6,1.6c3.1,0.6,6.2,1.3,9.4,1.7c3.1,0.4,6.1,1.2,9.1,1.8c4.5,0.9,9.1,1.7,13.6,2.6c0.4,0.1,0.8,0.1,1.1,0.2
	c1.7,0.7,3.6,0.6,5.3,1.2c2.7,0,5.1,1.4,7.8,1.3c1.6,0.6,3.2,0.7,4.9,1c2.7,0.5,5.5,1.1,8.2,1.6c1.8,0.3,3.5,1,5.3,1.1
	c0.8,0.3,1.6,0.7,2.4,0.6c2,0.5,4,1,6,1.6C511.1,482.7,511.7,482.7,512.2,482.2z M419.3,529.8c0.2,0.1,0.3,0.3,0.4,0.3
	c0.4,0.1,0.9,0.2,1.3,0.3c1.2,0.2,2.4,0.2,3.5,0.6c1,0.3,1.8,0.6,2.9,0.3c0.3-0.1,0.6-0.1,0.9-0.1c2.3,0.5,4.7,0.4,7,0.8
	c0.4,0.1,0.9,0.1,1.4,0.1c2.3-0.2,4.5,0.2,6.8,0.3c0.4,0,0.8,0.1,1.1,0.1c0.8-0.1,1.2-0.2,1.3-1.2c0.2-2.2,0.3-4.4,0.7-6.5
	c0.5-3,1.2-6.1,1.9-9.1c1-4.1,2.1-8.2,3.1-12.2c0.2-0.6,0.4-1.1,0.7-1.7c0.3-0.6,0.9-0.8,1.6-0.6c1.1,0.3,1.8,1.2,1.6,2.4
	c-0.2,1.5-0.5,3-0.8,4.4c-0.1,0.7-0.5,1.5-0.5,2.2c0,2.3-0.7,4.5-1.2,6.7c-1,4.7-1.8,9.4-2.3,14.1c-0.1,0.4-0.1,0.9,0.2,1.3
	c0.7,0,1.3-0.1,2-0.1c2.6-0.2,5.3-0.4,7.9-0.7c1.7-0.2,3.4-0.7,5.1-1c0.9-0.2,1.9-0.1,2.7-0.4c1.4-0.5,2.9-0.8,4.4-1.1
	c0.4-0.1,0.7-0.3,1.1-0.4c0.4-0.2,0.5-0.4,0.3-0.9c-0.6-1.4-0.7-2.8,0-4.2c0.1-0.2,0.1-0.4,0.1-0.7c0.7-3.2,1.5-6.3,2.2-9.5
	c0.6-2.9,2-5.6,2-8.6c0-0.4,0.3-0.9,0.5-1.2c0.4-0.7,1.2-1,2-0.8c0.9,0.2,1.6,0.9,1.6,1.7c0,1.2,0.1,2.4-0.2,3.6
	c-0.5,1.8-0.9,3.7-1.3,5.5c-0.7,3.2-1.5,6.5-2.2,9.7c-0.3,1.3-1.1,2.4-1.2,3.8c1.2,0,2-0.8,3-1c3-0.7,5.5-2.4,8.2-3.7
	c0.7-0.4,1.6-0.5,2.3-1c1.7-1.2,3.4-2.6,5.1-3.8c1.1-0.8,1.5-1.7,1.7-3c0.4-3.2,0.9-6.4,1.5-9.6c0.3-1.6,0.5-3.1,1.1-4.6
	c0.4-1,0.7-1.2,1.7-1.1c1.4,0,2,0.7,2.1,2.1c0,0.3-0.1,0.6,0,0.9c0,2-0.5,3.9-0.7,5.8c-0.1,0.8-0.2,1.6-0.1,2.6
	c1.1-0.5,1.7-1.5,2.3-2.3c1.2-1.6,2.2-3.2,3.4-4.8c0.5-0.7,0.9-1.4,1.3-2.1c1.3-2.6,2.7-5,3.7-7.8c0.7-2,1.6-3.9,2.4-5.8
	c0.2-0.5,0.2-1,0.4-1.5c-0.2-0.1-0.3-0.2-0.5-0.2c-3.2-0.2-6.5-0.3-9.7-0.8c-2.9-0.4-5.8-0.8-8.8-1.2c-2.7-0.4-5.3-1.1-8-1.4
	c-3.9-0.5-7.8-1.1-11.6-1.8c-1.1-0.2-2.3-0.2-3.4-0.6c-1.5-0.5-3.1-0.5-4.6-0.9c-2.3-0.6-4.7-0.9-7.1-1.4c-1.9-0.3-3.7-0.6-5.6-1
	c-2.6-0.4-5.2-1-7.8-1.6c-2.7-0.6-5.5-0.9-8.2-1.5c-1.3-0.3-2.6-0.7-4-0.9c-2.4-0.3-4.8-0.6-7.1-1.1c-4.6-1.1-9.3-1.3-13.8-2.5
	c-3.1-0.1-6.1-0.9-9.2-1.4c-4.3-0.6-8.6-1.6-12.9-2.5c-3.4-0.7-6.8-1.6-10.1-2.4c-2.6-0.7-5.3-1.3-7.9-2c-2.3-0.6-4.7-1-7-1.8
	c-0.9-0.3-1.7-0.6-2.6-0.7c-2.7-0.3-5.3-1.1-8-1.8c-5.6-1.3-11.1-2.8-16.6-4.3c-0.2,0.3-0.1,0.6,0,0.9c0.4,1.5,0.8,2.9,1.1,4.4
	c0.5,3.1,1.6,6,2.6,8.9c0.9,2.6,1.9,5.1,3,7.6c1.8,4.2,3.6,8.3,5.9,12.2c1.4,2.4,2.6,5,4.4,7.1c0.5,0.6,0.9,1.2,1.3,1.9
	c0.5,0.8,1,1.6,2.2,2.2c-0.3-1.1,0.5-1.9,0.4-2.8c-0.1-1,0.2-2,0.3-2.9c0.7-4.4,1.5-8.8,2-13.2c0.1-1,0.3-1.9,0.6-2.9
	c0.2-0.8,0.7-1.6,1.6-1.7c1.5-0.3,2.9,0.8,2.7,2.3c-0.2,1.5-0.2,3-0.4,4.5c-0.4,3.2-0.8,6.5-1.3,9.7c-0.6,3.7-0.9,7.4-1.9,10.9
	c-0.2,0.7,0.1,1.2,0.5,1.6c1.4,1.3,2.7,2.6,4.2,3.8c2.1,1.8,4.1,3.8,6.5,5.2c0.1,0,0.1,0.1,0.2,0.1c1.5,1.5,3.3,2.6,5.1,3.8
	c0.5,0.3,0.9,0.9,1.7,0.8c0-1.3,0.5-2.6,0.7-3.9c0.4-2.9,1.1-5.8,1.7-8.7c0.7-3.2,1.3-6.4,2.2-9.5c0.6-2.2,1.4-4.3,1.6-6.6
	c0-0.7,0.3-1.3,0.7-1.9c0.3-0.4,0.6-0.7,1.1-0.6c0.6,0.1,1.2,0.6,1.2,1.2c0,1,0.1,2,0,3c-0.2,1-0.3,2-0.3,2.9c0,1.4-0.2,2.9-0.3,4.3
	c-0.2,1.6-0.4,3.1-0.7,4.7c-0.5,3.2-0.9,6.4-1.5,9.6c-0.4,2.3-0.8,4.6-1.2,6.9c-0.1,0.4-0.1,0.9-0.2,1.4c0,0.4,0.2,0.7,0.5,0.9
	c2,1,3.9,1.9,5.8,3c0.7,0.4,1.4,0.8,2.3,0.9c0.5,0,1,0.2,1.5,0.5c0.9,0.5,2,0.8,3,1.1c2.6,0.8,5.2,1.6,7.8,2.4
	c0.6,0.2,1.2,0.8,2,0.4c0.3-0.9,0.6-1.9,0.8-3c0.6-2.7,1-5.5,1.6-8.2c1.1-5,2.1-10,3.5-15c0.5-1.9,1.5-3.6,2.3-5.4
	c0.6-1.3,2.5-1.4,3.6-0.5c1,0.8,1,1.8,0.8,2.9c-0.5,2.3-1,4.6-1.5,6.9c-0.9,4.1-2.1,8.2-2.8,12.4C421,522.5,420.1,526.1,419.3,529.8
	z"/>
<path class="st9" d="M285.9,432.3c-3.2-1.9-6.1-4.2-9.3-6.1c-2.3-1.3-4.7-2.4-6.9-3.9c-1.9-0.5-3.4-1.9-5.2-2.6
	c-0.3-0.1-0.6-0.2-0.8-0.4c-0.4-0.2-0.6-0.5-0.4-0.9c0.1-0.3,0.3-0.5,0.4-0.8c1-2.4,2.4-4.5,2.9-7.1c0.1-0.4,0.5-0.7,0.9-0.9
	c2.4-0.9,4-2.9,6-4.5c0.3-0.3,0.6-0.7,0.8-1.1c1-1.6,2.6-2.7,3.5-4.5c0.9-0.6,1.4-1.5,2.1-2.3c0.9-1.1,1.9-2.2,2.6-3.4
	c0.7-1.2,2.1-2,2.4-3.5c2.1-1.6,3.4-3.8,5-5.8c0.9-1.1,2.2-1.8,2.7-3.3c0.1-0.2,0.5-0.3,0.7-0.5c0.4-0.3,0.9-0.5,1-0.8
	c0.6-1.4,1.9-2.1,2.9-3.1c1.8-1.9,4-3.4,5.6-5.6c0.2-0.3,0.6-0.5,0.9-0.7c1.1-0.9,2.2-1.8,3.3-2.7c1-0.8,1.9-1.8,3.1-2.2
	c0.2-0.1,0.4-0.2,0.6-0.4c2.6-2.3,5.6-3.9,8.4-5.8c1.5-1,3-2,4.5-3c1.5-1,3.1-2,4.6-2.8c3.4-1.8,6.5-4.2,10.2-5.5
	c1.8-1.5,4-2,6.1-2.9c3.5-1.5,6.9-3,10.4-4.3c1.2-0.5,2.4-0.7,3.6-1.2c2.6-1,5.4-1.4,7.9-2.5c0.6-0.3,1.3-0.4,2-0.5
	c2.3-0.4,4.5-1.1,6.8-1.7c2.5-0.6,4.9-1.3,7.5-1.7c2.2-0.3,4.5-0.8,6.7-1.2c2-0.3,4-0.7,6.1-0.8c1.9-0.1,3.8-0.2,5.7-0.4
	c1.7-0.2,3.4,0.1,5.2-0.1c0.5,0,1.1,0.1,1.6,0c1.6-0.2,3.2-0.2,4.7-0.3c3.5-0.2,7,0.2,10.4-0.4c0.1,0,0.3-0.1,0.4,0
	c4.2,0.6,8.3-0.1,12.4-0.2c1.3,0,2.7-0.2,4-0.3c2.5-0.2,5,0.1,7.4,0.6c0.1,0,0.3,0.1,0.4,0.1c2.1,1.5,4.6,1.9,6.8,2.9
	c1.6,0.8,3.3,1.5,4.9,2.4c2.1,1.1,4.1,2.2,6.2,3.3c0.3,0.1,0.6,0.2,0.8,0.4c3,2.2,6.2,4,9.3,6.1c0.5,0.4,1.1,0.8,1.3,1.5
	c-0.3,0.2-0.6,0.2-0.8,0c-2.4-1.4-4.9-2.6-7.3-4.1c-1.4-0.9-2.9-1.6-4.5-2.2c-1.7-0.7-3.4-1.3-5-2.1c-0.8-0.4-1.6-0.4-2.4-0.7
	c-5.2-1.8-10.5-2.8-15.9-3.7c-3.6-0.6-7.2-1-10.8-1.4c-2.3-0.3-4.7,0.1-7,0.5c-4.1,0.7-8.2,1.3-12.3,2.1c-1.9,0.4-3.9,0.4-5.9,0.8
	c-2.9,0.6-5.8,0.8-8.7,1.2c-3.1,0.5-6.3,1.1-9.5,1.1c-0.7,0-1.3,0.2-2,0.3c-0.8,0.1-1.6,0.4-2.5,0.4c-2,0-4,0.7-6.1,0.6
	c-0.7,0-1.3,0.1-2,0.4c-1.2,0.4-2.5,0.8-3.7,0.9c-2.4,0.2-4.6,1-6.8,1.6c-3.6,1.1-7.1,2.5-10.6,3.9c-3.1,1.2-6.1,2.6-9.4,3.4
	c-1.5,0.4-2.8,1.1-4.1,1.8c-2,1.1-4.1,2.3-6.2,3.3c-2,1-3.9,2.3-5.8,3.5c-3.5,2.2-6.8,4.6-10,7c-2.9,2.1-5.6,4.4-8.3,6.6
	c-1.1,0.9-2.2,1.6-3.2,2.5c-2.2,1.8-4,3.9-6.1,5.8c-1.8,1.6-3.2,3.6-5.2,5.1c-0.7,0.5-1,1.5-1.7,2.1c-2,2-3.6,4.3-5.4,6.4
	c-1.3,1.5-2.3,3.2-3.5,4.7c-2.6,3.3-5,6.8-7.4,10.3c-1.3,2-2.7,4-4,6c-0.8,1.1-1.2,2.4-2.1,3.3c0.2,0.7,0.8,0.8,1.2,1.1
	c2.2,1.1,4.2,2.4,5.9,4.2c0.3,0.3,0.7,0.6,1.1,0.9c2.3,1.8,4.4,4,6.1,6.3c0.4,0.5,0.8,0.9,1.2,1.4
	C286.5,432.2,286.2,432.2,285.9,432.3z"/>
<path class="st10" d="M404.1,373.7c0,3.2-0.4,5.7-2,8c-0.9,1.3-2,2-3.1,2.9c-0.5,0.5-1.3,0.5-2,0.3c-1.2-0.4-2.4-0.9-3.2-2
	c-0.8-1.1-1.6-2.2-2.3-3.4c-0.4-0.7-1-1.1-1.6-1.5c-2.6-1.7-5.1-3.5-7.6-5.3c-1.8-1.3-3.8-2.2-5.9-2.7c-0.9-0.2-1.8-0.1-2.7-0.1
	c-0.5,0-0.9,0-1.4,0c-2.6,0-4.2-1.2-5-3.7c-0.2-0.5-0.3-1-0.5-1.5c-0.2-0.7-0.2-1.4,0-2c0.5-1.4,1.1-2.8,1.7-4.2
	c0.3-0.7,0.6-1.4,1.3-1.8c0.3-0.2,0.5-0.3,0.7-0.6c1.3-1.9,3.1-3.2,5.2-4.2c1-0.5,1.9-0.7,3-0.8c2.1-0.1,4,0.3,5.9,1.1
	c2,0.9,4,1.9,5.9,2.8c1.7,0.8,3.4,1.7,4.6,3.3c0.4,0.5,1.1,0.8,1.5,1.3c1.1,1.2,2.1,2.5,2.9,4c0.8,1.7,1.9,3.3,2.9,4.9
	C403.6,370.4,404,372.3,404.1,373.7z"/>
<path class="st11" d="M381.6,413.7c-0.1,1.9-0.1,3.2-0.3,4.4c-0.4,2.1-1.1,4-2.5,5.7c-2.7,3.3-6.2,4.6-10.2,5.2
	c-3,0.5-5.9,0-8.7-0.8c-0.8-0.2-1.5-0.6-2.2-1.2c-1-1-2.1-1.9-3.1-3c-2-2.4-3.2-5.2-3.3-8.3c0-1.6,0.4-3.1,1.2-4.6
	c0.8-1.5,1.9-2.9,3-4.2c1.4-1.7,3.1-2.8,5.2-3.6c1.6-0.6,3.3-1,4.9-1.6c1.4-0.5,2.7-0.3,4,0.1c1.1,0.3,2.1,0.8,3.1,1.3
	c2.9,1.3,5.2,3.4,7.2,5.8C381.1,410.5,381.4,412.5,381.6,413.7z"/>
<path class="st10" d="M510.2,402c0,0.3,0,0.6,0,0.9c0.2,1.5-0.7,2.4-1.9,3c-0.9,0.4-1.8,0.7-2.8,1c-5.1,1.4-10.2,2.9-15.2,4.6
	c-1.5,0.5-3,1-4.6,1.2c-1.8,0.2-3.5,1-5.2,1.3c-2.5,0.5-4.5-0.5-6.2-2.1c-1.3-1.2-0.9-4.1,0.6-5.3c1.7-1.3,3.5-2.7,5.1-4.2
	c2.7-1.2,4.8-3.1,7-5c1.8-1.5,3.8-2.4,5.8-3.5c2.1-1.2,4.6-1.8,7.1-2c0.4,0,0.9,0,1.3,0.1c1.5,0.6,3,1.1,4.4,1.8
	c1.8,1,3.1,2.4,4,4.2C510.4,399.2,510.4,400.6,510.2,402z"/>
<path class="st3" d="M496.2,442c0.8,1.2,2,2.1,2.8,3.2c1.1,1.4,2.3,2.6,3.6,3.8c2.1,1.9,4,4.2,6,6.2c1.6,1.5,2.3,3.3,2.9,5.3
	c0.1,0.3,0,0.6,0,0.9c0,0.3-0.2,0.4-0.4,0.5c-0.3,0.1-0.6,0.1-0.9,0.1c-2.5-0.1-4.8-0.6-6.7-2.4c-1.6-1.6-3.5-2.8-5.1-4.5
	c-1.3-1.4-2.6-2.7-3.9-4.1c-1.7-1.9-3.4-3.9-5-5.8c-1.2-1.3-1.5-2.9-1.6-4.6c0-1,0.3-1.8,1-2.5c0.9-0.9,1.9-1.8,3.2-2.1
	c1.5-0.4,2.8-1.1,4.2-1.6c2.1-0.7,4.2-1.6,6.4-2.3c3.1-1,6.2-2.1,9.3-3.1c1.5-0.5,3.1-0.5,4.7-0.3c1.2,0.2,1.8,1.2,3.1,1.7
	c-0.6,1-1.1,1.7-1.6,2.4c-0.6,0.9-1.4,1.5-2.5,1.9c-2.2,0.8-4.2,2-6.5,2.7c-3.7,1.1-7.2,2.7-11,3.5
	C497.5,441.1,496.7,441.3,496.2,442z"/>
<path class="st8" d="M423.8,559.1c-0.3,0.1-0.6,0.3-0.8,0.3c-0.9,0.1-1.8,0.1-2.6,0.5c-0.4,0.2-0.9,0.3-1.3,0.3
	c-2.8,0.3-5.5,1.2-8.2,1.9c-2.9,0.8-5.8,1.5-8.7,2.3c-2,0.6-4,1.3-6,2c-0.9,0.3-1.9,0.5-2.8,0.8c-3,1-6,2.1-9,3.2
	c-3,1.1-5.8,2.6-8.7,3.7c-2.6,1-5,2.4-7.6,3.5c-1.4,0.6-2.7,1.4-4,2.1c-0.3,0.1-0.6,0.1-0.9,0.2c0-0.1-0.1-0.3-0.1-0.3
	c0.5-0.3,1-0.7,1.5-1c13.5-7.4,27.7-12.9,42.6-16.5c4-1,8-1.7,12-2.6c1.1-0.2,2.3-0.2,3.3-0.6C422.9,558.9,423.4,558.9,423.8,559.1z
	"/>
<path class="st8" d="M363.1,579.9c-0.2,0.5-0.5,0.7-0.9,0.9c-3,1.5-5.7,3.3-8.5,5c-0.3,0.2-0.6,0.4-1,0.4c0-0.1-0.1-0.3-0.1-0.4
	c3.3-2.3,6.6-4.4,10.2-6.2C362.8,579.7,363,579.8,363.1,579.9z"/>
<path class="st8" d="M512.2,482.2c-0.5,0.5-1.1,0.5-1.8,0.3c-2-0.5-4-1-6-1.6c0-0.2,0-0.4-0.1-0.7c1.1,0.2,2.2,0.5,3.3,0.6
	c1.4,0.2,2.7,0.8,4.2,0.8C512,481.7,512.1,482,512.2,482.2z"/>
<path class="st8" d="M334.5,599.9c0,0.1,0.1,0.3,0,0.4c-1.3,1.2-2.2,2.7-3.8,3.7c-0.1-0.1-0.3-0.3-0.4-0.4
	C331.6,602.2,332.8,600.8,334.5,599.9z"/>
<path class="st8" d="M352.7,586.3c-1,1.4-2.6,2-4.1,2.8c0-0.1,0-0.3,0-0.4c1.1-0.8,2.3-1.6,3.5-2.4
	C352.2,586.2,352.5,586.3,352.7,586.3z"/>
<path class="st8" d="M337.7,597.2c0.1,0.1,0.2,0.3,0.2,0.3c-0.6,1-2.1,2-3.4,2.4C335.3,598.8,336.3,597.8,337.7,597.2z"/>
<path class="st8" d="M285.9,432.3c0.3-0.1,0.6-0.1,0.7-0.4c0.9,0.6,1.6,1.3,1.7,2.4C287.5,433.6,286.7,433,285.9,432.3z"/>
<path class="st7" d="M504.4,480.3c0,0.2,0,0.4,0.1,0.7c-0.9,0.1-1.6-0.3-2.4-0.6C502.8,480.2,503.6,480,504.4,480.3z"/>
<path class="st8" d="M342.2,593.6c0,0.1,0.1,0.2,0.1,0.2c-0.5,0.7-1.1,1.2-2,1.2C340.8,594.3,341.3,593.7,342.2,593.6z"/>
<path class="st8" d="M344.5,591.7c0,0.1,0.1,0.3,0.1,0.3c-0.5,0.4-0.9,0.9-1.5,1.1c0-0.1-0.1-0.3,0-0.4
	C343.4,592.3,343.8,591.8,344.5,591.7z"/>
<path class="st8" d="M346.7,590.4c-0.3,0.5-1,0.6-1.4,0.9C345.6,590.8,345.9,590.2,346.7,590.4z"/>
<path class="st9" d="M477.4,346.7c0.7,0,1.2,0.5,1.5,1c-0.5-0.1-1-0.1-1.4-0.5C477.3,347,477.4,346.9,477.4,346.7z"/>
<path class="st8" d="M339.9,595.4c0,0.1,0.1,0.3,0.1,0.3c-0.3,0.3-0.6,0.6-1,0.6C338.9,595.6,339.3,595.4,339.9,595.4z"/>
<path class="st8" d="M345.4,591.3c-0.2,0.3-0.3,0.9-0.9,0.5C344.6,591.3,345,591.3,345.4,591.3z"/>
<path class="st8" d="M343.1,593.1c-0.3,0.6-0.5,0.7-0.9,0.5C342.3,593.1,342.5,592.8,343.1,593.1z"/>
<path class="st8" d="M348.6,589c-0.2,0.4-0.4,0.8-0.9,0.5C347.8,589,348.1,588.9,348.6,589z"/>
<path class="st8" d="M339,596.3c-0.3,0.3-0.4,0.8-1,0.5C338.2,596.4,338.6,596.3,339,596.3z"/>
<path class="st8" d="M347.7,589.5c0.2,0.5-0.2,0.4-0.5,0.5C347.1,589.6,347.3,589.5,347.7,589.5z"/>
<path class="st8" d="M340.4,594.9c0.1,0.4,0,0.7-0.5,0.5C339.9,595.1,340.1,595,340.4,594.9z"/>
<path class="st8" d="M338.1,596.7c0.1,0.6,0.1,0.6-0.5,0.5C337.6,596.9,337.8,596.8,338.1,596.7z"/>
<path class="st12" d="M330.3,603.6c0.1,0.1,0.3,0.3,0.4,0.4c-0.1,0.2-0.2,0.2-0.4,0.1c-0.1-0.1-0.1-0.2-0.1-0.3
	C330.2,603.7,330.3,603.6,330.3,603.6z"/>
<path class="st8" d="M347.2,589.9c0,0.3-0.2,0.5-0.5,0.5C346.6,589.9,346.9,589.9,347.2,589.9z"/>
<path class="st13" d="M308.9,498.4c0,0.3,0.1,0.5,0.1,0.8c-0.2,0-0.3,0-0.5,0c-0.8-1.6-1.1-3.4-1.5-5.2c-0.1-0.3,0-0.6-0.1-0.9
	c-1.4-2.9-2.1-6.1-3.1-9.2c-1.5-4.3-3.7-8.2-6-12.1c-1.1-1.8-2.3-3.5-3.7-5.1c-1.2-1.4-2.6-2.6-3.8-3.8c-2.2-2.1-4.5-4-6.6-6.2
	c-1.6-1.7-3.6-3.1-5.3-4.7c-1.7-1.6-3.9-2.5-5.4-4.4c-0.1-0.2-0.3-0.3-0.5-0.4c-2.1-0.6-3.5-2.3-5.5-3c-1.4-0.5-2.5-1.4-3.7-2.1
	c-1.7-0.9-3.5-1.3-5.3-1.8c-3.5-1.1-7.1-2.1-10.8-2.6c-2.7-0.4-5.4-0.6-8.1-1.1c-1.3-0.3-2.7-0.1-4.1-0.1c-1.9,0-3.8-0.3-5.6-0.1
	c-2,0.1-4.1-0.6-6.1,0.2c-0.1,0.1-0.3,0.1-0.4,0c-2-0.2-3.9,0.1-5.9,0.4c-1.6,0.3-3.3,0.2-4.9,0.4c-1.6,0.2-3.3,0.7-4.9,0.8
	c-3.5,0.2-6.9,1.1-10.3,1.3c-2.3,0.2-4.5,0.7-6.7,0.9c-2.1,0.3-4.2,0.4-6.3,0.6c-1.4,0.1-2.8,0.6-4.3,0.1c-0.2-0.1-0.6,0.1-0.9,0.1
	c-1.3,0.2-2.5,0.2-3.8-0.2c-0.6-0.2-1.2-0.3-1.8-0.4c-2.8-0.3-4.8-2-6.4-4.2c-1.2-1.7-2.1-3.6-2.3-5.8c0.9-0.7,2.1-0.7,3.2-1
	c3-0.8,5.9-1.8,9-2.3c1.9-0.3,3.7-0.5,5.6-0.8c0.6-0.1,1.2-0.2,1.8-0.3c1.8-0.5,3.7-0.7,5.5-0.9c1.2-0.1,2.4-0.5,3.6-0.7
	c3.1-0.5,6.1-1,9.2-1.5c1.9-0.3,3.8-0.4,5.6-0.8c3.7-0.6,7.4-0.8,11-1c1.9-0.1,3.9-0.1,5.9-0.1c4,0,7.9,0.7,11.9,1.1
	c5.7,0.6,11.3,2,16.9,3.1c1.3,0.2,2.5,0.5,3.8,0.8c1,0.2,2.1,0.5,3,1c0.5,0.2,1,0.5,1.5,0.5c1.7,0.1,3.1,1,4.6,1.8
	c2.8,1.4,5.6,2.7,8.2,4.3c0.6,0.4,1.3,0.8,1.9,1.3c1.6,1.1,3.2,2.3,4.9,3.3c0.9,0.5,1.7,1.1,2.3,1.8c1.3,1.5,3.1,2.4,4.4,3.8
	c0.3,0.3,0.7,0.6,1.1,0.8c1.8,0.7,2.9,2.1,4,3.6c0.3,0.4,0.5,0.8,0.9,1c0.6,0.5,1,1.1,1.3,1.8c0.3,0.9,0.9,1.8,1.4,2.6
	c0.8,1.4,1.5,2.8,2.2,4.2c1,2.1,1.9,4.3,2.8,6.4c0.5,1.3,1.4,2.5,1.4,4c0,0.2,0.1,0.4,0.3,0.6c0.7,0.9,0.8,1.9,1.1,2.9
	c0.4,1.5,0.7,2.9,1,4.4c1,4.9,1.8,9.8,2.5,14.8c0.3,2.3,0.7,4.6,1,6.9C308.9,498.1,308.9,498.3,308.9,498.4z"/>
<path class="st14" d="M164.5,397.5c1-1.7,1.9-3.4,3-5.1c0.7-1.2,1.3-2.4,1.4-3.8c0-0.5,0.1-1.1,0.3-1.6c0.8-2.6,0.9-5.4,0.8-8.1
	c0-1.4-0.3-2.8-0.8-4.2c-0.8-2.3-1.6-4.7-2.8-6.9c-1.3-2.3-2.6-4.6-4.7-6.3c-1.3-1.1-2.8-1.8-4.5-2c-2.1-0.3-4.2-0.4-6.3-0.2
	c-3.3,0.4-6.1,1.7-8.2,4.3c-0.8,1-1.4,2-1.7,3.2c-0.4,1.7-0.7,3.4-0.9,5.1c-0.2,1.1,0.1,2.2,0.4,3.3c0.8,2.4,1.8,4.8,2.9,7.2
	c0.5,1.2,1.2,2.3,2,3.3c1.8,2.5,4.4,3.6,7.4,3.9c1.5,0.1,2.8-0.3,4-1.2c1.9-1.5,3-3.4,3.3-5.7c0.3-2.5,0.7-5,0-7.5
	c-0.4-1.5-0.8-3.1-1.9-4.3c-1.3-1.4-2.9-2.4-4.8-1.9c-1.8,0.5-3.3,1.7-3.7,3.6c-0.4,1.9-0.4,3.8-0.1,5.6c0.2,1.3,1,2.2,2.1,2.8
	c1.2,0.7,2.5,0.2,3.1-1c0.6-1.2,0.9-2.6,0.7-4c0-0.2-0.3-0.4-0.4-0.4c-0.2,0-0.5,0-0.6,0.2c-0.2,0.3-0.4,0.7-0.6,0.9
	c-0.3,0.4-0.9,0.3-1.2,0c-1-1.1-0.9-2.7,0.4-3.6c1-0.7,2.3-0.8,3.4-0.1c1.5,1,2.1,2.2,2,4c-0.1,1.5-0.4,2.9-1,4.2
	c-1.3,2.8-3.6,3.6-6.4,2.2c-2-1.1-3.4-2.6-4-4.9c-0.6-2.4-0.5-4.8,0-7.2c0.4-2.1,1.9-3.5,3.7-4.7c1.5-1,3.1-1.3,4.7-1
	c2,0.4,3.7,1.3,5.1,2.7c2.2,2.2,2.9,4.9,3.2,7.8c0.2,1.4,0.2,2.9,0.1,4.3c-0.3,3.7-1.4,7.1-4.2,9.7c-2.3,2.1-5,2.8-8.2,2.4
	c-2.6-0.3-4.5-1.6-6.5-2.9c-1-0.7-1.7-1.7-2.4-2.7c-2.4-3.3-3.8-7.1-5-10.9c-1.2-3.8-0.8-7.6,0.7-11.3c1.8-4.6,5.4-7.3,10-8.9
	c2.6-0.9,5.3-1,8.1-0.9c1.9,0.1,3.8,0.2,5.5,1.2c2,1.1,4.1,2.2,5.7,4c2.2,2.5,3.9,5.3,5.2,8.5c0.7,1.7,1.6,3.3,2.2,5
	c0.5,1.4,0.8,2.8,0.7,4.2c0,1,0.1,2,0,3c-0.1,2-0.3,3.9-0.6,5.8c-0.2,1.6-1,3.1-2.1,4.2c-1.3,1.3-2.3,2.8-3.5,4.1
	c-1.2,1.3-2.6,2.1-4.2,2.5C164.9,397.7,164.8,397.6,164.5,397.5z"/>
<path class="st8" d="M131.7,609.5c-0.6-0.2-1-0.6-1.4-1c-1.6-1.7-3.2-3.4-4.8-5.1c-2.3-2.4-4.3-5.1-6.2-7.8
	c-0.3-0.4-0.4-0.8-0.8-1.1c-1.5-1.4-2.4-3.3-3.6-4.9c-0.9-1.2-1.8-2.5-2.5-3.8c-1-1.9-2.5-3.4-3.2-5.4c-0.2-0.4-0.4-0.8-0.7-1.2
	c-1.6-2-2.7-4.3-4-6.5c-1.1-2.1-2.4-4-3.5-6.1c-1.8-3.4-3.3-7-4.4-10.7c-0.4-1.5-1.2-2.9-1.7-4.4c-1-2.9-1.8-5.9-2.6-8.9
	c-0.7-2.6-1.5-5.2-1.8-7.9c-1-1.7-0.6-3.5-0.7-5.3c0.5,2,1,4,1.5,5.9c2.6,9.9,6.2,19.5,10.7,28.7c5.9,12.1,12.8,23.6,20.9,34.3
	c2.6,3.5,5.3,6.8,8.1,10.1C131.4,608.6,132.1,608.9,131.7,609.5z"/>
<path class="st8" d="M153.1,630c-0.8-0.2-1.3-0.7-1.9-1.2c-1.8-1.5-3.6-3-5.4-4.4c-2.4-1.9-4.5-4-6.6-6.2c-1.1-1.1-2.1-2.4-3-3.6
	c-0.2-0.2-0.1-0.4,0-0.6c0.2,0.1,0.4,0.2,0.6,0.3c4.9,5.2,10.2,10,15.8,14.5c0.3,0.2,0.5,0.5,0.8,0.8
	C153.3,629.7,153.2,629.9,153.1,630z"/>
<path class="st8" d="M167.7,640c-0.5-0.2-1-0.3-1.5-0.6c-4.5-2.6-8.7-5.7-12.8-8.9c-0.2-0.1-0.2-0.4-0.3-0.6
	c0.1-0.1,0.3-0.3,0.3-0.3c0.6,0.4,1.1,0.7,1.7,1.1c3.7,2.8,7.5,5.5,11.4,8C167,639.2,167.6,639.3,167.7,640z"/>
<path class="st8" d="M308.6,499.3c0.2,0,0.3,0,0.5,0c0.7,2,1.3,3.9,1.7,6c-0.8-0.7-1.2-1.6-1.4-2.7
	C309.2,501.4,308.8,500.4,308.6,499.3z"/>
<path class="st8" d="M133.5,611.4c-0.8-0.1-1.2-0.6-1.4-1.4C133.1,610,133.4,610.6,133.5,611.4z"/>
<path class="st8" d="M169.3,640.9c-0.7-0.1-1.2-0.3-1.6-0.9C168.4,640,169,640.3,169.3,640.9z"/>
<path class="st8" d="M135.8,613.6c-0.8-0.1-0.9-0.1-1-1C135.4,612.8,135.7,613.2,135.8,613.6z"/>
<path class="st8" d="M310.7,505.2c0.1,0.2,0.2,0.3,0.3,0.5C310.9,505.5,310.8,505.3,310.7,505.2z"/>
<path class="st8" d="M132.2,610c-0.3,0-0.5-0.2-0.5-0.5C132.2,609.4,132.3,609.6,132.2,610z"/>
<path class="st8" d="M134,611.8c-0.3,0-0.5-0.2-0.5-0.5C133.8,611.3,133.9,611.6,134,611.8z"/>
<path class="st8" d="M134.5,612.3c-0.4,0.1-0.5-0.2-0.5-0.5C134.3,611.8,134.4,612,134.5,612.3z"/>
<path class="st8" d="M134.9,612.7c-0.5,0.1-0.5-0.1-0.5-0.5C134.8,612.2,134.9,612.4,134.9,612.7z"/>
<path class="st8" d="M136.3,614.1c-0.5,0.2-0.6-0.1-0.5-0.5C136.1,613.7,136.2,613.8,136.3,614.1z"/>
<path class="st12" d="M179.2,419.6c0.2,0.4-0.2,0.3-0.4,0.4C178.8,419.7,178.8,419.5,179.2,419.6z"/>
<path class="st7" d="M664.6,215.5c0.1,4.8-0.8,9.2-1.9,13.5c-2.5,10.2-6.9,19.6-13.2,28c-3.5,4.7-7.6,8.7-12.6,11.6
	c-3.4,2-7.1,3.2-11,3.2c-7.9,0-14.1-3.3-18.1-10.1c-2.2-3.8-3.5-7.9-3.8-12.3c-1.1-16.8,3.9-31.6,14.7-44.4
	c3.7-4.5,8.2-8.1,13.5-10.5c3.6-1.7,7.4-2.6,11.4-2.6c2.3,0,4.5,0.5,6.5,1.7c0.7,0.4,1.5,0.7,2.3,0.8c2.5,0.3,4.5,1.6,6.2,3.5
	c2.6,2.8,4,6.2,5,9.9C664.4,210.3,664.8,213,664.6,215.5z M646.7,196.5c-1-0.3-1.7,0-2.5,0.2c-2.1,0.7-3.8,1.9-5.3,3.4
	c-2.2,2-4,4.4-5.6,6.9c-3.9,6.2-6.4,13-7.9,20.2c-1,4.8-1.7,9.7-0.9,14.7c0.8,5.2,2.5,10,5.5,14.3c0.8,1.1,1.6,2,2.7,2.8
	c1.7,1.3,3.6,1.2,5.2-0.2c0.6-0.5,1.2-1.2,1.7-1.8c0.9-1.2,1.6-2.6,2.3-3.9c1.3-2.8,2.3-5.8,3.2-8.7c1.7-5.7,2.8-11.5,3.3-17.4
	c0.6-6.1-0.3-11.9-2.7-17.6c-0.9-2.1-2.1-4.1-3.8-5.6c-1.3-1.1-1.1-1.7-0.1-2.8c0.6-0.8,1.4-1.4,2.1-2.1
	C644.7,198.1,645.6,197.4,646.7,196.5z"/>
<path class="st7" d="M565.5,272c-2.1,0.1-4-0.5-5.7-1.8c-2.4-1.7-2.9-3.6-2-6.3c1.7-5.1,3.5-10.2,5.3-15.2
	c3.9-10.8,8-21.6,12.2-32.3c0.1-0.2,0.2-0.4,0.2-0.6c0.1-0.3,0.3-0.6,0.1-0.8c-0.3-0.4-0.7-0.1-1,0c-1.5,0.6-3,1.2-4.4,1.7
	c-2.9,1.1-4.2,0.2-4.5-2.7c-0.3-2.7,0.5-5.1,2.1-7.3c0.5-0.7,1.3-1,2-1.4c2.8-1.4,5.7-2.9,8.6-4.2c3.5-1.7,7-3.3,10.5-4.9
	c1.9-0.9,3.8-1.6,5.7-2.1c0.9-0.2,1.8-0.1,2.7,0.2c1.2,0.5,2,1.3,2.3,2.6c0.5,1.8,0.1,3.5-0.3,5.2c-0.7,3.6-1.8,7.1-3.1,10.5
	c-3.2,8.4-5.6,17-8.1,25.6c-1.9,6.7-3.6,13.5-5.9,20.1c-0.6,1.6-1.2,3.1-1.8,4.6c-0.9,2.1-2.2,3.8-4.1,5.1c-1.1,0.8-2.2,1.6-3.4,2.3
	C570.6,271.4,568.1,272,565.5,272z"/>
<path class="st9" d="M604.9,320.3c-0.2,0.6,0.2,1,0.5,1.4c0.4,0.5,1,0.8,1.6,0.8c1.4,0,2.9,0.1,4.3,0c5.6-0.5,11.2-0.7,16.8-0.9
	c3-0.1,5.9,0,8.8,0.1c2.7,0.1,5.4,0.4,8,1.2c2,0.6,3.9,1.6,5.7,2.8c1.5,0.9,2.8,2.1,4.2,3c1.5,1,2.4,2.5,3.7,3.6
	c0.6,0.5,1.4,0.9,1.7,1.5c1.2,2.3,3.4,3.9,4.5,6.2c-0.4-0.2-0.9-0.3-1.2-0.6c-1.5-1.8-3.6-2.7-5.3-4.2c-1.8-1.6-3.7-3.1-5.6-4.6
	c-0.7-0.5-1.6-0.9-2.3-1.4c-0.4-0.2-0.8-0.4-1.2-0.6c-2.9-1.9-6.2-3.1-9.6-3.9c-2.6-0.6-5.4-0.7-8.1-0.7c-1.2,0-2.4,0-3.6,0
	c-0.9,0-1.8,0-2.7,0.2c-0.8,0.2-1.7,0.2-2.5,0.1c-1.2-0.1-2.4,0-3.6,0.2c-1.9,0.3-3.7,0.4-5.6,0.1c-0.2,0-0.5,0-0.7,0
	c-2,0.4-4.1,0.3-6.1-0.1c-1.4-1.1-2.3-2.5-3-4.1C604.1,320.3,604.5,320.3,604.9,320.3z"/>
<path class="st15" d="M448.6,324.3c-3.3-1-6.6-1.1-9.9-1.1c0-0.6,0-1,0-1.4c0.4-7,0.8-13.9,1.1-20.9c0.2-4,0.6-8,1-12
	c0.5-4.1,1.1-8.3,2.3-12.3c0.4-1.5,1-3,1.7-4.4c0.4-0.7,0.8-1.1,1.6-1c1.4,0.1,2.7,0.2,4.1,0.4c1.8,0.2,3.6,0.5,5.4,0.8
	c0.9,0.2,0.9,0.2,0.9,1.2c0,3-0.4,6.1-0.8,9.1c-1.5,11.5-3.8,22.9-6,34.2c-0.4,1.9-0.7,3.9-1.1,5.8
	C449,323.1,448.8,323.6,448.6,324.3z"/>
<path class="st9" d="M630.5,351.4c-0.2,0.8,0.3,1.7-0.2,2.6c-1.1,0-2.2-0.4-3.1-1.1c-2-1.4-3.7-3.1-5-5.2c-1.5-2.5-3.6-4.8-6.3-6.1
	c-1.9-0.9-3.9-1.7-5.8-2.5c-0.6-0.3-1.3-0.4-1.9-0.7c-1.2-0.5-2.3-1-3.5-1.4c-2-0.7-3.7-2-5.2-3.5c-2-1.9-3-4.3-4.1-6.7
	c-0.7-1.7-1.3-3.4-2.1-5c-0.6-1.3-1.2-2.6-1.9-3.8c-1.1-1.8-2.1-3.7-2.7-5.7c-0.4-1.3-1-2.5-1.7-3.7c-1.2-2-1.8-4.3-3.3-6.2
	c-0.2-0.2-0.1-0.6-0.3-0.8c-1.4-1.2-2-3-3.2-4.4c-0.6-0.7-1.3-1.2-2-1.8c-1.8-1.6-5-1.7-6.9-0.3c-2.8,1.9-4.6,4.5-6,7.5
	c-0.8,1.7-1.6,3.4-1.9,5.3c-0.1,0.9-0.6,1.7-0.9,2.6c-0.2,0-0.4,0-0.6,0c-0.1-0.4-0.1-0.7,0.2-1c0.1-0.1,0.1-0.2,0.1-0.3
	c0.3-2.5,0.7-5.1,1.5-7.5c0.1-0.4,0.1-0.7,0.2-1.1c0.5-2.9,1.6-5.5,3.8-7.5c1.8-1.6,4-2.8,6.5-3c1.9-0.2,3.6,0.6,5,1.8
	c2.2,1.8,4,4.1,5.4,6.7c0.7,1.4,1.6,2.7,2.5,4c1.5,2.1,2.5,4.4,3.4,6.8c0.9,2.4,1.8,4.8,2.9,7.1c1.2,2.7,2.4,5.4,4.3,7.7
	c0.4,0.5,0.7,1,1,1.5c1.7,2.9,4.2,4.9,6.9,6.7c2.3,1.5,4.9,2.4,7.4,3.3c0.3,0.1,0.6,0.2,0.9,0.2c0.8,0.2,1.7-0.1,2.5,0.3
	c2.1,1.2,4.4,1.9,6.4,3.4c1.8,1.4,3.2,3.1,4.3,4.9c1.3,2,2.3,4.2,3.4,6.4C630.4,351,630.4,351.2,630.5,351.4z"/>
<path class="st9" d="M574.4,387.1c0.9,1.8,1.2,3.7,1.5,5.7c1.1,6.3,1.7,12.7,1.8,19.2c0.1,3.2,0.1,6.5-0.3,9.7
	c-0.4,3.9-0.6,7.8-1.5,11.7c-0.4,1.6-0.6,3.3-0.9,4.9c-0.2,0.9-0.4,1.8-0.6,2.7c-0.1,0.6-0.3,1.2-0.3,1.8c-0.2,2.7-0.9,5.2-2,7.6
	c-0.6,1.3-1.4,2.1-2.8,2.4c-0.4-0.4-0.3-1-0.6-1.5c-0.4-0.7-0.2-1.2,0.1-1.9c1-2.3,1.8-4.6,2.2-7.1c0.6-3.4,1-6.9,1.5-10.3
	c0.5-3.8,0.8-7.7,1-11.5c0.2-3.5,0.2-6.9,0.4-10.4c0.1-1.3-0.1-2.5,0-3.8c0-1.3,0.2-2.6,0.2-3.8c0-4.8,0-9.7,0.1-14.5
	C574.4,387.5,574.4,387.3,574.4,387.1z"/>
<path class="st8" d="M561.9,310.3c0.2,0,0.4,0,0.6,0c0,0.3,0.1,0.6,0,0.9c-0.6,1.7-0.9,3.5-1.2,5.3
	C561.2,314.3,561.6,312.3,561.9,310.3z"/>
<path class="st8" d="M308.9,498.4c0-0.2,0-0.3,0-0.5c0.1,0.1,0.1,0.2,0.2,0.3C309.1,498.3,309,498.4,308.9,498.4z"/>
<path class="st8" d="M562.1,309c0.1,0.1,0,0.2-0.1,0.3c0,0-0.1-0.2-0.1-0.2L562.1,309z"/>
<path class="st0" d="M207.2,659.7c-0.2-0.1-0.2-0.2-0.1-0.3c0.1-0.1,0.3,0,0.3,0.1C207.4,659.6,207.3,659.6,207.2,659.7z"/>
<path class="st15" d="M338.6,189.7c0.6,0.5,0.9,1.2,1.3,1.8c5.4,8.4,9.1,17.6,11.8,27.2c1.2,4.5,2.2,9,2.6,13.6
	c0.4,3.9,0.3,7.7-0.3,11.6c-0.3,1.5-1.1,2.8-1.8,4.1c-0.3,0.5-0.7,0.5-1.2,0.3c-1.4-0.5-2.7-1.1-3.8-2c-2.7-2-4.9-4.4-6.2-7.6
	c-1.9-4.9-3.2-9.9-3.8-15.1c-0.9-7-0.6-14.1-0.1-21.1c0.2-3.8,0.6-7.5,1.1-11.3C338.2,190.6,338.1,190,338.6,189.7z"/>
<path class="st15" d="M267.6,228.7c0.3-8.3,0.7-15.4,1.7-22.4c0-0.2,0-0.3,0.1-0.4c0-0.1,0.1-0.3,0.2-0.3c0.1,0,0.3,0,0.4,0.1
	c0.4,0.6,0.8,1.1,1.1,1.7c5.1,8.1,8.8,16.8,11.4,25.9c1.5,5.2,2.6,10.5,3,15.8c0.3,3.4,0.1,6.8-0.4,10.2c-0.1,0.6-0.2,1.2-0.4,1.8
	c-2,3.8-1.2,3.9-4.9,1.9c-3.6-1.9-6.2-4.8-7.7-8.6c-1.8-4.6-3.1-9.4-3.7-14.3C267.8,235.9,267.5,231.7,267.6,228.7z"/>
<path class="st10" d="M419.3,529.8c0.8-3.6,1.7-7.3,2.3-11c0.6-4.2,1.9-8.2,2.8-12.4c0.5-2.3,1-4.6,1.5-6.9c0.2-1.1,0.2-2.1-0.8-2.9
	c-1.1-0.9-3-0.7-3.6,0.5c-0.8,1.8-1.8,3.5-2.3,5.4c-1.4,4.9-2.4,10-3.5,15c-0.6,2.7-1,5.5-1.6,8.2c-0.2,1-0.6,2-0.8,3
	c-0.9,0.4-1.4-0.3-2-0.4c-2.6-0.8-5.2-1.6-7.8-2.4c-1-0.3-2-0.6-3-1.1c-0.5-0.2-1-0.5-1.5-0.5c-0.9,0-1.6-0.5-2.3-0.9
	c-1.9-1-3.9-2-5.8-3c-0.4-0.2-0.6-0.5-0.5-0.9c0-0.5,0.1-0.9,0.2-1.4c0.4-2.3,0.9-4.6,1.2-6.9c0.5-3.2,1-6.4,1.5-9.6
	c0.2-1.6,0.5-3.1,0.7-4.7c0.2-1.4,0.4-2.8,0.3-4.3c0-1,0.1-2,0.3-2.9c0.2-1,0-2,0-3c0-0.6-0.6-1.1-1.2-1.2c-0.5-0.1-0.9,0.2-1.1,0.6
	c-0.4,0.6-0.6,1.2-0.7,1.9c-0.1,2.3-0.9,4.4-1.6,6.6c-0.9,3.1-1.4,6.3-2.2,9.5c-0.7,2.9-1.3,5.8-1.7,8.7c-0.2,1.3-0.6,2.6-0.7,3.9
	c-0.8,0.1-1.2-0.5-1.7-0.8c-1.8-1.2-3.6-2.3-5.1-3.8c-0.1-0.1-0.1-0.1-0.2-0.1c-2.4-1.4-4.4-3.4-6.5-5.2c-1.4-1.2-2.8-2.6-4.2-3.8
	c-0.5-0.4-0.7-1-0.5-1.6c1-3.6,1.3-7.3,1.9-10.9c0.5-3.2,0.9-6.4,1.3-9.7c0.2-1.5,0.1-3,0.4-4.5c0.2-1.5-1.2-2.6-2.7-2.3
	c-1,0.2-1.4,0.9-1.6,1.7c-0.3,0.9-0.5,1.9-0.6,2.9c-0.5,4.4-1.3,8.8-2,13.2c-0.2,1-0.4,1.9-0.3,2.9c0.1,0.9-0.7,1.7-0.4,2.8
	c-1.1-0.5-1.7-1.3-2.2-2.2c-0.4-0.7-0.8-1.3-1.3-1.9c-1.8-2.2-3-4.7-4.4-7.1c-2.2-3.9-4.1-8.1-5.9-12.2c-1.1-2.5-2.1-5-3-7.6
	c-1-2.9-2.1-5.8-2.6-8.9c-0.3-1.5-0.7-2.9-1.1-4.4c-0.1-0.3-0.2-0.6,0-0.9c5.5,1.4,11,3,16.6,4.3c2.6,0.6,5.2,1.5,8,1.8
	c0.9,0.1,1.8,0.4,2.6,0.7c2.3,0.8,4.7,1.1,7,1.8c2.6,0.7,5.3,1.3,7.9,2c3.4,0.9,6.7,1.7,10.1,2.4c4.3,0.9,8.6,1.9,12.9,2.5
	c3.1,0.5,6.1,1.2,9.2,1.4c4.5,1.2,9.3,1.4,13.8,2.5c2.3,0.6,4.8,0.8,7.1,1.1c1.3,0.2,2.6,0.6,4,0.9c2.7,0.6,5.5,0.8,8.2,1.5
	c2.6,0.6,5.1,1.2,7.8,1.6c1.9,0.3,3.7,0.6,5.6,1c2.4,0.4,4.8,0.8,7.1,1.4c1.5,0.4,3.1,0.4,4.6,0.9c1.1,0.3,2.2,0.4,3.4,0.6
	c3.9,0.7,7.7,1.4,11.6,1.8c2.7,0.3,5.3,1,8,1.4c2.9,0.5,5.8,0.8,8.8,1.2c3.2,0.5,6.5,0.6,9.7,0.8c0.1,0,0.3,0.1,0.5,0.2
	c-0.1,0.5-0.2,1-0.4,1.5c-0.8,2-1.7,3.9-2.4,5.8c-0.9,2.7-2.4,5.2-3.7,7.8c-0.4,0.8-0.8,1.4-1.3,2.1c-1.1,1.6-2.2,3.3-3.4,4.8
	c-0.6,0.8-1.2,1.8-2.3,2.3c-0.1-1,0-1.8,0.1-2.6c0.2-1.9,0.7-3.9,0.7-5.8c0-0.3,0.1-0.6,0-0.9c0-1.4-0.7-2.1-2.1-2.1
	c-1,0-1.3,0.2-1.7,1.1c-0.6,1.5-0.9,3.1-1.1,4.6c-0.6,3.2-1.1,6.4-1.5,9.6c-0.2,1.3-0.6,2.3-1.7,3c-1.7,1.2-3.4,2.6-5.1,3.8
	c-0.7,0.5-1.5,0.6-2.3,1c-2.7,1.4-5.3,3-8.2,3.7c-1,0.3-1.9,1-3,1c0.1-1.4,0.9-2.5,1.2-3.8c0.7-3.3,1.4-6.5,2.2-9.7
	c0.4-1.8,0.8-3.7,1.3-5.5c0.3-1.2,0.2-2.4,0.2-3.6c0-0.8-0.7-1.5-1.6-1.7c-0.8-0.2-1.5,0.1-2,0.8c-0.2,0.4-0.5,0.8-0.5,1.2
	c0,3-1.4,5.7-2,8.6c-0.7,3.2-1.5,6.3-2.2,9.5c-0.1,0.2,0,0.5-0.1,0.7c-0.7,1.4-0.6,2.8,0,4.2c0.2,0.4,0.1,0.7-0.3,0.9
	c-0.3,0.1-0.7,0.3-1.1,0.4c-1.5,0.3-3,0.6-4.4,1.1c-0.8,0.3-1.8,0.2-2.7,0.4c-1.7,0.3-3.4,0.8-5.1,1c-2.6,0.3-5.3,0.5-7.9,0.7
	c-0.7,0.1-1.3,0.1-2,0.1c-0.4-0.4-0.3-0.8-0.2-1.3c0.5-4.7,1.4-9.4,2.3-14.1c0.5-2.2,1.2-4.4,1.2-6.7c0-0.7,0.3-1.5,0.5-2.2
	c0.3-1.5,0.6-3,0.8-4.4c0.2-1.2-0.6-2.1-1.6-2.4c-0.7-0.2-1.2,0-1.6,0.6c-0.3,0.5-0.6,1.1-0.7,1.7c-1.1,4.1-2.2,8.1-3.1,12.2
	c-0.7,3-1.3,6-1.9,9.1c-0.4,2.2-0.5,4.4-0.7,6.5c-0.1,1-0.5,1.1-1.3,1.2c-0.4,0-0.8,0-1.1-0.1c-2.3-0.1-4.5-0.5-6.8-0.3
	c-0.4,0-0.9,0-1.4-0.1c-2.3-0.4-4.7-0.3-7-0.8c-0.3-0.1-0.6,0-0.9,0.1c-1,0.3-1.9,0-2.9-0.3c-1.1-0.4-2.4-0.4-3.5-0.6
	c-0.4-0.1-0.9-0.2-1.3-0.3C419.6,530.1,419.5,529.9,419.3,529.8z"/>
<path class="st2" d="M646.7,196.5c-1.1,0.9-2,1.6-2.8,2.3c-0.7,0.7-1.5,1.3-2.1,2.1c-1,1.2-1.2,1.7,0.1,2.8c1.8,1.5,2.9,3.5,3.8,5.6
	c2.4,5.6,3.2,11.4,2.7,17.6c-0.5,5.9-1.6,11.7-3.3,17.4c-0.9,3-1.9,5.9-3.2,8.7c-0.6,1.4-1.3,2.7-2.3,3.9c-0.5,0.7-1.1,1.3-1.7,1.8
	c-1.6,1.4-3.5,1.4-5.2,0.2c-1-0.8-1.9-1.7-2.7-2.8c-3.1-4.3-4.7-9.1-5.5-14.3c-0.8-5-0.1-9.8,0.9-14.7c1.5-7.2,4-14,7.9-20.2
	c1.6-2.5,3.4-4.9,5.6-6.9c1.6-1.4,3.3-2.7,5.3-3.4C644.9,196.5,645.6,196.3,646.7,196.5z"/>
</svg>
