<svg xmlns="http://www.w3.org/2000/svg" fill="white" style="width:22px; height: auto;" viewBox="0 0 25 11" data-inject-url="https://bizweb.dktcdn.net/100/349/716/themes/736844/assets/zalo.svg?1598548450804" class="svg"><title>Asset 1</title><g id="Layer_2--inject-2" data-name="Layer 2"><g id="Layer_1-2--inject-2" data-name="Layer 1"><path d="M16,0a1,1,0,0,1,1,1v9a1,1,0,0,1-2,0V1A1,1,0,0,1,16,0ZM1,1H6a1,1,0,0,1,.88.52,1,1,0,0,1,0,1L2.8,9H6a1,1,0,0,1,0,2H1A1,1,0,0,1,.15,9.47L4.2,3H1A1,1,0,0,1,1,1ZM9.41,4.18a3.41,3.41,0,0,1,2.78.27A1,1,0,0,1,13,4a1,1,0,0,1,1,1v5a1,1,0,0,1-1,1,1,1,0,0,1-.81-.45A3.48,3.48,0,0,1,7,7,3.53,3.53,0,0,1,9.41,4.18Zm11.4-.11a3.5,3.5,0,1,1-2.75,2.75A3.51,3.51,0,0,1,20.81,4.07ZM10.5,6a1.51,1.51,0,0,0-.3,0A1.49,1.49,0,0,0,9,7.2,1.48,1.48,0,0,0,9,7.8a1.48,1.48,0,0,0,.09.28A1.5,1.5,0,1,0,10.5,6Zm11,0a1.51,1.51,0,0,0-.3,0,1.48,1.48,0,0,0-.28.09,1.52,1.52,0,0,0-.8.8A1.48,1.48,0,0,0,20,7.2a1.48,1.48,0,0,0,0,.61,1.48,1.48,0,0,0,.09.28,1.5,1.5,0,0,0,.8.8A1.48,1.48,0,0,0,21.2,9a1.48,1.48,0,0,0,.61,0,1.5,1.5,0,0,0-.3-3Z"></path></g></g></svg>