<svg version="1.1" id="Ebene_1" xmlns="http://www.w3.org/2000/svg" x="0" y="0" viewBox="0 0 459.2 188.9" xml:space="preserve"><style>.st1{fill:#fff}</style><g id="Ebene_2_1_"><g id="Ebene_1-2"><g id="ABUS_logo_pos"><path d="M70.9 141.7h317.5c39.1-.5 70.5-32.6 70-71.7-.5-38.5-31.5-69.6-70-70H70.9C31.7-.5-.4 30.9-.8 70s30.9 71.2 70 71.7h1.7" fill="#d40828"/><path class="st1" d="M11.9 70.9c0-32.6 26.4-59 59-59h317.4c32.6 1.2 58 28.6 56.8 61.1-1.1 30.9-25.9 55.7-56.8 56.8H70.9c-32.6 0-59-26.4-59-58.9m59 49.2h317.5c27.2-.4 49-22.8 48.6-50-.4-26.7-21.9-48.2-48.6-48.6H70.9c-27.2-.4-49.6 21.4-50 48.6-.4 27.2 21.4 49.6 48.6 50h1.4"/><path class="st1" d="M349.6 64.7V49.8c0-.9.7-1.6 1.6-1.6H362c.9 0 1.6.7 1.6 1.6v3.5h27.6V42c0-3.5-2.8-6.3-6.3-6.3h-56.6c-3.5 0-6.3 2.8-6.3 6.3v35.1h41.5V92c0 .8-.7 1.5-1.5 1.6h-10.8c-.9 0-1.6-.7-1.6-1.6v-3.6H322v11.3c0 3.5 2.8 6.3 6.3 6.3h56.6c3.5 0 6.3-2.8 6.3-6.3v-35h-41.6zm-67 28.9h-10.8c-.9 0-1.6-.7-1.6-1.6V35.7h-32.7v12.5h5.1v51.5c0 3.5 2.8 6.3 6.3 6.3h56.6c3.5 0 6.3-2.8 6.3-6.3V48.2h5.1V35.7h-32.7V92c0 .9-.7 1.6-1.6 1.6m-50.2-16.4v22.6c0 3.5-2.8 6.3-6.3 6.3h-68V93.6h5.1V48.2h-5.1V35.7h68c3.5 0 6.3 2.8 6.3 6.3v22.9c-.2 3.3-2.9 5.9-6.3 5.9 3.5.1 6.3 2.9 6.3 6.4m-29.2-12.5c.9 0 1.6-.7 1.6-1.5V49.8c0-.9-.7-1.6-1.5-1.6H191v16.4h12.2zm-12.3 28.9h12.3c.9 0 1.6-.7 1.6-1.5V78.7c0-.9-.7-1.6-1.5-1.6H191v16.5zM85.5 106h-22V93.6h5.1l19-45.3h-5.2V35.7h41.8L148 93.6h5.1V106h-28.6l-6.7-16.4H92.4L85.5 106zm12.1-28.9h15L105.2 59l-7.6 18.1zm-20.4 98.8c0 1.2-.2 2.3-.6 3.4-.3.8-.9 1.5-1.6 2-.7.5-1.4.8-2.3.9-.9.2-1.8.3-2.7.2-.8 0-1.5-.1-2.3-.2-.7-.1-1.4-.3-2.2-.5V179c.7.2 1.4.4 2.2.6.7.2 1.4.2 2.1.2.5 0 1.1 0 1.6-.1s.9-.3 1.3-.6.7-.7.9-1.1c.2-.6.4-1.2.3-1.9 0-.5-.1-.9-.2-1.4-.1-.4-.3-.8-.6-1.1-.3-.3-.5-.6-.9-.9-.3-.3-.7-.5-1.1-.8l-2.4-1.6c-.5-.3-.9-.7-1.4-1.1-.4-.4-.8-.8-1.1-1.2-.3-.5-.6-1-.8-1.6-.2-.6-.3-1.2-.3-1.9 0-1 .2-2 .6-2.9.4-.7.9-1.4 1.6-1.9.7-.5 1.4-.8 2.2-1 .8-.2 1.6-.3 2.4-.3.7 0 1.4.1 2.2.2.6.1 1.3.3 1.9.6v2.6l-2.1-.6c-.7-.2-1.3-.2-2-.2-1 0-2 .2-2.8.7-.8.6-1.2 1.6-1.1 2.6 0 .8.3 1.6.8 2.1.6.6 1.2 1.1 1.9 1.6l1.9 1.3c.5.4 1.1.8 1.6 1.2.5.4.9.9 1.3 1.4.4.5.8 1.1 1 1.8.7.6.8 1.4.7 2.2m16.8-1.7v-1.8c0-1.5-.1-2.9-.6-4.3-.3-.9-.8-1.8-1.5-2.5-.5-.6-1.2-1-2-1.2-.7-.2-1.5-.3-2.3-.3-.8 0-1.7.1-2.5.4-.9.3-1.6.8-2.2 1.4-.7.8-1.2 1.8-1.5 2.8-.4 1.5-.6 3-.6 4.6-.1 1.7.2 3.4.7 5 .3 1.1 1 2 1.8 2.8.7.6 1.5 1 2.4 1.2.9.2 1.8.2 2.7.2.7 0 1.5-.1 2.2-.2.8-.1 1.6-.4 2.4-.6V179c-.9.2-1.7.5-2.5.6-.7.2-1.4.2-2.1.2-.5 0-1 0-1.4-.1-.5-.1-1-.3-1.5-.6-.5-.4-.9-1-1.2-1.7-.4-1-.5-2.1-.5-3.2H94zm-10-2.1c0-1 .1-1.9.3-2.9.1-.6.4-1.2.8-1.8.3-.4.7-.7 1.1-.9.5-.2 1-.2 1.5-.2.4 0 .9.1 1.3.2s.8.4 1.1.8c.4.5.6 1.1.7 1.8.2 1 .3 2 .3 3H84zm25.1 7c-.6.2-1.2.4-1.9.5-.6.1-1.1.2-1.7.2-.5 0-1.1-.1-1.6-.2-.6-.1-1.1-.5-1.4-.9-.5-.6-.8-1.3-1-2-.3-1.1-.4-2.2-.4-3.4 0-1.2.1-2.5.4-3.7.2-.7.6-1.4 1.1-2 .4-.4.9-.7 1.5-.9.5-.1 1.1-.2 1.7-.2.6 0 1.1.1 1.7.2.6.1 1.1.3 1.7.4v-2.6c-.5-.2-1.1-.3-1.7-.5-.6-.1-1.2-.2-1.8-.2-.8 0-1.5.1-2.3.3-.9.2-1.8.6-2.5 1.2-.9.8-1.6 1.7-2 2.8-.6 1.6-.9 3.3-.8 5-.1 1.7.2 3.4.8 5 .4 1 1.1 2 1.9 2.7.7.6 1.5 1 2.4 1.2.8.2 1.6.2 2.4.2 1.2 0 2.4-.2 3.6-.7l-.1-2.4zm16.9 3v-17.7h-3v13.5c-.7.6-1.5 1-2.4 1.4-.7.3-1.4.5-2.2.5-.8.1-1.5-.2-2-.8-.4-.7-.6-1.6-.5-2.4v-12.2h-3v12.9c0 .8.1 1.7.3 2.5.2.6.5 1.2 1 1.6.4.4 1 .7 1.6.9.6.2 1.3.3 2 .3.6 0 1.1-.1 1.7-.3l1.5-.6c.4-.2.9-.5 1.2-.9.4-.3.7-.6 1-.9l.4 2.3 2.4-.1zm13.6-17.8l-.8-.1c-.2 0-.5-.1-.7-.1-.9 0-1.7.3-2.4.9-.3.3-.6.5-.8.9-.2.3-.4.7-.6 1l-.4-2.4h-2.3v17.8h3v-13.5c.3-.4.7-.7 1.2-1 .5-.3 1-.4 1.6-.4.4 0 .7 0 1.1.1.4.1.7.1 1.1.2v-3.4zm7.2-4.6c0-.5-.2-1-.6-1.4-.8-.8-2-.8-2.8 0-.8.8-.8 2 0 2.8.8.8 2 .8 2.8 0 .5-.4.7-.9.6-1.4m-3.4 22.4h3v-17.7h-3v17.7zm17.4-2.8c-.6.2-1.1.3-1.7.4-.4.1-.9.2-1.4.2-.4 0-.9-.1-1.3-.3-.3-.2-.4-.7-.4-1.5v-11.4h3.7l.3-2.3h-4V159l-2.9 1.3-.1 4h-3v2.3h3V178c0 .7.1 1.5.3 2.2.1.5.4 1 .8 1.4.3.4.8.6 1.3.7.6.1 1.1.2 1.7.2.7 0 1.3-.1 2-.2.6-.1 1.1-.2 1.7-.4v-2.6zm13.4-14.9l-3.4 14.2-4.4-14.2h-3.6l6.6 17.7-.2.9c-.1.6-.3 1.1-.5 1.7-.2.4-.4.7-.6 1-.2.2-.4.4-.7.5-.2.1-.5.1-.8.1-.3 0-.6 0-.9-.1-.3 0-.7-.1-1-.2s-.8-.1-1.1-.2v2.5c.3.1.6.2 1 .3s.6.1 1 .2c.4 0 .7.1 1.1.1.5 0 1-.1 1.4-.1.5-.1 1-.3 1.4-.6.5-.4.9-.9 1.3-1.4.5-.8.8-1.6 1.1-2.5l5.8-19.8-3.5-.1zm28-5.7h-14.5v2.8h5.7v20.6h3v-20.6h5.4l.4-2.8zm12.9 15.5v-1.8c0-1.5-.1-2.9-.6-4.3-.3-.9-.8-1.8-1.5-2.5-.5-.6-1.2-1-2-1.2-.7-.2-1.5-.3-2.3-.3-.8 0-1.7.1-2.5.4-.8.3-1.6.8-2.1 1.4-.7.8-1.2 1.8-1.5 2.8-.4 1.5-.6 3-.6 4.6-.1 1.7.2 3.4.7 5 .4 1.1 1 2 1.8 2.8.7.6 1.5 1 2.4 1.2.9.2 1.8.2 2.6.2.7 0 1.5-.1 2.2-.2.8-.1 1.6-.4 2.4-.6V179c-.9.2-1.7.5-2.5.6-.7.2-1.4.2-2.1.2-.5 0-1 0-1.4-.1-.5-.1-1-.3-1.5-.6-.5-.4-.9-1-1.2-1.7-.4-1-.5-2.1-.5-3.2h10.2zm-10-2.1c0-1 .1-1.9.3-2.9.1-.6.4-1.2.8-1.8.3-.4.7-.7 1.1-.9.5-.2 1-.2 1.5-.2.4 0 .9.1 1.3.2s.8.4 1.1.8c.4.5.6 1.1.7 1.8.2 1 .3 2 .3 3h-7.1zm25.1 7c-.6.2-1.2.4-1.9.5-.6.1-1.1.2-1.7.2-.5 0-1.1-.1-1.6-.2-.6-.1-1.1-.5-1.4-.9-.5-.6-.8-1.3-1-2-.3-1.1-.4-2.2-.4-3.4 0-1.2.1-2.5.4-3.7.2-.7.6-1.4 1.1-2 .4-.4.9-.7 1.5-.9.5-.1 1.1-.2 1.7-.2.6 0 1.1.1 1.7.2.6.1 1.1.3 1.7.4v-2.6c-.5-.2-1.1-.3-1.7-.5-.6-.1-1.2-.2-1.8-.2-.8 0-1.5.1-2.3.3-.9.2-1.8.6-2.5 1.2-.9.8-1.6 1.7-2 2.8-.6 1.6-.9 3.3-.8 5-.1 1.7.2 3.4.8 5 .4 1 1.1 2 1.9 2.7.7.6 1.5 1 2.4 1.2.8.2 1.6.2 2.4.2 1.2 0 2.4-.2 3.6-.7l-.1-2.4zm17.6 3v-12.8c0-.9-.1-1.7-.4-2.6-.2-.6-.6-1.2-1.1-1.6-.5-.4-1-.7-1.6-.9-.7-.2-1.4-.3-2.1-.2-.6 0-1.2.1-1.8.3-.5.2-1.1.4-1.6.6-.5.2-.9.5-1.3.8-.3.2-.7.5-1 .8V158h-3v24.1h3v-13.5c.3-.2.7-.5 1.1-.6l1.2-.6c.4-.2.9-.3 1.3-.4.4-.1.8-.2 1.3-.2.4 0 .7 0 1.1.1.3 0 .6.1.9.3.3.2.5.4.6.7.2.4.2.9.2 1.3v12.9h3.2zm29-.6c.5-.1 1-.3 1.3-.4v-13h-6.7v2.6h3.7v8.6c-.7.2-1.4.3-2 .4-.7.1-1.3.2-2 .2s-1.3-.1-1.9-.4c-.7-.3-1.2-.7-1.6-1.4-.5-.9-.9-1.8-1.1-2.9-.3-1.6-.5-3.2-.4-4.9 0-1.6.2-3.3.6-4.9.3-1 .8-2 1.5-2.9.5-.6 1.3-1.1 2.1-1.4.7-.2 1.5-.4 2.3-.4.8 0 1.5.1 2.3.3.9.2 1.8.5 2.6.8v-2.6c-.8-.4-1.6-.7-2.5-.8-.8-.2-1.6-.2-2.5-.2-1 0-2 .2-3 .4-1.1.3-2.2.9-3.1 1.7-1.1 1-1.9 2.3-2.4 3.6-.7 2-1.1 4.2-1 6.3-.1 2.1.2 4.3.7 6.4.3 1.3.9 2.6 1.8 3.6.7.8 1.5 1.4 2.5 1.7 1 .3 1.9.4 2.9.4.7 0 1.3-.1 2-.1.7-.1 1.4-.2 2-.4s1.3-.1 1.9-.3m19.1-7.3v-1.8c0-1.5-.1-2.9-.6-4.3-.3-.9-.8-1.8-1.5-2.5-.5-.6-1.2-1-2-1.2-.7-.2-1.5-.3-2.3-.3-.8 0-1.7.1-2.5.4-.8.3-1.6.8-2.1 1.4-.7.8-1.2 1.8-1.5 2.8-.4 1.5-.6 3-.6 4.6-.1 1.7.2 3.4.7 5 .4 1.1 1 2 1.8 2.8.7.6 1.5 1 2.4 1.2.9.2 1.8.2 2.6.2.7 0 1.5-.1 2.2-.2.8-.1 1.6-.4 2.4-.6V179c-.9.2-1.7.5-2.5.6-.7.2-1.4.2-2.1.2-.5 0-1 0-1.4-.1-.5-.1-1-.3-1.5-.6-.5-.4-.9-1-1.1-1.7-.4-1-.5-2.1-.5-3.2h10.1zm-10-2.1c0-1 .1-1.9.3-2.9.1-.6.4-1.2.8-1.8.3-.4.7-.7 1.1-.9.5-.2 1-.2 1.5-.2.4 0 .9.1 1.3.2s.8.4 1.1.8c.4.5.6 1.1.7 1.8.2 1 .3 2 .3 3h-7.1zm22.8-7.8l-.8-.1c-.2 0-.5-.1-.7-.1-.5 0-.9.1-1.3.2-.4.2-.7.4-1 .6-.3.3-.6.5-.8.9-.2.3-.4.7-.6 1l-.4-2.4h-2.3v17.8h3v-13.6c.3-.4.7-.7 1.2-1 .5-.3 1-.4 1.6-.4.4 0 .7 0 1.1.1.4.1.7.1 1.1.2l-.1-3.2zm26.2 17.9v-12.8c0-.9-.1-1.7-.3-2.6-.2-.6-.5-1.2-.9-1.6-.4-.4-.9-.7-1.5-.9-.6-.2-1.3-.3-1.9-.2-.6 0-1.2.1-1.8.3-.5.2-1.1.4-1.6.7-.4.3-.9.6-1.2.9-.4.3-.7.6-.9.8-.2-.9-.7-1.6-1.5-2-.9-.5-1.8-.7-2.8-.7-.5 0-1.1.1-1.6.2-.5.2-1 .4-1.4.6-.4.2-.8.5-1.2.8-.4.3-.7.6-1 .8l-.7-2.1h-2.3v17.8h3v-13.6c.6-.5 1.3-.9 2-1.2.7-.4 1.5-.5 2.4-.6.3 0 .6 0 .9.1.3 0 .5.2.7.3.2.2.4.5.5.7.1.4.2.9.2 1.3v12.9h3v-13.6c.3-.2.6-.4 1-.6.4-.2.7-.4 1.1-.6.4-.2.8-.3 1.2-.4.4-.1.7-.1 1.1-.1.3 0 .6 0 .9.1.3 0 .5.2.7.3.2.2.4.5.5.7.1.4.2.9.2 1.3v12.9l3.2.1zm17.2 0v-12.3c0-1-.1-2-.5-3-.3-.7-.7-1.3-1.3-1.7-.6-.4-1.2-.7-1.9-.8-.8-.1-1.5-.2-2.3-.2-.9 0-1.9.1-2.8.3-.9.2-1.7.4-2.5.6v2.6l.8-.2c.4-.1.8-.2 1.3-.3s1-.2 1.4-.3c.4-.1.9-.1 1.3-.1.5 0 1 0 1.4.1.4 0 .7.1 1.1.4.3.2.5.5.7.8.2.5.2.9.2 1.4v1.9h-2.9c-.8 0-1.6.1-2.4.2-.8.1-1.5.4-2.2.8-.7.4-1.2 1-1.6 1.7-.5.9-.7 1.9-.6 2.9 0 1 .1 2 .5 2.9.3.7.7 1.2 1.3 1.7.5.4 1.1.7 1.7.8.6.1 1.1.2 1.7.2.5 0 1-.1 1.5-.2s.9-.3 1.3-.6c.4-.2.7-.5 1-.8.3-.3.5-.5.8-.9l.3 2.1h2.7zm-3-4c-.5.5-1.2 1-1.8 1.3-.6.3-1.3.5-2 .6-.4 0-.7 0-1.1-.1-.3-.1-.6-.2-.9-.5-.3-.3-.5-.6-.6-1-.2-.6-.3-1.2-.2-1.8 0-.6.1-1.2.3-1.8.2-.4.5-.8.9-1.1.4-.3.9-.5 1.4-.5.6-.1 1.2-.2 1.9-.1h2.2l-.1 5zm22.3 4v-12.8c0-.9-.1-1.7-.4-2.6-.2-.6-.6-1.2-1.1-1.6-.5-.4-1-.7-1.6-.9-.7-.2-1.4-.3-2-.2-.6 0-1.3.1-1.9.3-.6.2-1.1.4-1.7.7-.5.2-.9.5-1.3.8-.3.2-.6.5-.9.7l-.7-2.2h-2.2v17.8h3v-13.6c.8-.5 1.6-1 2.5-1.3.8-.3 1.6-.5 2.4-.5.3 0 .7 0 1 .1.3 0 .6.1.9.3.3.2.5.4.7.7.2.4.3.9.2 1.4v12.9h3.1zm14.5-17.8l-3.5 14.2-4.5-14.2h-3.6l6.6 17.7-.2.9c-.1.6-.3 1.1-.5 1.7-.2.4-.4.7-.6 1-.2.2-.4.4-.7.5-.2.1-.5.1-.8.1-.3 0-.6 0-.9-.1-.3 0-.7-.1-1-.2s-.8-.1-1.1-.2v2.5l1 .3c.3.1.6.1 1 .2.4 0 .7.1 1.1.1.5 0 1-.1 1.4-.1.5-.1 1-.3 1.4-.6.5-.4.9-.9 1.3-1.4.5-.8.8-1.6 1-2.5l5.8-19.8-3.2-.1z"/></g></g></g></svg>